<?xml version="1.0" encoding="UTF-8"?><svg id="Layer_1" xmlns="http://www.w3.org/2000/svg" viewBox="0 0 399.84 460"><defs><style>.cls-1{fill:#0d0e10;}.cls-2,.cls-3,.cls-4{stroke-miterlimit:10;}.cls-2,.cls-3,.cls-4,.cls-5{fill:none;}.cls-2,.cls-5{stroke:#0d0e10;}.cls-3{stroke:#91919d;}.cls-4{stroke:#ff512f;}</style></defs><g><line class="cls-5" x1="199.92" y1="115.55" x2="199.92" y2="166.87"/><polygon class="cls-1" points="197.74 165.38 199.92 173.51 202.1 165.38 197.74 165.38"/></g><g><path class="cls-1" d="M195,405.97c-1.23,0-2.28-.27-3.14-.81-.87-.54-1.53-1.29-1.98-2.25-.46-.96-.69-2.08-.69-3.35s.23-2.38,.69-3.35c.46-.96,1.12-1.71,1.98-2.25,.86-.54,1.91-.81,3.14-.81,1.42,0,2.59,.36,3.52,1.08,.93,.72,1.58,1.68,1.94,2.89l-1.81,.49c-.24-.86-.67-1.53-1.28-2.02-.61-.49-1.4-.73-2.38-.73-.87,0-1.6,.2-2.18,.59s-1.02,.94-1.31,1.65c-.29,.71-.44,1.53-.44,2.47,0,.94,.14,1.76,.43,2.47,.29,.71,.73,1.25,1.31,1.65,.58,.39,1.31,.59,2.18,.59,.97,0,1.77-.25,2.38-.74s1.04-1.17,1.28-2.02l1.81,.49c-.36,1.21-1.01,2.18-1.94,2.89-.93,.72-2.1,1.08-3.52,1.08Z"/><path class="cls-1" d="M202,405.71v-1.59s5.36-4.8,5.36-4.8c.43-.38,.73-.75,.88-1.09,.16-.35,.24-.69,.24-1.04,0-.44-.1-.83-.29-1.18-.19-.35-.46-.63-.8-.83-.34-.21-.73-.31-1.18-.31s-.86,.11-1.22,.32c-.36,.21-.63,.5-.83,.85s-.3,.73-.29,1.14h-1.83c0-.8,.18-1.5,.54-2.09,.36-.6,.86-1.07,1.49-1.41,.63-.34,1.35-.51,2.17-.51s1.47,.17,2.08,.52c.62,.35,1.1,.83,1.46,1.44,.36,.61,.53,1.3,.53,2.08,0,.56-.07,1.04-.22,1.43-.15,.39-.37,.76-.67,1.09s-.67,.7-1.11,1.09l-4.13,3.69-.2-.51h6.32v1.7h-8.31Z"/></g><path class="cls-4" d="M199.92,455.16c30.57,0,55.36-24.79,55.36-55.36s-24.79-55.36-55.36-55.36-55.36,24.79-55.36,55.36,24.79,55.36,55.36,55.36Z"/><g><path class="cls-1" d="M333.95,405.97c-1.23,0-2.28-.27-3.14-.81-.87-.54-1.53-1.29-1.98-2.25-.46-.96-.69-2.08-.69-3.35s.23-2.38,.69-3.35c.46-.96,1.12-1.71,1.98-2.25,.86-.54,1.91-.81,3.14-.81,1.42,0,2.59,.36,3.52,1.08,.93,.72,1.58,1.68,1.94,2.89l-1.81,.49c-.24-.86-.67-1.53-1.28-2.02-.61-.49-1.4-.73-2.38-.73-.87,0-1.6,.2-2.18,.59s-1.02,.94-1.31,1.65c-.29,.71-.44,1.53-.44,2.47,0,.94,.14,1.76,.43,2.47,.29,.71,.73,1.25,1.31,1.65,.58,.39,1.31,.59,2.18,.59,.97,0,1.77-.25,2.38-.74s1.04-1.17,1.28-2.02l1.81,.49c-.36,1.21-1.01,2.18-1.94,2.89-.93,.72-2.1,1.08-3.52,1.08Z"/><path class="cls-1" d="M344.72,405.95c-.61,0-1.18-.12-1.71-.35-.54-.23-1-.56-1.39-.99s-.67-.93-.85-1.51l1.72-.48c.17,.53,.45,.93,.86,1.22,.41,.28,.86,.42,1.37,.41,.45,0,.84-.11,1.19-.32,.34-.2,.61-.48,.8-.83,.19-.35,.29-.75,.29-1.21,0-.68-.21-1.25-.64-1.69-.42-.44-.98-.67-1.66-.67-.19,0-.39,.03-.59,.08-.2,.06-.39,.13-.57,.22l-.84-1.41,4.33-3.83,.19,.51h-5.97v-1.7h7.39v1.7l-3.6,3.46-.02-.58c.77,0,1.45,.17,2.01,.52,.57,.34,1.01,.81,1.32,1.4,.31,.59,.47,1.25,.47,1.98,0,.79-.18,1.48-.55,2.09-.37,.61-.86,1.09-1.48,1.43s-1.31,.52-2.08,.52Z"/></g><path class="cls-4" d="M338.74,455.16c30.57,0,55.36-24.79,55.36-55.36s-24.79-55.36-55.36-55.36-55.36,24.79-55.36,55.36,24.79,55.36,55.36,55.36Z"/><g><path class="cls-1" d="M57.59,405.97c-1.23,0-2.28-.27-3.14-.81-.87-.54-1.53-1.29-1.98-2.25-.46-.96-.69-2.08-.69-3.35s.23-2.38,.69-3.35c.46-.96,1.12-1.71,1.98-2.25,.86-.54,1.91-.81,3.14-.81,1.42,0,2.59,.36,3.52,1.08,.93,.72,1.58,1.68,1.94,2.89l-1.81,.49c-.24-.86-.67-1.53-1.28-2.02-.61-.49-1.4-.73-2.38-.73-.87,0-1.6,.2-2.18,.59s-1.02,.94-1.31,1.65c-.29,.71-.44,1.53-.44,2.47,0,.94,.14,1.76,.43,2.47,.29,.71,.73,1.25,1.31,1.65,.58,.39,1.31,.59,2.18,.59,.97,0,1.77-.25,2.38-.74s1.04-1.17,1.28-2.02l1.81,.49c-.36,1.21-1.01,2.18-1.94,2.89-.93,.72-2.1,1.08-3.52,1.08Z"/><path class="cls-1" d="M67.07,405.72v-10.33l-2.31,1.41v-1.99l2.31-1.38h1.82v12.29h-1.82Z"/></g><path class="cls-4" d="M61.1,455.16c30.57,0,55.36-24.79,55.36-55.36s-24.79-55.36-55.36-55.36-55.36,24.79-55.36,55.36,24.79,55.36,55.36,55.36Z"/><g><path class="cls-1" d="M167.01,236.14v-5.08l-4.16-7.21h2.08l2.98,5.16,2.98-5.16h2.08l-4.16,7.21v5.08h-1.81Z"/><path class="cls-1" d="M176.82,236.4c-.92,0-1.72-.21-2.4-.62-.68-.42-1.2-.99-1.57-1.72s-.55-1.57-.55-2.53,.19-1.81,.56-2.54c.38-.73,.9-1.3,1.58-1.71,.68-.41,1.47-.61,2.37-.61s1.72,.21,2.4,.62c.68,.42,1.2,.99,1.57,1.72,.37,.73,.55,1.57,.55,2.52s-.19,1.81-.56,2.54c-.37,.73-.9,1.3-1.57,1.72-.68,.41-1.47,.62-2.39,.62Zm0-1.68c.88,0,1.54-.3,1.98-.89s.65-1.36,.65-2.3-.22-1.73-.66-2.31c-.44-.58-1.1-.87-1.97-.87-.6,0-1.09,.14-1.48,.41-.39,.27-.67,.64-.86,1.12-.19,.48-.28,1.03-.28,1.65,0,.97,.22,1.74,.67,2.32,.44,.58,1.09,.87,1.95,.87Z"/><path class="cls-1" d="M186.7,236.39c-.64,0-1.17-.1-1.6-.31-.43-.21-.78-.47-1.05-.81s-.48-.7-.62-1.09c-.14-.39-.24-.78-.29-1.15-.05-.38-.08-.71-.08-.99v-5.12h1.81v4.53c0,.36,.03,.73,.09,1.1s.17,.73,.34,1.05c.17,.32,.4,.59,.71,.79s.7,.3,1.19,.3c.32,0,.62-.05,.9-.16,.29-.11,.53-.27,.75-.51s.38-.54,.5-.92c.12-.38,.18-.84,.18-1.39l1.11,.42c0,.84-.16,1.57-.47,2.21-.31,.64-.76,1.14-1.35,1.5s-1.29,.54-2.12,.54Zm3.05-.25v-2.66h-.21v-6.55h1.8v9.22h-1.59Z"/><path class="cls-1" d="M193.72,236.14v-9.22h1.59v2.24l-.22-.29c.11-.3,.26-.57,.44-.81s.39-.45,.63-.61c.23-.17,.49-.3,.78-.4,.29-.09,.58-.15,.88-.17s.59,0,.87,.05v1.67c-.3-.08-.64-.1-1-.07-.37,.03-.7,.15-1.01,.35-.29,.19-.52,.42-.69,.68-.17,.27-.29,.56-.36,.89s-.11,.67-.11,1.04v4.65h-1.8Z"/><path class="cls-1" d="M203.73,236.14v-12.29h1.61l4.46,9.24,4.43-9.24h1.63v12.28h-1.69v-8.41l-3.97,8.41h-.81l-3.98-8.41v8.41h-1.68Z"/><path class="cls-1" d="M218.42,236.14v-12.29h1.78v10.61h5.56v1.68h-7.35Z"/><path class="cls-1" d="M231.67,236.4c-.88,0-1.68-.15-2.38-.46-.71-.3-1.29-.74-1.75-1.31-.46-.57-.75-1.24-.89-2.02l1.86-.28c.19,.75,.58,1.34,1.18,1.75,.6,.42,1.29,.63,2.09,.63,.5,0,.95-.08,1.37-.23,.42-.16,.75-.38,1-.67s.38-.64,.38-1.05c0-.22-.04-.42-.12-.59-.08-.17-.18-.32-.32-.45-.13-.13-.3-.24-.49-.33-.19-.09-.4-.17-.63-.24l-3.15-.93c-.31-.09-.62-.21-.94-.35s-.61-.34-.87-.57c-.26-.24-.48-.53-.64-.88-.17-.35-.25-.77-.25-1.28,0-.76,.2-1.4,.58-1.92,.39-.53,.92-.92,1.58-1.19,.67-.27,1.41-.41,2.24-.41,.83,.01,1.57,.16,2.23,.44,.66,.28,1.2,.69,1.64,1.22,.43,.53,.74,1.18,.9,1.93l-1.91,.32c-.08-.46-.27-.86-.55-1.19-.28-.33-.62-.59-1.02-.77s-.84-.27-1.31-.28c-.46-.01-.87,.06-1.25,.2s-.68,.36-.9,.62c-.22,.27-.34,.57-.34,.92s.1,.62,.3,.83,.45,.38,.74,.5c.29,.12,.58,.22,.88,.3l2.27,.64c.28,.08,.61,.19,.97,.32,.36,.13,.71,.32,1.05,.56,.34,.24,.62,.56,.84,.95s.33,.89,.33,1.49-.12,1.16-.38,1.63c-.25,.47-.59,.86-1.03,1.18-.43,.32-.94,.55-1.51,.71s-1.17,.24-1.8,.24Z"/></g><rect class="cls-3" x="144.56" y="174.64" width="110.72" height="110.72"/><g><path class="cls-1" d="M189.25,66.1v-5.08l-4.16-7.21h2.08l2.98,5.16,2.98-5.16h2.08l-4.16,7.21v5.08h-1.81Z"/><path class="cls-1" d="M199.06,66.36c-.92,0-1.72-.21-2.4-.62-.68-.42-1.2-.99-1.57-1.72s-.55-1.57-.55-2.53,.19-1.81,.56-2.54c.38-.73,.9-1.3,1.58-1.71,.68-.41,1.47-.61,2.37-.61s1.72,.21,2.4,.62c.68,.42,1.2,.99,1.57,1.72,.37,.73,.55,1.57,.55,2.52s-.19,1.81-.56,2.54c-.37,.73-.9,1.3-1.57,1.72-.68,.41-1.47,.62-2.39,.62Zm0-1.68c.88,0,1.54-.3,1.98-.89s.65-1.36,.65-2.3-.22-1.73-.66-2.31c-.44-.58-1.1-.87-1.97-.87-.6,0-1.09,.14-1.48,.41-.39,.27-.67,.64-.86,1.12-.19,.48-.28,1.03-.28,1.65,0,.97,.22,1.74,.67,2.32,.44,.58,1.09,.87,1.95,.87Z"/><path class="cls-1" d="M208.94,66.35c-.64,0-1.17-.1-1.6-.31-.43-.21-.78-.47-1.05-.81s-.48-.7-.62-1.09c-.14-.39-.24-.78-.29-1.15-.05-.38-.08-.71-.08-.99v-5.12h1.81v4.53c0,.36,.03,.73,.09,1.1s.17,.73,.34,1.05c.17,.32,.4,.59,.71,.79s.7,.3,1.19,.3c.32,0,.62-.05,.9-.16,.29-.11,.53-.27,.75-.51s.38-.54,.5-.92c.12-.38,.18-.84,.18-1.39l1.11,.42c0,.84-.16,1.57-.47,2.21-.31,.64-.76,1.14-1.35,1.5s-1.29,.54-2.12,.54Zm3.05-.25v-2.66h-.21v-6.55h1.8v9.22h-1.59Z"/></g><path class="cls-2" d="M199.92,115.56c30.57,0,55.36-24.79,55.36-55.36S230.5,4.84,199.92,4.84s-55.36,24.79-55.36,55.36,24.79,55.36,55.36,55.36Z"/><g><line class="cls-5" x1="199.92" y1="292.66" x2="199.92" y2="336.93"/><polygon class="cls-1" points="197.74 294.15 199.92 286.02 202.1 294.15 197.74 294.15"/><polygon class="cls-1" points="197.74 335.45 199.92 343.58 202.1 335.45 197.74 335.45"/></g><g><line class="cls-5" x1="149.93" y1="290.81" x2="69.41" y2="339.69"/><polygon class="cls-1" points="147.53 289.72 155.61 287.36 149.79 293.45 147.53 289.72"/><polygon class="cls-1" points="69.55 337.06 63.73 343.14 71.81 340.78 69.55 337.06"/></g><g><line class="cls-5" x1="249.91" y1="290.81" x2="330.43" y2="339.69"/><polygon class="cls-1" points="250.05 293.45 244.23 287.36 252.31 289.72 250.05 293.45"/><polygon class="cls-1" points="328.03 340.78 336.11 343.14 330.29 337.06 328.03 340.78"/></g></svg>