<svg width="2496" height="1548" viewBox="0 0 2496 1548" fill="none" xmlns="http://www.w3.org/2000/svg">
<path d="M1216.38 670.48L1010.94 708.557L1049 913.921L1254.44 875.844L1216.38 670.48Z" fill="#27292C"/>
<path d="M437.36 336.92L231.914 374.997L241.43 426.339L446.876 388.261L437.36 336.92Z" fill="#27292C"/>
<path d="M451.634 413.932L246.188 452.009L255.703 503.35L461.149 465.273L451.634 413.932Z" fill="#27292C"/>
<path d="M465.907 490.944L260.461 529.021L269.977 580.362L475.423 542.285L465.907 490.944Z" fill="#27292C"/>
<path d="M146.33 629.831C89.5965 640.346 52.1276 694.84 62.6384 751.552C73.1493 808.263 127.659 845.71 184.392 835.195C241.126 824.68 278.595 770.186 268.084 713.475C257.574 656.763 203.064 619.316 146.33 629.831Z" fill="#27292C"/>
<path d="M753.833 1136.79L741.147 1068.34L672.671 1081.03L659.983 1012.57L591.498 1025.27L629.56 1230.63L835.006 1192.55L822.318 1124.09L753.833 1136.79Z" fill="#27292C"/>
<path d="M760.855 792.462L717.813 762.884L663.706 841.576L584.992 787.501L555.409 830.539L634.121 884.605L580.014 963.297L623.056 992.875L677.163 914.183L755.877 968.258L785.46 925.22L706.757 871.142L760.855 792.462Z" fill="#27292C"/>
<path d="M334.692 1072.86L129.246 1110.94L138.762 1162.28L344.208 1124.2L334.692 1072.86Z" fill="#27292C"/>
<path d="M363.239 1226.89L157.793 1264.96L167.309 1316.3L372.755 1278.23L363.239 1226.89Z" fill="#27292C"/>
<path d="M348.965 1149.87L297.603 1159.39L307.119 1210.73L358.48 1201.21L348.965 1149.87Z" fill="#27292C"/>
<path d="M194.881 1178.43L143.52 1187.95L153.035 1239.29L204.397 1229.77L194.881 1178.43Z" fill="#27292C"/>
<path d="M271.924 1164.15L220.562 1173.67L230.078 1225.01L281.439 1215.49L271.924 1164.15Z" fill="#27292C"/>
<path d="M1028.07 944.352L822.627 982.429L860.689 1187.79L1066.13 1149.72L1028.07 944.352ZM949.914 1011.94L895.806 1090.62L883.504 1024.25L949.914 1011.94ZM992.956 1041.52L1005.26 1107.89L938.848 1120.2L992.946 1041.52L992.956 1041.52Z" fill="#27292C"/>
<path d="M1265.93 937.823L1297.26 1106.88L1128.13 1138.24L1169.98 1077.38L1236.39 1065.07L1224.08 998.684L1265.93 937.823Z" fill="#27292C"/>
<path d="M1222.89 908.245L1181.04 969.106L1114.63 981.414L1126.93 1047.79L1085.09 1108.65L1053.75 939.592L1222.89 908.245Z" fill="#27292C"/>
<path d="M122.541 501.478L19.8176 520.517L38.8486 623.199L141.572 604.16L122.541 501.478Z" fill="#27292C"/>
<path d="M0.787109 417.834L244.295 585.122L206.233 379.757L0.787109 417.834Z" fill="#27292C"/>
<path d="M1105.08 452.136L1036.6 464.829L1049.29 533.288L1117.77 520.594L1105.08 452.136Z" fill="#27292C"/>
<path d="M1130.46 589.042L1061.97 601.735L1074.66 670.194L1143.15 657.501L1130.46 589.042Z" fill="#27292C"/>
<path d="M1186.25 507.903L1117.76 520.596L1130.45 589.055L1198.94 576.362L1186.25 507.903Z" fill="#27292C"/>
<path d="M1049.29 533.288L980.801 545.981L993.489 614.439L1061.97 601.746L1049.29 533.288Z" fill="#27292C"/>
<path d="M668.486 294.083L617.125 303.603L626.64 354.944L678.001 345.424L668.486 294.083Z" fill="#27292C"/>
<path d="M668.486 294.083L617.125 303.603L626.64 354.944L678.001 345.424L668.486 294.083Z" fill="#27292C"/>
<path d="M514.403 322.641L463.041 332.16L472.557 383.502L523.918 373.982L514.403 322.641Z" fill="#27292C"/>
<path d="M591.445 308.362L540.084 317.882L549.599 369.223L600.961 359.703L591.445 308.362Z" fill="#27292C"/>
<path d="M682.761 371.095L631.4 380.614L640.915 431.955L692.277 422.436L682.761 371.095Z" fill="#27292C"/>
<path d="M528.676 399.653L477.315 409.172L486.83 460.513L538.192 450.994L528.676 399.653Z" fill="#27292C"/>
<path d="M605.719 385.374L554.357 394.893L563.873 446.234L615.234 436.715L605.719 385.374Z" fill="#27292C"/>
<path d="M697.033 448.107L645.672 457.626L655.187 508.967L706.549 499.448L697.033 448.107Z" fill="#27292C"/>
<path d="M542.95 476.665L491.588 486.184L501.104 537.525L552.465 528.006L542.95 476.665Z" fill="#27292C"/>
<path d="M619.991 462.386L568.629 471.905L578.145 523.246L629.506 513.727L619.991 462.386Z" fill="#27292C"/>
<path d="M913.336 583.263C938.865 578.531 955.727 554.008 950.997 528.489C946.267 502.969 921.737 486.117 896.208 490.849C870.678 495.581 853.817 520.104 858.546 545.623C863.276 571.143 887.806 587.995 913.336 583.263Z" fill="#27292C"/>
<path d="M800.342 604.205C825.871 599.474 842.733 574.95 838.003 549.431C833.273 523.912 808.743 507.06 783.214 511.791C757.684 516.523 740.823 541.046 745.552 566.566C750.282 592.085 774.812 608.937 800.342 604.205Z" fill="#27292C"/>
<path d="M934.27 696.213C959.8 691.482 976.661 666.958 971.932 641.439C967.202 615.92 942.672 599.068 917.142 603.799C891.613 608.531 874.751 633.054 879.481 658.574C884.211 684.093 908.741 700.945 934.27 696.213Z" fill="#27292C"/>
<path d="M821.276 717.156C846.806 712.424 863.667 687.901 858.937 662.381C854.208 636.862 829.678 620.01 804.148 624.742C778.619 629.473 761.757 653.997 766.487 679.516C771.216 705.036 795.746 721.887 821.276 717.156Z" fill="#27292C"/>
<path d="M460.23 890.281L408.869 899.8L418.384 951.142L469.746 941.622L460.23 890.281Z" fill="#27292C"/>
<path d="M317.553 837.068L355.615 1042.43L561.061 1004.35L522.999 798.991L317.553 837.068ZM500.184 962.533L397.461 981.572L378.43 878.89L481.153 859.851L500.184 962.533Z" fill="#27292C"/>
<path d="M377.457 586.994C320.723 597.509 283.255 652.003 293.765 708.715C304.276 765.426 358.785 802.873 415.519 792.358C472.253 781.843 509.722 727.349 499.211 670.638C488.7 613.926 434.191 576.479 377.457 586.994ZM406.004 741.017C377.642 746.274 350.381 727.546 345.127 699.195C339.872 670.845 358.611 643.592 386.973 638.335C415.335 633.079 442.595 651.806 447.85 680.157C453.104 708.507 434.366 735.761 406.004 741.017Z" fill="#27292C"/>
<path d="M899.614 251.247L694.168 289.324L703.683 340.665L821.455 318.837L725.503 458.39L768.544 487.969L864.497 348.416L886.314 466.131L937.676 456.611L899.614 251.247Z" fill="#27292C"/>
<path d="M963.357 451.862L1168.8 413.785L1159.29 362.444L1041.52 384.271L1137.47 244.718L1094.43 215.14L998.472 354.683L976.654 236.968L925.293 246.487L963.357 451.862Z" fill="#27292C"/>
<path d="M557.221 553.676L566.737 605.017L669.46 585.979L688.491 688.661L739.852 679.142L711.306 525.118L557.221 553.676Z" fill="#27292C"/>
<path d="M505.859 563.196L566.737 605.017L557.221 553.676L505.859 563.196Z" fill="#27292C"/>
<path d="M688.491 688.661L749.367 730.483L739.852 679.142L688.491 688.661Z" fill="#27292C"/>
<path d="M627.613 646.839L524.89 665.878L543.921 768.56L646.644 749.521L627.613 646.839Z" fill="#27292C"/>
<path d="M310.904 944.511L189.151 860.868L105.46 982.588L227.213 1066.23L310.904 944.511Z" fill="#27292C"/>
<path d="M537.645 1105.33L536.114 1147.74L515.416 1100.71L471.566 1091.59L469.706 1142.8L449.319 1086.92L405.514 1077.79L398.435 1273.47L442.894 1265.23L445.074 1205.21L465.453 1261.05L509.912 1252.81L511.772 1201.6L532.47 1248.62L576.929 1240.38L581.474 1114.49L537.662 1105.32L537.645 1105.33Z" fill="#27292C"/>
<path d="M882.53 732.355L798.838 854.076L920.592 937.72L1004.28 815.999L882.53 732.355ZM852.932 842.903L892.384 785.524L949.779 824.954L910.326 882.333L852.932 842.903Z" fill="#27292C"/>
<path d="M2372.1 456.279L2166.66 494.356L2204.72 699.721L2410.17 661.644L2372.1 456.279Z" fill="#27292C"/>
<path d="M1593.08 122.72L1387.64 160.797L1397.15 212.138L1602.6 174.061L1593.08 122.72Z" fill="#27292C"/>
<path d="M1607.36 199.731L1401.91 237.808L1411.43 289.15L1616.87 251.072L1607.36 199.731Z" fill="#27292C"/>
<path d="M1621.63 276.743L1416.18 314.82L1425.7 366.161L1631.15 328.084L1621.63 276.743Z" fill="#27292C"/>
<path d="M1302.05 415.63C1245.32 426.145 1207.85 480.64 1218.36 537.351C1228.87 594.062 1283.38 631.51 1340.12 620.995C1396.85 610.48 1434.32 555.985 1423.81 499.274C1413.3 442.562 1358.79 405.115 1302.05 415.63Z" fill="#27292C"/>
<path d="M1909.56 922.587L1896.87 854.139L1828.39 866.83L1815.71 798.372L1747.22 811.065L1785.28 1016.43L1990.73 978.352L1978.04 909.894L1909.56 922.587Z" fill="#27292C"/>
<path d="M1916.58 578.261L1873.54 548.683L1819.43 627.376L1740.71 573.3L1711.13 616.339L1789.84 670.404L1735.74 749.096L1778.78 778.675L1832.89 699.982L1911.6 754.058L1941.18 711.019L1862.48 656.942L1916.58 578.261Z" fill="#27292C"/>
<path d="M1490.41 858.661L1284.97 896.739L1294.48 948.08L1499.93 910.003L1490.41 858.661Z" fill="#27292C"/>
<path d="M1518.96 1012.68L1313.52 1050.76L1323.03 1102.1L1528.48 1064.03L1518.96 1012.68Z" fill="#27292C"/>
<path d="M1504.69 935.673L1453.33 945.192L1462.84 996.534L1514.2 987.014L1504.69 935.673Z" fill="#27292C"/>
<path d="M1350.6 964.231L1299.24 973.75L1308.76 1025.09L1360.12 1015.57L1350.6 964.231Z" fill="#27292C"/>
<path d="M1427.65 949.952L1376.28 959.471L1385.8 1010.81L1437.16 1001.29L1427.65 949.952Z" fill="#27292C"/>
<path d="M2183.8 730.151L1978.35 768.228L2016.41 973.593L2221.86 935.516L2183.8 730.151ZM2105.64 797.742L2051.53 876.424L2039.23 810.05L2105.64 797.742ZM2148.68 827.32L2160.98 893.694L2094.57 906.002L2148.67 827.322L2148.68 827.32Z" fill="#27292C"/>
<path d="M2421.65 723.623L2452.99 892.679L2283.85 924.036L2325.7 863.176L2392.11 850.867L2379.81 784.483L2421.65 723.623Z" fill="#27292C"/>
<path d="M2378.61 694.044L2336.76 754.905L2270.35 767.213L2282.66 833.587L2240.81 894.447L2209.48 725.391L2378.61 694.044Z" fill="#27292C"/>
<path d="M1278.26 287.277L1175.54 306.316L1194.57 408.998L1297.29 389.959L1278.26 287.277Z" fill="#27292C"/>
<path d="M1156.51 203.634L1400.02 370.921L1361.96 165.556L1156.51 203.634Z" fill="#27292C"/>
<path d="M2260.81 237.936L2192.32 250.629L2205.01 319.087L2273.49 306.394L2260.81 237.936Z" fill="#27292C"/>
<path d="M2286.18 374.842L2217.7 387.535L2230.38 455.993L2298.87 443.3L2286.18 374.842Z" fill="#27292C"/>
<path d="M2341.97 293.703L2273.48 306.396L2286.17 374.854L2354.66 362.161L2341.97 293.703Z" fill="#27292C"/>
<path d="M2205.01 319.087L2136.52 331.78L2149.21 400.238L2217.7 387.545L2205.01 319.087Z" fill="#27292C"/>
<path d="M1824.21 79.8827L1772.85 89.402L1782.36 140.743L1833.72 131.224L1824.21 79.8827Z" fill="#27292C"/>
<path d="M1824.21 79.8827L1772.85 89.402L1782.36 140.743L1833.72 131.224L1824.21 79.8827Z" fill="#27292C"/>
<path d="M1670.13 108.441L1618.76 117.96L1628.28 169.301L1679.64 159.782L1670.13 108.441Z" fill="#27292C"/>
<path d="M1747.17 94.1616L1695.81 103.681L1705.32 155.022L1756.68 145.503L1747.17 94.1616Z" fill="#27292C"/>
<path d="M1838.48 156.894L1787.12 166.414L1796.64 217.755L1848 208.235L1838.48 156.894Z" fill="#27292C"/>
<path d="M1684.4 185.452L1633.04 194.971L1642.55 246.313L1693.91 236.793L1684.4 185.452Z" fill="#27292C"/>
<path d="M1761.44 171.173L1710.08 180.693L1719.6 232.034L1770.96 222.514L1761.44 171.173Z" fill="#27292C"/>
<path d="M1852.76 233.906L1801.39 243.425L1810.91 294.766L1862.27 285.247L1852.76 233.906Z" fill="#27292C"/>
<path d="M1698.67 262.464L1647.31 271.983L1656.83 323.324L1708.19 313.805L1698.67 262.464Z" fill="#27292C"/>
<path d="M1775.71 248.185L1724.35 257.704L1733.87 309.045L1785.23 299.526L1775.71 248.185Z" fill="#27292C"/>
<path d="M2069.06 369.062C2094.59 364.331 2111.45 339.807 2106.72 314.288C2101.99 288.768 2077.46 271.917 2051.93 276.648C2026.4 281.38 2009.54 305.903 2014.27 331.423C2019 356.942 2043.53 373.794 2069.06 369.062Z" fill="#27292C"/>
<path d="M1956.06 390.005C1981.59 385.273 1998.46 360.75 1993.73 335.23C1989 309.711 1964.47 292.859 1938.94 297.591C1913.41 302.322 1896.55 326.846 1901.27 352.365C1906 377.884 1930.53 394.736 1956.06 390.005Z" fill="#27292C"/>
<path d="M2089.99 482.013C2115.52 477.281 2132.38 452.758 2127.65 427.238C2122.92 401.719 2098.39 384.867 2072.86 389.599C2047.34 394.33 2030.47 418.854 2035.2 444.373C2039.93 469.892 2064.46 486.744 2089.99 482.013Z" fill="#27292C"/>
<path d="M1977 502.955C2002.53 498.224 2019.39 473.7 2014.66 448.181C2009.93 422.661 1985.4 405.81 1959.87 410.541C1934.34 415.273 1917.48 439.796 1922.21 465.315C1926.94 490.835 1951.47 507.687 1977 502.955Z" fill="#27292C"/>
<path d="M1615.95 676.08L1564.59 685.6L1574.11 736.941L1625.47 727.422L1615.95 676.08Z" fill="#27292C"/>
<path d="M1473.28 622.867L1511.34 828.231L1716.78 790.154L1678.72 584.79L1473.28 622.867ZM1655.91 748.333L1553.18 767.371L1534.15 664.689L1636.88 645.65L1655.91 748.333Z" fill="#27292C"/>
<path d="M1533.18 372.793C1476.45 383.308 1438.98 437.803 1449.49 494.514C1460 551.225 1514.51 588.673 1571.24 578.158C1627.98 567.643 1665.44 513.148 1654.93 456.437C1644.42 399.726 1589.91 362.278 1533.18 372.793ZM1561.73 526.817C1533.36 532.073 1506.1 513.345 1500.85 484.995C1495.6 456.644 1514.33 429.391 1542.7 424.134C1571.06 418.878 1598.32 437.606 1603.57 465.956C1608.83 494.307 1590.09 521.56 1561.73 526.817Z" fill="#27292C"/>
<path d="M2055.34 37.0462L1849.89 75.1234L1859.41 126.464L1977.18 104.637L1881.23 244.19L1924.27 273.768L2020.22 134.215L2042.04 251.93L2093.4 242.411L2055.34 37.0462Z" fill="#27292C"/>
<path d="M2119.08 237.661L2324.53 199.584L2315.01 148.243L2197.24 170.071L2293.19 30.5177L2250.15 0.939453L2154.19 140.482L2132.38 22.7672L2081.02 32.2865L2119.08 237.661Z" fill="#27292C"/>
<path d="M1712.94 339.476L1722.46 390.817L1825.18 371.778L1844.21 474.46L1895.57 464.941L1867.03 310.918L1712.94 339.476Z" fill="#27292C"/>
<path d="M1661.58 348.995L1722.46 390.817L1712.94 339.476L1661.58 348.995Z" fill="#27292C"/>
<path d="M1844.21 474.46L1905.09 516.282L1895.57 464.941L1844.21 474.46Z" fill="#27292C"/>
<path d="M1783.34 432.639L1680.61 451.677L1699.64 554.359L1802.37 535.321L1783.34 432.639Z" fill="#27292C"/>
<path d="M1466.63 730.31L1344.87 646.667L1261.18 768.387L1382.94 852.03L1466.63 730.31Z" fill="#27292C"/>
<path d="M1693.37 891.133L1691.84 933.535L1671.14 886.507L1627.29 877.394L1625.43 928.603L1605.04 872.722L1561.24 863.591L1554.16 1059.27L1598.62 1051.03L1600.8 991.011L1621.18 1046.85L1665.63 1038.61L1667.49 987.396L1688.19 1034.42L1732.65 1026.18L1737.2 900.289L1693.38 891.12L1693.37 891.133Z" fill="#27292C"/>
<path d="M2038.25 518.155L1954.56 639.875L2076.31 723.519L2160.01 601.798L2038.25 518.155ZM2008.65 628.703L2048.11 571.323L2105.5 610.753L2066.05 668.132L2008.65 628.703Z" fill="#27292C"/>
<path d="M608.659 1261.16L403.213 1299.24L412.728 1350.58L618.174 1312.5L608.659 1261.16Z" fill="#27292C"/>
<path d="M622.932 1338.17L417.487 1376.25L427.002 1427.59L632.448 1389.51L622.932 1338.17Z" fill="#27292C"/>
<path d="M637.206 1415.18L431.76 1453.26L441.276 1504.6L646.722 1466.53L637.206 1415.18Z" fill="#27292C"/>
<path d="M293.839 1425.72L191.116 1444.76L210.147 1547.44L312.87 1528.4L293.839 1425.72Z" fill="#27292C"/>
<path d="M172.086 1342.08L415.594 1509.36L377.532 1304L172.086 1342.08Z" fill="#27292C"/>
<path d="M839.785 1218.32L788.423 1227.84L797.939 1279.18L849.3 1269.67L839.785 1218.32Z" fill="#27292C"/>
<path d="M839.785 1218.32L788.423 1227.84L797.939 1279.18L849.3 1269.67L839.785 1218.32Z" fill="#27292C"/>
<path d="M685.701 1246.88L634.34 1256.4L643.855 1307.74L695.217 1298.22L685.701 1246.88Z" fill="#27292C"/>
<path d="M762.744 1232.6L711.382 1242.12L720.898 1293.46L772.259 1283.94L762.744 1232.6Z" fill="#27292C"/>
<path d="M854.06 1295.34L802.699 1304.86L812.214 1356.2L863.576 1346.68L854.06 1295.34Z" fill="#27292C"/>
<path d="M699.975 1323.89L648.613 1333.41L658.129 1384.75L709.49 1375.23L699.975 1323.89Z" fill="#27292C"/>
<path d="M777.018 1309.61L725.656 1319.13L735.172 1370.48L786.533 1360.96L777.018 1309.61Z" fill="#27292C"/>
<path d="M868.332 1372.35L816.971 1381.87L826.486 1433.21L877.848 1423.69L868.332 1372.35Z" fill="#27292C"/>
<path d="M714.249 1400.91L662.887 1410.42L672.403 1461.77L723.764 1452.25L714.249 1400.91Z" fill="#27292C"/>
<path d="M791.29 1386.63L739.928 1396.15L749.444 1447.49L800.805 1437.97L791.29 1386.63Z" fill="#27292C"/>
<path d="M1070.91 1175.49L865.467 1213.56L874.982 1264.91L992.754 1243.08L896.801 1382.63L939.843 1412.21L1035.8 1272.66L1057.61 1390.37L1108.97 1380.85L1070.91 1175.49Z" fill="#27292C"/>
<path d="M1134.66 1376.1L1340.1 1338.03L1330.59 1286.68L1212.81 1308.51L1308.77 1168.96L1265.73 1139.38L1169.77 1278.92L1147.95 1161.21L1096.59 1170.73L1134.66 1376.1Z" fill="#27292C"/>
<path d="M1764.38 1046.96L1558.94 1085.04L1568.45 1136.38L1773.9 1098.3L1764.38 1046.96Z" fill="#27292C"/>
<path d="M1778.66 1123.97L1573.21 1162.05L1582.72 1213.39L1788.17 1175.31L1778.66 1123.97Z" fill="#27292C"/>
<path d="M1792.93 1200.98L1587.48 1239.06L1597 1290.4L1802.44 1252.32L1792.93 1200.98Z" fill="#27292C"/>
<path d="M1449.56 1211.52L1346.84 1230.56L1365.87 1333.24L1468.59 1314.2L1449.56 1211.52Z" fill="#27292C"/>
<path d="M1327.81 1127.87L1571.32 1295.16L1533.25 1089.8L1327.81 1127.87Z" fill="#27292C"/>
<path d="M1995.51 1004.12L1944.15 1013.64L1953.66 1064.98L2005.02 1055.46L1995.51 1004.12Z" fill="#27292C"/>
<path d="M1995.51 1004.12L1944.15 1013.64L1953.66 1064.98L2005.02 1055.46L1995.51 1004.12Z" fill="#27292C"/>
<path d="M1841.42 1032.68L1790.06 1042.2L1799.58 1093.54L1850.94 1084.02L1841.42 1032.68Z" fill="#27292C"/>
<path d="M1918.47 1018.4L1867.1 1027.92L1876.62 1079.26L1927.98 1069.74L1918.47 1018.4Z" fill="#27292C"/>
<path d="M2009.78 1081.13L1958.42 1090.65L1967.94 1141.99L2019.3 1132.48L2009.78 1081.13Z" fill="#27292C"/>
<path d="M1855.7 1109.69L1804.34 1119.21L1813.85 1170.55L1865.21 1161.03L1855.7 1109.69Z" fill="#27292C"/>
<path d="M1932.74 1095.41L1881.38 1104.93L1890.89 1156.27L1942.26 1146.75L1932.74 1095.41Z" fill="#27292C"/>
<path d="M2024.05 1158.15L1972.69 1167.67L1982.21 1219.01L2033.57 1209.49L2024.05 1158.15Z" fill="#27292C"/>
<path d="M1869.97 1186.7L1818.61 1196.22L1828.13 1247.56L1879.49 1238.05L1869.97 1186.7Z" fill="#27292C"/>
<path d="M1947.01 1172.43L1895.65 1181.94L1905.17 1233.29L1956.53 1223.77L1947.01 1172.43Z" fill="#27292C"/>
<path d="M2226.64 961.286L2021.19 999.364L2030.7 1050.7L2148.48 1028.88L2052.52 1168.43L2095.57 1198.01L2191.52 1058.46L2213.34 1176.17L2264.7 1166.65L2226.64 961.286Z" fill="#27292C"/>
<path d="M2290.38 1161.9L2495.82 1123.82L2486.31 1072.48L2368.54 1094.31L2464.49 954.758L2421.45 925.18L2325.49 1064.72L2303.68 947.007L2252.31 956.527L2290.38 1161.9Z" fill="#27292C"/>
</svg>
