<svg width="2496" height="1548" viewBox="0 0 2496 1548" fill="none" xmlns="http://www.w3.org/2000/svg">
<path d="M1215.94 670.48L1010.49 708.557L1048.55 913.921L1254 875.844L1215.94 670.48Z" fill="#F4F4F5"/>
<path d="M436.917 336.92L231.471 374.997L240.986 426.339L446.432 388.261L436.917 336.92Z" fill="#F4F4F5"/>
<path d="M451.19 413.932L245.744 452.009L255.26 503.35L460.706 465.273L451.19 413.932Z" fill="#F4F4F5"/>
<path d="M465.464 490.944L260.018 529.021L269.534 580.362L474.979 542.285L465.464 490.944Z" fill="#F4F4F5"/>
<path d="M145.887 629.831C89.1531 640.346 51.6843 694.84 62.1951 751.552C72.7059 808.263 127.215 845.71 183.949 835.195C240.683 824.68 278.152 770.186 267.641 713.475C257.13 656.763 202.621 619.316 145.887 629.831Z" fill="#F4F4F5"/>
<path d="M753.389 1136.79L740.703 1068.34L672.228 1081.03L659.54 1012.57L591.055 1025.27L629.117 1230.63L834.563 1192.55L821.875 1124.09L753.389 1136.79Z" fill="#F4F4F5"/>
<path d="M760.412 792.462L717.37 762.884L663.263 841.576L584.549 787.501L554.966 830.539L633.678 884.605L579.571 963.297L622.613 992.875L676.72 914.183L755.434 968.258L785.017 925.22L706.313 871.142L760.412 792.462Z" fill="#F4F4F5"/>
<path d="M334.249 1072.86L128.803 1110.94L138.318 1162.28L343.764 1124.2L334.249 1072.86Z" fill="#F4F4F5"/>
<path d="M362.796 1226.89L157.35 1264.96L166.866 1316.3L372.311 1278.23L362.796 1226.89Z" fill="#F4F4F5"/>
<path d="M348.521 1149.87L297.16 1159.39L306.675 1210.73L358.037 1201.21L348.521 1149.87Z" fill="#F4F4F5"/>
<path d="M194.438 1178.43L143.076 1187.95L152.592 1239.29L203.953 1229.77L194.438 1178.43Z" fill="#F4F4F5"/>
<path d="M271.48 1164.15L220.119 1173.67L229.634 1225.01L280.996 1215.49L271.48 1164.15Z" fill="#F4F4F5"/>
<path d="M1027.63 944.352L822.184 982.429L860.246 1187.79L1065.69 1149.72L1027.63 944.352ZM949.471 1011.94L895.362 1090.62L883.061 1024.25L949.471 1011.94ZM992.513 1041.52L1004.81 1107.89L938.404 1120.2L992.503 1041.52L992.513 1041.52Z" fill="#F4F4F5"/>
<path d="M1265.49 937.823L1296.82 1106.88L1127.69 1138.24L1169.53 1077.38L1235.94 1065.07L1223.64 998.684L1265.49 937.823Z" fill="#F4F4F5"/>
<path d="M1222.44 908.245L1180.6 969.106L1114.19 981.414L1126.49 1047.79L1084.64 1108.65L1053.31 939.592L1222.44 908.245Z" fill="#F4F4F5"/>
<path d="M122.097 501.478L19.3742 520.517L38.4053 623.199L141.128 604.16L122.097 501.478Z" fill="#F4F4F5"/>
<path d="M0.34375 417.834L243.852 585.122L205.79 379.757L0.34375 417.834Z" fill="#F4F4F5"/>
<path d="M1104.64 452.136L1036.15 464.829L1048.84 533.288L1117.33 520.594L1104.64 452.136Z" fill="#F4F4F5"/>
<path d="M1130.01 589.042L1061.53 601.735L1074.22 670.194L1142.7 657.501L1130.01 589.042Z" fill="#F4F4F5"/>
<path d="M1185.8 507.903L1117.32 520.596L1130.01 589.055L1198.49 576.362L1185.8 507.903Z" fill="#F4F4F5"/>
<path d="M1048.84 533.288L980.358 545.981L993.046 614.439L1061.53 601.746L1048.84 533.288Z" fill="#F4F4F5"/>
<path d="M668.043 294.083L616.681 303.603L626.197 354.944L677.558 345.424L668.043 294.083Z" fill="#F4F4F5"/>
<path d="M668.043 294.083L616.681 303.603L626.197 354.944L677.558 345.424L668.043 294.083Z" fill="#F4F4F5"/>
<path d="M513.959 322.641L462.598 332.16L472.113 383.502L523.475 373.982L513.959 322.641Z" fill="#F4F4F5"/>
<path d="M591.002 308.362L539.64 317.882L549.156 369.223L600.517 359.703L591.002 308.362Z" fill="#F4F4F5"/>
<path d="M682.318 371.095L630.956 380.614L640.472 431.955L691.833 422.436L682.318 371.095Z" fill="#F4F4F5"/>
<path d="M528.233 399.653L476.871 409.172L486.387 460.513L537.748 450.994L528.233 399.653Z" fill="#F4F4F5"/>
<path d="M605.275 385.374L553.914 394.893L563.429 446.234L614.791 436.715L605.275 385.374Z" fill="#F4F4F5"/>
<path d="M696.59 448.107L645.228 457.626L654.744 508.967L706.105 499.448L696.59 448.107Z" fill="#F4F4F5"/>
<path d="M542.506 476.665L491.145 486.184L500.66 537.525L552.022 528.006L542.506 476.665Z" fill="#F4F4F5"/>
<path d="M619.547 462.386L568.186 471.905L577.701 523.246L629.063 513.727L619.547 462.386Z" fill="#F4F4F5"/>
<path d="M912.892 583.263C938.422 578.531 955.283 554.008 950.554 528.489C945.824 502.969 921.294 486.117 895.764 490.849C870.235 495.581 853.373 520.104 858.103 545.623C862.833 571.143 887.363 587.995 912.892 583.263Z" fill="#F4F4F5"/>
<path d="M799.898 604.205C825.428 599.474 842.289 574.95 837.56 549.431C832.83 523.912 808.3 507.06 782.77 511.791C757.241 516.523 740.379 541.046 745.109 566.566C749.839 592.085 774.369 608.937 799.898 604.205Z" fill="#F4F4F5"/>
<path d="M933.827 696.213C959.356 691.482 976.218 666.958 971.488 641.439C966.758 615.92 942.228 599.068 916.699 603.799C891.169 608.531 874.308 633.054 879.037 658.574C883.767 684.093 908.297 700.945 933.827 696.213Z" fill="#F4F4F5"/>
<path d="M820.833 717.156C846.362 712.424 863.224 687.901 858.494 662.381C853.764 636.862 829.234 620.01 803.705 624.742C778.175 629.473 761.314 653.997 766.043 679.516C770.773 705.036 795.303 721.887 820.833 717.156Z" fill="#F4F4F5"/>
<path d="M459.787 890.281L408.426 899.8L417.941 951.142L469.303 941.622L459.787 890.281Z" fill="#F4F4F5"/>
<path d="M317.109 837.068L355.171 1042.43L560.617 1004.35L522.555 798.991L317.109 837.068ZM499.74 962.533L397.017 981.572L377.986 878.89L480.709 859.851L499.74 962.533Z" fill="#F4F4F5"/>
<path d="M377.014 586.994C320.28 597.509 282.811 652.003 293.322 708.715C303.833 765.426 358.342 802.873 415.076 792.358C471.81 781.843 509.279 727.349 498.768 670.638C488.257 613.926 433.748 576.479 377.014 586.994ZM405.561 741.017C377.199 746.274 349.938 727.546 344.684 699.195C339.429 670.845 358.168 643.592 386.529 638.335C414.891 633.079 442.152 651.806 447.406 680.157C452.661 708.508 433.922 735.761 405.561 741.017Z" fill="#F4F4F5"/>
<path d="M899.171 251.247L693.725 289.324L703.24 340.665L821.012 318.837L725.059 458.39L768.101 487.969L864.054 348.416L885.871 466.131L937.233 456.611L899.171 251.247Z" fill="#F4F4F5"/>
<path d="M962.914 451.862L1168.36 413.785L1158.84 362.444L1041.07 384.271L1137.02 244.718L1093.98 215.14L998.028 354.683L976.211 236.968L924.85 246.487L962.914 451.862Z" fill="#F4F4F5"/>
<path d="M556.778 553.676L566.293 605.017L669.016 585.979L688.047 688.661L739.409 679.142L710.862 525.118L556.778 553.676Z" fill="#F4F4F5"/>
<path d="M505.416 563.196L566.293 605.017L556.778 553.676L505.416 563.196Z" fill="#F4F4F5"/>
<path d="M688.047 688.661L748.924 730.483L739.409 679.142L688.047 688.661Z" fill="#F4F4F5"/>
<path d="M627.169 646.839L524.447 665.878L543.478 768.56L646.201 749.521L627.169 646.839Z" fill="#F4F4F5"/>
<path d="M310.461 944.511L188.708 860.868L105.017 982.588L226.769 1066.23L310.461 944.511Z" fill="#F4F4F5"/>
<path d="M537.202 1105.33L535.671 1147.74L514.972 1100.71L471.123 1091.59L469.263 1142.8L448.875 1086.92L405.071 1077.79L397.992 1273.47L442.451 1265.23L444.631 1205.21L465.009 1261.05L509.469 1252.81L511.328 1201.6L532.027 1248.62L576.486 1240.38L581.03 1114.49L537.219 1105.32L537.202 1105.33Z" fill="#F4F4F5"/>
<path d="M882.086 732.355L798.394 854.076L920.148 937.72L1003.84 815.999L882.086 732.355ZM852.488 842.903L891.94 785.524L949.335 824.954L909.883 882.333L852.488 842.903Z" fill="#F4F4F5"/>
<path d="M2371.66 456.279L2166.21 494.356L2204.28 699.721L2409.72 661.644L2371.66 456.279Z" fill="#F4F4F5"/>
<path d="M1592.64 122.72L1387.19 160.797L1396.71 212.138L1602.15 174.061L1592.64 122.72Z" fill="#F4F4F5"/>
<path d="M1606.91 199.731L1401.47 237.808L1410.98 289.15L1616.43 251.072L1606.91 199.731Z" fill="#F4F4F5"/>
<path d="M1621.19 276.743L1415.74 314.82L1425.26 366.161L1630.7 328.084L1621.19 276.743Z" fill="#F4F4F5"/>
<path d="M1301.61 415.63C1244.88 426.145 1207.41 480.64 1217.92 537.351C1228.43 594.062 1282.94 631.51 1339.67 620.995C1396.41 610.48 1433.87 555.985 1423.36 499.274C1412.85 442.562 1358.34 405.115 1301.61 415.63Z" fill="#F4F4F5"/>
<path d="M1909.11 922.587L1896.43 854.139L1827.95 866.83L1815.26 798.372L1746.78 811.065L1784.84 1016.43L1990.29 978.352L1977.6 909.894L1909.11 922.587Z" fill="#F4F4F5"/>
<path d="M1916.13 578.261L1873.09 548.683L1818.99 627.376L1740.27 573.3L1710.69 616.339L1789.4 670.404L1735.29 749.096L1778.34 778.675L1832.44 699.982L1911.16 754.058L1940.74 711.019L1862.04 656.942L1916.13 578.261Z" fill="#F4F4F5"/>
<path d="M1489.97 858.661L1284.53 896.739L1294.04 948.08L1499.49 910.003L1489.97 858.661Z" fill="#F4F4F5"/>
<path d="M1518.52 1012.68L1313.07 1050.76L1322.59 1102.1L1528.03 1064.03L1518.52 1012.68Z" fill="#F4F4F5"/>
<path d="M1504.24 935.673L1452.88 945.192L1462.4 996.534L1513.76 987.014L1504.24 935.673Z" fill="#F4F4F5"/>
<path d="M1350.16 964.231L1298.8 973.75L1308.31 1025.09L1359.68 1015.57L1350.16 964.231Z" fill="#F4F4F5"/>
<path d="M1427.2 949.952L1375.84 959.471L1385.36 1010.81L1436.72 1001.29L1427.2 949.952Z" fill="#F4F4F5"/>
<path d="M2183.35 730.151L1977.91 768.228L2015.97 973.593L2221.41 935.516L2183.35 730.151ZM2105.19 797.742L2051.08 876.424L2038.78 810.05L2105.19 797.742ZM2148.24 827.32L2160.54 893.694L2094.13 906.002L2148.23 827.322L2148.24 827.32Z" fill="#F4F4F5"/>
<path d="M2421.21 723.623L2452.54 892.679L2283.41 924.036L2325.26 863.176L2391.67 850.867L2379.36 784.483L2421.21 723.623Z" fill="#F4F4F5"/>
<path d="M2378.17 694.044L2336.32 754.905L2269.91 767.213L2282.21 833.587L2240.37 894.447L2209.03 725.391L2378.17 694.044Z" fill="#F4F4F5"/>
<path d="M1277.82 287.277L1175.1 306.316L1194.13 408.998L1296.85 389.959L1277.82 287.277Z" fill="#F4F4F5"/>
<path d="M1156.07 203.634L1399.57 370.921L1361.51 165.556L1156.07 203.634Z" fill="#F4F4F5"/>
<path d="M2260.36 237.936L2191.88 250.629L2204.57 319.087L2273.05 306.394L2260.36 237.936Z" fill="#F4F4F5"/>
<path d="M2285.74 374.842L2217.25 387.535L2229.94 455.993L2298.43 443.3L2285.74 374.842Z" fill="#F4F4F5"/>
<path d="M2341.53 293.703L2273.04 306.396L2285.73 374.854L2354.21 362.161L2341.53 293.703Z" fill="#F4F4F5"/>
<path d="M2204.57 319.087L2136.08 331.78L2148.77 400.238L2217.25 387.545L2204.57 319.087Z" fill="#F4F4F5"/>
<path d="M1823.77 79.8827L1772.4 89.402L1781.92 140.743L1833.28 131.224L1823.77 79.8827Z" fill="#F4F4F5"/>
<path d="M1823.77 79.8827L1772.4 89.402L1781.92 140.743L1833.28 131.224L1823.77 79.8827Z" fill="#F4F4F5"/>
<path d="M1669.68 108.441L1618.32 117.96L1627.84 169.301L1679.2 159.782L1669.68 108.441Z" fill="#F4F4F5"/>
<path d="M1746.72 94.1616L1695.36 103.681L1704.88 155.022L1756.24 145.503L1746.72 94.1616Z" fill="#F4F4F5"/>
<path d="M1838.04 156.894L1786.68 166.414L1796.19 217.755L1847.56 208.235L1838.04 156.894Z" fill="#F4F4F5"/>
<path d="M1683.96 185.452L1632.59 194.971L1642.11 246.313L1693.47 236.793L1683.96 185.452Z" fill="#F4F4F5"/>
<path d="M1761 171.173L1709.64 180.693L1719.15 232.034L1770.51 222.514L1761 171.173Z" fill="#F4F4F5"/>
<path d="M1852.31 233.906L1800.95 243.425L1810.47 294.766L1861.83 285.247L1852.31 233.906Z" fill="#F4F4F5"/>
<path d="M1698.23 262.464L1646.87 271.983L1656.38 323.324L1707.74 313.805L1698.23 262.464Z" fill="#F4F4F5"/>
<path d="M1775.27 248.185L1723.91 257.704L1733.42 309.045L1784.79 299.526L1775.27 248.185Z" fill="#F4F4F5"/>
<path d="M2068.61 369.062C2094.14 364.331 2111.01 339.807 2106.28 314.288C2101.55 288.768 2077.02 271.917 2051.49 276.648C2025.96 281.38 2009.1 305.903 2013.83 331.423C2018.56 356.942 2043.09 373.794 2068.61 369.062Z" fill="#F4F4F5"/>
<path d="M1955.62 390.005C1981.15 385.273 1998.01 360.75 1993.28 335.23C1988.55 309.711 1964.02 292.859 1938.49 297.591C1912.96 302.322 1896.1 326.846 1900.83 352.365C1905.56 377.884 1930.09 394.736 1955.62 390.005Z" fill="#F4F4F5"/>
<path d="M2089.55 482.013C2115.08 477.281 2131.94 452.758 2127.21 427.238C2122.48 401.719 2097.95 384.867 2072.42 389.599C2046.89 394.33 2030.03 418.854 2034.76 444.373C2039.49 469.892 2064.02 486.744 2089.55 482.013Z" fill="#F4F4F5"/>
<path d="M1976.56 502.955C2002.08 498.224 2018.95 473.7 2014.22 448.181C2009.49 422.661 1984.96 405.81 1959.43 410.541C1933.9 415.273 1917.04 439.796 1921.77 465.315C1926.5 490.835 1951.03 507.687 1976.56 502.955Z" fill="#F4F4F5"/>
<path d="M1615.51 676.08L1564.15 685.6L1573.66 736.941L1625.03 727.422L1615.51 676.08Z" fill="#F4F4F5"/>
<path d="M1472.83 622.867L1510.89 828.231L1716.34 790.154L1678.28 584.79L1472.83 622.867ZM1655.46 748.333L1552.74 767.371L1533.71 664.689L1636.43 645.65L1655.46 748.333Z" fill="#F4F4F5"/>
<path d="M1532.74 372.793C1476 383.308 1438.53 437.803 1449.04 494.514C1459.56 551.225 1514.06 588.673 1570.8 578.158C1627.53 567.643 1665 513.148 1654.49 456.437C1643.98 399.726 1589.47 362.278 1532.74 372.793ZM1561.28 526.817C1532.92 532.073 1505.66 513.345 1500.41 484.995C1495.15 456.644 1513.89 429.391 1542.25 424.134C1570.61 418.878 1597.87 437.606 1603.13 465.956C1608.38 494.307 1589.65 521.56 1561.28 526.817Z" fill="#F4F4F5"/>
<path d="M2054.89 37.0462L1849.45 75.1234L1858.96 126.464L1976.73 104.637L1880.78 244.19L1923.82 273.768L2019.78 134.215L2041.59 251.93L2092.96 242.411L2054.89 37.0462Z" fill="#F4F4F5"/>
<path d="M2118.64 237.661L2324.08 199.584L2314.57 148.243L2196.79 170.071L2292.75 30.5177L2249.71 0.939453L2153.75 140.482L2131.93 22.7672L2080.57 32.2865L2118.64 237.661Z" fill="#F4F4F5"/>
<path d="M1712.5 339.476L1722.02 390.817L1824.74 371.778L1843.77 474.46L1895.13 464.941L1866.58 310.918L1712.5 339.476Z" fill="#F4F4F5"/>
<path d="M1661.14 348.995L1722.02 390.817L1712.5 339.476L1661.14 348.995Z" fill="#F4F4F5"/>
<path d="M1843.77 474.46L1904.65 516.282L1895.13 464.941L1843.77 474.46Z" fill="#F4F4F5"/>
<path d="M1782.89 432.639L1680.17 451.677L1699.2 554.359L1801.92 535.321L1782.89 432.639Z" fill="#F4F4F5"/>
<path d="M1466.18 730.31L1344.43 646.667L1260.74 768.387L1382.49 852.03L1466.18 730.31Z" fill="#F4F4F5"/>
<path d="M1692.92 891.133L1691.39 933.535L1670.7 886.507L1626.85 877.394L1624.99 928.603L1604.6 872.722L1560.79 863.591L1553.71 1059.27L1598.17 1051.03L1600.35 991.011L1620.73 1046.85L1665.19 1038.61L1667.05 987.396L1687.75 1034.42L1732.21 1026.18L1736.75 900.289L1692.94 891.12L1692.92 891.133Z" fill="#F4F4F5"/>
<path d="M2037.81 518.155L1954.12 639.875L2075.87 723.519L2159.56 601.798L2037.81 518.155ZM2008.21 628.703L2047.66 571.323L2105.06 610.753L2065.61 668.132L2008.21 628.703Z" fill="#F4F4F5"/>
<path d="M608.215 1261.16L402.77 1299.24L412.285 1350.58L617.731 1312.5L608.215 1261.16Z" fill="#F4F4F5"/>
<path d="M622.489 1338.17L417.043 1376.25L426.559 1427.59L632.005 1389.51L622.489 1338.17Z" fill="#F4F4F5"/>
<path d="M636.763 1415.18L431.317 1453.26L440.832 1504.6L646.278 1466.53L636.763 1415.18Z" fill="#F4F4F5"/>
<path d="M293.396 1425.72L190.673 1444.76L209.704 1547.44L312.427 1528.4L293.396 1425.72Z" fill="#F4F4F5"/>
<path d="M171.643 1342.08L415.151 1509.36L377.089 1304L171.643 1342.08Z" fill="#F4F4F5"/>
<path d="M839.341 1218.32L787.98 1227.84L797.495 1279.18L848.857 1269.67L839.341 1218.32Z" fill="#F4F4F5"/>
<path d="M839.341 1218.32L787.98 1227.84L797.495 1279.18L848.857 1269.67L839.341 1218.32Z" fill="#F4F4F5"/>
<path d="M685.258 1246.88L633.896 1256.4L643.412 1307.74L694.773 1298.22L685.258 1246.88Z" fill="#F4F4F5"/>
<path d="M762.3 1232.6L710.939 1242.12L720.455 1293.46L771.816 1283.94L762.3 1232.6Z" fill="#F4F4F5"/>
<path d="M853.617 1295.34L802.255 1304.86L811.771 1356.2L863.132 1346.68L853.617 1295.34Z" fill="#F4F4F5"/>
<path d="M699.532 1323.89L648.17 1333.41L657.686 1384.75L709.047 1375.23L699.532 1323.89Z" fill="#F4F4F5"/>
<path d="M776.574 1309.61L725.213 1319.13L734.728 1370.48L786.09 1360.96L776.574 1309.61Z" fill="#F4F4F5"/>
<path d="M867.889 1372.35L816.527 1381.87L826.043 1433.21L877.404 1423.69L867.889 1372.35Z" fill="#F4F4F5"/>
<path d="M713.805 1400.91L662.444 1410.42L671.959 1461.77L723.321 1452.25L713.805 1400.91Z" fill="#F4F4F5"/>
<path d="M790.846 1386.63L739.485 1396.15L749 1447.49L800.362 1437.97L790.846 1386.63Z" fill="#F4F4F5"/>
<path d="M1070.47 1175.49L865.023 1213.56L874.539 1264.91L992.311 1243.08L896.358 1382.63L939.4 1412.21L1035.35 1272.66L1057.17 1390.37L1108.53 1380.85L1070.47 1175.49Z" fill="#F4F4F5"/>
<path d="M1134.21 1376.1L1339.66 1338.03L1330.14 1286.68L1212.37 1308.51L1308.32 1168.96L1265.28 1139.38L1169.33 1278.92L1147.51 1161.21L1096.15 1170.73L1134.21 1376.1Z" fill="#F4F4F5"/>
<path d="M1763.94 1046.96L1558.49 1085.04L1568.01 1136.38L1773.45 1098.3L1763.94 1046.96Z" fill="#F4F4F5"/>
<path d="M1778.21 1123.97L1572.77 1162.05L1582.28 1213.39L1787.73 1175.31L1778.21 1123.97Z" fill="#F4F4F5"/>
<path d="M1792.49 1200.98L1587.04 1239.06L1596.56 1290.4L1802 1252.32L1792.49 1200.98Z" fill="#F4F4F5"/>
<path d="M1449.12 1211.52L1346.4 1230.56L1365.43 1333.24L1468.15 1314.2L1449.12 1211.52Z" fill="#F4F4F5"/>
<path d="M1327.37 1127.87L1570.87 1295.16L1532.81 1089.8L1327.37 1127.87Z" fill="#F4F4F5"/>
<path d="M1995.06 1004.12L1943.7 1013.64L1953.22 1064.98L2004.58 1055.46L1995.06 1004.12Z" fill="#F4F4F5"/>
<path d="M1995.06 1004.12L1943.7 1013.64L1953.22 1064.98L2004.58 1055.46L1995.06 1004.12Z" fill="#F4F4F5"/>
<path d="M1840.98 1032.68L1789.62 1042.2L1799.13 1093.54L1850.5 1084.02L1840.98 1032.68Z" fill="#F4F4F5"/>
<path d="M1918.02 1018.4L1866.66 1027.92L1876.18 1079.26L1927.54 1069.74L1918.02 1018.4Z" fill="#F4F4F5"/>
<path d="M2009.34 1081.13L1957.98 1090.65L1967.49 1141.99L2018.85 1132.48L2009.34 1081.13Z" fill="#F4F4F5"/>
<path d="M1855.25 1109.69L1803.89 1119.21L1813.41 1170.55L1864.77 1161.03L1855.25 1109.69Z" fill="#F4F4F5"/>
<path d="M1932.3 1095.41L1880.94 1104.93L1890.45 1156.27L1941.81 1146.75L1932.3 1095.41Z" fill="#F4F4F5"/>
<path d="M2023.61 1158.15L1972.25 1167.67L1981.77 1219.01L2033.13 1209.49L2023.61 1158.15Z" fill="#F4F4F5"/>
<path d="M1869.53 1186.7L1818.17 1196.22L1827.68 1247.56L1879.04 1238.05L1869.53 1186.7Z" fill="#F4F4F5"/>
<path d="M1946.57 1172.43L1895.21 1181.94L1904.72 1233.29L1956.08 1223.77L1946.57 1172.43Z" fill="#F4F4F5"/>
<path d="M2226.19 961.286L2020.75 999.364L2030.26 1050.7L2148.03 1028.88L2052.08 1168.43L2095.12 1198.01L2191.08 1058.46L2212.89 1176.17L2264.25 1166.65L2226.19 961.286Z" fill="#F4F4F5"/>
<path d="M2289.94 1161.9L2495.38 1123.82L2485.87 1072.48L2368.09 1094.31L2464.05 954.758L2421 925.18L2325.05 1064.72L2303.23 947.007L2251.87 956.527L2289.94 1161.9Z" fill="#F4F4F5"/>
</svg>
