<svg width="180" height="34" viewBox="0 0 180 34" fill="none" xmlns="http://www.w3.org/2000/svg">
<g clip-path="url(#clip0_5475_532)">
<path d="M29.3515 9.12876L27.733 16.2877L25.6631 7.65029L18.4109 4.70891L16.4499 13.3619L14.7225 3.21488L7.47017 0.289062L0 33.3134H7.92149L10.2092 23.1665L11.9367 33.3134H19.8738L21.8191 24.6605L23.889 33.3134H31.8105L36.6194 12.0546L29.3515 9.12876Z" fill="white"/>
<path d="M83.9154 15.5251C83.9154 14.9406 83.4416 14.4668 82.8571 14.4668C82.2726 14.4668 81.7988 14.9406 81.7988 15.5251V32.2551C81.7988 32.8396 82.2726 33.3134 82.8571 33.3134C83.4416 33.3134 83.9154 32.8396 83.9154 32.2551V15.5251Z" fill="white"/>
<path d="M123.849 15.5251C123.849 14.9406 123.375 14.4668 122.791 14.4668C122.206 14.4668 121.732 14.9406 121.732 15.5251V32.2551C121.732 32.8396 122.206 33.3134 122.791 33.3134C123.375 33.3134 123.849 32.8396 123.849 32.2551V15.5251Z" fill="white"/>
<path d="M61.9867 25.0807L55.2479 14.9648C55.0456 14.6536 54.7032 14.4668 54.3297 14.4668H54.0807C53.5049 14.4668 53.0225 14.9492 53.0225 15.5251V32.2551C53.0225 32.831 53.5049 33.3134 54.0807 33.3134C54.6566 33.3134 55.139 32.831 55.139 32.2551V18.2486L61.1307 27.0416C61.3953 27.4307 61.691 27.5707 61.9867 27.5707C62.2824 27.5707 62.5781 27.4462 62.8426 27.0416L68.8343 18.2486V32.2551C68.8343 32.831 69.3168 33.3134 69.8926 33.3134C70.4684 33.3134 70.9509 32.831 70.9509 32.2551V15.5251C70.9509 14.9492 70.4684 14.4668 69.8926 14.4668H69.6436C69.2701 14.4668 68.9277 14.6536 68.7254 14.9648L61.9867 25.0807Z" fill="white"/>
<path d="M143.66 25.0807L136.922 14.9648C136.719 14.6536 136.377 14.4668 136.004 14.4668H135.755C135.179 14.4668 134.696 14.9492 134.696 15.5251V32.2551C134.696 32.831 135.179 33.3134 135.755 33.3134C136.33 33.3134 136.813 32.831 136.813 32.2551V18.2486L142.805 27.0416C143.069 27.4307 143.365 27.5707 143.66 27.5707C143.956 27.5707 144.252 27.4462 144.516 27.0416L150.508 18.2486V32.2551C150.508 32.831 150.991 33.3134 151.566 33.3134C152.142 33.3134 152.625 32.831 152.625 32.2551V15.5251C152.625 14.9492 152.142 14.4668 151.566 14.4668H151.317C150.944 14.4668 150.602 14.6536 150.399 14.9648L143.66 25.0807Z" fill="white"/>
<path d="M108.768 29.8585L97.034 14.887C96.8316 14.6224 96.5048 14.4668 96.1624 14.4668H95.8356C95.2598 14.4668 94.7773 14.9492 94.7773 15.5251V32.2551C94.7773 32.831 95.2598 33.3134 95.8356 33.3134C96.4114 33.3134 96.8939 32.831 96.8939 32.2551V17.9218L108.473 32.6909L108.628 32.8932C108.831 33.1578 109.157 33.3134 109.5 33.3134H109.827C110.402 33.3134 110.885 32.831 110.885 32.2551V15.5251C110.885 14.9492 110.402 14.4668 109.827 14.4668C109.251 14.4668 108.768 14.9492 108.768 15.5251V29.8585Z" fill="white"/>
<path d="M179.922 31.8972C179.922 31.8972 172.514 15.6963 172.312 15.2761C172.109 14.8559 171.674 14.4668 170.973 14.4668C170.273 14.4668 169.837 14.8403 169.635 15.2761C169.433 15.7118 162.025 31.8972 162.025 31.8972C161.791 32.3952 162.025 32.9866 162.523 33.22C163.021 33.4535 163.612 33.22 163.845 32.722L165.822 28.3177H176.156L178.132 32.722C178.366 33.22 178.957 33.4379 179.455 33.22C179.953 32.9866 180.171 32.3952 179.953 31.8972H179.922ZM170.973 26.3724H166.678L170.973 16.8168L175.269 26.3724H170.973Z" fill="white"/>
</g>
<defs>
<clipPath id="clip0_5475_532">
<rect width="180" height="33.0244" fill="white" transform="translate(0 0.289062)"/>
</clipPath>
</defs>
</svg>
