<?xml version="1.0" encoding="UTF-8"?><svg id="Layer_1" xmlns="http://www.w3.org/2000/svg" viewBox="0 0 300 100.16"><defs><style>.cls-1{fill:#0d0e10;}.cls-2,.cls-3,.cls-4{stroke-miterlimit:10;}.cls-2,.cls-3,.cls-4,.cls-5{fill:none;}.cls-2,.cls-5{stroke:#0d0e10;}.cls-3{stroke:#91919d;}.cls-4{stroke:#ff512f;}.cls-5{stroke-width:.75px;}</style></defs><g><line class="cls-5" x1="72.18" y1="50.08" x2="129.28" y2="50.08"/><polygon class="cls-1" points="128.16 51.72 134.26 50.08 128.16 48.45 128.16 51.72"/></g><g><line class="cls-5" x1="204.28" y1="50.08" x2="222.83" y2="50.08"/><polygon class="cls-1" points="221.72 51.72 227.82 50.08 221.72 48.45 221.72 51.72"/></g><g><path class="cls-1" d="M20.01,53.48c-.77,0-1.43-.17-1.97-.51-.54-.34-.96-.81-1.24-1.41-.29-.6-.43-1.3-.43-2.1s.14-1.49,.43-2.1c.29-.6,.7-1.07,1.24-1.41,.54-.34,1.2-.51,1.97-.51,.89,0,1.62,.22,2.21,.67s.99,1.05,1.22,1.81l-1.14,.31c-.15-.54-.42-.96-.8-1.27-.38-.31-.88-.46-1.49-.46-.55,0-1,.12-1.37,.37-.36,.25-.64,.59-.82,1.03s-.28,.96-.28,1.55c0,.59,.09,1.11,.27,1.55s.46,.79,.82,1.03c.37,.25,.82,.37,1.37,.37,.61,0,1.11-.15,1.49-.46,.38-.31,.65-.73,.8-1.27l1.14,.31c-.23,.76-.63,1.36-1.22,1.81s-1.32,.67-2.21,.67Z"/><path class="cls-1" d="M27.12,53.48c-.58,0-1.08-.13-1.5-.39-.42-.26-.75-.62-.98-1.08s-.34-.99-.34-1.59,.12-1.13,.35-1.59c.24-.46,.57-.82,.99-1.07,.42-.26,.92-.38,1.49-.38s1.08,.13,1.5,.39c.42,.26,.75,.62,.99,1.08,.23,.46,.35,.98,.35,1.58s-.12,1.13-.35,1.59-.56,.82-.99,1.08c-.42,.26-.92,.39-1.5,.39Zm0-1.05c.55,0,.97-.19,1.24-.56,.27-.37,.41-.85,.41-1.44s-.14-1.09-.41-1.45c-.28-.36-.69-.54-1.23-.54-.37,0-.68,.08-.93,.25-.24,.17-.42,.4-.54,.7-.12,.3-.18,.64-.18,1.04,0,.61,.14,1.09,.42,1.46,.28,.36,.69,.55,1.23,.55Z"/><path class="cls-1" d="M31.13,53.32v-5.78h1v1.67h.13v4.11h-1.13Zm4.06,0v-2.84c0-.22-.02-.46-.06-.69s-.11-.46-.21-.66c-.1-.2-.25-.37-.44-.49-.19-.12-.44-.19-.75-.19-.2,0-.39,.03-.57,.1-.18,.07-.33,.17-.47,.32-.13,.15-.24,.34-.32,.58-.08,.24-.12,.53-.12,.87l-.7-.26c0-.52,.1-.99,.29-1.39,.2-.4,.48-.71,.85-.94s.81-.34,1.33-.34c.4,0,.74,.06,1.01,.19,.27,.13,.49,.3,.66,.51,.17,.21,.3,.44,.39,.68s.15,.49,.18,.72c.03,.24,.05,.44,.05,.62v3.21h-1.13Z"/><path class="cls-1" d="M37.08,48.44v-.9h3.95v.9h-3.95Zm3.95,4.88c-.36,.07-.72,.1-1.07,.09-.35-.01-.66-.08-.94-.2-.27-.13-.48-.32-.62-.59-.13-.24-.19-.48-.2-.73,0-.25-.01-.53-.01-.84v-5.11h1.12v5.06c0,.23,0,.43,0,.6,0,.17,.04,.32,.11,.43,.13,.22,.33,.35,.61,.38,.28,.03,.61,.02,.99-.04v.95Z"/><path class="cls-1" d="M43.88,53.48c-.43,0-.79-.08-1.08-.24-.29-.16-.51-.37-.66-.63-.15-.26-.22-.55-.22-.86,0-.29,.05-.55,.16-.77,.1-.22,.26-.41,.46-.56,.2-.16,.45-.28,.75-.38,.26-.07,.55-.14,.87-.2,.32-.06,.67-.11,1.03-.16,.36-.05,.71-.1,1.07-.15l-.41,.22c0-.45-.09-.79-.29-1.01-.2-.22-.54-.33-1.02-.33-.3,0-.58,.07-.83,.21-.25,.14-.43,.37-.53,.7l-1.04-.32c.14-.5,.41-.89,.82-1.18,.4-.29,.94-.44,1.6-.44,.52,0,.97,.09,1.35,.27s.67,.46,.84,.84c.09,.19,.15,.39,.17,.6,.02,.21,.03,.44,.03,.68v3.56h-.99v-1.32l.19,.17c-.24,.44-.54,.77-.91,.99-.37,.22-.82,.32-1.36,.32Zm.2-.92c.32,0,.59-.06,.82-.17,.23-.11,.41-.26,.55-.43s.23-.36,.27-.55c.06-.17,.1-.36,.1-.58,0-.21,.01-.39,.01-.51l.36,.13c-.35,.05-.67,.1-.96,.14-.29,.04-.55,.08-.78,.13s-.44,.09-.62,.15c-.15,.05-.29,.12-.41,.19-.12,.08-.21,.17-.28,.27s-.1,.24-.1,.39,.04,.29,.11,.41c.08,.13,.19,.23,.34,.3,.15,.07,.35,.11,.59,.11Z"/><path class="cls-1" d="M50.82,53.48c-.59,0-1.1-.13-1.51-.4-.41-.26-.73-.63-.95-1.09-.22-.46-.33-.98-.33-1.57,0-.6,.12-1.12,.34-1.58,.22-.46,.55-.82,.96-1.08,.42-.26,.92-.39,1.5-.39,.63,0,1.17,.16,1.62,.47,.45,.31,.74,.74,.89,1.29l-1.11,.32c-.11-.32-.29-.58-.54-.76-.25-.18-.54-.27-.86-.27-.37,0-.67,.09-.9,.26-.24,.17-.41,.41-.52,.71-.11,.3-.17,.64-.18,1.03,0,.6,.14,1.08,.41,1.45,.27,.37,.67,.55,1.2,.55,.36,0,.65-.08,.88-.25,.22-.17,.39-.4,.51-.71l1.14,.27c-.19,.56-.5,1-.94,1.3-.44,.3-.96,.45-1.58,.45Z"/><path class="cls-1" d="M53.79,48.44v-.9h3.95v.9h-3.95Zm3.95,4.88c-.36,.07-.72,.1-1.07,.09-.35-.01-.66-.08-.94-.2-.27-.13-.48-.32-.62-.59-.13-.24-.19-.48-.2-.73,0-.25-.01-.53-.01-.84v-5.11h1.12v5.06c0,.23,0,.43,0,.6,0,.17,.04,.32,.11,.43,.13,.22,.33,.35,.61,.38,.28,.03,.61,.02,.99-.04v.95Z"/></g><path class="cls-4" d="M37.46,84.81c19.18,0,34.73-15.55,34.73-34.73S56.64,15.35,37.46,15.35,2.73,30.9,2.73,50.08s15.55,34.73,34.73,34.73Z"/><g><path class="cls-1" d="M148.03,53.32v-3.19l-2.61-4.52h1.31l1.87,3.24,1.87-3.24h1.31l-2.61,4.52v3.19h-1.13Z"/><path class="cls-1" d="M154.18,53.48c-.58,0-1.08-.13-1.5-.39-.42-.26-.75-.62-.98-1.08s-.34-.99-.34-1.59,.12-1.13,.35-1.59c.24-.46,.57-.82,.99-1.07s.92-.38,1.49-.38,1.08,.13,1.5,.39,.75,.62,.99,1.08c.23,.46,.35,.98,.35,1.58s-.12,1.13-.35,1.59c-.23,.46-.56,.82-.99,1.08-.42,.26-.92,.39-1.5,.39Zm0-1.05c.55,0,.97-.19,1.24-.56,.27-.37,.41-.85,.41-1.44s-.14-1.09-.41-1.45c-.28-.36-.69-.54-1.23-.54-.37,0-.68,.08-.93,.25-.24,.17-.42,.4-.54,.7-.12,.3-.18,.64-.18,1.04,0,.61,.14,1.09,.42,1.46,.28,.36,.69,.55,1.23,.55Z"/><path class="cls-1" d="M160.38,53.48c-.4,0-.74-.06-1.01-.19s-.49-.3-.66-.51c-.17-.21-.3-.44-.39-.68-.09-.25-.15-.49-.18-.72s-.05-.44-.05-.62v-3.21h1.14v2.84c0,.22,.02,.46,.06,.69,.04,.24,.11,.46,.21,.66,.1,.2,.25,.37,.44,.49,.19,.12,.44,.19,.75,.19,.2,0,.39-.03,.57-.1,.18-.07,.33-.17,.47-.32,.13-.15,.24-.34,.32-.58,.08-.24,.11-.53,.11-.87l.7,.26c0,.52-.1,.99-.29,1.39-.2,.4-.48,.71-.85,.94s-.81,.34-1.33,.34Zm1.91-.16v-1.67h-.13v-4.11h1.13v5.78h-1Z"/><path class="cls-1" d="M164.78,53.32v-5.78h1v1.4l-.14-.18c.07-.19,.16-.36,.28-.51s.25-.28,.4-.38c.15-.11,.31-.19,.49-.25,.18-.06,.37-.09,.55-.11s.37,0,.55,.03v1.05c-.19-.05-.4-.06-.63-.04-.23,.02-.44,.09-.63,.22-.18,.12-.33,.26-.43,.43-.11,.17-.18,.35-.23,.56-.05,.21-.07,.42-.07,.65v2.92h-1.13Z"/><path class="cls-1" d="M171.06,53.32v-7.71h1v4.16h.13v3.55h-1.13Zm4.06,0v-2.84c0-.22-.02-.46-.06-.69s-.11-.46-.21-.66c-.1-.2-.25-.37-.44-.49-.19-.12-.44-.19-.75-.19-.2,0-.39,.03-.57,.1-.18,.07-.33,.17-.47,.32-.13,.15-.24,.34-.32,.58-.08,.24-.12,.53-.12,.87l-.7-.26c0-.52,.1-.99,.29-1.39s.48-.71,.85-.94,.81-.34,1.33-.34c.4,0,.74,.06,1.01,.19s.49,.3,.66,.51c.17,.21,.3,.44,.39,.68,.09,.25,.15,.49,.18,.72,.03,.24,.05,.44,.05,.62v3.21h-1.13Z"/><path class="cls-1" d="M180.16,53.48c-.58,0-1.08-.13-1.5-.39-.42-.26-.75-.62-.98-1.08s-.34-.99-.34-1.59,.12-1.13,.35-1.59c.24-.46,.57-.82,.99-1.07s.92-.38,1.49-.38,1.08,.13,1.5,.39,.75,.62,.99,1.08c.23,.46,.35,.98,.35,1.58s-.12,1.13-.35,1.59c-.23,.46-.56,.82-.99,1.08-.42,.26-.92,.39-1.5,.39Zm0-1.05c.55,0,.97-.19,1.24-.56,.27-.37,.41-.85,.41-1.44s-.14-1.09-.41-1.45c-.28-.36-.69-.54-1.23-.54-.37,0-.68,.08-.93,.25-.24,.17-.42,.4-.54,.7-.12,.3-.18,.64-.18,1.04,0,.61,.14,1.09,.42,1.46,.28,.36,.69,.55,1.23,.55Z"/><path class="cls-1" d="M186.38,53.48c-.7,0-1.28-.16-1.72-.47-.44-.31-.71-.75-.81-1.31l1.15-.18c.07,.3,.24,.54,.5,.71,.26,.17,.58,.26,.97,.26,.35,0,.62-.07,.82-.21,.2-.14,.3-.34,.3-.59,0-.15-.04-.26-.1-.36-.07-.09-.21-.18-.44-.26-.22-.08-.56-.18-1.01-.31-.5-.13-.89-.27-1.18-.41-.29-.15-.5-.32-.62-.52s-.18-.44-.18-.72c0-.35,.09-.65,.28-.92,.19-.26,.45-.46,.78-.6,.34-.14,.73-.21,1.19-.21s.84,.07,1.18,.21c.35,.14,.63,.34,.84,.59,.21,.26,.34,.55,.39,.9l-1.15,.21c-.04-.28-.17-.5-.39-.66-.22-.16-.51-.25-.86-.26-.34-.01-.61,.04-.82,.17-.21,.13-.32,.3-.32,.52,0,.13,.04,.24,.12,.33,.08,.09,.24,.18,.47,.26s.57,.18,1.03,.29c.49,.12,.87,.26,1.16,.41,.29,.15,.49,.33,.61,.54s.18,.46,.18,.76c0,.57-.21,1.02-.62,1.34-.42,.32-.99,.49-1.72,.49Z"/><path class="cls-1" d="M189.27,48.44v-.9h3.95v.9h-3.95Zm3.95,4.88c-.36,.07-.72,.1-1.07,.09-.35-.01-.66-.08-.94-.2-.27-.12-.48-.32-.62-.59-.13-.24-.19-.48-.2-.73,0-.25-.01-.53-.01-.84v-5.11h1.12v5.06c0,.23,0,.43,0,.6s.04,.32,.11,.43c.13,.22,.33,.35,.61,.38,.28,.03,.61,.02,.99-.03v.95Z"/></g><rect class="cls-2" x="134.83" y="15.35" width="69.45" height="69.45"/><g><path class="cls-1" d="M255.42,53.32v-3.19l-2.61-4.52h1.31l1.87,3.24,1.87-3.24h1.31l-2.61,4.52v3.19h-1.13Z"/><path class="cls-1" d="M262.42,53.48c-.58,0-1.08-.13-1.5-.39-.42-.26-.75-.62-.98-1.08s-.34-.99-.34-1.59,.12-1.13,.35-1.59c.24-.46,.57-.82,.99-1.07,.42-.26,.92-.38,1.49-.38s1.08,.13,1.5,.39c.42,.26,.75,.62,.99,1.08,.23,.46,.35,.98,.35,1.58s-.12,1.13-.35,1.59-.56,.82-.99,1.08c-.42,.26-.92,.39-1.5,.39Zm0-1.05c.55,0,.97-.19,1.24-.56,.27-.37,.41-.85,.41-1.44s-.14-1.09-.41-1.45c-.28-.36-.69-.54-1.23-.54-.37,0-.68,.08-.93,.25-.24,.17-.42,.4-.54,.7-.12,.3-.18,.64-.18,1.04,0,.61,.14,1.09,.42,1.46,.28,.36,.69,.55,1.23,.55Z"/><path class="cls-1" d="M268.62,53.48c-.4,0-.74-.06-1.01-.19-.27-.13-.49-.3-.66-.51-.17-.21-.3-.44-.39-.68-.09-.25-.15-.49-.18-.72-.03-.24-.05-.44-.05-.62v-3.21h1.14v2.84c0,.22,.02,.46,.06,.69,.04,.24,.11,.46,.21,.66,.1,.2,.25,.37,.44,.49,.19,.13,.44,.19,.75,.19,.2,0,.39-.03,.57-.1,.18-.07,.33-.17,.47-.32,.13-.15,.24-.34,.32-.58,.08-.24,.11-.53,.11-.87l.7,.26c0,.52-.1,.99-.29,1.39s-.48,.71-.85,.94c-.37,.22-.81,.34-1.33,.34Zm1.91-.16v-1.67h-.13v-4.11h1.13v5.78h-1Z"/></g><path class="cls-3" d="M262.54,84.81c19.18,0,34.73-15.55,34.73-34.73s-15.55-34.73-34.73-34.73-34.73,15.55-34.73,34.73,15.55,34.73,34.73,34.73Z"/></svg>