<?xml version="1.0" encoding="UTF-8"?><svg id="Layer_1" xmlns="http://www.w3.org/2000/svg" viewBox="0 0 300 350"><defs><style>.cls-1{fill:#fff;}.cls-2{stroke:#91919d;}.cls-2,.cls-3,.cls-4{stroke-miterlimit:10;}.cls-2,.cls-3,.cls-4,.cls-5{fill:none;}.cls-3,.cls-5{stroke:#fff;}.cls-4{stroke:#ff512f;}</style></defs><g><line class="cls-5" x1="150" y1="89.17" x2="150" y2="125.99"/><polygon class="cls-1" points="147.82 124.51 150 132.64 152.18 124.51 147.82 124.51"/></g><g><path class="cls-1" d="M146.31,306.98c-.92,0-1.71-.2-2.35-.6-.65-.4-1.14-.97-1.49-1.69-.34-.72-.52-1.56-.52-2.51s.17-1.79,.52-2.51c.34-.72,.84-1.28,1.49-1.69,.65-.4,1.43-.6,2.35-.6,1.06,0,1.94,.27,2.64,.81,.7,.54,1.18,1.26,1.46,2.17l-1.36,.37c-.18-.64-.5-1.15-.96-1.52-.46-.37-1.05-.55-1.78-.55-.65,0-1.2,.15-1.63,.44s-.76,.71-.98,1.23c-.22,.53-.33,1.15-.33,1.85,0,.7,.1,1.32,.32,1.85,.22,.53,.55,.94,.99,1.23,.44,.29,.98,.44,1.63,.44,.73,0,1.32-.18,1.78-.55s.78-.87,.96-1.51l1.36,.37c-.27,.91-.76,1.63-1.46,2.17-.7,.54-1.58,.81-2.64,.81Z"/><path class="cls-1" d="M151.56,306.78v-1.19s4.02-3.6,4.02-3.6c.32-.29,.54-.56,.66-.82,.12-.26,.18-.52,.18-.78,0-.33-.07-.62-.22-.89-.15-.26-.35-.47-.6-.62-.26-.15-.55-.23-.88-.23s-.65,.08-.91,.24c-.27,.16-.47,.37-.62,.64s-.22,.55-.22,.86h-1.37c0-.6,.13-1.12,.41-1.57,.27-.45,.64-.8,1.12-1.06,.47-.25,1.02-.38,1.63-.38s1.1,.13,1.56,.39c.46,.26,.82,.62,1.09,1.08,.27,.46,.4,.98,.4,1.56,0,.42-.06,.78-.17,1.08-.11,.29-.28,.57-.5,.82s-.5,.52-.83,.82l-3.1,2.77-.15-.38h4.74v1.27h-6.23Z"/></g><path class="cls-4" d="M150,343.87c22.93,0,41.52-18.59,41.52-41.52s-18.59-41.52-41.52-41.52-41.52,18.59-41.52,41.52,18.59,41.52,41.52,41.52Z"/><g><path class="cls-1" d="M250.52,306.98c-.92,0-1.71-.2-2.35-.6-.65-.4-1.14-.97-1.49-1.69-.34-.72-.52-1.56-.52-2.51s.17-1.79,.52-2.51c.34-.72,.84-1.28,1.49-1.69,.65-.4,1.43-.6,2.35-.6,1.06,0,1.94,.27,2.64,.81,.7,.54,1.18,1.26,1.46,2.17l-1.36,.37c-.18-.64-.5-1.15-.96-1.52-.46-.37-1.05-.55-1.78-.55-.65,0-1.2,.15-1.63,.44s-.76,.71-.98,1.23c-.22,.53-.33,1.15-.33,1.85,0,.7,.1,1.32,.32,1.85,.22,.53,.55,.94,.99,1.23,.44,.29,.98,.44,1.63,.44,.73,0,1.32-.18,1.78-.55s.78-.87,.96-1.51l1.36,.37c-.27,.91-.76,1.63-1.46,2.17-.7,.54-1.58,.81-2.64,.81Z"/><path class="cls-1" d="M258.6,306.96c-.46,0-.89-.09-1.29-.26-.4-.17-.75-.42-1.04-.74s-.5-.7-.64-1.13l1.29-.36c.12,.4,.34,.7,.65,.91,.31,.21,.65,.31,1.02,.31,.34,0,.63-.08,.89-.24,.26-.15,.46-.36,.6-.62,.15-.26,.22-.56,.22-.91,0-.51-.16-.93-.48-1.27-.32-.33-.73-.5-1.24-.5-.15,0-.29,.02-.45,.06-.15,.04-.29,.1-.43,.17l-.63-1.06,3.25-2.87,.14,.38h-4.48v-1.27h5.54v1.27l-2.7,2.6v-.44c.57,0,1.07,.13,1.5,.39,.43,.26,.76,.61,.99,1.05,.23,.44,.35,.94,.35,1.48,0,.59-.14,1.11-.41,1.57-.28,.46-.64,.82-1.11,1.08s-.98,.39-1.56,.39Z"/></g><path class="cls-4" d="M254.11,343.87c22.93,0,41.52-18.59,41.52-41.52s-18.59-41.52-41.52-41.52-41.52,18.59-41.52,41.52,18.59,41.52,41.52,41.52Z"/><g><path class="cls-1" d="M43.25,306.98c-.92,0-1.71-.2-2.35-.6-.65-.4-1.14-.97-1.49-1.69-.34-.72-.52-1.56-.52-2.51s.17-1.79,.52-2.51c.34-.72,.84-1.28,1.49-1.69,.65-.4,1.43-.6,2.35-.6,1.06,0,1.94,.27,2.64,.81,.7,.54,1.18,1.26,1.46,2.17l-1.36,.37c-.18-.64-.5-1.15-.96-1.52-.46-.37-1.05-.55-1.78-.55-.65,0-1.2,.15-1.63,.44s-.76,.71-.98,1.23c-.22,.53-.33,1.15-.33,1.85,0,.7,.1,1.32,.32,1.85,.22,.53,.55,.94,.99,1.23,.44,.29,.98,.44,1.63,.44,.73,0,1.32-.18,1.78-.55s.78-.87,.96-1.51l1.36,.37c-.27,.91-.76,1.63-1.46,2.17-.7,.54-1.58,.81-2.64,.81Z"/><path class="cls-1" d="M50.36,306.79v-7.74l-1.73,1.06v-1.49l1.73-1.04h1.36v9.22h-1.36Z"/></g><path class="cls-4" d="M45.89,343.87c22.93,0,41.52-18.59,41.52-41.52s-18.59-41.52-41.52-41.52-41.52,18.59-41.52,41.52,18.59,41.52,41.52,41.52Z"/><g><path class="cls-1" d="M125.32,179.61v-3.81l-3.12-5.41h1.56l2.23,3.87,2.23-3.87h1.56l-3.12,5.41v3.81h-1.36Z"/><path class="cls-1" d="M132.68,179.8c-.69,0-1.29-.16-1.8-.47-.51-.31-.9-.74-1.17-1.29s-.41-1.18-.41-1.9,.14-1.36,.42-1.9c.28-.55,.68-.97,1.18-1.28,.51-.31,1.1-.46,1.78-.46s1.29,.16,1.8,.47c.51,.31,.9,.74,1.18,1.29,.28,.55,.42,1.18,.42,1.89s-.14,1.36-.42,1.9c-.28,.55-.67,.98-1.18,1.29-.51,.31-1.11,.46-1.79,.46Zm0-1.26c.66,0,1.16-.22,1.48-.67s.49-1.02,.49-1.72-.17-1.3-.5-1.73c-.33-.43-.82-.65-1.48-.65-.45,0-.82,.1-1.11,.3-.29,.2-.51,.48-.65,.84-.14,.36-.21,.77-.21,1.24,0,.73,.17,1.31,.5,1.74,.33,.44,.82,.65,1.47,.65Z"/><path class="cls-1" d="M140.08,179.79c-.48,0-.88-.08-1.2-.23-.32-.15-.59-.36-.79-.6s-.36-.52-.46-.82c-.11-.29-.18-.58-.22-.86-.04-.28-.06-.53-.06-.74v-3.84h1.36v3.4c0,.27,.02,.54,.07,.83s.13,.55,.26,.79c.13,.24,.3,.44,.53,.59s.53,.22,.89,.22c.24,0,.47-.04,.68-.12,.21-.08,.4-.21,.56-.38s.29-.41,.38-.69c.09-.29,.14-.63,.14-1.04l.83,.31c0,.63-.12,1.18-.35,1.66-.24,.48-.57,.85-1.01,1.12s-.97,.4-1.59,.4Zm2.29-.19v-2h-.16v-4.92h1.35v6.91h-1.19Z"/><path class="cls-1" d="M145.35,179.61v-6.91h1.19v1.68l-.17-.22c.08-.22,.2-.43,.33-.61s.29-.34,.47-.46c.18-.13,.37-.23,.59-.3,.22-.07,.44-.11,.66-.13s.44,0,.65,.04v1.25c-.23-.06-.48-.08-.75-.05-.27,.03-.53,.11-.76,.26-.22,.14-.39,.31-.52,.51-.13,.2-.22,.42-.27,.67s-.08,.5-.08,.78v3.49h-1.35Z"/><path class="cls-1" d="M152.86,179.61v-9.22h1.21l3.34,6.93,3.32-6.93h1.22v9.21h-1.27v-6.3l-2.98,6.31h-.61l-2.98-6.31v6.31h-1.26Z"/><path class="cls-1" d="M163.87,179.61v-9.22h1.34v7.96h4.17v1.26h-5.51Z"/><path class="cls-1" d="M173.81,179.8c-.66,0-1.26-.11-1.79-.34-.53-.23-.97-.55-1.31-.98-.34-.42-.57-.93-.67-1.51l1.4-.21c.14,.56,.44,1,.88,1.32,.45,.31,.97,.47,1.57,.47,.37,0,.71-.06,1.02-.18,.31-.12,.56-.29,.75-.51s.28-.48,.28-.79c0-.17-.03-.31-.09-.44-.06-.13-.14-.24-.24-.34-.1-.1-.22-.18-.37-.25-.14-.07-.3-.13-.47-.18l-2.36-.7c-.23-.07-.47-.16-.7-.27s-.46-.25-.66-.43c-.2-.18-.36-.4-.48-.66-.12-.26-.19-.58-.19-.96,0-.57,.15-1.05,.44-1.44,.29-.39,.69-.69,1.19-.9,.5-.2,1.06-.3,1.68-.3,.62,0,1.18,.12,1.67,.33,.49,.21,.9,.52,1.23,.92,.33,.4,.55,.88,.68,1.45l-1.43,.24c-.06-.35-.2-.64-.41-.89-.21-.25-.47-.44-.77-.58s-.63-.2-.99-.21c-.34,0-.65,.04-.94,.15s-.51,.27-.68,.47c-.17,.2-.25,.43-.25,.69s.07,.46,.22,.62,.33,.28,.55,.37c.22,.09,.44,.17,.66,.23l1.7,.48c.21,.06,.45,.14,.73,.24,.27,.1,.53,.24,.79,.42,.25,.18,.46,.42,.63,.71s.25,.67,.25,1.12-.09,.87-.28,1.23c-.19,.35-.44,.65-.77,.88-.33,.24-.7,.41-1.13,.53s-.88,.18-1.35,.18Z"/></g><rect class="cls-2" x="108.48" y="133.48" width="83.04" height="83.04"/><g><path class="cls-1" d="M142,52.08v-3.81l-3.12-5.41h1.56l2.23,3.87,2.23-3.87h1.56l-3.12,5.41v3.81h-1.36Z"/><path class="cls-1" d="M149.36,52.27c-.69,0-1.29-.16-1.8-.47-.51-.31-.9-.74-1.17-1.29s-.41-1.18-.41-1.9,.14-1.36,.42-1.9c.28-.55,.68-.97,1.18-1.28,.51-.31,1.1-.46,1.78-.46s1.29,.16,1.8,.47c.51,.31,.9,.74,1.18,1.29,.28,.55,.42,1.18,.42,1.89s-.14,1.36-.42,1.9c-.28,.55-.67,.98-1.18,1.29-.51,.31-1.11,.46-1.79,.46Zm0-1.26c.66,0,1.16-.22,1.48-.67s.49-1.02,.49-1.72-.17-1.3-.5-1.73c-.33-.43-.82-.65-1.48-.65-.45,0-.82,.1-1.11,.3-.29,.2-.51,.48-.65,.84-.14,.36-.21,.77-.21,1.24,0,.73,.17,1.31,.5,1.74,.33,.44,.82,.65,1.47,.65Z"/><path class="cls-1" d="M156.76,52.26c-.48,0-.88-.08-1.2-.23-.32-.15-.59-.36-.79-.6s-.36-.52-.46-.82c-.11-.29-.18-.58-.22-.86-.04-.28-.06-.53-.06-.74v-3.84h1.36v3.4c0,.27,.02,.54,.07,.83s.13,.55,.26,.79c.13,.24,.3,.44,.53,.59s.53,.22,.89,.22c.24,0,.47-.04,.68-.12,.21-.08,.4-.21,.56-.38s.29-.41,.38-.69c.09-.29,.14-.63,.14-1.04l.83,.31c0,.63-.12,1.18-.35,1.66-.24,.48-.57,.85-1.01,1.12s-.97,.4-1.59,.4Zm2.29-.19v-2h-.16v-4.92h1.35v6.91h-1.19Z"/></g><path class="cls-3" d="M150,89.17c22.93,0,41.52-18.59,41.52-41.52S172.93,6.13,150,6.13s-41.52,18.59-41.52,41.52,18.59,41.52,41.52,41.52Z"/><g><line class="cls-5" x1="150" y1="223.66" x2="150" y2="253.54"/><polygon class="cls-1" points="147.82 225.14 150 217.01 152.18 225.14 147.82 225.14"/><polygon class="cls-1" points="147.82 252.05 150 260.18 152.18 252.05 147.82 252.05"/></g><g><line class="cls-5" x1="111.09" y1="221.47" x2="53.54" y2="256.41"/><polygon class="cls-1" points="108.68 220.38 116.76 218.02 110.95 224.1 108.68 220.38"/><polygon class="cls-1" points="53.68 253.77 47.86 259.85 55.94 257.5 53.68 253.77"/></g><g><line class="cls-5" x1="188.91" y1="221.47" x2="246.46" y2="256.41"/><polygon class="cls-1" points="189.05 224.1 183.23 218.02 191.32 220.38 189.05 224.1"/><polygon class="cls-1" points="244.06 257.5 252.14 259.86 246.32 253.77 244.06 257.5"/></g></svg>