<?xml version="1.0" encoding="UTF-8"?><svg id="Layer_1" xmlns="http://www.w3.org/2000/svg" viewBox="0 0 399.84 100.16"><defs><style>.cls-1{fill:#fff;}.cls-2{stroke:#91919d;}.cls-2,.cls-3,.cls-4{stroke-miterlimit:10;}.cls-2,.cls-3,.cls-4,.cls-5{fill:none;}.cls-3,.cls-5{stroke:#fff;}.cls-4{stroke:#ff512f;}</style></defs><g><line class="cls-5" x1="96.17" y1="50.08" x2="172.29" y2="50.08"/><polygon class="cls-1" points="170.81 52.26 178.94 50.08 170.81 47.9 170.81 52.26"/></g><g><line class="cls-5" x1="272.3" y1="50.08" x2="297.03" y2="50.08"/><polygon class="cls-1" points="295.55 52.26 303.68 50.08 295.55 47.9 295.55 52.26"/></g><g><path class="cls-1" d="M26.6,54.61c-1.03,0-1.9-.22-2.63-.67-.72-.45-1.28-1.08-1.66-1.88-.38-.8-.57-1.74-.57-2.8s.19-1.99,.57-2.8c.38-.8,.94-1.43,1.66-1.88,.72-.45,1.6-.67,2.63-.67,1.18,0,2.17,.3,2.94,.9s1.32,1.41,1.62,2.42l-1.51,.41c-.2-.72-.56-1.28-1.07-1.69-.51-.41-1.17-.61-1.99-.61-.73,0-1.33,.16-1.82,.49-.49,.33-.85,.79-1.1,1.38s-.37,1.28-.37,2.06c0,.79,.12,1.47,.36,2.06s.61,1.05,1.1,1.38c.49,.33,1.1,.49,1.82,.49,.81,0,1.48-.21,1.99-.62,.51-.41,.87-.97,1.07-1.69l1.51,.41c-.3,1.01-.85,1.82-1.62,2.42s-1.76,.9-2.94,.9Z"/><path class="cls-1" d="M36.09,54.61c-.77,0-1.44-.17-2.01-.52-.57-.35-1-.83-1.31-1.44s-.46-1.32-.46-2.12,.16-1.51,.47-2.12c.31-.61,.75-1.09,1.32-1.43,.57-.34,1.23-.51,1.98-.51s1.44,.17,2.01,.52c.57,.35,1,.83,1.31,1.44,.31,.61,.46,1.31,.46,2.11s-.16,1.51-.47,2.12-.75,1.09-1.32,1.43c-.57,.35-1.23,.52-2,.52Zm0-1.41c.74,0,1.29-.25,1.65-.75,.36-.5,.55-1.14,.55-1.92s-.18-1.45-.55-1.93c-.37-.48-.92-.72-1.65-.72-.5,0-.91,.11-1.23,.34-.32,.23-.56,.54-.72,.93-.16,.4-.24,.86-.24,1.38,0,.81,.19,1.46,.56,1.94,.37,.49,.92,.73,1.63,.73Z"/><path class="cls-1" d="M41.43,54.4v-7.71h1.33v2.23h.18v5.48h-1.51Zm5.42,0v-3.79c0-.3-.03-.61-.08-.92s-.15-.61-.29-.88c-.14-.27-.34-.49-.59-.66-.25-.17-.59-.25-1-.25-.27,0-.52,.04-.76,.13-.24,.09-.45,.23-.62,.42-.18,.19-.32,.45-.42,.77-.1,.32-.15,.71-.15,1.16l-.93-.35c0-.7,.13-1.32,.39-1.85,.26-.54,.64-.95,1.13-1.25s1.08-.45,1.78-.45c.53,0,.98,.09,1.34,.26,.36,.17,.66,.4,.88,.67,.23,.28,.4,.58,.52,.91s.2,.65,.24,.96c.04,.31,.06,.59,.06,.83v4.28h-1.51Z"/><path class="cls-1" d="M49.36,47.89v-1.2h5.27v1.2h-5.27Zm5.27,6.51c-.49,.09-.96,.14-1.43,.12-.47-.01-.88-.1-1.25-.27-.37-.17-.64-.43-.83-.79-.17-.32-.26-.64-.27-.97-.01-.33-.02-.71-.02-1.12v-6.82h1.5v6.75c0,.31,0,.58,.01,.81,0,.23,.06,.42,.15,.58,.17,.29,.44,.46,.82,.5,.37,.04,.81,.02,1.32-.05v1.26Z"/><path class="cls-1" d="M58.43,54.61c-.57,0-1.05-.11-1.44-.32-.38-.21-.68-.49-.87-.84-.2-.35-.3-.73-.3-1.15,0-.39,.07-.73,.21-1.03,.14-.29,.34-.55,.61-.75,.27-.21,.6-.38,1-.5,.34-.1,.73-.19,1.16-.26,.43-.08,.89-.15,1.37-.21,.48-.07,.95-.13,1.42-.2l-.54,.3c0-.6-.12-1.05-.38-1.35-.26-.29-.72-.44-1.36-.44-.4,0-.78,.09-1.11,.28-.34,.19-.57,.5-.71,.93l-1.39-.43c.19-.66,.55-1.19,1.09-1.58,.54-.39,1.25-.58,2.14-.58,.69,0,1.29,.12,1.8,.35s.89,.61,1.12,1.12c.12,.25,.2,.52,.23,.8,.03,.28,.04,.58,.04,.91v4.75h-1.32v-1.76l.26,.23c-.32,.59-.72,1.03-1.22,1.32-.49,.29-1.1,.43-1.82,.43Zm.26-1.22c.42,0,.79-.07,1.09-.22,.3-.15,.55-.34,.74-.57s.31-.48,.36-.73c.08-.23,.13-.49,.14-.77,.01-.29,.02-.51,.02-.69l.49,.18c-.47,.07-.9,.14-1.29,.19-.39,.06-.73,.11-1.05,.17s-.59,.12-.83,.2c-.21,.07-.39,.16-.55,.26-.16,.1-.29,.22-.38,.36s-.14,.32-.14,.52,.05,.38,.15,.55c.1,.17,.25,.3,.46,.4,.2,.1,.47,.15,.79,.15Z"/><path class="cls-1" d="M67.68,54.61c-.79,0-1.46-.18-2.01-.53-.55-.35-.97-.83-1.27-1.45-.29-.61-.44-1.31-.45-2.09,0-.79,.16-1.5,.46-2.11,.3-.61,.73-1.09,1.28-1.44,.56-.35,1.23-.52,2.01-.52,.84,0,1.56,.21,2.16,.63,.6,.42,.99,.99,1.18,1.72l-1.49,.43c-.15-.43-.39-.77-.72-1.01-.33-.24-.72-.36-1.15-.36-.49,0-.89,.12-1.21,.35-.31,.23-.55,.55-.7,.95-.15,.4-.23,.86-.24,1.37,0,.79,.19,1.44,.55,1.93,.36,.49,.89,.73,1.6,.73,.48,0,.87-.11,1.17-.33,.3-.22,.52-.54,.68-.95l1.51,.36c-.25,.75-.67,1.33-1.25,1.73-.58,.4-1.29,.6-2.11,.6Z"/><path class="cls-1" d="M71.64,47.89v-1.2h5.27v1.2h-5.27Zm5.27,6.51c-.49,.09-.96,.14-1.43,.12-.47-.01-.88-.1-1.25-.27-.37-.17-.64-.43-.83-.79-.17-.32-.26-.64-.27-.97-.01-.33-.02-.71-.02-1.12v-6.82h1.5v6.75c0,.31,0,.58,.01,.81,0,.23,.06,.42,.15,.58,.17,.29,.44,.46,.82,.5,.37,.04,.81,.02,1.32-.05v1.26Z"/></g><path class="cls-4" d="M49.86,96.38c25.57,0,46.3-20.73,46.3-46.3S75.44,3.78,49.86,3.78,3.56,24.51,3.56,50.08s20.73,46.3,46.3,46.3Z"/><g><path class="cls-1" d="M197.29,54.4v-4.25l-3.48-6.03h1.74l2.49,4.32,2.49-4.32h1.74l-3.48,6.03v4.25h-1.51Z"/><path class="cls-1" d="M205.5,54.61c-.77,0-1.44-.17-2.01-.52-.57-.35-1-.83-1.31-1.44s-.46-1.32-.46-2.12,.16-1.51,.47-2.12c.31-.61,.75-1.09,1.32-1.43s1.23-.51,1.98-.51,1.44,.17,2.01,.52,1,.83,1.31,1.43c.31,.61,.46,1.31,.46,2.11s-.16,1.51-.47,2.12c-.31,.61-.75,1.09-1.32,1.44-.57,.34-1.23,.52-2,.52Zm0-1.41c.74,0,1.29-.25,1.65-.75,.36-.5,.55-1.14,.55-1.92s-.18-1.45-.55-1.93c-.37-.48-.92-.72-1.65-.72-.5,0-.91,.11-1.23,.34-.32,.23-.56,.54-.72,.94-.16,.4-.24,.86-.24,1.38,0,.81,.19,1.46,.56,1.94,.37,.49,.92,.73,1.63,.73Z"/><path class="cls-1" d="M213.76,54.61c-.53,0-.98-.09-1.34-.26s-.66-.4-.88-.67c-.23-.28-.4-.58-.52-.91-.12-.33-.2-.65-.24-.96s-.06-.59-.06-.83v-4.28h1.51v3.79c0,.3,.02,.61,.07,.92,.05,.32,.15,.61,.29,.88,.14,.27,.34,.49,.59,.66,.25,.17,.59,.25,1,.25,.27,0,.52-.04,.76-.13,.24-.09,.45-.23,.62-.42,.18-.19,.32-.45,.42-.77,.1-.32,.15-.71,.15-1.16l.93,.35c0,.7-.13,1.32-.39,1.85-.26,.54-.64,.95-1.13,1.25s-1.08,.45-1.78,.45Zm2.55-.21v-2.23h-.18v-5.48h1.51v7.71h-1.33Z"/><path class="cls-1" d="M219.63,54.4v-7.71h1.33v1.87l-.19-.24c.09-.25,.22-.47,.37-.68s.33-.38,.53-.51c.19-.14,.41-.25,.65-.33,.24-.08,.49-.13,.74-.14s.5,0,.73,.04v1.4c-.25-.07-.53-.09-.84-.06-.31,.03-.59,.13-.85,.29-.24,.16-.43,.35-.58,.57-.14,.22-.24,.47-.3,.75-.06,.27-.09,.56-.09,.87v3.89h-1.51Z"/><path class="cls-1" d="M228,54.4v-10.28h1.33v5.55h.18v4.73h-1.51Zm5.42,0v-3.79c0-.3-.03-.61-.08-.92s-.15-.61-.29-.88c-.14-.27-.34-.49-.59-.66-.25-.17-.59-.25-1-.25-.27,0-.52,.04-.76,.13-.24,.09-.45,.23-.62,.42-.18,.2-.32,.45-.42,.77-.1,.32-.15,.71-.15,1.16l-.93-.35c0-.7,.13-1.32,.39-1.85s.64-.95,1.13-1.25,1.08-.45,1.78-.45c.53,0,.98,.09,1.34,.26s.66,.4,.88,.67c.23,.28,.4,.58,.52,.91,.12,.33,.2,.65,.24,.96,.04,.31,.06,.59,.06,.83v4.28h-1.51Z"/><path class="cls-1" d="M240.13,54.61c-.77,0-1.44-.17-2.01-.52-.57-.35-1-.83-1.31-1.44s-.46-1.32-.46-2.12,.16-1.51,.47-2.12c.31-.61,.75-1.09,1.32-1.43s1.23-.51,1.98-.51,1.44,.17,2.01,.52,1,.83,1.31,1.43c.31,.61,.46,1.31,.46,2.11s-.16,1.51-.47,2.12c-.31,.61-.75,1.09-1.32,1.44-.57,.34-1.23,.52-2,.52Zm0-1.41c.74,0,1.29-.25,1.65-.75,.36-.5,.55-1.14,.55-1.92s-.18-1.45-.55-1.93c-.37-.48-.92-.72-1.65-.72-.5,0-.91,.11-1.23,.34-.32,.23-.56,.54-.72,.94-.16,.4-.24,.86-.24,1.38,0,.81,.19,1.46,.56,1.94,.37,.49,.92,.73,1.63,.73Z"/><path class="cls-1" d="M248.43,54.61c-.94,0-1.7-.21-2.29-.62-.59-.41-.95-1-1.08-1.75l1.53-.24c.09,.4,.32,.72,.66,.95,.34,.23,.77,.35,1.29,.35,.47,0,.83-.1,1.1-.29,.26-.19,.4-.45,.4-.79,0-.19-.05-.35-.14-.47-.09-.12-.29-.24-.58-.35-.3-.11-.75-.24-1.35-.41-.66-.17-1.19-.36-1.57-.55-.39-.2-.66-.43-.83-.69s-.25-.58-.25-.96c0-.47,.12-.87,.37-1.22,.25-.35,.6-.62,1.04-.81,.45-.19,.98-.29,1.58-.29s1.12,.09,1.58,.28c.46,.19,.83,.45,1.12,.79,.29,.34,.46,.74,.51,1.2l-1.53,.28c-.05-.37-.23-.66-.52-.88-.29-.21-.68-.33-1.15-.35-.45-.02-.82,.06-1.1,.22-.28,.17-.42,.4-.42,.7,0,.17,.05,.32,.16,.44,.11,.12,.31,.23,.62,.34s.77,.24,1.37,.39c.65,.17,1.16,.35,1.54,.55,.38,.2,.65,.44,.82,.72s.25,.62,.25,1.01c0,.76-.28,1.36-.83,1.79-.55,.43-1.32,.65-2.29,.65Z"/><path class="cls-1" d="M252.28,47.89v-1.2h5.27v1.2h-5.27Zm5.27,6.51c-.49,.1-.96,.14-1.43,.12-.47-.01-.88-.1-1.25-.27-.37-.17-.64-.43-.83-.79-.17-.32-.26-.64-.27-.97-.01-.33-.02-.71-.02-1.12v-6.82h1.5v6.75c0,.31,0,.58,.01,.81s.06,.42,.15,.58c.17,.29,.44,.46,.82,.5,.37,.04,.81,.02,1.32-.05v1.26Z"/></g><rect class="cls-3" x="179.69" y="3.78" width="92.61" height="92.61"/><g><path class="cls-1" d="M340.48,54.4v-4.25l-3.48-6.03h1.74l2.49,4.32,2.49-4.32h1.74l-3.48,6.03v4.25h-1.51Z"/><path class="cls-1" d="M349.82,54.61c-.77,0-1.44-.17-2.01-.52-.57-.35-1-.83-1.31-1.44s-.46-1.32-.46-2.12,.16-1.51,.47-2.12c.31-.61,.75-1.09,1.32-1.43,.57-.34,1.23-.51,1.98-.51s1.44,.17,2.01,.52c.57,.35,1,.83,1.31,1.44,.31,.61,.46,1.31,.46,2.11s-.16,1.51-.47,2.12-.75,1.09-1.32,1.43c-.57,.35-1.23,.52-2,.52Zm0-1.41c.74,0,1.29-.25,1.65-.75,.36-.5,.55-1.14,.55-1.92s-.18-1.45-.55-1.93c-.37-.48-.92-.72-1.65-.72-.5,0-.91,.11-1.23,.34-.32,.23-.56,.54-.72,.93-.16,.4-.24,.86-.24,1.38,0,.81,.19,1.46,.56,1.94,.37,.49,.92,.73,1.63,.73Z"/><path class="cls-1" d="M358.08,54.61c-.53,0-.98-.09-1.34-.26-.36-.17-.66-.4-.88-.67-.23-.28-.4-.58-.52-.91-.12-.33-.2-.65-.24-.96-.04-.31-.06-.59-.06-.83v-4.28h1.51v3.79c0,.3,.02,.61,.07,.92,.05,.32,.15,.61,.29,.88,.14,.27,.34,.49,.59,.66,.25,.17,.59,.25,1,.25,.27,0,.52-.04,.76-.13,.24-.09,.45-.23,.62-.42,.18-.2,.32-.45,.42-.77,.1-.32,.15-.71,.15-1.16l.93,.35c0,.7-.13,1.32-.39,1.85s-.64,.95-1.13,1.25c-.49,.3-1.08,.45-1.78,.45Zm2.55-.21v-2.23h-.18v-5.48h1.51v7.71h-1.33Z"/></g><path class="cls-2" d="M349.98,96.38c25.57,0,46.3-20.73,46.3-46.3S375.55,3.78,349.98,3.78s-46.3,20.73-46.3,46.3,20.73,46.3,46.3,46.3Z"/></svg>