<?xml version="1.0" encoding="UTF-8"?><svg id="a" xmlns="http://www.w3.org/2000/svg" viewBox="0 0 1237.45 1104.74"><defs><style>.b{opacity:.05;}.c{opacity:.1;}.d{fill:#fff;}.e{fill:#ff9682;}.f{fill:#bdbdc4;}.g{fill:#accaff;}.h{fill:#363a3f;}.i{fill:none;stroke:#fff;stroke-miterlimit:10;}</style></defs><line class="i" x1="865.66" y1="511.44" x2="865.66" y2="640.56"/><line class="i" x1="105.52" y1="332.06" x2="542.61" y2="567.42"/><path class="d" d="M517.43,447.68v-3.19h3.19v3.19m-3.19,12.75v-3.19h3.19v3.19m-3.19,12.75v-3.19h3.19v3.19m-3.19,12.75v-3.19h3.19v3.19m-3.19,12.75v-3.19h3.19v3.19m-3.19,12.75v-3.19h3.19v3.19m-3.19,12.75v-3.19h3.19v3.19m-3.19,12.75v-3.19h3.19v3.19m-3.19,12.75v-3.19h3.19v3.19m-3.19,12.75v-3.19h3.19v3.19m-3.19,12.75v-3.19h3.19v3.19m-3.19,12.75v-3.19h3.19v3.19m-3.19,12.75v-3.19h3.19v3.19m-3.19,12.75v-3.19h3.19v3.19m-3.19,12.75v-3.19h3.19v3.19m-3.19,12.75v-3.19h3.19v3.19m-3.19,12.75v-3.19h3.19v3.19m-3.19,12.75v-3.19h3.19v3.19m-3.19,12.75v-3.19h3.19v3.19"/><g><polygon class="g" points="535.93 534.56 599.69 534.56 615.63 550.5 615.63 614.26 551.87 614.26 535.93 598.32 535.93 534.56"/><polygon class="i" points="535.93 534.56 599.69 534.56 615.63 550.5 615.63 614.26 551.87 614.26 535.93 598.32 535.93 534.56"/><polygon class="b" points="535.93 534.56 599.69 534.56 615.63 550.5 551.87 550.5 535.93 534.56"/><polygon class="c" points="535.93 534.56 551.87 550.5 551.87 614.26 535.93 598.32 535.93 534.56"/><path class="i" d="M551.87,550.5h63.76m-63.76,63.76v-63.76l-15.94-15.94"/></g><g><path class="h" d="M569.91,576.8v-10.9h-4.2v-1.73h10.23v1.73h-4.2v10.9h-1.83Z"/><path class="h" d="M577.34,576.8v-9.47h1.63v2.3l-.23-.3c.12-.3,.27-.58,.46-.84,.19-.25,.4-.46,.65-.63,.24-.18,.51-.31,.8-.41,.29-.1,.6-.15,.91-.18s.61,0,.89,.05v1.72c-.31-.08-.65-.1-1.03-.07-.38,.04-.72,.16-1.04,.36-.3,.19-.53,.43-.71,.7-.17,.27-.3,.58-.37,.92-.08,.34-.11,.69-.11,1.06v4.78h-1.85Z"/><path class="h" d="M588.31,577.06c-.94,0-1.77-.21-2.48-.62-.71-.41-1.26-.99-1.66-1.73s-.59-1.6-.59-2.57c0-1.03,.19-1.93,.58-2.69s.93-1.35,1.63-1.76c.7-.41,1.5-.62,2.43-.62s1.79,.22,2.46,.67,1.18,1.08,1.52,1.91c.34,.82,.47,1.8,.4,2.94h-1.83v-.67c-.01-1.1-.22-1.91-.63-2.44-.41-.53-1.02-.79-1.85-.79-.92,0-1.61,.29-2.07,.87s-.69,1.41-.69,2.51,.23,1.85,.69,2.42c.46,.57,1.13,.85,2,.85,.57,0,1.07-.13,1.49-.39,.42-.26,.74-.63,.98-1.12l1.8,.57c-.37,.85-.93,1.5-1.67,1.97-.75,.46-1.58,.7-2.5,.7Zm-3.38-4.48v-1.43h6.76v1.43h-6.76Z"/><path class="h" d="M598.77,577.06c-.94,0-1.77-.21-2.48-.62-.71-.41-1.26-.99-1.66-1.73s-.59-1.6-.59-2.57c0-1.03,.19-1.93,.58-2.69s.93-1.35,1.63-1.76c.7-.41,1.5-.62,2.43-.62s1.79,.22,2.46,.67,1.18,1.08,1.52,1.91c.34,.82,.47,1.8,.4,2.94h-1.83v-.67c-.01-1.1-.22-1.91-.63-2.44-.41-.53-1.02-.79-1.85-.79-.92,0-1.61,.29-2.07,.87s-.69,1.41-.69,2.51,.23,1.85,.69,2.42c.46,.57,1.13,.85,2,.85,.57,0,1.07-.13,1.49-.39,.42-.26,.74-.63,.98-1.12l1.8,.57c-.37,.85-.93,1.5-1.67,1.97-.75,.46-1.58,.7-2.5,.7Zm-3.38-4.48v-1.43h6.76v1.43h-6.76Z"/><path class="h" d="M561.92,597.84v-12.62h5.1c.12,0,.27,0,.46,.01,.18,0,.35,.03,.52,.06,.7,.11,1.29,.35,1.76,.72s.82,.83,1.06,1.39c.23,.56,.35,1.18,.35,1.86,0,1.01-.26,1.87-.77,2.6-.51,.73-1.29,1.18-2.31,1.36l-.75,.09h-3.58v4.53h-1.83Zm1.83-6.27h3.2c.12,0,.25,0,.39-.02,.14-.01,.28-.03,.41-.06,.37-.09,.67-.25,.9-.49,.23-.24,.39-.51,.49-.82,.1-.31,.15-.62,.15-.93s-.05-.62-.15-.92c-.1-.31-.26-.58-.49-.81-.23-.24-.53-.4-.9-.49-.13-.04-.26-.06-.41-.07-.14-.01-.27-.02-.39-.02h-3.2v4.63Zm5.55,6.27l-2.49-5.14,1.85-.47,2.74,5.61h-2.09Z"/><path class="h" d="M578.59,598.1c-1.26,0-2.34-.28-3.23-.83s-1.57-1.32-2.04-2.31c-.47-.99-.71-2.13-.71-3.44s.23-2.45,.71-3.44,1.15-1.76,2.04-2.31,1.96-.83,3.23-.83,2.33,.28,3.22,.83c.89,.55,1.57,1.32,2.04,2.31s.7,2.13,.7,3.44-.23,2.45-.7,3.44c-.47,.99-1.15,1.76-2.04,2.31-.89,.55-1.96,.83-3.22,.83Zm0-1.74c.89,.01,1.64-.19,2.23-.59,.59-.41,1.04-.97,1.34-1.7s.45-1.57,.45-2.54-.15-1.81-.45-2.53-.74-1.28-1.34-1.69c-.59-.4-1.34-.61-2.23-.61-.89-.01-1.64,.18-2.23,.59s-1.04,.97-1.34,1.7-.45,1.58-.46,2.54,.14,1.81,.44,2.53c.3,.72,.75,1.28,1.35,1.69,.6,.4,1.35,.61,2.24,.61Z"/><path class="h" d="M591.58,598.1c-1.26,0-2.34-.28-3.23-.83s-1.57-1.32-2.04-2.31c-.47-.99-.71-2.13-.71-3.44s.23-2.45,.71-3.44,1.15-1.76,2.04-2.31,1.96-.83,3.23-.83,2.33,.28,3.22,.83c.89,.55,1.57,1.32,2.04,2.31s.7,2.13,.7,3.44-.23,2.45-.7,3.44c-.47,.99-1.15,1.76-2.04,2.31-.89,.55-1.96,.83-3.22,.83Zm0-1.74c.89,.01,1.64-.19,2.23-.59,.59-.41,1.04-.97,1.34-1.7s.45-1.57,.45-2.54-.15-1.81-.45-2.53-.74-1.28-1.34-1.69c-.59-.4-1.34-.61-2.23-.61-.89-.01-1.64,.18-2.23,.59s-1.04,.97-1.34,1.7-.45,1.58-.46,2.54,.14,1.81,.44,2.53c.3,.72,.75,1.28,1.35,1.69,.6,.4,1.35,.61,2.24,.61Z"/><path class="h" d="M602.44,597.84v-10.9h-4.2v-1.73h10.23v1.73h-4.2v10.9h-1.83Z"/></g><g><polygon class="g" points="631.57 534.56 695.33 534.56 711.28 550.5 711.28 614.26 647.51 614.26 631.57 598.32 631.57 534.56"/><polygon class="i" points="631.57 534.56 695.33 534.56 711.28 550.5 711.28 614.26 647.51 614.26 631.57 598.32 631.57 534.56"/><polygon class="b" points="631.57 534.56 695.33 534.56 711.28 550.5 647.51 550.5 631.57 534.56"/><polygon class="c" points="631.57 534.56 647.51 550.5 647.51 614.26 631.57 598.32 631.57 534.56"/><path class="i" d="M647.51,550.5h63.76m-63.76,63.76v-63.76l-15.94-15.94"/></g><g><polygon class="g" points="727.22 534.56 790.98 534.56 806.92 550.5 806.92 614.26 743.16 614.26 727.22 598.32 727.22 534.56"/><polygon class="i" points="727.22 534.56 790.98 534.56 806.92 550.5 806.92 614.26 743.16 614.26 727.22 598.32 727.22 534.56"/><polygon class="b" points="727.22 534.56 790.98 534.56 806.92 550.5 743.16 550.5 727.22 534.56"/><polygon class="c" points="727.22 534.56 743.16 550.5 743.16 614.26 727.22 598.32 727.22 534.56"/><path class="i" d="M743.16,550.5h63.76m-63.76,63.76v-63.76l-15.94-15.94"/></g><g><polygon class="g" points="822.86 534.56 886.63 534.56 902.57 550.5 902.57 614.26 838.8 614.26 822.86 598.32 822.86 534.56"/><polygon class="i" points="822.86 534.56 886.63 534.56 902.57 550.5 902.57 614.26 838.8 614.26 822.86 598.32 822.86 534.56"/><polygon class="b" points="822.86 534.56 886.63 534.56 902.57 550.5 838.8 550.5 822.86 534.56"/><polygon class="c" points="822.86 534.56 838.8 550.5 838.8 614.26 822.86 598.32 822.86 534.56"/><path class="i" d="M838.8,550.5h63.76m-63.76,63.76v-63.76l-15.94-15.94"/></g><g><polygon class="g" points="1014.15 534.56 1077.92 534.56 1093.86 550.5 1093.86 614.26 1030.09 614.26 1014.15 598.32 1014.15 534.56"/><polygon class="i" points="1014.15 534.56 1077.92 534.56 1093.86 550.5 1093.86 614.26 1030.09 614.26 1014.15 598.32 1014.15 534.56"/><polygon class="b" points="1014.15 534.56 1077.92 534.56 1093.86 550.5 1030.09 550.5 1014.15 534.56"/><polygon class="c" points="1014.15 534.56 1030.09 550.5 1030.09 614.26 1014.15 598.32 1014.15 534.56"/><path class="i" d="M1030.09,550.5h63.76m-63.76,63.76v-63.76l-15.94-15.94"/></g><g><path class="h" d="M1049.97,587.96v-10.9h-4.2v-1.73h10.23v1.73h-4.2v10.9h-1.83Z"/><path class="h" d="M1057.58,587.96v-12.62h1.83v12.62h-1.83Z"/><path class="h" d="M1062.04,587.96v-12.62h5.1c.12,0,.27,0,.46,.01,.18,0,.35,.03,.52,.06,.7,.11,1.29,.35,1.76,.72s.82,.83,1.06,1.39c.23,.56,.35,1.18,.35,1.86s-.12,1.31-.35,1.87c-.23,.56-.59,1.03-1.06,1.39s-1.06,.61-1.76,.72c-.16,.02-.34,.04-.52,.05-.18,.01-.33,.02-.45,.02h-3.27v4.53h-1.83Zm1.83-6.27h3.2c.12,0,.25,0,.39-.02,.14-.01,.28-.03,.41-.06,.37-.09,.67-.25,.9-.49,.23-.24,.39-.51,.49-.82,.1-.31,.15-.62,.15-.93s-.05-.62-.15-.92c-.1-.31-.26-.58-.49-.81-.23-.24-.53-.4-.9-.49-.13-.04-.26-.06-.41-.07-.14-.01-.27-.02-.39-.02h-3.2v4.63Z"/></g><line class="i" x1="806.92" y1="775.27" x2="838.8" y2="775.27"/><polygon class="f" points="727.22 735.41 790.98 735.41 806.92 751.35 806.92 815.12 743.16 815.12 727.22 799.18 727.22 735.41"/><polygon class="i" points="727.22 735.41 790.98 735.41 806.92 751.35 806.92 815.12 743.16 815.12 727.22 799.18 727.22 735.41"/><polygon class="b" points="727.22 735.41 790.98 735.41 806.92 751.35 743.16 751.35 727.22 735.41"/><polygon class="c" points="727.22 735.41 743.16 751.35 743.16 815.12 727.22 799.18 727.22 735.41"/><path class="i" d="M743.16,751.35h63.76m-63.76,63.76v-63.76l-15.94-15.94"/><polygon class="f" points="822.86 735.41 886.63 735.41 902.57 751.35 902.57 815.12 838.8 815.12 822.86 799.18 822.86 735.41"/><polygon class="i" points="822.86 735.41 886.63 735.41 902.57 751.35 902.57 815.12 838.8 815.12 822.86 799.18 822.86 735.41"/><polygon class="b" points="822.86 735.41 886.63 735.41 902.57 751.35 838.8 751.35 822.86 735.41"/><polygon class="c" points="822.86 735.41 838.8 751.35 838.8 815.12 822.86 799.18 822.86 735.41"/><path class="i" d="M838.8,751.35h63.76m-63.76,63.76v-63.76l-15.94-15.94"/><g><line class="i" x1="615.63" y1="574.41" x2="631.57" y2="574.41"/><line class="i" x1="711.28" y1="574.41" x2="727.22" y2="574.41"/><line class="i" x1="806.92" y1="574.41" x2="822.86" y2="574.41"/><line class="i" x1="902.57" y1="574.41" x2="918.51" y2="574.41"/><line class="i" x1="998.21" y1="574.41" x2="1014.15" y2="574.41"/></g><g><polygon class="g" points="918.51 534.56 982.27 534.56 998.21 550.5 998.21 614.26 934.45 614.26 918.51 598.32 918.51 534.56"/><polygon class="i" points="918.51 534.56 982.27 534.56 998.21 550.5 998.21 614.26 934.45 614.26 918.51 598.32 918.51 534.56"/><polygon class="b" points="918.51 534.56 982.27 534.56 998.21 550.5 934.45 550.5 918.51 534.56"/><polygon class="c" points="918.51 534.56 934.45 550.5 934.45 614.26 918.51 598.32 918.51 534.56"/><path class="i" d="M934.45,550.5h63.76m-63.76,63.76v-63.76l-15.94-15.94"/></g><g><line class="i" x1="1110.97" y1="574.41" x2="1227.57" y2="574.41"/><polygon class="d" points="1112.43 579.4 1103.79 574.41 1112.43 569.42 1112.43 579.4"/></g><g><path class="d" d="M1115.74,564.49v-15.54h2.04l5.63,11.68,5.6-11.68h2.06v15.52h-2.14v-10.63l-5.02,10.64h-1.03l-5.03-10.64v10.64h-2.12Z"/><path class="d" d="M1137.38,564.81c-.86,0-1.59-.16-2.17-.48-.58-.32-1.02-.74-1.32-1.27-.3-.53-.45-1.11-.45-1.74,0-.59,.1-1.11,.31-1.55,.21-.45,.52-.83,.93-1.14,.41-.31,.91-.57,1.51-.76,.52-.15,1.1-.28,1.76-.4,.65-.11,1.34-.22,2.07-.32,.72-.1,1.44-.2,2.15-.3l-.82,.45c.01-.91-.18-1.59-.58-2.03-.4-.44-1.08-.66-2.05-.66-.61,0-1.17,.14-1.68,.43-.51,.28-.87,.75-1.07,1.41l-2.1-.65c.29-1,.84-1.79,1.64-2.38,.81-.59,1.89-.88,3.23-.88,1.04,0,1.95,.18,2.72,.53,.77,.36,1.34,.92,1.7,1.69,.19,.38,.3,.78,.35,1.21s.06,.88,.06,1.37v7.17h-2v-2.66l.39,.35c-.48,.89-1.09,1.56-1.84,1.99-.75,.44-1.66,.65-2.75,.65Zm.4-1.84c.64,0,1.19-.11,1.65-.34s.83-.52,1.11-.87,.46-.72,.55-1.1c.12-.35,.19-.73,.21-1.17,.02-.43,.03-.78,.03-1.04l.73,.27c-.71,.11-1.36,.21-1.94,.29-.58,.09-1.11,.17-1.58,.25-.47,.08-.89,.18-1.26,.3-.31,.11-.58,.24-.83,.39-.24,.15-.43,.33-.57,.55s-.21,.48-.21,.79,.08,.58,.23,.84c.15,.26,.38,.46,.69,.61,.31,.15,.7,.23,1.19,.23Z"/><path class="d" d="M1146.59,550.93v-2.19h2.25v2.19h-2.25Zm0,13.56v-11.65h2.25v11.65h-2.25Z"/><path class="d" d="M1152.07,564.49v-11.65h2.02v3.37h.27v8.29h-2.29Zm8.19,0v-5.73c0-.45-.04-.92-.11-1.4-.08-.48-.22-.92-.43-1.33-.21-.41-.51-.74-.9-.99-.38-.25-.89-.38-1.5-.38-.4,0-.78,.07-1.14,.2-.36,.13-.67,.35-.94,.64s-.48,.68-.64,1.17c-.15,.48-.23,1.07-.23,1.76l-1.4-.53c0-1.06,.2-1.99,.59-2.8,.4-.81,.96-1.44,1.71-1.89,.74-.45,1.64-.68,2.69-.68,.81,0,1.48,.13,2.03,.39,.55,.26,.99,.6,1.33,1.02,.34,.42,.6,.88,.78,1.38,.18,.5,.3,.98,.37,1.46s.1,.89,.1,1.25v6.47h-2.29Z"/><path class="d" d="M1176.15,564.81c-1.55,0-2.88-.34-3.97-1.02-1.09-.68-1.93-1.63-2.51-2.84s-.87-2.62-.87-4.23,.29-3.01,.87-4.23,1.42-2.16,2.51-2.84c1.09-.68,2.42-1.02,3.97-1.02,1.79,0,3.27,.45,4.45,1.36s1.99,2.12,2.45,3.66l-2.29,.61c-.3-1.09-.84-1.94-1.61-2.56-.77-.62-1.77-.93-3-.93-1.1,0-2.02,.25-2.75,.74s-1.29,1.19-1.66,2.08c-.37,.89-.56,1.93-.56,3.12,0,1.19,.17,2.23,.54,3.12,.37,.89,.92,1.59,1.66,2.08,.74,.5,1.66,.74,2.76,.74,1.23,0,2.23-.31,3-.93,.77-.62,1.31-1.47,1.61-2.55l2.29,.62c-.46,1.53-1.28,2.75-2.45,3.66s-2.66,1.36-4.45,1.36Z"/><path class="d" d="M1185.42,564.49v-15.54h2.02v8.38h.27v7.15h-2.29Zm8.19,0v-5.73c0-.45-.04-.92-.11-1.4-.08-.48-.22-.92-.43-1.33-.21-.41-.51-.74-.9-.99-.38-.25-.89-.38-1.5-.38-.4,0-.78,.07-1.14,.2-.36,.13-.67,.35-.94,.64s-.48,.68-.64,1.17c-.15,.48-.23,1.07-.23,1.76l-1.4-.53c0-1.06,.2-1.99,.59-2.8,.4-.81,.96-1.44,1.71-1.89,.74-.45,1.64-.68,2.69-.68,.81,0,1.48,.13,2.03,.39,.55,.26,.99,.6,1.33,1.02,.34,.42,.6,.88,.78,1.38,.18,.5,.3,.98,.37,1.46s.1,.89,.1,1.25v6.47h-2.29Z"/><path class="d" d="M1201.99,564.81c-.86,0-1.59-.16-2.17-.48-.58-.32-1.02-.74-1.32-1.27-.3-.53-.45-1.11-.45-1.74,0-.59,.1-1.11,.31-1.55,.21-.45,.52-.83,.93-1.14,.41-.31,.91-.57,1.51-.76,.52-.15,1.1-.28,1.76-.4,.65-.11,1.34-.22,2.07-.32,.72-.1,1.44-.2,2.15-.3l-.82,.45c.01-.91-.18-1.59-.58-2.03-.4-.44-1.08-.66-2.05-.66-.61,0-1.17,.14-1.68,.43-.51,.28-.87,.75-1.07,1.41l-2.1-.65c.29-1,.84-1.79,1.64-2.38,.81-.59,1.89-.88,3.23-.88,1.04,0,1.95,.18,2.72,.53,.77,.36,1.34,.92,1.7,1.69,.19,.38,.3,.78,.35,1.21s.06,.88,.06,1.37v7.17h-2v-2.66l.39,.35c-.48,.89-1.09,1.56-1.84,1.99-.75,.44-1.66,.65-2.75,.65Zm.4-1.84c.64,0,1.19-.11,1.65-.34s.83-.52,1.11-.87,.46-.72,.55-1.1c.12-.35,.19-.73,.21-1.17,.02-.43,.03-.78,.03-1.04l.73,.27c-.71,.11-1.36,.21-1.94,.29-.58,.09-1.11,.17-1.58,.25-.47,.08-.89,.18-1.26,.3-.31,.11-.58,.24-.83,.39-.24,.15-.43,.33-.57,.55s-.21,.48-.21,.79,.08,.58,.23,.84c.15,.26,.38,.46,.69,.61,.31,.15,.7,.23,1.19,.23Z"/><path class="d" d="M1211.21,550.93v-2.19h2.25v2.19h-2.25Zm0,13.56v-11.65h2.25v11.65h-2.25Z"/><path class="d" d="M1216.69,564.49v-11.65h2.02v3.37h.27v8.29h-2.29Zm8.19,0v-5.73c0-.45-.04-.92-.11-1.4-.08-.48-.22-.92-.43-1.33-.21-.41-.51-.74-.9-.99-.38-.25-.89-.38-1.5-.38-.4,0-.78,.07-1.14,.2-.36,.13-.67,.35-.94,.64s-.48,.68-.64,1.17c-.15,.48-.23,1.07-.23,1.76l-1.4-.53c0-1.06,.2-1.99,.59-2.8,.4-.81,.96-1.44,1.71-1.89,.74-.45,1.64-.68,2.69-.68,.81,0,1.48,.13,2.03,.39,.55,.26,.99,.6,1.33,1.02,.34,.42,.6,.88,.78,1.38,.18,.5,.3,.98,.37,1.46s.1,.89,.1,1.25v6.47h-2.29Z"/></g><g><line class="i" x1="101.42" y1="239.54" x2="503.25" y2="455.91"/><polygon class="d" points="100.34 244.62 95.1 236.14 105.07 235.84 100.34 244.62"/><polygon class="d" points="499.6 459.61 509.56 459.31 504.33 450.83 499.6 459.61"/></g><g><path class="d" d="M297.5,333.81c-1.37-.74-2.37-1.66-3.01-2.78-.64-1.12-.93-2.35-.86-3.69,.07-1.34,.48-2.72,1.24-4.14,.76-1.41,1.68-2.52,2.77-3.31s2.27-1.23,3.56-1.31c1.28-.08,2.61,.25,3.98,.98,1.58,.85,2.67,1.95,3.27,3.31,.61,1.36,.75,2.82,.43,4.38l-2.3-.54c.25-1.1,.18-2.1-.21-3.02-.39-.91-1.12-1.66-2.21-2.24-.97-.52-1.89-.74-2.78-.65-.88,.09-1.7,.44-2.45,1.05-.75,.61-1.4,1.44-1.97,2.48-.57,1.04-.9,2.04-1,3-.1,.96,.06,1.83,.48,2.62,.41,.79,1.1,1.44,2.07,1.96,1.08,.58,2.11,.78,3.09,.6,.98-.18,1.85-.67,2.63-1.48l1.72,1.63c-1.13,1.13-2.43,1.82-3.89,2.06-1.46,.24-2.99-.06-4.56-.91Z"/><path class="d" d="M308.57,339.77c-.76-.41-1.32-.89-1.68-1.45-.36-.56-.55-1.14-.56-1.75-.01-.61,.13-1.19,.43-1.75,.28-.52,.62-.93,1.01-1.22,.39-.29,.85-.48,1.36-.56s1.07-.07,1.69,.05c.53,.11,1.11,.27,1.74,.48,.63,.21,1.29,.44,1.97,.69,.68,.25,1.36,.51,2.04,.75h-.94c.45-.79,.6-1.48,.46-2.05-.14-.58-.64-1.1-1.49-1.56-.54-.29-1.1-.43-1.68-.42-.58,0-1.12,.25-1.61,.73l-1.55-1.57c.73-.74,1.59-1.18,2.58-1.32,.99-.14,2.08,.12,3.26,.75,.92,.49,1.63,1.08,2.15,1.76,.51,.68,.74,1.44,.69,2.29-.02,.42-.1,.83-.27,1.23s-.36,.81-.59,1.24l-3.4,6.32-1.76-.95,1.26-2.35,.18,.49c-.85,.56-1.7,.85-2.56,.88-.86,.03-1.77-.21-2.73-.73Zm1.23-1.43c.56,.3,1.1,.46,1.61,.48,.51,.02,.98-.06,1.39-.24,.41-.18,.75-.41,1.01-.71,.27-.25,.52-.55,.74-.93,.22-.37,.39-.67,.51-.9l.52,.59c-.68-.24-1.29-.46-1.85-.66-.55-.2-1.06-.38-1.51-.53-.45-.15-.87-.26-1.25-.33-.32-.05-.63-.07-.91-.05-.28,.02-.54,.09-.76,.21-.23,.12-.41,.32-.56,.59-.14,.27-.21,.55-.2,.84,.01,.3,.12,.58,.32,.86,.2,.28,.51,.53,.94,.76Z"/><path class="d" d="M320.42,346.14c-1.25-.67-2.12-1.49-2.6-2.47-.49-.97-.55-2.01-.19-3.1l2.2,.78c-.16,.6-.09,1.18,.2,1.73,.29,.55,.78,1.02,1.47,1.38,.62,.33,1.17,.47,1.66,.41,.49-.06,.85-.32,1.09-.76,.14-.26,.19-.5,.15-.73-.04-.23-.21-.52-.53-.88-.31-.36-.82-.86-1.5-1.51-.76-.7-1.32-1.32-1.7-1.86-.37-.54-.58-1.05-.61-1.51-.03-.47,.09-.95,.36-1.45,.33-.62,.79-1.07,1.37-1.36s1.23-.39,1.97-.32c.73,.07,1.5,.32,2.31,.75,.79,.42,1.42,.92,1.9,1.5,.48,.58,.79,1.2,.93,1.85,.14,.66,.08,1.31-.17,1.96l-2.23-.72c.2-.53,.17-1.04-.06-1.54-.24-.5-.67-.93-1.28-1.29-.59-.35-1.13-.51-1.62-.49-.49,.02-.85,.23-1.06,.62-.12,.23-.16,.46-.1,.69,.06,.24,.25,.54,.58,.9,.33,.37,.85,.87,1.54,1.5,.74,.69,1.29,1.3,1.66,1.84,.36,.54,.55,1.06,.57,1.54,.02,.49-.11,1-.4,1.52-.55,1.01-1.34,1.61-2.39,1.79-1.05,.18-2.22-.08-3.52-.78Z"/><path class="d" d="M331.06,351.88c-1.05-.57-1.82-1.28-2.3-2.15-.48-.86-.7-1.81-.65-2.84,.05-1.03,.35-2.06,.91-3.1,.58-1.05,1.28-1.88,2.12-2.48,.84-.6,1.75-.93,2.74-.99,.99-.06,2,.19,3.04,.74,1.12,.6,1.93,1.4,2.42,2.38,.5,.99,.61,2.03,.34,3.14l-2.28-.49c.11-.68,.03-1.3-.24-1.86-.28-.56-.7-1-1.28-1.31-.65-.35-1.27-.49-1.85-.4-.58,.08-1.12,.33-1.61,.76-.49,.42-.92,.98-1.3,1.65-.56,1.06-.78,2.05-.65,2.96,.13,.91,.66,1.62,1.6,2.12,.64,.34,1.24,.48,1.79,.39,.55-.08,1.08-.34,1.59-.78l1.76,1.56c-.88,.82-1.84,1.29-2.9,1.41-1.06,.12-2.14-.12-3.24-.71Z"/><path class="d" d="M340.37,356.89c-.76-.41-1.32-.89-1.68-1.45-.36-.56-.55-1.14-.56-1.75-.01-.61,.13-1.19,.43-1.75,.28-.52,.62-.93,1.01-1.22,.39-.29,.85-.48,1.36-.56,.51-.08,1.07-.07,1.69,.05,.53,.11,1.11,.27,1.74,.48,.63,.21,1.29,.44,1.97,.69,.68,.25,1.36,.51,2.04,.75h-.94c.45-.79,.6-1.48,.46-2.05-.14-.58-.64-1.1-1.49-1.56-.54-.29-1.1-.43-1.68-.42-.58,0-1.12,.25-1.61,.73l-1.55-1.57c.73-.74,1.59-1.18,2.58-1.32,.99-.14,2.08,.12,3.26,.75,.92,.49,1.63,1.08,2.15,1.76,.51,.68,.74,1.44,.69,2.29-.02,.42-.1,.83-.27,1.23-.16,.39-.36,.81-.59,1.24l-3.4,6.32-1.76-.95,1.26-2.35,.18,.49c-.85,.56-1.7,.85-2.56,.88s-1.77-.21-2.73-.73Zm1.23-1.44c.56,.3,1.1,.46,1.61,.48s.98-.06,1.39-.24c.41-.18,.75-.41,1.01-.71,.27-.25,.52-.55,.74-.93,.22-.37,.39-.67,.51-.9l.52,.59c-.68-.24-1.29-.46-1.85-.66-.55-.2-1.06-.38-1.51-.53-.45-.15-.87-.26-1.25-.33-.32-.05-.63-.07-.91-.05-.28,.02-.54,.09-.76,.21-.23,.12-.41,.32-.56,.59-.14,.27-.21,.55-.2,.84,.01,.3,.12,.58,.32,.86,.2,.28,.51,.53,.94,.76Z"/><path class="d" d="M352.37,363.35c-.96-.51-1.65-1.2-2.09-2.04-.44-.85-.62-1.78-.56-2.81,.07-1.02,.37-2.05,.93-3.07,.56-1.03,1.24-1.85,2.06-2.46,.82-.61,1.7-.96,2.66-1.06,.95-.09,1.91,.12,2.88,.64,.97,.52,1.66,1.2,2.07,2.02,.41,.83,.56,1.74,.46,2.74-.1,1-.43,2.01-.98,3.04-.55,1.03-1.22,1.86-2,2.49-.78,.63-1.63,1.01-2.56,1.13-.92,.12-1.87-.08-2.86-.61Zm1.24-1.65c.65,.35,1.27,.48,1.85,.39,.58-.09,1.11-.35,1.59-.8,.48-.44,.92-1.02,1.3-1.73s.62-1.39,.72-2.04c.1-.65,.03-1.23-.21-1.75s-.67-.95-1.29-1.28c-.66-.35-1.29-.48-1.88-.39-.6,.09-1.15,.36-1.65,.79-.5,.43-.93,.99-1.29,1.66-.36,.68-.59,1.35-.68,2-.09,.66-.01,1.26,.23,1.81,.24,.55,.68,.99,1.31,1.33Zm1.97,3.01l3.97-7.38-.23-.12,3.39-6.3,1.99,1.07-7.37,13.68-1.77-.95Z"/><path class="d" d="M364.4,369.83c-1.02-.55-1.79-1.25-2.32-2.11-.53-.86-.79-1.81-.79-2.84,0-1.03,.29-2.07,.86-3.13,.6-1.12,1.34-1.98,2.2-2.58,.86-.6,1.79-.92,2.79-.96s1.99,.2,2.99,.74c1.04,.56,1.8,1.28,2.28,2.16s.65,1.86,.54,2.95c-.12,1.09-.54,2.23-1.28,3.42l-1.99-1.07,.39-.72c.63-1.2,.88-2.2,.74-3.01-.13-.81-.65-1.45-1.55-1.94-.99-.54-1.91-.62-2.75-.27-.84,.36-1.58,1.13-2.21,2.31-.61,1.13-.83,2.13-.66,3.02,.17,.89,.72,1.58,1.67,2.09,.62,.33,1.23,.48,1.84,.44,.61-.04,1.18-.25,1.71-.64l1.62,1.67c-.89,.7-1.88,1.09-2.96,1.16-1.08,.07-2.12-.17-3.11-.7Zm-1.04-6.82l.83-1.55,7.32,3.94-.83,1.55-7.32-3.94Z"/></g><g><path class="d" d="M305.7,260.06c-2.58,0-4.75-.57-6.53-1.72-1.77-1.14-3.12-2.73-4.03-4.76-.91-2.03-1.37-4.36-1.37-7.01s.46-4.99,1.37-7.01c.91-2.03,2.25-3.61,4.03-4.76,1.78-1.15,3.95-1.72,6.53-1.72,3.01,0,5.47,.77,7.37,2.31,1.91,1.54,3.21,3.6,3.92,6.19l-2.7,.7c-.55-2.05-1.54-3.67-2.97-4.87-1.43-1.2-3.3-1.8-5.63-1.8-2.03,0-3.71,.46-5.05,1.38-1.34,.92-2.35,2.21-3.03,3.86-.68,1.65-1.03,3.55-1.05,5.71-.01,2.16,.32,4.06,1,5.7,.68,1.64,1.7,2.93,3.06,3.86,1.36,.93,3.05,1.39,5.08,1.39,2.33,0,4.2-.6,5.63-1.81,1.43-1.21,2.41-2.83,2.97-4.86l2.7,.7c-.71,2.59-2.01,4.65-3.92,6.19-1.91,1.54-4.36,2.31-7.37,2.31Z"/><path class="d" d="M326.51,260.06c-1.46,0-2.69-.26-3.68-.79s-1.73-1.23-2.22-2.1-.74-1.83-.74-2.86,.21-1.96,.64-2.71c.42-.75,1.01-1.36,1.74-1.84,.74-.48,1.59-.85,2.56-1.1,.98-.24,2.07-.45,3.26-.64,1.19-.19,2.36-.35,3.51-.49,1.14-.14,2.15-.27,3.01-.4l-.94,.58c.04-1.92-.34-3.34-1.12-4.26-.78-.92-2.13-1.38-4.06-1.38-1.33,0-2.45,.3-3.37,.9-.92,.6-1.56,1.55-1.93,2.84l-2.57-.76c.44-1.74,1.34-3.09,2.68-4.05,1.34-.96,3.09-1.44,5.23-1.44,1.77,0,3.28,.33,4.52,1,1.24,.67,2.12,1.63,2.63,2.89,.24,.56,.39,1.19,.47,1.89,.07,.7,.11,1.4,.11,2.12v12.06h-2.36v-4.87l.68,.29c-.66,1.67-1.68,2.94-3.07,3.81-1.39,.87-3.06,1.31-5,1.31Zm.3-2.28c1.23,0,2.31-.22,3.24-.67,.92-.44,1.67-1.05,2.23-1.83,.56-.77,.93-1.65,1.1-2.62,.14-.62,.22-1.31,.23-2.06,.01-.75,.02-1.31,.02-1.68l1.01,.52c-.9,.12-1.87,.24-2.92,.36s-2.08,.26-3.09,.41c-1.01,.16-1.93,.34-2.74,.56-.55,.16-1.09,.38-1.6,.66-.52,.28-.94,.66-1.27,1.12-.33,.47-.49,1.05-.49,1.74,0,.56,.14,1.11,.42,1.64,.28,.53,.74,.96,1.37,1.31s1.46,.52,2.51,.52Z"/><path class="d" d="M348.17,260.05c-2.28,0-4.15-.49-5.62-1.47-1.47-.98-2.37-2.35-2.71-4.1l2.7-.45c.29,1.1,.94,1.98,1.97,2.63,1.02,.65,2.29,.98,3.8,.98s2.64-.31,3.49-.93c.85-.62,1.28-1.46,1.28-2.53,0-.6-.13-1.09-.4-1.47s-.82-.73-1.64-1.05c-.83-.32-2.06-.71-3.7-1.15-1.76-.48-3.14-.96-4.14-1.44s-1.7-1.03-2.12-1.66c-.42-.63-.63-1.4-.63-2.31,0-1.1,.31-2.07,.93-2.9,.62-.83,1.49-1.48,2.59-1.94,1.1-.46,2.38-.69,3.85-.69s2.77,.24,3.93,.71c1.16,.47,2.09,1.14,2.79,1.99,.71,.85,1.13,1.84,1.26,2.97l-2.7,.49c-.18-1.14-.75-2.04-1.7-2.71-.95-.67-2.16-1.01-3.62-1.03-1.38-.04-2.5,.22-3.36,.78s-1.29,1.3-1.29,2.22c0,.52,.16,.96,.47,1.32,.31,.37,.88,.71,1.7,1.03,.82,.32,1.99,.68,3.51,1.06,1.79,.46,3.19,.93,4.21,1.44,1.02,.5,1.74,1.1,2.18,1.78,.43,.68,.65,1.53,.65,2.54,0,1.83-.68,3.28-2.04,4.32s-3.23,1.57-5.62,1.57Z"/><path class="d" d="M367.86,260.06c-1.95,0-3.61-.44-4.96-1.31-1.36-.88-2.38-2.08-3.08-3.62-.7-1.54-1.06-3.31-1.09-5.31,.02-2.04,.4-3.83,1.12-5.37,.72-1.54,1.76-2.74,3.11-3.6,1.35-.86,3-1.29,4.93-1.29s3.68,.48,5.13,1.44c1.46,.96,2.45,2.27,2.99,3.94l-2.59,.83c-.46-1.16-1.18-2.06-2.17-2.71-.99-.64-2.12-.96-3.39-.96-1.43,0-2.61,.33-3.54,.98-.93,.65-1.63,1.56-2.09,2.72-.46,1.16-.69,2.5-.7,4.01,.03,2.33,.56,4.19,1.62,5.6s2.62,2.11,4.71,2.11c1.32,0,2.44-.3,3.37-.91s1.63-1.49,2.11-2.65l2.66,.79c-.72,1.73-1.77,3.04-3.16,3.95-1.39,.91-3.05,1.36-4.98,1.36Z"/><path class="d" d="M385.27,260.06c-1.46,0-2.69-.26-3.68-.79-.99-.53-1.73-1.23-2.22-2.1-.49-.88-.74-1.83-.74-2.86s.21-1.96,.64-2.71,1.01-1.36,1.74-1.84c.74-.48,1.59-.85,2.56-1.1,.98-.24,2.07-.45,3.26-.64,1.19-.19,2.36-.35,3.51-.49,1.14-.14,2.15-.27,3.01-.4l-.94,.58c.04-1.92-.34-3.34-1.11-4.26-.78-.92-2.13-1.38-4.06-1.38-1.33,0-2.46,.3-3.37,.9-.92,.6-1.56,1.55-1.93,2.84l-2.57-.76c.44-1.74,1.34-3.09,2.68-4.05,1.34-.96,3.09-1.44,5.23-1.44,1.78,0,3.28,.33,4.52,1,1.24,.67,2.12,1.63,2.63,2.89,.24,.56,.4,1.19,.47,1.89,.07,.7,.11,1.4,.11,2.12v12.06h-2.36v-4.87l.68,.29c-.66,1.67-1.68,2.94-3.07,3.81-1.39,.87-3.06,1.31-5,1.31Zm.31-2.28c1.23,0,2.31-.22,3.24-.67,.92-.44,1.67-1.05,2.23-1.83,.56-.77,.93-1.65,1.1-2.62,.14-.62,.22-1.31,.23-2.06,.01-.75,.02-1.31,.02-1.68l1.01,.52c-.9,.12-1.87,.24-2.92,.36s-2.08,.26-3.09,.41-1.93,.34-2.74,.56c-.55,.16-1.08,.38-1.6,.66-.52,.28-.94,.66-1.27,1.12-.33,.47-.49,1.05-.49,1.74,0,.56,.14,1.11,.42,1.64s.74,.96,1.37,1.31c.63,.35,1.46,.52,2.51,.52Z"/><path class="d" d="M407.22,260.06c-1.81,0-3.36-.45-4.64-1.36-1.28-.9-2.27-2.13-2.95-3.68s-1.03-3.29-1.03-5.23,.34-3.67,1.02-5.21c.68-1.55,1.65-2.77,2.92-3.67,1.27-.9,2.79-1.35,4.57-1.35s3.36,.44,4.6,1.33c1.25,.89,2.19,2.1,2.83,3.64,.64,1.54,.96,3.29,.96,5.26s-.32,3.67-.95,5.22c-.63,1.55-1.57,2.78-2.8,3.69-1.23,.91-2.75,1.36-4.53,1.36Zm.27-2.46c1.38,0,2.52-.34,3.42-1.01,.9-.67,1.57-1.6,2.01-2.78,.44-1.18,.67-2.52,.67-4.02s-.22-2.87-.67-4.04c-.44-1.17-1.11-2.08-2-2.74s-2.02-.99-3.37-.99-2.54,.34-3.45,1.02c-.91,.68-1.59,1.61-2.02,2.79-.44,1.18-.66,2.49-.66,3.96s.22,2.8,.68,3.98c.45,1.18,1.12,2.11,2.02,2.8,.9,.68,2.03,1.02,3.38,1.02Zm6.1,1.92v-14.62h-.29v-11.27h2.66v25.89h-2.37Z"/><path class="d" d="M421.35,236.42v-2.97h2.64v2.97h-2.64Zm0,23.11v-19.42h2.64v19.42h-2.64Z"/><path class="d" d="M429.37,259.53v-19.42h2.39v4.78h.27v14.64h-2.66Zm14.04,0v-9.91c0-1.08-.1-2.07-.31-2.98-.2-.9-.53-1.7-.98-2.37-.45-.68-1.03-1.2-1.74-1.57-.71-.37-1.58-.56-2.6-.56-.93,0-1.76,.16-2.47,.49-.71,.32-1.31,.79-1.8,1.39-.49,.61-.85,1.34-1.11,2.2-.25,.86-.38,1.85-.38,2.95l-1.87-.41c0-1.99,.35-3.66,1.04-5.02s1.65-2.38,2.88-3.07,2.62-1.04,4.21-1.04c1.16,0,2.18,.18,3.05,.54,.87,.36,1.61,.85,2.21,1.46s1.09,1.31,1.46,2.09,.64,1.62,.81,2.5c.17,.88,.25,1.76,.25,2.63v10.68h-2.66Z"/><path class="d" d="M458.29,260.06c-1.81,0-3.36-.45-4.64-1.36-1.28-.9-2.27-2.13-2.95-3.68-.68-1.55-1.02-3.29-1.02-5.23s.34-3.67,1.02-5.21,1.65-2.77,2.92-3.67c1.27-.9,2.79-1.35,4.57-1.35s3.36,.44,4.6,1.33,2.19,2.1,2.83,3.64,.96,3.29,.96,5.26-.32,3.67-.95,5.22c-.64,1.55-1.57,2.78-2.81,3.69-1.23,.91-2.74,1.36-4.53,1.36Zm.18,8.63c-1,0-1.98-.15-2.94-.44s-1.85-.75-2.67-1.38c-.81-.63-1.5-1.45-2.05-2.45l2.39-1.33c.54,1.08,1.3,1.85,2.28,2.33,.98,.47,1.97,.71,2.99,.71,1.4,0,2.54-.26,3.41-.78s1.5-1.29,1.9-2.31c.4-1.02,.59-2.29,.58-3.81v-5.18h.3v-13.94h2.36v19.15c0,.55-.01,1.08-.04,1.59-.03,.51-.09,1.01-.17,1.5-.23,1.45-.7,2.64-1.41,3.58-.71,.93-1.65,1.63-2.8,2.09s-2.53,.68-4.11,.68Zm.09-11.09c1.38,0,2.52-.34,3.42-1.01,.9-.67,1.57-1.6,2.01-2.78,.44-1.18,.66-2.52,.66-4.02s-.22-2.87-.66-4.04c-.44-1.17-1.11-2.08-2.01-2.74s-2.02-.99-3.37-.99-2.54,.34-3.45,1.02c-.91,.68-1.59,1.61-2.02,2.79-.44,1.18-.66,2.49-.66,3.96s.22,2.8,.67,3.98,1.12,2.11,2.02,2.8c.9,.68,2.03,1.02,3.38,1.02Z"/><path class="d" d="M489.72,260.06c-2.58,0-4.75-.57-6.53-1.72-1.77-1.14-3.12-2.73-4.03-4.76-.91-2.03-1.37-4.36-1.37-7.01s.46-4.99,1.37-7.01c.91-2.03,2.25-3.61,4.03-4.76,1.77-1.15,3.95-1.72,6.53-1.72,3.01,0,5.46,.77,7.37,2.31,1.91,1.54,3.21,3.6,3.92,6.19l-2.7,.7c-.55-2.05-1.54-3.67-2.97-4.87-1.43-1.2-3.3-1.8-5.63-1.8-2.03,0-3.71,.46-5.05,1.38-1.34,.92-2.35,2.21-3.03,3.86-.68,1.65-1.03,3.55-1.05,5.71-.01,2.16,.32,4.06,1,5.7s1.7,2.93,3.06,3.86c1.36,.93,3.05,1.39,5.08,1.39,2.32,0,4.2-.6,5.63-1.81,1.43-1.21,2.42-2.83,2.97-4.86l2.7,.7c-.71,2.59-2.01,4.65-3.92,6.19-1.91,1.54-4.36,2.31-7.37,2.31Z"/><path class="d" d="M504.95,259.53v-25.89h2.39v14.62h.27v11.27h-2.66Zm14.04,0v-9.91c0-1.08-.1-2.07-.3-2.98-.21-.9-.53-1.7-.98-2.37-.45-.68-1.03-1.2-1.74-1.57-.71-.37-1.58-.56-2.6-.56-.94,0-1.76,.16-2.47,.49s-1.31,.79-1.8,1.39c-.48,.61-.85,1.34-1.11,2.2-.25,.86-.38,1.85-.38,2.95l-1.87-.41c0-1.99,.35-3.66,1.04-5.02s1.65-2.38,2.88-3.07,2.63-1.04,4.21-1.04c1.16,0,2.18,.18,3.05,.54,.87,.36,1.61,.85,2.21,1.46s1.09,1.31,1.47,2.09c.37,.79,.64,1.62,.81,2.5,.17,.88,.25,1.76,.25,2.63v10.68h-2.66Z"/><path class="d" d="M531.88,260.06c-1.46,0-2.69-.26-3.68-.79-.99-.53-1.73-1.23-2.22-2.1-.49-.88-.74-1.83-.74-2.86s.21-1.96,.64-2.71,1.01-1.36,1.74-1.84c.74-.48,1.59-.85,2.56-1.1,.98-.24,2.07-.45,3.26-.64,1.19-.19,2.36-.35,3.51-.49,1.14-.14,2.15-.27,3.01-.4l-.94,.58c.04-1.92-.34-3.34-1.11-4.26-.78-.92-2.13-1.38-4.06-1.38-1.33,0-2.46,.3-3.37,.9-.92,.6-1.56,1.55-1.93,2.84l-2.57-.76c.44-1.74,1.34-3.09,2.68-4.05,1.34-.96,3.09-1.44,5.23-1.44,1.78,0,3.28,.33,4.52,1,1.24,.67,2.12,1.63,2.63,2.89,.24,.56,.4,1.19,.47,1.89,.07,.7,.11,1.4,.11,2.12v12.06h-2.36v-4.87l.68,.29c-.66,1.67-1.68,2.94-3.07,3.81-1.39,.87-3.06,1.31-5,1.31Zm.31-2.28c1.23,0,2.31-.22,3.24-.67,.92-.44,1.67-1.05,2.23-1.83,.56-.77,.93-1.65,1.1-2.62,.14-.62,.22-1.31,.23-2.06,.01-.75,.02-1.31,.02-1.68l1.01,.52c-.9,.12-1.87,.24-2.92,.36s-2.08,.26-3.09,.41-1.93,.34-2.74,.56c-.55,.16-1.08,.38-1.6,.66-.52,.28-.94,.66-1.27,1.12-.33,.47-.49,1.05-.49,1.74,0,.56,.14,1.11,.42,1.64s.74,.96,1.37,1.31c.63,.35,1.46,.52,2.51,.52Z"/><path class="d" d="M546.66,236.42v-2.97h2.64v2.97h-2.64Zm0,23.11v-19.42h2.64v19.42h-2.64Z"/><path class="d" d="M554.68,259.53v-19.42h2.39v4.78h.27v14.64h-2.66Zm14.04,0v-9.91c0-1.08-.1-2.07-.3-2.98-.21-.9-.53-1.7-.98-2.37-.45-.68-1.03-1.2-1.74-1.57-.71-.37-1.58-.56-2.6-.56-.94,0-1.76,.16-2.47,.49s-1.31,.79-1.8,1.39c-.48,.61-.85,1.34-1.11,2.2-.25,.86-.38,1.85-.38,2.95l-1.87-.41c0-1.99,.35-3.66,1.04-5.02s1.65-2.38,2.88-3.07,2.63-1.04,4.21-1.04c1.16,0,2.18,.18,3.05,.54,.87,.36,1.61,.85,2.21,1.46s1.09,1.31,1.47,2.09c.37,.79,.64,1.62,.81,2.5,.17,.88,.25,1.76,.25,2.63v10.68h-2.66Z"/><path class="d" d="M589.98,254.8v-7.08h-7.08v-2.27h7.08v-7.08h2.27v7.08h7.07v2.27h-7.07v7.08h-2.27Z"/><path class="d" d="M618.06,259.53v-23.36h-9.04v-2.54h20.73v2.54h-9.04v23.36h-2.64Z"/><path class="d" d="M630.47,259.53l7.59-9.82-7.43-9.6h3.17l5.81,7.57,5.75-7.57h3.16l-7.43,9.6,7.61,9.82h-3.18l-5.92-7.79-5.95,7.79h-3.18Z"/><path class="d" d="M651.58,259.53v-25.89h10c.25,0,.54,0,.85,.03s.64,.06,.96,.12c1.35,.2,2.5,.67,3.44,1.41,.94,.74,1.65,1.66,2.14,2.78s.73,2.35,.73,3.7-.25,2.57-.74,3.69c-.49,1.11-1.21,2.04-2.15,2.78-.94,.74-2.08,1.21-3.42,1.41-.32,.05-.64,.08-.96,.11-.32,.02-.6,.04-.85,.04h-7.36v9.84h-2.64Zm2.64-12.35h7.28c.21,0,.47-.01,.76-.04,.29-.02,.57-.07,.84-.13,.89-.19,1.62-.56,2.19-1.1,.57-.54,.99-1.18,1.28-1.92,.28-.74,.42-1.52,.42-2.32s-.14-1.58-.42-2.33c-.28-.75-.71-1.39-1.28-1.93-.57-.54-1.3-.91-2.19-1.1-.28-.06-.56-.1-.84-.12-.29-.02-.54-.03-.76-.03h-7.28v11Z"/><path class="d" d="M681.41,260.06c-1.93,0-3.58-.44-4.95-1.31-1.37-.88-2.41-2.09-3.15-3.63-.73-1.55-1.1-3.32-1.1-5.32s.37-3.82,1.12-5.36c.74-1.53,1.8-2.73,3.17-3.59,1.37-.86,3.01-1.29,4.9-1.29s3.6,.43,4.97,1.3c1.37,.87,2.42,2.07,3.15,3.61,.72,1.54,1.09,3.31,1.09,5.31s-.37,3.83-1.1,5.37c-.73,1.54-1.79,2.74-3.16,3.6-1.38,.86-3.03,1.29-4.95,1.29Zm0-2.54c2.16,0,3.76-.72,4.82-2.15,1.05-1.43,1.58-3.29,1.58-5.58s-.53-4.22-1.59-5.61-2.66-2.09-4.81-2.09c-1.45,0-2.65,.33-3.59,.98-.94,.65-1.64,1.56-2.1,2.71-.46,1.16-.69,2.49-.69,4,0,2.34,.54,4.21,1.62,5.62,1.08,1.41,2.67,2.11,4.77,2.11Z"/><path class="d" d="M700.13,259.53l-7.48-25.89h2.75l6.06,21.38,6.02-21.36,2.77-.02,6.06,21.38,6.02-21.38h2.77l-7.46,25.89h-2.66l-6.11-21.24-6.08,21.24h-2.66Z"/><path class="d" d="M733.25,242.37v-2.27h12.73v2.27h-12.73Zm12.73,17.15c-1.09,.23-2.17,.32-3.23,.27s-2.01-.28-2.84-.68c-.83-.41-1.47-1.04-1.9-1.91-.35-.72-.54-1.45-.57-2.19-.03-.74-.05-1.58-.05-2.53v-17.78h2.63v17.68c0,.81,0,1.5,.03,2.04,.02,.55,.14,1.03,.37,1.45,.43,.8,1.12,1.28,2.06,1.44s2.11,.12,3.5-.11v2.32Z"/><path class="d" d="M749.81,259.53v-19.42h2.37v4.68l-.47-.61c.22-.58,.5-1.11,.85-1.59s.72-.88,1.13-1.2c.5-.44,1.09-.78,1.76-1.02,.67-.23,1.35-.37,2.03-.41,.68-.04,1.31,0,1.87,.15v2.48c-.71-.18-1.48-.22-2.32-.13-.84,.1-1.61,.43-2.32,1.01-.65,.5-1.13,1.11-1.46,1.81-.32,.7-.54,1.44-.65,2.23s-.16,1.56-.16,2.33v9.69h-2.64Z"/><path class="d" d="M770.99,260.06c-1.89,0-3.53-.42-4.92-1.26-1.38-.84-2.46-2.02-3.23-3.54s-1.15-3.31-1.15-5.36,.38-3.96,1.13-5.5c.75-1.55,1.82-2.74,3.19-3.58,1.37-.84,2.99-1.26,4.86-1.26s3.55,.44,4.91,1.32c1.36,.88,2.38,2.14,3.08,3.79,.69,1.64,1.01,3.6,.95,5.88h-2.7v-.94c-.05-2.52-.59-4.42-1.63-5.7-1.04-1.28-2.55-1.92-4.54-1.92s-3.68,.68-4.79,2.03c-1.11,1.35-1.66,3.28-1.66,5.79s.55,4.34,1.66,5.69c1.11,1.35,2.68,2.02,4.72,2.02,1.39,0,2.6-.32,3.64-.96,1.04-.64,1.86-1.57,2.46-2.78l2.46,.95c-.77,1.69-1.9,3-3.39,3.93s-3.18,1.39-5.06,1.39Zm-7.43-9.51v-2.21h14.83v2.21h-14.83Z"/><path class="d" d="M792.01,260.06c-1.89,0-3.53-.42-4.92-1.26-1.38-.84-2.46-2.02-3.23-3.54s-1.15-3.31-1.15-5.36,.38-3.96,1.13-5.5c.75-1.55,1.82-2.74,3.19-3.58,1.37-.84,2.99-1.26,4.86-1.26s3.55,.44,4.91,1.32c1.36,.88,2.38,2.14,3.08,3.79,.69,1.64,1.01,3.6,.95,5.88h-2.7v-.94c-.05-2.52-.59-4.42-1.63-5.7-1.04-1.28-2.55-1.92-4.54-1.92s-3.68,.68-4.79,2.03c-1.11,1.35-1.66,3.28-1.66,5.79s.55,4.34,1.66,5.69c1.11,1.35,2.68,2.02,4.72,2.02,1.39,0,2.6-.32,3.64-.96,1.04-.64,1.86-1.57,2.46-2.78l2.46,.95c-.77,1.69-1.9,3-3.39,3.93s-3.18,1.39-5.06,1.39Zm-7.43-9.51v-2.21h14.83v2.21h-14.83Z"/><path class="d" d="M821.3,265.98c-1.41-1.62-2.63-3.43-3.64-5.42-1.01-2-1.79-4.09-2.34-6.28-.54-2.19-.81-4.4-.8-6.62-.01-2.22,.26-4.43,.8-6.63s1.32-4.29,2.34-6.28,2.23-3.79,3.64-5.41l1.94,1.51c-1.39,1.67-2.55,3.41-3.49,5.24-.93,1.83-1.63,3.71-2.09,5.65-.46,1.94-.7,3.91-.71,5.92,.01,1.98,.26,3.95,.73,5.91,.47,1.96,1.18,3.86,2.1,5.7,.93,1.84,2.08,3.56,3.46,5.17l-1.94,1.55Z"/><path class="d" d="M827.32,259.53v-25.89h10c1.45,0,2.71,.3,3.79,.9,1.08,.6,1.92,1.41,2.52,2.42s.9,2.13,.9,3.35c0,1.39-.37,2.63-1.11,3.71-.74,1.08-1.74,1.84-2.99,2.26l-.04-.88c1.68,.48,3,1.32,3.96,2.52,.96,1.2,1.44,2.65,1.44,4.35,0,1.5-.32,2.79-.95,3.88s-1.53,1.92-2.68,2.51-2.49,.88-4.01,.88h-10.82Zm2.66-14.85h7.32c.83,0,1.58-.19,2.27-.57,.68-.38,1.22-.9,1.63-1.56,.4-.66,.6-1.42,.6-2.28,0-1.22-.42-2.22-1.27-2.98s-1.92-1.15-3.23-1.15h-7.32v8.54Zm0,12.32h7.52c1.05,0,2-.19,2.84-.57,.84-.38,1.5-.91,1.99-1.61,.48-.7,.73-1.53,.73-2.52s-.22-1.82-.66-2.59-1.05-1.38-1.81-1.84c-.76-.46-1.63-.69-2.6-.69h-8v9.82Z"/><path class="d" d="M849.72,259.53v-26.43h2.64v26.43h-2.64Z"/><path class="d" d="M865.87,260.06c-1.93,0-3.58-.44-4.95-1.31-1.37-.88-2.42-2.09-3.15-3.63-.73-1.55-1.1-3.32-1.1-5.32s.37-3.82,1.12-5.36c.74-1.53,1.8-2.73,3.17-3.59s3.01-1.29,4.9-1.29,3.6,.43,4.97,1.3c1.37,.87,2.42,2.07,3.15,3.61,.72,1.54,1.09,3.31,1.09,5.31s-.37,3.83-1.1,5.37c-.73,1.54-1.79,2.74-3.17,3.6-1.38,.86-3.03,1.29-4.94,1.29Zm0-2.54c2.16,0,3.76-.72,4.82-2.15,1.05-1.43,1.58-3.29,1.58-5.58s-.53-4.22-1.59-5.61-2.66-2.09-4.81-2.09c-1.45,0-2.65,.33-3.59,.98s-1.64,1.56-2.1,2.71c-.46,1.16-.69,2.49-.69,4,0,2.34,.54,4.21,1.62,5.62s2.67,2.11,4.77,2.11Z"/><path class="d" d="M887.09,260.06c-1.95,0-3.61-.44-4.96-1.31-1.36-.88-2.38-2.08-3.08-3.62-.7-1.54-1.06-3.31-1.09-5.31,.02-2.04,.39-3.83,1.12-5.37,.72-1.54,1.76-2.74,3.11-3.6,1.36-.86,3-1.29,4.93-1.29s3.68,.48,5.13,1.44,2.46,2.27,2.99,3.94l-2.59,.83c-.46-1.16-1.18-2.06-2.17-2.71-.99-.64-2.12-.96-3.39-.96-1.43,0-2.61,.33-3.54,.98s-1.63,1.56-2.09,2.72-.69,2.5-.7,4.01c.02,2.33,.56,4.19,1.62,5.6s2.63,2.11,4.71,2.11c1.32,0,2.44-.3,3.37-.91,.93-.61,1.63-1.49,2.11-2.65l2.66,.79c-.72,1.73-1.78,3.04-3.16,3.95-1.39,.91-3.05,1.36-4.98,1.36Z"/><path class="d" d="M898.92,259.53l.02-25.89h2.66v15.82l8.67-9.35h3.52l-9.1,9.71,10.29,9.71h-3.85l-9.53-9.35v9.35h-2.68Z"/><path class="d" d="M924.83,260.06c-1.95,0-3.61-.44-4.96-1.31-1.36-.88-2.38-2.08-3.08-3.62-.7-1.54-1.06-3.31-1.09-5.31,.02-2.04,.4-3.83,1.12-5.37,.72-1.54,1.76-2.74,3.11-3.6,1.35-.86,3-1.29,4.93-1.29s3.68,.48,5.13,1.44c1.46,.96,2.45,2.27,2.99,3.94l-2.59,.83c-.46-1.16-1.18-2.06-2.17-2.71-.99-.64-2.12-.96-3.39-.96-1.43,0-2.61,.33-3.54,.98-.93,.65-1.63,1.56-2.09,2.72-.46,1.16-.69,2.5-.7,4.01,.03,2.33,.56,4.19,1.62,5.6s2.62,2.11,4.71,2.11c1.32,0,2.44-.3,3.37-.91s1.63-1.49,2.11-2.65l2.66,.79c-.72,1.73-1.77,3.04-3.16,3.95-1.39,.91-3.05,1.36-4.98,1.36Z"/><path class="d" d="M936.66,259.53v-25.89h2.39v14.62h.27v11.27h-2.66Zm14.04,0v-9.91c0-1.08-.1-2.07-.3-2.98-.21-.9-.53-1.7-.98-2.37-.45-.68-1.03-1.2-1.74-1.57-.71-.37-1.58-.56-2.6-.56-.94,0-1.76,.16-2.47,.49s-1.31,.79-1.8,1.39c-.48,.61-.85,1.34-1.11,2.2-.25,.86-.38,1.85-.38,2.95l-1.87-.41c0-1.99,.35-3.66,1.04-5.02s1.65-2.38,2.88-3.07,2.63-1.04,4.21-1.04c1.16,0,2.18,.18,3.05,.54,.87,.36,1.61,.85,2.21,1.46s1.09,1.31,1.47,2.09c.37,.79,.64,1.62,.81,2.5,.17,.88,.25,1.76,.25,2.63v10.68h-2.66Z"/><path class="d" d="M963.59,260.06c-1.46,0-2.69-.26-3.68-.79-.99-.53-1.73-1.23-2.22-2.1-.49-.88-.74-1.83-.74-2.86s.21-1.96,.64-2.71,1.01-1.36,1.74-1.84c.74-.48,1.59-.85,2.56-1.1,.98-.24,2.07-.45,3.26-.64,1.19-.19,2.36-.35,3.51-.49,1.14-.14,2.15-.27,3.01-.4l-.94,.58c.04-1.92-.34-3.34-1.11-4.26-.78-.92-2.13-1.38-4.06-1.38-1.33,0-2.46,.3-3.37,.9-.92,.6-1.56,1.55-1.93,2.84l-2.57-.76c.44-1.74,1.34-3.09,2.68-4.05,1.34-.96,3.09-1.44,5.23-1.44,1.78,0,3.28,.33,4.52,1,1.24,.67,2.12,1.63,2.63,2.89,.24,.56,.4,1.19,.47,1.89,.07,.7,.11,1.4,.11,2.12v12.06h-2.36v-4.87l.68,.29c-.66,1.67-1.68,2.94-3.07,3.81-1.39,.87-3.06,1.31-5,1.31Zm.31-2.28c1.23,0,2.31-.22,3.24-.67,.92-.44,1.67-1.05,2.23-1.83,.56-.77,.93-1.65,1.1-2.62,.14-.62,.22-1.31,.23-2.06,.01-.75,.02-1.31,.02-1.68l1.01,.52c-.9,.12-1.87,.24-2.92,.36s-2.08,.26-3.09,.41-1.93,.34-2.74,.56c-.55,.16-1.08,.38-1.6,.66-.52,.28-.94,.66-1.27,1.12-.33,.47-.49,1.05-.49,1.74,0,.56,.14,1.11,.42,1.64s.74,.96,1.37,1.31c.63,.35,1.46,.52,2.51,.52Z"/><path class="d" d="M978.38,236.42v-2.97h2.64v2.97h-2.64Zm0,23.11v-19.42h2.64v19.42h-2.64Z"/><path class="d" d="M986.39,259.53v-19.42h2.39v4.78h.27v14.64h-2.66Zm14.04,0v-9.91c0-1.08-.1-2.07-.3-2.98-.21-.9-.53-1.7-.98-2.37-.45-.68-1.03-1.2-1.74-1.57-.71-.37-1.58-.56-2.6-.56-.94,0-1.76,.16-2.47,.49s-1.31,.79-1.8,1.39c-.48,.61-.85,1.34-1.11,2.2-.25,.86-.38,1.85-.38,2.95l-1.87-.41c0-1.99,.35-3.66,1.04-5.02s1.65-2.38,2.88-3.07,2.63-1.04,4.21-1.04c1.16,0,2.18,.18,3.05,.54,.87,.36,1.61,.85,2.21,1.46s1.09,1.31,1.47,2.09c.37,.79,.64,1.62,.81,2.5,.17,.88,.25,1.76,.25,2.63v10.68h-2.66Z"/><path class="d" d="M1006.82,264.43c1.38-1.61,2.53-3.33,3.46-5.17,.93-1.84,1.63-3.74,2.1-5.7,.47-1.96,.72-3.93,.73-5.91-.01-2-.25-3.97-.71-5.92-.46-1.94-1.16-3.83-2.09-5.65-.94-1.83-2.1-3.58-3.49-5.24l1.94-1.51c1.41,1.62,2.63,3.42,3.64,5.41s1.79,4.08,2.34,6.28,.81,4.41,.8,6.63c.01,2.22-.26,4.42-.8,6.62-.54,2.19-1.32,4.29-2.34,6.28-1.01,2-2.23,3.8-3.64,5.42l-1.94-1.55Z"/></g><g><line class="i" x1="734.39" y1="847" x2="911.33" y2="847"/><polygon class="d" points="735.85 851.99 727.22 847 735.85 842.01 735.85 851.99"/><polygon class="d" points="909.87 851.99 918.51 847 909.87 842.01 909.87 851.99"/></g><g><path class="d" d="M798.68,872.28v-15.54h6.11c.99,0,1.81,.2,2.48,.6,.67,.4,1.17,.92,1.51,1.56s.51,1.31,.51,2.01c0,.86-.21,1.59-.63,2.2s-.99,1.03-1.7,1.25l-.02-.53c.99,.24,1.75,.72,2.29,1.43,.53,.71,.8,1.53,.8,2.48s-.18,1.71-.54,2.38c-.36,.68-.89,1.2-1.59,1.58-.69,.38-1.53,.57-2.52,.57h-6.69Zm2.29-9.19h3.79c.42,0,.79-.08,1.13-.25,.33-.17,.6-.41,.8-.73,.2-.32,.3-.71,.3-1.16,0-.6-.2-1.1-.6-1.49-.4-.39-.94-.58-1.62-.58h-3.79v4.22Zm0,7.04h4.06c.51,0,.97-.1,1.38-.29s.73-.47,.96-.84,.35-.8,.35-1.3c0-.47-.1-.89-.31-1.27-.2-.38-.5-.68-.88-.9-.39-.22-.84-.33-1.35-.33h-4.2v4.92Z"/><path class="d" d="M812.16,872.28v-11.65h2.01v2.83l-.28-.37c.14-.37,.33-.72,.56-1.03,.23-.31,.5-.57,.8-.77,.29-.22,.62-.38,.99-.5s.74-.19,1.12-.22c.38-.03,.75,0,1.1,.06v2.11c-.38-.1-.8-.13-1.27-.09s-.89,.19-1.28,.44c-.37,.24-.66,.52-.87,.86-.21,.34-.37,.71-.46,1.13s-.14,.85-.14,1.31v5.88h-2.28Z"/><path class="d" d="M823.79,872.61c-.86,0-1.59-.16-2.17-.48-.58-.32-1.02-.74-1.32-1.27-.3-.53-.45-1.11-.45-1.74,0-.59,.1-1.11,.31-1.55,.21-.45,.52-.83,.93-1.14,.41-.31,.91-.57,1.51-.76,.52-.15,1.1-.28,1.76-.4,.65-.12,1.34-.22,2.07-.32s1.44-.2,2.15-.3l-.82,.45c.01-.91-.18-1.59-.58-2.03-.4-.44-1.08-.66-2.05-.66-.61,0-1.17,.14-1.68,.43-.51,.28-.87,.75-1.07,1.41l-2.1-.65c.29-1,.84-1.79,1.64-2.38,.81-.59,1.89-.88,3.23-.88,1.04,0,1.95,.18,2.72,.53,.77,.36,1.34,.92,1.7,1.69,.19,.38,.3,.78,.35,1.21,.04,.42,.06,.88,.06,1.37v7.17h-2v-2.67l.39,.35c-.48,.89-1.09,1.56-1.84,1.99-.75,.44-1.66,.65-2.75,.65Zm.4-1.84c.64,0,1.19-.11,1.65-.34s.83-.52,1.11-.87,.46-.72,.55-1.1c.12-.34,.19-.73,.21-1.17,.02-.43,.03-.78,.03-1.04l.73,.27c-.71,.11-1.36,.21-1.94,.29-.58,.09-1.11,.17-1.58,.25-.47,.08-.89,.18-1.26,.3-.31,.11-.58,.24-.83,.39-.24,.15-.43,.33-.57,.55-.14,.21-.21,.48-.21,.79s.08,.58,.23,.84c.15,.26,.38,.46,.69,.61,.31,.15,.7,.23,1.19,.23Z"/><path class="d" d="M832.78,872.28v-11.65h2.02v3.37h.27v8.29h-2.29Zm8.19,0v-5.73c0-.45-.04-.92-.11-1.4-.08-.48-.22-.92-.43-1.33-.21-.41-.51-.74-.9-.99-.38-.25-.89-.38-1.5-.38-.4,0-.78,.07-1.14,.2-.36,.13-.67,.35-.94,.64s-.48,.68-.64,1.17c-.15,.48-.23,1.07-.23,1.76l-1.4-.53c0-1.06,.2-1.99,.59-2.8,.4-.81,.96-1.44,1.71-1.89,.74-.45,1.64-.68,2.69-.68,.81,0,1.48,.13,2.03,.39s.99,.6,1.33,1.02c.34,.42,.6,.88,.78,1.38,.18,.5,.3,.98,.37,1.46s.1,.89,.1,1.25v6.47h-2.29Z"/><path class="d" d="M851.04,872.61c-1.19,0-2.21-.27-3.04-.8s-1.47-1.26-1.92-2.19-.67-1.98-.67-3.16c0-1.2,.24-2.26,.69-3.19s1.1-1.65,1.94-2.17c.84-.53,1.85-.79,3.03-.79,1.27,0,2.36,.32,3.26,.95,.9,.63,1.5,1.5,1.79,2.6l-2.24,.65c-.22-.65-.59-1.16-1.09-1.53-.51-.36-1.09-.54-1.74-.54-.74,0-1.35,.17-1.82,.52-.48,.35-.83,.83-1.06,1.43-.23,.6-.35,1.29-.36,2.07,0,1.2,.28,2.17,.83,2.91,.54,.74,1.35,1.11,2.41,1.11,.73,0,1.31-.17,1.76-.5,.45-.33,.79-.81,1.03-1.44l2.29,.54c-.38,1.14-1.01,2.01-1.89,2.62-.88,.61-1.94,.91-3.19,.91Z"/><path class="d" d="M858.31,872.28v-15.54h2.02v8.38h.27v7.15h-2.29Zm8.19,0v-5.73c0-.45-.04-.92-.11-1.4-.08-.48-.22-.92-.43-1.33-.21-.41-.51-.74-.9-.99-.38-.25-.89-.38-1.5-.38-.4,0-.78,.07-1.14,.2-.36,.13-.67,.35-.94,.64s-.48,.68-.64,1.17c-.15,.48-.23,1.07-.23,1.76l-1.4-.53c0-1.06,.2-1.99,.59-2.8,.4-.81,.96-1.44,1.71-1.89,.74-.45,1.64-.68,2.69-.68,.81,0,1.48,.13,2.03,.39s.99,.6,1.33,1.02c.34,.42,.6,.88,.78,1.38,.18,.5,.3,.98,.37,1.46s.1,.89,.1,1.25v6.47h-2.29Z"/></g><line class="i" x1="770.02" y1="614.26" x2="770.02" y2="743.38"/><line class="i" x1="902.57" y1="672.45" x2="934.45" y2="672.45"/><polygon class="b" points="822.86 632.59 886.63 632.59 902.57 648.53 838.8 648.53 822.86 632.59"/><g><polygon class="f" points="822.86 632.59 886.63 632.59 902.57 648.53 902.57 712.3 838.8 712.3 822.86 696.36 822.86 632.59"/><polygon class="i" points="822.86 632.59 886.63 632.59 902.57 648.53 902.57 712.3 838.8 712.3 822.86 696.36 822.86 632.59"/><polygon class="c" points="822.86 632.59 838.8 648.53 838.8 712.3 822.86 696.36 822.86 632.59"/><path class="i" d="M838.8,648.53h63.76m-63.76,63.76v-63.76l-15.94-15.94"/></g><g><polygon class="f" points="822.86 436.52 886.63 436.52 902.57 452.46 902.57 516.22 838.8 516.22 822.86 500.28 822.86 436.52"/><polygon class="i" points="822.86 436.52 886.63 436.52 902.57 452.46 902.57 516.22 838.8 516.22 822.86 500.28 822.86 436.52"/><polygon class="c" points="822.86 436.52 838.8 452.46 838.8 516.22 822.86 500.28 822.86 436.52"/><path class="i" d="M838.8,452.46h63.76m-63.76,63.76v-63.76l-15.94-15.94"/></g><polygon class="f" points="918.51 632.59 982.27 632.59 998.21 648.53 998.21 712.3 934.45 712.3 918.51 696.36 918.51 632.59"/><polygon class="i" points="918.51 632.59 982.27 632.59 998.21 648.53 998.21 712.3 934.45 712.3 918.51 696.36 918.51 632.59"/><polygon class="b" points="918.51 632.59 982.27 632.59 998.21 648.53 934.45 648.53 918.51 632.59"/><polygon class="c" points="918.51 632.59 934.45 648.53 934.45 712.3 918.51 696.36 918.51 632.59"/><path class="i" d="M934.45,648.53h63.76m-63.76,63.76v-63.76l-15.94-15.94"/><g><polygon class="e" points="137.4 328.04 201.17 328.04 217.11 343.98 217.11 407.74 153.34 407.74 137.4 391.8 137.4 328.04"/><polygon class="i" points="137.4 328.04 201.17 328.04 217.11 343.98 217.11 407.74 153.34 407.74 137.4 391.8 137.4 328.04"/><polygon class="b" points="137.4 328.04 201.17 328.04 217.11 343.98 153.34 343.98 137.4 328.04"/><polygon class="c" points="137.4 328.04 153.34 343.98 153.34 407.74 137.4 391.8 137.4 328.04"/><path class="i" d="M153.34,343.98h63.76m-63.76,63.76v-63.76l-15.94-15.94"/></g><g><polygon class="e" points="328.69 431.18 392.46 431.18 408.4 447.12 408.4 510.88 344.64 510.88 328.69 494.94 328.69 431.18"/><polygon class="i" points="328.69 431.18 392.46 431.18 408.4 447.12 408.4 510.88 344.64 510.88 328.69 494.94 328.69 431.18"/><polygon class="b" points="328.69 431.18 392.46 431.18 408.4 447.12 344.64 447.12 328.69 431.18"/><polygon class="c" points="328.69 431.18 344.64 447.12 344.64 510.88 328.69 494.94 328.69 431.18"/><path class="i" d="M344.64,447.12h63.76m-63.76,63.76v-63.76l-15.94-15.94"/></g><g><polygon class="e" points="424.34 482.75 488.1 482.75 504.04 498.69 504.04 562.45 440.28 562.45 424.34 546.51 424.34 482.75"/><polygon class="i" points="424.34 482.75 488.1 482.75 504.04 498.69 504.04 562.45 440.28 562.45 424.34 546.51 424.34 482.75"/><polygon class="b" points="424.34 482.75 488.1 482.75 504.04 498.69 440.28 498.69 424.34 482.75"/><polygon class="c" points="424.34 482.75 440.28 498.69 440.28 562.45 424.34 546.51 424.34 482.75"/><path class="i" d="M440.28,498.69h63.76m-63.76,63.76v-63.76l-15.94-15.94"/></g><g><polygon class="e" points="233.05 379.61 296.81 379.61 312.75 395.55 312.75 459.31 248.99 459.31 233.05 443.37 233.05 379.61"/><polygon class="i" points="233.05 379.61 296.81 379.61 312.75 395.55 312.75 459.31 248.99 459.31 233.05 443.37 233.05 379.61"/><polygon class="b" points="233.05 379.61 296.81 379.61 312.75 395.55 248.99 395.55 233.05 379.61"/><polygon class="c" points="233.05 379.61 248.99 395.55 248.99 459.31 233.05 443.37 233.05 379.61"/><path class="i" d="M248.99,395.55h63.76m-63.76,63.76v-63.76l-15.94-15.94"/></g><polygon class="e" points="9.88 268.02 105.52 268.02 121.46 283.96 121.46 379.61 25.82 379.61 9.88 363.67 9.88 268.02"/><polygon class="i" points="9.88 268.02 105.52 268.02 121.46 283.96 121.46 379.61 25.82 379.61 9.88 363.67 9.88 268.02"/><polygon class="b" points="9.88 268.02 105.52 268.02 121.46 283.96 25.82 283.96 9.88 268.02"/><polygon class="c" points="9.88 268.02 25.82 283.96 25.82 379.61 9.88 363.67 9.88 268.02"/><path class="i" d="M25.82,283.96H121.46M25.82,379.61v-95.65l-15.94-15.94"/><g><path class="h" d="M40.29,337.63c-.85,0-1.63-.15-2.34-.44s-1.33-.73-1.86-1.29-.93-1.26-1.23-2.07c-.29-.81-.44-1.74-.44-2.77,0-1.36,.25-2.53,.75-3.51,.5-.98,1.19-1.73,2.07-2.26,.88-.53,1.9-.79,3.05-.79,1.48,0,2.67,.34,3.55,1.03,.88,.69,1.49,1.64,1.81,2.86l-1.86,.33c-.26-.75-.67-1.36-1.24-1.81-.57-.45-1.29-.68-2.16-.68-.89,0-1.64,.19-2.23,.6s-1.04,.97-1.34,1.7-.45,1.57-.46,2.54,.14,1.81,.44,2.53c.3,.72,.75,1.28,1.35,1.69,.6,.4,1.35,.61,2.24,.61,.72,.01,1.34-.12,1.85-.4,.52-.28,.93-.69,1.23-1.22s.5-1.2,.59-1.98h-2.45v-1.47h4.4c.01,.1,.02,.24,.03,.42s0,.28,0,.33c0,1.17-.22,2.21-.67,3.13s-1.1,1.64-1.96,2.16c-.86,.52-1.9,.78-3.12,.78Z"/><path class="h" d="M47.8,337.36v-12.62h8.06v1.73h-6.23v3.54h5.18v1.73h-5.18v3.9h6.23v1.73h-8.06Z"/><path class="h" d="M57.97,337.36v-12.62h1.86l6.21,9.38v-9.38h1.86v12.62h-1.86l-6.21-9.39v9.39h-1.86Z"/><path class="h" d="M70.35,337.36v-12.62h8.06v1.73h-6.23v3.54h5.18v1.73h-5.18v3.9h6.23v1.73h-8.06Z"/><path class="h" d="M85.1,337.63c-.91,0-1.72-.16-2.45-.47s-1.33-.76-1.8-1.34c-.47-.58-.78-1.27-.92-2.07l1.91-.29c.19,.77,.6,1.37,1.21,1.8,.61,.43,1.33,.64,2.15,.64,.51,0,.98-.08,1.4-.24,.43-.16,.77-.39,1.03-.69,.26-.3,.39-.66,.39-1.08,0-.23-.04-.43-.12-.6s-.19-.33-.32-.46c-.14-.13-.3-.25-.5-.34-.2-.1-.41-.18-.64-.25l-3.24-.96c-.32-.09-.64-.21-.96-.36s-.63-.34-.9-.59c-.27-.24-.49-.54-.66-.9-.17-.36-.25-.8-.25-1.31,0-.78,.2-1.44,.6-1.98s.94-.95,1.63-1.23c.68-.28,1.45-.42,2.3-.42,.85,.01,1.62,.16,2.29,.46,.67,.29,1.24,.71,1.68,1.26,.45,.55,.76,1.21,.92,1.99l-1.96,.33c-.09-.47-.28-.88-.56-1.22-.29-.34-.64-.6-1.05-.79s-.87-.28-1.35-.29c-.47-.01-.9,.06-1.28,.21-.39,.15-.7,.37-.93,.64-.23,.27-.35,.59-.35,.95s.1,.63,.31,.85c.2,.22,.46,.39,.76,.51,.3,.13,.6,.23,.9,.31l2.33,.66c.29,.08,.62,.19,1,.33,.37,.14,.73,.33,1.08,.57s.64,.57,.86,.98,.34,.92,.34,1.53-.13,1.2-.39,1.68c-.26,.48-.61,.89-1.06,1.21-.45,.32-.96,.57-1.55,.73-.58,.16-1.2,.25-1.85,.25Z"/><path class="h" d="M91.98,337.36v-12.62h1.83v12.62h-1.83Z"/><path class="h" d="M101.02,337.63c-.91,0-1.72-.16-2.45-.47s-1.33-.76-1.8-1.34c-.47-.58-.78-1.27-.92-2.07l1.91-.29c.19,.77,.6,1.37,1.21,1.8,.61,.43,1.33,.64,2.15,.64,.51,0,.98-.08,1.4-.24,.43-.16,.77-.39,1.03-.69,.26-.3,.39-.66,.39-1.08,0-.23-.04-.43-.12-.6s-.19-.33-.32-.46c-.14-.13-.3-.25-.5-.34-.2-.1-.41-.18-.64-.25l-3.24-.96c-.32-.09-.64-.21-.96-.36s-.63-.34-.9-.59c-.27-.24-.49-.54-.66-.9-.17-.36-.25-.8-.25-1.31,0-.78,.2-1.44,.6-1.98s.94-.95,1.63-1.23c.68-.28,1.45-.42,2.3-.42,.85,.01,1.62,.16,2.29,.46,.67,.29,1.24,.71,1.68,1.26,.45,.55,.76,1.21,.92,1.99l-1.96,.33c-.09-.47-.28-.88-.56-1.22-.29-.34-.64-.6-1.05-.79s-.87-.28-1.35-.29c-.47-.01-.9,.06-1.28,.21-.39,.15-.7,.37-.93,.64-.23,.27-.35,.59-.35,.95s.1,.63,.31,.85c.2,.22,.46,.39,.76,.51,.3,.13,.6,.23,.9,.31l2.33,.66c.29,.08,.62,.19,1,.33,.37,.14,.73,.33,1.08,.57s.64,.57,.86,.98,.34,.92,.34,1.53-.13,1.2-.39,1.68c-.26,.48-.61,.89-1.06,1.21-.45,.32-.96,.57-1.55,.73-.58,.16-1.2,.25-1.85,.25Z"/></g></svg>