<?xml version="1.0" encoding="utf-8"?>
<!-- Generator: Adobe Illustrator 26.1.0, SVG Export Plug-In . SVG Version: 6.00 Build 0)  -->
<svg version="1.1" id="a" xmlns="http://www.w3.org/2000/svg" xmlns:xlink="http://www.w3.org/1999/xlink" x="0px" y="0px"
	 viewBox="0 0 1237.4 1104.7" style="enable-background:new 0 0 1237.4 1104.7;" xml:space="preserve">
<style type="text/css">
	.st0{fill:none;stroke:#FFFFFF;stroke-miterlimit:10;}
	.st1{fill:#FFFFFF;}
	.st2{fill:#8CE085;}
	.st3{opacity:5.000000e-02;enable-background:new    ;}
	.st4{opacity:0.1;enable-background:new    ;}
	.st5{fill:#363A3F;}
	.st6{enable-background:new    ;}
	.st7{fill:#B573A5;}
	.st8{fill:#F4C634;}
	.st9{fill:#EFD99A;}
</style>
<line class="st0" x1="865.7" y1="511.4" x2="865.7" y2="640.6"/>
<line class="st0" x1="105.5" y1="332.1" x2="542.6" y2="567.4"/>
<path class="st1" d="M517.4,447.7v-3.2h3.2v3.2 M517.4,460.4v-3.2h3.2v3.2 M517.4,473.2V470h3.2v3.2 M517.4,485.9v-3.2h3.2v3.2
	 M517.4,498.7v-3.2h3.2v3.2 M517.4,511.4v-3.2h3.2v3.2 M517.4,524.2V521h3.2v3.2 M517.4,536.9v-3.2h3.2v3.2 M517.4,549.7v-3.2h3.2
	v3.2 M517.4,562.4v-3.2h3.2v3.2 M517.4,575.2V572h3.2v3.2 M517.4,587.9v-3.2h3.2v3.2 M517.4,600.7v-3.2h3.2v3.2 M517.4,613.4v-3.2
	h3.2v3.2 M517.4,626.2V623h3.2v3.2 M517.4,638.9v-3.2h3.2v3.2 M517.4,651.7v-3.2h3.2v3.2 M517.4,664.4v-3.2h3.2v3.2 M517.4,677.2
	V674h3.2v3.2"/>
<g>
	<polygon class="st2" points="535.9,534.6 599.7,534.6 615.6,550.5 615.6,614.3 551.9,614.3 535.9,598.3 	"/>
	<polygon class="st0" points="535.9,534.6 599.7,534.6 615.6,550.5 615.6,614.3 551.9,614.3 535.9,598.3 	"/>
	<polygon class="st3" points="535.9,534.6 599.7,534.6 615.6,550.5 551.9,550.5 	"/>
	<polygon class="st4" points="535.9,534.6 551.9,550.5 551.9,614.3 535.9,598.3 	"/>
	<path class="st0" d="M551.9,550.5h63.8 M551.9,614.3v-63.8l-15.9-15.9"/>
</g>
<g>
	<path class="st5" d="M569.9,576.8v-10.9h-4.2v-1.7h10.2v1.7h-4.2v10.9H569.9L569.9,576.8z"/>
	<path class="st5" d="M577.3,576.8v-9.5h1.6v2.3l-0.2-0.3c0.1-0.3,0.3-0.6,0.5-0.8c0.2-0.2,0.4-0.5,0.7-0.6c0.2-0.2,0.5-0.3,0.8-0.4
		s0.6-0.2,0.9-0.2s0.6,0,0.9,0v1.7c-0.3-0.1-0.7-0.1-1-0.1c-0.4,0-0.7,0.2-1,0.4c-0.3,0.2-0.5,0.4-0.7,0.7c-0.2,0.3-0.3,0.6-0.4,0.9
		c-0.1,0.3-0.1,0.7-0.1,1.1v4.8L577.3,576.8L577.3,576.8z"/>
	<path class="st5" d="M588.3,577.1c-0.9,0-1.8-0.2-2.5-0.6c-0.7-0.4-1.3-1-1.7-1.7s-0.6-1.6-0.6-2.6c0-1,0.2-1.9,0.6-2.7
		s0.9-1.3,1.6-1.8c0.7-0.4,1.5-0.6,2.4-0.6s1.8,0.2,2.5,0.7s1.2,1.1,1.5,1.9c0.3,0.8,0.5,1.8,0.4,2.9h-1.8v-0.7
		c0-1.1-0.2-1.9-0.6-2.4c-0.4-0.5-1-0.8-1.8-0.8c-0.9,0-1.6,0.3-2.1,0.9s-0.7,1.4-0.7,2.5s0.2,1.8,0.7,2.4s1.1,0.8,2,0.8
		c0.6,0,1.1-0.1,1.5-0.4s0.7-0.6,1-1.1l1.8,0.6c-0.4,0.8-0.9,1.5-1.7,2C590.1,576.8,589.2,577.1,588.3,577.1L588.3,577.1z
		 M584.9,572.6v-1.4h6.8v1.4H584.9z"/>
	<path class="st5" d="M598.8,577.1c-0.9,0-1.8-0.2-2.5-0.6c-0.7-0.4-1.3-1-1.7-1.7s-0.6-1.6-0.6-2.6c0-1,0.2-1.9,0.6-2.7
		s0.9-1.3,1.6-1.8c0.7-0.4,1.5-0.6,2.4-0.6s1.8,0.2,2.5,0.7s1.2,1.1,1.5,1.9c0.3,0.8,0.5,1.8,0.4,2.9h-1.8v-0.7
		c0-1.1-0.2-1.9-0.6-2.4c-0.4-0.5-1-0.8-1.8-0.8c-0.9,0-1.6,0.3-2.1,0.9s-0.7,1.4-0.7,2.5s0.2,1.8,0.7,2.4s1.1,0.8,2,0.8
		c0.6,0,1.1-0.1,1.5-0.4s0.7-0.6,1-1.1l1.8,0.6c-0.4,0.8-0.9,1.5-1.7,2C600.5,576.8,599.7,577.1,598.8,577.1L598.8,577.1z
		 M595.4,572.6v-1.4h6.8v1.4H595.4z"/>
	<path class="st5" d="M561.9,597.8v-12.6h5.1c0.1,0,0.3,0,0.5,0c0.2,0,0.3,0,0.5,0.1c0.7,0.1,1.3,0.3,1.8,0.7s0.8,0.8,1.1,1.4
		c0.2,0.6,0.3,1.2,0.3,1.9c0,1-0.3,1.9-0.8,2.6s-1.3,1.2-2.3,1.4l-0.8,0.1h-3.6v4.5H561.9L561.9,597.8z M563.8,591.6h3.2
		c0.1,0,0.2,0,0.4,0c0.1,0,0.3,0,0.4-0.1c0.4-0.1,0.7-0.2,0.9-0.5c0.2-0.2,0.4-0.5,0.5-0.8s0.2-0.6,0.2-0.9s0-0.6-0.2-0.9
		c-0.1-0.3-0.3-0.6-0.5-0.8c-0.2-0.2-0.5-0.4-0.9-0.5c-0.1,0-0.3-0.1-0.4-0.1c-0.1,0-0.3,0-0.4,0h-3.2V591.6z M569.3,597.8l-2.5-5.1
		l1.8-0.5l2.7,5.6H569.3L569.3,597.8z"/>
	<path class="st5" d="M578.6,598.1c-1.3,0-2.3-0.3-3.2-0.8s-1.6-1.3-2-2.3s-0.7-2.1-0.7-3.4s0.2-2.5,0.7-3.4s1.2-1.8,2-2.3
		s2-0.8,3.2-0.8s2.3,0.3,3.2,0.8c0.9,0.5,1.6,1.3,2,2.3s0.7,2.1,0.7,3.4s-0.2,2.5-0.7,3.4c-0.5,1-1.2,1.8-2,2.3
		C580.9,597.8,579.8,598.1,578.6,598.1z M578.6,596.4c0.9,0,1.6-0.2,2.2-0.6c0.6-0.4,1-1,1.3-1.7s0.5-1.6,0.5-2.5s-0.2-1.8-0.5-2.5
		s-0.7-1.3-1.3-1.7c-0.6-0.4-1.3-0.6-2.2-0.6c-0.9,0-1.6,0.2-2.2,0.6s-1,1-1.3,1.7s-0.5,1.6-0.5,2.5s0.1,1.8,0.4,2.5
		c0.3,0.7,0.8,1.3,1.3,1.7C576.9,596.2,577.7,596.4,578.6,596.4L578.6,596.4z"/>
	<path class="st5" d="M591.6,598.1c-1.3,0-2.3-0.3-3.2-0.8s-1.6-1.3-2-2.3s-0.7-2.1-0.7-3.4s0.2-2.5,0.7-3.4s1.2-1.8,2-2.3
		s2-0.8,3.2-0.8s2.3,0.3,3.2,0.8c0.9,0.5,1.6,1.3,2,2.3s0.7,2.1,0.7,3.4s-0.2,2.5-0.7,3.4c-0.5,1-1.2,1.8-2,2.3
		C593.9,597.8,592.8,598.1,591.6,598.1z M591.6,596.4c0.9,0,1.6-0.2,2.2-0.6c0.6-0.4,1-1,1.3-1.7s0.5-1.6,0.5-2.5s-0.2-1.8-0.5-2.5
		s-0.7-1.3-1.3-1.7c-0.6-0.4-1.3-0.6-2.2-0.6c-0.9,0-1.6,0.2-2.2,0.6s-1,1-1.3,1.7s-0.5,1.6-0.5,2.5s0.1,1.8,0.4,2.5
		c0.3,0.7,0.8,1.3,1.3,1.7C589.9,596.2,590.7,596.4,591.6,596.4L591.6,596.4z"/>
	<path class="st5" d="M602.4,597.8v-10.9h-4.2v-1.7h10.2v1.7h-4.2v10.9H602.4L602.4,597.8z"/>
</g>
<g>
	<polygon class="st2" points="631.6,534.6 695.3,534.6 711.3,550.5 711.3,614.3 647.5,614.3 631.6,598.3 	"/>
	<polygon class="st0" points="631.6,534.6 695.3,534.6 711.3,550.5 711.3,614.3 647.5,614.3 631.6,598.3 	"/>
	<polygon class="st3" points="631.6,534.6 695.3,534.6 711.3,550.5 647.5,550.5 	"/>
	<polygon class="st4" points="631.6,534.6 647.5,550.5 647.5,614.3 631.6,598.3 	"/>
	<path class="st0" d="M647.5,550.5h63.8 M647.5,614.3v-63.8l-15.9-15.9"/>
</g>
<g>
	<polygon class="st2" points="727.2,534.6 791,534.6 806.9,550.5 806.9,614.3 743.2,614.3 727.2,598.3 	"/>
	<polygon class="st0" points="727.2,534.6 791,534.6 806.9,550.5 806.9,614.3 743.2,614.3 727.2,598.3 	"/>
	<polygon class="st3" points="727.2,534.6 791,534.6 806.9,550.5 743.2,550.5 	"/>
	<polygon class="st4" points="727.2,534.6 743.2,550.5 743.2,614.3 727.2,598.3 	"/>
	<path class="st0" d="M743.2,550.5h63.8 M743.2,614.3v-63.8l-15.9-15.9"/>
</g>
<g>
	<polygon class="st2" points="822.9,534.6 886.6,534.6 902.6,550.5 902.6,614.3 838.8,614.3 822.9,598.3 	"/>
	<polygon class="st0" points="822.9,534.6 886.6,534.6 902.6,550.5 902.6,614.3 838.8,614.3 822.9,598.3 	"/>
	<polygon class="st3" points="822.9,534.6 886.6,534.6 902.6,550.5 838.8,550.5 	"/>
	<polygon class="st4" points="822.9,534.6 838.8,550.5 838.8,614.3 822.9,598.3 	"/>
	<path class="st0" d="M838.8,550.5h63.8 M838.8,614.3v-63.8l-15.9-15.9"/>
</g>
<g>
	<polygon class="st2" points="1014.2,534.6 1077.9,534.6 1093.9,550.5 1093.9,614.3 1030.1,614.3 1014.2,598.3 	"/>
	<polygon class="st0" points="1014.2,534.6 1077.9,534.6 1093.9,550.5 1093.9,614.3 1030.1,614.3 1014.2,598.3 	"/>
	<polygon class="st3" points="1014.2,534.6 1077.9,534.6 1093.9,550.5 1030.1,550.5 	"/>
	<polygon class="st4" points="1014.2,534.6 1030.1,550.5 1030.1,614.3 1014.2,598.3 	"/>
	<path class="st0" d="M1030.1,550.5h63.8 M1030.1,614.3v-63.8l-15.9-15.9"/>
</g>
<g class="st6">
	<path class="st5" d="M1050,588v-10.9h-4.2v-1.7h10.2v1.7h-4.2V588H1050z"/>
	<path class="st5" d="M1057.6,588v-12.6h1.8V588H1057.6z"/>
	<path class="st5" d="M1062,588v-12.6h5.1c0.1,0,0.3,0,0.5,0c0.2,0,0.4,0,0.5,0.1c0.7,0.1,1.3,0.4,1.8,0.7c0.5,0.4,0.8,0.8,1.1,1.4
		c0.2,0.6,0.4,1.2,0.4,1.9c0,0.7-0.1,1.3-0.4,1.9c-0.2,0.6-0.6,1-1.1,1.4c-0.5,0.4-1.1,0.6-1.8,0.7c-0.2,0-0.3,0-0.5,0.1
		c-0.2,0-0.3,0-0.5,0h-3.3v4.5H1062z M1063.9,581.7h3.2c0.1,0,0.2,0,0.4,0s0.3,0,0.4-0.1c0.4-0.1,0.7-0.2,0.9-0.5
		c0.2-0.2,0.4-0.5,0.5-0.8c0.1-0.3,0.1-0.6,0.1-0.9s0-0.6-0.1-0.9c-0.1-0.3-0.3-0.6-0.5-0.8c-0.2-0.2-0.5-0.4-0.9-0.5
		c-0.1,0-0.3-0.1-0.4-0.1s-0.3,0-0.4,0h-3.2V581.7z"/>
</g>
<line class="st0" x1="806.9" y1="775.3" x2="838.8" y2="775.3"/>
<polygon class="st7" points="727.2,735.4 791,735.4 806.9,751.3 806.9,815.1 743.2,815.1 727.2,799.2 "/>
<polygon class="st0" points="727.2,735.4 791,735.4 806.9,751.3 806.9,815.1 743.2,815.1 727.2,799.2 "/>
<polygon class="st3" points="727.2,735.4 791,735.4 806.9,751.3 743.2,751.3 "/>
<polygon class="st4" points="727.2,735.4 743.2,751.3 743.2,815.1 727.2,799.2 "/>
<path class="st0" d="M743.2,751.3h63.8 M743.2,815.1v-63.8l-15.9-15.9"/>
<polygon class="st7" points="822.9,735.4 886.6,735.4 902.6,751.3 902.6,815.1 838.8,815.1 822.9,799.2 "/>
<polygon class="st0" points="822.9,735.4 886.6,735.4 902.6,751.3 902.6,815.1 838.8,815.1 822.9,799.2 "/>
<polygon class="st3" points="822.9,735.4 886.6,735.4 902.6,751.3 838.8,751.3 "/>
<polygon class="st4" points="822.9,735.4 838.8,751.3 838.8,815.1 822.9,799.2 "/>
<path class="st0" d="M838.8,751.3h63.8 M838.8,815.1v-63.8l-15.9-15.9"/>
<g>
	<line class="st0" x1="615.6" y1="574.4" x2="631.6" y2="574.4"/>
	<line class="st0" x1="711.3" y1="574.4" x2="727.2" y2="574.4"/>
	<line class="st0" x1="806.9" y1="574.4" x2="822.9" y2="574.4"/>
	<line class="st0" x1="902.6" y1="574.4" x2="918.5" y2="574.4"/>
	<line class="st0" x1="998.2" y1="574.4" x2="1014.2" y2="574.4"/>
</g>
<g>
	<polygon class="st2" points="918.5,534.6 982.3,534.6 998.2,550.5 998.2,614.3 934.5,614.3 918.5,598.3 	"/>
	<polygon class="st0" points="918.5,534.6 982.3,534.6 998.2,550.5 998.2,614.3 934.5,614.3 918.5,598.3 	"/>
	<polygon class="st3" points="918.5,534.6 982.3,534.6 998.2,550.5 934.5,550.5 	"/>
	<polygon class="st4" points="918.5,534.6 934.5,550.5 934.5,614.3 918.5,598.3 	"/>
	<path class="st0" d="M934.5,550.5h63.8 M934.5,614.3v-63.8l-15.9-15.9"/>
</g>
<g>
	<line class="st0" x1="1111" y1="574.4" x2="1227.6" y2="574.4"/>
	<polygon class="st1" points="1112.4,579.4 1103.8,574.4 1112.4,569.4 	"/>
</g>
<g class="st6">
	<path class="st1" d="M1115.7,564.5V549h2l5.6,11.7l5.6-11.7h2.1v15.5h-2.1v-10.6l-5,10.6h-1l-5-10.6v10.6H1115.7z"/>
	<path class="st1" d="M1137.4,564.8c-0.9,0-1.6-0.2-2.2-0.5c-0.6-0.3-1-0.7-1.3-1.3s-0.4-1.1-0.4-1.7c0-0.6,0.1-1.1,0.3-1.6
		c0.2-0.4,0.5-0.8,0.9-1.1c0.4-0.3,0.9-0.6,1.5-0.8c0.5-0.2,1.1-0.3,1.8-0.4s1.3-0.2,2.1-0.3s1.4-0.2,2.2-0.3l-0.8,0.5
		c0-0.9-0.2-1.6-0.6-2s-1.1-0.7-2.1-0.7c-0.6,0-1.2,0.1-1.7,0.4c-0.5,0.3-0.9,0.8-1.1,1.4l-2.1-0.6c0.3-1,0.8-1.8,1.6-2.4
		c0.8-0.6,1.9-0.9,3.2-0.9c1,0,2,0.2,2.7,0.5c0.8,0.4,1.3,0.9,1.7,1.7c0.2,0.4,0.3,0.8,0.3,1.2c0,0.4,0.1,0.9,0.1,1.4v7.2h-2v-2.7
		l0.4,0.3c-0.5,0.9-1.1,1.6-1.8,2S1138.5,564.8,1137.4,564.8z M1137.8,563c0.6,0,1.2-0.1,1.7-0.3c0.5-0.2,0.8-0.5,1.1-0.9
		c0.3-0.4,0.5-0.7,0.5-1.1c0.1-0.3,0.2-0.7,0.2-1.2c0-0.4,0-0.8,0-1l0.7,0.3c-0.7,0.1-1.4,0.2-1.9,0.3c-0.6,0.1-1.1,0.2-1.6,0.3
		s-0.9,0.2-1.3,0.3c-0.3,0.1-0.6,0.2-0.8,0.4c-0.2,0.2-0.4,0.3-0.6,0.6s-0.2,0.5-0.2,0.8c0,0.3,0.1,0.6,0.2,0.8
		c0.2,0.3,0.4,0.5,0.7,0.6C1136.9,562.9,1137.3,563,1137.8,563z"/>
	<path class="st1" d="M1146.6,550.9v-2.2h2.3v2.2H1146.6z M1146.6,564.5v-11.7h2.3v11.7H1146.6z"/>
	<path class="st1" d="M1152.1,564.5v-11.7h2v3.4h0.3v8.3H1152.1z M1160.3,564.5v-5.7c0-0.5,0-0.9-0.1-1.4s-0.2-0.9-0.4-1.3
		c-0.2-0.4-0.5-0.7-0.9-1s-0.9-0.4-1.5-0.4c-0.4,0-0.8,0.1-1.1,0.2c-0.4,0.1-0.7,0.3-0.9,0.6c-0.3,0.3-0.5,0.7-0.6,1.2
		c-0.2,0.5-0.2,1.1-0.2,1.8l-1.4-0.5c0-1.1,0.2-2,0.6-2.8c0.4-0.8,1-1.4,1.7-1.9c0.7-0.5,1.6-0.7,2.7-0.7c0.8,0,1.5,0.1,2,0.4
		c0.5,0.3,1,0.6,1.3,1s0.6,0.9,0.8,1.4c0.2,0.5,0.3,1,0.4,1.5s0.1,0.9,0.1,1.3v6.5H1160.3z"/>
	<path class="st1" d="M1176.2,564.8c-1.6,0-2.9-0.3-4-1s-1.9-1.6-2.5-2.8s-0.9-2.6-0.9-4.2c0-1.6,0.3-3,0.9-4.2
		c0.6-1.2,1.4-2.2,2.5-2.8s2.4-1,4-1c1.8,0,3.3,0.5,4.5,1.4c1.2,0.9,2,2.1,2.5,3.7l-2.3,0.6c-0.3-1.1-0.8-1.9-1.6-2.6
		c-0.8-0.6-1.8-0.9-3-0.9c-1.1,0-2,0.2-2.8,0.7c-0.7,0.5-1.3,1.2-1.7,2.1c-0.4,0.9-0.6,1.9-0.6,3.1c0,1.2,0.2,2.2,0.5,3.1
		s0.9,1.6,1.7,2.1c0.7,0.5,1.7,0.7,2.8,0.7c1.2,0,2.2-0.3,3-0.9c0.8-0.6,1.3-1.5,1.6-2.6l2.3,0.6c-0.5,1.5-1.3,2.8-2.5,3.7
		C1179.4,564.4,1178,564.8,1176.2,564.8z"/>
	<path class="st1" d="M1185.4,564.5V549h2v8.4h0.3v7.2H1185.4z M1193.6,564.5v-5.7c0-0.5,0-0.9-0.1-1.4s-0.2-0.9-0.4-1.3
		c-0.2-0.4-0.5-0.7-0.9-1s-0.9-0.4-1.5-0.4c-0.4,0-0.8,0.1-1.1,0.2c-0.4,0.1-0.7,0.3-0.9,0.6c-0.3,0.3-0.5,0.7-0.6,1.2
		c-0.2,0.5-0.2,1.1-0.2,1.8l-1.4-0.5c0-1.1,0.2-2,0.6-2.8c0.4-0.8,1-1.4,1.7-1.9c0.7-0.5,1.6-0.7,2.7-0.7c0.8,0,1.5,0.1,2,0.4
		c0.5,0.3,1,0.6,1.3,1s0.6,0.9,0.8,1.4c0.2,0.5,0.3,1,0.4,1.5s0.1,0.9,0.1,1.3v6.5H1193.6z"/>
	<path class="st1" d="M1202,564.8c-0.9,0-1.6-0.2-2.2-0.5c-0.6-0.3-1-0.7-1.3-1.3c-0.3-0.5-0.4-1.1-0.4-1.7c0-0.6,0.1-1.1,0.3-1.6
		c0.2-0.4,0.5-0.8,0.9-1.1c0.4-0.3,0.9-0.6,1.5-0.8c0.5-0.2,1.1-0.3,1.8-0.4c0.7-0.1,1.3-0.2,2.1-0.3c0.7-0.1,1.4-0.2,2.2-0.3
		l-0.8,0.5c0-0.9-0.2-1.6-0.6-2c-0.4-0.4-1.1-0.7-2.1-0.7c-0.6,0-1.2,0.1-1.7,0.4s-0.9,0.8-1.1,1.4l-2.1-0.6c0.3-1,0.8-1.8,1.6-2.4
		s1.9-0.9,3.2-0.9c1,0,2,0.2,2.7,0.5c0.8,0.4,1.3,0.9,1.7,1.7c0.2,0.4,0.3,0.8,0.3,1.2c0,0.4,0.1,0.9,0.1,1.4v7.2h-2v-2.7l0.4,0.3
		c-0.5,0.9-1.1,1.6-1.8,2S1203.1,564.8,1202,564.8z M1202.4,563c0.6,0,1.2-0.1,1.7-0.3s0.8-0.5,1.1-0.9s0.5-0.7,0.5-1.1
		c0.1-0.3,0.2-0.7,0.2-1.2s0-0.8,0-1l0.7,0.3c-0.7,0.1-1.4,0.2-1.9,0.3c-0.6,0.1-1.1,0.2-1.6,0.3c-0.5,0.1-0.9,0.2-1.3,0.3
		c-0.3,0.1-0.6,0.2-0.8,0.4c-0.2,0.2-0.4,0.3-0.6,0.6c-0.1,0.2-0.2,0.5-0.2,0.8c0,0.3,0.1,0.6,0.2,0.8c0.2,0.3,0.4,0.5,0.7,0.6
		S1201.9,563,1202.4,563z"/>
	<path class="st1" d="M1211.2,550.9v-2.2h2.3v2.2H1211.2z M1211.2,564.5v-11.7h2.3v11.7H1211.2z"/>
	<path class="st1" d="M1216.7,564.5v-11.7h2v3.4h0.3v8.3H1216.7z M1224.9,564.5v-5.7c0-0.5,0-0.9-0.1-1.4c-0.1-0.5-0.2-0.9-0.4-1.3
		c-0.2-0.4-0.5-0.7-0.9-1s-0.9-0.4-1.5-0.4c-0.4,0-0.8,0.1-1.1,0.2c-0.4,0.1-0.7,0.3-0.9,0.6s-0.5,0.7-0.6,1.2
		c-0.2,0.5-0.2,1.1-0.2,1.8l-1.4-0.5c0-1.1,0.2-2,0.6-2.8s1-1.4,1.7-1.9c0.7-0.5,1.6-0.7,2.7-0.7c0.8,0,1.5,0.1,2,0.4
		c0.5,0.3,1,0.6,1.3,1s0.6,0.9,0.8,1.4c0.2,0.5,0.3,1,0.4,1.5c0.1,0.5,0.1,0.9,0.1,1.3v6.5H1224.9z"/>
</g>
<g>
	<line class="st0" x1="101.4" y1="239.5" x2="503.2" y2="455.9"/>
	<polygon class="st1" points="100.3,244.6 95.1,236.1 105.1,235.8 	"/>
	<polygon class="st1" points="499.6,459.6 509.6,459.3 504.3,450.8 	"/>
</g>
<g class="st6">
	<path class="st1" d="M297.5,333.8c-1.4-0.7-2.4-1.7-3-2.8c-0.6-1.1-0.9-2.3-0.9-3.7c0.1-1.3,0.5-2.7,1.2-4.1
		c0.8-1.4,1.7-2.5,2.8-3.3c1.1-0.8,2.3-1.2,3.6-1.3c1.3-0.1,2.6,0.2,4,1c1.6,0.8,2.7,2,3.3,3.3c0.6,1.4,0.7,2.8,0.4,4.4l-2.3-0.5
		c0.2-1.1,0.2-2.1-0.2-3c-0.4-0.9-1.1-1.7-2.2-2.2c-1-0.5-1.9-0.7-2.8-0.6c-0.9,0.1-1.7,0.4-2.4,1s-1.4,1.4-2,2.5c-0.6,1-0.9,2-1,3
		c-0.1,1,0.1,1.8,0.5,2.6c0.4,0.8,1.1,1.4,2.1,2c1.1,0.6,2.1,0.8,3.1,0.6c1-0.2,1.9-0.7,2.6-1.5l1.7,1.6c-1.1,1.1-2.4,1.8-3.9,2.1
		S299.1,334.7,297.5,333.8z"/>
	<path class="st1" d="M308.6,339.8c-0.8-0.4-1.3-0.9-1.7-1.5c-0.4-0.6-0.5-1.1-0.6-1.7c0-0.6,0.1-1.2,0.4-1.7c0.3-0.5,0.6-0.9,1-1.2
		c0.4-0.3,0.8-0.5,1.4-0.6c0.5-0.1,1.1-0.1,1.7,0c0.5,0.1,1.1,0.3,1.7,0.5c0.6,0.2,1.3,0.4,2,0.7c0.7,0.3,1.4,0.5,2,0.8l-0.9,0
		c0.4-0.8,0.6-1.5,0.5-2.1c-0.1-0.6-0.6-1.1-1.5-1.6c-0.5-0.3-1.1-0.4-1.7-0.4c-0.6,0-1.1,0.3-1.6,0.7l-1.5-1.6
		c0.7-0.7,1.6-1.2,2.6-1.3s2.1,0.1,3.3,0.8c0.9,0.5,1.6,1.1,2.1,1.8c0.5,0.7,0.7,1.4,0.7,2.3c0,0.4-0.1,0.8-0.3,1.2
		c-0.2,0.4-0.4,0.8-0.6,1.2l-3.4,6.3l-1.8-0.9l1.3-2.3l0.2,0.5c-0.8,0.6-1.7,0.9-2.6,0.9C310.4,340.5,309.5,340.3,308.6,339.8z
		 M309.8,338.3c0.6,0.3,1.1,0.5,1.6,0.5s1-0.1,1.4-0.2c0.4-0.2,0.7-0.4,1-0.7c0.3-0.2,0.5-0.6,0.7-0.9c0.2-0.4,0.4-0.7,0.5-0.9
		l0.5,0.6c-0.7-0.2-1.3-0.5-1.8-0.7c-0.6-0.2-1.1-0.4-1.5-0.5c-0.5-0.2-0.9-0.3-1.2-0.3c-0.3-0.1-0.6-0.1-0.9-0.1
		c-0.3,0-0.5,0.1-0.8,0.2c-0.2,0.1-0.4,0.3-0.6,0.6c-0.1,0.3-0.2,0.5-0.2,0.8c0,0.3,0.1,0.6,0.3,0.9
		C309.1,337.8,309.4,338.1,309.8,338.3z"/>
	<path class="st1" d="M320.4,346.1c-1.2-0.7-2.1-1.5-2.6-2.5c-0.5-1-0.6-2-0.2-3.1l2.2,0.8c-0.2,0.6-0.1,1.2,0.2,1.7
		c0.3,0.6,0.8,1,1.5,1.4c0.6,0.3,1.2,0.5,1.7,0.4c0.5-0.1,0.9-0.3,1.1-0.8c0.1-0.3,0.2-0.5,0.2-0.7s-0.2-0.5-0.5-0.9
		s-0.8-0.9-1.5-1.5c-0.8-0.7-1.3-1.3-1.7-1.9s-0.6-1-0.6-1.5c0-0.5,0.1-1,0.4-1.5c0.3-0.6,0.8-1.1,1.4-1.4c0.6-0.3,1.2-0.4,2-0.3
		c0.7,0.1,1.5,0.3,2.3,0.8c0.8,0.4,1.4,0.9,1.9,1.5c0.5,0.6,0.8,1.2,0.9,1.9c0.1,0.7,0.1,1.3-0.2,2l-2.2-0.7c0.2-0.5,0.2-1-0.1-1.5
		s-0.7-0.9-1.3-1.3c-0.6-0.3-1.1-0.5-1.6-0.5c-0.5,0-0.8,0.2-1.1,0.6c-0.1,0.2-0.2,0.5-0.1,0.7c0.1,0.2,0.3,0.5,0.6,0.9
		c0.3,0.4,0.8,0.9,1.5,1.5c0.7,0.7,1.3,1.3,1.7,1.8c0.4,0.5,0.6,1.1,0.6,1.5s-0.1,1-0.4,1.5c-0.5,1-1.3,1.6-2.4,1.8
		C322.9,347.1,321.7,346.8,320.4,346.1z"/>
	<path class="st1" d="M331.1,351.9c-1.1-0.6-1.8-1.3-2.3-2.1c-0.5-0.9-0.7-1.8-0.6-2.8c0.1-1,0.4-2.1,0.9-3.1
		c0.6-1.1,1.3-1.9,2.1-2.5c0.8-0.6,1.8-0.9,2.7-1c1-0.1,2,0.2,3,0.7c1.1,0.6,1.9,1.4,2.4,2.4c0.5,1,0.6,2,0.3,3.1l-2.3-0.5
		c0.1-0.7,0-1.3-0.2-1.9c-0.3-0.6-0.7-1-1.3-1.3c-0.7-0.4-1.3-0.5-1.9-0.4c-0.6,0.1-1.1,0.3-1.6,0.8c-0.5,0.4-0.9,1-1.3,1.7
		c-0.6,1.1-0.8,2-0.7,3c0.1,0.9,0.7,1.6,1.6,2.1c0.6,0.3,1.2,0.5,1.8,0.4c0.6-0.1,1.1-0.3,1.6-0.8l1.8,1.6c-0.9,0.8-1.8,1.3-2.9,1.4
		S332.2,352.5,331.1,351.9z"/>
	<path class="st1" d="M340.3,356.8c-0.8-0.4-1.3-0.9-1.7-1.5c-0.4-0.6-0.5-1.1-0.6-1.7s0.1-1.2,0.4-1.7c0.3-0.5,0.6-0.9,1-1.2
		c0.4-0.3,0.8-0.5,1.4-0.6c0.5-0.1,1.1-0.1,1.7,0c0.5,0.1,1.1,0.3,1.7,0.5s1.3,0.4,2,0.7c0.7,0.3,1.4,0.5,2,0.8l-0.9,0
		c0.4-0.8,0.6-1.5,0.5-2.1c-0.1-0.6-0.6-1.1-1.5-1.6c-0.5-0.3-1.1-0.4-1.7-0.4c-0.6,0-1.1,0.3-1.6,0.7l-1.5-1.6
		c0.7-0.7,1.6-1.2,2.6-1.3s2.1,0.1,3.3,0.8c0.9,0.5,1.6,1.1,2.1,1.8c0.5,0.7,0.7,1.4,0.7,2.3c0,0.4-0.1,0.8-0.3,1.2
		c-0.2,0.4-0.4,0.8-0.6,1.2l-3.4,6.3l-1.8-0.9l1.3-2.3l0.2,0.5c-0.8,0.6-1.7,0.8-2.6,0.9C342.1,357.6,341.2,357.3,340.3,356.8z
		 M341.5,355.4c0.6,0.3,1.1,0.5,1.6,0.5c0.5,0,1-0.1,1.4-0.2c0.4-0.2,0.8-0.4,1-0.7c0.3-0.2,0.5-0.6,0.7-0.9
		c0.2-0.4,0.4-0.7,0.5-0.9l0.5,0.6c-0.7-0.2-1.3-0.5-1.8-0.7c-0.6-0.2-1.1-0.4-1.5-0.5c-0.5-0.2-0.9-0.3-1.2-0.3
		c-0.3-0.1-0.6-0.1-0.9-0.1c-0.3,0-0.5,0.1-0.8,0.2c-0.2,0.1-0.4,0.3-0.6,0.6c-0.1,0.3-0.2,0.5-0.2,0.8c0,0.3,0.1,0.6,0.3,0.9
		C340.8,354.9,341.1,355.2,341.5,355.4z"/>
	<path class="st1" d="M352.3,363.3c-1-0.5-1.7-1.2-2.1-2c-0.4-0.8-0.6-1.8-0.6-2.8c0.1-1,0.4-2,0.9-3.1c0.6-1,1.2-1.9,2.1-2.5
		s1.7-1,2.7-1.1c1-0.1,1.9,0.1,2.9,0.6c1,0.5,1.7,1.2,2.1,2c0.4,0.8,0.6,1.7,0.5,2.7c-0.1,1-0.4,2-1,3c-0.6,1-1.2,1.9-2,2.5
		s-1.6,1-2.6,1.1S353.2,363.8,352.3,363.3z M353.5,361.6c0.7,0.4,1.3,0.5,1.8,0.4c0.6-0.1,1.1-0.4,1.6-0.8c0.5-0.4,0.9-1,1.3-1.7
		c0.4-0.7,0.6-1.4,0.7-2c0.1-0.6,0-1.2-0.2-1.8c-0.2-0.5-0.7-0.9-1.3-1.3c-0.7-0.4-1.3-0.5-1.9-0.4c-0.6,0.1-1.1,0.4-1.6,0.8
		c-0.5,0.4-0.9,1-1.3,1.7c-0.4,0.7-0.6,1.3-0.7,2c-0.1,0.7,0,1.3,0.2,1.8C352.4,360.9,352.9,361.3,353.5,361.6z M355.5,364.6l4-7.4
		l-0.2-0.1l3.4-6.3l2,1.1l-7.4,13.7L355.5,364.6z"/>
	<path class="st1" d="M364.3,369.8c-1-0.5-1.8-1.3-2.3-2.1c-0.5-0.9-0.8-1.8-0.8-2.8c0-1,0.3-2.1,0.9-3.1c0.6-1.1,1.3-2,2.2-2.6
		c0.9-0.6,1.8-0.9,2.8-1c1,0,2,0.2,3,0.7c1,0.6,1.8,1.3,2.3,2.2c0.5,0.9,0.7,1.9,0.5,3c-0.1,1.1-0.5,2.2-1.3,3.4l-2-1.1l0.4-0.7
		c0.6-1.2,0.9-2.2,0.7-3c-0.1-0.8-0.6-1.5-1.5-1.9c-1-0.5-1.9-0.6-2.7-0.3c-0.8,0.4-1.6,1.1-2.2,2.3c-0.6,1.1-0.8,2.1-0.7,3
		c0.2,0.9,0.7,1.6,1.7,2.1c0.6,0.3,1.2,0.5,1.8,0.4c0.6,0,1.2-0.3,1.7-0.6l1.6,1.7c-0.9,0.7-1.9,1.1-3,1.2
		C366.3,370.5,365.3,370.3,364.3,369.8z M363.3,362.9l0.8-1.5l7.3,3.9l-0.8,1.5L363.3,362.9z"/>
</g>
<g class="st6">
	<path class="st1" d="M305.7,260.1c-2.6,0-4.8-0.6-6.5-1.7s-3.1-2.7-4-4.8c-0.9-2-1.4-4.4-1.4-7s0.5-5,1.4-7c0.9-2,2.3-3.6,4-4.8
		c1.8-1.1,3.9-1.7,6.5-1.7c3,0,5.5,0.8,7.4,2.3c1.9,1.5,3.2,3.6,3.9,6.2l-2.7,0.7c-0.6-2-1.5-3.7-3-4.9c-1.4-1.2-3.3-1.8-5.6-1.8
		c-2,0-3.7,0.5-5.1,1.4c-1.3,0.9-2.4,2.2-3,3.9c-0.7,1.6-1,3.6-1.1,5.7c0,2.2,0.3,4.1,1,5.7c0.7,1.6,1.7,2.9,3.1,3.9
		c1.4,0.9,3.1,1.4,5.1,1.4c2.3,0,4.2-0.6,5.6-1.8c1.4-1.2,2.4-2.8,3-4.9l2.7,0.7c-0.7,2.6-2,4.7-3.9,6.2
		C311.2,259.3,308.7,260.1,305.7,260.1z"/>
	<path class="st1" d="M326.5,260.1c-1.5,0-2.7-0.3-3.7-0.8s-1.7-1.2-2.2-2.1c-0.5-0.9-0.7-1.8-0.7-2.9c0-1.1,0.2-2,0.6-2.7
		c0.4-0.7,1-1.4,1.7-1.8s1.6-0.8,2.6-1.1c1-0.2,2.1-0.5,3.3-0.6c1.2-0.2,2.4-0.3,3.5-0.5c1.1-0.1,2.1-0.3,3-0.4l-0.9,0.6
		c0-1.9-0.3-3.3-1.1-4.3s-2.1-1.4-4.1-1.4c-1.3,0-2.5,0.3-3.4,0.9s-1.6,1.5-1.9,2.8l-2.6-0.8c0.4-1.7,1.3-3.1,2.7-4s3.1-1.4,5.2-1.4
		c1.8,0,3.3,0.3,4.5,1s2.1,1.6,2.6,2.9c0.2,0.6,0.4,1.2,0.5,1.9c0.1,0.7,0.1,1.4,0.1,2.1v12.1h-2.4v-4.9l0.7,0.3
		c-0.7,1.7-1.7,2.9-3.1,3.8S328.4,260.1,326.5,260.1z M326.8,257.8c1.2,0,2.3-0.2,3.2-0.7c0.9-0.4,1.7-1.1,2.2-1.8
		c0.6-0.8,0.9-1.6,1.1-2.6c0.1-0.6,0.2-1.3,0.2-2.1c0-0.7,0-1.3,0-1.7l1,0.5c-0.9,0.1-1.9,0.2-2.9,0.4c-1,0.1-2.1,0.3-3.1,0.4
		c-1,0.2-1.9,0.3-2.7,0.6c-0.6,0.2-1.1,0.4-1.6,0.7c-0.5,0.3-0.9,0.7-1.3,1.1c-0.3,0.5-0.5,1-0.5,1.7c0,0.6,0.1,1.1,0.4,1.6
		s0.7,1,1.4,1.3S325.8,257.8,326.8,257.8z"/>
	<path class="st1" d="M348.2,260.1c-2.3,0-4.2-0.5-5.6-1.5c-1.5-1-2.4-2.3-2.7-4.1l2.7-0.4c0.3,1.1,0.9,2,2,2.6c1,0.7,2.3,1,3.8,1
		c1.5,0,2.6-0.3,3.5-0.9s1.3-1.5,1.3-2.5c0-0.6-0.1-1.1-0.4-1.5c-0.3-0.4-0.8-0.7-1.6-1.1c-0.8-0.3-2.1-0.7-3.7-1.2
		c-1.8-0.5-3.1-1-4.1-1.4c-1-0.5-1.7-1-2.1-1.7c-0.4-0.6-0.6-1.4-0.6-2.3c0-1.1,0.3-2.1,0.9-2.9c0.6-0.8,1.5-1.5,2.6-1.9
		c1.1-0.5,2.4-0.7,3.8-0.7s2.8,0.2,3.9,0.7c1.2,0.5,2.1,1.1,2.8,2c0.7,0.9,1.1,1.8,1.3,3l-2.7,0.5c-0.2-1.1-0.7-2-1.7-2.7
		c-1-0.7-2.2-1-3.6-1c-1.4,0-2.5,0.2-3.4,0.8c-0.9,0.6-1.3,1.3-1.3,2.2c0,0.5,0.2,1,0.5,1.3c0.3,0.4,0.9,0.7,1.7,1
		c0.8,0.3,2,0.7,3.5,1.1c1.8,0.5,3.2,0.9,4.2,1.4c1,0.5,1.7,1.1,2.2,1.8s0.6,1.5,0.6,2.5c0,1.8-0.7,3.3-2,4.3
		S350.6,260.1,348.2,260.1z"/>
	<path class="st1" d="M367.9,260.1c-2,0-3.6-0.4-5-1.3c-1.4-0.9-2.4-2.1-3.1-3.6c-0.7-1.5-1.1-3.3-1.1-5.3c0-2,0.4-3.8,1.1-5.4
		s1.8-2.7,3.1-3.6c1.4-0.9,3-1.3,4.9-1.3c2,0,3.7,0.5,5.1,1.4c1.5,1,2.5,2.3,3,3.9l-2.6,0.8c-0.5-1.2-1.2-2.1-2.2-2.7
		c-1-0.6-2.1-1-3.4-1c-1.4,0-2.6,0.3-3.5,1s-1.6,1.6-2.1,2.7c-0.5,1.2-0.7,2.5-0.7,4c0,2.3,0.6,4.2,1.6,5.6s2.6,2.1,4.7,2.1
		c1.3,0,2.4-0.3,3.4-0.9c0.9-0.6,1.6-1.5,2.1-2.7l2.7,0.8c-0.7,1.7-1.8,3-3.2,3.9C371.4,259.6,369.8,260.1,367.9,260.1z"/>
	<path class="st1" d="M385.1,260.1c-1.5,0-2.7-0.3-3.7-0.8s-1.7-1.2-2.2-2.1c-0.5-0.9-0.7-1.8-0.7-2.9c0-1.1,0.2-2,0.6-2.7
		c0.4-0.7,1-1.4,1.7-1.8s1.6-0.8,2.6-1.1c1-0.2,2.1-0.5,3.3-0.6c1.2-0.2,2.4-0.3,3.5-0.5c1.1-0.1,2.1-0.3,3-0.4l-0.9,0.6
		c0-1.9-0.3-3.3-1.1-4.3s-2.1-1.4-4.1-1.4c-1.3,0-2.5,0.3-3.4,0.9s-1.6,1.5-1.9,2.8l-2.6-0.8c0.4-1.7,1.3-3.1,2.7-4s3.1-1.4,5.2-1.4
		c1.8,0,3.3,0.3,4.5,1s2.1,1.6,2.6,2.9c0.2,0.6,0.4,1.2,0.5,1.9c0.1,0.7,0.1,1.4,0.1,2.1v12.1h-2.4v-4.9l0.7,0.3
		c-0.7,1.7-1.7,2.9-3.1,3.8S387.1,260.1,385.1,260.1z M385.4,257.8c1.2,0,2.3-0.2,3.2-0.7c0.9-0.4,1.7-1.1,2.2-1.8
		c0.6-0.8,0.9-1.6,1.1-2.6c0.1-0.6,0.2-1.3,0.2-2.1c0-0.7,0-1.3,0-1.7l1,0.5c-0.9,0.1-1.9,0.2-2.9,0.4c-1,0.1-2.1,0.3-3.1,0.4
		c-1,0.2-1.9,0.3-2.7,0.6c-0.6,0.2-1.1,0.4-1.6,0.7c-0.5,0.3-0.9,0.7-1.3,1.1c-0.3,0.5-0.5,1-0.5,1.7c0,0.6,0.1,1.1,0.4,1.6
		s0.7,1,1.4,1.3S384.4,257.8,385.4,257.8z"/>
	<path class="st1" d="M407.1,260.1c-1.8,0-3.4-0.5-4.6-1.4c-1.3-0.9-2.3-2.1-2.9-3.7c-0.7-1.5-1-3.3-1-5.2c0-1.9,0.3-3.7,1-5.2
		s1.7-2.8,2.9-3.7c1.3-0.9,2.8-1.3,4.6-1.3c1.8,0,3.4,0.4,4.6,1.3c1.2,0.9,2.2,2.1,2.8,3.6s1,3.3,1,5.3c0,1.9-0.3,3.7-1,5.2
		c-0.6,1.6-1.6,2.8-2.8,3.7C410.4,259.6,408.9,260.1,407.1,260.1z M407.4,257.6c1.4,0,2.5-0.3,3.4-1s1.6-1.6,2-2.8
		c0.4-1.2,0.7-2.5,0.7-4c0-1.5-0.2-2.9-0.7-4c-0.4-1.2-1.1-2.1-2-2.7s-2-1-3.4-1c-1.4,0-2.5,0.3-3.5,1c-0.9,0.7-1.6,1.6-2,2.8
		s-0.7,2.5-0.7,4c0,1.5,0.2,2.8,0.7,4c0.4,1.2,1.1,2.1,2,2.8C404.9,257.3,406,257.6,407.4,257.6z M413.5,259.5v-14.6h-0.3v-11.3h2.7
		v25.9H413.5z"/>
	<path class="st1" d="M421.2,236.4v-3h2.6v3H421.2z M421.2,259.5v-19.4h2.6v19.4H421.2z"/>
	<path class="st1" d="M429.2,259.5v-19.4h2.4v4.8h0.3v14.6H429.2z M443.3,259.5v-9.9c0-1.1-0.1-2.1-0.3-3c-0.2-0.9-0.5-1.7-1-2.4
		c-0.4-0.7-1-1.2-1.7-1.6c-0.7-0.4-1.6-0.6-2.6-0.6c-0.9,0-1.8,0.2-2.5,0.5c-0.7,0.3-1.3,0.8-1.8,1.4s-0.9,1.3-1.1,2.2
		c-0.3,0.9-0.4,1.8-0.4,2.9l-1.9-0.4c0-2,0.3-3.7,1-5s1.7-2.4,2.9-3.1c1.2-0.7,2.6-1,4.2-1c1.2,0,2.2,0.2,3,0.5s1.6,0.8,2.2,1.5
		s1.1,1.3,1.5,2.1s0.6,1.6,0.8,2.5s0.3,1.8,0.3,2.6v10.7H443.3z"/>
	<path class="st1" d="M458.2,260.1c-1.8,0-3.4-0.5-4.6-1.4c-1.3-0.9-2.3-2.1-2.9-3.7c-0.7-1.5-1-3.3-1-5.2c0-1.9,0.3-3.7,1-5.2
		s1.7-2.8,2.9-3.7c1.3-0.9,2.8-1.3,4.6-1.3c1.8,0,3.4,0.4,4.6,1.3c1.2,0.9,2.2,2.1,2.8,3.6s1,3.3,1,5.3c0,1.9-0.3,3.7-1,5.2
		c-0.6,1.6-1.6,2.8-2.8,3.7C461.4,259.6,459.9,260.1,458.2,260.1z M458.3,268.7c-1,0-2-0.1-2.9-0.4c-1-0.3-1.9-0.8-2.7-1.4
		c-0.8-0.6-1.5-1.4-2-2.5l2.4-1.3c0.5,1.1,1.3,1.9,2.3,2.3s2,0.7,3,0.7c1.4,0,2.5-0.3,3.4-0.8s1.5-1.3,1.9-2.3s0.6-2.3,0.6-3.8V254
		h0.3v-13.9h2.4v19.1c0,0.6,0,1.1,0,1.6s-0.1,1-0.2,1.5c-0.2,1.5-0.7,2.6-1.4,3.6c-0.7,0.9-1.6,1.6-2.8,2.1
		C461.3,268.5,459.9,268.7,458.3,268.7z M458.4,257.6c1.4,0,2.5-0.3,3.4-1s1.6-1.6,2-2.8c0.4-1.2,0.7-2.5,0.7-4c0-1.5-0.2-2.9-0.7-4
		c-0.4-1.2-1.1-2.1-2-2.7s-2-1-3.4-1c-1.4,0-2.5,0.3-3.5,1c-0.9,0.7-1.6,1.6-2,2.8s-0.7,2.5-0.7,4c0,1.5,0.2,2.8,0.7,4
		c0.4,1.2,1.1,2.1,2,2.8C455.9,257.3,457.1,257.6,458.4,257.6z"/>
	<path class="st1" d="M489.6,260.1c-2.6,0-4.8-0.6-6.5-1.7s-3.1-2.7-4-4.8c-0.9-2-1.4-4.4-1.4-7s0.5-5,1.4-7c0.9-2,2.3-3.6,4-4.8
		c1.8-1.1,3.9-1.7,6.5-1.7c3,0,5.5,0.8,7.4,2.3c1.9,1.5,3.2,3.6,3.9,6.2l-2.7,0.7c-0.6-2-1.5-3.7-3-4.9c-1.4-1.2-3.3-1.8-5.6-1.8
		c-2,0-3.7,0.5-5.1,1.4c-1.3,0.9-2.4,2.2-3,3.9c-0.7,1.6-1,3.6-1.1,5.7c0,2.2,0.3,4.1,1,5.7c0.7,1.6,1.7,2.9,3.1,3.9
		c1.4,0.9,3.1,1.4,5.1,1.4c2.3,0,4.2-0.6,5.6-1.8c1.4-1.2,2.4-2.8,3-4.9l2.7,0.7c-0.7,2.6-2,4.7-3.9,6.2
		C495,259.3,492.6,260.1,489.6,260.1z"/>
	<path class="st1" d="M504.8,259.5v-25.9h2.4v14.6h0.3v11.3H504.8z M518.9,259.5v-9.9c0-1.1-0.1-2.1-0.3-3c-0.2-0.9-0.5-1.7-1-2.4
		c-0.4-0.7-1-1.2-1.7-1.6c-0.7-0.4-1.6-0.6-2.6-0.6c-0.9,0-1.8,0.2-2.5,0.5c-0.7,0.3-1.3,0.8-1.8,1.4s-0.9,1.3-1.1,2.2
		c-0.3,0.9-0.4,1.8-0.4,2.9l-1.9-0.4c0-2,0.3-3.7,1-5s1.7-2.4,2.9-3.1c1.2-0.7,2.6-1,4.2-1c1.2,0,2.2,0.2,3,0.5s1.6,0.8,2.2,1.5
		s1.1,1.3,1.5,2.1s0.6,1.6,0.8,2.5s0.3,1.8,0.3,2.6v10.7H518.9z"/>
	<path class="st1" d="M531.7,260.1c-1.5,0-2.7-0.3-3.7-0.8s-1.7-1.2-2.2-2.1c-0.5-0.9-0.7-1.8-0.7-2.9c0-1.1,0.2-2,0.6-2.7
		c0.4-0.7,1-1.4,1.7-1.8s1.6-0.8,2.6-1.1c1-0.2,2.1-0.5,3.3-0.6c1.2-0.2,2.4-0.3,3.5-0.5c1.1-0.1,2.1-0.3,3-0.4l-0.9,0.6
		c0-1.9-0.3-3.3-1.1-4.3s-2.1-1.4-4.1-1.4c-1.3,0-2.5,0.3-3.4,0.9s-1.6,1.5-1.9,2.8l-2.6-0.8c0.4-1.7,1.3-3.1,2.7-4s3.1-1.4,5.2-1.4
		c1.8,0,3.3,0.3,4.5,1s2.1,1.6,2.6,2.9c0.2,0.6,0.4,1.2,0.5,1.9c0.1,0.7,0.1,1.4,0.1,2.1v12.1h-2.4v-4.9l0.7,0.3
		c-0.7,1.7-1.7,2.9-3.1,3.8S533.7,260.1,531.7,260.1z M532,257.8c1.2,0,2.3-0.2,3.2-0.7c0.9-0.4,1.7-1.1,2.2-1.8
		c0.6-0.8,0.9-1.6,1.1-2.6c0.1-0.6,0.2-1.3,0.2-2.1c0-0.7,0-1.3,0-1.7l1,0.5c-0.9,0.1-1.9,0.2-2.9,0.4c-1,0.1-2.1,0.3-3.1,0.4
		c-1,0.2-1.9,0.3-2.7,0.6c-0.6,0.2-1.1,0.4-1.6,0.7c-0.5,0.3-0.9,0.7-1.3,1.1c-0.3,0.5-0.5,1-0.5,1.7c0,0.6,0.1,1.1,0.4,1.6
		s0.7,1,1.4,1.3S531,257.8,532,257.8z"/>
	<path class="st1" d="M546.5,236.4v-3h2.6v3H546.5z M546.5,259.5v-19.4h2.6v19.4H546.5z"/>
	<path class="st1" d="M554.5,259.5v-19.4h2.4v4.8h0.3v14.6H554.5z M568.6,259.5v-9.9c0-1.1-0.1-2.1-0.3-3c-0.2-0.9-0.5-1.7-1-2.4
		c-0.4-0.7-1-1.2-1.7-1.6c-0.7-0.4-1.6-0.6-2.6-0.6c-0.9,0-1.8,0.2-2.5,0.5c-0.7,0.3-1.3,0.8-1.8,1.4s-0.9,1.3-1.1,2.2
		c-0.3,0.9-0.4,1.8-0.4,2.9l-1.9-0.4c0-2,0.3-3.7,1-5s1.7-2.4,2.9-3.1c1.2-0.7,2.6-1,4.2-1c1.2,0,2.2,0.2,3,0.5s1.6,0.8,2.2,1.5
		s1.1,1.3,1.5,2.1s0.6,1.6,0.8,2.5s0.3,1.8,0.3,2.6v10.7H568.6z"/>
	<path class="st1" d="M589.8,254.8v-7.1h-7.1v-2.3h7.1v-7.1h2.3v7.1h7.1v2.3h-7.1v7.1H589.8z"/>
	<path class="st1" d="M617.9,259.5v-23.4h-9v-2.5h20.7v2.5h-9v23.4H617.9z"/>
	<path class="st1" d="M627.8,259.5l7.6-9.8l-7.4-9.6h3.2l5.8,7.6l5.8-7.6h3.2l-7.4,9.6l7.6,9.8h-3.2l-5.9-7.8l-6,7.8H627.8z"/>
	<path class="st1" d="M648.9,259.5v-25.9h10c0.3,0,0.5,0,0.9,0s0.6,0.1,1,0.1c1.4,0.2,2.5,0.7,3.4,1.4c0.9,0.7,1.7,1.7,2.1,2.8
		c0.5,1.1,0.7,2.3,0.7,3.7c0,1.3-0.2,2.6-0.7,3.7c-0.5,1.1-1.2,2-2.1,2.8c-0.9,0.7-2.1,1.2-3.4,1.4c-0.3,0-0.6,0.1-1,0.1
		c-0.3,0-0.6,0-0.9,0h-7.4v9.8H648.9z M651.6,247.2h7.3c0.2,0,0.5,0,0.8,0c0.3,0,0.6-0.1,0.8-0.1c0.9-0.2,1.6-0.6,2.2-1.1
		c0.6-0.5,1-1.2,1.3-1.9c0.3-0.7,0.4-1.5,0.4-2.3c0-0.8-0.1-1.6-0.4-2.3c-0.3-0.7-0.7-1.4-1.3-1.9c-0.6-0.5-1.3-0.9-2.2-1.1
		c-0.3-0.1-0.6-0.1-0.8-0.1s-0.5,0-0.8,0h-7.3V247.2z"/>
	<path class="st1" d="M678.6,260.1c-1.9,0-3.6-0.4-4.9-1.3s-2.4-2.1-3.1-3.6c-0.7-1.5-1.1-3.3-1.1-5.3c0-2,0.4-3.8,1.1-5.4
		s1.8-2.7,3.2-3.6c1.4-0.9,3-1.3,4.9-1.3c1.9,0,3.6,0.4,5,1.3c1.4,0.9,2.4,2.1,3.1,3.6s1.1,3.3,1.1,5.3c0,2-0.4,3.8-1.1,5.4
		c-0.7,1.5-1.8,2.7-3.2,3.6C682.2,259.6,680.5,260.1,678.6,260.1z M678.6,257.5c2.2,0,3.8-0.7,4.8-2.1c1.1-1.4,1.6-3.3,1.6-5.6
		c0-2.3-0.5-4.2-1.6-5.6c-1.1-1.4-2.7-2.1-4.8-2.1c-1.5,0-2.6,0.3-3.6,1s-1.6,1.6-2.1,2.7c-0.5,1.2-0.7,2.5-0.7,4
		c0,2.3,0.5,4.2,1.6,5.6S676.5,257.5,678.6,257.5z"/>
	<path class="st1" d="M696.3,259.5l-7.5-25.9h2.8l6.1,21.4l6-21.4l2.8,0l6.1,21.4l6-21.4h2.8l-7.5,25.9h-2.7l-6.1-21.2l-6.1,21.2
		H696.3z"/>
	<path class="st1" d="M729.4,242.4v-2.3h12.7v2.3H729.4z M742.1,259.5c-1.1,0.2-2.2,0.3-3.2,0.3c-1.1,0-2-0.3-2.8-0.7
		c-0.8-0.4-1.5-1-1.9-1.9c-0.3-0.7-0.5-1.4-0.6-2.2c0-0.7,0-1.6,0-2.5v-17.8h2.6v17.7c0,0.8,0,1.5,0,2c0,0.5,0.1,1,0.4,1.4
		c0.4,0.8,1.1,1.3,2.1,1.4c0.9,0.2,2.1,0.1,3.5-0.1V259.5z"/>
	<path class="st1" d="M745.9,259.5v-19.4h2.4v4.7l-0.5-0.6c0.2-0.6,0.5-1.1,0.8-1.6c0.3-0.5,0.7-0.9,1.1-1.2c0.5-0.4,1.1-0.8,1.8-1
		c0.7-0.2,1.3-0.4,2-0.4c0.7,0,1.3,0,1.9,0.2v2.5c-0.7-0.2-1.5-0.2-2.3-0.1c-0.8,0.1-1.6,0.4-2.3,1c-0.6,0.5-1.1,1.1-1.5,1.8
		c-0.3,0.7-0.5,1.4-0.6,2.2c-0.1,0.8-0.2,1.6-0.2,2.3v9.7H745.9z"/>
	<path class="st1" d="M766.8,260.1c-1.9,0-3.5-0.4-4.9-1.3s-2.5-2-3.2-3.5c-0.8-1.5-1.2-3.3-1.2-5.4c0-2.1,0.4-4,1.1-5.5
		s1.8-2.7,3.2-3.6c1.4-0.8,3-1.3,4.9-1.3c1.9,0,3.6,0.4,4.9,1.3c1.4,0.9,2.4,2.1,3.1,3.8c0.7,1.6,1,3.6,1,5.9h-2.7v-0.9
		c0-2.5-0.6-4.4-1.6-5.7c-1-1.3-2.6-1.9-4.5-1.9c-2.1,0-3.7,0.7-4.8,2s-1.7,3.3-1.7,5.8c0,2.4,0.6,4.3,1.7,5.7s2.7,2,4.7,2
		c1.4,0,2.6-0.3,3.6-1c1-0.6,1.9-1.6,2.5-2.8l2.5,1c-0.8,1.7-1.9,3-3.4,3.9C770.3,259.6,768.6,260.1,766.8,260.1z M759.3,250.6v-2.2
		h14.8v2.2H759.3z"/>
	<path class="st1" d="M787.8,260.1c-1.9,0-3.5-0.4-4.9-1.3s-2.5-2-3.2-3.5c-0.8-1.5-1.2-3.3-1.2-5.4c0-2.1,0.4-4,1.1-5.5
		s1.8-2.7,3.2-3.6c1.4-0.8,3-1.3,4.9-1.3c1.9,0,3.6,0.4,4.9,1.3c1.4,0.9,2.4,2.1,3.1,3.8c0.7,1.6,1,3.6,1,5.9h-2.7v-0.9
		c0-2.5-0.6-4.4-1.6-5.7c-1-1.3-2.6-1.9-4.5-1.9c-2.1,0-3.7,0.7-4.8,2s-1.7,3.3-1.7,5.8c0,2.4,0.6,4.3,1.7,5.7s2.7,2,4.7,2
		c1.4,0,2.6-0.3,3.6-1c1-0.6,1.9-1.6,2.5-2.8l2.5,1c-0.8,1.7-1.9,3-3.4,3.9C791.3,259.6,789.7,260.1,787.8,260.1z M780.3,250.6v-2.2
		h14.8v2.2H780.3z"/>
	<path class="st1" d="M817.1,266c-1.4-1.6-2.6-3.4-3.6-5.4c-1-2-1.8-4.1-2.3-6.3c-0.5-2.2-0.8-4.4-0.8-6.6c0-2.2,0.3-4.4,0.8-6.6
		c0.5-2.2,1.3-4.3,2.3-6.3c1-2,2.2-3.8,3.6-5.4l1.9,1.5c-1.4,1.7-2.6,3.4-3.5,5.2s-1.6,3.7-2.1,5.7c-0.5,1.9-0.7,3.9-0.7,5.9
		c0,2,0.3,3.9,0.7,5.9c0.5,2,1.2,3.9,2.1,5.7c0.9,1.8,2.1,3.6,3.5,5.2L817.1,266z"/>
	<path class="st1" d="M823.1,259.5v-25.9h10c1.5,0,2.7,0.3,3.8,0.9c1.1,0.6,1.9,1.4,2.5,2.4c0.6,1,0.9,2.1,0.9,3.4
		c0,1.4-0.4,2.6-1.1,3.7s-1.7,1.8-3,2.3l0-0.9c1.7,0.5,3,1.3,4,2.5c1,1.2,1.4,2.6,1.4,4.4c0,1.5-0.3,2.8-1,3.9
		c-0.6,1.1-1.5,1.9-2.7,2.5s-2.5,0.9-4,0.9H823.1z M825.7,244.7h7.3c0.8,0,1.6-0.2,2.3-0.6c0.7-0.4,1.2-0.9,1.6-1.6s0.6-1.4,0.6-2.3
		c0-1.2-0.4-2.2-1.3-3c-0.8-0.8-1.9-1.2-3.2-1.2h-7.3V244.7z M825.7,257h7.5c1.1,0,2-0.2,2.8-0.6c0.8-0.4,1.5-0.9,2-1.6
		s0.7-1.5,0.7-2.5c0-1-0.2-1.8-0.7-2.6c-0.4-0.8-1-1.4-1.8-1.8c-0.8-0.5-1.6-0.7-2.6-0.7h-8V257z"/>
	<path class="st1" d="M845.5,259.5v-26.4h2.6v26.4H845.5z"/>
	<path class="st1" d="M861.6,260.1c-1.9,0-3.6-0.4-4.9-1.3s-2.4-2.1-3.1-3.6c-0.7-1.5-1.1-3.3-1.1-5.3c0-2,0.4-3.8,1.1-5.4
		s1.8-2.7,3.2-3.6c1.4-0.9,3-1.3,4.9-1.3c1.9,0,3.6,0.4,5,1.3c1.4,0.9,2.4,2.1,3.1,3.6s1.1,3.3,1.1,5.3c0,2-0.4,3.8-1.1,5.4
		c-0.7,1.5-1.8,2.7-3.2,3.6C865.2,259.6,863.6,260.1,861.6,260.1z M861.6,257.5c2.2,0,3.8-0.7,4.8-2.1c1.1-1.4,1.6-3.3,1.6-5.6
		c0-2.3-0.5-4.2-1.6-5.6c-1.1-1.4-2.7-2.1-4.8-2.1c-1.5,0-2.6,0.3-3.6,1s-1.6,1.6-2.1,2.7c-0.5,1.2-0.7,2.5-0.7,4
		c0,2.3,0.5,4.2,1.6,5.6S859.5,257.5,861.6,257.5z"/>
	<path class="st1" d="M882.9,260.1c-2,0-3.6-0.4-5-1.3s-2.4-2.1-3.1-3.6c-0.7-1.5-1.1-3.3-1.1-5.3c0-2,0.4-3.8,1.1-5.4
		c0.7-1.5,1.8-2.7,3.1-3.6c1.4-0.9,3-1.3,4.9-1.3c2,0,3.7,0.5,5.1,1.4s2.5,2.3,3,3.9l-2.6,0.8c-0.5-1.2-1.2-2.1-2.2-2.7
		c-1-0.6-2.1-1-3.4-1c-1.4,0-2.6,0.3-3.5,1s-1.6,1.6-2.1,2.7c-0.5,1.2-0.7,2.5-0.7,4c0,2.3,0.6,4.2,1.6,5.6s2.6,2.1,4.7,2.1
		c1.3,0,2.4-0.3,3.4-0.9c0.9-0.6,1.6-1.5,2.1-2.7l2.7,0.8c-0.7,1.7-1.8,3-3.2,3.9C886.4,259.6,884.8,260.1,882.9,260.1z"/>
	<path class="st1" d="M894.7,259.5l0-25.9h2.7v15.8l8.7-9.3h3.5l-9.1,9.7l10.3,9.7h-3.8l-9.5-9.3v9.3H894.7z"/>
	<path class="st1" d="M920.2,260.1c-2,0-3.6-0.4-5-1.3s-2.4-2.1-3.1-3.6c-0.7-1.5-1.1-3.3-1.1-5.3c0-2,0.4-3.8,1.1-5.4
		c0.7-1.5,1.8-2.7,3.1-3.6c1.4-0.9,3-1.3,4.9-1.3c2,0,3.7,0.5,5.1,1.4s2.5,2.3,3,3.9l-2.6,0.8c-0.5-1.2-1.2-2.1-2.2-2.7
		c-1-0.6-2.1-1-3.4-1c-1.4,0-2.6,0.3-3.5,1s-1.6,1.6-2.1,2.7c-0.5,1.2-0.7,2.5-0.7,4c0,2.3,0.6,4.2,1.6,5.6s2.6,2.1,4.7,2.1
		c1.3,0,2.4-0.3,3.4-0.9c0.9-0.6,1.6-1.5,2.1-2.7l2.7,0.8c-0.7,1.7-1.8,3-3.2,3.9C923.8,259.6,922.2,260.1,920.2,260.1z"/>
	<path class="st1" d="M932.1,259.5v-25.9h2.4v14.6h0.3v11.3H932.1z M946.1,259.5v-9.9c0-1.1-0.1-2.1-0.3-3c-0.2-0.9-0.5-1.7-1-2.4
		s-1-1.2-1.7-1.6s-1.6-0.6-2.6-0.6c-0.9,0-1.8,0.2-2.5,0.5c-0.7,0.3-1.3,0.8-1.8,1.4s-0.9,1.3-1.1,2.2c-0.3,0.9-0.4,1.8-0.4,2.9
		l-1.9-0.4c0-2,0.3-3.7,1-5s1.7-2.4,2.9-3.1c1.2-0.7,2.6-1,4.2-1c1.2,0,2.2,0.2,3,0.5s1.6,0.8,2.2,1.5c0.6,0.6,1.1,1.3,1.5,2.1
		c0.4,0.8,0.6,1.6,0.8,2.5c0.2,0.9,0.3,1.8,0.3,2.6v10.7H946.1z"/>
	<path class="st1" d="M959,260.1c-1.5,0-2.7-0.3-3.7-0.8c-1-0.5-1.7-1.2-2.2-2.1c-0.5-0.9-0.7-1.8-0.7-2.9c0-1.1,0.2-2,0.6-2.7
		c0.4-0.7,1-1.4,1.7-1.8c0.7-0.5,1.6-0.8,2.6-1.1c1-0.2,2.1-0.5,3.3-0.6c1.2-0.2,2.4-0.3,3.5-0.5s2.1-0.3,3-0.4l-0.9,0.6
		c0-1.9-0.3-3.3-1.1-4.3s-2.1-1.4-4.1-1.4c-1.3,0-2.5,0.3-3.4,0.9s-1.6,1.5-1.9,2.8l-2.6-0.8c0.4-1.7,1.3-3.1,2.7-4s3.1-1.4,5.2-1.4
		c1.8,0,3.3,0.3,4.5,1c1.2,0.7,2.1,1.6,2.6,2.9c0.2,0.6,0.4,1.2,0.5,1.9c0.1,0.7,0.1,1.4,0.1,2.1v12.1h-2.4v-4.9l0.7,0.3
		c-0.7,1.7-1.7,2.9-3.1,3.8S960.9,260.1,959,260.1z M959.3,257.8c1.2,0,2.3-0.2,3.2-0.7s1.7-1.1,2.2-1.8s0.9-1.6,1.1-2.6
		c0.1-0.6,0.2-1.3,0.2-2.1s0-1.3,0-1.7l1,0.5c-0.9,0.1-1.9,0.2-2.9,0.4s-2.1,0.3-3.1,0.4c-1,0.2-1.9,0.3-2.7,0.6
		c-0.6,0.2-1.1,0.4-1.6,0.7c-0.5,0.3-0.9,0.7-1.3,1.1c-0.3,0.5-0.5,1-0.5,1.7c0,0.6,0.1,1.1,0.4,1.6s0.7,1,1.4,1.3
		C957.4,257.6,958.3,257.8,959.3,257.8z"/>
	<path class="st1" d="M973.8,236.4v-3h2.6v3H973.8z M973.8,259.5v-19.4h2.6v19.4H973.8z"/>
	<path class="st1" d="M981.8,259.5v-19.4h2.4v4.8h0.3v14.6H981.8z M995.8,259.5v-9.9c0-1.1-0.1-2.1-0.3-3c-0.2-0.9-0.5-1.7-1-2.4
		s-1-1.2-1.7-1.6s-1.6-0.6-2.6-0.6c-0.9,0-1.8,0.2-2.5,0.5c-0.7,0.3-1.3,0.8-1.8,1.4s-0.9,1.3-1.1,2.2c-0.3,0.9-0.4,1.8-0.4,2.9
		l-1.9-0.4c0-2,0.3-3.7,1-5s1.7-2.4,2.9-3.1c1.2-0.7,2.6-1,4.2-1c1.2,0,2.2,0.2,3,0.5s1.6,0.8,2.2,1.5c0.6,0.6,1.1,1.3,1.5,2.1
		c0.4,0.8,0.6,1.6,0.8,2.5c0.2,0.9,0.3,1.8,0.3,2.6v10.7H995.8z"/>
	<path class="st1" d="M1001.5,264.4c1.4-1.6,2.5-3.3,3.5-5.2s1.6-3.7,2.1-5.7c0.5-2,0.7-3.9,0.7-5.9c0-2-0.2-4-0.7-5.9
		c-0.5-1.9-1.2-3.8-2.1-5.7c-0.9-1.8-2.1-3.6-3.5-5.2l1.9-1.5c1.4,1.6,2.6,3.4,3.6,5.4c1,2,1.8,4.1,2.3,6.3c0.5,2.2,0.8,4.4,0.8,6.6
		c0,2.2-0.3,4.4-0.8,6.6c-0.5,2.2-1.3,4.3-2.3,6.3c-1,2-2.2,3.8-3.6,5.4L1001.5,264.4z"/>
</g>
<g>
	<line class="st0" x1="734.4" y1="847" x2="911.3" y2="847"/>
	<polygon class="st1" points="735.8,852 727.2,847 735.8,842 	"/>
	<polygon class="st1" points="909.9,852 918.5,847 909.9,842 	"/>
</g>
<g class="st6">
	<path class="st1" d="M798.7,872.3v-15.5h6.1c1,0,1.8,0.2,2.5,0.6c0.7,0.4,1.2,0.9,1.5,1.6s0.5,1.3,0.5,2c0,0.9-0.2,1.6-0.6,2.2
		c-0.4,0.6-1,1-1.7,1.3l0-0.5c1,0.2,1.8,0.7,2.3,1.4c0.5,0.7,0.8,1.5,0.8,2.5c0,0.9-0.2,1.7-0.5,2.4c-0.4,0.7-0.9,1.2-1.6,1.6
		s-1.5,0.6-2.5,0.6H798.7z M801,863.1h3.8c0.4,0,0.8-0.1,1.1-0.3c0.3-0.2,0.6-0.4,0.8-0.7c0.2-0.3,0.3-0.7,0.3-1.2
		c0-0.6-0.2-1.1-0.6-1.5c-0.4-0.4-0.9-0.6-1.6-0.6H801V863.1z M801,870.1h4.1c0.5,0,1-0.1,1.4-0.3c0.4-0.2,0.7-0.5,1-0.8
		s0.4-0.8,0.4-1.3c0-0.5-0.1-0.9-0.3-1.3s-0.5-0.7-0.9-0.9s-0.8-0.3-1.4-0.3H801V870.1z"/>
	<path class="st1" d="M812.2,872.3v-11.7h2v2.8l-0.3-0.4c0.1-0.4,0.3-0.7,0.6-1c0.2-0.3,0.5-0.6,0.8-0.8c0.3-0.2,0.6-0.4,1-0.5
		c0.4-0.1,0.7-0.2,1.1-0.2c0.4,0,0.7,0,1.1,0.1v2.1c-0.4-0.1-0.8-0.1-1.3-0.1c-0.5,0-0.9,0.2-1.3,0.4c-0.4,0.2-0.7,0.5-0.9,0.9
		c-0.2,0.3-0.4,0.7-0.5,1.1s-0.1,0.9-0.1,1.3v5.9H812.2z"/>
	<path class="st1" d="M823.5,872.6c-0.9,0-1.6-0.2-2.2-0.5c-0.6-0.3-1-0.7-1.3-1.3s-0.4-1.1-0.4-1.7c0-0.6,0.1-1.1,0.3-1.6
		c0.2-0.4,0.5-0.8,0.9-1.1c0.4-0.3,0.9-0.6,1.5-0.8c0.5-0.2,1.1-0.3,1.8-0.4s1.3-0.2,2.1-0.3s1.4-0.2,2.2-0.3l-0.8,0.5
		c0-0.9-0.2-1.6-0.6-2c-0.4-0.4-1.1-0.7-2.1-0.7c-0.6,0-1.2,0.1-1.7,0.4s-0.9,0.8-1.1,1.4l-2.1-0.6c0.3-1,0.8-1.8,1.6-2.4
		c0.8-0.6,1.9-0.9,3.2-0.9c1,0,2,0.2,2.7,0.5c0.8,0.4,1.3,0.9,1.7,1.7c0.2,0.4,0.3,0.8,0.3,1.2c0,0.4,0.1,0.9,0.1,1.4v7.2h-2v-2.7
		l0.4,0.3c-0.5,0.9-1.1,1.6-1.8,2C825.5,872.4,824.6,872.6,823.5,872.6z M823.9,870.8c0.6,0,1.2-0.1,1.7-0.3
		c0.5-0.2,0.8-0.5,1.1-0.9s0.5-0.7,0.5-1.1c0.1-0.3,0.2-0.7,0.2-1.2c0-0.4,0-0.8,0-1l0.7,0.3c-0.7,0.1-1.4,0.2-1.9,0.3
		c-0.6,0.1-1.1,0.2-1.6,0.3c-0.5,0.1-0.9,0.2-1.3,0.3c-0.3,0.1-0.6,0.2-0.8,0.4c-0.2,0.2-0.4,0.3-0.6,0.6c-0.1,0.2-0.2,0.5-0.2,0.8
		c0,0.3,0.1,0.6,0.2,0.8c0.2,0.3,0.4,0.5,0.7,0.6S823.4,870.8,823.9,870.8z"/>
	<path class="st1" d="M832.5,872.3v-11.7h2v3.4h0.3v8.3H832.5z M840.7,872.3v-5.7c0-0.5,0-0.9-0.1-1.4c-0.1-0.5-0.2-0.9-0.4-1.3
		c-0.2-0.4-0.5-0.7-0.9-1s-0.9-0.4-1.5-0.4c-0.4,0-0.8,0.1-1.1,0.2c-0.4,0.1-0.7,0.3-0.9,0.6s-0.5,0.7-0.6,1.2
		c-0.2,0.5-0.2,1.1-0.2,1.8l-1.4-0.5c0-1.1,0.2-2,0.6-2.8s1-1.4,1.7-1.9c0.7-0.5,1.6-0.7,2.7-0.7c0.8,0,1.5,0.1,2,0.4
		c0.5,0.3,1,0.6,1.3,1s0.6,0.9,0.8,1.4c0.2,0.5,0.3,1,0.4,1.5s0.1,0.9,0.1,1.3v6.5H840.7z"/>
	<path class="st1" d="M850.6,872.6c-1.2,0-2.2-0.3-3-0.8c-0.8-0.5-1.5-1.3-1.9-2.2s-0.7-2-0.7-3.2c0-1.2,0.2-2.3,0.7-3.2
		c0.5-0.9,1.1-1.6,1.9-2.2c0.8-0.5,1.9-0.8,3-0.8c1.3,0,2.4,0.3,3.3,0.9c0.9,0.6,1.5,1.5,1.8,2.6l-2.2,0.6c-0.2-0.7-0.6-1.2-1.1-1.5
		c-0.5-0.4-1.1-0.5-1.7-0.5c-0.7,0-1.3,0.2-1.8,0.5c-0.5,0.3-0.8,0.8-1.1,1.4s-0.3,1.3-0.4,2.1c0,1.2,0.3,2.2,0.8,2.9
		s1.3,1.1,2.4,1.1c0.7,0,1.3-0.2,1.8-0.5c0.4-0.3,0.8-0.8,1-1.4l2.3,0.5c-0.4,1.1-1,2-1.9,2.6C852.9,872.3,851.8,872.6,850.6,872.6z
		"/>
	<path class="st1" d="M857.9,872.3v-15.5h2v8.4h0.3v7.2H857.9z M866.1,872.3v-5.7c0-0.5,0-0.9-0.1-1.4c-0.1-0.5-0.2-0.9-0.4-1.3
		c-0.2-0.4-0.5-0.7-0.9-1s-0.9-0.4-1.5-0.4c-0.4,0-0.8,0.1-1.1,0.2c-0.4,0.1-0.7,0.3-0.9,0.6s-0.5,0.7-0.6,1.2
		c-0.2,0.5-0.2,1.1-0.2,1.8l-1.4-0.5c0-1.1,0.2-2,0.6-2.8s1-1.4,1.7-1.9c0.7-0.5,1.6-0.7,2.7-0.7c0.8,0,1.5,0.1,2,0.4
		c0.5,0.3,1,0.6,1.3,1s0.6,0.9,0.8,1.4c0.2,0.5,0.3,1,0.4,1.5s0.1,0.9,0.1,1.3v6.5H866.1z"/>
</g>
<line class="st0" x1="770" y1="614.3" x2="770" y2="743.4"/>
<line class="st0" x1="902.6" y1="672.5" x2="934.5" y2="672.5"/>
<polygon class="st3" points="822.9,632.6 886.6,632.6 902.6,648.5 838.8,648.5 "/>
<g>
	<polygon class="st7" points="822.9,632.6 886.6,632.6 902.6,648.5 902.6,712.3 838.8,712.3 822.9,696.4 	"/>
	<polygon class="st0" points="822.9,632.6 886.6,632.6 902.6,648.5 902.6,712.3 838.8,712.3 822.9,696.4 	"/>
	<polygon class="st4" points="822.9,632.6 838.8,648.5 838.8,712.3 822.9,696.4 	"/>
	<path class="st0" d="M838.8,648.5h63.8 M838.8,712.3v-63.8l-15.9-15.9"/>
</g>
<g>
	<polygon class="st7" points="822.9,436.5 886.6,436.5 902.6,452.5 902.6,516.2 838.8,516.2 822.9,500.3 	"/>
	<polygon class="st0" points="822.9,436.5 886.6,436.5 902.6,452.5 902.6,516.2 838.8,516.2 822.9,500.3 	"/>
	<polygon class="st4" points="822.9,436.5 838.8,452.5 838.8,516.2 822.9,500.3 	"/>
	<path class="st0" d="M838.8,452.5h63.8 M838.8,516.2v-63.8l-15.9-15.9"/>
</g>
<polygon class="st7" points="918.5,632.6 982.3,632.6 998.2,648.5 998.2,712.3 934.5,712.3 918.5,696.4 "/>
<polygon class="st0" points="918.5,632.6 982.3,632.6 998.2,648.5 998.2,712.3 934.5,712.3 918.5,696.4 "/>
<polygon class="st3" points="918.5,632.6 982.3,632.6 998.2,648.5 934.5,648.5 "/>
<polygon class="st4" points="918.5,632.6 934.5,648.5 934.5,712.3 918.5,696.4 "/>
<path class="st0" d="M934.5,648.5h63.8 M934.5,712.3v-63.8l-15.9-15.9"/>
<g>
	<polygon class="st8" points="137.4,328 201.2,328 217.1,344 217.1,407.7 153.3,407.7 137.4,391.8 	"/>
	<polygon class="st0" points="137.4,328 201.2,328 217.1,344 217.1,407.7 153.3,407.7 137.4,391.8 	"/>
	<polygon class="st3" points="137.4,328 201.2,328 217.1,344 153.3,344 	"/>
	<polygon class="st4" points="137.4,328 153.3,344 153.3,407.7 137.4,391.8 	"/>
	<path class="st0" d="M153.3,344h63.8 M153.3,407.7V344L137.4,328"/>
</g>
<g>
	<polygon class="st8" points="328.7,431.2 392.5,431.2 408.4,447.1 408.4,510.9 344.6,510.9 328.7,494.9 	"/>
	<polygon class="st0" points="328.7,431.2 392.5,431.2 408.4,447.1 408.4,510.9 344.6,510.9 328.7,494.9 	"/>
	<polygon class="st3" points="328.7,431.2 392.5,431.2 408.4,447.1 344.6,447.1 	"/>
	<polygon class="st4" points="328.7,431.2 344.6,447.1 344.6,510.9 328.7,494.9 	"/>
	<path class="st0" d="M344.6,447.1h63.8 M344.6,510.9v-63.8l-15.9-15.9"/>
</g>
<g>
	<polygon class="st8" points="424.3,482.8 488.1,482.8 504,498.7 504,562.5 440.3,562.5 424.3,546.5 	"/>
	<polygon class="st0" points="424.3,482.8 488.1,482.8 504,498.7 504,562.5 440.3,562.5 424.3,546.5 	"/>
	<polygon class="st3" points="424.3,482.8 488.1,482.8 504,498.7 440.3,498.7 	"/>
	<polygon class="st4" points="424.3,482.8 440.3,498.7 440.3,562.5 424.3,546.5 	"/>
	<path class="st0" d="M440.3,498.7H504 M440.3,562.5v-63.8l-15.9-15.9"/>
</g>
<g>
	<polygon class="st8" points="233.1,379.6 296.8,379.6 312.8,395.5 312.8,459.3 249,459.3 233.1,443.4 	"/>
	<polygon class="st0" points="233.1,379.6 296.8,379.6 312.8,395.5 312.8,459.3 249,459.3 233.1,443.4 	"/>
	<polygon class="st3" points="233.1,379.6 296.8,379.6 312.8,395.5 249,395.5 	"/>
	<polygon class="st4" points="233.1,379.6 249,395.5 249,459.3 233.1,443.4 	"/>
	<path class="st0" d="M249,395.5h63.8 M249,459.3v-63.8l-15.9-15.9"/>
</g>
<polygon class="st9" points="9.9,268 105.5,268 121.5,284 121.5,379.6 25.8,379.6 9.9,363.7 "/>
<polygon class="st0" points="9.9,268 105.5,268 121.5,284 121.5,379.6 25.8,379.6 9.9,363.7 "/>
<polygon class="st3" points="9.9,268 105.5,268 121.5,284 25.8,284 "/>
<polygon class="st4" points="9.9,268 25.8,284 25.8,379.6 9.9,363.7 "/>
<path class="st0" d="M25.8,284h95.6 M25.8,379.6V284L9.9,268"/>
<g class="st6">
	<path class="st5" d="M40.3,337.6c-0.8,0-1.6-0.1-2.3-0.4s-1.3-0.7-1.9-1.3c-0.5-0.6-0.9-1.3-1.2-2.1c-0.3-0.8-0.4-1.7-0.4-2.8
		c0-1.4,0.2-2.5,0.7-3.5s1.2-1.7,2.1-2.3c0.9-0.5,1.9-0.8,3.1-0.8c1.5,0,2.7,0.3,3.6,1s1.5,1.6,1.8,2.9l-1.9,0.3
		c-0.3-0.8-0.7-1.4-1.2-1.8c-0.6-0.4-1.3-0.7-2.2-0.7c-0.9,0-1.6,0.2-2.2,0.6s-1,1-1.3,1.7c-0.3,0.7-0.5,1.6-0.5,2.5
		c0,1,0.1,1.8,0.4,2.5c0.3,0.7,0.7,1.3,1.3,1.7s1.3,0.6,2.2,0.6c0.7,0,1.3-0.1,1.9-0.4s0.9-0.7,1.2-1.2c0.3-0.5,0.5-1.2,0.6-2h-2.5
		v-1.5H46c0,0.1,0,0.2,0,0.4c0,0.2,0,0.3,0,0.3c0,1.2-0.2,2.2-0.7,3.1c-0.4,0.9-1.1,1.6-2,2.2C42.6,337.4,41.5,337.6,40.3,337.6z"/>
	<path class="st5" d="M47.8,337.4v-12.6h8.1v1.7h-6.2v3.5h5.2v1.7h-5.2v3.9h6.2v1.7H47.8z"/>
	<path class="st5" d="M58,337.4v-12.6h1.9l6.2,9.4v-9.4h1.9v12.6H66l-6.2-9.4v9.4H58z"/>
	<path class="st5" d="M70.4,337.4v-12.6h8.1v1.7h-6.2v3.5h5.2v1.7h-5.2v3.9h6.2v1.7H70.4z"/>
	<path class="st5" d="M84.9,337.6c-0.9,0-1.7-0.2-2.4-0.5s-1.3-0.8-1.8-1.3s-0.8-1.3-0.9-2.1l1.9-0.3c0.2,0.8,0.6,1.4,1.2,1.8
		c0.6,0.4,1.3,0.6,2.1,0.6c0.5,0,1-0.1,1.4-0.2c0.4-0.2,0.8-0.4,1-0.7c0.3-0.3,0.4-0.7,0.4-1.1c0-0.2,0-0.4-0.1-0.6
		c-0.1-0.2-0.2-0.3-0.3-0.5c-0.1-0.1-0.3-0.2-0.5-0.3c-0.2-0.1-0.4-0.2-0.6-0.2l-3.2-1c-0.3-0.1-0.6-0.2-1-0.4
		c-0.3-0.1-0.6-0.3-0.9-0.6c-0.3-0.2-0.5-0.5-0.7-0.9s-0.3-0.8-0.3-1.3c0-0.8,0.2-1.4,0.6-2c0.4-0.5,0.9-0.9,1.6-1.2
		c0.7-0.3,1.4-0.4,2.3-0.4c0.9,0,1.6,0.2,2.3,0.5c0.7,0.3,1.2,0.7,1.7,1.3c0.4,0.5,0.8,1.2,0.9,2l-2,0.3c-0.1-0.5-0.3-0.9-0.6-1.2
		c-0.3-0.3-0.6-0.6-1.1-0.8c-0.4-0.2-0.9-0.3-1.4-0.3c-0.5,0-0.9,0.1-1.3,0.2c-0.4,0.2-0.7,0.4-0.9,0.6c-0.2,0.3-0.3,0.6-0.3,0.9
		c0,0.4,0.1,0.6,0.3,0.9s0.5,0.4,0.8,0.5c0.3,0.1,0.6,0.2,0.9,0.3l2.3,0.7c0.3,0.1,0.6,0.2,1,0.3c0.4,0.1,0.7,0.3,1.1,0.6
		s0.6,0.6,0.9,1s0.3,0.9,0.3,1.5c0,0.6-0.1,1.2-0.4,1.7c-0.3,0.5-0.6,0.9-1.1,1.2c-0.4,0.3-1,0.6-1.5,0.7S85.5,337.6,84.9,337.6z"/>
	<path class="st5" d="M91.7,337.4v-12.6h1.8v12.6H91.7z"/>
	<path class="st5" d="M100.8,337.6c-0.9,0-1.7-0.2-2.4-0.5s-1.3-0.8-1.8-1.3s-0.8-1.3-0.9-2.1l1.9-0.3c0.2,0.8,0.6,1.4,1.2,1.8
		c0.6,0.4,1.3,0.6,2.1,0.6c0.5,0,1-0.1,1.4-0.2c0.4-0.2,0.8-0.4,1-0.7c0.3-0.3,0.4-0.7,0.4-1.1c0-0.2,0-0.4-0.1-0.6
		c-0.1-0.2-0.2-0.3-0.3-0.5c-0.1-0.1-0.3-0.2-0.5-0.3c-0.2-0.1-0.4-0.2-0.6-0.2l-3.2-1c-0.3-0.1-0.6-0.2-1-0.4
		c-0.3-0.1-0.6-0.3-0.9-0.6c-0.3-0.2-0.5-0.5-0.7-0.9s-0.3-0.8-0.3-1.3c0-0.8,0.2-1.4,0.6-2c0.4-0.5,0.9-0.9,1.6-1.2
		c0.7-0.3,1.4-0.4,2.3-0.4c0.9,0,1.6,0.2,2.3,0.5c0.7,0.3,1.2,0.7,1.7,1.3c0.4,0.5,0.8,1.2,0.9,2l-2,0.3c-0.1-0.5-0.3-0.9-0.6-1.2
		c-0.3-0.3-0.6-0.6-1.1-0.8c-0.4-0.2-0.9-0.3-1.4-0.3c-0.5,0-0.9,0.1-1.3,0.2c-0.4,0.2-0.7,0.4-0.9,0.6c-0.2,0.3-0.3,0.6-0.3,0.9
		c0,0.4,0.1,0.6,0.3,0.9s0.5,0.4,0.8,0.5c0.3,0.1,0.6,0.2,0.9,0.3l2.3,0.7c0.3,0.1,0.6,0.2,1,0.3c0.4,0.1,0.7,0.3,1.1,0.6
		s0.6,0.6,0.9,1s0.3,0.9,0.3,1.5c0,0.6-0.1,1.2-0.4,1.7c-0.3,0.5-0.6,0.9-1.1,1.2c-0.4,0.3-1,0.6-1.5,0.7S101.4,337.6,100.8,337.6z"
		/>
</g>
</svg>
