<?xml version="1.0" encoding="UTF-8"?><svg id="a" xmlns="http://www.w3.org/2000/svg" viewBox="0 0 1237.45 683.24"><defs><style>.b{opacity:.05;}.c{opacity:.1;}.d{fill:#ff9682;}.e{fill:#bdbdc4;}.f{fill:#accaff;}.g{fill:#363a3f;}.h{fill:none;stroke:#363a3f;stroke-miterlimit:10;}</style></defs><line class="h" x1="865.66" y1="294.93" x2="865.66" y2="424.05"/><line class="h" x1="105.52" y1="115.55" x2="542.61" y2="350.91"/><path class="g" d="M517.43,231.17v-3.19h3.19v3.19m-3.19,12.75v-3.19h3.19v3.19m-3.19,12.75v-3.19h3.19v3.19m-3.19,12.75v-3.19h3.19v3.19m-3.19,12.75v-3.19h3.19v3.19m-3.19,12.75v-3.19h3.19v3.19m-3.19,12.75v-3.19h3.19v3.19m-3.19,12.75v-3.19h3.19v3.19m-3.19,12.75v-3.19h3.19v3.19m-3.19,12.75v-3.19h3.19v3.19m-3.19,12.75v-3.19h3.19v3.19m-3.19,12.75v-3.19h3.19v3.19m-3.19,12.75v-3.19h3.19v3.19m-3.19,12.75v-3.19h3.19v3.19m-3.19,12.75v-3.19h3.19v3.19m-3.19,12.75v-3.19h3.19v3.19m-3.19,12.75v-3.19h3.19v3.19m-3.19,12.75v-3.19h3.19v3.19m-3.19,12.75v-3.19h3.19v3.19"/><g><polygon class="f" points="535.93 318.04 599.69 318.04 615.63 333.98 615.63 397.75 551.87 397.75 535.93 381.81 535.93 318.04"/><polygon class="h" points="535.93 318.04 599.69 318.04 615.63 333.98 615.63 397.75 551.87 397.75 535.93 381.81 535.93 318.04"/><polygon class="b" points="535.93 318.04 599.69 318.04 615.63 333.98 551.87 333.98 535.93 318.04"/><polygon class="c" points="535.93 318.04 551.87 333.98 551.87 397.75 535.93 381.81 535.93 318.04"/><path class="h" d="M551.87,333.98h63.76m-63.76,63.76v-63.76l-15.94-15.94"/></g><g><path class="g" d="M569.91,360.29v-10.9h-4.2v-1.73h10.23v1.73h-4.2v10.9h-1.83Z"/><path class="g" d="M577.34,360.29v-9.47h1.63v2.3l-.23-.3c.12-.3,.27-.58,.46-.84,.19-.25,.4-.46,.65-.63,.24-.18,.51-.31,.8-.41,.29-.1,.6-.15,.91-.18s.61,0,.89,.05v1.72c-.31-.08-.65-.1-1.03-.07-.38,.04-.72,.16-1.04,.36-.3,.19-.53,.43-.71,.7-.17,.27-.3,.58-.37,.92-.08,.34-.11,.69-.11,1.06v4.78h-1.85Z"/><path class="g" d="M588.32,360.55c-.94,0-1.77-.21-2.48-.62-.71-.41-1.26-.99-1.66-1.73s-.59-1.6-.59-2.57c0-1.03,.19-1.93,.58-2.69s.93-1.35,1.63-1.76c.7-.41,1.5-.62,2.43-.62s1.79,.22,2.46,.67,1.18,1.08,1.52,1.91c.34,.82,.47,1.8,.4,2.94h-1.83v-.67c-.01-1.1-.22-1.91-.63-2.44-.41-.53-1.02-.79-1.85-.79-.92,0-1.61,.29-2.07,.87s-.69,1.41-.69,2.51,.23,1.85,.69,2.42c.46,.57,1.13,.85,2,.85,.57,0,1.07-.13,1.49-.39,.42-.26,.74-.63,.98-1.12l1.8,.57c-.37,.85-.93,1.5-1.67,1.97-.75,.46-1.58,.7-2.5,.7Zm-3.38-4.48v-1.43h6.76v1.43h-6.76Z"/><path class="g" d="M598.77,360.55c-.94,0-1.77-.21-2.48-.62-.71-.41-1.26-.99-1.66-1.73s-.59-1.6-.59-2.57c0-1.03,.19-1.93,.58-2.69s.93-1.35,1.63-1.76c.7-.41,1.5-.62,2.43-.62s1.79,.22,2.46,.67,1.18,1.08,1.52,1.91c.34,.82,.47,1.8,.4,2.94h-1.83v-.67c-.01-1.1-.22-1.91-.63-2.44-.41-.53-1.02-.79-1.85-.79-.92,0-1.61,.29-2.07,.87s-.69,1.41-.69,2.51,.23,1.85,.69,2.42c.46,.57,1.13,.85,2,.85,.57,0,1.07-.13,1.49-.39,.42-.26,.74-.63,.98-1.12l1.8,.57c-.37,.85-.93,1.5-1.67,1.97-.75,.46-1.58,.7-2.5,.7Zm-3.38-4.48v-1.43h6.76v1.43h-6.76Z"/><path class="g" d="M561.92,381.32v-12.62h5.1c.12,0,.27,0,.46,.01,.18,0,.35,.03,.52,.06,.7,.11,1.29,.35,1.76,.72s.82,.83,1.06,1.39c.23,.56,.35,1.18,.35,1.86,0,1.01-.26,1.87-.77,2.6-.51,.73-1.29,1.18-2.31,1.36l-.75,.09h-3.58v4.53h-1.83Zm1.83-6.27h3.2c.12,0,.25,0,.39-.02,.14-.01,.28-.03,.41-.06,.37-.09,.67-.25,.9-.49,.23-.24,.39-.51,.49-.82,.1-.31,.15-.62,.15-.93s-.05-.62-.15-.92c-.1-.31-.26-.58-.49-.81-.23-.24-.53-.4-.9-.49-.13-.04-.26-.06-.41-.07-.14-.01-.27-.02-.39-.02h-3.2v4.63Zm5.55,6.27l-2.49-5.14,1.85-.47,2.74,5.61h-2.09Z"/><path class="g" d="M578.59,381.59c-1.26,0-2.34-.28-3.23-.83s-1.57-1.32-2.04-2.31c-.47-.99-.71-2.13-.71-3.44s.23-2.45,.71-3.44,1.15-1.76,2.04-2.31,1.96-.83,3.23-.83,2.33,.28,3.22,.83c.89,.55,1.57,1.32,2.04,2.31s.7,2.13,.7,3.44-.23,2.45-.7,3.44c-.47,.99-1.15,1.76-2.04,2.31-.89,.55-1.96,.83-3.22,.83Zm0-1.74c.89,.01,1.64-.19,2.23-.59,.59-.41,1.04-.97,1.34-1.7s.45-1.57,.45-2.54-.15-1.81-.45-2.53-.74-1.28-1.34-1.69c-.59-.4-1.34-.61-2.23-.61-.89-.01-1.64,.18-2.23,.59s-1.04,.97-1.34,1.7-.45,1.58-.46,2.54,.14,1.81,.44,2.53c.3,.72,.75,1.28,1.35,1.69,.6,.4,1.35,.61,2.24,.61Z"/><path class="g" d="M591.58,381.59c-1.26,0-2.34-.28-3.23-.83s-1.57-1.32-2.04-2.31c-.47-.99-.71-2.13-.71-3.44s.23-2.45,.71-3.44,1.15-1.76,2.04-2.31,1.96-.83,3.23-.83,2.33,.28,3.22,.83c.89,.55,1.57,1.32,2.04,2.31s.7,2.13,.7,3.44-.23,2.45-.7,3.44c-.47,.99-1.15,1.76-2.04,2.31-.89,.55-1.96,.83-3.22,.83Zm0-1.74c.89,.01,1.64-.19,2.23-.59,.59-.41,1.04-.97,1.34-1.7s.45-1.57,.45-2.54-.15-1.81-.45-2.53-.74-1.28-1.34-1.69c-.59-.4-1.34-.61-2.23-.61-.89-.01-1.64,.18-2.23,.59s-1.04,.97-1.34,1.7-.45,1.58-.46,2.54,.14,1.81,.44,2.53c.3,.72,.75,1.28,1.35,1.69,.6,.4,1.35,.61,2.24,.61Z"/><path class="g" d="M602.44,381.32v-10.9h-4.2v-1.73h10.23v1.73h-4.2v10.9h-1.83Z"/></g><g><polygon class="f" points="631.57 318.04 695.33 318.04 711.28 333.98 711.28 397.75 647.51 397.75 631.57 381.81 631.57 318.04"/><polygon class="h" points="631.57 318.04 695.33 318.04 711.28 333.98 711.28 397.75 647.51 397.75 631.57 381.81 631.57 318.04"/><polygon class="b" points="631.57 318.04 695.33 318.04 711.28 333.98 647.51 333.98 631.57 318.04"/><polygon class="c" points="631.57 318.04 647.51 333.98 647.51 397.75 631.57 381.81 631.57 318.04"/><path class="h" d="M647.51,333.98h63.76m-63.76,63.76v-63.76l-15.94-15.94"/></g><g><polygon class="f" points="727.22 318.04 790.98 318.04 806.92 333.98 806.92 397.75 743.16 397.75 727.22 381.81 727.22 318.04"/><polygon class="h" points="727.22 318.04 790.98 318.04 806.92 333.98 806.92 397.75 743.16 397.75 727.22 381.81 727.22 318.04"/><polygon class="b" points="727.22 318.04 790.98 318.04 806.92 333.98 743.16 333.98 727.22 318.04"/><polygon class="c" points="727.22 318.04 743.16 333.98 743.16 397.75 727.22 381.81 727.22 318.04"/><path class="h" d="M743.16,333.98h63.76m-63.76,63.76v-63.76l-15.94-15.94"/></g><g><polygon class="f" points="822.86 318.04 886.63 318.04 902.57 333.98 902.57 397.75 838.8 397.75 822.86 381.81 822.86 318.04"/><polygon class="h" points="822.86 318.04 886.63 318.04 902.57 333.98 902.57 397.75 838.8 397.75 822.86 381.81 822.86 318.04"/><polygon class="b" points="822.86 318.04 886.63 318.04 902.57 333.98 838.8 333.98 822.86 318.04"/><polygon class="c" points="822.86 318.04 838.8 333.98 838.8 397.75 822.86 381.81 822.86 318.04"/><path class="h" d="M838.8,333.98h63.76m-63.76,63.76v-63.76l-15.94-15.94"/></g><g><polygon class="f" points="1014.15 318.04 1077.92 318.04 1093.86 333.98 1093.86 397.75 1030.09 397.75 1014.15 381.81 1014.15 318.04"/><polygon class="h" points="1014.15 318.04 1077.92 318.04 1093.86 333.98 1093.86 397.75 1030.09 397.75 1014.15 381.81 1014.15 318.04"/><polygon class="b" points="1014.15 318.04 1077.92 318.04 1093.86 333.98 1030.09 333.98 1014.15 318.04"/><polygon class="c" points="1014.15 318.04 1030.09 333.98 1030.09 397.75 1014.15 381.81 1014.15 318.04"/><path class="h" d="M1030.09,333.98h63.76m-63.76,63.76v-63.76l-15.94-15.94"/></g><g><path class="g" d="M1049.97,371.45v-10.9h-4.2v-1.73h10.23v1.73h-4.2v10.9h-1.83Z"/><path class="g" d="M1057.58,371.45v-12.62h1.83v12.62h-1.83Z"/><path class="g" d="M1062.04,371.45v-12.62h5.1c.12,0,.27,0,.46,.01,.18,0,.35,.03,.52,.06,.7,.11,1.29,.35,1.76,.72s.82,.83,1.06,1.39c.23,.56,.35,1.18,.35,1.86s-.12,1.31-.35,1.87c-.23,.56-.59,1.03-1.06,1.39s-1.06,.61-1.76,.72c-.16,.02-.34,.04-.52,.05-.18,.01-.33,.02-.45,.02h-3.27v4.53h-1.83Zm1.83-6.27h3.2c.12,0,.25,0,.39-.02,.14-.01,.28-.03,.41-.06,.37-.09,.67-.25,.9-.49,.23-.24,.39-.51,.49-.82,.1-.31,.15-.62,.15-.93s-.05-.62-.15-.92c-.1-.31-.26-.58-.49-.81-.23-.24-.53-.4-.9-.49-.13-.04-.26-.06-.41-.07-.14-.01-.27-.02-.39-.02h-3.2v4.63Z"/></g><line class="h" x1="806.92" y1="558.75" x2="838.8" y2="558.75"/><polygon class="e" points="727.22 518.9 790.98 518.9 806.92 534.84 806.92 598.6 743.16 598.6 727.22 582.66 727.22 518.9"/><polygon class="h" points="727.22 518.9 790.98 518.9 806.92 534.84 806.92 598.6 743.16 598.6 727.22 582.66 727.22 518.9"/><polygon class="b" points="727.22 518.9 790.98 518.9 806.92 534.84 743.16 534.84 727.22 518.9"/><polygon class="c" points="727.22 518.9 743.16 534.84 743.16 598.6 727.22 582.66 727.22 518.9"/><path class="h" d="M743.16,534.84h63.76m-63.76,63.76v-63.76l-15.94-15.94"/><polygon class="e" points="822.86 518.9 886.63 518.9 902.57 534.84 902.57 598.6 838.8 598.6 822.86 582.66 822.86 518.9"/><polygon class="h" points="822.86 518.9 886.63 518.9 902.57 534.84 902.57 598.6 838.8 598.6 822.86 582.66 822.86 518.9"/><polygon class="b" points="822.86 518.9 886.63 518.9 902.57 534.84 838.8 534.84 822.86 518.9"/><polygon class="c" points="822.86 518.9 838.8 534.84 838.8 598.6 822.86 582.66 822.86 518.9"/><path class="h" d="M838.8,534.84h63.76m-63.76,63.76v-63.76l-15.94-15.94"/><g><line class="h" x1="615.63" y1="357.9" x2="631.57" y2="357.9"/><line class="h" x1="711.28" y1="357.9" x2="727.22" y2="357.9"/><line class="h" x1="806.92" y1="357.9" x2="822.86" y2="357.9"/><line class="h" x1="902.57" y1="357.9" x2="918.51" y2="357.9"/><line class="h" x1="998.21" y1="357.9" x2="1014.15" y2="357.9"/></g><g><polygon class="f" points="918.51 318.04 982.27 318.04 998.21 333.98 998.21 397.75 934.45 397.75 918.51 381.81 918.51 318.04"/><polygon class="h" points="918.51 318.04 982.27 318.04 998.21 333.98 998.21 397.75 934.45 397.75 918.51 381.81 918.51 318.04"/><polygon class="b" points="918.51 318.04 982.27 318.04 998.21 333.98 934.45 333.98 918.51 318.04"/><polygon class="c" points="918.51 318.04 934.45 333.98 934.45 397.75 918.51 381.81 918.51 318.04"/><path class="h" d="M934.45,333.98h63.76m-63.76,63.76v-63.76l-15.94-15.94"/></g><g><line class="h" x1="1110.97" y1="357.9" x2="1227.57" y2="357.9"/><polygon class="g" points="1112.43 362.88 1103.79 357.9 1112.43 352.91 1112.43 362.88"/></g><g><path class="g" d="M1115.74,347.97v-15.54h2.04l5.63,11.68,5.6-11.68h2.06v15.52h-2.14v-10.63l-5.02,10.64h-1.03l-5.03-10.64v10.64h-2.12Z"/><path class="g" d="M1137.38,348.3c-.86,0-1.59-.16-2.17-.48-.58-.32-1.02-.74-1.32-1.27-.3-.53-.45-1.11-.45-1.74,0-.59,.1-1.11,.31-1.55,.21-.45,.52-.83,.93-1.14,.41-.31,.91-.57,1.51-.76,.52-.15,1.1-.28,1.76-.4,.65-.11,1.34-.22,2.07-.32,.72-.1,1.44-.2,2.15-.3l-.82,.45c.01-.91-.18-1.59-.58-2.03-.4-.44-1.08-.66-2.05-.66-.61,0-1.17,.14-1.68,.43-.51,.28-.87,.75-1.07,1.41l-2.1-.65c.29-1,.84-1.79,1.64-2.38,.81-.59,1.89-.88,3.23-.88,1.04,0,1.95,.18,2.72,.53,.77,.36,1.34,.92,1.7,1.69,.19,.38,.3,.78,.35,1.21s.06,.88,.06,1.37v7.17h-2v-2.66l.39,.35c-.48,.89-1.09,1.56-1.84,1.99-.75,.44-1.66,.65-2.75,.65Zm.4-1.84c.64,0,1.19-.11,1.65-.34s.83-.52,1.11-.87,.46-.72,.55-1.1c.12-.35,.19-.73,.21-1.17,.02-.43,.03-.78,.03-1.04l.73,.27c-.71,.11-1.36,.21-1.94,.29-.58,.09-1.11,.17-1.58,.25-.47,.08-.89,.18-1.26,.3-.31,.11-.58,.24-.83,.39-.24,.15-.43,.33-.57,.55s-.21,.48-.21,.79,.08,.58,.23,.84c.15,.26,.38,.46,.69,.61,.31,.15,.7,.23,1.19,.23Z"/><path class="g" d="M1146.59,334.41v-2.19h2.25v2.19h-2.25Zm0,13.56v-11.65h2.25v11.65h-2.25Z"/><path class="g" d="M1152.08,347.97v-11.65h2.02v3.37h.27v8.29h-2.29Zm8.19,0v-5.73c0-.45-.04-.92-.11-1.4-.08-.48-.22-.92-.43-1.33-.21-.41-.51-.74-.9-.99-.38-.25-.89-.38-1.5-.38-.4,0-.78,.07-1.14,.2-.36,.13-.67,.35-.94,.64s-.48,.68-.64,1.17c-.15,.48-.23,1.07-.23,1.76l-1.4-.53c0-1.06,.2-1.99,.59-2.8,.4-.81,.96-1.44,1.71-1.89,.74-.45,1.64-.68,2.69-.68,.81,0,1.48,.13,2.03,.39,.55,.26,.99,.6,1.33,1.02,.34,.42,.6,.88,.78,1.38,.18,.5,.3,.98,.37,1.46s.1,.89,.1,1.25v6.47h-2.29Z"/><path class="g" d="M1176.15,348.3c-1.55,0-2.88-.34-3.97-1.02-1.09-.68-1.93-1.63-2.51-2.84s-.87-2.62-.87-4.23,.29-3.01,.87-4.23,1.42-2.16,2.51-2.84c1.09-.68,2.42-1.02,3.97-1.02,1.79,0,3.27,.45,4.45,1.36s1.99,2.12,2.45,3.66l-2.29,.61c-.3-1.09-.84-1.94-1.61-2.56-.77-.62-1.77-.93-3-.93-1.1,0-2.02,.25-2.75,.74s-1.29,1.19-1.66,2.08c-.37,.89-.56,1.93-.56,3.12,0,1.19,.17,2.23,.54,3.12,.37,.89,.92,1.59,1.66,2.08,.74,.5,1.66,.74,2.76,.74,1.23,0,2.23-.31,3-.93,.77-.62,1.31-1.47,1.61-2.55l2.29,.62c-.46,1.53-1.28,2.75-2.45,3.66s-2.66,1.36-4.45,1.36Z"/><path class="g" d="M1185.42,347.97v-15.54h2.02v8.38h.27v7.15h-2.29Zm8.19,0v-5.73c0-.45-.04-.92-.11-1.4-.08-.48-.22-.92-.43-1.33-.21-.41-.51-.74-.9-.99-.38-.25-.89-.38-1.5-.38-.4,0-.78,.07-1.14,.2-.36,.13-.67,.35-.94,.64s-.48,.68-.64,1.17c-.15,.48-.23,1.07-.23,1.76l-1.4-.53c0-1.06,.2-1.99,.59-2.8,.4-.81,.96-1.44,1.71-1.89,.74-.45,1.64-.68,2.69-.68,.81,0,1.48,.13,2.03,.39,.55,.26,.99,.6,1.33,1.02,.34,.42,.6,.88,.78,1.38,.18,.5,.3,.98,.37,1.46s.1,.89,.1,1.25v6.47h-2.29Z"/><path class="g" d="M1201.99,348.3c-.86,0-1.59-.16-2.17-.48-.58-.32-1.02-.74-1.32-1.27-.3-.53-.45-1.11-.45-1.74,0-.59,.1-1.11,.31-1.55,.21-.45,.52-.83,.93-1.14,.41-.31,.91-.57,1.51-.76,.52-.15,1.1-.28,1.76-.4,.65-.11,1.34-.22,2.07-.32,.72-.1,1.44-.2,2.15-.3l-.82,.45c.01-.91-.18-1.59-.58-2.03-.4-.44-1.08-.66-2.05-.66-.61,0-1.17,.14-1.68,.43-.51,.28-.87,.75-1.07,1.41l-2.1-.65c.29-1,.84-1.79,1.64-2.38,.81-.59,1.89-.88,3.23-.88,1.04,0,1.95,.18,2.72,.53,.77,.36,1.34,.92,1.7,1.69,.19,.38,.3,.78,.35,1.21s.06,.88,.06,1.37v7.17h-2v-2.66l.39,.35c-.48,.89-1.09,1.56-1.84,1.99-.75,.44-1.66,.65-2.75,.65Zm.4-1.84c.64,0,1.19-.11,1.65-.34s.83-.52,1.11-.87,.46-.72,.55-1.1c.12-.35,.19-.73,.21-1.17,.02-.43,.03-.78,.03-1.04l.73,.27c-.71,.11-1.36,.21-1.94,.29-.58,.09-1.11,.17-1.58,.25-.47,.08-.89,.18-1.26,.3-.31,.11-.58,.24-.83,.39-.24,.15-.43,.33-.57,.55s-.21,.48-.21,.79,.08,.58,.23,.84c.15,.26,.38,.46,.69,.61,.31,.15,.7,.23,1.19,.23Z"/><path class="g" d="M1211.21,334.41v-2.19h2.25v2.19h-2.25Zm0,13.56v-11.65h2.25v11.65h-2.25Z"/><path class="g" d="M1216.69,347.97v-11.65h2.02v3.37h.27v8.29h-2.29Zm8.19,0v-5.73c0-.45-.04-.92-.11-1.4-.08-.48-.22-.92-.43-1.33-.21-.41-.51-.74-.9-.99-.38-.25-.89-.38-1.5-.38-.4,0-.78,.07-1.14,.2-.36,.13-.67,.35-.94,.64s-.48,.68-.64,1.17c-.15,.48-.23,1.07-.23,1.76l-1.4-.53c0-1.06,.2-1.99,.59-2.8,.4-.81,.96-1.44,1.71-1.89,.74-.45,1.64-.68,2.69-.68,.81,0,1.48,.13,2.03,.39,.55,.26,.99,.6,1.33,1.02,.34,.42,.6,.88,.78,1.38,.18,.5,.3,.98,.37,1.46s.1,.89,.1,1.25v6.47h-2.29Z"/></g><g><line class="h" x1="101.42" y1="23.03" x2="503.25" y2="239.4"/><polygon class="g" points="100.34 28.11 95.1 19.63 105.07 19.33 100.34 28.11"/><polygon class="g" points="499.6 243.09 509.56 242.8 504.33 234.31 499.6 243.09"/></g><g><path class="g" d="M297.5,117.29c-1.37-.74-2.37-1.66-3.01-2.78-.64-1.12-.93-2.35-.86-3.69,.07-1.34,.48-2.72,1.24-4.14,.76-1.41,1.68-2.52,2.77-3.31s2.27-1.23,3.56-1.31c1.28-.08,2.61,.25,3.98,.98,1.58,.85,2.67,1.95,3.27,3.31,.61,1.36,.75,2.82,.43,4.38l-2.3-.54c.25-1.1,.18-2.1-.21-3.02-.39-.91-1.12-1.66-2.21-2.24-.97-.52-1.89-.74-2.78-.65-.88,.09-1.7,.44-2.45,1.05-.75,.61-1.4,1.44-1.97,2.48-.57,1.04-.9,2.04-1,3-.1,.96,.06,1.83,.48,2.62,.41,.79,1.1,1.44,2.07,1.96,1.08,.58,2.11,.78,3.09,.6,.98-.18,1.85-.67,2.63-1.48l1.72,1.63c-1.13,1.13-2.43,1.82-3.89,2.06-1.46,.24-2.99-.06-4.56-.91Z"/><path class="g" d="M308.57,123.25c-.76-.41-1.32-.89-1.68-1.45-.36-.56-.55-1.14-.56-1.75-.01-.61,.13-1.19,.43-1.75,.28-.52,.62-.93,1.01-1.22,.39-.29,.85-.48,1.36-.56s1.07-.07,1.69,.05c.53,.11,1.11,.27,1.74,.48,.63,.21,1.29,.44,1.97,.69,.68,.25,1.36,.51,2.04,.75h-.94c.45-.79,.6-1.48,.46-2.05-.14-.58-.64-1.1-1.49-1.56-.54-.29-1.1-.43-1.68-.42-.58,0-1.12,.25-1.61,.73l-1.55-1.57c.73-.74,1.59-1.18,2.58-1.32,.99-.14,2.08,.12,3.26,.75,.92,.49,1.63,1.08,2.15,1.76,.51,.68,.74,1.44,.69,2.29-.02,.42-.1,.83-.27,1.23s-.36,.81-.59,1.24l-3.4,6.32-1.76-.95,1.26-2.35,.18,.49c-.85,.56-1.7,.85-2.56,.88-.86,.03-1.77-.21-2.73-.73Zm1.23-1.43c.56,.3,1.1,.46,1.61,.48,.51,.02,.98-.06,1.39-.24,.41-.18,.75-.41,1.01-.71,.27-.25,.52-.55,.74-.93,.22-.37,.39-.67,.51-.9l.52,.59c-.68-.24-1.29-.46-1.85-.66-.55-.2-1.06-.38-1.51-.53-.45-.15-.87-.26-1.25-.33-.32-.05-.63-.07-.91-.05-.28,.02-.54,.09-.76,.21-.23,.12-.41,.32-.56,.59-.14,.27-.21,.55-.2,.84,.01,.3,.12,.58,.32,.86,.2,.28,.51,.53,.94,.76Z"/><path class="g" d="M320.42,129.62c-1.25-.67-2.12-1.49-2.6-2.47-.49-.97-.55-2.01-.19-3.1l2.2,.78c-.16,.6-.09,1.18,.2,1.73,.29,.55,.78,1.02,1.47,1.38,.62,.33,1.17,.47,1.66,.41,.49-.06,.85-.32,1.09-.76,.14-.26,.19-.5,.15-.73-.04-.23-.21-.52-.53-.88-.31-.36-.82-.86-1.5-1.51-.76-.7-1.32-1.32-1.7-1.86-.37-.54-.58-1.05-.61-1.51-.03-.47,.09-.95,.36-1.45,.33-.62,.79-1.07,1.37-1.36s1.23-.39,1.97-.32c.73,.07,1.5,.32,2.31,.75,.79,.42,1.42,.92,1.9,1.5,.48,.58,.79,1.2,.93,1.85,.14,.66,.08,1.31-.17,1.96l-2.23-.72c.2-.53,.17-1.04-.06-1.54-.24-.5-.67-.93-1.28-1.29-.59-.35-1.13-.51-1.62-.49-.49,.02-.85,.23-1.06,.62-.12,.23-.16,.46-.1,.69,.06,.24,.25,.54,.58,.9,.33,.37,.85,.87,1.54,1.5,.74,.69,1.29,1.3,1.66,1.84,.36,.54,.55,1.06,.57,1.54,.02,.49-.11,1-.4,1.52-.55,1.01-1.34,1.61-2.39,1.79-1.05,.18-2.22-.08-3.52-.78Z"/><path class="g" d="M331.06,135.37c-1.05-.57-1.82-1.28-2.3-2.15-.48-.86-.7-1.81-.65-2.84,.05-1.03,.35-2.06,.91-3.1,.58-1.05,1.28-1.88,2.12-2.48,.84-.6,1.75-.93,2.74-.99,.99-.06,2,.19,3.04,.74,1.12,.6,1.93,1.4,2.42,2.38,.5,.99,.61,2.03,.34,3.14l-2.28-.49c.11-.68,.03-1.3-.24-1.86-.28-.56-.7-1-1.28-1.31-.65-.35-1.27-.49-1.85-.4-.58,.08-1.12,.33-1.61,.76-.49,.42-.92,.98-1.3,1.65-.56,1.06-.78,2.05-.65,2.96,.13,.91,.66,1.62,1.6,2.12,.64,.34,1.24,.48,1.79,.39,.55-.08,1.08-.34,1.59-.78l1.76,1.56c-.88,.82-1.84,1.29-2.9,1.41-1.06,.12-2.14-.12-3.24-.71Z"/><path class="g" d="M340.37,140.38c-.76-.41-1.32-.89-1.68-1.45-.36-.56-.55-1.14-.56-1.75-.01-.61,.13-1.19,.43-1.75,.28-.52,.62-.93,1.01-1.22,.39-.29,.85-.48,1.36-.56s1.07-.07,1.69,.05c.53,.11,1.11,.27,1.74,.48,.63,.21,1.29,.44,1.97,.69,.68,.25,1.36,.51,2.04,.75h-.94c.45-.79,.6-1.48,.46-2.05-.14-.58-.64-1.1-1.49-1.56-.54-.29-1.1-.43-1.68-.42-.58,0-1.12,.25-1.61,.73l-1.55-1.57c.73-.74,1.59-1.18,2.58-1.32,.99-.14,2.08,.12,3.26,.75,.92,.49,1.63,1.08,2.15,1.76,.51,.68,.74,1.44,.69,2.29-.02,.42-.1,.83-.27,1.23s-.36,.81-.59,1.24l-3.4,6.32-1.76-.95,1.26-2.35,.18,.49c-.85,.56-1.7,.85-2.56,.88-.86,.03-1.77-.21-2.73-.73Zm1.23-1.43c.56,.3,1.1,.46,1.61,.48s.98-.06,1.39-.24c.41-.18,.75-.41,1.01-.71,.27-.25,.52-.55,.74-.93,.22-.37,.39-.67,.51-.9l.52,.59c-.68-.24-1.29-.46-1.85-.66-.55-.2-1.06-.38-1.51-.53-.45-.15-.87-.26-1.25-.33-.32-.05-.63-.07-.91-.05-.28,.02-.54,.09-.76,.21-.23,.12-.41,.32-.56,.59-.14,.27-.21,.55-.2,.84,.01,.3,.12,.58,.32,.86,.2,.28,.51,.53,.94,.76Z"/><path class="g" d="M352.37,146.84c-.96-.51-1.65-1.2-2.09-2.04-.44-.85-.62-1.78-.56-2.81,.07-1.02,.38-2.05,.93-3.07,.56-1.03,1.24-1.85,2.06-2.46,.82-.61,1.7-.96,2.66-1.06,.95-.09,1.91,.12,2.87,.64,.97,.52,1.66,1.2,2.07,2.02,.41,.83,.56,1.74,.46,2.74-.1,1-.43,2.01-.98,3.04-.55,1.03-1.22,1.86-2,2.49-.78,.63-1.63,1.01-2.56,1.13-.92,.12-1.87-.08-2.86-.61Zm1.24-1.65c.65,.35,1.27,.48,1.85,.39,.58-.09,1.11-.35,1.59-.8,.48-.44,.92-1.02,1.3-1.73s.62-1.39,.72-2.04c.1-.65,.03-1.23-.21-1.75-.24-.52-.67-.95-1.29-1.28-.66-.36-1.29-.49-1.89-.39-.6,.09-1.15,.36-1.65,.79-.5,.43-.93,.99-1.29,1.66-.36,.68-.59,1.35-.68,2-.09,.66-.01,1.26,.23,1.81,.24,.55,.68,.99,1.31,1.33Zm1.97,3.01l3.97-7.38-.23-.12,3.39-6.3,1.99,1.07-7.37,13.68-1.77-.95Z"/><path class="g" d="M364.4,153.32c-1.02-.55-1.79-1.25-2.32-2.11-.53-.86-.79-1.81-.79-2.84,0-1.03,.29-2.07,.86-3.13,.6-1.12,1.34-1.98,2.2-2.58,.86-.6,1.79-.92,2.79-.96s1.99,.2,2.99,.74c1.04,.56,1.8,1.28,2.28,2.16s.65,1.86,.54,2.95c-.12,1.09-.54,2.23-1.28,3.42l-1.99-1.07,.39-.72c.63-1.2,.88-2.2,.74-3.01-.13-.81-.65-1.45-1.55-1.94-.99-.54-1.91-.62-2.75-.27-.84,.36-1.58,1.13-2.21,2.31-.61,1.13-.83,2.13-.66,3.02,.17,.89,.72,1.58,1.67,2.09,.62,.33,1.23,.48,1.84,.44,.61-.04,1.18-.25,1.71-.64l1.62,1.67c-.89,.7-1.88,1.09-2.96,1.16-1.08,.07-2.12-.17-3.11-.7Zm-1.04-6.82l.83-1.55,7.32,3.94-.83,1.55-7.32-3.94Z"/></g><g><line class="h" x1="734.39" y1="630.49" x2="911.33" y2="630.49"/><polygon class="g" points="735.85 635.47 727.22 630.49 735.85 625.5 735.85 635.47"/><polygon class="g" points="909.87 635.47 918.51 630.49 909.87 625.5 909.87 635.47"/></g><g><path class="g" d="M798.68,655.77v-15.54h6.11c.99,0,1.81,.2,2.48,.6,.67,.4,1.17,.92,1.51,1.56s.51,1.31,.51,2.01c0,.86-.21,1.59-.63,2.2s-.99,1.03-1.7,1.25l-.02-.53c.99,.24,1.75,.72,2.29,1.43,.53,.71,.8,1.53,.8,2.48s-.18,1.71-.54,2.38c-.36,.68-.89,1.2-1.59,1.58-.69,.38-1.53,.57-2.52,.57h-6.69Zm2.29-9.19h3.79c.42,0,.79-.08,1.13-.25,.33-.17,.6-.41,.8-.73,.2-.32,.3-.71,.3-1.16,0-.6-.2-1.1-.6-1.49-.4-.39-.94-.58-1.62-.58h-3.79v4.22Zm0,7.04h4.06c.51,0,.97-.1,1.38-.29s.73-.47,.96-.84,.35-.8,.35-1.3c0-.47-.1-.89-.31-1.27-.2-.38-.5-.68-.88-.9-.39-.22-.84-.33-1.35-.33h-4.2v4.92Z"/><path class="g" d="M812.16,655.77v-11.65h2.01v2.83l-.28-.37c.14-.37,.33-.72,.56-1.03,.23-.31,.5-.57,.8-.77,.29-.22,.62-.38,.99-.5s.74-.19,1.12-.22c.38-.03,.75,0,1.1,.06v2.11c-.38-.1-.8-.13-1.27-.09s-.89,.19-1.28,.44c-.37,.24-.66,.52-.87,.86-.21,.34-.37,.71-.46,1.13s-.14,.85-.14,1.31v5.88h-2.28Z"/><path class="g" d="M823.79,656.09c-.86,0-1.59-.16-2.17-.48-.58-.32-1.02-.74-1.32-1.27-.3-.53-.45-1.11-.45-1.74,0-.59,.1-1.11,.31-1.55,.21-.45,.52-.83,.93-1.14,.41-.31,.91-.57,1.51-.76,.52-.15,1.1-.28,1.76-.4,.65-.12,1.34-.22,2.07-.32s1.44-.2,2.15-.3l-.82,.45c.01-.91-.18-1.59-.58-2.03-.4-.44-1.08-.66-2.05-.66-.61,0-1.17,.14-1.68,.43-.51,.28-.87,.75-1.07,1.41l-2.1-.65c.29-1,.84-1.79,1.64-2.38,.81-.59,1.89-.88,3.23-.88,1.04,0,1.95,.18,2.72,.53,.77,.36,1.34,.92,1.7,1.69,.19,.38,.3,.78,.35,1.21,.04,.42,.06,.88,.06,1.37v7.17h-2v-2.67l.39,.35c-.48,.89-1.09,1.56-1.84,1.99-.75,.44-1.66,.65-2.75,.65Zm.4-1.84c.64,0,1.19-.11,1.65-.34s.83-.52,1.11-.87,.46-.72,.55-1.1c.12-.34,.19-.73,.21-1.17,.02-.43,.03-.78,.03-1.04l.73,.27c-.71,.11-1.36,.21-1.94,.29-.58,.09-1.11,.17-1.58,.25-.47,.08-.89,.18-1.26,.3-.31,.11-.58,.24-.83,.39-.24,.15-.43,.33-.57,.55-.14,.21-.21,.48-.21,.79s.08,.58,.23,.84c.15,.26,.38,.46,.69,.61,.31,.15,.7,.23,1.19,.23Z"/><path class="g" d="M832.78,655.77v-11.65h2.02v3.37h.27v8.29h-2.29Zm8.19,0v-5.73c0-.45-.04-.92-.11-1.4-.08-.48-.22-.92-.43-1.33-.21-.41-.51-.74-.9-.99-.38-.25-.89-.38-1.5-.38-.4,0-.78,.07-1.14,.2-.36,.13-.67,.35-.94,.64s-.48,.68-.64,1.17c-.15,.48-.23,1.07-.23,1.76l-1.4-.53c0-1.06,.2-1.99,.59-2.8,.4-.81,.96-1.44,1.71-1.89,.74-.45,1.64-.68,2.69-.68,.81,0,1.48,.13,2.03,.39s.99,.6,1.33,1.02c.34,.42,.6,.88,.78,1.38,.18,.5,.3,.98,.37,1.46s.1,.89,.1,1.25v6.47h-2.29Z"/><path class="g" d="M851.04,656.09c-1.19,0-2.21-.27-3.04-.8s-1.47-1.26-1.92-2.19-.67-1.98-.67-3.16c0-1.2,.24-2.26,.69-3.19s1.1-1.65,1.94-2.17c.84-.53,1.85-.79,3.03-.79,1.27,0,2.36,.32,3.26,.95,.9,.63,1.5,1.5,1.79,2.6l-2.24,.65c-.22-.65-.59-1.16-1.09-1.53-.51-.36-1.09-.54-1.74-.54-.74,0-1.35,.17-1.82,.52-.48,.35-.83,.83-1.06,1.43-.23,.6-.35,1.29-.36,2.07,0,1.2,.28,2.17,.83,2.91,.54,.74,1.35,1.11,2.41,1.11,.73,0,1.31-.17,1.76-.5,.45-.33,.79-.81,1.03-1.44l2.29,.54c-.38,1.14-1.01,2.01-1.89,2.62-.88,.61-1.94,.91-3.19,.91Z"/><path class="g" d="M858.32,655.77v-15.54h2.02v8.38h.27v7.15h-2.29Zm8.19,0v-5.73c0-.45-.04-.92-.11-1.4-.08-.48-.22-.92-.43-1.33-.21-.41-.51-.74-.9-.99-.38-.25-.89-.38-1.5-.38-.4,0-.78,.07-1.14,.2-.36,.13-.67,.35-.94,.64s-.48,.68-.64,1.17c-.15,.48-.23,1.07-.23,1.76l-1.4-.53c0-1.06,.2-1.99,.59-2.8,.4-.81,.96-1.44,1.71-1.89,.74-.45,1.64-.68,2.69-.68,.81,0,1.48,.13,2.03,.39s.99,.6,1.33,1.02c.34,.42,.6,.88,.78,1.38,.18,.5,.3,.98,.37,1.46s.1,.89,.1,1.25v6.47h-2.29Z"/></g><line class="h" x1="770.02" y1="397.75" x2="770.02" y2="526.87"/><line class="h" x1="902.57" y1="455.93" x2="934.45" y2="455.93"/><polygon class="b" points="822.86 416.08 886.63 416.08 902.57 432.02 838.8 432.02 822.86 416.08"/><g><polygon class="e" points="822.86 416.08 886.63 416.08 902.57 432.02 902.57 495.79 838.8 495.79 822.86 479.84 822.86 416.08"/><polygon class="h" points="822.86 416.08 886.63 416.08 902.57 432.02 902.57 495.79 838.8 495.79 822.86 479.84 822.86 416.08"/><polygon class="c" points="822.86 416.08 838.8 432.02 838.8 495.79 822.86 479.84 822.86 416.08"/><path class="h" d="M838.8,432.02h63.76m-63.76,63.76v-63.76l-15.94-15.94"/></g><g><polygon class="e" points="822.86 220.01 886.63 220.01 902.57 235.95 902.57 299.71 838.8 299.71 822.86 283.77 822.86 220.01"/><polygon class="h" points="822.86 220.01 886.63 220.01 902.57 235.95 902.57 299.71 838.8 299.71 822.86 283.77 822.86 220.01"/><polygon class="c" points="822.86 220.01 838.8 235.95 838.8 299.71 822.86 283.77 822.86 220.01"/><path class="h" d="M838.8,235.95h63.76m-63.76,63.76v-63.76l-15.94-15.94"/></g><polygon class="e" points="918.51 416.08 982.27 416.08 998.21 432.02 998.21 495.79 934.45 495.79 918.51 479.84 918.51 416.08"/><polygon class="h" points="918.51 416.08 982.27 416.08 998.21 432.02 998.21 495.79 934.45 495.79 918.51 479.84 918.51 416.08"/><polygon class="b" points="918.51 416.08 982.27 416.08 998.21 432.02 934.45 432.02 918.51 416.08"/><polygon class="c" points="918.51 416.08 934.45 432.02 934.45 495.79 918.51 479.84 918.51 416.08"/><path class="h" d="M934.45,432.02h63.76m-63.76,63.76v-63.76l-15.94-15.94"/><g><polygon class="d" points="137.4 111.52 201.17 111.52 217.11 127.46 217.11 191.23 153.34 191.23 137.4 175.29 137.4 111.52"/><polygon class="h" points="137.4 111.52 201.17 111.52 217.11 127.46 217.11 191.23 153.34 191.23 137.4 175.29 137.4 111.52"/><polygon class="b" points="137.4 111.52 201.17 111.52 217.11 127.46 153.34 127.46 137.4 111.52"/><polygon class="c" points="137.4 111.52 153.34 127.46 153.34 191.23 137.4 175.29 137.4 111.52"/><path class="h" d="M153.34,127.46h63.76m-63.76,63.76v-63.76l-15.94-15.94"/></g><g><polygon class="d" points="328.69 214.66 392.46 214.66 408.4 230.61 408.4 294.37 344.64 294.37 328.69 278.43 328.69 214.66"/><polygon class="h" points="328.69 214.66 392.46 214.66 408.4 230.61 408.4 294.37 344.64 294.37 328.69 278.43 328.69 214.66"/><polygon class="b" points="328.69 214.66 392.46 214.66 408.4 230.61 344.64 230.61 328.69 214.66"/><polygon class="c" points="328.69 214.66 344.64 230.61 344.64 294.37 328.69 278.43 328.69 214.66"/><path class="h" d="M344.64,230.61h63.76m-63.76,63.76v-63.76l-15.94-15.94"/></g><g><polygon class="d" points="424.34 266.24 488.1 266.24 504.04 282.18 504.04 345.94 440.28 345.94 424.34 330 424.34 266.24"/><polygon class="h" points="424.34 266.24 488.1 266.24 504.04 282.18 504.04 345.94 440.28 345.94 424.34 330 424.34 266.24"/><polygon class="b" points="424.34 266.24 488.1 266.24 504.04 282.18 440.28 282.18 424.34 266.24"/><polygon class="c" points="424.34 266.24 440.28 282.18 440.28 345.94 424.34 330 424.34 266.24"/><path class="h" d="M440.28,282.18h63.76m-63.76,63.76v-63.76l-15.94-15.94"/></g><g><polygon class="d" points="233.05 163.09 296.81 163.09 312.75 179.03 312.75 242.8 248.99 242.8 233.05 226.86 233.05 163.09"/><polygon class="h" points="233.05 163.09 296.81 163.09 312.75 179.03 312.75 242.8 248.99 242.8 233.05 226.86 233.05 163.09"/><polygon class="b" points="233.05 163.09 296.81 163.09 312.75 179.03 248.99 179.03 233.05 163.09"/><polygon class="c" points="233.05 163.09 248.99 179.03 248.99 242.8 233.05 226.86 233.05 163.09"/><path class="h" d="M248.99,179.03h63.76m-63.76,63.76v-63.76l-15.94-15.94"/></g><polygon class="d" points="9.88 51.51 105.52 51.51 121.46 67.45 121.46 163.09 25.82 163.09 9.88 147.15 9.88 51.51"/><polygon class="h" points="9.88 51.51 105.52 51.51 121.46 67.45 121.46 163.09 25.82 163.09 9.88 147.15 9.88 51.51"/><polygon class="b" points="9.88 51.51 105.52 51.51 121.46 67.45 25.82 67.45 9.88 51.51"/><polygon class="c" points="9.88 51.51 25.82 67.45 25.82 163.09 9.88 147.15 9.88 51.51"/><path class="h" d="M25.82,67.45H121.46M25.82,163.09V67.45l-15.94-15.94"/><g><path class="g" d="M40.29,121.11c-.85,0-1.63-.15-2.34-.44s-1.33-.73-1.86-1.29-.93-1.26-1.23-2.07c-.29-.81-.44-1.74-.44-2.77,0-1.36,.25-2.53,.75-3.51,.5-.98,1.19-1.73,2.07-2.26,.88-.53,1.9-.79,3.05-.79,1.48,0,2.67,.34,3.55,1.03,.88,.69,1.49,1.64,1.81,2.86l-1.86,.33c-.26-.75-.67-1.36-1.24-1.81-.57-.45-1.29-.68-2.16-.68-.89,0-1.64,.19-2.23,.6s-1.04,.97-1.34,1.7-.45,1.57-.46,2.54,.14,1.81,.44,2.53c.3,.72,.75,1.28,1.35,1.69,.6,.4,1.35,.61,2.24,.61,.72,.01,1.34-.12,1.85-.4,.52-.28,.93-.69,1.23-1.22s.5-1.2,.59-1.98h-2.45v-1.47h4.4c.01,.1,.02,.24,.03,.42s0,.28,0,.33c0,1.17-.22,2.21-.67,3.13s-1.1,1.64-1.96,2.16c-.86,.52-1.9,.78-3.12,.78Z"/><path class="g" d="M47.8,120.85v-12.62h8.06v1.73h-6.23v3.54h5.18v1.73h-5.18v3.9h6.23v1.73h-8.06Z"/><path class="g" d="M57.97,120.85v-12.62h1.86l6.21,9.38v-9.38h1.86v12.62h-1.86l-6.21-9.39v9.39h-1.86Z"/><path class="g" d="M70.35,120.85v-12.62h8.06v1.73h-6.23v3.54h5.18v1.73h-5.18v3.9h6.23v1.73h-8.06Z"/><path class="g" d="M85.1,121.11c-.91,0-1.72-.16-2.45-.47s-1.33-.76-1.8-1.34c-.47-.58-.78-1.27-.92-2.07l1.91-.29c.19,.77,.6,1.37,1.21,1.8,.61,.43,1.33,.64,2.15,.64,.51,0,.98-.08,1.4-.24,.43-.16,.77-.39,1.03-.69,.26-.3,.39-.66,.39-1.08,0-.23-.04-.43-.12-.6s-.19-.33-.32-.46c-.14-.13-.3-.25-.5-.34-.2-.1-.41-.18-.64-.25l-3.24-.96c-.32-.09-.64-.21-.96-.36s-.63-.34-.9-.59c-.27-.24-.49-.54-.66-.9-.17-.36-.25-.8-.25-1.31,0-.78,.2-1.44,.6-1.98s.94-.95,1.63-1.23c.68-.28,1.45-.42,2.3-.42,.85,.01,1.62,.16,2.29,.46,.67,.29,1.24,.71,1.68,1.26,.45,.55,.76,1.21,.92,1.99l-1.96,.33c-.09-.47-.28-.88-.56-1.22-.29-.34-.64-.6-1.05-.79s-.87-.28-1.35-.29c-.47-.01-.9,.06-1.28,.21-.39,.15-.7,.37-.93,.64-.23,.27-.35,.59-.35,.95s.1,.63,.31,.85c.2,.22,.46,.39,.76,.51,.3,.13,.6,.23,.9,.31l2.33,.66c.29,.08,.62,.19,1,.33,.37,.14,.73,.33,1.08,.57s.64,.57,.86,.98,.34,.92,.34,1.53-.13,1.2-.39,1.68c-.26,.48-.61,.89-1.06,1.21-.45,.32-.96,.57-1.55,.73-.58,.16-1.2,.25-1.85,.25Z"/><path class="g" d="M91.98,120.85v-12.62h1.83v12.62h-1.83Z"/><path class="g" d="M101.02,121.11c-.91,0-1.72-.16-2.45-.47s-1.33-.76-1.8-1.34c-.47-.58-.78-1.27-.92-2.07l1.91-.29c.19,.77,.6,1.37,1.21,1.8,.61,.43,1.33,.64,2.15,.64,.51,0,.98-.08,1.4-.24,.43-.16,.77-.39,1.03-.69,.26-.3,.39-.66,.39-1.08,0-.23-.04-.43-.12-.6s-.19-.33-.32-.46c-.14-.13-.3-.25-.5-.34-.2-.1-.41-.18-.64-.25l-3.24-.96c-.32-.09-.64-.21-.96-.36s-.63-.34-.9-.59c-.27-.24-.49-.54-.66-.9-.17-.36-.25-.8-.25-1.31,0-.78,.2-1.44,.6-1.98s.94-.95,1.63-1.23c.68-.28,1.45-.42,2.3-.42,.85,.01,1.62,.16,2.29,.46,.67,.29,1.24,.71,1.68,1.26,.45,.55,.76,1.21,.92,1.99l-1.96,.33c-.09-.47-.28-.88-.56-1.22-.29-.34-.64-.6-1.05-.79s-.87-.28-1.35-.29c-.47-.01-.9,.06-1.28,.21-.39,.15-.7,.37-.93,.64-.23,.27-.35,.59-.35,.95s.1,.63,.31,.85c.2,.22,.46,.39,.76,.51,.3,.13,.6,.23,.9,.31l2.33,.66c.29,.08,.62,.19,1,.33,.37,.14,.73,.33,1.08,.57s.64,.57,.86,.98,.34,.92,.34,1.53-.13,1.2-.39,1.68c-.26,.48-.61,.89-1.06,1.21-.45,.32-.96,.57-1.55,.73-.58,.16-1.2,.25-1.85,.25Z"/></g></svg>