<?xml version="1.0" encoding="UTF-8"?><svg id="Layer_1" xmlns="http://www.w3.org/2000/svg" viewBox="0 0 468.76 270.94"><defs><style>.cls-1{fill:#16181c;}.cls-2{fill:none;stroke:#91919d;stroke-width:.32px;}.cls-2,.cls-3,.cls-4,.cls-5,.cls-6,.cls-7,.cls-8,.cls-9{stroke-miterlimit:10;}.cls-3,.cls-4,.cls-5{fill-rule:evenodd;}.cls-3,.cls-4,.cls-5,.cls-6,.cls-7,.cls-8,.cls-9{stroke:#16181c;}.cls-3,.cls-7{fill:#adcaff;}.cls-4,.cls-9{fill:#5a95ff;}.cls-5,.cls-8{fill:#83afff;}.cls-6{fill:#ff512f;}</style></defs><path class="cls-3" d="M115.91,23.71c3.23,0,6.47,.14,9.69,.43l-9.69,109.84V23.71Z"/><path class="cls-5" d="M125.6,24.13c5.52,.49,11,1.39,16.39,2.7l-26.08,107.14,9.69-109.84Z"/><path class="cls-4" d="M141.99,26.83c13.5,3.29,26.26,9.1,37.61,17.12l-63.69,90.02,26.08-107.14Z"/><path class="cls-6" d="M19.52,133.98c0,53.24,43.16,96.4,96.4,96.4s96.4-43.16,96.4-96.4c0-32.5-16.08-61.24-40.72-78.7l-55.68,78.7V37.58h0c-53.24,0-96.4,43.16-96.4,96.4Z"/><g><path class="cls-1" d="M260.02,122.81v-7.2h2.85c.07,0,.15,0,.25,0,.1,0,.19,.02,.28,.03,.39,.06,.72,.19,.98,.4,.27,.21,.46,.47,.6,.78s.2,.66,.2,1.05-.07,.73-.2,1.04c-.13,.32-.34,.58-.6,.79-.27,.21-.59,.34-.98,.4-.09,.01-.18,.02-.28,.03-.1,0-.18,0-.25,0h-1.96v2.66h-.89Zm.89-3.5h1.92c.06,0,.14,0,.22,0s.16-.02,.23-.04c.23-.05,.42-.15,.56-.29s.25-.31,.32-.5c.07-.19,.1-.39,.1-.59s-.03-.4-.1-.59c-.07-.19-.17-.36-.32-.5-.14-.14-.33-.24-.56-.29-.07-.02-.15-.03-.23-.04s-.15,0-.22,0h-1.92v2.85Z"/><path class="cls-1" d="M268.23,122.95c-.35,0-.64-.05-.89-.17-.25-.11-.45-.26-.62-.44s-.29-.39-.38-.61c-.09-.22-.16-.45-.2-.68-.04-.23-.06-.45-.06-.66v-2.99h.9v2.71c0,.25,.02,.5,.07,.74s.12,.45,.24,.64c.11,.19,.26,.34,.45,.45s.42,.17,.71,.17c.22,0,.43-.04,.61-.12,.18-.08,.34-.19,.47-.34,.13-.15,.23-.34,.3-.58s.11-.5,.11-.81l.58,.18c0,.52-.09,.97-.28,1.34-.19,.38-.46,.67-.8,.87-.34,.2-.74,.3-1.21,.3Zm1.8-.14v-1.45h-.1v-3.96h.89v5.4h-.79Z"/><path class="cls-1" d="M272.22,122.81v-7.2h.89v3.23h-.1v3.97h-.79Zm2.48,.15c-.51,0-.93-.13-1.28-.38-.35-.25-.61-.59-.79-1.03-.18-.43-.27-.92-.27-1.45s.09-1.03,.27-1.46,.44-.77,.79-1.01c.35-.25,.78-.37,1.28-.37s.93,.12,1.29,.37c.36,.25,.64,.59,.83,1.02s.29,.92,.29,1.46-.1,1.03-.29,1.46-.47,.77-.83,1.02-.79,.38-1.3,.38Zm-.11-.82c.36,0,.65-.09,.88-.27,.23-.18,.41-.42,.53-.73,.12-.31,.18-.65,.18-1.04s-.06-.72-.17-1.03-.29-.55-.53-.73-.54-.27-.91-.27-.64,.09-.87,.26-.4,.41-.52,.71c-.11,.31-.17,.66-.17,1.06s.06,.74,.17,1.05,.28,.55,.52,.72c.23,.17,.53,.26,.89,.26Z"/><path class="cls-1" d="M278.32,122.81v-7.35h.89v7.35h-.89Z"/><path class="cls-1" d="M280.81,116.45v-.92h.89v.92h-.89Zm0,6.36v-5.4h.89v5.4h-.89Z"/><path class="cls-1" d="M285.48,122.96c-.55,0-1.01-.12-1.39-.37s-.67-.58-.87-1.01c-.2-.43-.3-.92-.31-1.47,0-.56,.11-1.06,.32-1.49s.5-.76,.88-1c.38-.24,.85-.36,1.38-.36,.57,0,1.06,.14,1.47,.42s.69,.66,.83,1.15l-.88,.27c-.11-.31-.3-.56-.55-.73-.25-.17-.55-.26-.88-.26-.37,0-.68,.09-.92,.26-.24,.17-.42,.41-.53,.71-.12,.3-.18,.65-.18,1.04,0,.6,.15,1.08,.42,1.45,.27,.37,.68,.55,1.21,.55,.35,0,.65-.08,.88-.24,.23-.16,.41-.4,.53-.7l.9,.23c-.19,.5-.48,.89-.88,1.16s-.88,.4-1.44,.4Z"/><path class="cls-1" d="M292.85,122.95c-.64,0-1.17-.14-1.58-.42-.41-.28-.66-.68-.76-1.18l.91-.15c.07,.29,.24,.53,.51,.7s.59,.26,.98,.26c.37,0,.66-.08,.87-.23,.21-.15,.32-.36,.32-.62,0-.15-.04-.28-.11-.37-.07-.09-.21-.18-.43-.27-.22-.08-.55-.18-.99-.3-.48-.13-.85-.26-1.12-.39s-.47-.29-.59-.48c-.12-.18-.17-.4-.17-.65,0-.32,.09-.59,.26-.83,.17-.24,.42-.42,.73-.55,.31-.13,.67-.19,1.09-.19s.78,.06,1.1,.19c.32,.13,.58,.31,.78,.55,.2,.24,.32,.52,.35,.83l-.91,.17c-.04-.29-.18-.52-.42-.69-.24-.17-.54-.25-.91-.26-.35-.01-.63,.05-.85,.18-.22,.14-.33,.32-.33,.56,0,.13,.04,.24,.12,.33,.08,.09,.23,.18,.46,.26,.22,.08,.54,.18,.97,.29,.48,.12,.85,.25,1.13,.39s.47,.31,.59,.5,.18,.43,.18,.71c0,.52-.19,.93-.58,1.23-.38,.3-.91,.45-1.58,.45Z"/><path class="cls-1" d="M297.65,122.96c-.4,0-.74-.07-1.01-.22s-.48-.34-.62-.59-.21-.51-.21-.8,.05-.53,.16-.74c.11-.21,.26-.38,.46-.52,.2-.14,.43-.25,.71-.33,.26-.07,.54-.13,.86-.18s.64-.1,.97-.14c.33-.04,.63-.08,.92-.12l-.32,.19c0-.48-.09-.83-.29-1.07s-.55-.34-1.04-.34c-.33,0-.61,.07-.86,.22-.24,.15-.42,.39-.52,.72l-.85-.25c.13-.47,.38-.84,.76-1.11,.37-.27,.87-.41,1.47-.41,.49,0,.91,.09,1.26,.26,.35,.17,.6,.44,.76,.79,.08,.17,.12,.35,.15,.54,.02,.19,.03,.4,.03,.61v3.34h-.79v-1.29l.18,.12c-.2,.44-.49,.77-.85,.99-.37,.22-.81,.33-1.33,.33Zm.13-.75c.32,0,.6-.06,.83-.17s.42-.27,.57-.46c.14-.19,.24-.39,.28-.62,.05-.17,.08-.35,.08-.56,0-.21,0-.36,0-.47l.31,.13c-.29,.04-.58,.08-.86,.12-.28,.04-.54,.08-.79,.12-.25,.04-.47,.09-.68,.15-.15,.05-.28,.11-.41,.18s-.23,.17-.31,.28-.12,.26-.12,.43c0,.15,.04,.29,.11,.42,.07,.13,.19,.24,.35,.33,.16,.08,.37,.12,.62,.12Z"/><path class="cls-1" d="M301.84,122.81v-7.35h.89v7.35h-.89Z"/><path class="cls-1" d="M306.57,122.96c-.53,0-.99-.12-1.39-.35-.39-.24-.7-.56-.92-.99-.22-.42-.33-.91-.33-1.48s.11-1.1,.32-1.53,.52-.77,.91-1c.39-.24,.84-.35,1.37-.35s1.01,.12,1.39,.38c.38,.25,.67,.61,.86,1.07,.19,.46,.28,1.02,.25,1.66h-.9v-.32c0-.66-.14-1.16-.4-1.49-.26-.33-.65-.49-1.16-.49-.55,0-.97,.18-1.25,.53-.29,.35-.43,.86-.43,1.52s.14,1.13,.43,1.48c.29,.35,.69,.52,1.22,.52,.36,0,.67-.08,.93-.25,.26-.16,.47-.4,.62-.7l.86,.29c-.21,.48-.53,.85-.95,1.11s-.89,.39-1.42,.39Zm-1.99-2.6v-.71h3.99v.71h-3.99Z"/></g><g><path class="cls-1" d="M260.02,142.23v-7.2h2.85c.07,0,.15,0,.25,0,.1,0,.19,.02,.28,.03,.39,.06,.72,.19,.98,.4,.27,.21,.46,.47,.6,.78s.2,.66,.2,1.05-.07,.73-.2,1.04c-.13,.32-.34,.58-.6,.79-.27,.21-.59,.34-.98,.4-.09,.01-.18,.02-.28,.03-.1,0-.18,0-.25,0h-1.96v2.66h-.89Zm.89-3.5h1.92c.06,0,.14,0,.22,0s.16-.02,.23-.04c.23-.05,.42-.15,.56-.29s.25-.31,.32-.5c.07-.19,.1-.39,.1-.59s-.03-.4-.1-.59c-.07-.19-.17-.36-.32-.5-.14-.14-.33-.24-.56-.29-.07-.02-.15-.03-.23-.04s-.15,0-.22,0h-1.92v2.85Z"/><path class="cls-1" d="M266.18,142.23v-5.4h.79v1.31l-.13-.17c.06-.17,.15-.32,.25-.46,.1-.14,.21-.26,.34-.35,.14-.11,.3-.2,.47-.26,.18-.06,.36-.1,.54-.11s.36,0,.52,.04v.83c-.19-.05-.39-.06-.62-.04-.22,.02-.43,.11-.62,.25-.17,.12-.31,.27-.4,.45-.09,.18-.16,.37-.2,.57s-.05,.42-.05,.63v2.71h-.89Z"/><path class="cls-1" d="M270.01,135.87v-.92h.89v.92h-.89Zm0,6.36v-5.4h.89v5.4h-.89Z"/><path class="cls-1" d="M273.86,142.23l-1.96-5.4h.9l1.52,4.27,1.51-4.27h.91l-1.96,5.4h-.91Z"/><path class="cls-1" d="M279.17,142.38c-.4,0-.74-.07-1.01-.22s-.48-.34-.62-.59-.21-.51-.21-.8,.05-.53,.16-.74c.11-.21,.26-.38,.46-.52,.2-.14,.43-.25,.71-.33,.26-.07,.54-.13,.86-.18s.64-.1,.97-.14c.33-.04,.63-.08,.91-.12l-.32,.19c0-.48-.09-.83-.29-1.07-.2-.23-.55-.34-1.04-.34-.33,0-.61,.07-.86,.22-.25,.15-.42,.39-.52,.72l-.85-.25c.13-.47,.38-.84,.76-1.11,.37-.27,.86-.41,1.47-.41,.49,0,.91,.09,1.26,.26,.35,.17,.6,.44,.76,.79,.08,.17,.12,.35,.14,.54,.02,.19,.03,.4,.03,.61v3.34h-.79v-1.29l.19,.12c-.2,.44-.49,.77-.85,.99-.37,.22-.81,.33-1.33,.33Zm.13-.75c.32,0,.6-.06,.83-.17,.24-.12,.43-.27,.57-.46s.24-.39,.28-.62c.05-.17,.08-.35,.08-.56,0-.21,0-.36,0-.47l.31,.13c-.29,.04-.57,.08-.86,.12-.28,.04-.54,.08-.79,.12-.25,.04-.47,.09-.67,.15-.15,.05-.29,.11-.41,.18-.13,.07-.23,.17-.31,.28s-.12,.26-.12,.43c0,.15,.04,.29,.11,.42,.08,.13,.19,.24,.35,.33,.16,.08,.37,.12,.62,.12Z"/><path class="cls-1" d="M282.66,137.56v-.74h3.62v.74h-3.62Zm3.62,4.67c-.32,.06-.64,.09-.95,.08-.31-.01-.59-.07-.83-.19-.24-.12-.43-.29-.55-.54-.11-.21-.16-.43-.17-.65,0-.22-.01-.47-.01-.74v-4.86h.89v4.82c0,.22,0,.41,0,.57,0,.16,.04,.29,.1,.4,.12,.21,.31,.34,.57,.38,.26,.04,.58,.03,.95-.03v.76Z"/><path class="cls-1" d="M289.71,142.38c-.53,0-.99-.12-1.39-.35-.39-.24-.7-.56-.92-.99-.22-.42-.33-.91-.33-1.48s.11-1.1,.32-1.53,.52-.77,.91-1c.39-.24,.84-.35,1.37-.35s1.01,.12,1.39,.38c.38,.25,.67,.61,.86,1.07,.19,.46,.28,1.02,.25,1.66h-.9v-.32c0-.66-.14-1.16-.4-1.49-.26-.33-.65-.49-1.16-.49-.55,0-.97,.18-1.25,.53-.29,.35-.43,.86-.43,1.52s.14,1.13,.43,1.48c.29,.35,.69,.52,1.22,.52,.36,0,.67-.08,.93-.25,.26-.16,.47-.4,.62-.7l.86,.29c-.21,.48-.53,.85-.95,1.11s-.89,.39-1.42,.39Zm-1.99-2.6v-.71h3.99v.71h-3.99Z"/><path class="cls-1" d="M295.28,142.23v-5.4h.79v1.31l-.13-.17c.06-.17,.15-.32,.25-.46,.1-.14,.21-.26,.34-.35,.14-.11,.3-.2,.47-.26,.18-.06,.36-.1,.54-.11s.36,0,.52,.04v.83c-.19-.05-.39-.06-.62-.04-.22,.02-.43,.11-.62,.25-.17,.12-.31,.27-.4,.45-.09,.18-.16,.37-.2,.57s-.05,.42-.05,.63v2.71h-.89Z"/><path class="cls-1" d="M301.31,142.38c-.54,0-1-.12-1.39-.37s-.69-.58-.9-1.01c-.21-.43-.31-.92-.31-1.48s.11-1.06,.32-1.49,.52-.76,.9-1c.39-.24,.85-.36,1.38-.36s1.01,.12,1.39,.36c.39,.24,.69,.58,.9,1,.21,.43,.31,.92,.31,1.48s-.11,1.06-.31,1.49c-.21,.43-.51,.76-.9,1-.39,.24-.85,.36-1.39,.36Zm0-.85c.56,0,.98-.19,1.25-.56s.41-.86,.41-1.45-.14-1.1-.41-1.46c-.28-.36-.69-.54-1.25-.54-.38,0-.69,.08-.93,.25s-.43,.41-.54,.71-.18,.65-.18,1.04c0,.61,.14,1.09,.42,1.46,.28,.37,.69,.55,1.23,.55Z"/><path class="cls-1" d="M307.07,142.37c-.35,0-.64-.05-.89-.17-.25-.11-.46-.26-.62-.44-.16-.18-.29-.39-.38-.61-.09-.22-.16-.45-.2-.68-.04-.23-.06-.45-.06-.66v-2.99h.9v2.71c0,.25,.02,.5,.07,.74,.04,.24,.12,.45,.24,.64,.11,.19,.26,.34,.45,.45,.19,.11,.42,.17,.71,.17,.22,0,.43-.04,.61-.12,.18-.08,.34-.19,.47-.34,.13-.15,.23-.34,.3-.58,.07-.23,.11-.5,.11-.81l.59,.18c0,.52-.1,.97-.28,1.34-.19,.38-.45,.67-.79,.87-.34,.2-.74,.3-1.21,.3Zm1.8-.14v-1.45h-.1v-3.96h.89v5.4h-.79Z"/><path class="cls-1" d="M311.06,142.23v-5.4h.8v1.45h.1v3.96h-.9Zm3.85,0v-2.71c0-.26-.02-.5-.07-.74-.04-.24-.12-.45-.23-.64-.11-.19-.26-.34-.45-.45-.19-.11-.43-.17-.71-.17-.22,0-.43,.04-.61,.11-.18,.07-.34,.19-.47,.34-.13,.15-.23,.35-.3,.58-.07,.23-.11,.5-.11,.82l-.58-.18c0-.52,.09-.97,.28-1.35,.19-.38,.45-.66,.79-.87,.34-.2,.74-.3,1.21-.3,.35,0,.65,.05,.89,.17s.45,.26,.62,.44,.29,.38,.38,.61c.09,.22,.16,.45,.2,.68,.04,.23,.06,.45,.06,.66v2.99h-.9Z"/><path class="cls-1" d="M319.23,142.38c-.5,0-.94-.13-1.29-.38-.36-.25-.64-.59-.83-1.02s-.29-.92-.29-1.46,.1-1.03,.29-1.46,.47-.77,.83-1.02c.36-.25,.79-.37,1.29-.37s.94,.12,1.29,.37c.35,.25,.61,.58,.79,1.01s.27,.92,.27,1.46-.09,1.02-.27,1.45c-.18,.43-.44,.77-.79,1.03-.35,.25-.77,.38-1.28,.38Zm.11-.82c.36,0,.66-.09,.89-.26,.23-.17,.41-.42,.52-.72s.17-.66,.17-1.05-.06-.75-.17-1.06c-.11-.3-.28-.54-.51-.71-.23-.17-.52-.26-.88-.26s-.67,.09-.91,.27-.41,.42-.53,.73-.17,.65-.17,1.03,.06,.73,.18,1.04c.12,.31,.29,.55,.53,.73,.23,.18,.53,.27,.88,.27Zm1.58,.67v-3.97h-.1v-3.23h.89v7.2h-.79Z"/><path class="cls-1" d="M325.15,142.37c-.64,0-1.17-.14-1.58-.42-.41-.28-.66-.68-.76-1.18l.91-.15c.07,.29,.24,.53,.51,.7,.26,.17,.59,.26,.98,.26s.66-.08,.87-.23c.21-.15,.31-.36,.31-.62,0-.15-.04-.28-.11-.37-.07-.09-.21-.18-.43-.27-.22-.08-.55-.18-.99-.3-.48-.13-.85-.26-1.12-.39s-.47-.29-.58-.48c-.12-.18-.18-.4-.18-.65,0-.32,.09-.59,.26-.83s.42-.42,.73-.55c.31-.13,.67-.19,1.09-.19s.78,.06,1.1,.19c.32,.13,.58,.31,.78,.55,.2,.24,.32,.52,.35,.83l-.91,.17c-.04-.29-.18-.52-.42-.69-.23-.17-.54-.25-.91-.26-.35-.01-.63,.05-.85,.18s-.33,.32-.33,.56c0,.13,.04,.24,.12,.33,.08,.09,.23,.18,.46,.26,.22,.08,.54,.18,.97,.29,.48,.12,.85,.25,1.13,.39,.27,.14,.47,.31,.59,.5,.12,.19,.18,.43,.18,.71,0,.52-.19,.93-.57,1.23-.38,.3-.91,.45-1.59,.45Z"/></g><g><path class="cls-1" d="M437.21,122.97c-.47,0-.89-.11-1.27-.33s-.67-.53-.89-.92c-.22-.39-.33-.84-.33-1.35v-2.19c0-.55,.11-1.02,.33-1.42,.22-.4,.53-.71,.92-.93,.4-.22,.85-.33,1.38-.33,.36,0,.71,.06,1.04,.18,.33,.12,.62,.32,.87,.58l-.87,.84c-.13-.15-.28-.27-.46-.35s-.37-.13-.57-.13c-.28,0-.53,.07-.74,.2s-.37,.3-.49,.52-.17,.44-.17,.68v1.2l-.22-.24c.21-.24,.46-.43,.75-.56,.29-.13,.59-.2,.91-.2,.45,0,.85,.1,1.2,.31s.62,.49,.82,.84c.2,.36,.3,.76,.3,1.21s-.11,.86-.34,1.22c-.23,.37-.53,.66-.91,.87-.38,.22-.79,.32-1.24,.32Zm0-1.16c.23,0,.45-.06,.64-.17,.19-.11,.35-.26,.46-.46,.11-.19,.17-.4,.17-.64s-.06-.45-.17-.64-.27-.35-.46-.46c-.19-.12-.4-.17-.64-.17s-.45,.06-.64,.17c-.19,.11-.35,.27-.46,.46s-.17,.41-.17,.64,.06,.44,.17,.63c.11,.19,.26,.34,.46,.46,.19,.12,.4,.17,.64,.17Z"/><path class="cls-1" d="M442.64,119.07c-.33,0-.63-.08-.91-.24-.27-.16-.49-.38-.65-.65-.16-.27-.24-.57-.24-.91s.08-.63,.25-.9c.17-.27,.39-.49,.66-.66,.27-.16,.57-.24,.89-.24s.63,.08,.9,.24,.49,.38,.65,.65c.16,.27,.25,.57,.25,.91s-.08,.64-.25,.91-.38,.49-.65,.65c-.27,.16-.57,.24-.9,.24Zm-.7,3.75l-.8-.8,6.4-6.4,.8,.81-6.41,6.39Zm.7-4.78c.14,0,.27-.04,.38-.1,.12-.07,.21-.16,.28-.28,.07-.12,.1-.25,.1-.38s-.04-.27-.1-.38c-.07-.12-.16-.21-.28-.28-.12-.07-.25-.11-.38-.11s-.27,.04-.39,.11c-.12,.07-.21,.16-.28,.28-.07,.12-.11,.24-.11,.38s.04,.27,.11,.38c.07,.12,.16,.21,.28,.28,.12,.07,.25,.1,.39,.1Zm4.21,4.93c-.33,0-.63-.08-.9-.24-.27-.16-.49-.38-.65-.65s-.25-.57-.25-.91,.08-.63,.25-.9c.17-.27,.39-.49,.66-.66s.57-.25,.89-.25,.63,.08,.9,.24c.27,.16,.49,.38,.65,.65,.16,.27,.24,.57,.24,.91s-.08,.64-.24,.91c-.16,.27-.38,.49-.65,.65-.27,.16-.58,.24-.9,.24Zm0-1.03c.14,0,.26-.04,.38-.11,.12-.07,.21-.16,.28-.28,.07-.12,.11-.25,.11-.39s-.04-.27-.11-.38c-.07-.12-.16-.21-.28-.28-.12-.07-.25-.1-.38-.1s-.27,.04-.39,.1c-.12,.07-.21,.16-.28,.28-.07,.12-.11,.25-.11,.38s.04,.27,.11,.39c.07,.12,.17,.21,.28,.28,.12,.07,.25,.11,.39,.11Z"/></g><g><path class="cls-1" d="M425.66,142.23v-1.05l3.08-2.75c.24-.21,.41-.42,.5-.61,.09-.19,.14-.37,.14-.55,0-.24-.05-.45-.15-.64-.1-.19-.25-.34-.43-.45-.18-.11-.39-.17-.63-.17-.25,0-.47,.06-.66,.17-.19,.12-.34,.27-.45,.46-.11,.19-.16,.39-.15,.62h-1.24c0-.48,.11-.9,.32-1.25,.22-.36,.51-.63,.89-.83,.38-.2,.82-.29,1.31-.29,.46,0,.87,.1,1.24,.31,.37,.21,.65,.49,.86,.85s.32,.78,.32,1.25c0,.34-.05,.63-.14,.87-.09,.23-.23,.45-.42,.65-.18,.2-.41,.42-.69,.65l-2.18,1.94-.11-.3h3.54v1.13h-4.96Z"/><path class="cls-1" d="M432.02,142.24v-1.24h1.23v1.24h-1.23Z"/><path class="cls-1" d="M437.84,142.24v-1.19h-3.19v-1.12l2.3-4.88h1.38l-2.3,4.88h1.82v-1.88h1.22v1.88h.67v1.12h-.67v1.19h-1.22Z"/><path class="cls-1" d="M442.64,138.49c-.33,0-.63-.08-.91-.24-.27-.16-.49-.38-.65-.65-.16-.27-.24-.57-.24-.91s.08-.63,.25-.9c.17-.27,.39-.49,.66-.66,.27-.16,.57-.24,.89-.24s.63,.08,.9,.24,.49,.38,.65,.65c.16,.27,.25,.57,.25,.91s-.08,.64-.25,.91-.38,.49-.65,.65c-.27,.16-.57,.24-.9,.24Zm-.7,3.75l-.8-.8,6.4-6.4,.8,.81-6.41,6.39Zm.7-4.78c.14,0,.27-.04,.38-.1,.12-.07,.21-.16,.28-.28,.07-.12,.1-.25,.1-.38s-.04-.27-.1-.38c-.07-.12-.16-.21-.28-.28-.12-.07-.25-.11-.38-.11s-.27,.04-.39,.11c-.12,.07-.21,.16-.28,.28-.07,.12-.11,.24-.11,.38s.04,.27,.11,.38c.07,.12,.16,.21,.28,.28,.12,.07,.25,.1,.39,.1Zm4.21,4.93c-.33,0-.63-.08-.9-.24-.27-.16-.49-.38-.65-.65s-.25-.57-.25-.91,.08-.63,.25-.9c.17-.27,.39-.49,.66-.66s.57-.25,.89-.25,.63,.08,.9,.24c.27,.16,.49,.38,.65,.65,.16,.27,.24,.57,.24,.91s-.08,.64-.24,.91c-.16,.27-.38,.49-.65,.65-.27,.16-.58,.24-.9,.24Zm0-1.03c.14,0,.26-.04,.38-.11,.12-.07,.21-.16,.28-.28,.07-.12,.11-.25,.11-.39s-.04-.27-.11-.38c-.07-.12-.16-.21-.28-.28-.12-.07-.25-.1-.38-.1s-.27,.04-.39,.1c-.12,.07-.21,.16-.28,.28-.07,.12-.11,.25-.11,.38s.04,.27,.11,.39c.07,.12,.17,.21,.28,.28,.12,.07,.25,.11,.39,.11Z"/></g><g><path class="cls-1" d="M428.69,161.65v-5.88l-1.35,.83v-1.33l1.35-.81h1.23v7.2h-1.23Z"/><path class="cls-1" d="M432.02,161.65v-1.24h1.23v1.24h-1.23Z"/><path class="cls-1" d="M437.84,161.65v-1.19h-3.19v-1.12l2.3-4.88h1.38l-2.3,4.88h1.82v-1.88h1.22v1.88h.67v1.12h-.67v1.19h-1.22Z"/><path class="cls-1" d="M442.64,157.9c-.33,0-.63-.08-.91-.24-.27-.16-.49-.38-.65-.65-.16-.27-.24-.57-.24-.91s.08-.63,.25-.9c.17-.27,.39-.49,.66-.66,.27-.16,.57-.24,.89-.24s.63,.08,.9,.24,.49,.38,.65,.65c.16,.27,.25,.57,.25,.91s-.08,.64-.25,.91-.38,.49-.65,.65c-.27,.16-.57,.24-.9,.24Zm-.7,3.75l-.8-.8,6.4-6.4,.8,.81-6.41,6.39Zm.7-4.78c.14,0,.27-.04,.38-.1,.12-.07,.21-.16,.28-.28,.07-.12,.1-.25,.1-.38s-.04-.27-.1-.38c-.07-.12-.16-.21-.28-.28-.12-.07-.25-.11-.38-.11s-.27,.04-.39,.11c-.12,.07-.21,.16-.28,.28-.07,.12-.11,.24-.11,.38s.04,.27,.11,.38c.07,.12,.16,.21,.28,.28,.12,.07,.25,.1,.39,.1Zm4.21,4.93c-.33,0-.63-.08-.9-.24-.27-.16-.49-.38-.65-.65s-.25-.57-.25-.91,.08-.63,.25-.9c.17-.27,.39-.49,.66-.66s.57-.25,.89-.25,.63,.08,.9,.24c.27,.16,.49,.38,.65,.65,.16,.27,.24,.57,.24,.91s-.08,.64-.24,.91c-.16,.27-.38,.49-.65,.65-.27,.16-.58,.24-.9,.24Zm0-1.03c.14,0,.26-.04,.38-.11,.12-.07,.21-.16,.28-.28,.07-.12,.11-.25,.11-.39s-.04-.27-.11-.38c-.07-.12-.16-.21-.28-.28-.12-.07-.25-.1-.38-.1s-.27,.04-.39,.1c-.12,.07-.21,.16-.28,.28-.07,.12-.11,.25-.11,.38s.04,.27,.11,.39c.07,.12,.17,.21,.28,.28,.12,.07,.25,.11,.39,.11Z"/></g><line class="cls-2" x1="239.77" y1="129.01" x2="449.24" y2="129.01"/><line class="cls-2" x1="239.77" y1="148.39" x2="449.24" y2="148.39"/><g><path class="cls-1" d="M262.58,161.75c-.51,0-.97-.09-1.38-.26-.41-.17-.74-.42-1.01-.74s-.44-.7-.52-1.14l.92-.14c.12,.45,.36,.81,.73,1.06,.37,.25,.8,.38,1.3,.38,.32,0,.62-.05,.88-.15s.47-.25,.62-.44c.15-.19,.23-.42,.23-.67,0-.16-.03-.3-.08-.41-.05-.12-.13-.21-.22-.3-.1-.08-.2-.15-.32-.21-.12-.06-.25-.1-.38-.14l-1.84-.54c-.2-.06-.39-.14-.58-.23s-.35-.21-.5-.35c-.15-.14-.26-.3-.35-.5-.09-.19-.13-.43-.13-.69,0-.43,.11-.79,.33-1.09,.22-.3,.52-.53,.9-.69,.38-.16,.81-.24,1.29-.23,.48,0,.91,.09,1.3,.26,.38,.17,.7,.41,.95,.72s.42,.69,.51,1.12l-.95,.17c-.05-.29-.16-.55-.33-.76-.17-.21-.39-.38-.64-.49s-.54-.17-.85-.18c-.29,0-.56,.04-.79,.14-.24,.1-.42,.23-.56,.4-.14,.17-.21,.37-.21,.59s.06,.4,.19,.53c.13,.13,.28,.24,.47,.32,.19,.08,.37,.14,.54,.19l1.37,.4c.16,.04,.34,.1,.54,.18,.21,.08,.4,.18,.6,.32,.19,.14,.35,.32,.48,.55,.13,.23,.19,.52,.19,.86s-.07,.65-.21,.92c-.14,.27-.33,.5-.58,.68-.25,.18-.53,.32-.86,.42-.33,.09-.68,.14-1.05,.14Z"/><path class="cls-1" d="M268.66,161.75c-.53,0-.99-.12-1.39-.35-.39-.24-.7-.56-.92-.99s-.33-.91-.33-1.48,.11-1.1,.32-1.53,.52-.77,.91-1c.39-.24,.84-.35,1.37-.35s1.01,.12,1.39,.38c.38,.25,.67,.61,.86,1.07,.19,.46,.27,1.02,.25,1.66h-.9v-.32c0-.66-.14-1.16-.4-1.49-.26-.33-.65-.49-1.16-.49-.55,0-.97,.18-1.26,.53s-.43,.86-.43,1.52,.14,1.13,.43,1.48c.29,.35,.7,.52,1.22,.52,.36,0,.67-.08,.93-.25,.26-.16,.47-.4,.62-.7l.86,.29c-.21,.48-.53,.85-.95,1.11-.42,.26-.89,.39-1.42,.39Zm-2-2.6v-.71h3.99v.71h-3.99Z"/><path class="cls-1" d="M274.57,161.75c-.53,0-.99-.12-1.39-.35-.39-.24-.7-.56-.92-.99-.22-.42-.33-.91-.33-1.48s.11-1.1,.32-1.53,.52-.77,.91-1c.39-.24,.84-.35,1.37-.35s1.01,.12,1.39,.38c.38,.25,.67,.61,.86,1.07,.19,.46,.28,1.02,.25,1.66h-.9v-.32c0-.66-.14-1.16-.4-1.49-.26-.33-.65-.49-1.16-.49-.55,0-.97,.18-1.25,.53-.29,.35-.43,.86-.43,1.52s.14,1.13,.43,1.48c.29,.35,.69,.52,1.22,.52,.36,0,.67-.08,.93-.25,.26-.16,.47-.4,.62-.7l.86,.29c-.21,.48-.53,.85-.95,1.11s-.89,.39-1.42,.39Zm-1.99-2.6v-.71h3.99v.71h-3.99Z"/><path class="cls-1" d="M280.25,161.75c-.5,0-.94-.13-1.29-.38s-.64-.59-.83-1.02-.29-.92-.29-1.46,.1-1.03,.29-1.46,.47-.77,.83-1.02c.36-.25,.79-.37,1.29-.37s.94,.12,1.28,.37c.35,.25,.61,.58,.79,1.01,.18,.43,.27,.92,.27,1.46s-.09,1.02-.27,1.45c-.18,.43-.44,.77-.79,1.03-.35,.25-.77,.38-1.28,.38Zm.11-.82c.36,0,.66-.09,.9-.26,.23-.17,.4-.42,.52-.72,.11-.31,.17-.66,.17-1.05s-.05-.75-.17-1.06c-.11-.3-.28-.54-.51-.71s-.52-.26-.88-.26-.67,.09-.91,.27-.42,.42-.53,.73-.17,.65-.17,1.03,.06,.73,.17,1.04c.12,.31,.29,.55,.53,.73,.23,.18,.53,.27,.88,.27Zm1.58,.67v-3.97h-.1v-3.23h.89v7.2h-.79Z"/></g><g><path class="cls-1" d="M260.02,181.02v-7.2h.9l3.76,5.62v-5.62h.9v7.2h-.9l-3.76-5.63v5.63h-.9Z"/><path class="cls-1" d="M269.28,181.17c-.54,0-1-.12-1.39-.37-.39-.24-.69-.58-.9-1.01-.21-.43-.31-.92-.31-1.48s.11-1.06,.32-1.49c.21-.43,.52-.76,.91-1,.39-.24,.85-.36,1.38-.36s1,.12,1.39,.36c.39,.24,.69,.58,.9,1,.21,.43,.31,.92,.31,1.48s-.11,1.06-.32,1.49c-.21,.43-.51,.76-.9,1-.39,.24-.85,.36-1.39,.36Zm0-.85c.56,0,.98-.19,1.25-.56s.41-.86,.41-1.45-.14-1.1-.42-1.46c-.28-.36-.69-.54-1.24-.54-.38,0-.69,.08-.93,.25-.24,.17-.43,.41-.54,.71-.12,.3-.18,.65-.18,1.04,0,.61,.14,1.09,.42,1.46,.28,.37,.69,.55,1.24,.55Z"/><path class="cls-1" d="M272.98,181.02v-5.4h.8v1.45h.1v3.96h-.9Zm3.85,0v-2.71c0-.26-.02-.5-.07-.74-.04-.24-.12-.45-.24-.64-.11-.19-.26-.34-.45-.45-.19-.11-.43-.17-.71-.17-.22,0-.43,.04-.61,.11-.18,.07-.34,.19-.47,.34-.13,.15-.23,.35-.3,.58-.07,.23-.11,.5-.11,.82l-.59-.18c0-.52,.1-.97,.28-1.35s.45-.66,.79-.87c.34-.2,.74-.3,1.21-.3,.35,0,.65,.05,.9,.17,.25,.11,.45,.26,.61,.44,.16,.18,.29,.38,.39,.61,.09,.22,.16,.45,.2,.68,.04,.23,.06,.45,.06,.66v2.99h-.9Z"/><path class="cls-1" d="M283.37,181.17c-.53,0-.99-.12-1.39-.35-.39-.24-.7-.56-.92-.99s-.33-.91-.33-1.48,.11-1.1,.32-1.53,.52-.77,.91-1c.39-.24,.84-.35,1.37-.35s1.01,.12,1.39,.38c.38,.25,.67,.61,.86,1.07,.19,.46,.27,1.02,.25,1.66h-.9v-.32c0-.66-.14-1.16-.4-1.49-.26-.33-.65-.49-1.16-.49-.55,0-.97,.18-1.26,.53s-.43,.86-.43,1.52,.14,1.13,.43,1.48c.29,.35,.7,.52,1.22,.52,.36,0,.67-.08,.93-.25,.26-.16,.47-.4,.62-.7l.86,.29c-.21,.48-.53,.85-.95,1.11-.42,.26-.89,.39-1.42,.39Zm-2-2.6v-.71h3.99v.71h-3.99Z"/><path class="cls-1" d="M286.33,181.02l2.06-2.73-2.02-2.67h1.06l1.48,1.98,1.47-1.98h1.06l-2.02,2.67,2.07,2.73h-1.06l-1.51-2.04-1.52,2.04h-1.06Z"/><path class="cls-1" d="M294.57,181.17c-.55,0-1.01-.12-1.39-.37s-.67-.58-.87-1.01c-.2-.43-.3-.92-.31-1.47,0-.56,.11-1.06,.32-1.49s.5-.76,.88-1c.38-.24,.85-.36,1.38-.36,.57,0,1.06,.14,1.47,.42s.69,.66,.83,1.15l-.88,.27c-.11-.31-.3-.56-.55-.73-.25-.17-.55-.26-.88-.26-.37,0-.68,.09-.92,.26-.24,.17-.42,.41-.53,.71-.12,.3-.18,.65-.18,1.04,0,.6,.15,1.08,.42,1.45,.27,.37,.68,.55,1.21,.55,.35,0,.65-.08,.88-.24,.23-.16,.41-.4,.53-.7l.9,.23c-.19,.5-.48,.89-.88,1.16s-.88,.4-1.44,.4Z"/><path class="cls-1" d="M297.9,181.02v-7.2h.8v3.98h.1v3.22h-.9Zm3.85,0v-2.71c0-.26-.02-.5-.07-.74-.04-.24-.12-.45-.24-.64-.11-.19-.26-.34-.45-.45-.19-.11-.43-.17-.71-.17-.22,0-.43,.04-.61,.11-.18,.07-.34,.19-.47,.34-.13,.15-.23,.35-.3,.58-.07,.23-.11,.5-.11,.82l-.59-.18c0-.52,.1-.97,.28-1.35s.45-.66,.79-.87c.34-.2,.74-.3,1.21-.3,.35,0,.65,.05,.9,.17,.25,.11,.45,.26,.61,.44,.16,.18,.29,.38,.39,.61,.09,.22,.16,.45,.2,.68,.04,.23,.06,.45,.06,.66v2.99h-.9Z"/><path class="cls-1" d="M305.48,181.17c-.4,0-.74-.07-1.01-.22s-.48-.34-.62-.59-.21-.51-.21-.8,.05-.53,.16-.74c.11-.21,.26-.38,.46-.52,.2-.14,.43-.25,.71-.33,.26-.07,.54-.13,.86-.18s.64-.1,.97-.14c.33-.04,.63-.08,.92-.12l-.32,.19c0-.48-.09-.83-.29-1.07s-.55-.34-1.04-.34c-.33,0-.61,.07-.86,.22-.24,.15-.42,.39-.52,.72l-.85-.25c.13-.47,.38-.84,.76-1.11,.37-.27,.87-.41,1.47-.41,.49,0,.91,.09,1.26,.26,.35,.17,.6,.44,.76,.79,.08,.17,.12,.35,.15,.54,.02,.19,.03,.4,.03,.61v3.34h-.79v-1.29l.18,.12c-.2,.44-.49,.77-.85,.99-.37,.22-.81,.33-1.33,.33Zm.13-.75c.32,0,.6-.06,.83-.17s.42-.27,.57-.46c.14-.19,.24-.39,.28-.62,.05-.17,.08-.35,.08-.56,0-.21,0-.36,0-.47l.31,.13c-.29,.04-.58,.08-.86,.12-.28,.04-.54,.08-.79,.12-.25,.04-.47,.09-.68,.15-.15,.05-.28,.11-.41,.18s-.23,.17-.31,.28-.12,.26-.12,.43c0,.15,.04,.29,.11,.42,.07,.13,.19,.24,.35,.33,.16,.08,.37,.12,.62,.12Z"/><path class="cls-1" d="M309.57,181.02v-5.4h.8v1.45h.1v3.96h-.9Zm3.85,0v-2.71c0-.26-.02-.5-.07-.74-.04-.24-.12-.45-.24-.64-.11-.19-.26-.34-.45-.45-.19-.11-.43-.17-.71-.17-.22,0-.43,.04-.61,.11-.18,.07-.34,.19-.47,.34-.13,.15-.23,.35-.3,.58-.07,.23-.11,.5-.11,.82l-.59-.18c0-.52,.1-.97,.28-1.35s.45-.66,.79-.87c.34-.2,.74-.3,1.21-.3,.35,0,.65,.05,.9,.17,.25,.11,.45,.26,.61,.44,.16,.18,.29,.38,.39,.61,.09,.22,.16,.45,.2,.68,.04,.23,.06,.45,.06,.66v2.99h-.9Z"/><path class="cls-1" d="M317.74,181.17c-.5,0-.94-.13-1.29-.38s-.64-.59-.83-1.02-.29-.92-.29-1.46,.1-1.03,.29-1.46,.47-.77,.83-1.02c.36-.25,.79-.37,1.29-.37s.94,.12,1.28,.37c.35,.25,.61,.58,.79,1.01,.18,.43,.27,.92,.27,1.46s-.09,1.02-.27,1.45c-.18,.43-.44,.77-.79,1.03-.35,.25-.77,.38-1.28,.38Zm.06,2.4c-.28,0-.56-.04-.83-.13-.27-.09-.52-.22-.74-.39s-.41-.4-.56-.66l.82-.43c.13,.26,.32,.46,.57,.58,.25,.12,.5,.18,.76,.18,.34,0,.63-.06,.86-.19s.39-.31,.5-.56c.11-.25,.16-.55,.16-.92v-1.48h.1v-3.95h.79v5.44c0,.15,0,.29-.01,.42,0,.14-.03,.27-.05,.41-.07,.38-.21,.7-.42,.95s-.47,.43-.8,.55c-.33,.12-.7,.18-1.13,.18Zm.04-3.21c.36,0,.66-.09,.9-.26,.23-.17,.4-.42,.52-.72,.11-.31,.17-.66,.17-1.05s-.05-.75-.17-1.06c-.11-.3-.28-.54-.51-.71s-.52-.26-.88-.26-.67,.09-.91,.27-.42,.42-.53,.73-.17,.65-.17,1.03,.06,.73,.17,1.04c.12,.31,.29,.55,.53,.73,.23,.18,.53,.27,.88,.27Z"/><path class="cls-1" d="M323.96,181.17c-.53,0-.99-.12-1.39-.35-.39-.24-.7-.56-.92-.99s-.33-.91-.33-1.48,.11-1.1,.32-1.53,.52-.77,.91-1c.39-.24,.84-.35,1.37-.35s1.01,.12,1.39,.38c.38,.25,.67,.61,.86,1.07,.19,.46,.27,1.02,.25,1.66h-.9v-.32c0-.66-.14-1.16-.4-1.49-.26-.33-.65-.49-1.16-.49-.55,0-.97,.18-1.26,.53s-.43,.86-.43,1.52,.14,1.13,.43,1.48c.29,.35,.7,.52,1.22,.52,.36,0,.67-.08,.93-.25,.26-.16,.47-.4,.62-.7l.86,.29c-.21,.48-.53,.85-.95,1.11-.42,.26-.89,.39-1.42,.39Zm-2-2.6v-.71h3.99v.71h-3.99Z"/><path class="cls-1" d="M328.92,176.36v-.74h3.62v.74h-3.62Zm3.62,4.67c-.32,.06-.63,.09-.95,.08-.31-.01-.59-.07-.83-.19s-.43-.29-.55-.54c-.11-.21-.16-.43-.17-.65,0-.22-.01-.47-.01-.74v-4.86h.89v4.82c0,.22,0,.41,0,.57,0,.16,.04,.29,.1,.4,.12,.21,.31,.34,.57,.38,.26,.04,.58,.03,.95-.03v.76Z"/><path class="cls-1" d="M333.64,181.02v-5.4h.79v1.31l-.13-.17c.06-.17,.15-.32,.25-.46,.1-.14,.21-.26,.34-.35,.14-.11,.3-.2,.47-.26,.18-.06,.36-.1,.54-.11s.36,0,.52,.04v.83c-.19-.05-.39-.06-.62-.04-.22,.02-.43,.11-.62,.25-.17,.12-.31,.27-.4,.45-.09,.18-.16,.37-.2,.57s-.05,.42-.05,.63v2.71h-.89Z"/><path class="cls-1" d="M338.91,181.17c-.4,0-.74-.07-1.01-.22s-.48-.34-.62-.59-.21-.51-.21-.8,.05-.53,.16-.74c.11-.21,.26-.38,.46-.52,.2-.14,.43-.25,.71-.33,.26-.07,.54-.13,.86-.18s.64-.1,.97-.14c.33-.04,.63-.08,.91-.12l-.32,.19c0-.48-.09-.83-.29-1.07-.2-.23-.55-.34-1.04-.34-.33,0-.61,.07-.86,.22-.25,.15-.42,.39-.52,.72l-.85-.25c.13-.47,.38-.84,.76-1.11,.37-.27,.86-.41,1.47-.41,.49,0,.91,.09,1.26,.26,.35,.17,.6,.44,.76,.79,.08,.17,.12,.35,.14,.54,.02,.19,.03,.4,.03,.61v3.34h-.79v-1.29l.19,.12c-.2,.44-.49,.77-.85,.99-.37,.22-.81,.33-1.33,.33Zm.13-.75c.32,0,.6-.06,.83-.17,.24-.12,.43-.27,.57-.46s.24-.39,.28-.62c.05-.17,.08-.35,.08-.56,0-.21,0-.36,0-.47l.31,.13c-.29,.04-.57,.08-.86,.12-.28,.04-.54,.08-.79,.12-.25,.04-.47,.09-.67,.15-.15,.05-.29,.11-.41,.18-.13,.07-.23,.17-.31,.28s-.12,.26-.12,.43c0,.15,.04,.29,.11,.42,.08,.13,.19,.24,.35,.33,.16,.08,.37,.12,.62,.12Z"/><path class="cls-1" d="M345.12,181.17c-.5,0-.94-.13-1.29-.38-.36-.25-.64-.59-.83-1.02s-.29-.92-.29-1.46,.1-1.03,.29-1.46,.47-.77,.83-1.02c.36-.25,.79-.37,1.29-.37s.94,.12,1.29,.37c.35,.25,.61,.58,.79,1.01s.27,.92,.27,1.46-.09,1.02-.27,1.45c-.18,.43-.44,.77-.79,1.03-.35,.25-.77,.38-1.28,.38Zm.11-.82c.36,0,.66-.09,.89-.26,.23-.17,.41-.42,.52-.72s.17-.66,.17-1.05-.06-.75-.17-1.06c-.11-.3-.28-.54-.51-.71-.23-.17-.52-.26-.88-.26s-.67,.09-.91,.27-.41,.42-.53,.73-.17,.65-.17,1.03,.06,.73,.18,1.04c.12,.31,.29,.55,.53,.73,.23,.18,.53,.27,.88,.27Zm1.58,.67v-3.97h-.1v-3.23h.89v7.2h-.79Z"/><path class="cls-1" d="M350.54,181.17c-.4,0-.74-.07-1.01-.22s-.48-.34-.62-.59-.21-.51-.21-.8,.05-.53,.16-.74c.11-.21,.26-.38,.46-.52,.2-.14,.43-.25,.71-.33,.26-.07,.54-.13,.86-.18s.64-.1,.97-.14c.33-.04,.63-.08,.92-.12l-.32,.19c0-.48-.09-.83-.29-1.07s-.55-.34-1.04-.34c-.33,0-.61,.07-.86,.22-.24,.15-.42,.39-.52,.72l-.85-.25c.13-.47,.38-.84,.76-1.11,.37-.27,.87-.41,1.47-.41,.49,0,.91,.09,1.26,.26,.35,.17,.6,.44,.76,.79,.08,.17,.12,.35,.15,.54,.02,.19,.03,.4,.03,.61v3.34h-.79v-1.29l.18,.12c-.2,.44-.49,.77-.85,.99-.37,.22-.81,.33-1.33,.33Zm.13-.75c.32,0,.6-.06,.83-.17s.42-.27,.57-.46c.14-.19,.24-.39,.28-.62,.05-.17,.08-.35,.08-.56,0-.21,0-.36,0-.47l.31,.13c-.29,.04-.58,.08-.86,.12-.28,.04-.54,.08-.79,.12-.25,.04-.47,.09-.68,.15-.15,.05-.28,.11-.41,.18s-.23,.17-.31,.28-.12,.26-.12,.43c0,.15,.04,.29,.11,.42,.07,.13,.19,.24,.35,.33,.16,.08,.37,.12,.62,.12Z"/><path class="cls-1" d="M354.62,181.02v-7.2h.89v3.23h-.1v3.97h-.79Zm2.48,.15c-.51,0-.93-.13-1.28-.38-.35-.25-.61-.59-.79-1.03-.18-.43-.27-.92-.27-1.45s.09-1.03,.27-1.46,.44-.77,.79-1.01c.35-.25,.78-.37,1.28-.37s.93,.12,1.29,.37c.36,.25,.64,.59,.83,1.02s.29,.92,.29,1.46-.1,1.03-.29,1.46-.47,.77-.83,1.02-.79,.38-1.3,.38Zm-.11-.82c.36,0,.65-.09,.88-.27,.23-.18,.41-.42,.53-.73,.12-.31,.18-.65,.18-1.04s-.06-.72-.17-1.03-.29-.55-.53-.73-.54-.27-.91-.27-.64,.09-.87,.26-.4,.41-.52,.71c-.11,.31-.17,.66-.17,1.06s.06,.74,.17,1.05,.28,.55,.52,.72c.23,.17,.53,.26,.89,.26Z"/><path class="cls-1" d="M360.73,181.02v-7.35h.89v7.35h-.89Z"/><path class="cls-1" d="M365.46,181.17c-.53,0-.99-.12-1.39-.35-.39-.24-.7-.56-.92-.99-.22-.42-.33-.91-.33-1.48s.11-1.1,.32-1.53,.52-.77,.91-1c.39-.24,.84-.35,1.37-.35s1.01,.12,1.39,.38c.38,.25,.67,.61,.86,1.07,.19,.46,.28,1.02,.25,1.66h-.9v-.32c0-.66-.14-1.16-.4-1.49-.26-.33-.65-.49-1.16-.49-.55,0-.97,.18-1.25,.53-.29,.35-.43,.86-.43,1.52s.14,1.13,.43,1.48c.29,.35,.69,.52,1.22,.52,.36,0,.67-.08,.93-.25,.26-.16,.47-.4,.62-.7l.86,.29c-.21,.48-.53,.85-.95,1.11s-.89,.39-1.42,.39Zm-1.99-2.6v-.71h3.99v.71h-3.99Z"/><path class="cls-1" d="M373.06,181.16c-.64,0-1.17-.14-1.58-.42-.41-.28-.66-.68-.76-1.18l.91-.15c.07,.29,.24,.53,.51,.7,.26,.17,.59,.26,.98,.26s.66-.08,.87-.23c.21-.15,.31-.36,.31-.62,0-.15-.04-.28-.11-.37-.07-.09-.21-.18-.43-.27-.22-.08-.55-.18-.99-.3-.48-.13-.85-.26-1.12-.39s-.47-.29-.58-.48c-.12-.18-.18-.4-.18-.65,0-.32,.09-.59,.26-.83s.42-.42,.73-.55c.31-.13,.67-.19,1.09-.19s.78,.06,1.1,.19c.32,.13,.58,.31,.78,.55,.2,.24,.32,.52,.35,.83l-.91,.17c-.04-.29-.18-.52-.42-.69-.23-.17-.54-.25-.91-.26-.35-.01-.63,.05-.85,.18s-.33,.32-.33,.56c0,.13,.04,.24,.12,.33,.08,.09,.23,.18,.46,.26,.22,.08,.54,.18,.97,.29,.48,.12,.85,.25,1.13,.39,.27,.14,.47,.31,.59,.5,.12,.19,.18,.43,.18,.71,0,.52-.19,.93-.57,1.23-.38,.3-.91,.45-1.59,.45Z"/><path class="cls-1" d="M378.38,181.16c-.35,0-.64-.05-.89-.17-.25-.11-.45-.26-.62-.44s-.29-.39-.38-.61c-.09-.22-.16-.45-.2-.68-.04-.23-.06-.45-.06-.66v-2.99h.9v2.71c0,.25,.02,.5,.07,.74s.12,.45,.24,.64c.11,.19,.26,.34,.45,.45s.42,.17,.71,.17c.22,0,.43-.04,.61-.12,.18-.08,.34-.19,.47-.34,.13-.15,.23-.34,.3-.58s.11-.5,.11-.81l.58,.18c0,.52-.09,.97-.28,1.34-.19,.38-.46,.67-.8,.87-.34,.2-.74,.3-1.21,.3Zm1.8-.14v-1.45h-.1v-3.96h.89v5.4h-.79Z"/><path class="cls-1" d="M382.37,183.42v-7.8h.79v3.98h.1v3.83h-.89Zm2.48-2.25c-.51,0-.93-.13-1.28-.38-.35-.25-.61-.59-.79-1.03-.18-.43-.27-.92-.27-1.45s.09-1.03,.27-1.46,.44-.77,.79-1.01c.35-.25,.78-.37,1.28-.37s.93,.12,1.29,.37c.36,.25,.64,.59,.83,1.02s.29,.92,.29,1.46-.1,1.03-.29,1.46-.47,.77-.83,1.02-.79,.38-1.3,.38Zm-.11-.82c.36,0,.65-.09,.88-.27,.23-.18,.41-.42,.53-.73,.12-.31,.18-.65,.18-1.04s-.06-.72-.17-1.03-.29-.55-.53-.73-.54-.27-.91-.27-.64,.09-.87,.26-.4,.41-.52,.71c-.11,.31-.17,.66-.17,1.06s.06,.74,.17,1.05,.28,.55,.52,.72c.23,.17,.53,.26,.89,.26Z"/><path class="cls-1" d="M388.37,183.42v-7.8h.79v3.98h.1v3.83h-.89Zm2.48-2.25c-.51,0-.93-.13-1.28-.38-.35-.25-.61-.59-.79-1.03-.18-.43-.27-.92-.27-1.45s.09-1.03,.27-1.46,.44-.77,.79-1.01c.35-.25,.78-.37,1.28-.37s.93,.12,1.29,.37c.36,.25,.64,.59,.83,1.02s.29,.92,.29,1.46-.1,1.03-.29,1.46-.47,.77-.83,1.02-.79,.38-1.3,.38Zm-.11-.82c.36,0,.65-.09,.88-.27,.23-.18,.41-.42,.53-.73,.12-.31,.18-.65,.18-1.04s-.06-.72-.17-1.03-.29-.55-.53-.73-.54-.27-.91-.27-.64,.09-.87,.26-.4,.41-.52,.71c-.11,.31-.17,.66-.17,1.06s.06,.74,.17,1.05,.28,.55,.52,.72c.23,.17,.53,.26,.89,.26Z"/><path class="cls-1" d="M394.47,181.02v-7.35h.89v7.35h-.89Z"/><path class="cls-1" d="M397.61,183.42l1.04-2.84v.84s-2.35-5.8-2.35-5.8h.94l1.85,4.67h-.32l1.73-4.67h.91l-2.94,7.8h-.87Z"/></g><g><path class="cls-1" d="M421.48,173.69c.47,0,.89,.11,1.27,.33s.67,.53,.89,.92c.22,.39,.33,.84,.33,1.35v2.2c0,.54-.11,1.02-.33,1.42-.22,.4-.52,.72-.92,.94-.39,.22-.85,.33-1.38,.33-.36,0-.71-.06-1.03-.19s-.61-.32-.87-.58l.87-.84c.13,.15,.29,.27,.47,.35s.37,.13,.57,.13c.28,0,.53-.07,.74-.2s.37-.3,.49-.51c.12-.21,.17-.44,.17-.68v-1.2l.21,.24c-.2,.24-.45,.43-.74,.56s-.59,.2-.92,.2c-.45,0-.85-.1-1.2-.31s-.62-.49-.82-.84c-.2-.35-.3-.76-.3-1.21s.11-.86,.34-1.22,.53-.66,.91-.87c.38-.21,.79-.32,1.24-.32Zm0,1.15c-.23,0-.45,.06-.64,.17s-.35,.27-.46,.46-.17,.4-.17,.64,.06,.45,.17,.64c.11,.19,.26,.35,.46,.46,.19,.11,.4,.17,.64,.17s.45-.06,.64-.17,.35-.27,.46-.46c.12-.19,.17-.41,.17-.64s-.06-.44-.17-.63c-.11-.19-.27-.35-.46-.46-.19-.12-.4-.18-.64-.18Z"/><path class="cls-1" d="M427.96,181.18c-.51,0-.96-.11-1.35-.33-.39-.22-.69-.52-.91-.91-.22-.39-.33-.84-.33-1.35v-2.32c0-.51,.11-.96,.33-1.35,.22-.39,.52-.69,.91-.91,.39-.22,.84-.33,1.35-.33s.96,.11,1.35,.33c.39,.22,.69,.52,.91,.91,.22,.39,.33,.84,.33,1.35v2.32c0,.51-.11,.96-.33,1.35-.22,.39-.52,.69-.91,.91-.39,.22-.84,.33-1.35,.33Zm0-1.15c.25,0,.48-.06,.69-.18,.21-.12,.37-.29,.49-.49,.12-.2,.18-.43,.18-.69v-2.49c0-.26-.06-.49-.18-.69-.12-.2-.28-.37-.49-.49-.21-.12-.44-.18-.69-.18s-.48,.06-.69,.18c-.21,.12-.37,.29-.49,.49-.12,.21-.18,.44-.18,.69v2.49c0,.25,.06,.48,.18,.69,.12,.21,.28,.37,.49,.49,.21,.12,.44,.18,.69,.18Z"/><path class="cls-1" d="M432.15,181.03v-1.24h1.23v1.24h-1.23Z"/><path class="cls-1" d="M434.78,181.02v-1.05l3.08-2.75c.24-.21,.41-.42,.5-.61,.09-.19,.14-.37,.14-.55,0-.24-.05-.45-.15-.64-.1-.19-.25-.34-.43-.45-.18-.11-.39-.17-.63-.17-.25,0-.47,.06-.66,.17-.19,.12-.34,.27-.45,.46-.11,.19-.16,.39-.15,.62h-1.24c0-.48,.11-.9,.32-1.25,.22-.36,.51-.63,.89-.83,.38-.2,.82-.29,1.31-.29,.46,0,.87,.1,1.24,.31,.37,.21,.65,.49,.86,.85s.32,.78,.32,1.25c0,.34-.05,.63-.14,.87-.09,.23-.23,.45-.42,.65-.18,.2-.41,.42-.69,.65l-2.18,1.94-.11-.3h3.54v1.13h-4.96Z"/><path class="cls-1" d="M442.64,177.28c-.33,0-.63-.08-.91-.24-.27-.16-.49-.38-.65-.65-.16-.27-.24-.57-.24-.91s.08-.63,.25-.9c.17-.27,.39-.49,.66-.66,.27-.16,.57-.24,.89-.24s.63,.08,.9,.24,.49,.38,.65,.65c.16,.27,.25,.57,.25,.91s-.08,.64-.25,.91-.38,.49-.65,.65c-.27,.16-.57,.24-.9,.24Zm-.7,3.75l-.8-.8,6.4-6.4,.8,.81-6.41,6.39Zm.7-4.78c.14,0,.27-.04,.38-.1,.12-.07,.21-.16,.28-.28,.07-.12,.1-.25,.1-.38s-.04-.27-.1-.38c-.07-.12-.16-.21-.28-.28-.12-.07-.25-.11-.38-.11s-.27,.04-.39,.11c-.12,.07-.21,.16-.28,.28-.07,.12-.11,.24-.11,.38s.04,.27,.11,.38c.07,.12,.16,.21,.28,.28,.12,.07,.25,.1,.39,.1Zm4.21,4.93c-.33,0-.63-.08-.9-.24-.27-.16-.49-.38-.65-.65s-.25-.57-.25-.91,.08-.63,.25-.9c.17-.27,.39-.49,.66-.66s.57-.25,.89-.25,.63,.08,.9,.24c.27,.16,.49,.38,.65,.65,.16,.27,.24,.57,.24,.91s-.08,.64-.24,.91c-.16,.27-.38,.49-.65,.65-.27,.16-.58,.24-.9,.24Zm0-1.03c.14,0,.26-.04,.38-.11,.12-.07,.21-.16,.28-.28,.07-.12,.11-.25,.11-.39s-.04-.27-.11-.38c-.07-.12-.16-.21-.28-.28-.12-.07-.25-.1-.38-.1s-.27,.04-.39,.1c-.12,.07-.21,.16-.28,.28-.07,.12-.11,.25-.11,.38s.04,.27,.11,.39c.07,.12,.17,.21,.28,.28,.12,.07,.25,.11,.39,.11Z"/></g><line class="cls-2" x1="239.77" y1="167.76" x2="449.24" y2="167.76"/><g><path class="cls-1" d="M240.47,96.81v-7.2h4.65v1.13h-3.44v1.78h2.84v1.13h-2.84v2.04h3.44v1.13h-4.65Z"/><path class="cls-1" d="M245.72,96.81l1.98-2.73-1.94-2.67h1.42l1.21,1.73,1.2-1.73h1.42l-1.94,2.67,1.99,2.73h-1.42l-1.24-1.79-1.26,1.79h-1.42Z"/><path class="cls-1" d="M254.21,96.96c-.56,0-1.03-.12-1.43-.37-.39-.25-.69-.59-.9-1.02-.21-.43-.31-.92-.32-1.46,0-.55,.11-1.04,.33-1.47,.21-.43,.52-.76,.92-1.01s.87-.37,1.41-.37c.61,0,1.13,.15,1.56,.46,.43,.31,.7,.73,.83,1.26l-1.2,.33c-.09-.29-.25-.52-.46-.68-.22-.16-.46-.24-.74-.24-.31,0-.57,.07-.78,.22s-.35,.35-.45,.61c-.1,.26-.15,.55-.15,.88,0,.51,.12,.93,.35,1.25s.57,.47,1.03,.47c.32,0,.57-.07,.76-.22,.18-.15,.32-.36,.42-.63l1.23,.28c-.17,.55-.46,.97-.88,1.27-.42,.3-.93,.44-1.53,.44Z"/><path class="cls-1" d="M257.61,96.81v-7.2h1.07v3.79h.14v3.41h-1.22Zm3.74,0v-2.6c0-.17-.01-.36-.04-.57s-.08-.41-.16-.6c-.09-.19-.21-.35-.38-.47-.17-.12-.39-.18-.68-.18-.15,0-.3,.03-.46,.08s-.29,.14-.41,.26c-.12,.12-.22,.29-.29,.5-.07,.21-.11,.48-.11,.81l-.71-.3c0-.46,.09-.88,.27-1.25s.44-.67,.79-.89c.35-.22,.77-.33,1.28-.33,.4,0,.73,.07,.99,.2,.26,.13,.47,.3,.62,.51,.15,.21,.27,.43,.34,.66s.12,.45,.14,.66,.03,.38,.03,.51v3.01h-1.22Z"/><path class="cls-1" d="M265.38,96.96c-.39,0-.72-.07-.99-.22-.27-.15-.47-.35-.61-.59s-.21-.52-.21-.82c0-.26,.04-.49,.13-.7s.22-.39,.4-.54c.18-.15,.41-.28,.7-.37,.22-.07,.47-.13,.76-.19,.29-.06,.61-.11,.95-.16,.34-.05,.7-.1,1.07-.16l-.43,.24c0-.37-.08-.65-.25-.82s-.46-.27-.86-.27c-.24,0-.48,.06-.71,.17s-.38,.31-.47,.58l-1.1-.34c.13-.46,.39-.82,.76-1.1,.38-.28,.88-.42,1.52-.42,.48,0,.9,.08,1.27,.23,.37,.16,.63,.41,.81,.77,.1,.19,.15,.38,.17,.58,.02,.2,.03,.42,.03,.65v3.32h-1.05v-1.17l.17,.19c-.24,.39-.53,.68-.85,.86-.33,.18-.73,.27-1.22,.27Zm.24-.96c.27,0,.51-.05,.7-.15s.35-.21,.46-.35c.12-.14,.19-.27,.23-.4,.06-.15,.1-.33,.11-.53,0-.2,.01-.36,.01-.48l.37,.11c-.36,.06-.67,.11-.93,.15-.26,.04-.48,.08-.67,.12-.19,.04-.35,.08-.5,.13-.14,.05-.26,.11-.36,.17-.1,.07-.17,.14-.22,.23-.05,.09-.08,.19-.08,.3,0,.13,.03,.25,.1,.35s.16,.18,.29,.24c.13,.06,.29,.09,.48,.09Z"/><path class="cls-1" d="M269.62,96.81v-5.4h1.07v1.68h.15v3.72h-1.22Zm3.74,0v-2.6c0-.17-.01-.36-.03-.57-.02-.21-.08-.41-.16-.6-.08-.19-.21-.35-.38-.47-.17-.12-.4-.18-.68-.18-.15,0-.3,.03-.46,.08-.15,.05-.29,.14-.41,.26-.12,.12-.22,.29-.29,.5-.07,.21-.11,.48-.11,.81l-.71-.3c0-.46,.09-.88,.27-1.25,.18-.37,.44-.67,.79-.89,.35-.22,.77-.33,1.28-.33,.4,0,.73,.07,.99,.2,.26,.13,.47,.3,.62,.51,.15,.21,.27,.43,.34,.66,.07,.23,.12,.45,.14,.66,.02,.21,.03,.38,.03,.51v3.01h-1.22Z"/><path class="cls-1" d="M278.05,96.96c-.5,0-.93-.12-1.3-.38-.37-.25-.66-.59-.86-1.02s-.3-.92-.3-1.46,.1-1.03,.31-1.46c.21-.43,.5-.77,.87-1.02,.38-.25,.82-.37,1.33-.37s.95,.12,1.29,.37c.35,.25,.61,.59,.79,1.02s.27,.92,.27,1.46-.09,1.02-.27,1.45-.45,.77-.8,1.02c-.36,.25-.8,.38-1.33,.38Zm.11,2.4c-.3,0-.59-.05-.86-.14-.28-.09-.52-.23-.74-.4-.22-.18-.4-.39-.54-.63l1.11-.55c.1,.2,.25,.34,.44,.44s.39,.14,.6,.14c.25,0,.47-.04,.67-.13,.2-.09,.35-.22,.46-.39,.11-.17,.16-.39,.15-.64v-1.54h.15v-4.11h1.05v5.66c0,.14,0,.27-.02,.39s-.03,.25-.06,.37c-.08,.35-.23,.64-.46,.86-.23,.22-.51,.39-.84,.5-.33,.11-.71,.17-1.11,.17Zm.08-3.48c.32,0,.58-.07,.78-.22,.2-.15,.34-.36,.44-.62,.09-.27,.14-.57,.14-.92s-.05-.66-.14-.93c-.09-.26-.23-.47-.43-.62-.19-.15-.44-.22-.75-.22-.32,0-.59,.08-.8,.24-.21,.16-.37,.37-.46,.64-.1,.27-.15,.57-.15,.89s.05,.63,.15,.9c.1,.27,.25,.48,.45,.64,.2,.16,.46,.24,.78,.24Z"/><path class="cls-1" d="M284.5,96.96c-.55,0-1.03-.12-1.44-.36-.41-.24-.73-.56-.97-.99-.23-.42-.35-.9-.35-1.45,0-.59,.11-1.1,.34-1.54,.23-.43,.54-.77,.95-1.01,.4-.24,.87-.36,1.4-.36,.56,0,1.04,.13,1.43,.39,.39,.26,.68,.63,.87,1.11,.19,.48,.26,1.04,.21,1.68h-1.19v-.44c0-.59-.11-1.02-.31-1.29-.2-.27-.52-.41-.96-.41-.49,0-.86,.15-1.1,.46-.24,.3-.36,.75-.36,1.34,0,.55,.12,.97,.36,1.27,.24,.3,.59,.45,1.05,.45,.3,0,.55-.07,.77-.2s.38-.32,.5-.57l1.19,.36c-.21,.49-.53,.86-.96,1.13-.43,.27-.91,.41-1.43,.41Zm-1.86-2.52v-.91h3.71v.91h-3.71Z"/><path class="cls-1" d="M289.46,92.35v-.95h3.77v.95h-3.77Zm3.77,4.46c-.36,.07-.71,.1-1.05,.09-.34,0-.65-.07-.92-.19s-.47-.31-.62-.56c-.12-.23-.19-.47-.2-.71,0-.24,0-.52,0-.83v-4.7h1.2v4.62c0,.22,0,.41,0,.57,0,.16,.04,.3,.1,.4,.12,.2,.31,.31,.57,.33s.56,0,.9-.04v1.01Z"/><path class="cls-1" d="M294.4,96.81v-5.4h1.06v1.32l-.13-.17c.07-.18,.16-.34,.27-.49,.11-.15,.25-.27,.4-.37,.13-.09,.28-.16,.44-.21s.33-.08,.5-.1,.33,0,.49,.02v1.12c-.16-.05-.34-.06-.55-.04-.21,.02-.39,.08-.56,.18-.17,.09-.3,.2-.41,.34-.11,.14-.18,.3-.23,.48-.05,.18-.08,.37-.08,.58v2.75h-1.21Z"/><path class="cls-1" d="M299.9,96.96c-.39,0-.72-.07-.99-.22s-.47-.35-.61-.59-.21-.52-.21-.82c0-.26,.04-.49,.13-.7,.09-.21,.22-.39,.4-.54,.18-.15,.41-.28,.7-.37,.22-.07,.47-.13,.76-.19,.29-.06,.61-.11,.95-.16,.34-.05,.7-.1,1.07-.16l-.43,.24c0-.37-.08-.65-.25-.82s-.46-.27-.86-.27c-.24,0-.48,.06-.71,.17s-.38,.31-.47,.58l-1.1-.34c.13-.46,.39-.82,.76-1.1,.38-.28,.88-.42,1.52-.42,.48,0,.9,.08,1.27,.23,.37,.16,.64,.41,.81,.77,.1,.19,.16,.38,.18,.58,.02,.2,.03,.42,.03,.65v3.32h-1.05v-1.17l.18,.19c-.24,.39-.53,.68-.85,.86-.32,.18-.73,.27-1.22,.27Zm.24-.96c.27,0,.51-.05,.7-.15s.35-.21,.46-.35c.12-.14,.19-.27,.23-.4,.06-.15,.1-.33,.11-.53s.01-.36,.01-.48l.37,.11c-.36,.06-.68,.11-.94,.15s-.48,.08-.67,.12c-.19,.04-.35,.08-.49,.13-.14,.05-.26,.11-.36,.17-.1,.07-.17,.14-.22,.23-.05,.09-.08,.19-.08,.3,0,.13,.03,.25,.1,.35,.07,.1,.16,.18,.29,.24,.13,.06,.29,.09,.48,.09Z"/><path class="cls-1" d="M306.31,96.96c-.5,0-.93-.12-1.3-.38-.37-.25-.66-.59-.86-1.02s-.3-.92-.3-1.46,.1-1.03,.31-1.46c.21-.43,.5-.77,.87-1.02,.38-.25,.82-.37,1.33-.37s.95,.12,1.29,.37c.35,.25,.61,.59,.79,1.02s.27,.92,.27,1.46-.09,1.02-.27,1.45-.45,.77-.8,1.02c-.36,.25-.8,.38-1.33,.38Zm.19-1.08c.32,0,.58-.07,.78-.22,.2-.15,.34-.36,.44-.62,.09-.27,.14-.57,.14-.92s-.05-.66-.14-.93c-.09-.26-.23-.47-.43-.62-.19-.15-.44-.22-.75-.22-.32,0-.59,.08-.8,.24-.21,.16-.37,.37-.46,.64-.1,.27-.15,.57-.15,.89s.05,.63,.15,.9c.1,.27,.25,.48,.45,.64,.2,.16,.46,.24,.78,.24Zm1.36,.93v-3.79h-.15v-3.41h1.21v7.2h-1.06Z"/><path class="cls-1" d="M311.83,96.96c-.39,0-.72-.07-.99-.22s-.47-.35-.61-.59-.21-.52-.21-.82c0-.26,.04-.49,.13-.7,.09-.21,.22-.39,.4-.54,.18-.15,.41-.28,.7-.37,.22-.07,.47-.13,.76-.19,.29-.06,.61-.11,.95-.16,.34-.05,.7-.1,1.07-.16l-.43,.24c0-.37-.08-.65-.25-.82s-.46-.27-.86-.27c-.24,0-.48,.06-.71,.17s-.38,.31-.47,.58l-1.1-.34c.13-.46,.39-.82,.76-1.1,.38-.28,.88-.42,1.52-.42,.48,0,.9,.08,1.27,.23,.37,.16,.64,.41,.81,.77,.1,.19,.16,.38,.18,.58,.02,.2,.03,.42,.03,.65v3.32h-1.05v-1.17l.18,.19c-.24,.39-.53,.68-.85,.86-.32,.18-.73,.27-1.22,.27Zm.24-.96c.27,0,.51-.05,.7-.15s.35-.21,.46-.35c.12-.14,.19-.27,.23-.4,.06-.15,.1-.33,.11-.53s.01-.36,.01-.48l.37,.11c-.36,.06-.68,.11-.94,.15s-.48,.08-.67,.12c-.19,.04-.35,.08-.49,.13-.14,.05-.26,.11-.36,.17-.1,.07-.17,.14-.22,.23-.05,.09-.08,.19-.08,.3,0,.13,.03,.25,.1,.35,.07,.1,.16,.18,.29,.24,.13,.06,.29,.09,.48,.09Z"/><path class="cls-1" d="M316.07,96.81v-7.2h1.21v3.41h-.15v3.79h-1.06Zm2.6,.15c-.53,0-.97-.12-1.32-.38-.36-.25-.62-.59-.8-1.02s-.27-.92-.27-1.45,.09-1.03,.27-1.46,.44-.77,.79-1.02c.35-.25,.78-.37,1.29-.37s.95,.12,1.33,.37c.38,.25,.67,.59,.87,1.02,.21,.43,.31,.92,.31,1.46s-.1,1.03-.3,1.46-.49,.77-.86,1.02c-.37,.25-.8,.38-1.3,.38Zm-.18-1.08c.31,0,.57-.08,.77-.24,.2-.16,.36-.37,.45-.64,.1-.27,.15-.57,.15-.9s-.05-.62-.15-.89c-.1-.27-.26-.48-.46-.64-.21-.16-.48-.24-.8-.24-.31,0-.56,.07-.75,.22-.19,.15-.34,.35-.43,.62-.09,.27-.14,.57-.14,.93s.04,.66,.14,.92c.09,.27,.24,.47,.44,.62,.2,.15,.46,.22,.78,.22Z"/><path class="cls-1" d="M322.34,96.81v-7.35h1.21v7.35h-1.21Z"/><path class="cls-1" d="M327.5,96.96c-.55,0-1.03-.12-1.44-.36-.41-.24-.73-.56-.97-.99-.23-.42-.35-.9-.35-1.45,0-.59,.11-1.1,.34-1.54,.23-.43,.54-.77,.95-1.01,.4-.24,.87-.36,1.4-.36,.56,0,1.04,.13,1.43,.39,.39,.26,.68,.63,.87,1.11,.19,.48,.26,1.04,.21,1.68h-1.19v-.44c0-.59-.11-1.02-.31-1.29-.2-.27-.52-.41-.96-.41-.49,0-.86,.15-1.1,.46-.24,.3-.36,.75-.36,1.34,0,.55,.12,.97,.36,1.27,.24,.3,.59,.45,1.05,.45,.3,0,.55-.07,.77-.2s.38-.32,.5-.57l1.19,.36c-.21,.49-.53,.86-.96,1.13-.43,.27-.91,.41-1.43,.41Zm-1.86-2.52v-.91h3.71v.91h-3.71Z"/><path class="cls-1" d="M335.14,96.96c-.67,0-1.21-.15-1.62-.45s-.67-.72-.76-1.27l1.23-.19c.06,.27,.2,.48,.42,.63s.49,.23,.82,.23c.29,0,.51-.06,.67-.17s.24-.27,.24-.47c0-.12-.03-.22-.09-.3-.06-.07-.19-.15-.38-.22-.2-.07-.5-.16-.9-.27-.46-.12-.81-.25-1.08-.39-.27-.14-.46-.3-.58-.49-.12-.19-.17-.42-.17-.69,0-.34,.09-.63,.26-.88,.18-.25,.42-.44,.74-.58s.69-.2,1.12-.2,.79,.06,1.12,.19c.32,.13,.59,.32,.79,.56s.32,.52,.37,.84l-1.23,.22c-.03-.23-.13-.41-.31-.54-.18-.13-.42-.21-.71-.22-.28-.02-.51,.03-.69,.13-.17,.1-.26,.25-.26,.43,0,.1,.04,.19,.11,.27s.21,.15,.42,.22,.53,.16,.95,.27c.43,.11,.78,.24,1.03,.38s.45,.31,.56,.51c.11,.2,.17,.43,.17,.71,0,.54-.2,.97-.59,1.28-.4,.31-.94,.47-1.64,.47Z"/><path class="cls-1" d="M340.5,96.96c-.4,0-.73-.07-.99-.2-.26-.13-.47-.3-.62-.51-.15-.21-.27-.43-.34-.66-.07-.23-.12-.45-.14-.66-.02-.21-.03-.38-.03-.51v-3.02h1.22v2.6c0,.17,.01,.35,.04,.56,.02,.21,.08,.41,.16,.6,.08,.19,.21,.35,.38,.47s.4,.18,.68,.18c.15,0,.3-.02,.46-.07,.15-.05,.29-.14,.41-.26,.12-.12,.22-.29,.29-.5,.07-.21,.11-.48,.11-.81l.71,.3c0,.46-.09,.88-.27,1.25-.18,.37-.44,.67-.79,.89-.35,.22-.77,.33-1.28,.33Zm1.77-.16v-1.67h-.15v-3.73h1.21v5.4h-1.06Z"/><path class="cls-1" d="M344.72,99.21v-7.8h1.06v3.79h.15v4.01h-1.21Zm2.6-2.25c-.53,0-.97-.12-1.32-.38-.36-.25-.62-.59-.8-1.02s-.27-.92-.27-1.45,.09-1.03,.27-1.46,.44-.77,.79-1.02c.35-.25,.78-.37,1.29-.37s.95,.12,1.33,.37c.38,.25,.67,.59,.87,1.02,.21,.43,.31,.92,.31,1.46s-.1,1.03-.3,1.46-.49,.77-.86,1.02c-.37,.25-.8,.38-1.3,.38Zm-.18-1.08c.31,0,.57-.08,.77-.24,.2-.16,.36-.37,.45-.64,.1-.27,.15-.57,.15-.9s-.05-.62-.15-.89c-.1-.27-.26-.48-.46-.64-.21-.16-.48-.24-.8-.24-.31,0-.56,.07-.75,.22-.19,.15-.34,.35-.43,.62-.09,.27-.14,.57-.14,.93s.04,.66,.14,.92c.09,.27,.24,.47,.44,.62,.2,.15,.46,.22,.78,.22Z"/><path class="cls-1" d="M350.88,99.21v-7.8h1.06v3.79h.15v4.01h-1.21Zm2.6-2.25c-.53,0-.97-.12-1.32-.38-.36-.25-.62-.59-.8-1.02s-.27-.92-.27-1.45,.09-1.03,.27-1.46,.44-.77,.79-1.02c.35-.25,.78-.37,1.29-.37s.95,.12,1.33,.37c.38,.25,.67,.59,.87,1.02,.21,.43,.31,.92,.31,1.46s-.1,1.03-.3,1.46-.49,.77-.86,1.02c-.37,.25-.8,.38-1.3,.38Zm-.18-1.08c.31,0,.57-.08,.77-.24,.2-.16,.36-.37,.45-.64,.1-.27,.15-.57,.15-.9s-.05-.62-.15-.89c-.1-.27-.26-.48-.46-.64-.21-.16-.48-.24-.8-.24-.31,0-.56,.07-.75,.22-.19,.15-.34,.35-.43,.62-.09,.27-.14,.57-.14,.93s.04,.66,.14,.92c.09,.27,.24,.47,.44,.62,.2,.15,.46,.22,.78,.22Z"/><path class="cls-1" d="M357.15,96.81v-7.35h1.21v7.35h-1.21Z"/><path class="cls-1" d="M360.56,99.21l1.04-2.86,.02,.84-2.36-5.79h1.26l1.67,4.28h-.32l1.62-4.28h1.21l-3.01,7.8h-1.13Z"/><path class="cls-1" d="M368.96,96.96c-.39,0-.72-.07-.99-.22-.27-.15-.47-.35-.61-.59s-.21-.52-.21-.82c0-.26,.04-.49,.13-.7s.22-.39,.4-.54c.18-.15,.41-.28,.7-.37,.22-.07,.47-.13,.76-.19,.29-.06,.61-.11,.95-.16,.34-.05,.7-.1,1.07-.16l-.43,.24c0-.37-.08-.65-.25-.82s-.46-.27-.86-.27c-.24,0-.48,.06-.71,.17s-.38,.31-.47,.58l-1.1-.34c.13-.46,.39-.82,.76-1.1,.38-.28,.88-.42,1.52-.42,.48,0,.9,.08,1.27,.23,.37,.16,.63,.41,.81,.77,.1,.19,.15,.38,.17,.58,.02,.2,.03,.42,.03,.65v3.32h-1.05v-1.17l.17,.19c-.24,.39-.53,.68-.85,.86-.33,.18-.73,.27-1.22,.27Zm.24-.96c.27,0,.51-.05,.7-.15s.35-.21,.46-.35c.12-.14,.19-.27,.23-.4,.06-.15,.1-.33,.11-.53,0-.2,.01-.36,.01-.48l.37,.11c-.36,.06-.67,.11-.93,.15-.26,.04-.48,.08-.67,.12-.19,.04-.35,.08-.5,.13-.14,.05-.26,.11-.36,.17-.1,.07-.17,.14-.22,.23-.05,.09-.08,.19-.08,.3,0,.13,.03,.25,.1,.35s.16,.18,.29,.24c.13,.06,.29,.09,.48,.09Z"/><path class="cls-1" d="M372.61,92.35v-.95h3.77v.95h-3.77Zm3.77,4.46c-.36,.07-.71,.1-1.05,.09-.34,0-.65-.07-.92-.19-.27-.12-.48-.31-.62-.56-.12-.23-.19-.47-.2-.71,0-.24,0-.52,0-.83v-4.7h1.2v4.62c0,.22,0,.41,0,.57s.04,.3,.1,.4c.12,.2,.31,.31,.58,.33s.56,0,.9-.04v1.01Z"/><path class="cls-1" d="M381.27,96.81v-6.07h-2.33v-1.13h5.87v1.13h-2.33v6.07h-1.21Z"/><path class="cls-1" d="M388.57,96.96c-.47,0-.9-.08-1.31-.25s-.77-.41-1.07-.73c-.31-.32-.55-.71-.72-1.18-.17-.46-.26-1-.26-1.6,0-.79,.15-1.46,.44-2.02,.29-.56,.7-.99,1.21-1.29,.51-.3,1.09-.45,1.72-.45,.89,0,1.59,.21,2.11,.62,.52,.41,.87,.99,1.05,1.73l-1.23,.2c-.14-.43-.36-.77-.67-1.02-.31-.25-.71-.38-1.18-.38-.48,0-.88,.1-1.21,.32-.32,.22-.56,.52-.72,.91-.16,.39-.24,.85-.24,1.38s.08,.98,.24,1.37c.16,.39,.4,.69,.72,.91,.32,.22,.72,.33,1.21,.33,.36,0,.68-.06,.96-.2s.5-.34,.67-.62c.17-.27,.29-.62,.35-1.03h-1.27v-.95h2.55c0,.05,.01,.13,.02,.24s0,.17,0,.18c0,.68-.13,1.29-.4,1.81-.27,.53-.65,.94-1.15,1.24s-1.1,.45-1.79,.45Z"/><path class="cls-1" d="M392.92,96.81v-7.2h4.65v1.13h-3.45v1.78h2.85v1.13h-2.85v2.04h3.45v1.13h-4.65Z"/></g><rect class="cls-9" x="239.77" y="114.1" width="9.44" height="9.44"/><rect class="cls-8" x="239.77" y="133.98" width="9.44" height="9.44"/><rect class="cls-7" x="239.77" y="153.35" width="9.44" height="9.44"/><rect class="cls-6" x="239.77" y="172.73" width="9.44" height="9.44"/></svg>