<?xml version="1.0" encoding="UTF-8"?><svg id="Layer_1" xmlns="http://www.w3.org/2000/svg" viewBox="0 0 775 550"><defs><style>.cls-1{fill:#fff;}.cls-2,.cls-3,.cls-4,.cls-5,.cls-6,.cls-7,.cls-8{stroke-width:2px;}.cls-2,.cls-3,.cls-4,.cls-5,.cls-6,.cls-7,.cls-8,.cls-9,.cls-10,.cls-11,.cls-12,.cls-13,.cls-14,.cls-15,.cls-16{fill:none;stroke-miterlimit:10;}.cls-2,.cls-12{stroke:#b60086;}.cls-3,.cls-13{stroke:#317aff;}.cls-4,.cls-14{stroke:#91ff9d;}.cls-5,.cls-15{stroke:#9566f8;}.cls-6,.cls-9{stroke:#ff512f;}.cls-7,.cls-10{stroke:#fbbc04;}.cls-8,.cls-11{stroke:#ff85f4;}.cls-9,.cls-10,.cls-11,.cls-12,.cls-13,.cls-14,.cls-15{stroke-width:4px;}.cls-16{stroke:#91919d;}</style></defs><polyline class="cls-16" points="759.72 372.56 134.9 372.56 134.9 372.26 134.9 62.38"/><line class="cls-16" x1="142.81" y1="379.34" x2="142.81" y2="372.56"/><line class="cls-16" x1="158.43" y1="379.34" x2="158.43" y2="372.56"/><line class="cls-16" x1="174.04" y1="379.34" x2="174.04" y2="372.56"/><line class="cls-16" x1="189.66" y1="379.34" x2="189.66" y2="372.56"/><line class="cls-16" x1="205.27" y1="379.34" x2="205.27" y2="372.56"/><line class="cls-16" x1="220.89" y1="379.34" x2="220.89" y2="372.56"/><line class="cls-16" x1="236.5" y1="379.34" x2="236.5" y2="372.56"/><line class="cls-16" x1="252.12" y1="379.34" x2="252.12" y2="372.56"/><line class="cls-16" x1="267.73" y1="379.34" x2="267.73" y2="372.56"/><line class="cls-16" x1="283.35" y1="379.34" x2="283.35" y2="372.56"/><line class="cls-16" x1="298.97" y1="379.34" x2="298.97" y2="372.56"/><line class="cls-16" x1="314.58" y1="379.34" x2="314.58" y2="372.56"/><line class="cls-16" x1="330.2" y1="379.34" x2="330.2" y2="372.56"/><line class="cls-16" x1="345.81" y1="379.34" x2="345.81" y2="372.56"/><line class="cls-16" x1="361.43" y1="379.34" x2="361.43" y2="372.56"/><line class="cls-16" x1="377.04" y1="379.34" x2="377.04" y2="372.56"/><line class="cls-16" x1="392.66" y1="379.34" x2="392.66" y2="372.56"/><line class="cls-16" x1="408.27" y1="379.34" x2="408.27" y2="372.56"/><line class="cls-16" x1="423.89" y1="379.34" x2="423.89" y2="372.56"/><line class="cls-16" x1="439.5" y1="379.34" x2="439.5" y2="372.56"/><line class="cls-16" x1="455.12" y1="379.34" x2="455.12" y2="372.56"/><line class="cls-16" x1="470.74" y1="379.34" x2="470.74" y2="372.56"/><line class="cls-16" x1="486.35" y1="379.34" x2="486.35" y2="372.56"/><line class="cls-16" x1="501.97" y1="379.34" x2="501.97" y2="372.56"/><line class="cls-16" x1="517.58" y1="379.34" x2="517.58" y2="372.56"/><line class="cls-16" x1="533.2" y1="379.34" x2="533.2" y2="372.56"/><line class="cls-16" x1="548.81" y1="379.34" x2="548.81" y2="372.56"/><line class="cls-16" x1="564.43" y1="379.34" x2="564.43" y2="372.56"/><line class="cls-16" x1="580.04" y1="379.34" x2="580.04" y2="372.56"/><line class="cls-16" x1="595.66" y1="379.34" x2="595.66" y2="372.56"/><line class="cls-16" x1="611.28" y1="379.34" x2="611.28" y2="372.56"/><line class="cls-16" x1="626.89" y1="379.34" x2="626.89" y2="372.56"/><line class="cls-16" x1="642.51" y1="379.34" x2="642.51" y2="372.56"/><line class="cls-16" x1="658.12" y1="379.34" x2="658.12" y2="372.56"/><line class="cls-16" x1="673.74" y1="379.34" x2="673.74" y2="372.56"/><line class="cls-16" x1="689.35" y1="379.34" x2="689.35" y2="372.56"/><line class="cls-16" x1="704.97" y1="379.34" x2="704.97" y2="372.56"/><line class="cls-16" x1="720.58" y1="379.34" x2="720.58" y2="372.56"/><line class="cls-16" x1="736.2" y1="379.34" x2="736.2" y2="372.56"/><line class="cls-16" x1="751.81" y1="379.34" x2="751.81" y2="372.56"/><g><path class="cls-1" d="M326.82,392.1v-7.46l-1.63,.98v-1.2l1.63-.97h1.09v8.64h-1.09Z"/><path class="cls-1" d="M329.95,392.09v-.96s3.84-3.45,3.84-3.45c.32-.29,.54-.56,.64-.82,.11-.26,.17-.52,.17-.79,0-.33-.08-.63-.23-.9-.15-.27-.36-.48-.62-.64-.26-.15-.56-.23-.89-.23s-.65,.08-.92,.24c-.27,.16-.48,.38-.63,.64-.15,.27-.23,.56-.22,.88h-1.09c0-.54,.13-1.03,.38-1.44s.59-.75,1.03-.98c.43-.24,.93-.36,1.48-.36s1.02,.12,1.44,.37c.42,.25,.76,.58,1.01,1s.37,.9,.37,1.43c0,.38-.05,.7-.14,.98-.09,.28-.24,.53-.43,.76-.2,.23-.44,.48-.74,.75l-3.19,2.86-.14-.36h4.64v1.02h-5.74Z"/></g><g><path class="cls-1" d="M56.23,301.54v-.96s3.84-3.45,3.84-3.45c.32-.29,.54-.56,.65-.82,.11-.26,.17-.52,.17-.79,0-.33-.08-.63-.23-.9-.15-.27-.36-.48-.62-.64-.26-.16-.56-.23-.89-.23s-.65,.08-.92,.24-.48,.38-.63,.64c-.15,.27-.23,.56-.22,.88h-1.09c0-.54,.12-1.02,.38-1.44s.6-.75,1.03-.98,.93-.36,1.48-.36,1.02,.12,1.44,.37c.42,.25,.76,.58,1,1s.37,.9,.37,1.43c0,.38-.05,.7-.14,.98s-.24,.53-.44,.76c-.2,.23-.44,.48-.74,.75l-3.19,2.86-.14-.36h4.64v1.02h-5.74Z"/><path class="cls-1" d="M65.97,301.72c-.44,0-.86-.09-1.24-.28-.38-.18-.71-.44-.98-.76-.27-.32-.46-.69-.58-1.11l1.03-.28c.07,.28,.2,.53,.38,.74,.18,.21,.4,.37,.65,.48,.25,.11,.5,.17,.77,.17,.35,0,.67-.08,.95-.25,.28-.17,.51-.4,.67-.68s.25-.59,.25-.93-.09-.66-.26-.95-.4-.5-.68-.67-.59-.25-.93-.25c-.38,0-.7,.08-.97,.24-.27,.16-.48,.35-.64,.58l-.95-.36,.26-4.52h4.64v1.01h-4.12l.47-.44-.22,3.62-.23-.31c.24-.26,.53-.45,.86-.59,.33-.14,.68-.21,1.02-.21,.54,0,1.02,.12,1.44,.38s.76,.59,1.01,1.02,.37,.91,.37,1.45-.14,1.02-.41,1.46c-.27,.44-.63,.79-1.08,1.05-.45,.26-.94,.39-1.48,.39Z"/><path class="cls-1" d="M73.29,301.72c-.56,0-1.06-.13-1.5-.38-.44-.25-.78-.6-1.04-1.04-.25-.44-.38-.94-.38-1.5v-3.17c0-.56,.13-1.06,.38-1.5,.25-.44,.6-.79,1.04-1.04,.44-.25,.94-.38,1.5-.38s1.06,.13,1.5,.38c.44,.25,.79,.6,1.04,1.04,.25,.44,.38,.94,.38,1.5v3.17c0,.56-.13,1.06-.38,1.5-.25,.44-.6,.78-1.04,1.04-.44,.25-.94,.38-1.5,.38Zm0-1.03c.34,0,.65-.08,.92-.25,.28-.16,.5-.38,.66-.66s.25-.58,.25-.92v-3.29c0-.34-.08-.65-.25-.92-.16-.28-.38-.5-.66-.66-.28-.16-.58-.25-.92-.25s-.64,.08-.92,.25c-.28,.16-.5,.38-.66,.66-.16,.28-.25,.58-.25,.92v3.29c0,.34,.08,.64,.25,.92s.38,.5,.66,.66c.28,.16,.59,.25,.92,.25Z"/><path class="cls-1" d="M77.77,302.89l.07-.5c.17,.01,.29-.02,.38-.1s.14-.18,.16-.31c.02-.13,.03-.28,.01-.44h-.62v-1.36h1.18v1.54c0,.42-.1,.74-.31,.95s-.5,.28-.87,.22Z"/><path class="cls-1" d="M84.14,301.72c-.56,0-1.06-.13-1.5-.38s-.78-.6-1.04-1.04c-.25-.44-.38-.94-.38-1.5v-3.17c0-.56,.13-1.06,.38-1.5,.25-.44,.6-.79,1.04-1.04s.94-.38,1.5-.38,1.06,.13,1.5,.38,.79,.6,1.04,1.04c.25,.44,.38,.94,.38,1.5v3.17c0,.56-.13,1.06-.38,1.5-.25,.44-.6,.78-1.04,1.04s-.94,.38-1.5,.38Zm0-1.03c.34,0,.65-.08,.92-.25,.28-.16,.5-.38,.66-.66s.25-.58,.25-.92v-3.29c0-.34-.08-.65-.25-.92-.16-.28-.38-.5-.66-.66-.28-.16-.58-.25-.92-.25s-.64,.08-.92,.25-.5,.38-.66,.66c-.16,.28-.25,.58-.25,.92v3.29c0,.34,.08,.64,.25,.92s.38,.5,.66,.66,.58,.25,.92,.25Z"/><path class="cls-1" d="M91.65,301.72c-.56,0-1.06-.13-1.5-.38s-.78-.6-1.04-1.04c-.25-.44-.38-.94-.38-1.5v-3.17c0-.56,.13-1.06,.38-1.5,.25-.44,.6-.79,1.04-1.04s.94-.38,1.5-.38,1.06,.13,1.5,.38,.79,.6,1.04,1.04c.25,.44,.38,.94,.38,1.5v3.17c0,.56-.13,1.06-.38,1.5-.25,.44-.6,.78-1.04,1.04s-.94,.38-1.5,.38Zm0-1.03c.34,0,.65-.08,.92-.25,.28-.16,.5-.38,.66-.66s.25-.58,.25-.92v-3.29c0-.34-.08-.65-.25-.92-.16-.28-.38-.5-.66-.66-.28-.16-.58-.25-.92-.25s-.64,.08-.92,.25-.5,.38-.66,.66c-.16,.28-.25,.58-.25,.92v3.29c0,.34,.08,.64,.25,.92s.38,.5,.66,.66,.58,.25,.92,.25Z"/><path class="cls-1" d="M99.16,301.72c-.56,0-1.06-.13-1.5-.38s-.78-.6-1.04-1.04c-.25-.44-.38-.94-.38-1.5v-3.17c0-.56,.13-1.06,.38-1.5,.25-.44,.6-.79,1.04-1.04s.94-.38,1.5-.38,1.06,.13,1.5,.38,.79,.6,1.04,1.04c.25,.44,.38,.94,.38,1.5v3.17c0,.56-.13,1.06-.38,1.5-.25,.44-.6,.78-1.04,1.04s-.94,.38-1.5,.38Zm0-1.03c.34,0,.65-.08,.92-.25,.28-.16,.5-.38,.66-.66s.25-.58,.25-.92v-3.29c0-.34-.08-.65-.25-.92-.16-.28-.38-.5-.66-.66-.28-.16-.58-.25-.92-.25s-.64,.08-.92,.25-.5,.38-.66,.66c-.16,.28-.25,.58-.25,.92v3.29c0,.34,.08,.64,.25,.92s.38,.5,.66,.66,.58,.25,.92,.25Z"/><path class="cls-1" d="M103.64,302.89l.07-.5c.17,.01,.29-.02,.38-.1s.14-.18,.16-.31c.02-.13,.03-.28,.01-.44h-.62v-1.36h1.18v1.54c0,.42-.1,.74-.31,.95-.21,.21-.5,.28-.87,.22Z"/><path class="cls-1" d="M110.01,301.72c-.56,0-1.06-.13-1.5-.38-.44-.25-.78-.6-1.04-1.04-.25-.44-.38-.94-.38-1.5v-3.17c0-.56,.13-1.06,.38-1.5,.25-.44,.6-.79,1.04-1.04,.44-.25,.94-.38,1.5-.38s1.06,.13,1.5,.38c.44,.25,.79,.6,1.04,1.04,.25,.44,.38,.94,.38,1.5v3.17c0,.56-.12,1.06-.38,1.5-.25,.44-.6,.78-1.04,1.04-.44,.25-.94,.38-1.5,.38Zm0-1.03c.34,0,.65-.08,.92-.25s.5-.38,.66-.66,.25-.58,.25-.92v-3.29c0-.34-.08-.65-.25-.92-.16-.28-.38-.5-.66-.66s-.58-.25-.92-.25-.64,.08-.92,.25c-.28,.16-.5,.38-.66,.66-.16,.28-.25,.58-.25,.92v3.29c0,.34,.08,.64,.25,.92s.39,.5,.66,.66c.28,.16,.58,.25,.92,.25Z"/><path class="cls-1" d="M117.52,301.72c-.56,0-1.06-.13-1.5-.38-.44-.25-.78-.6-1.04-1.04-.25-.44-.38-.94-.38-1.5v-3.17c0-.56,.13-1.06,.38-1.5,.25-.44,.6-.79,1.04-1.04,.44-.25,.94-.38,1.5-.38s1.06,.13,1.5,.38c.44,.25,.79,.6,1.04,1.04,.25,.44,.38,.94,.38,1.5v3.17c0,.56-.12,1.06-.38,1.5-.25,.44-.6,.78-1.04,1.04-.44,.25-.94,.38-1.5,.38Zm0-1.03c.34,0,.65-.08,.92-.25s.5-.38,.66-.66,.25-.58,.25-.92v-3.29c0-.34-.08-.65-.25-.92-.16-.28-.38-.5-.66-.66s-.58-.25-.92-.25-.64,.08-.92,.25c-.28,.16-.5,.38-.66,.66-.16,.28-.25,.58-.25,.92v3.29c0,.34,.08,.64,.25,.92s.39,.5,.66,.66c.28,.16,.58,.25,.92,.25Z"/><path class="cls-1" d="M125.03,301.72c-.56,0-1.06-.13-1.5-.38s-.78-.6-1.04-1.04c-.25-.44-.38-.94-.38-1.5v-3.17c0-.56,.13-1.06,.38-1.5,.25-.44,.6-.79,1.04-1.04s.94-.38,1.5-.38,1.06,.13,1.5,.38,.79,.6,1.04,1.04c.25,.44,.38,.94,.38,1.5v3.17c0,.56-.13,1.06-.38,1.5-.25,.44-.6,.78-1.04,1.04s-.94,.38-1.5,.38Zm0-1.03c.34,0,.65-.08,.92-.25,.28-.16,.5-.38,.66-.66s.25-.58,.25-.92v-3.29c0-.34-.08-.65-.25-.92-.16-.28-.38-.5-.66-.66-.28-.16-.58-.25-.92-.25s-.64,.08-.92,.25-.5,.38-.66,.66c-.16,.28-.25,.58-.25,.92v3.29c0,.34,.08,.64,.25,.92s.39,.5,.66,.66,.58,.25,.92,.25Z"/></g><path class="cls-1" d="M125.03,376.13c-.56,0-1.06-.13-1.5-.38s-.78-.6-1.04-1.04c-.25-.44-.38-.94-.38-1.5v-3.17c0-.56,.13-1.06,.38-1.5,.25-.44,.6-.79,1.04-1.04s.94-.38,1.5-.38,1.06,.13,1.5,.38,.79,.6,1.04,1.04c.25,.44,.38,.94,.38,1.5v3.17c0,.56-.13,1.06-.38,1.5-.25,.44-.6,.78-1.04,1.04s-.94,.38-1.5,.38Zm0-1.03c.34,0,.65-.08,.92-.25,.28-.16,.5-.38,.66-.66s.25-.58,.25-.92v-3.29c0-.34-.08-.65-.25-.92-.16-.28-.38-.5-.66-.66-.28-.16-.58-.25-.92-.25s-.64,.08-.92,.25-.5,.38-.66,.66c-.16,.28-.25,.58-.25,.92v3.29c0,.34,.08,.64,.25,.92s.39,.5,.66,.66,.58,.25,.92,.25Z"/><g><path class="cls-1" d="M58.45,230.14c-.44,0-.86-.09-1.24-.28-.38-.18-.71-.44-.98-.76-.27-.32-.46-.69-.58-1.11l1.03-.28c.07,.28,.2,.53,.38,.74,.18,.21,.4,.37,.65,.48,.25,.11,.5,.17,.77,.17,.35,0,.67-.08,.95-.25,.28-.17,.51-.4,.67-.68s.25-.59,.25-.93-.09-.66-.26-.95-.4-.5-.68-.67-.59-.25-.93-.25c-.38,0-.7,.08-.97,.24-.27,.16-.48,.35-.64,.58l-.95-.36,.26-4.52h4.64v1.01h-4.12l.47-.44-.22,3.62-.23-.31c.24-.26,.53-.45,.86-.59,.33-.14,.68-.21,1.02-.21,.54,0,1.02,.12,1.44,.38s.76,.59,1.01,1.02,.37,.91,.37,1.45-.14,1.02-.41,1.46c-.27,.44-.63,.79-1.08,1.05-.45,.26-.94,.39-1.48,.39Z"/><path class="cls-1" d="M65.78,230.14c-.56,0-1.06-.13-1.5-.38-.44-.25-.78-.6-1.04-1.04-.25-.44-.38-.94-.38-1.5v-3.17c0-.56,.13-1.06,.38-1.5,.25-.44,.6-.79,1.04-1.04,.44-.25,.94-.38,1.5-.38s1.06,.13,1.5,.38c.44,.25,.79,.6,1.04,1.04,.25,.44,.38,.94,.38,1.5v3.17c0,.56-.13,1.06-.38,1.5-.25,.44-.6,.78-1.04,1.04-.44,.25-.94,.38-1.5,.38Zm0-1.03c.34,0,.65-.08,.92-.25,.28-.16,.5-.38,.66-.66s.25-.58,.25-.92v-3.29c0-.34-.08-.65-.25-.92-.16-.28-.38-.5-.66-.66-.28-.16-.58-.25-.92-.25s-.64,.08-.92,.25c-.28,.16-.5,.38-.66,.66-.16,.28-.25,.58-.25,.92v3.29c0,.34,.08,.64,.25,.92s.38,.5,.66,.66c.28,.16,.59,.25,.92,.25Z"/><path class="cls-1" d="M73.29,230.14c-.56,0-1.06-.13-1.5-.38s-.78-.6-1.04-1.04c-.25-.44-.38-.94-.38-1.5v-3.17c0-.56,.13-1.06,.38-1.5,.25-.44,.6-.79,1.04-1.04s.94-.38,1.5-.38,1.06,.13,1.5,.38,.79,.6,1.04,1.04c.25,.44,.38,.94,.38,1.5v3.17c0,.56-.13,1.06-.38,1.5-.25,.44-.6,.78-1.04,1.04s-.94,.38-1.5,.38Zm0-1.03c.34,0,.65-.08,.92-.25,.28-.16,.5-.38,.66-.66s.25-.58,.25-.92v-3.29c0-.34-.08-.65-.25-.92-.16-.28-.38-.5-.66-.66-.28-.16-.58-.25-.92-.25s-.64,.08-.92,.25-.5,.38-.66,.66c-.16,.28-.25,.58-.25,.92v3.29c0,.34,.08,.64,.25,.92s.38,.5,.66,.66,.58,.25,.92,.25Z"/><path class="cls-1" d="M77.77,231.3l.07-.5c.17,.01,.29-.02,.38-.1s.14-.18,.16-.31c.02-.13,.03-.28,.01-.44h-.62v-1.36h1.18v1.54c0,.42-.1,.74-.31,.95s-.5,.28-.87,.22Z"/><path class="cls-1" d="M84.14,230.14c-.56,0-1.06-.13-1.5-.38s-.78-.6-1.04-1.04c-.25-.44-.38-.94-.38-1.5v-3.17c0-.56,.13-1.06,.38-1.5,.25-.44,.6-.79,1.04-1.04s.94-.38,1.5-.38,1.06,.13,1.5,.38,.79,.6,1.04,1.04c.25,.44,.38,.94,.38,1.5v3.17c0,.56-.13,1.06-.38,1.5-.25,.44-.6,.78-1.04,1.04s-.94,.38-1.5,.38Zm0-1.03c.34,0,.65-.08,.92-.25,.28-.16,.5-.38,.66-.66s.25-.58,.25-.92v-3.29c0-.34-.08-.65-.25-.92-.16-.28-.38-.5-.66-.66-.28-.16-.58-.25-.92-.25s-.64,.08-.92,.25-.5,.38-.66,.66c-.16,.28-.25,.58-.25,.92v3.29c0,.34,.08,.64,.25,.92s.38,.5,.66,.66,.58,.25,.92,.25Z"/><path class="cls-1" d="M91.65,230.14c-.56,0-1.06-.13-1.5-.38s-.78-.6-1.04-1.04c-.25-.44-.38-.94-.38-1.5v-3.17c0-.56,.13-1.06,.38-1.5,.25-.44,.6-.79,1.04-1.04s.94-.38,1.5-.38,1.06,.13,1.5,.38,.79,.6,1.04,1.04c.25,.44,.38,.94,.38,1.5v3.17c0,.56-.13,1.06-.38,1.5-.25,.44-.6,.78-1.04,1.04s-.94,.38-1.5,.38Zm0-1.03c.34,0,.65-.08,.92-.25,.28-.16,.5-.38,.66-.66s.25-.58,.25-.92v-3.29c0-.34-.08-.65-.25-.92-.16-.28-.38-.5-.66-.66-.28-.16-.58-.25-.92-.25s-.64,.08-.92,.25-.5,.38-.66,.66c-.16,.28-.25,.58-.25,.92v3.29c0,.34,.08,.64,.25,.92s.38,.5,.66,.66,.58,.25,.92,.25Z"/><path class="cls-1" d="M99.16,230.14c-.56,0-1.06-.13-1.5-.38-.44-.25-.78-.6-1.04-1.04-.25-.44-.38-.94-.38-1.5v-3.17c0-.56,.13-1.06,.38-1.5,.25-.44,.6-.79,1.04-1.04,.44-.25,.94-.38,1.5-.38s1.06,.13,1.5,.38c.44,.25,.79,.6,1.04,1.04,.25,.44,.38,.94,.38,1.5v3.17c0,.56-.12,1.06-.38,1.5-.25,.44-.6,.78-1.04,1.04-.44,.25-.94,.38-1.5,.38Zm0-1.03c.34,0,.65-.08,.92-.25s.5-.38,.66-.66,.25-.58,.25-.92v-3.29c0-.34-.08-.65-.25-.92-.16-.28-.38-.5-.66-.66s-.58-.25-.92-.25-.64,.08-.92,.25c-.28,.16-.5,.38-.66,.66-.16,.28-.25,.58-.25,.92v3.29c0,.34,.08,.64,.25,.92s.39,.5,.66,.66c.28,.16,.58,.25,.92,.25Z"/><path class="cls-1" d="M103.64,231.3l.07-.5c.17,.01,.29-.02,.38-.1s.14-.18,.16-.31c.02-.13,.03-.28,.01-.44h-.62v-1.36h1.18v1.54c0,.42-.1,.74-.31,.95-.21,.21-.5,.28-.87,.22Z"/><path class="cls-1" d="M110.01,230.14c-.56,0-1.06-.13-1.5-.38-.44-.25-.78-.6-1.04-1.04-.25-.44-.38-.94-.38-1.5v-3.17c0-.56,.13-1.06,.38-1.5,.25-.44,.6-.79,1.04-1.04,.44-.25,.94-.38,1.5-.38s1.06,.13,1.5,.38c.44,.25,.79,.6,1.04,1.04,.25,.44,.38,.94,.38,1.5v3.17c0,.56-.12,1.06-.38,1.5-.25,.44-.6,.78-1.04,1.04-.44,.25-.94,.38-1.5,.38Zm0-1.03c.34,0,.65-.08,.92-.25s.5-.38,.66-.66,.25-.58,.25-.92v-3.29c0-.34-.08-.65-.25-.92-.16-.28-.38-.5-.66-.66s-.58-.25-.92-.25-.64,.08-.92,.25c-.28,.16-.5,.38-.66,.66-.16,.28-.25,.58-.25,.92v3.29c0,.34,.08,.64,.25,.92s.39,.5,.66,.66c.28,.16,.58,.25,.92,.25Z"/><path class="cls-1" d="M117.52,230.14c-.56,0-1.06-.13-1.5-.38s-.78-.6-1.04-1.04c-.25-.44-.38-.94-.38-1.5v-3.17c0-.56,.13-1.06,.38-1.5,.25-.44,.6-.79,1.04-1.04s.94-.38,1.5-.38,1.06,.13,1.5,.38,.79,.6,1.04,1.04c.25,.44,.38,.94,.38,1.5v3.17c0,.56-.13,1.06-.38,1.5-.25,.44-.6,.78-1.04,1.04s-.94,.38-1.5,.38Zm0-1.03c.34,0,.65-.08,.92-.25,.28-.16,.5-.38,.66-.66s.25-.58,.25-.92v-3.29c0-.34-.08-.65-.25-.92-.16-.28-.38-.5-.66-.66-.28-.16-.58-.25-.92-.25s-.64,.08-.92,.25-.5,.38-.66,.66c-.16,.28-.25,.58-.25,.92v3.29c0,.34,.08,.64,.25,.92s.39,.5,.66,.66,.58,.25,.92,.25Z"/><path class="cls-1" d="M125.03,230.14c-.56,0-1.06-.13-1.5-.38s-.78-.6-1.04-1.04c-.25-.44-.38-.94-.38-1.5v-3.17c0-.56,.13-1.06,.38-1.5,.25-.44,.6-.79,1.04-1.04s.94-.38,1.5-.38,1.06,.13,1.5,.38,.79,.6,1.04,1.04c.25,.44,.38,.94,.38,1.5v3.17c0,.56-.13,1.06-.38,1.5-.25,.44-.6,.78-1.04,1.04s-.94,.38-1.5,.38Zm0-1.03c.34,0,.65-.08,.92-.25,.28-.16,.5-.38,.66-.66s.25-.58,.25-.92v-3.29c0-.34-.08-.65-.25-.92-.16-.28-.38-.5-.66-.66-.28-.16-.58-.25-.92-.25s-.64,.08-.92,.25-.5,.38-.66,.66c-.16,.28-.25,.58-.25,.92v3.29c0,.34,.08,.64,.25,.92s.39,.5,.66,.66,.58,.25,.92,.25Z"/></g><g><path class="cls-1" d="M57.72,154.17l3.11-7.61h-3.92v-1.03h5.07v1.03l-3.1,7.61h-1.15Z"/><path class="cls-1" d="M65.97,154.35c-.44,0-.86-.09-1.24-.28-.38-.18-.71-.44-.98-.76-.27-.32-.46-.69-.58-1.11l1.03-.28c.07,.28,.2,.53,.38,.74,.18,.21,.4,.37,.65,.48,.25,.11,.5,.17,.77,.17,.35,0,.67-.08,.95-.25,.28-.17,.51-.4,.67-.68s.25-.59,.25-.93-.09-.66-.26-.95-.4-.5-.68-.67-.59-.25-.93-.25c-.38,0-.7,.08-.97,.24-.27,.16-.48,.35-.64,.58l-.95-.36,.26-4.52h4.64v1.01h-4.12l.47-.44-.22,3.62-.23-.31c.24-.26,.53-.45,.86-.59,.33-.14,.68-.21,1.02-.21,.54,0,1.02,.12,1.44,.38s.76,.59,1.01,1.02,.37,.91,.37,1.45-.14,1.02-.41,1.46c-.27,.44-.63,.79-1.08,1.05-.45,.26-.94,.39-1.48,.39Z"/><path class="cls-1" d="M73.29,154.35c-.56,0-1.06-.13-1.5-.38-.44-.25-.78-.6-1.04-1.04-.25-.44-.38-.94-.38-1.5v-3.17c0-.56,.13-1.06,.38-1.5,.25-.44,.6-.79,1.04-1.04,.44-.25,.94-.38,1.5-.38s1.06,.13,1.5,.38c.44,.25,.79,.6,1.04,1.04,.25,.44,.38,.94,.38,1.5v3.17c0,.56-.13,1.06-.38,1.5-.25,.44-.6,.78-1.04,1.04-.44,.25-.94,.38-1.5,.38Zm0-1.03c.34,0,.65-.08,.92-.25,.28-.16,.5-.38,.66-.66s.25-.58,.25-.92v-3.29c0-.34-.08-.65-.25-.92-.16-.28-.38-.5-.66-.66-.28-.16-.58-.25-.92-.25s-.64,.08-.92,.25c-.28,.16-.5,.38-.66,.66-.16,.28-.25,.58-.25,.92v3.29c0,.34,.08,.64,.25,.92s.38,.5,.66,.66c.28,.16,.59,.25,.92,.25Z"/><path class="cls-1" d="M77.77,155.52l.07-.5c.17,.01,.29-.02,.38-.1s.14-.18,.16-.31c.02-.13,.03-.28,.01-.44h-.62v-1.36h1.18v1.54c0,.42-.1,.74-.31,.95s-.5,.28-.87,.22Z"/><path class="cls-1" d="M84.14,154.35c-.56,0-1.06-.13-1.5-.38s-.78-.6-1.04-1.04c-.25-.44-.38-.94-.38-1.5v-3.17c0-.56,.13-1.06,.38-1.5,.25-.44,.6-.79,1.04-1.04s.94-.38,1.5-.38,1.06,.13,1.5,.38,.79,.6,1.04,1.04c.25,.44,.38,.94,.38,1.5v3.17c0,.56-.13,1.06-.38,1.5-.25,.44-.6,.78-1.04,1.04s-.94,.38-1.5,.38Zm0-1.03c.34,0,.65-.08,.92-.25,.28-.16,.5-.38,.66-.66s.25-.58,.25-.92v-3.29c0-.34-.08-.65-.25-.92-.16-.28-.38-.5-.66-.66-.28-.16-.58-.25-.92-.25s-.64,.08-.92,.25-.5,.38-.66,.66c-.16,.28-.25,.58-.25,.92v3.29c0,.34,.08,.64,.25,.92s.38,.5,.66,.66,.58,.25,.92,.25Z"/><path class="cls-1" d="M91.65,154.35c-.56,0-1.06-.13-1.5-.38s-.78-.6-1.04-1.04c-.25-.44-.38-.94-.38-1.5v-3.17c0-.56,.13-1.06,.38-1.5,.25-.44,.6-.79,1.04-1.04s.94-.38,1.5-.38,1.06,.13,1.5,.38,.79,.6,1.04,1.04c.25,.44,.38,.94,.38,1.5v3.17c0,.56-.13,1.06-.38,1.5-.25,.44-.6,.78-1.04,1.04s-.94,.38-1.5,.38Zm0-1.03c.34,0,.65-.08,.92-.25,.28-.16,.5-.38,.66-.66s.25-.58,.25-.92v-3.29c0-.34-.08-.65-.25-.92-.16-.28-.38-.5-.66-.66-.28-.16-.58-.25-.92-.25s-.64,.08-.92,.25-.5,.38-.66,.66c-.16,.28-.25,.58-.25,.92v3.29c0,.34,.08,.64,.25,.92s.38,.5,.66,.66,.58,.25,.92,.25Z"/><path class="cls-1" d="M99.16,154.35c-.56,0-1.06-.13-1.5-.38s-.78-.6-1.04-1.04c-.25-.44-.38-.94-.38-1.5v-3.17c0-.56,.13-1.06,.38-1.5,.25-.44,.6-.79,1.04-1.04s.94-.38,1.5-.38,1.06,.13,1.5,.38,.79,.6,1.04,1.04c.25,.44,.38,.94,.38,1.5v3.17c0,.56-.13,1.06-.38,1.5-.25,.44-.6,.78-1.04,1.04s-.94,.38-1.5,.38Zm0-1.03c.34,0,.65-.08,.92-.25,.28-.16,.5-.38,.66-.66s.25-.58,.25-.92v-3.29c0-.34-.08-.65-.25-.92-.16-.28-.38-.5-.66-.66-.28-.16-.58-.25-.92-.25s-.64,.08-.92,.25-.5,.38-.66,.66c-.16,.28-.25,.58-.25,.92v3.29c0,.34,.08,.64,.25,.92s.38,.5,.66,.66,.58,.25,.92,.25Z"/><path class="cls-1" d="M103.64,155.52l.07-.5c.17,.01,.29-.02,.38-.1s.14-.18,.16-.31c.02-.13,.03-.28,.01-.44h-.62v-1.36h1.18v1.54c0,.42-.1,.74-.31,.95-.21,.21-.5,.28-.87,.22Z"/><path class="cls-1" d="M110.01,154.35c-.56,0-1.06-.13-1.5-.38-.44-.25-.78-.6-1.04-1.04-.25-.44-.38-.94-.38-1.5v-3.17c0-.56,.13-1.06,.38-1.5,.25-.44,.6-.79,1.04-1.04,.44-.25,.94-.38,1.5-.38s1.06,.13,1.5,.38c.44,.25,.79,.6,1.04,1.04,.25,.44,.38,.94,.38,1.5v3.17c0,.56-.12,1.06-.38,1.5-.25,.44-.6,.78-1.04,1.04-.44,.25-.94,.38-1.5,.38Zm0-1.03c.34,0,.65-.08,.92-.25s.5-.38,.66-.66,.25-.58,.25-.92v-3.29c0-.34-.08-.65-.25-.92-.16-.28-.38-.5-.66-.66s-.58-.25-.92-.25-.64,.08-.92,.25c-.28,.16-.5,.38-.66,.66-.16,.28-.25,.58-.25,.92v3.29c0,.34,.08,.64,.25,.92s.39,.5,.66,.66c.28,.16,.58,.25,.92,.25Z"/><path class="cls-1" d="M117.52,154.35c-.56,0-1.06-.13-1.5-.38-.44-.25-.78-.6-1.04-1.04-.25-.44-.38-.94-.38-1.5v-3.17c0-.56,.13-1.06,.38-1.5,.25-.44,.6-.79,1.04-1.04,.44-.25,.94-.38,1.5-.38s1.06,.13,1.5,.38c.44,.25,.79,.6,1.04,1.04,.25,.44,.38,.94,.38,1.5v3.17c0,.56-.12,1.06-.38,1.5-.25,.44-.6,.78-1.04,1.04-.44,.25-.94,.38-1.5,.38Zm0-1.03c.34,0,.65-.08,.92-.25s.5-.38,.66-.66,.25-.58,.25-.92v-3.29c0-.34-.08-.65-.25-.92-.16-.28-.38-.5-.66-.66s-.58-.25-.92-.25-.64,.08-.92,.25c-.28,.16-.5,.38-.66,.66-.16,.28-.25,.58-.25,.92v3.29c0,.34,.08,.64,.25,.92s.39,.5,.66,.66c.28,.16,.58,.25,.92,.25Z"/><path class="cls-1" d="M125.03,154.35c-.56,0-1.06-.13-1.5-.38s-.78-.6-1.04-1.04c-.25-.44-.38-.94-.38-1.5v-3.17c0-.56,.13-1.06,.38-1.5,.25-.44,.6-.79,1.04-1.04s.94-.38,1.5-.38,1.06,.13,1.5,.38,.79,.6,1.04,1.04c.25,.44,.38,.94,.38,1.5v3.17c0,.56-.13,1.06-.38,1.5-.25,.44-.6,.78-1.04,1.04s-.94,.38-1.5,.38Zm0-1.03c.34,0,.65-.08,.92-.25,.28-.16,.5-.38,.66-.66s.25-.58,.25-.92v-3.29c0-.34-.08-.65-.25-.92-.16-.28-.38-.5-.66-.66-.28-.16-.58-.25-.92-.25s-.64,.08-.92,.25-.5,.38-.66,.66c-.16,.28-.25,.58-.25,.92v3.29c0,.34,.08,.64,.25,.92s.39,.5,.66,.66,.58,.25,.92,.25Z"/></g><g><path class="cls-1" d="M49.13,81.47v-7.46l-1.62,.98v-1.19l1.62-.97h1.09v8.64h-1.09Z"/><path class="cls-1" d="M51.9,82.81l.07-.5c.17,.01,.29-.02,.38-.1s.14-.18,.16-.31c.02-.13,.03-.28,.01-.44h-.62v-1.36h1.18v1.54c0,.42-.1,.74-.31,.95-.21,.21-.49,.28-.87,.22Z"/><path class="cls-1" d="M58.27,81.65c-.56,0-1.06-.13-1.5-.38-.44-.25-.78-.6-1.04-1.04-.25-.44-.38-.94-.38-1.5v-3.17c0-.56,.13-1.06,.38-1.5,.25-.44,.6-.79,1.04-1.04,.44-.25,.94-.38,1.5-.38s1.06,.13,1.5,.38c.44,.25,.79,.6,1.04,1.04,.25,.44,.38,.94,.38,1.5v3.17c0,.56-.13,1.06-.38,1.5-.25,.44-.6,.78-1.04,1.04-.44,.25-.94,.38-1.5,.38Zm0-1.03c.34,0,.65-.08,.92-.25,.28-.16,.5-.38,.66-.66s.25-.58,.25-.92v-3.29c0-.34-.08-.65-.25-.92-.16-.28-.38-.5-.66-.66-.28-.16-.58-.25-.92-.25s-.64,.08-.92,.25c-.28,.16-.5,.38-.66,.66-.16,.28-.25,.58-.25,.92v3.29c0,.34,.08,.64,.25,.92s.38,.5,.66,.66c.28,.16,.59,.25,.92,.25Z"/><path class="cls-1" d="M65.78,81.65c-.56,0-1.06-.13-1.5-.38-.44-.25-.78-.6-1.04-1.04-.25-.44-.38-.94-.38-1.5v-3.17c0-.56,.13-1.06,.38-1.5,.25-.44,.6-.79,1.04-1.04,.44-.25,.94-.38,1.5-.38s1.06,.13,1.5,.38c.44,.25,.79,.6,1.04,1.04,.25,.44,.38,.94,.38,1.5v3.17c0,.56-.13,1.06-.38,1.5-.25,.44-.6,.78-1.04,1.04-.44,.25-.94,.38-1.5,.38Zm0-1.03c.34,0,.65-.08,.92-.25,.28-.16,.5-.38,.66-.66s.25-.58,.25-.92v-3.29c0-.34-.08-.65-.25-.92-.16-.28-.38-.5-.66-.66-.28-.16-.58-.25-.92-.25s-.64,.08-.92,.25c-.28,.16-.5,.38-.66,.66-.16,.28-.25,.58-.25,.92v3.29c0,.34,.08,.64,.25,.92s.38,.5,.66,.66c.28,.16,.59,.25,.92,.25Z"/><path class="cls-1" d="M73.29,81.65c-.56,0-1.06-.13-1.5-.38s-.78-.6-1.04-1.04c-.25-.44-.38-.94-.38-1.5v-3.17c0-.56,.13-1.06,.38-1.5,.25-.44,.6-.79,1.04-1.04s.94-.38,1.5-.38,1.06,.13,1.5,.38,.79,.6,1.04,1.04c.25,.44,.38,.94,.38,1.5v3.17c0,.56-.13,1.06-.38,1.5-.25,.44-.6,.78-1.04,1.04s-.94,.38-1.5,.38Zm0-1.03c.34,0,.65-.08,.92-.25,.28-.16,.5-.38,.66-.66s.25-.58,.25-.92v-3.29c0-.34-.08-.65-.25-.92-.16-.28-.38-.5-.66-.66-.28-.16-.58-.25-.92-.25s-.64,.08-.92,.25-.5,.38-.66,.66c-.16,.28-.25,.58-.25,.92v3.29c0,.34,.08,.64,.25,.92s.38,.5,.66,.66,.58,.25,.92,.25Z"/><path class="cls-1" d="M77.77,82.81l.07-.5c.17,.01,.29-.02,.38-.1s.14-.18,.16-.31c.02-.13,.03-.28,.01-.44h-.62v-1.36h1.18v1.54c0,.42-.1,.74-.31,.95s-.5,.28-.87,.22Z"/><path class="cls-1" d="M84.14,81.65c-.56,0-1.06-.13-1.5-.38s-.78-.6-1.04-1.04c-.25-.44-.38-.94-.38-1.5v-3.17c0-.56,.13-1.06,.38-1.5,.25-.44,.6-.79,1.04-1.04s.94-.38,1.5-.38,1.06,.13,1.5,.38,.79,.6,1.04,1.04c.25,.44,.38,.94,.38,1.5v3.17c0,.56-.13,1.06-.38,1.5-.25,.44-.6,.78-1.04,1.04s-.94,.38-1.5,.38Zm0-1.03c.34,0,.65-.08,.92-.25,.28-.16,.5-.38,.66-.66s.25-.58,.25-.92v-3.29c0-.34-.08-.65-.25-.92-.16-.28-.38-.5-.66-.66-.28-.16-.58-.25-.92-.25s-.64,.08-.92,.25-.5,.38-.66,.66c-.16,.28-.25,.58-.25,.92v3.29c0,.34,.08,.64,.25,.92s.38,.5,.66,.66,.58,.25,.92,.25Z"/><path class="cls-1" d="M91.65,81.65c-.56,0-1.06-.13-1.5-.38s-.78-.6-1.04-1.04c-.25-.44-.38-.94-.38-1.5v-3.17c0-.56,.13-1.06,.38-1.5,.25-.44,.6-.79,1.04-1.04s.94-.38,1.5-.38,1.06,.13,1.5,.38,.79,.6,1.04,1.04c.25,.44,.38,.94,.38,1.5v3.17c0,.56-.13,1.06-.38,1.5-.25,.44-.6,.78-1.04,1.04s-.94,.38-1.5,.38Zm0-1.03c.34,0,.65-.08,.92-.25,.28-.16,.5-.38,.66-.66s.25-.58,.25-.92v-3.29c0-.34-.08-.65-.25-.92-.16-.28-.38-.5-.66-.66-.28-.16-.58-.25-.92-.25s-.64,.08-.92,.25-.5,.38-.66,.66c-.16,.28-.25,.58-.25,.92v3.29c0,.34,.08,.64,.25,.92s.38,.5,.66,.66,.58,.25,.92,.25Z"/><path class="cls-1" d="M99.16,81.65c-.56,0-1.06-.13-1.5-.38-.44-.25-.78-.6-1.04-1.04-.25-.44-.38-.94-.38-1.5v-3.17c0-.56,.13-1.06,.38-1.5,.25-.44,.6-.79,1.04-1.04,.44-.25,.94-.38,1.5-.38s1.06,.13,1.5,.38c.44,.25,.79,.6,1.04,1.04,.25,.44,.38,.94,.38,1.5v3.17c0,.56-.12,1.06-.38,1.5-.25,.44-.6,.78-1.04,1.04-.44,.25-.94,.38-1.5,.38Zm0-1.03c.34,0,.65-.08,.92-.25s.5-.38,.66-.66,.25-.58,.25-.92v-3.29c0-.34-.08-.65-.25-.92-.16-.28-.38-.5-.66-.66s-.58-.25-.92-.25-.64,.08-.92,.25c-.28,.16-.5,.38-.66,.66-.16,.28-.25,.58-.25,.92v3.29c0,.34,.08,.64,.25,.92s.39,.5,.66,.66c.28,.16,.58,.25,.92,.25Z"/><path class="cls-1" d="M103.64,82.81l.07-.5c.17,.01,.29-.02,.38-.1s.14-.18,.16-.31c.02-.13,.03-.28,.01-.44h-.62v-1.36h1.18v1.54c0,.42-.1,.74-.31,.95-.21,.21-.5,.28-.87,.22Z"/><path class="cls-1" d="M110.01,81.65c-.56,0-1.06-.13-1.5-.38-.44-.25-.78-.6-1.04-1.04-.25-.44-.38-.94-.38-1.5v-3.17c0-.56,.13-1.06,.38-1.5,.25-.44,.6-.79,1.04-1.04,.44-.25,.94-.38,1.5-.38s1.06,.13,1.5,.38c.44,.25,.79,.6,1.04,1.04,.25,.44,.38,.94,.38,1.5v3.17c0,.56-.12,1.06-.38,1.5-.25,.44-.6,.78-1.04,1.04-.44,.25-.94,.38-1.5,.38Zm0-1.03c.34,0,.65-.08,.92-.25s.5-.38,.66-.66,.25-.58,.25-.92v-3.29c0-.34-.08-.65-.25-.92-.16-.28-.38-.5-.66-.66s-.58-.25-.92-.25-.64,.08-.92,.25c-.28,.16-.5,.38-.66,.66-.16,.28-.25,.58-.25,.92v3.29c0,.34,.08,.64,.25,.92s.39,.5,.66,.66c.28,.16,.58,.25,.92,.25Z"/><path class="cls-1" d="M117.52,81.65c-.56,0-1.06-.13-1.5-.38s-.78-.6-1.04-1.04c-.25-.44-.38-.94-.38-1.5v-3.17c0-.56,.13-1.06,.38-1.5,.25-.44,.6-.79,1.04-1.04s.94-.38,1.5-.38,1.06,.13,1.5,.38,.79,.6,1.04,1.04c.25,.44,.38,.94,.38,1.5v3.17c0,.56-.13,1.06-.38,1.5-.25,.44-.6,.78-1.04,1.04s-.94,.38-1.5,.38Zm0-1.03c.34,0,.65-.08,.92-.25,.28-.16,.5-.38,.66-.66s.25-.58,.25-.92v-3.29c0-.34-.08-.65-.25-.92-.16-.28-.38-.5-.66-.66-.28-.16-.58-.25-.92-.25s-.64,.08-.92,.25-.5,.38-.66,.66c-.16,.28-.25,.58-.25,.92v3.29c0,.34,.08,.64,.25,.92s.39,.5,.66,.66,.58,.25,.92,.25Z"/><path class="cls-1" d="M125.03,81.65c-.56,0-1.06-.13-1.5-.38s-.78-.6-1.04-1.04c-.25-.44-.38-.94-.38-1.5v-3.17c0-.56,.13-1.06,.38-1.5,.25-.44,.6-.79,1.04-1.04s.94-.38,1.5-.38,1.06,.13,1.5,.38,.79,.6,1.04,1.04c.25,.44,.38,.94,.38,1.5v3.17c0,.56-.13,1.06-.38,1.5-.25,.44-.6,.78-1.04,1.04s-.94,.38-1.5,.38Zm0-1.03c.34,0,.65-.08,.92-.25,.28-.16,.5-.38,.66-.66s.25-.58,.25-.92v-3.29c0-.34-.08-.65-.25-.92-.16-.28-.38-.5-.66-.66-.28-.16-.58-.25-.92-.25s-.64,.08-.92,.25-.5,.38-.66,.66c-.16,.28-.25,.58-.25,.92v3.29c0,.34,.08,.64,.25,.92s.39,.5,.66,.66,.58,.25,.92,.25Z"/></g><g><path class="cls-1" d="M511.06,392.04v-.96s3.84-3.45,3.84-3.45c.32-.29,.54-.56,.64-.82,.11-.26,.17-.52,.17-.79,0-.33-.08-.63-.23-.9-.15-.27-.36-.48-.62-.64-.26-.16-.56-.23-.89-.23s-.65,.08-.92,.24c-.27,.16-.48,.38-.63,.64-.15,.27-.23,.56-.22,.88h-1.09c0-.54,.13-1.02,.38-1.44s.59-.75,1.03-.98c.43-.24,.93-.36,1.48-.36s1.02,.12,1.44,.37c.42,.25,.76,.58,1.01,1s.37,.9,.37,1.43c0,.38-.05,.7-.14,.98s-.24,.53-.43,.76c-.2,.23-.44,.48-.74,.75l-3.19,2.86-.14-.36h4.64v1.02h-5.74Z"/><path class="cls-1" d="M521.73,392.04v-1.59h-3.97v-1.01l2.85-6.04h1.21l-2.85,6.04h2.76v-2.43h1.08v2.43h.9v1.01h-.9v1.59h-1.08Z"/></g><g><path class="cls-1" d="M701.28,392.21c-.43,0-.83-.08-1.19-.24-.37-.16-.69-.38-.95-.67-.27-.29-.46-.63-.58-1.04l1.03-.29c.13,.4,.35,.71,.66,.91,.31,.21,.65,.31,1.04,.31,.35,0,.66-.09,.92-.24,.26-.15,.46-.37,.6-.63,.14-.27,.21-.58,.21-.93,0-.54-.16-.97-.48-1.3s-.74-.5-1.26-.5c-.14,0-.29,.02-.45,.06-.16,.04-.3,.1-.44,.17l-.52-.85,3.2-2.9,.14,.36h-4.3v-1.02h5.09v1.03l-2.73,2.62v-.38c.56-.04,1.06,.05,1.49,.28,.43,.23,.76,.55,1,.98,.24,.42,.36,.91,.36,1.46s-.12,1.04-.37,1.46-.58,.76-1.01,1c-.42,.24-.9,.36-1.44,.36Z"/><path class="cls-1" d="M708.61,392.22c-.55,0-1.04-.13-1.49-.39-.45-.27-.8-.62-1.06-1.08-.26-.46-.39-.97-.39-1.55v-2.87c0-.61,.13-1.14,.39-1.61,.26-.47,.62-.83,1.08-1.09s.98-.39,1.57-.39c.48,0,.92,.1,1.33,.29,.41,.2,.75,.47,1.04,.84l-.8,.71c-.17-.25-.4-.45-.67-.6-.28-.15-.57-.22-.89-.22-.38,0-.72,.09-1.01,.27-.29,.18-.52,.42-.69,.72-.17,.3-.25,.62-.25,.96v1.73l-.23-.26c.25-.36,.57-.65,.96-.87,.39-.21,.81-.32,1.26-.32,.54,0,1.02,.12,1.44,.38s.76,.59,1.01,1.02,.37,.91,.37,1.45-.13,1.02-.4,1.46c-.27,.44-.62,.79-1.07,1.04-.45,.26-.94,.39-1.47,.39Zm0-1.03c.34,0,.66-.08,.94-.25s.51-.39,.67-.67c.17-.28,.25-.59,.25-.94s-.08-.66-.25-.94c-.17-.28-.39-.51-.67-.67s-.6-.25-.94-.25-.66,.08-.94,.25c-.28,.17-.51,.39-.67,.67-.17,.29-.25,.6-.25,.94s.08,.65,.25,.93c.17,.28,.39,.51,.67,.68,.28,.17,.59,.25,.94,.25Z"/></g><g><path class="cls-1" d="M134.69,44.49v-10.08h4.07c.1,0,.22,0,.36,.01s.28,.02,.41,.04c.56,.09,1.03,.28,1.4,.57,.38,.29,.66,.67,.84,1.11,.19,.45,.28,.94,.28,1.48s-.09,1.04-.28,1.49c-.19,.45-.47,.82-.84,1.11-.38,.29-.84,.49-1.4,.57-.13,.02-.27,.03-.42,.04-.15,0-.27,.01-.36,.01h-2.61v3.62h-1.46Zm1.46-5h2.56c.09,0,.2,0,.31-.01,.11,0,.22-.03,.33-.05,.3-.07,.54-.2,.72-.39,.18-.19,.31-.41,.39-.66,.08-.25,.12-.49,.12-.74s-.04-.49-.12-.74c-.08-.25-.21-.46-.39-.65-.18-.19-.42-.32-.72-.39-.1-.03-.21-.05-.33-.06-.11,0-.22-.01-.31-.01h-2.56v3.7Z"/><path class="cls-1" d="M143.47,44.49v-7.56h1.3v1.83l-.18-.24c.09-.24,.21-.47,.36-.67s.32-.37,.52-.5c.19-.14,.4-.25,.64-.33,.24-.08,.48-.12,.72-.14,.25-.02,.49,0,.71,.04v1.37c-.25-.06-.52-.08-.82-.06-.3,.03-.58,.12-.83,.29-.24,.15-.43,.34-.56,.56-.14,.22-.24,.46-.3,.73-.06,.27-.09,.55-.09,.85v3.82h-1.48Z"/><path class="cls-1" d="M149.02,35.69v-1.42h1.46v1.42h-1.46Zm0,8.8v-7.56h1.46v7.56h-1.46Z"/><path class="cls-1" d="M154.63,44.49l-2.74-7.56h1.48l2.01,5.73,2.01-5.73h1.48l-2.74,7.56h-1.48Z"/><path class="cls-1" d="M161.83,44.7c-.56,0-1.03-.1-1.41-.31s-.66-.48-.86-.83c-.19-.34-.29-.72-.29-1.13,0-.38,.07-.72,.2-1.01,.14-.29,.34-.54,.6-.74,.27-.2,.59-.37,.98-.49,.34-.1,.72-.18,1.14-.26,.42-.08,.87-.14,1.34-.21s.93-.13,1.4-.2l-.53,.29c0-.59-.12-1.03-.37-1.32s-.7-.43-1.33-.43c-.4,0-.76,.09-1.09,.28s-.56,.49-.69,.91l-1.37-.42c.19-.65,.54-1.16,1.07-1.55,.52-.38,1.22-.57,2.1-.57,.68,0,1.27,.12,1.77,.35,.5,.23,.87,.6,1.1,1.1,.12,.25,.2,.51,.22,.78s.04,.57,.04,.89v4.66h-1.29v-1.73l.25,.22c-.31,.58-.71,1.01-1.19,1.29-.48,.28-1.08,.42-1.78,.42Zm.26-1.2c.42,0,.77-.07,1.07-.22,.3-.15,.54-.33,.72-.56,.18-.23,.3-.47,.36-.71,.08-.22,.12-.48,.14-.76s.02-.5,.02-.67l.48,.17c-.46,.07-.88,.13-1.26,.19-.38,.06-.72,.11-1.03,.16s-.58,.12-.82,.19c-.2,.07-.38,.15-.54,.25-.16,.1-.28,.22-.37,.36s-.14,.31-.14,.51,.05,.38,.15,.54c.1,.17,.25,.3,.45,.4,.2,.1,.46,.15,.77,.15Z"/><path class="cls-1" d="M166.83,38.11v-1.18h5.17v1.18h-5.17Zm5.17,6.38c-.48,.09-.94,.13-1.4,.12-.46-.01-.87-.1-1.22-.27-.36-.16-.63-.42-.81-.77-.16-.31-.25-.63-.26-.96-.01-.33-.02-.69-.02-1.1v-6.69h1.47v6.62c0,.3,0,.57,.01,.79s.05,.41,.14,.57c.17,.29,.43,.45,.8,.49,.37,.04,.8,.02,1.29-.05v1.24Z"/><path class="cls-1" d="M176.59,44.7c-.75,0-1.41-.16-1.98-.49-.57-.33-1.01-.79-1.32-1.38-.32-.59-.47-1.28-.47-2.05,0-.83,.16-1.54,.46-2.15,.31-.61,.74-1.08,1.3-1.41,.56-.33,1.2-.5,1.94-.5s1.42,.18,1.97,.54c.54,.36,.95,.86,1.21,1.52,.27,.66,.38,1.44,.32,2.34h-1.46v-.53c0-.88-.18-1.53-.5-1.95s-.82-.63-1.48-.63c-.73,0-1.28,.23-1.65,.69-.37,.46-.55,1.13-.55,2s.18,1.47,.55,1.93c.37,.46,.9,.68,1.6,.68,.46,0,.85-.1,1.19-.31,.33-.21,.59-.5,.78-.89l1.43,.46c-.29,.68-.74,1.2-1.34,1.57s-1.26,.56-2,.56Zm-2.69-3.58v-1.14h5.4v1.14h-5.4Z"/><path class="cls-1" d="M187.62,44.7c-.77,0-1.43-.17-1.97-.52-.54-.35-.96-.82-1.24-1.42-.29-.6-.43-1.29-.44-2.05,0-.78,.15-1.47,.45-2.07s.71-1.07,1.26-1.41,1.2-.51,1.97-.51c.83,0,1.53,.21,2.12,.62,.58,.41,.97,.97,1.16,1.69l-1.46,.42c-.14-.42-.38-.75-.71-.99-.33-.24-.71-.35-1.13-.35-.48,0-.88,.11-1.18,.34-.31,.23-.54,.54-.69,.93s-.23,.84-.23,1.34c0,.78,.18,1.41,.54,1.89s.87,.72,1.56,.72c.47,0,.85-.11,1.14-.33,.29-.22,.51-.53,.67-.93l1.48,.35c-.25,.74-.66,1.3-1.22,1.7-.57,.39-1.26,.59-2.07,.59Z"/><path class="cls-1" d="M192.27,35.69v-1.42h1.46v1.42h-1.46Zm0,8.8v-7.56h1.46v7.56h-1.46Z"/><path class="cls-1" d="M195.84,44.49v-7.56h1.3v1.83l-.18-.24c.09-.24,.21-.47,.36-.67s.32-.37,.52-.5c.19-.14,.4-.25,.64-.33,.24-.08,.48-.12,.72-.14,.25-.02,.49,0,.71,.04v1.37c-.25-.06-.52-.08-.82-.06-.3,.03-.58,.12-.83,.29-.24,.15-.43,.34-.56,.56-.14,.22-.24,.46-.3,.73-.06,.27-.09,.55-.09,.85v3.82h-1.48Z"/><path class="cls-1" d="M204.34,44.7c-.77,0-1.43-.17-1.97-.52-.54-.35-.96-.82-1.24-1.42-.29-.6-.43-1.29-.44-2.05,0-.78,.15-1.47,.45-2.07s.71-1.07,1.26-1.41,1.2-.51,1.97-.51c.83,0,1.53,.21,2.12,.62,.58,.41,.97,.97,1.16,1.69l-1.46,.42c-.14-.42-.38-.75-.71-.99-.33-.24-.71-.35-1.13-.35-.48,0-.88,.11-1.18,.34-.31,.23-.54,.54-.69,.93s-.23,.84-.23,1.34c0,.78,.18,1.41,.54,1.89s.87,.72,1.56,.72c.47,0,.85-.11,1.14-.33,.29-.22,.51-.53,.67-.93l1.48,.35c-.25,.74-.66,1.3-1.22,1.7-.57,.39-1.26,.59-2.07,.59Z"/><path class="cls-1" d="M211.92,44.7c-.52,0-.96-.08-1.32-.25s-.64-.39-.86-.66c-.22-.27-.39-.57-.51-.89-.12-.32-.2-.64-.24-.95-.04-.31-.06-.58-.06-.81v-4.2h1.48v3.72c0,.29,.02,.6,.07,.91s.14,.6,.28,.86c.14,.27,.33,.48,.58,.64,.25,.16,.58,.25,.98,.25,.26,0,.51-.04,.74-.13s.44-.22,.61-.42c.18-.19,.31-.44,.41-.76,.1-.31,.15-.69,.15-1.14l.91,.34c0,.69-.13,1.29-.38,1.82-.26,.53-.62,.93-1.11,1.23-.48,.29-1.06,.44-1.74,.44Zm2.5-.2v-2.18h-.18v-5.38h1.48v7.56h-1.3Z"/><path class="cls-1" d="M217.82,44.49v-10.29h1.46v10.29h-1.46Z"/><path class="cls-1" d="M223.51,44.7c-.56,0-1.03-.1-1.41-.31s-.66-.48-.86-.83-.29-.72-.29-1.13c0-.38,.07-.72,.2-1.01,.13-.29,.34-.54,.6-.74s.59-.37,.98-.49c.34-.1,.72-.18,1.14-.26,.42-.08,.87-.14,1.34-.21,.47-.07,.93-.13,1.4-.2l-.53,.29c0-.59-.12-1.03-.38-1.32-.26-.29-.7-.43-1.33-.43-.4,0-.76,.09-1.09,.28-.33,.18-.56,.49-.69,.91l-1.37-.42c.19-.65,.54-1.16,1.07-1.55,.53-.38,1.22-.57,2.1-.57,.68,0,1.27,.12,1.77,.35,.5,.23,.87,.6,1.1,1.1,.12,.25,.2,.51,.22,.78,.03,.28,.04,.57,.04,.89v4.66h-1.29v-1.73l.25,.22c-.31,.58-.71,1.01-1.19,1.29-.48,.28-1.08,.42-1.78,.42Zm.26-1.2c.42,0,.77-.07,1.07-.22,.3-.15,.54-.33,.72-.56,.18-.23,.3-.47,.36-.71,.08-.22,.12-.48,.14-.76,.01-.28,.02-.5,.02-.67l.48,.17c-.46,.07-.88,.13-1.26,.19-.38,.06-.72,.11-1.03,.16-.31,.05-.58,.12-.82,.19-.2,.07-.38,.15-.54,.25-.16,.1-.28,.22-.37,.36s-.14,.31-.14,.51,.05,.38,.15,.54c.1,.17,.25,.3,.45,.4,.2,.1,.46,.15,.77,.15Z"/><path class="cls-1" d="M228.51,38.11v-1.18h5.17v1.18h-5.17Zm5.17,6.38c-.48,.09-.94,.13-1.4,.12s-.87-.1-1.22-.27c-.36-.16-.63-.42-.81-.77-.16-.31-.25-.63-.26-.96-.01-.33-.02-.69-.02-1.1v-6.69h1.47v6.62c0,.3,0,.57,0,.79,0,.22,.06,.41,.14,.57,.17,.29,.44,.45,.8,.49s.8,.02,1.29-.05v1.24Z"/><path class="cls-1" d="M235.41,35.69v-1.42h1.46v1.42h-1.46Zm0,8.8v-7.56h1.46v7.56h-1.46Z"/><path class="cls-1" d="M238.96,44.49v-7.56h1.31v2.18h.17v5.38h-1.48Zm5.31,0v-3.72c0-.29-.02-.6-.07-.91-.05-.31-.14-.6-.28-.87-.14-.27-.33-.48-.58-.64-.25-.16-.58-.25-.98-.25-.26,0-.51,.04-.74,.13-.23,.09-.44,.22-.61,.42s-.31,.44-.41,.76-.15,.69-.15,1.14l-.91-.34c0-.69,.13-1.29,.38-1.82,.26-.52,.62-.93,1.11-1.23,.48-.29,1.06-.44,1.74-.44,.52,0,.96,.08,1.32,.25s.64,.39,.86,.66c.22,.27,.39,.57,.51,.89s.2,.64,.24,.95c.04,.31,.06,.58,.06,.81v4.2h-1.48Z"/><path class="cls-1" d="M250.58,44.7c-.71,0-1.31-.17-1.82-.53-.51-.35-.91-.83-1.18-1.43-.28-.6-.42-1.29-.42-2.04s.14-1.44,.42-2.04c.28-.6,.68-1.07,1.19-1.42s1.13-.52,1.84-.52,1.31,.17,1.8,.52c.49,.35,.86,.82,1.11,1.42,.25,.6,.37,1.28,.37,2.04s-.13,1.44-.38,2.04-.62,1.08-1.11,1.43c-.49,.35-1.1,.53-1.82,.53Zm.11,3.36c-.41,0-.8-.06-1.18-.19-.38-.13-.73-.31-1.04-.56s-.57-.55-.78-.91l1.35-.69c.16,.32,.4,.56,.7,.71,.3,.15,.62,.22,.96,.22,.42,0,.77-.07,1.06-.22,.29-.15,.52-.37,.67-.66s.22-.66,.22-1.09v-2.11h.17v-5.63h1.29v7.76c0,.2,0,.39-.02,.57-.01,.18-.04,.36-.08,.55-.11,.51-.31,.93-.61,1.26-.3,.33-.68,.58-1.15,.74-.46,.16-.99,.25-1.58,.25Zm.09-4.68c.48,0,.87-.11,1.18-.34s.53-.54,.67-.95,.21-.86,.21-1.39-.07-.98-.21-1.39-.36-.71-.66-.94c-.3-.22-.67-.34-1.13-.34-.49,0-.88,.12-1.2,.36s-.54,.56-.7,.96-.23,.85-.23,1.34,.08,.95,.23,1.35c.15,.4,.38,.72,.69,.96,.31,.24,.69,.36,1.16,.36Z"/><path class="cls-1" d="M261.78,44.7c-.92,0-1.67-.2-2.25-.61-.58-.41-.93-.98-1.06-1.71l1.5-.23c.09,.39,.31,.7,.65,.93,.34,.23,.76,.34,1.26,.34,.46,0,.82-.09,1.07-.28,.26-.19,.39-.44,.39-.77,0-.19-.04-.35-.14-.47-.09-.12-.28-.23-.57-.34-.29-.11-.73-.24-1.32-.4-.65-.17-1.16-.35-1.54-.54-.38-.19-.65-.42-.81-.68-.16-.26-.24-.57-.24-.94,0-.46,.12-.86,.36-1.2,.24-.34,.58-.6,1.03-.79s.96-.28,1.55-.28,1.09,.09,1.55,.27c.45,.18,.82,.44,1.1,.77,.28,.33,.45,.72,.5,1.17l-1.5,.27c-.05-.36-.22-.65-.51-.86s-.67-.32-1.13-.34c-.44-.02-.8,.06-1.08,.22-.28,.17-.41,.39-.41,.68,0,.17,.05,.31,.16,.43,.11,.12,.31,.23,.61,.34,.3,.11,.75,.24,1.34,.39,.63,.16,1.14,.34,1.51,.54s.64,.43,.8,.71c.16,.27,.24,.6,.24,.99,0,.75-.27,1.33-.82,1.76-.54,.42-1.29,.64-2.25,.64Z"/><path class="cls-1" d="M269.25,44.7c-.52,0-.96-.08-1.32-.25s-.64-.39-.86-.66c-.22-.27-.39-.57-.51-.89-.12-.32-.2-.64-.24-.95-.04-.31-.06-.58-.06-.81v-4.2h1.48v3.72c0,.29,.02,.6,.07,.91s.14,.6,.28,.86c.14,.27,.33,.48,.58,.64,.25,.16,.58,.25,.98,.25,.26,0,.51-.04,.74-.13s.44-.22,.61-.42c.18-.19,.31-.44,.41-.76,.1-.31,.15-.69,.15-1.14l.91,.34c0,.69-.13,1.29-.38,1.82-.26,.53-.62,.93-1.11,1.23-.48,.29-1.06,.44-1.74,.44Zm2.5-.2v-2.18h-.18v-5.38h1.48v7.56h-1.3Z"/><path class="cls-1" d="M275,47.85v-10.92h1.3v5.44h.17v5.48h-1.47Zm3.56-3.15c-.72,0-1.33-.18-1.82-.53-.49-.35-.86-.83-1.11-1.43s-.38-1.28-.38-2.04,.12-1.43,.38-2.04c.25-.6,.62-1.08,1.11-1.42,.49-.35,1.09-.52,1.8-.52s1.32,.17,1.84,.52,.91,.82,1.19,1.42,.42,1.28,.42,2.04-.14,1.44-.42,2.04c-.28,.6-.67,1.08-1.18,1.43-.51,.35-1.12,.53-1.82,.53Zm-.2-1.32c.47,0,.85-.12,1.16-.36,.31-.24,.53-.56,.69-.96,.15-.4,.23-.85,.23-1.35s-.08-.94-.23-1.34c-.15-.4-.38-.72-.7-.96-.31-.24-.71-.36-1.2-.36-.46,0-.83,.11-1.13,.34-.3,.22-.52,.54-.66,.94-.14,.4-.21,.86-.21,1.39s.07,.98,.21,1.39,.36,.72,.67,.95c.3,.23,.7,.34,1.18,.34Z"/><path class="cls-1" d="M283.51,47.85v-10.92h1.3v5.44h.17v5.48h-1.47Zm3.56-3.15c-.72,0-1.33-.18-1.82-.53-.49-.35-.86-.83-1.11-1.43s-.38-1.28-.38-2.04,.12-1.43,.38-2.04c.25-.6,.62-1.08,1.11-1.42,.49-.35,1.09-.52,1.8-.52s1.32,.17,1.84,.52,.91,.82,1.19,1.42,.42,1.28,.42,2.04-.14,1.44-.42,2.04c-.28,.6-.67,1.08-1.18,1.43-.51,.35-1.12,.53-1.82,.53Zm-.2-1.32c.47,0,.85-.12,1.16-.36,.31-.24,.53-.56,.69-.96,.15-.4,.23-.85,.23-1.35s-.08-.94-.23-1.34c-.15-.4-.38-.72-.7-.96-.31-.24-.71-.36-1.2-.36-.46,0-.83,.11-1.13,.34-.3,.22-.52,.54-.66,.94-.14,.4-.21,.86-.21,1.39s.07,.98,.21,1.39,.36,.72,.67,.95c.3,.23,.7,.34,1.18,.34Z"/><path class="cls-1" d="M292.17,44.49v-10.29h1.46v10.29h-1.46Z"/><path class="cls-1" d="M296.75,47.85l1.46-3.98,.02,1.18-3.3-8.11h1.53l2.46,6.26h-.45l2.35-6.26h1.48l-4.17,10.92h-1.39Z"/></g><line class="cls-13" x1="417.08" y1="487.98" x2="435.01" y2="487.98"/><line class="cls-9" x1="605.29" y1="455.11" x2="623.22" y2="455.11"/><g><path class="cls-1" d="M442.67,491.62v-7.63h-2.95v-1.01h6.96v1.01h-2.95v7.63h-1.07Z"/><path class="cls-1" d="M449.44,491.79c-.64,0-1.2-.15-1.67-.44-.47-.29-.83-.7-1.08-1.21s-.38-1.11-.38-1.78,.13-1.28,.38-1.79c.26-.51,.62-.91,1.09-1.2,.47-.29,1.02-.43,1.65-.43s1.21,.14,1.67,.44c.47,.29,.83,.69,1.08,1.21s.38,1.11,.38,1.77-.13,1.27-.38,1.79-.61,.92-1.08,1.21c-.47,.29-1.02,.44-1.67,.44Zm0-1.01c.67,0,1.17-.22,1.5-.67,.33-.45,.49-1.03,.49-1.74s-.17-1.31-.5-1.75c-.33-.43-.83-.65-1.49-.65-.45,0-.82,.1-1.12,.31-.29,.2-.51,.49-.65,.85-.14,.36-.22,.78-.22,1.25,0,.73,.17,1.31,.5,1.75s.83,.66,1.48,.66Z"/><path class="cls-1" d="M453.17,486.02v-.88h4.34v.88h-4.34Zm4.34,5.6c-.38,.08-.76,.11-1.14,.09-.37-.01-.71-.09-1-.23-.29-.14-.51-.35-.67-.65-.13-.26-.2-.51-.21-.78,0-.26-.01-.56-.01-.89v-5.83h1.07v5.79c0,.26,0,.49,0,.68,0,.19,.05,.35,.12,.49,.14,.26,.37,.41,.69,.45,.31,.04,.69,.03,1.14-.04v.92Z"/><path class="cls-1" d="M460.67,491.79c-.48,0-.89-.09-1.21-.27s-.57-.41-.74-.71c-.17-.29-.25-.61-.25-.96s.07-.63,.2-.88,.31-.46,.55-.62,.52-.3,.85-.39c.31-.08,.65-.16,1.04-.22s.77-.12,1.16-.17c.39-.05,.76-.1,1.1-.15l-.38,.22c.01-.58-.1-1-.34-1.28-.24-.28-.66-.41-1.25-.41-.39,0-.74,.09-1.03,.27-.29,.18-.5,.47-.62,.87l-1.01-.3c.16-.57,.46-1.01,.91-1.34,.45-.32,1.04-.49,1.77-.49,.59,0,1.09,.11,1.52,.31,.42,.21,.72,.53,.91,.95,.09,.2,.15,.42,.17,.65,.02,.23,.04,.48,.04,.74v4.01h-.95v-1.55l.22,.14c-.24,.52-.58,.92-1.02,1.19-.44,.27-.97,.4-1.6,.4Zm.16-.89c.38,0,.72-.07,1-.21,.28-.14,.51-.32,.68-.54,.17-.23,.28-.47,.34-.74,.06-.2,.09-.42,.1-.67s0-.44,0-.57l.37,.16c-.35,.05-.69,.1-1.03,.14-.34,.04-.65,.09-.95,.14-.3,.05-.57,.11-.81,.18-.18,.06-.34,.13-.5,.21-.15,.09-.28,.2-.37,.34s-.14,.31-.14,.51c0,.18,.04,.34,.13,.5s.23,.29,.42,.39c.19,.1,.44,.15,.75,.15Z"/><path class="cls-1" d="M465.7,491.62v-8.82h1.07v8.82h-1.07Z"/><path class="cls-1" d="M473.7,491.79c-.66,0-1.21-.15-1.67-.44-.46-.29-.81-.7-1.05-1.21-.24-.52-.36-1.1-.37-1.76,0-.68,.13-1.27,.38-1.79s.6-.92,1.06-1.2,1.01-.43,1.66-.43c.68,0,1.27,.17,1.77,.5,.49,.34,.82,.79,.99,1.38l-1.06,.32c-.14-.38-.36-.67-.66-.88-.31-.21-.66-.31-1.05-.31-.44,0-.81,.1-1.1,.31-.29,.21-.5,.49-.64,.85-.14,.36-.21,.78-.22,1.25,0,.72,.17,1.3,.5,1.74,.33,.44,.81,.66,1.46,.66,.42,0,.78-.1,1.06-.29,.28-.2,.49-.47,.64-.84l1.08,.28c-.22,.6-.57,1.06-1.05,1.38-.48,.32-1.05,.48-1.72,.48Z"/><path class="cls-1" d="M477.64,483.99v-1.1h1.07v1.1h-1.07Zm0,7.63v-6.48h1.07v6.48h-1.07Z"/><path class="cls-1" d="M480.51,491.62v-6.48h.95v1.57l-.16-.21c.08-.2,.17-.38,.3-.55s.26-.31,.41-.41c.17-.14,.36-.24,.57-.31s.43-.12,.65-.13c.22-.01,.43,0,.62,.04v1c-.22-.06-.47-.08-.74-.05-.27,.03-.52,.13-.74,.29-.21,.15-.37,.33-.48,.54-.11,.21-.19,.44-.24,.69s-.07,.5-.07,.75v3.25h-1.07Z"/><path class="cls-1" d="M487.6,491.79c-.66,0-1.21-.15-1.67-.44-.46-.29-.81-.7-1.05-1.21s-.36-1.1-.37-1.76c0-.68,.14-1.27,.38-1.79,.25-.51,.6-.92,1.06-1.2s1.01-.43,1.66-.43c.68,0,1.27,.17,1.77,.5s.83,.79,.99,1.38l-1.06,.32c-.14-.38-.36-.67-.66-.88-.31-.21-.66-.31-1.05-.31-.44,0-.81,.1-1.1,.31-.29,.21-.5,.49-.64,.85-.14,.36-.21,.78-.22,1.25,0,.72,.18,1.3,.5,1.74,.33,.44,.81,.66,1.45,.66,.42,0,.78-.1,1.06-.29,.28-.2,.49-.47,.64-.84l1.08,.28c-.22,.6-.57,1.06-1.05,1.38-.48,.32-1.05,.48-1.72,.48Z"/><path class="cls-1" d="M494.06,491.78c-.42,0-.77-.07-1.07-.2-.3-.13-.54-.31-.74-.53-.2-.22-.35-.46-.46-.73-.11-.27-.19-.54-.24-.82-.05-.28-.07-.54-.07-.79v-3.58h1.08v3.25c0,.3,.03,.6,.08,.88,.06,.28,.15,.54,.29,.77,.13,.23,.31,.41,.54,.54,.23,.13,.51,.2,.85,.2,.27,0,.51-.05,.73-.14,.22-.09,.41-.23,.56-.41,.16-.18,.28-.41,.36-.69,.08-.28,.13-.61,.13-.98l.7,.22c0,.62-.11,1.16-.34,1.61-.23,.45-.54,.8-.95,1.04s-.89,.36-1.45,.36Zm2.16-.17v-1.73h-.12v-4.75h1.07v6.48h-.95Z"/><path class="cls-1" d="M498.97,491.62v-8.82h1.07v8.82h-1.07Z"/><path class="cls-1" d="M503.68,491.79c-.48,0-.89-.09-1.21-.27s-.57-.41-.74-.71c-.17-.29-.25-.61-.25-.96s.07-.63,.2-.88,.31-.46,.55-.62,.52-.3,.85-.39c.31-.08,.65-.16,1.04-.22s.77-.12,1.16-.17c.39-.05,.76-.1,1.1-.15l-.38,.22c.01-.58-.1-1-.34-1.28-.24-.28-.66-.41-1.25-.41-.39,0-.74,.09-1.03,.27-.29,.18-.5,.47-.62,.87l-1.01-.3c.16-.57,.46-1.01,.91-1.34,.45-.32,1.04-.49,1.77-.49,.59,0,1.09,.11,1.52,.31,.42,.21,.72,.53,.91,.95,.09,.2,.15,.42,.17,.65,.02,.23,.04,.48,.04,.74v4.01h-.95v-1.55l.22,.14c-.24,.52-.58,.92-1.02,1.19-.44,.27-.97,.4-1.6,.4Zm.16-.89c.38,0,.72-.07,1-.21,.28-.14,.51-.32,.68-.54,.17-.23,.28-.47,.34-.74,.06-.2,.09-.42,.1-.67s0-.44,0-.57l.37,.16c-.35,.05-.69,.1-1.03,.14-.34,.04-.65,.09-.95,.14-.3,.05-.57,.11-.81,.18-.18,.06-.34,.13-.5,.21-.15,.09-.28,.2-.37,.34s-.14,.31-.14,.51c0,.18,.04,.34,.13,.5s.23,.29,.42,.39c.19,.1,.44,.15,.75,.15Z"/><path class="cls-1" d="M507.87,486.02v-.88h4.34v.88h-4.34Zm4.34,5.6c-.38,.08-.76,.11-1.14,.09-.37-.01-.71-.09-1-.23-.29-.14-.51-.35-.67-.65-.13-.26-.2-.51-.21-.78-.01-.26-.02-.56-.02-.89v-5.83h1.07v5.79c0,.26,0,.49,0,.68s.05,.35,.12,.49c.14,.26,.37,.41,.69,.45,.31,.04,.69,.03,1.14-.04v.92Z"/><path class="cls-1" d="M513.65,483.99v-1.1h1.07v1.1h-1.07Zm0,7.63v-6.48h1.07v6.48h-1.07Z"/><path class="cls-1" d="M516.51,491.62v-6.48h.96v1.73h.12v4.75h-1.08Zm4.62,0v-3.25c0-.31-.03-.6-.08-.89-.05-.28-.15-.54-.28-.77-.13-.22-.31-.4-.54-.54-.23-.13-.51-.2-.86-.2-.27,0-.51,.04-.73,.13s-.41,.23-.56,.41c-.16,.18-.28,.41-.36,.69-.09,.28-.13,.6-.13,.98l-.7-.22c0-.63,.11-1.17,.34-1.62,.23-.45,.54-.79,.95-1.04s.89-.36,1.45-.36c.42,0,.78,.07,1.07,.2,.3,.13,.54,.31,.74,.53,.2,.22,.35,.46,.46,.73,.11,.27,.19,.54,.24,.82,.05,.28,.07,.54,.07,.79v3.58h-1.08Z"/><path class="cls-1" d="M526.32,491.79c-.6,0-1.12-.15-1.55-.45-.43-.3-.77-.71-1-1.23-.23-.52-.35-1.1-.35-1.75s.12-1.23,.35-1.75c.23-.52,.57-.92,1-1.22,.43-.3,.95-.45,1.55-.45s1.13,.15,1.54,.44c.42,.3,.73,.7,.95,1.22,.21,.52,.32,1.1,.32,1.75s-.11,1.22-.32,1.74c-.21,.52-.53,.93-.95,1.23s-.93,.45-1.54,.45Zm.08,2.88c-.34,0-.67-.05-1-.15-.32-.11-.62-.26-.89-.47-.27-.21-.5-.47-.68-.79l.98-.52c.16,.32,.39,.55,.68,.69,.29,.14,.6,.22,.91,.22,.41,0,.75-.07,1.03-.22,.27-.15,.47-.37,.6-.67,.13-.29,.19-.66,.19-1.1v-1.77h.13v-4.74h.95v6.52c0,.18,0,.35-.01,.51s-.03,.33-.06,.49c-.08,.46-.25,.84-.5,1.14-.25,.3-.57,.52-.96,.67-.39,.15-.85,.22-1.36,.22Zm.05-3.86c.44,0,.79-.11,1.07-.31,.28-.21,.49-.5,.62-.87,.13-.37,.2-.79,.2-1.26s-.07-.9-.2-1.27-.34-.65-.62-.86c-.28-.21-.63-.31-1.05-.31s-.8,.11-1.09,.32c-.29,.22-.5,.51-.64,.88-.14,.37-.21,.78-.21,1.24s.07,.88,.21,1.24c.14,.37,.35,.66,.63,.88,.28,.22,.63,.32,1.06,.32Z"/><path class="cls-1" d="M535.82,491.79c-.77,0-1.41-.17-1.9-.51s-.8-.81-.91-1.42l1.09-.17c.09,.35,.29,.63,.61,.84,.32,.21,.71,.31,1.18,.31s.79-.09,1.04-.28,.38-.43,.38-.75c0-.18-.04-.33-.13-.45-.08-.11-.26-.22-.52-.32s-.66-.22-1.19-.36c-.57-.15-1.02-.31-1.35-.47s-.56-.35-.7-.57c-.14-.22-.21-.48-.21-.79,0-.38,.1-.71,.31-1,.21-.29,.5-.51,.87-.66s.81-.23,1.3-.23,.93,.08,1.32,.23c.39,.16,.7,.38,.94,.66,.24,.29,.38,.62,.42,1l-1.09,.2c-.05-.35-.22-.62-.5-.82-.28-.2-.64-.31-1.09-.32-.42-.02-.76,.06-1.02,.22-.26,.16-.39,.39-.39,.67,0,.16,.05,.29,.15,.4,.1,.11,.28,.22,.55,.32,.27,.1,.65,.21,1.16,.34,.57,.14,1.02,.3,1.35,.47s.56,.37,.71,.6c.14,.23,.21,.51,.21,.85,0,.62-.23,1.12-.69,1.47s-1.09,.54-1.9,.54Z"/><path class="cls-1" d="M542.2,491.78c-.42,0-.77-.07-1.07-.2-.3-.13-.54-.31-.74-.53-.2-.22-.35-.46-.46-.73-.11-.27-.19-.54-.24-.82-.05-.28-.07-.54-.07-.79v-3.58h1.08v3.25c0,.3,.03,.6,.08,.88,.06,.28,.15,.54,.29,.77,.13,.23,.31,.41,.54,.54,.23,.13,.51,.2,.85,.2,.27,0,.51-.05,.73-.14,.22-.09,.41-.23,.56-.41,.16-.18,.28-.41,.36-.69,.08-.28,.13-.61,.13-.98l.7,.22c0,.62-.11,1.16-.34,1.61-.23,.45-.54,.8-.95,1.04s-.89,.36-1.45,.36Zm2.16-.17v-1.73h-.12v-4.75h1.07v6.48h-.95Z"/><path class="cls-1" d="M546.99,494.49v-9.36h.95v4.77h.12v4.59h-1.07Zm2.98-2.7c-.61,0-1.12-.15-1.54-.45s-.73-.71-.94-1.23-.32-1.1-.32-1.74,.11-1.24,.32-1.75,.53-.92,.95-1.22c.42-.29,.93-.44,1.54-.44s1.12,.15,1.55,.45c.43,.3,.77,.71,1,1.22,.23,.52,.35,1.1,.35,1.75s-.12,1.23-.35,1.75c-.23,.52-.57,.92-1,1.23-.43,.3-.95,.45-1.56,.45Zm-.13-.98c.43,0,.78-.11,1.06-.32,.28-.21,.49-.51,.63-.88,.14-.37,.21-.79,.21-1.24s-.07-.87-.21-1.24-.35-.66-.64-.88c-.29-.21-.65-.32-1.09-.32s-.77,.1-1.04,.31c-.28,.21-.48,.49-.62,.86-.14,.37-.2,.79-.2,1.27s.07,.89,.2,1.26c.13,.37,.34,.66,.62,.87,.28,.21,.64,.31,1.07,.31Z"/><path class="cls-1" d="M554.18,494.49v-9.36h.95v4.77h.12v4.59h-1.07Zm2.98-2.7c-.61,0-1.12-.15-1.54-.45s-.73-.71-.95-1.23-.32-1.1-.32-1.74,.11-1.24,.32-1.75,.53-.92,.95-1.22c.42-.29,.93-.44,1.54-.44s1.12,.15,1.55,.45c.43,.3,.77,.71,1,1.22,.23,.52,.35,1.1,.35,1.75s-.12,1.23-.35,1.75c-.23,.52-.56,.92-1,1.23-.43,.3-.95,.45-1.56,.45Zm-.13-.98c.43,0,.78-.11,1.06-.32,.28-.21,.49-.51,.63-.88,.14-.37,.21-.79,.21-1.24s-.07-.87-.21-1.24c-.14-.37-.35-.66-.64-.88-.29-.21-.65-.32-1.09-.32s-.77,.1-1.04,.31c-.28,.21-.48,.49-.62,.86s-.2,.79-.2,1.27,.07,.89,.2,1.26c.13,.37,.34,.66,.62,.87,.28,.21,.64,.31,1.07,.31Z"/><path class="cls-1" d="M561.51,491.62v-8.82h1.07v8.82h-1.07Z"/><path class="cls-1" d="M565.28,494.49l1.25-3.41,.02,1.01-2.83-6.96h1.12l2.22,5.6h-.38l2.08-5.6h1.09l-3.53,9.36h-1.04Z"/></g><g><path class="cls-1" d="M633.44,458.74v-7.63h-2.95v-1.01h6.96v1.01h-2.95v7.63h-1.07Z"/><path class="cls-1" d="M640.21,458.92c-.64,0-1.2-.15-1.66-.44-.47-.29-.83-.7-1.08-1.21-.25-.52-.38-1.11-.38-1.78s.13-1.28,.38-1.79c.26-.51,.62-.91,1.09-1.2,.47-.29,1.02-.43,1.65-.43s1.21,.15,1.67,.44c.47,.29,.83,.69,1.08,1.21,.25,.51,.38,1.1,.38,1.77s-.13,1.27-.38,1.79-.61,.92-1.08,1.21c-.47,.29-1.02,.43-1.67,.43Zm0-1.01c.67,0,1.17-.22,1.5-.67s.49-1.03,.49-1.74-.17-1.31-.5-1.75c-.33-.43-.83-.65-1.49-.65-.45,0-.82,.1-1.12,.31-.29,.2-.51,.49-.65,.85-.14,.36-.22,.78-.22,1.25,0,.73,.17,1.31,.5,1.75,.34,.44,.83,.66,1.48,.66Z"/><path class="cls-1" d="M643.94,453.14v-.88h4.34v.88h-4.34Zm4.34,5.6c-.38,.08-.76,.11-1.14,.09-.37-.01-.71-.09-1-.23-.29-.14-.51-.35-.67-.65-.13-.26-.2-.51-.21-.78,0-.26-.01-.56-.01-.89v-5.83h1.07v5.78c0,.26,0,.49,0,.68,0,.19,.05,.35,.12,.49,.14,.26,.37,.41,.69,.45s.69,.03,1.14-.04v.92Z"/><path class="cls-1" d="M651.44,458.92c-.48,0-.89-.09-1.22-.27-.33-.18-.57-.41-.74-.71s-.25-.61-.25-.96,.07-.63,.2-.88c.13-.25,.31-.46,.55-.62s.52-.3,.85-.39c.31-.08,.65-.16,1.04-.22,.38-.06,.77-.12,1.16-.17,.39-.05,.76-.1,1.1-.15l-.38,.22c.01-.58-.1-1-.34-1.28-.24-.28-.66-.41-1.25-.41-.39,0-.73,.09-1.03,.27-.29,.18-.5,.47-.62,.87l-1.01-.31c.16-.57,.46-1.01,.91-1.34,.45-.32,1.04-.49,1.77-.49,.59,0,1.09,.11,1.52,.32s.72,.53,.91,.95c.09,.2,.15,.42,.17,.65,.02,.23,.04,.48,.04,.74v4.01h-.95v-1.55l.22,.14c-.24,.52-.58,.92-1.02,1.19-.44,.27-.97,.4-1.6,.4Zm.16-.89c.38,0,.72-.07,1-.21,.28-.14,.51-.32,.68-.55,.17-.23,.28-.47,.34-.74,.06-.2,.09-.42,.1-.67s0-.43,0-.57l.37,.16c-.35,.05-.69,.09-1.03,.14s-.65,.09-.95,.14c-.3,.05-.57,.11-.81,.18-.18,.06-.34,.13-.49,.22-.15,.09-.28,.2-.37,.34-.09,.14-.14,.31-.14,.51,0,.18,.04,.34,.13,.5s.23,.29,.42,.39c.19,.1,.44,.15,.75,.15Z"/><path class="cls-1" d="M656.47,458.74v-8.82h1.07v8.82h-1.07Z"/><path class="cls-1" d="M664.18,458.91c-.77,0-1.41-.17-1.9-.51-.49-.34-.8-.81-.91-1.42l1.09-.17c.09,.35,.29,.63,.61,.84,.32,.21,.71,.31,1.18,.31s.79-.09,1.04-.28c.25-.18,.38-.43,.38-.75,0-.18-.04-.33-.13-.45s-.26-.22-.52-.32c-.26-.1-.66-.22-1.18-.36-.57-.15-1.02-.31-1.35-.47-.33-.16-.56-.35-.7-.57-.14-.22-.21-.48-.21-.79,0-.38,.1-.71,.31-1,.21-.29,.5-.51,.87-.66,.38-.16,.81-.23,1.3-.23s.93,.08,1.32,.23c.39,.16,.7,.38,.94,.66s.38,.62,.42,1l-1.09,.2c-.05-.35-.22-.62-.5-.82-.28-.2-.64-.31-1.09-.32-.42-.02-.76,.06-1.02,.22-.26,.16-.39,.39-.39,.67,0,.16,.05,.29,.15,.4,.1,.11,.28,.22,.55,.32,.27,.1,.65,.21,1.16,.34,.57,.14,1.02,.3,1.35,.47s.57,.37,.71,.6c.14,.23,.21,.51,.21,.85,0,.62-.23,1.12-.69,1.47-.46,.36-1.09,.54-1.9,.54Z"/><path class="cls-1" d="M670.56,458.91c-.42,0-.77-.07-1.07-.2-.3-.13-.54-.31-.74-.53-.2-.22-.35-.46-.46-.73-.11-.27-.19-.54-.24-.82-.05-.28-.07-.54-.07-.79v-3.58h1.08v3.25c0,.3,.03,.6,.08,.88,.06,.28,.15,.54,.29,.77s.31,.41,.54,.54,.51,.2,.85,.2c.27,0,.51-.05,.73-.14,.22-.09,.41-.23,.56-.41,.16-.18,.28-.41,.36-.69s.13-.61,.13-.98l.7,.22c0,.62-.11,1.16-.34,1.61-.23,.45-.54,.8-.95,1.04-.41,.24-.89,.36-1.45,.36Zm2.16-.17v-1.73h-.12v-4.75h1.07v6.48h-.95Z"/><path class="cls-1" d="M675.35,461.62v-9.36h.95v4.77h.12v4.59h-1.07Zm2.98-2.7c-.61,0-1.12-.15-1.54-.45-.42-.3-.73-.71-.95-1.23s-.32-1.1-.32-1.74,.11-1.24,.32-1.75,.53-.92,.95-1.22c.42-.3,.93-.44,1.54-.44s1.12,.15,1.55,.45,.77,.71,1,1.22c.23,.52,.35,1.1,.35,1.75s-.12,1.23-.35,1.75-.56,.92-1,1.23c-.43,.3-.95,.45-1.56,.45Zm-.13-.98c.43,0,.78-.11,1.06-.32s.49-.51,.63-.88,.21-.79,.21-1.25-.07-.87-.21-1.24c-.14-.37-.35-.66-.64-.88-.29-.22-.65-.32-1.09-.32s-.77,.1-1.04,.31c-.28,.21-.48,.49-.62,.86-.14,.37-.2,.79-.2,1.27s.07,.89,.2,1.26c.13,.37,.34,.66,.62,.87,.28,.21,.64,.32,1.07,.32Z"/><path class="cls-1" d="M682.55,461.62v-9.36h.95v4.77h.12v4.59h-1.07Zm2.98-2.7c-.61,0-1.12-.15-1.54-.45-.42-.3-.73-.71-.95-1.23-.21-.52-.32-1.1-.32-1.74s.11-1.24,.32-1.75c.21-.52,.53-.92,.95-1.22,.42-.3,.93-.44,1.54-.44s1.12,.15,1.55,.45c.43,.3,.77,.71,1,1.22,.23,.52,.35,1.1,.35,1.75s-.12,1.23-.35,1.75c-.23,.52-.56,.92-1,1.23-.43,.3-.95,.45-1.56,.45Zm-.13-.98c.43,0,.78-.11,1.06-.32,.28-.22,.49-.51,.63-.88,.14-.37,.21-.79,.21-1.25s-.07-.87-.21-1.24c-.14-.37-.35-.66-.64-.88-.29-.22-.65-.32-1.09-.32s-.77,.1-1.04,.31c-.28,.21-.48,.49-.62,.86-.14,.37-.21,.79-.21,1.27s.07,.89,.2,1.26c.13,.37,.34,.66,.62,.87,.28,.21,.64,.32,1.07,.32Z"/><path class="cls-1" d="M689.88,458.74v-8.82h1.07v8.82h-1.07Z"/><path class="cls-1" d="M693.64,461.62l1.25-3.41,.02,1.01-2.83-6.96h1.12l2.22,5.6h-.38l2.08-5.6h1.09l-3.53,9.36h-1.04Z"/></g><line class="cls-11" x1="134.9" y1="455.11" x2="152.83" y2="455.11"/><g><path class="cls-1" d="M163.05,458.74v-7.63h-2.95v-1.01h6.96v1.01h-2.95v7.63h-1.07Z"/><path class="cls-1" d="M169.87,458.92c-.63,0-1.19-.14-1.66-.42-.47-.28-.84-.68-1.11-1.18s-.4-1.1-.4-1.77,.13-1.32,.39-1.84c.26-.52,.62-.92,1.09-1.2,.47-.28,1.01-.42,1.64-.42s1.21,.15,1.66,.45c.46,.3,.8,.73,1.03,1.28,.23,.56,.33,1.22,.3,1.99h-1.08v-.38c-.01-.8-.17-1.39-.49-1.79-.31-.39-.78-.59-1.39-.59-.66,0-1.16,.21-1.51,.64-.34,.42-.52,1.03-.52,1.82s.17,1.36,.52,1.78,.83,.63,1.47,.63c.43,0,.8-.1,1.12-.29s.56-.48,.74-.85l1.03,.35c-.25,.57-.63,1.02-1.14,1.33-.51,.31-1.07,.47-1.7,.47Zm-2.39-3.12v-.86h4.79v.86h-4.79Z"/><path class="cls-1" d="M175.87,458.92c-.48,0-.89-.09-1.21-.27s-.57-.41-.74-.71-.25-.61-.25-.96,.06-.63,.19-.88,.31-.46,.55-.62c.24-.17,.52-.3,.85-.39,.31-.08,.65-.16,1.04-.22,.38-.06,.77-.12,1.16-.17,.39-.05,.76-.1,1.1-.15l-.38,.22c.01-.58-.1-1-.35-1.28s-.66-.41-1.25-.41c-.39,0-.74,.09-1.03,.27-.29,.18-.5,.47-.62,.87l-1.01-.31c.16-.57,.46-1.01,.91-1.34s1.04-.49,1.77-.49c.59,0,1.09,.11,1.51,.32,.42,.21,.72,.53,.91,.95,.09,.2,.15,.42,.17,.65,.02,.23,.04,.48,.04,.74v4.01h-.95v-1.55l.22,.14c-.24,.52-.59,.92-1.02,1.19-.44,.27-.97,.4-1.6,.4Zm.16-.89c.38,0,.72-.07,1-.21s.51-.32,.68-.55c.17-.23,.29-.47,.34-.74,.06-.2,.09-.42,.1-.67s0-.43,0-.57l.37,.16c-.35,.05-.69,.09-1.03,.14s-.65,.09-.96,.14c-.3,.05-.57,.11-.81,.18-.18,.06-.34,.13-.5,.22-.15,.09-.28,.2-.37,.34-.09,.14-.14,.31-.14,.51,0,.18,.04,.34,.13,.5,.09,.16,.23,.29,.42,.39,.19,.1,.44,.15,.75,.15Z"/><path class="cls-1" d="M180.77,458.74v-6.48h.95v1.73h.12v4.75h-1.07Zm3.88,0v-4.1c0-.5-.12-.89-.38-1.17-.26-.28-.6-.42-1.02-.42s-.76,.14-1.02,.43c-.26,.29-.39,.67-.39,1.15l-.56-.34c0-.42,.1-.8,.3-1.13,.2-.33,.47-.59,.82-.78,.34-.19,.73-.29,1.17-.29s.82,.09,1.14,.28c.32,.18,.57,.45,.75,.79s.26,.75,.26,1.22v4.36h-1.07Zm3.87,0v-4.15c0-.48-.12-.86-.38-1.14-.26-.27-.59-.41-1-.41-.24,0-.47,.06-.68,.17-.22,.11-.39,.28-.53,.52-.14,.23-.2,.53-.2,.9l-.56-.23c0-.46,.09-.86,.28-1.21,.2-.35,.47-.62,.81-.81,.34-.19,.73-.29,1.16-.29,.68,0,1.21,.21,1.6,.62,.39,.41,.58,.96,.58,1.65v4.38h-1.07Z"/><path class="cls-1" d="M196.37,458.92c-.48,0-.93-.07-1.34-.21-.42-.14-.76-.36-1.04-.66-.21-.24-.38-.5-.48-.79s-.17-.6-.18-.92c0-.32,.05-.62,.14-.93s.24-.57,.44-.81c.1-.13,.22-.24,.35-.33s.26-.17,.39-.23c-.28-.3-.49-.57-.63-.83-.15-.26-.22-.57-.22-.94,0-.47,.12-.89,.36-1.27s.57-.65,.99-.83c.21-.09,.41-.15,.63-.18,.21-.03,.42-.05,.63-.05,.34,0,.68,.05,1,.14,.32,.1,.6,.25,.83,.47,.15,.13,.28,.28,.39,.44s.19,.34,.25,.52l-1.04,.27c-.08-.2-.2-.38-.38-.52-.14-.12-.3-.2-.49-.25-.19-.04-.37-.07-.56-.07-.31,0-.59,.06-.85,.18-.22,.11-.39,.26-.5,.45-.11,.19-.17,.42-.17,.69,0,.23,.04,.42,.12,.56,.08,.15,.19,.3,.33,.46,.08,.09,.18,.18,.29,.28s.21,.2,.33,.3l2.54,2.36c.01-.1,.02-.2,.03-.31,0-.1,0-.2,0-.3v-1.19s.97,0,.97,0v1.4c0,.28,0,.53-.03,.73s-.05,.37-.09,.5l1.1,1.01-.7,.74-.91-.86c-.16,.18-.34,.33-.56,.46-.22,.13-.43,.23-.65,.3-.2,.08-.41,.13-.63,.16-.22,.03-.43,.04-.65,.04Zm.02-1.03c.2,0,.38-.01,.54-.04,.16-.02,.31-.07,.46-.14,.19-.09,.34-.18,.44-.26s.19-.16,.26-.23l-2.63-2.41c-.14,.05-.28,.11-.4,.19-.13,.08-.24,.17-.33,.28-.1,.13-.18,.28-.23,.45-.05,.17-.08,.35-.08,.55,0,.2,.04,.39,.1,.56,.06,.17,.15,.33,.27,.46,.18,.2,.41,.35,.71,.45,.3,.09,.6,.14,.89,.14Z"/><path class="cls-1" d="M205.69,458.92c-.48,0-.89-.09-1.21-.27s-.57-.41-.74-.71-.25-.61-.25-.96,.07-.63,.19-.88c.13-.25,.31-.46,.55-.62,.24-.17,.52-.3,.85-.39,.31-.08,.65-.16,1.04-.22,.38-.06,.77-.12,1.16-.17s.76-.1,1.1-.15l-.38,.22c.01-.58-.1-1-.34-1.28s-.66-.41-1.25-.41c-.39,0-.73,.09-1.03,.27-.29,.18-.5,.47-.62,.87l-1.01-.31c.16-.57,.46-1.01,.91-1.34,.45-.32,1.04-.49,1.77-.49,.59,0,1.09,.11,1.51,.32s.72,.53,.91,.95c.09,.2,.15,.42,.17,.65,.02,.23,.04,.48,.04,.74v4.01h-.95v-1.55l.22,.14c-.24,.52-.58,.92-1.02,1.19-.44,.27-.97,.4-1.6,.4Zm.16-.89c.38,0,.72-.07,1-.21,.28-.14,.51-.32,.68-.55,.17-.23,.28-.47,.34-.74,.06-.2,.09-.42,.1-.67s0-.43,0-.57l.37,.16c-.35,.05-.69,.09-1.03,.14s-.65,.09-.95,.14c-.3,.05-.57,.11-.81,.18-.18,.06-.34,.13-.49,.22-.15,.09-.28,.2-.37,.34-.09,.14-.14,.31-.14,.51,0,.18,.04,.34,.13,.5,.09,.16,.23,.29,.42,.39,.19,.1,.44,.15,.75,.15Z"/><path class="cls-1" d="M213.14,458.92c-.6,0-1.12-.15-1.55-.45-.43-.3-.77-.71-1-1.23-.23-.52-.35-1.1-.35-1.75s.12-1.23,.35-1.75c.23-.52,.57-.92,1-1.22,.43-.3,.95-.45,1.55-.45s1.13,.15,1.54,.44,.73,.7,.95,1.22c.21,.52,.32,1.1,.32,1.75s-.11,1.23-.32,1.74c-.21,.52-.53,.93-.95,1.23-.42,.3-.93,.45-1.54,.45Zm.13-.98c.44,0,.79-.11,1.07-.32,.28-.21,.49-.5,.62-.87,.13-.37,.2-.79,.2-1.26s-.07-.9-.2-1.27c-.13-.37-.34-.65-.62-.86-.28-.21-.63-.31-1.05-.31s-.8,.11-1.09,.32c-.29,.22-.5,.51-.64,.88-.14,.37-.21,.78-.21,1.24s.07,.88,.21,1.25c.14,.37,.35,.66,.63,.88,.28,.22,.63,.32,1.06,.32Zm1.9,.8v-4.77h-.12v-3.87h1.07v8.64h-.95Z"/><path class="cls-1" d="M219.55,458.74l-2.35-6.48h1.08l1.82,5.12,1.81-5.12h1.09l-2.35,6.48h-1.09Z"/><path class="cls-1" d="M224.2,451.11v-1.1h1.07v1.1h-1.07Zm0,7.63v-6.48h1.07v6.48h-1.07Z"/><path class="cls-1" d="M229.51,458.91c-.77,0-1.41-.17-1.9-.51-.49-.34-.8-.81-.91-1.42l1.09-.17c.09,.35,.29,.63,.61,.84,.32,.21,.71,.31,1.18,.31s.79-.09,1.04-.28c.25-.18,.38-.43,.38-.75,0-.18-.04-.33-.13-.45s-.26-.22-.52-.32c-.26-.1-.66-.22-1.18-.36-.57-.15-1.02-.31-1.35-.47-.33-.16-.56-.35-.7-.57-.14-.22-.21-.48-.21-.79,0-.38,.1-.71,.31-1,.21-.29,.5-.51,.87-.66,.38-.16,.81-.23,1.3-.23s.93,.08,1.32,.23c.39,.16,.7,.38,.94,.66s.38,.62,.42,1l-1.09,.2c-.05-.35-.22-.62-.5-.82-.28-.2-.64-.31-1.09-.32-.42-.02-.76,.06-1.02,.22-.26,.16-.39,.39-.39,.67,0,.16,.05,.29,.15,.4,.1,.11,.28,.22,.55,.32,.27,.1,.65,.21,1.16,.34,.57,.14,1.02,.3,1.35,.47s.57,.37,.71,.6c.14,.23,.21,.51,.21,.85,0,.62-.23,1.12-.69,1.47-.46,.36-1.09,.54-1.9,.54Z"/><path class="cls-1" d="M236.19,458.92c-.64,0-1.2-.15-1.67-.44-.47-.29-.82-.7-1.08-1.21-.25-.52-.38-1.11-.38-1.78s.13-1.28,.38-1.79c.26-.51,.62-.91,1.09-1.2,.47-.29,1.02-.43,1.65-.43s1.21,.15,1.67,.44c.47,.29,.83,.69,1.08,1.21,.25,.51,.38,1.1,.38,1.77s-.12,1.27-.38,1.79-.61,.92-1.08,1.21c-.47,.29-1.02,.43-1.67,.43Zm0-1.01c.67,0,1.17-.22,1.5-.67,.33-.45,.49-1.03,.49-1.74s-.17-1.31-.5-1.75c-.33-.43-.83-.65-1.49-.65-.45,0-.82,.1-1.12,.31-.29,.2-.51,.49-.65,.85-.14,.36-.22,.78-.22,1.25,0,.73,.17,1.31,.5,1.75,.34,.44,.83,.66,1.48,.66Z"/><path class="cls-1" d="M240.64,458.74v-6.48h.95v1.57l-.16-.2c.08-.2,.17-.38,.3-.55,.12-.17,.26-.31,.41-.41,.17-.14,.36-.24,.57-.31,.21-.07,.43-.11,.65-.13,.22-.01,.43,0,.62,.04v1c-.22-.06-.47-.08-.74-.05-.27,.03-.52,.13-.74,.29-.21,.15-.37,.33-.48,.54-.11,.21-.19,.44-.24,.69-.04,.25-.07,.5-.07,.75v3.25h-1.07Z"/><path class="cls-1" d="M247.33,458.91c-.77,0-1.41-.17-1.9-.51s-.8-.81-.91-1.42l1.09-.17c.09,.35,.29,.63,.61,.84s.71,.31,1.18,.31,.79-.09,1.04-.28c.25-.18,.38-.43,.38-.75,0-.18-.04-.33-.12-.45s-.26-.22-.52-.32c-.26-.1-.66-.22-1.19-.36-.57-.15-1.02-.31-1.35-.47s-.56-.35-.7-.57c-.14-.22-.21-.48-.21-.79,0-.38,.1-.71,.31-1s.5-.51,.87-.66,.81-.23,1.3-.23,.93,.08,1.32,.23c.39,.16,.7,.38,.94,.66,.24,.29,.38,.62,.42,1l-1.09,.2c-.05-.35-.22-.62-.5-.82-.28-.2-.65-.31-1.09-.32-.42-.02-.76,.06-1.02,.22-.26,.16-.39,.39-.39,.67,0,.16,.05,.29,.15,.4,.1,.11,.28,.22,.55,.32,.27,.1,.65,.21,1.16,.34,.57,.14,1.02,.3,1.35,.47s.56,.37,.71,.6c.14,.23,.21,.51,.21,.85,0,.62-.23,1.12-.69,1.47-.46,.36-1.09,.54-1.9,.54Z"/></g><line class="cls-12" x1="134.9" y1="489.8" x2="152.83" y2="489.8"/><g><path class="cls-1" d="M163.89,493.61c-.61,0-1.16-.1-1.65-.31s-.89-.5-1.21-.89c-.32-.39-.52-.84-.62-1.37l1.1-.17c.14,.54,.43,.97,.87,1.28,.44,.31,.96,.46,1.56,.46,.39,0,.74-.06,1.05-.18s.56-.3,.75-.53c.18-.23,.28-.5,.28-.81,0-.19-.03-.36-.1-.5-.07-.14-.16-.26-.27-.35-.11-.1-.24-.18-.39-.25-.14-.07-.29-.12-.45-.17l-2.2-.65c-.24-.07-.47-.16-.7-.27-.22-.11-.42-.25-.6-.41-.18-.17-.32-.37-.42-.6-.1-.23-.16-.51-.16-.83,0-.51,.13-.95,.4-1.31,.27-.36,.63-.64,1.08-.83,.46-.19,.97-.29,1.54-.28,.58,0,1.1,.11,1.56,.31s.84,.49,1.14,.87c.3,.38,.5,.83,.61,1.35l-1.13,.2c-.06-.35-.19-.66-.4-.91-.21-.25-.46-.45-.77-.59-.31-.14-.65-.21-1.01-.21-.35,0-.67,.05-.96,.17-.28,.12-.51,.28-.68,.48-.17,.21-.25,.44-.25,.71s.08,.48,.23,.64,.34,.29,.56,.38c.22,.09,.44,.17,.65,.23l1.64,.47c.19,.05,.41,.12,.65,.22s.49,.22,.72,.39c.23,.17,.42,.39,.58,.66,.15,.27,.23,.62,.23,1.04s-.08,.79-.25,1.11-.4,.59-.69,.81c-.3,.22-.64,.38-1.03,.5s-.81,.17-1.26,.17Z"/><path class="cls-1" d="M171.19,493.61c-.64,0-1.19-.14-1.67-.42s-.84-.68-1.11-1.18c-.26-.51-.4-1.1-.4-1.77s.13-1.32,.39-1.84c.26-.52,.62-.92,1.09-1.2,.47-.28,1.01-.42,1.64-.42s1.21,.15,1.67,.45,.8,.73,1.03,1.28c.23,.56,.33,1.22,.3,1.99h-1.08v-.38c-.01-.8-.17-1.39-.49-1.79-.31-.39-.78-.59-1.39-.59-.66,0-1.16,.21-1.51,.64-.34,.42-.52,1.03-.52,1.82s.17,1.36,.52,1.78,.83,.63,1.47,.63c.43,0,.8-.1,1.12-.29,.32-.2,.56-.48,.74-.85l1.03,.35c-.25,.57-.63,1.02-1.14,1.33-.51,.31-1.07,.47-1.7,.47Zm-2.39-3.12v-.86h4.79v.86h-4.79Z"/><path class="cls-1" d="M178.28,493.61c-.64,0-1.19-.14-1.67-.42s-.84-.68-1.11-1.18c-.26-.51-.4-1.1-.4-1.77s.13-1.32,.39-1.84c.26-.52,.62-.92,1.09-1.2,.47-.28,1.01-.42,1.64-.42s1.21,.15,1.67,.45,.8,.73,1.03,1.28c.23,.56,.33,1.22,.3,1.99h-1.08v-.38c-.01-.8-.17-1.39-.49-1.79-.31-.39-.78-.59-1.39-.59-.66,0-1.16,.21-1.51,.64-.34,.42-.52,1.03-.52,1.82s.17,1.36,.52,1.78,.83,.63,1.47,.63c.43,0,.8-.1,1.12-.29,.32-.2,.56-.48,.74-.85l1.03,.35c-.25,.57-.63,1.02-1.14,1.33-.51,.31-1.07,.47-1.7,.47Zm-2.39-3.12v-.86h4.79v.86h-4.79Z"/><path class="cls-1" d="M185.1,493.61c-.6,0-1.12-.15-1.55-.45-.43-.3-.76-.71-1-1.23-.23-.52-.35-1.1-.35-1.75s.12-1.23,.35-1.75c.23-.52,.57-.92,1-1.22,.43-.3,.95-.45,1.55-.45s1.12,.15,1.54,.44,.73,.7,.95,1.22c.21,.52,.32,1.1,.32,1.75s-.11,1.23-.32,1.74c-.21,.52-.53,.93-.95,1.23-.42,.3-.93,.45-1.54,.45Zm.13-.98c.44,0,.79-.11,1.07-.32,.28-.21,.49-.5,.62-.87,.13-.37,.2-.79,.2-1.26s-.07-.9-.2-1.27c-.13-.37-.34-.65-.61-.86s-.63-.31-1.05-.31-.8,.11-1.09,.32c-.29,.22-.5,.51-.64,.88-.14,.37-.21,.78-.21,1.24s.07,.88,.21,1.25c.14,.37,.35,.66,.63,.88,.28,.22,.63,.32,1.06,.32Zm1.9,.8v-4.77h-.12v-3.87h1.07v8.64h-.96Z"/></g><line class="cls-10" x1="286.44" y1="455.11" x2="304.37" y2="455.11"/><g><path class="cls-1" d="M312.36,458.74v-8.64h3.41c.08,0,.18,0,.3,0,.12,0,.23,.02,.34,.04,.47,.07,.86,.23,1.18,.48s.56,.56,.72,.94,.24,.8,.24,1.26-.08,.87-.24,1.25-.4,.69-.72,.94c-.32,.25-.71,.41-1.17,.48-.11,.02-.22,.03-.34,.04-.12,0-.22,.01-.3,.01h-2.35v3.19h-1.07Zm1.07-4.21h2.31c.08,0,.16,0,.26-.01,.1,0,.19-.02,.28-.04,.28-.06,.5-.18,.68-.35,.17-.17,.3-.37,.38-.6s.12-.46,.12-.71-.04-.47-.12-.71c-.08-.23-.21-.43-.38-.6-.17-.17-.4-.29-.68-.35-.09-.02-.18-.04-.28-.04-.1,0-.19,0-.26,0h-2.31v3.42Z"/><path class="cls-1" d="M319.75,458.74v-6.48h.95v1.57l-.16-.2c.08-.2,.17-.38,.3-.55s.26-.31,.41-.41c.17-.14,.36-.24,.57-.31,.21-.07,.43-.11,.65-.13,.22-.01,.43,0,.62,.04v1c-.22-.06-.47-.08-.74-.05-.27,.03-.52,.13-.74,.29-.21,.15-.37,.33-.48,.54-.11,.21-.19,.44-.24,.69s-.07,.5-.07,.75v3.25h-1.07Z"/><path class="cls-1" d="M324.35,451.11v-1.1h1.07v1.1h-1.07Zm0,7.63v-6.48h1.07v6.48h-1.07Z"/><path class="cls-1" d="M328.97,458.74l-2.35-6.48h1.08l1.82,5.12,1.81-5.12h1.09l-2.35,6.48h-1.09Z"/><path class="cls-1" d="M334.98,458.92c-.48,0-.89-.09-1.22-.27-.33-.18-.57-.41-.74-.71s-.25-.61-.25-.96,.06-.63,.19-.88c.13-.25,.31-.46,.55-.62,.24-.17,.52-.3,.85-.39,.31-.08,.65-.16,1.04-.22,.38-.06,.77-.12,1.16-.17,.39-.05,.76-.1,1.1-.15l-.38,.22c.01-.58-.1-1-.35-1.28-.24-.28-.66-.41-1.25-.41-.39,0-.73,.09-1.03,.27-.29,.18-.5,.47-.62,.87l-1.01-.31c.16-.57,.46-1.01,.91-1.34s1.04-.49,1.77-.49c.59,0,1.09,.11,1.51,.32s.72,.53,.91,.95c.09,.2,.15,.42,.17,.65,.02,.23,.04,.48,.04,.74v4.01h-.95v-1.55l.22,.14c-.24,.52-.58,.92-1.02,1.19-.44,.27-.97,.4-1.6,.4Zm.16-.89c.38,0,.72-.07,1-.21,.28-.14,.51-.32,.68-.55,.17-.23,.28-.47,.34-.74,.06-.2,.09-.42,.1-.67s0-.43,0-.57l.37,.16c-.35,.05-.69,.09-1.03,.14s-.65,.09-.95,.14-.57,.11-.81,.18c-.18,.06-.34,.13-.49,.22-.15,.09-.28,.2-.37,.34-.09,.14-.14,.31-.14,.51,0,.18,.04,.34,.13,.5,.09,.16,.23,.29,.42,.39,.19,.1,.44,.15,.75,.15Z"/><path class="cls-1" d="M339.16,453.14v-.88h4.34v.88h-4.34Zm4.34,5.6c-.38,.08-.76,.11-1.14,.09-.37-.01-.71-.09-1-.23-.29-.14-.51-.35-.67-.65-.13-.26-.2-.51-.21-.78,0-.26-.01-.56-.01-.89v-5.83h1.07v5.78c0,.26,0,.49,0,.68,0,.19,.05,.35,.12,.49,.14,.26,.37,.41,.69,.45,.31,.04,.69,.03,1.14-.04v.92Z"/><path class="cls-1" d="M347.36,458.92c-.64,0-1.19-.14-1.67-.42-.47-.28-.84-.68-1.11-1.18-.26-.51-.4-1.1-.4-1.77s.13-1.32,.39-1.84c.26-.52,.62-.92,1.09-1.2,.47-.28,1.01-.42,1.64-.42s1.21,.15,1.67,.45,.8,.73,1.03,1.28c.23,.56,.33,1.22,.3,1.99h-1.08v-.38c-.01-.8-.17-1.39-.49-1.79-.31-.39-.78-.59-1.39-.59-.66,0-1.16,.21-1.51,.64-.34,.42-.52,1.03-.52,1.82s.17,1.36,.52,1.78,.83,.63,1.47,.63c.43,0,.8-.1,1.12-.29,.32-.2,.56-.48,.74-.85l1.03,.35c-.25,.57-.63,1.02-1.14,1.33-.51,.31-1.07,.47-1.7,.47Zm-2.39-3.12v-.86h4.79v.86h-4.79Z"/><path class="cls-1" d="M356.49,458.91c-.77,0-1.41-.17-1.9-.51-.49-.34-.8-.81-.91-1.42l1.09-.17c.09,.35,.29,.63,.61,.84,.32,.21,.71,.31,1.18,.31,.44,0,.79-.09,1.04-.28,.25-.18,.38-.43,.38-.75,0-.18-.04-.33-.13-.45s-.26-.22-.52-.32c-.26-.1-.66-.22-1.18-.36-.57-.15-1.02-.31-1.35-.47-.33-.16-.56-.35-.7-.57-.14-.22-.21-.48-.21-.79,0-.38,.1-.71,.31-1s.5-.51,.87-.66,.81-.23,1.3-.23,.93,.08,1.32,.23,.7,.38,.94,.66c.24,.29,.38,.62,.42,1l-1.09,.2c-.05-.35-.22-.62-.5-.82-.28-.2-.65-.31-1.09-.32-.42-.02-.76,.06-1.02,.22s-.39,.39-.39,.67c0,.16,.05,.29,.15,.4s.28,.22,.55,.32c.27,.1,.65,.21,1.16,.34,.57,.14,1.02,.3,1.35,.47s.57,.37,.71,.6c.14,.23,.21,.51,.21,.85,0,.62-.23,1.12-.69,1.47-.46,.36-1.09,.54-1.9,.54Z"/><path class="cls-1" d="M363.21,458.92c-.64,0-1.19-.14-1.67-.42-.47-.28-.84-.68-1.11-1.18-.26-.51-.4-1.1-.4-1.77s.13-1.32,.39-1.84c.26-.52,.62-.92,1.09-1.2,.47-.28,1.01-.42,1.64-.42s1.21,.15,1.67,.45,.8,.73,1.03,1.28c.23,.56,.33,1.22,.3,1.99h-1.08v-.38c-.01-.8-.17-1.39-.49-1.79-.31-.39-.78-.59-1.39-.59-.66,0-1.16,.21-1.51,.64-.34,.42-.52,1.03-.52,1.82s.17,1.36,.52,1.78,.83,.63,1.47,.63c.43,0,.8-.1,1.12-.29,.32-.2,.56-.48,.74-.85l1.03,.35c-.25,.57-.63,1.02-1.14,1.33-.51,.31-1.07,.47-1.7,.47Zm-2.39-3.12v-.86h4.79v.86h-4.79Z"/><path class="cls-1" d="M370.3,458.92c-.64,0-1.19-.14-1.67-.42-.47-.28-.84-.68-1.11-1.18-.26-.51-.4-1.1-.4-1.77s.13-1.32,.39-1.84c.26-.52,.62-.92,1.09-1.2,.47-.28,1.01-.42,1.64-.42s1.21,.15,1.67,.45,.8,.73,1.03,1.28c.23,.56,.33,1.22,.3,1.99h-1.08v-.38c-.01-.8-.17-1.39-.49-1.79-.31-.39-.78-.59-1.39-.59-.66,0-1.16,.21-1.51,.64-.34,.42-.52,1.03-.52,1.82s.17,1.36,.52,1.78,.83,.63,1.47,.63c.43,0,.8-.1,1.12-.29,.32-.2,.56-.48,.74-.85l1.03,.35c-.25,.57-.63,1.02-1.14,1.33-.51,.31-1.07,.47-1.7,.47Zm-2.39-3.12v-.86h4.79v.86h-4.79Z"/><path class="cls-1" d="M377.12,458.92c-.6,0-1.12-.15-1.55-.45-.43-.3-.77-.71-1-1.23-.23-.52-.35-1.1-.35-1.75s.12-1.23,.35-1.75c.23-.52,.57-.92,1-1.22,.43-.3,.95-.45,1.55-.45s1.13,.15,1.54,.44,.73,.7,.95,1.22c.21,.52,.32,1.1,.32,1.75s-.11,1.23-.32,1.74c-.21,.52-.53,.93-.95,1.23-.42,.3-.93,.45-1.54,.45Zm.13-.98c.44,0,.79-.11,1.07-.32s.49-.5,.62-.87c.13-.37,.2-.79,.2-1.26s-.07-.9-.2-1.27c-.13-.37-.34-.65-.62-.86s-.63-.31-1.05-.31-.8,.11-1.09,.32c-.29,.22-.5,.51-.64,.88-.14,.37-.21,.78-.21,1.24s.07,.88,.21,1.25c.14,.37,.35,.66,.63,.88,.28,.22,.63,.32,1.06,.32Zm1.9,.8v-4.77h-.12v-3.87h1.07v8.64h-.95Z"/></g><line class="cls-15" x1="417.08" y1="455.11" x2="435.01" y2="455.11"/><g><path class="cls-1" d="M443.01,458.74v-8.64h3.41c.08,0,.18,0,.3,0s.23,.02,.34,.04c.47,.07,.86,.23,1.18,.48,.32,.25,.56,.56,.72,.94,.16,.38,.24,.8,.24,1.26s-.08,.87-.24,1.25c-.16,.38-.4,.69-.72,.94-.32,.25-.71,.41-1.17,.48-.11,.02-.22,.03-.34,.04s-.22,.01-.3,.01h-2.35v3.19h-1.07Zm1.07-4.21h2.31c.08,0,.16,0,.26-.01,.1,0,.19-.02,.28-.04,.28-.06,.5-.18,.67-.35s.3-.37,.38-.6,.12-.46,.12-.71-.04-.47-.12-.71c-.08-.23-.21-.43-.38-.6s-.4-.29-.67-.35c-.09-.02-.18-.04-.28-.04-.1,0-.18,0-.26,0h-2.31v3.42Z"/><path class="cls-1" d="M450.39,458.74v-6.48h.95v1.57l-.16-.2c.08-.2,.17-.38,.3-.55s.26-.31,.41-.41c.17-.14,.36-.24,.57-.31,.21-.07,.43-.11,.65-.13,.22-.01,.43,0,.62,.04v1c-.22-.06-.47-.08-.74-.05-.27,.03-.52,.13-.74,.29-.21,.15-.37,.33-.48,.54-.11,.21-.19,.44-.24,.69s-.07,.5-.07,.75v3.25h-1.07Z"/><path class="cls-1" d="M454.99,451.11v-1.1h1.07v1.1h-1.07Zm0,7.63v-6.48h1.07v6.48h-1.07Z"/><path class="cls-1" d="M459.61,458.74l-2.35-6.48h1.08l1.82,5.12,1.81-5.12h1.09l-2.35,6.48h-1.09Z"/><path class="cls-1" d="M465.62,458.92c-.48,0-.89-.09-1.21-.27s-.57-.41-.74-.71-.25-.61-.25-.96,.07-.63,.2-.88,.31-.46,.55-.62,.52-.3,.85-.39c.31-.08,.65-.16,1.04-.22,.38-.06,.77-.12,1.16-.17,.39-.05,.76-.1,1.1-.15l-.38,.22c.01-.58-.1-1-.34-1.28s-.66-.41-1.25-.41c-.39,0-.74,.09-1.03,.27-.29,.18-.5,.47-.62,.87l-1.01-.31c.16-.57,.46-1.01,.91-1.34,.45-.32,1.04-.49,1.77-.49,.59,0,1.09,.11,1.52,.32,.42,.21,.72,.53,.91,.95,.09,.2,.15,.42,.17,.65,.02,.23,.04,.48,.04,.74v4.01h-.95v-1.55l.22,.14c-.24,.52-.58,.92-1.02,1.19-.44,.27-.97,.4-1.6,.4Zm.16-.89c.38,0,.72-.07,1-.21s.51-.32,.68-.55c.17-.23,.28-.47,.34-.74,.06-.2,.09-.42,.1-.67s0-.43,0-.57l.37,.16c-.35,.05-.69,.09-1.03,.14s-.65,.09-.95,.14c-.3,.05-.57,.11-.81,.18-.18,.06-.34,.13-.5,.22-.15,.09-.28,.2-.37,.34-.09,.14-.14,.31-.14,.51,0,.18,.04,.34,.13,.5s.23,.29,.42,.39c.19,.1,.44,.15,.75,.15Z"/><path class="cls-1" d="M469.81,453.14v-.88h4.34v.88h-4.34Zm4.34,5.6c-.38,.08-.76,.11-1.14,.09-.37-.01-.71-.09-1-.23-.29-.14-.51-.35-.67-.65-.13-.26-.2-.51-.21-.78-.01-.26-.02-.56-.02-.89v-5.83h1.07v5.78c0,.26,0,.49,0,.68,0,.19,.05,.35,.12,.49,.14,.26,.37,.41,.69,.45,.31,.04,.69,.03,1.14-.04v.92Z"/><path class="cls-1" d="M478,458.92c-.64,0-1.19-.14-1.67-.42-.47-.28-.84-.68-1.11-1.18-.26-.51-.4-1.1-.4-1.77s.13-1.32,.39-1.84c.26-.52,.62-.92,1.09-1.2,.47-.28,1.01-.42,1.64-.42s1.21,.15,1.67,.45,.8,.73,1.03,1.28c.23,.56,.33,1.22,.3,1.99h-1.08v-.38c-.01-.8-.17-1.39-.49-1.79-.31-.39-.78-.59-1.39-.59-.66,0-1.16,.21-1.51,.64-.34,.42-.52,1.03-.52,1.82s.17,1.36,.52,1.78c.34,.42,.83,.63,1.47,.63,.43,0,.8-.1,1.12-.29,.32-.2,.56-.48,.74-.85l1.03,.35c-.25,.57-.63,1.02-1.14,1.33-.51,.31-1.07,.47-1.7,.47Zm-2.39-3.12v-.86h4.79v.86h-4.79Z"/><path class="cls-1" d="M484.44,458.73v-.96s3.84-3.45,3.84-3.45c.32-.29,.54-.56,.65-.82,.11-.26,.17-.52,.17-.79,0-.33-.08-.63-.23-.9-.15-.27-.36-.48-.62-.64-.26-.16-.56-.23-.89-.23s-.65,.08-.92,.24c-.27,.16-.48,.38-.63,.64-.15,.27-.23,.56-.23,.88h-1.09c0-.54,.13-1.02,.38-1.44s.59-.75,1.03-.98c.43-.24,.93-.36,1.48-.36s1.02,.12,1.44,.37,.76,.58,1,1,.37,.9,.37,1.43c0,.38-.05,.7-.14,.98-.09,.28-.24,.53-.44,.76-.2,.23-.44,.48-.74,.75l-3.19,2.86-.14-.36h4.64v1.02h-5.74Z"/></g><line class="cls-14" x1="286.44" y1="489.8" x2="304.37" y2="489.8"/><g><path class="cls-1" d="M312.36,493.43v-8.64h3.41c.08,0,.18,0,.3,0,.12,0,.23,.02,.34,.04,.47,.07,.86,.23,1.18,.48s.56,.56,.72,.94,.24,.8,.24,1.26-.08,.87-.24,1.25-.4,.69-.72,.94c-.32,.25-.71,.41-1.17,.48-.11,.02-.22,.03-.34,.04-.12,0-.22,.01-.3,.01h-2.35v3.19h-1.07Zm1.07-4.21h2.31c.08,0,.16,0,.26-.01,.1,0,.19-.02,.28-.04,.28-.06,.5-.18,.68-.35,.17-.17,.3-.37,.38-.6s.12-.46,.12-.71-.04-.47-.12-.71c-.08-.23-.21-.43-.38-.6-.17-.17-.4-.29-.68-.35-.09-.02-.18-.04-.28-.04-.1,0-.19,0-.26,0h-2.31v3.42Z"/><path class="cls-1" d="M319.75,493.43v-6.48h.95v1.57l-.16-.2c.08-.2,.17-.38,.3-.55s.26-.31,.41-.41c.17-.14,.36-.24,.57-.31,.21-.07,.43-.11,.65-.13,.22-.01,.43,0,.62,.04v1c-.22-.06-.47-.08-.74-.05-.27,.03-.52,.13-.74,.29-.21,.15-.37,.33-.48,.54-.11,.21-.19,.44-.24,.69s-.07,.5-.07,.75v3.25h-1.07Z"/><path class="cls-1" d="M324.35,485.8v-1.1h1.07v1.1h-1.07Zm0,7.63v-6.48h1.07v6.48h-1.07Z"/><path class="cls-1" d="M328.97,493.43l-2.35-6.48h1.08l1.82,5.12,1.81-5.12h1.09l-2.35,6.48h-1.09Z"/><path class="cls-1" d="M334.98,493.61c-.48,0-.89-.09-1.22-.27-.33-.18-.57-.41-.74-.71s-.25-.61-.25-.96,.06-.63,.19-.88c.13-.25,.31-.46,.55-.62,.24-.17,.52-.3,.85-.39,.31-.08,.65-.16,1.04-.22,.38-.06,.77-.12,1.16-.17,.39-.05,.76-.1,1.1-.15l-.38,.22c.01-.58-.1-1-.35-1.28-.24-.28-.66-.41-1.25-.41-.39,0-.73,.09-1.03,.27-.29,.18-.5,.47-.62,.87l-1.01-.31c.16-.57,.46-1.01,.91-1.34s1.04-.49,1.77-.49c.59,0,1.09,.11,1.51,.32s.72,.53,.91,.95c.09,.2,.15,.42,.17,.65,.02,.23,.04,.48,.04,.74v4.01h-.95v-1.55l.22,.14c-.24,.52-.58,.92-1.02,1.19-.44,.27-.97,.4-1.6,.4Zm.16-.89c.38,0,.72-.07,1-.21,.28-.14,.51-.32,.68-.55,.17-.23,.28-.47,.34-.74,.06-.2,.09-.42,.1-.67s0-.43,0-.57l.37,.16c-.35,.05-.69,.09-1.03,.14s-.65,.09-.95,.14-.57,.11-.81,.18c-.18,.06-.34,.13-.49,.22-.15,.09-.28,.2-.37,.34-.09,.14-.14,.31-.14,.51,0,.18,.04,.34,.13,.5,.09,.16,.23,.29,.42,.39,.19,.1,.44,.15,.75,.15Z"/><path class="cls-1" d="M339.16,487.83v-.88h4.34v.88h-4.34Zm4.34,5.6c-.38,.08-.76,.11-1.14,.09-.37-.01-.71-.09-1-.23-.29-.14-.51-.35-.67-.65-.13-.26-.2-.51-.21-.78,0-.26-.01-.56-.01-.89v-5.83h1.07v5.78c0,.26,0,.49,0,.68,0,.19,.05,.35,.12,.49,.14,.26,.37,.41,.69,.45,.31,.04,.69,.03,1.14-.04v.92Z"/><path class="cls-1" d="M347.36,493.61c-.64,0-1.19-.14-1.67-.42-.47-.28-.84-.68-1.11-1.18-.26-.51-.4-1.1-.4-1.77s.13-1.32,.39-1.84c.26-.52,.62-.92,1.09-1.2,.47-.28,1.01-.42,1.64-.42s1.21,.15,1.67,.45,.8,.73,1.03,1.28c.23,.56,.33,1.22,.3,1.99h-1.08v-.38c-.01-.8-.17-1.39-.49-1.79-.31-.39-.78-.59-1.39-.59-.66,0-1.16,.21-1.51,.64-.34,.42-.52,1.03-.52,1.82s.17,1.36,.52,1.78,.83,.63,1.47,.63c.43,0,.8-.1,1.12-.29,.32-.2,.56-.48,.74-.85l1.03,.35c-.25,.57-.63,1.02-1.14,1.33-.51,.31-1.07,.47-1.7,.47Zm-2.39-3.12v-.86h4.79v.86h-4.79Z"/><path class="cls-1" d="M355.54,493.43v-7.46l-1.63,.98v-1.19l1.63-.97h1.09v8.64h-1.09Z"/></g><polyline class="cls-8" points="204.86 371.12 220.48 369.85 236.1 368.58 251.72 366.84 267.34 365.57 282.96 364.3 298.58 363.03 314.2 361.76 329.82 360.49 345.44 359.22 361.06 357.94 376.68 356.67 392.3 355.4 407.92 354.13 423.54 352.86 439.16 351.59 454.77 350.32 470.39 349.05 486.01 347.78 501.63 346.51 517.25 345.24 532.87 343.97 548.49 342.7 564.11 341.43 579.73 340.16 595.35 338.88 610.97 337.61 626.59 336.34 642.21 335.07 657.83 333.8 673.45 332.53 689.07 331.26 704.69 329.99 720.31 328.72 735.93 327.45 751.55 326.18"/><polyline class="cls-2" points="142.38 358.93 158 357.06 173.62 355.19 189.24 353.33 204.86 351.46 220.48 349.6 236.1 347.73 251.72 345.86 267.34 344 282.96 342.13 298.58 340.27 314.2 338.4 329.82 336.53 345.44 334.67 361.06 332.8 376.68 330.94 392.3 330.94 407.92 330.94 423.54 330.94 439.16 330.94 454.77 330.94 470.39 330.94 486.01 330.94 501.63 330.94 517.25 330.94 532.87 330.94 548.49 330.94 564.11 330.94 579.73 330.94 595.35 330.94 610.97 330.94 626.59 330.94 642.21 330.94 657.83 330.94 673.45 330.94 689.07 330.94 704.69 330.94 720.31 330.94 735.93 330.94 751.55 330.94"/><polyline class="cls-7" points="142.38 365.09 158 365.09 173.62 365.09 189.24 365.09 204.86 365.09 220.48 365.09 236.1 365.09 251.72 365.09 267.34 365.09 282.96 365.09 298.58 365.09 314.2 365.09 329.82 350.26 345.44 350.26 361.06 350.26 376.68 350.26 392.3 350.26 407.92 350.26 423.54 350.26 439.16 350.26 454.77 350.26 470.39 350.26 486.01 350.26 501.63 350.26 517.25 350.26 532.87 350.26 548.49 350.26 564.11 350.26 579.73 350.26 595.35 350.26 610.97 350.26 626.59 350.26 642.21 350.26 657.83 350.26 673.45 350.26 689.07 350.26 704.69 350.26 720.31 350.26 735.93 350.26 751.55 350.26"/><polyline class="cls-4" points="142.38 357.81 158 356.39 173.62 354.96 189.24 353.53 204.86 352.11 220.48 350.68 236.1 349.25 251.72 347.82 267.34 346.4 282.96 344.97 298.58 343.54 314.2 342.11 329.82 340.69 345.44 340.69 361.06 340.69 376.68 340.69 392.3 340.69 407.92 340.69 423.54 340.69 439.16 340.69 454.77 340.69 470.39 340.69 486.01 340.69 501.63 340.69 517.25 340.69 532.87 340.69 548.49 340.69 564.11 340.69 579.73 340.69 595.35 340.69 610.97 340.69 626.59 340.69 642.21 340.69 657.83 340.69 673.45 340.69 689.07 340.69 704.69 340.69 720.31 340.69 735.93 340.69 751.55 340.69"/><polyline class="cls-5" points="142.38 370.65 158 370.52 173.62 370.38 189.24 370.24 204.86 370.11 220.48 369.97 236.1 369.84 251.72 369.7 267.34 369.56 282.96 369.43 298.58 369.29 314.2 369.29 329.82 369.29 345.44 369.29 361.06 369.29 376.68 369.29 392.3 369.29 407.92 369.29 423.54 369.29 439.16 369.29 454.77 369.29 470.39 369.29 486.01 369.29 501.63 369.29 517.25 369.29 532.87 369.29 548.49 369.29 564.11 369.29 579.73 369.29 595.35 369.29 610.97 369.29 626.59 369.29 642.21 369.29 657.83 369.29 673.45 369.29 689.07 369.29 704.69 369.29 720.31 369.29 735.93 369.29 751.55 369.29"/><polyline class="cls-3" points="142.38 305.31 158 301.26 173.62 297.22 189.24 293.17 204.86 287.85 220.48 282.54 236.1 265.85 251.72 260.06 267.34 254.74 282.96 249.43 298.58 244.11 314.2 238.93 329.82 195.1 345.44 191.35 361.06 187.6 376.68 183.85 392.3 181.96 407.92 180.07 423.54 178.19 439.16 176.3 454.77 174.42 470.39 172.53 486.01 170.64 501.63 168.76 517.25 152.09 532.87 150.82 548.49 149.55 564.11 148.28 579.73 147.01 595.35 145.74 610.97 144.47 626.59 143.2 642.21 141.93 657.83 140.66 673.45 139.39 689.07 138.12 704.69 136.85 720.31 135.58 735.93 134.31 751.55 133.03"/><polyline class="cls-6" points="142.38 76.89 158 76.89 173.62 76.89 189.24 76.89 204.86 76.89 220.48 76.89 236.1 76.89 251.72 76.89 267.34 76.89 282.96 76.89 298.58 76.89 314.2 76.89 329.82 76.89 345.44 76.89 361.06 76.89 376.68 76.89 392.3 76.89 407.92 76.89 423.54 76.89 439.16 76.89 454.77 76.89 470.39 76.89 486.01 76.89 501.63 76.89 517.25 76.89 532.87 76.89 548.49 76.89 564.11 76.89 579.73 76.89 595.35 76.89 610.97 76.89 626.59 76.89 642.21 76.89 657.83 76.89 673.45 76.89 689.07 76.89 704.69 76.89 720.31 76.89 735.93 76.89 751.55 76.89"/><path class="cls-1" d="M142.7,392.22c-.56,0-1.06-.13-1.5-.38-.44-.25-.78-.6-1.04-1.04-.25-.44-.38-.94-.38-1.5v-3.17c0-.56,.13-1.06,.38-1.5,.25-.44,.6-.79,1.04-1.04,.44-.25,.94-.38,1.5-.38s1.06,.13,1.5,.38c.44,.25,.79,.6,1.04,1.04,.25,.44,.38,.94,.38,1.5v3.17c0,.56-.13,1.06-.38,1.5-.25,.44-.6,.78-1.04,1.04-.44,.25-.94,.38-1.5,.38Zm0-1.03c.34,0,.65-.08,.92-.25s.5-.38,.66-.66,.25-.58,.25-.92v-3.29c0-.34-.08-.65-.25-.92-.16-.28-.38-.5-.66-.66s-.58-.25-.92-.25-.64,.08-.92,.25c-.28,.16-.5,.38-.66,.66-.16,.28-.25,.58-.25,.92v3.29c0,.34,.08,.64,.25,.92s.38,.5,.66,.66c.28,.16,.58,.25,.92,.25Z"/><g><path class="cls-1" d="M31.56,225.51c0,.86-.19,1.6-.57,2.21-.38,.61-.9,1.07-1.58,1.39s-1.46,.48-2.35,.48-1.68-.16-2.35-.48-1.2-.79-1.58-1.39c-.38-.61-.57-1.34-.57-2.21,0-1,.25-1.82,.76-2.47,.51-.65,1.18-1.11,2.04-1.37l.34,1.27c-.6,.17-1.08,.47-1.42,.9-.34,.43-.52,.99-.52,1.67,0,.61,.14,1.12,.41,1.53,.28,.41,.66,.71,1.16,.92s1.07,.31,1.73,.31c.66,0,1.24-.1,1.73-.3,.5-.21,.88-.51,1.16-.92s.41-.92,.41-1.53c0-.68-.17-1.24-.52-1.67-.35-.43-.82-.73-1.42-.9l.34-1.27c.85,.26,1.53,.71,2.03,1.37s.76,1.48,.76,2.47Z"/><path class="cls-1" d="M31.56,217.54c0,.65-.14,1.21-.44,1.69-.29,.48-.7,.84-1.21,1.1-.51,.26-1.11,.39-1.78,.39s-1.27-.13-1.79-.4c-.51-.26-.91-.63-1.2-1.11s-.43-1.03-.43-1.67,.15-1.21,.44-1.69c.29-.48,.69-.84,1.21-1.1s1.1-.39,1.77-.39,1.27,.13,1.79,.39c.51,.26,.92,.63,1.21,1.11,.29,.48,.43,1.04,.43,1.68Zm-1.18,0c0-.62-.21-1.08-.63-1.39-.42-.31-.96-.46-1.62-.46s-1.22,.16-1.62,.46c-.41,.31-.61,.77-.61,1.38,0,.42,.09,.77,.28,1.04,.19,.27,.45,.47,.79,.61,.33,.13,.72,.2,1.16,.2,.68,0,1.22-.16,1.63-.47s.61-.77,.61-1.37Z"/><path class="cls-1" d="M23.84,212.92h-1.22v-1.25h1.22v1.25Zm7.54,0h-6.48v-1.25h6.48v1.25Z"/><path class="cls-1" d="M31.38,205.32h-3.19c-.25,0-.51,.02-.78,.06s-.51,.12-.74,.24-.41,.28-.55,.5c-.14,.21-.21,.49-.21,.84,0,.22,.04,.44,.11,.64,.07,.2,.19,.38,.36,.53s.38,.27,.65,.35,.59,.13,.98,.13l-.29,.78c-.59,0-1.11-.11-1.56-.33-.45-.22-.8-.54-1.05-.95s-.38-.91-.38-1.49c0-.45,.07-.82,.22-1.13,.14-.3,.33-.55,.57-.74s.49-.33,.77-.43c.28-.1,.55-.17,.81-.21,.26-.04,.5-.05,.7-.05h3.6v1.27Zm0,4.55h-6.48v-1.12h1.87v-.15h4.61v1.27Z"/><path class="cls-1" d="M31.56,200.01c0,.79-.17,1.43-.52,1.93-.35,.5-.84,.8-1.47,.91l-.2-1.28c.34-.08,.6-.27,.79-.55,.19-.29,.29-.65,.29-1.08,0-.39-.08-.7-.24-.92s-.38-.33-.66-.33c-.16,0-.3,.04-.4,.12s-.2,.24-.29,.49-.21,.63-.34,1.13c-.14,.56-.3,1-.46,1.32-.17,.33-.36,.56-.58,.7-.22,.14-.49,.21-.81,.21-.39,0-.73-.1-1.03-.31-.29-.21-.52-.5-.68-.88s-.24-.82-.24-1.33,.08-.94,.23-1.33,.38-.7,.66-.94c.29-.24,.62-.38,1-.43l.23,1.28c-.31,.04-.56,.19-.74,.44s-.28,.57-.29,.96c-.02,.38,.05,.69,.19,.92,.14,.24,.34,.35,.59,.35,.14,0,.27-.04,.37-.14,.1-.09,.2-.26,.29-.52s.2-.64,.33-1.15c.14-.54,.29-.98,.46-1.3,.17-.32,.37-.55,.61-.69,.23-.14,.52-.21,.85-.21,.64,0,1.14,.23,1.51,.7,.36,.47,.54,1.11,.54,1.93Z"/></g><g><path class="cls-1" d="M434.24,410.94v-8.64h1.13l3.13,6.5,3.11-6.5h1.15v8.63h-1.19v-5.91l-2.79,5.92h-.57l-2.8-5.92v5.92h-1.18Z"/><path class="cls-1" d="M447.26,411.12c-.65,0-1.21-.15-1.69-.44-.48-.29-.84-.7-1.1-1.21s-.39-1.11-.39-1.78,.13-1.27,.4-1.79c.26-.51,.63-.91,1.11-1.2,.48-.29,1.03-.43,1.67-.43s1.21,.15,1.69,.44c.48,.29,.84,.69,1.1,1.21,.26,.51,.39,1.1,.39,1.77s-.13,1.27-.39,1.79-.63,.92-1.11,1.21c-.48,.29-1.04,.43-1.68,.43Zm0-1.18c.62,0,1.08-.21,1.39-.63,.31-.42,.46-.96,.46-1.62s-.15-1.22-.46-1.62c-.31-.41-.77-.61-1.38-.61-.42,0-.77,.09-1.04,.28-.27,.19-.47,.45-.61,.79-.13,.33-.2,.72-.2,1.16,0,.68,.16,1.22,.47,1.63,.31,.41,.77,.61,1.37,.61Z"/><path class="cls-1" d="M451.76,410.94v-6.48h1.12v1.87h.15v4.61h-1.27Zm4.55,0v-3.19c0-.25-.02-.51-.06-.78s-.12-.51-.24-.74c-.12-.23-.28-.41-.5-.55s-.49-.21-.84-.21c-.22,0-.44,.04-.64,.11-.2,.07-.38,.19-.52,.36-.15,.16-.27,.38-.35,.65-.09,.27-.13,.59-.13,.98l-.78-.29c0-.59,.11-1.11,.33-1.56,.22-.45,.54-.8,.95-1.05s.91-.38,1.49-.38c.45,0,.82,.07,1.13,.22,.3,.14,.55,.33,.74,.57,.19,.23,.33,.49,.43,.76,.1,.28,.17,.55,.2,.81s.05,.5,.05,.7v3.6h-1.27Z"/><path class="cls-1" d="M458.42,405.46v-1.01h4.43v1.01h-4.43Zm4.43,5.47c-.41,.08-.81,.11-1.2,.1-.39-.01-.74-.09-1.05-.23-.31-.14-.54-.36-.7-.66-.14-.27-.21-.54-.22-.82,0-.28-.02-.59-.02-.94v-5.73h1.26v5.67c0,.26,0,.49,0,.68,0,.19,.05,.35,.12,.49,.14,.25,.37,.39,.69,.42,.31,.03,.68,.02,1.11-.04v1.06Z"/><path class="cls-1" d="M464.21,410.94v-8.64h1.12v4.66h.15v3.98h-1.27Zm4.55,0v-3.19c0-.25-.02-.51-.06-.78s-.12-.51-.24-.74c-.12-.23-.28-.41-.5-.55s-.49-.21-.84-.21c-.22,0-.44,.04-.64,.11-.2,.07-.38,.19-.53,.36-.15,.16-.27,.38-.35,.65-.09,.27-.13,.59-.13,.98l-.78-.29c0-.59,.11-1.11,.33-1.56,.22-.45,.54-.8,.95-1.05s.91-.38,1.49-.38c.45,0,.82,.07,1.13,.22,.3,.14,.55,.33,.74,.57,.19,.23,.33,.49,.44,.76,.1,.28,.17,.55,.2,.81s.05,.5,.05,.7v3.6h-1.27Z"/><path class="cls-1" d="M474.07,411.11c-.79,0-1.43-.17-1.93-.52-.5-.35-.8-.84-.91-1.47l1.28-.2c.08,.34,.26,.6,.55,.79,.29,.19,.65,.29,1.08,.29,.39,0,.7-.08,.92-.24s.33-.38,.33-.66c0-.16-.04-.3-.12-.4-.08-.1-.24-.2-.49-.29-.25-.09-.63-.21-1.13-.34-.56-.14-1-.3-1.32-.46-.33-.17-.56-.36-.7-.58-.14-.22-.21-.49-.21-.81,0-.39,.1-.73,.31-1.03s.5-.52,.88-.68,.82-.24,1.33-.24,.94,.08,1.33,.23,.7,.38,.94,.66c.24,.29,.38,.62,.43,1l-1.28,.23c-.04-.31-.19-.56-.44-.74-.25-.18-.57-.28-.97-.29-.38-.02-.69,.05-.92,.19-.24,.14-.35,.34-.35,.58,0,.14,.04,.27,.13,.37s.26,.2,.53,.29c.26,.09,.64,.2,1.15,.33,.54,.14,.98,.29,1.3,.46,.32,.17,.55,.37,.69,.61,.14,.23,.21,.52,.21,.85,0,.64-.23,1.14-.7,1.51s-1.11,.55-1.93,.55Z"/></g></svg>