<?xml version="1.0" encoding="UTF-8"?><svg id="Layer_1" xmlns="http://www.w3.org/2000/svg" viewBox="0 0 775 550"><defs><style>.cls-1{fill:#fff;}.cls-2{fill:#317aff;}.cls-3{fill:#accaff;}.cls-4{fill:#5a95ff;}.cls-5{fill:#83afff;}.cls-6,.cls-7{stroke-width:2px;}.cls-6,.cls-7,.cls-8,.cls-9,.cls-10,.cls-11,.cls-12,.cls-13,.cls-14{fill:none;stroke-miterlimit:10;}.cls-6,.cls-8{stroke:#ff512f;}.cls-7,.cls-9{stroke:#fff;}.cls-8,.cls-9,.cls-10,.cls-11,.cls-12,.cls-13{stroke-width:4px;}.cls-10{stroke:#317aff;}.cls-11{stroke:#adcaff;}.cls-12{stroke:#83afff;}.cls-13{stroke:#5a95ff;}.cls-14{stroke:#91919d;}</style></defs><polygon class="cls-2" points="142.81 372.56 158.43 372.56 174.04 372.56 189.66 372.56 205.27 371.3 220.89 370.03 236.5 368.77 252.12 367.03 267.73 365.76 283.35 364.5 298.97 363.23 314.58 361.96 330.2 360.7 345.81 359.43 361.43 358.17 377.04 356.9 392.66 355.63 408.27 354.37 423.89 353.1 439.5 351.84 455.12 350.57 470.74 349.31 486.35 348.04 501.97 346.77 517.58 345.51 533.2 344.24 548.81 342.98 564.43 341.71 580.04 340.44 595.66 339.18 611.28 337.91 626.89 336.65 642.51 335.38 658.12 334.11 673.74 332.85 689.35 331.58 704.97 330.32 720.58 329.05 736.2 327.78 751.81 326.52 751.81 372.56 736.2 372.56 720.58 372.56 704.97 372.56 689.35 372.56 673.74 372.56 658.12 372.56 642.51 372.56 626.89 372.56 611.28 372.56 595.66 372.56 580.04 372.56 564.43 372.56 548.81 372.56 533.2 372.56 517.58 372.56 501.97 372.56 486.35 372.56 470.74 372.56 455.12 372.56 439.5 372.56 423.89 372.56 408.27 372.56 392.66 372.56 377.04 372.56 361.43 372.56 345.81 372.56 330.2 372.56 314.58 372.56 298.97 372.56 283.35 372.56 267.73 372.56 252.12 372.56 236.5 372.56 220.89 372.56 205.27 372.56 189.66 372.56 174.04 372.56 158.43 372.56 142.81 372.56"/><polygon class="cls-4" points="142.81 365.29 158.43 365.29 174.04 365.29 189.66 365.29 205.27 364.02 220.89 362.75 236.5 361.49 252.12 359.75 267.73 358.49 283.35 357.22 298.97 355.95 314.58 354.69 330.2 338.65 345.81 337.38 361.43 336.12 377.04 334.85 392.66 333.58 408.27 332.32 423.89 331.05 439.5 329.79 455.12 328.52 470.74 327.25 486.35 325.99 501.97 324.72 517.58 323.46 533.2 322.19 548.81 320.92 564.43 319.66 580.04 318.39 595.66 317.13 611.28 315.86 626.89 314.6 642.51 313.33 658.12 312.06 673.74 310.8 689.35 309.53 704.97 308.27 720.58 307 736.2 305.73 751.81 304.47 751.81 326.52 736.2 327.78 720.58 329.05 704.97 330.32 689.35 331.58 673.74 332.85 658.12 334.11 642.51 335.38 626.89 336.65 611.28 337.91 595.66 339.18 580.04 340.44 564.43 341.71 548.81 342.98 533.2 344.24 517.58 345.51 501.97 346.77 486.35 348.04 470.74 349.31 455.12 350.57 439.5 351.84 423.89 353.1 408.27 354.37 392.66 355.63 377.04 356.9 361.43 358.17 345.81 359.43 330.2 360.7 314.58 361.96 298.97 363.23 283.35 364.5 267.73 365.76 252.12 367.03 236.5 368.77 220.89 370.03 205.27 371.3 189.66 372.56 174.04 372.56 158.43 372.56 142.81 372.56 142.81 365.29"/><polygon class="cls-5" points="142.81 351.87 158.43 350.01 174.04 348.15 189.66 346.29 205.27 343.17 220.89 340.04 236.5 336.92 252.12 333.32 267.73 330.2 283.35 327.07 298.97 323.94 314.58 320.82 330.2 302.92 345.81 299.8 361.43 296.67 377.04 293.55 392.66 292.28 408.27 291.01 423.89 289.75 439.5 288.48 455.12 287.22 470.74 285.95 486.35 284.68 501.97 283.42 517.58 282.15 533.2 280.89 548.81 279.62 564.43 278.35 580.04 277.09 595.66 275.82 611.28 274.56 626.89 273.29 642.51 272.03 658.12 270.76 673.74 269.49 689.35 268.23 704.97 266.96 720.58 265.7 736.2 264.43 751.81 263.16 751.81 304.47 736.2 305.73 720.58 307 704.97 308.27 689.35 309.53 673.74 310.8 658.12 312.06 642.51 313.33 626.89 314.6 611.28 315.86 595.66 317.13 580.04 318.39 564.43 319.66 548.81 320.92 533.2 322.19 517.58 323.46 501.97 324.72 486.35 325.99 470.74 327.25 455.12 328.52 439.5 329.79 423.89 331.05 408.27 332.32 392.66 333.58 377.04 334.85 361.43 336.12 345.81 337.38 330.2 338.65 314.58 354.69 298.97 355.95 283.35 357.22 267.73 358.49 252.12 359.75 236.5 361.49 220.89 362.75 205.27 364.02 189.66 365.29 174.04 365.29 158.43 365.29 142.81 365.29 142.81 351.87"/><polygon class="cls-3" points="142.81 335.61 158.43 332.19 174.04 328.77 189.66 325.36 205.27 320.67 220.89 315.99 236.5 311.31 252.12 306.16 267.73 301.47 283.35 296.79 298.97 292.11 314.58 287.56 330.2 268.24 345.81 265.12 361.43 261.99 377.04 258.87 392.66 257.6 408.27 256.33 423.89 255.07 439.5 253.8 455.12 252.54 470.74 251.27 486.35 250 501.97 248.74 517.58 247.47 533.2 246.21 548.81 244.94 564.43 243.67 580.04 242.41 595.66 241.14 611.28 239.88 626.89 238.61 642.51 237.34 658.12 236.08 673.74 234.81 689.35 233.55 704.97 232.28 720.58 231.02 736.2 229.75 751.81 228.48 751.81 263.16 736.2 264.43 720.58 265.7 704.97 266.96 689.35 268.23 673.74 269.49 658.12 270.76 642.51 272.03 626.89 273.29 611.28 274.56 595.66 275.82 580.04 277.09 564.43 278.35 548.81 279.62 533.2 280.89 517.58 282.15 501.97 283.42 486.35 284.68 470.74 285.95 455.12 287.22 439.5 288.48 423.89 289.75 408.27 291.01 392.66 292.28 377.04 293.55 361.43 296.67 345.81 299.8 330.2 302.92 314.58 320.82 298.97 323.94 283.35 327.07 267.73 330.2 252.12 333.32 236.5 336.92 220.89 340.04 205.27 343.17 189.66 346.29 174.04 348.15 158.43 350.01 142.81 351.87 142.81 335.61"/><polyline class="cls-14" points="759.72 372.56 134.9 372.56 134.9 372.26 134.9 62.38"/><line class="cls-14" x1="142.81" y1="379.34" x2="142.81" y2="372.56"/><line class="cls-14" x1="158.43" y1="379.34" x2="158.43" y2="372.56"/><line class="cls-14" x1="174.04" y1="379.34" x2="174.04" y2="372.56"/><line class="cls-14" x1="189.66" y1="379.34" x2="189.66" y2="372.56"/><line class="cls-14" x1="205.27" y1="379.34" x2="205.27" y2="372.56"/><line class="cls-14" x1="220.89" y1="379.34" x2="220.89" y2="372.56"/><line class="cls-14" x1="236.5" y1="379.34" x2="236.5" y2="372.56"/><line class="cls-14" x1="252.12" y1="379.34" x2="252.12" y2="372.56"/><line class="cls-14" x1="267.73" y1="379.34" x2="267.73" y2="372.56"/><line class="cls-14" x1="283.35" y1="379.34" x2="283.35" y2="372.56"/><line class="cls-14" x1="298.97" y1="379.34" x2="298.97" y2="372.56"/><line class="cls-14" x1="314.58" y1="379.34" x2="314.58" y2="372.56"/><line class="cls-14" x1="330.2" y1="379.34" x2="330.2" y2="372.56"/><line class="cls-14" x1="345.81" y1="379.34" x2="345.81" y2="372.56"/><line class="cls-14" x1="361.43" y1="379.34" x2="361.43" y2="372.56"/><line class="cls-14" x1="377.04" y1="379.34" x2="377.04" y2="372.56"/><line class="cls-14" x1="392.66" y1="379.34" x2="392.66" y2="372.56"/><line class="cls-14" x1="408.27" y1="379.34" x2="408.27" y2="372.56"/><line class="cls-14" x1="423.89" y1="379.34" x2="423.89" y2="372.56"/><line class="cls-14" x1="439.5" y1="379.34" x2="439.5" y2="372.56"/><line class="cls-14" x1="455.12" y1="379.34" x2="455.12" y2="372.56"/><line class="cls-14" x1="470.74" y1="379.34" x2="470.74" y2="372.56"/><line class="cls-14" x1="486.35" y1="379.34" x2="486.35" y2="372.56"/><line class="cls-14" x1="501.97" y1="379.34" x2="501.97" y2="372.56"/><line class="cls-14" x1="517.58" y1="379.34" x2="517.58" y2="372.56"/><line class="cls-14" x1="533.2" y1="379.34" x2="533.2" y2="372.56"/><line class="cls-14" x1="548.81" y1="379.34" x2="548.81" y2="372.56"/><line class="cls-14" x1="564.43" y1="379.34" x2="564.43" y2="372.56"/><line class="cls-14" x1="580.04" y1="379.34" x2="580.04" y2="372.56"/><line class="cls-14" x1="595.66" y1="379.34" x2="595.66" y2="372.56"/><line class="cls-14" x1="611.28" y1="379.34" x2="611.28" y2="372.56"/><line class="cls-14" x1="626.89" y1="379.34" x2="626.89" y2="372.56"/><line class="cls-14" x1="642.51" y1="379.34" x2="642.51" y2="372.56"/><line class="cls-14" x1="658.12" y1="379.34" x2="658.12" y2="372.56"/><line class="cls-14" x1="673.74" y1="379.34" x2="673.74" y2="372.56"/><line class="cls-14" x1="689.35" y1="379.34" x2="689.35" y2="372.56"/><line class="cls-14" x1="704.97" y1="379.34" x2="704.97" y2="372.56"/><line class="cls-14" x1="720.58" y1="379.34" x2="720.58" y2="372.56"/><line class="cls-14" x1="736.2" y1="379.34" x2="736.2" y2="372.56"/><line class="cls-14" x1="751.81" y1="379.34" x2="751.81" y2="372.56"/><g><path class="cls-1" d="M326.82,392.1v-7.46l-1.63,.98v-1.2l1.63-.97h1.09v8.64h-1.09Z"/><path class="cls-1" d="M329.95,392.09v-.96s3.84-3.45,3.84-3.45c.32-.29,.54-.56,.65-.82,.11-.26,.16-.52,.16-.79,0-.33-.08-.63-.23-.9s-.36-.48-.62-.64c-.26-.15-.56-.23-.89-.23s-.65,.08-.92,.24c-.27,.16-.48,.38-.63,.64-.15,.27-.23,.56-.22,.88h-1.09c0-.54,.13-1.03,.38-1.44s.59-.75,1.03-.98c.43-.24,.93-.36,1.48-.36s1.02,.12,1.44,.37,.76,.58,1,1,.37,.9,.37,1.43c0,.38-.05,.7-.14,.98-.09,.28-.24,.53-.43,.76-.2,.23-.44,.48-.74,.75l-3.19,2.86-.14-.36h4.64v1.02h-5.74Z"/></g><g><path class="cls-1" d="M56.23,301.54v-.96s3.84-3.45,3.84-3.45c.32-.29,.54-.56,.64-.82,.11-.26,.17-.52,.17-.79,0-.33-.08-.63-.23-.9-.15-.27-.36-.48-.62-.64-.26-.16-.56-.23-.89-.23s-.65,.08-.92,.24c-.27,.16-.48,.38-.63,.64-.15,.27-.23,.56-.23,.88h-1.09c0-.54,.13-1.02,.38-1.44s.59-.75,1.03-.98c.43-.24,.93-.36,1.48-.36s1.02,.12,1.44,.37c.42,.25,.76,.58,1.01,1s.37,.9,.37,1.43c0,.38-.05,.7-.14,.98-.09,.28-.24,.53-.44,.76-.2,.23-.44,.48-.74,.75l-3.19,2.86-.14-.36h4.64v1.02h-5.74Z"/><path class="cls-1" d="M65.97,301.72c-.44,0-.86-.09-1.24-.28-.38-.18-.71-.44-.98-.76-.27-.32-.46-.69-.58-1.11l1.03-.28c.07,.28,.2,.53,.38,.74s.4,.37,.64,.48c.25,.11,.5,.17,.77,.17,.35,0,.67-.08,.95-.25,.28-.17,.5-.4,.67-.68s.25-.59,.25-.93-.08-.66-.25-.95-.4-.5-.68-.67c-.28-.16-.59-.25-.93-.25-.38,0-.71,.08-.97,.24s-.48,.35-.64,.58l-.95-.36,.26-4.52h4.64v1.01h-4.12l.47-.44-.22,3.62-.23-.31c.24-.26,.53-.45,.86-.59,.33-.14,.67-.21,1.02-.21,.54,0,1.02,.12,1.44,.38s.76,.59,1.01,1.02,.37,.91,.37,1.45-.14,1.02-.41,1.46c-.27,.44-.63,.79-1.08,1.05s-.94,.39-1.48,.39Z"/><path class="cls-1" d="M73.29,301.72c-.56,0-1.06-.13-1.5-.38s-.78-.6-1.04-1.04c-.25-.44-.38-.94-.38-1.5v-3.17c0-.56,.13-1.06,.38-1.5,.25-.44,.6-.79,1.04-1.04s.94-.38,1.5-.38,1.06,.13,1.5,.38,.79,.6,1.04,1.04c.25,.44,.38,.94,.38,1.5v3.17c0,.56-.13,1.06-.38,1.5-.25,.44-.6,.78-1.04,1.04s-.94,.38-1.5,.38Zm0-1.03c.34,0,.65-.08,.92-.25,.28-.16,.5-.38,.66-.66s.25-.58,.25-.92v-3.29c0-.34-.08-.65-.25-.92-.16-.28-.38-.5-.66-.66-.28-.16-.58-.25-.92-.25s-.64,.08-.92,.25-.5,.38-.66,.66c-.16,.28-.25,.58-.25,.92v3.29c0,.34,.08,.64,.25,.92s.39,.5,.66,.66,.58,.25,.92,.25Z"/><path class="cls-1" d="M77.77,302.89l.07-.5c.17,.01,.29-.02,.38-.1s.14-.18,.16-.31c.02-.13,.03-.28,.01-.44h-.62v-1.36h1.18v1.54c0,.42-.1,.74-.31,.95-.21,.21-.49,.28-.87,.22Z"/><path class="cls-1" d="M84.14,301.72c-.56,0-1.06-.13-1.5-.38-.44-.25-.78-.6-1.04-1.04-.25-.44-.38-.94-.38-1.5v-3.17c0-.56,.13-1.06,.38-1.5,.25-.44,.6-.79,1.04-1.04,.44-.25,.94-.38,1.5-.38s1.06,.13,1.5,.38c.44,.25,.79,.6,1.04,1.04,.25,.44,.38,.94,.38,1.5v3.17c0,.56-.13,1.06-.38,1.5-.25,.44-.6,.78-1.04,1.04-.44,.25-.94,.38-1.5,.38Zm0-1.03c.34,0,.65-.08,.92-.25,.28-.16,.5-.38,.66-.66s.25-.58,.25-.92v-3.29c0-.34-.08-.65-.25-.92-.16-.28-.38-.5-.66-.66-.28-.16-.58-.25-.92-.25s-.64,.08-.92,.25c-.28,.16-.5,.38-.66,.66-.16,.28-.25,.58-.25,.92v3.29c0,.34,.08,.64,.25,.92s.38,.5,.66,.66c.28,.16,.59,.25,.92,.25Z"/><path class="cls-1" d="M91.65,301.72c-.56,0-1.06-.13-1.5-.38-.44-.25-.78-.6-1.04-1.04-.25-.44-.38-.94-.38-1.5v-3.17c0-.56,.13-1.06,.38-1.5,.25-.44,.6-.79,1.04-1.04,.44-.25,.94-.38,1.5-.38s1.06,.13,1.5,.38c.44,.25,.79,.6,1.04,1.04,.25,.44,.38,.94,.38,1.5v3.17c0,.56-.13,1.06-.38,1.5-.25,.44-.6,.78-1.04,1.04-.44,.25-.94,.38-1.5,.38Zm0-1.03c.34,0,.65-.08,.92-.25,.28-.16,.5-.38,.66-.66s.25-.58,.25-.92v-3.29c0-.34-.08-.65-.25-.92-.16-.28-.38-.5-.66-.66-.28-.16-.58-.25-.92-.25s-.64,.08-.92,.25c-.28,.16-.5,.38-.66,.66-.16,.28-.25,.58-.25,.92v3.29c0,.34,.08,.64,.25,.92s.38,.5,.66,.66c.28,.16,.59,.25,.92,.25Z"/><path class="cls-1" d="M99.16,301.72c-.56,0-1.06-.13-1.5-.38-.44-.25-.78-.6-1.04-1.04-.25-.44-.38-.94-.38-1.5v-3.17c0-.56,.13-1.06,.38-1.5,.25-.44,.6-.79,1.04-1.04,.44-.25,.94-.38,1.5-.38s1.06,.13,1.5,.38c.44,.25,.79,.6,1.04,1.04,.25,.44,.38,.94,.38,1.5v3.17c0,.56-.13,1.06-.38,1.5-.25,.44-.6,.78-1.04,1.04-.44,.25-.94,.38-1.5,.38Zm0-1.03c.34,0,.65-.08,.92-.25,.28-.16,.5-.38,.66-.66s.25-.58,.25-.92v-3.29c0-.34-.08-.65-.25-.92-.16-.28-.38-.5-.66-.66-.28-.16-.58-.25-.92-.25s-.64,.08-.92,.25c-.28,.16-.5,.38-.66,.66-.16,.28-.25,.58-.25,.92v3.29c0,.34,.08,.64,.25,.92s.38,.5,.66,.66c.28,.16,.59,.25,.92,.25Z"/><path class="cls-1" d="M103.64,302.89l.07-.5c.17,.01,.29-.02,.38-.1s.14-.18,.16-.31c.02-.13,.03-.28,.01-.44h-.62v-1.36h1.18v1.54c0,.42-.1,.74-.31,.95s-.5,.28-.87,.22Z"/><path class="cls-1" d="M110.01,301.72c-.56,0-1.06-.13-1.5-.38s-.78-.6-1.04-1.04c-.25-.44-.38-.94-.38-1.5v-3.17c0-.56,.13-1.06,.38-1.5,.25-.44,.6-.79,1.04-1.04s.94-.38,1.5-.38,1.06,.13,1.5,.38,.79,.6,1.04,1.04c.25,.44,.38,.94,.38,1.5v3.17c0,.56-.13,1.06-.38,1.5-.25,.44-.6,.78-1.04,1.04s-.94,.38-1.5,.38Zm0-1.03c.34,0,.65-.08,.92-.25,.28-.16,.5-.38,.66-.66s.25-.58,.25-.92v-3.29c0-.34-.08-.65-.25-.92-.16-.28-.38-.5-.66-.66-.28-.16-.58-.25-.92-.25s-.64,.08-.92,.25-.5,.38-.66,.66c-.16,.28-.25,.58-.25,.92v3.29c0,.34,.08,.64,.25,.92s.38,.5,.66,.66,.58,.25,.92,.25Z"/><path class="cls-1" d="M117.52,301.72c-.56,0-1.06-.13-1.5-.38s-.78-.6-1.04-1.04c-.25-.44-.38-.94-.38-1.5v-3.17c0-.56,.13-1.06,.38-1.5,.25-.44,.6-.79,1.04-1.04s.94-.38,1.5-.38,1.06,.13,1.5,.38,.79,.6,1.04,1.04c.25,.44,.38,.94,.38,1.5v3.17c0,.56-.13,1.06-.38,1.5-.25,.44-.6,.78-1.04,1.04s-.94,.38-1.5,.38Zm0-1.03c.34,0,.65-.08,.92-.25,.28-.16,.5-.38,.66-.66s.25-.58,.25-.92v-3.29c0-.34-.08-.65-.25-.92-.16-.28-.38-.5-.66-.66-.28-.16-.58-.25-.92-.25s-.64,.08-.92,.25-.5,.38-.66,.66c-.16,.28-.25,.58-.25,.92v3.29c0,.34,.08,.64,.25,.92s.38,.5,.66,.66,.58,.25,.92,.25Z"/><path class="cls-1" d="M125.03,301.72c-.56,0-1.06-.13-1.5-.38-.44-.25-.78-.6-1.04-1.04-.25-.44-.38-.94-.38-1.5v-3.17c0-.56,.13-1.06,.38-1.5,.25-.44,.6-.79,1.04-1.04,.44-.25,.94-.38,1.5-.38s1.06,.13,1.5,.38c.44,.25,.79,.6,1.04,1.04,.25,.44,.38,.94,.38,1.5v3.17c0,.56-.12,1.06-.38,1.5-.25,.44-.6,.78-1.04,1.04-.44,.25-.94,.38-1.5,.38Zm0-1.03c.34,0,.65-.08,.92-.25s.5-.38,.66-.66,.25-.58,.25-.92v-3.29c0-.34-.08-.65-.25-.92-.16-.28-.38-.5-.66-.66s-.58-.25-.92-.25-.64,.08-.92,.25c-.28,.16-.5,.38-.66,.66-.16,.28-.25,.58-.25,.92v3.29c0,.34,.08,.64,.25,.92s.39,.5,.66,.66c.28,.16,.58,.25,.92,.25Z"/></g><path class="cls-1" d="M125.03,376.13c-.56,0-1.06-.13-1.5-.38-.44-.25-.78-.6-1.04-1.04-.25-.44-.38-.94-.38-1.5v-3.17c0-.56,.13-1.06,.38-1.5,.25-.44,.6-.79,1.04-1.04,.44-.25,.94-.38,1.5-.38s1.06,.13,1.5,.38c.44,.25,.79,.6,1.04,1.04,.25,.44,.38,.94,.38,1.5v3.17c0,.56-.12,1.06-.38,1.5-.25,.44-.6,.78-1.04,1.04-.44,.25-.94,.38-1.5,.38Zm0-1.03c.34,0,.65-.08,.92-.25s.5-.38,.66-.66,.25-.58,.25-.92v-3.29c0-.34-.08-.65-.25-.92-.16-.28-.38-.5-.66-.66s-.58-.25-.92-.25-.64,.08-.92,.25c-.28,.16-.5,.38-.66,.66-.16,.28-.25,.58-.25,.92v3.29c0,.34,.08,.64,.25,.92s.39,.5,.66,.66c.28,.16,.58,.25,.92,.25Z"/><g><path class="cls-1" d="M58.45,230.14c-.44,0-.86-.09-1.24-.28-.38-.18-.71-.44-.98-.76-.27-.32-.46-.69-.58-1.11l1.03-.28c.07,.28,.2,.53,.38,.74s.4,.37,.64,.48c.25,.11,.5,.17,.77,.17,.35,0,.67-.08,.95-.25,.28-.17,.5-.4,.67-.68s.25-.59,.25-.93-.08-.66-.25-.95-.4-.5-.68-.67c-.28-.16-.59-.25-.93-.25-.38,0-.71,.08-.97,.24s-.48,.35-.64,.58l-.95-.36,.26-4.52h4.64v1.01h-4.12l.47-.44-.22,3.62-.23-.31c.24-.26,.53-.45,.86-.59,.33-.14,.67-.21,1.02-.21,.54,0,1.02,.12,1.44,.38s.76,.59,1.01,1.02,.37,.91,.37,1.45-.14,1.02-.41,1.46c-.27,.44-.63,.79-1.08,1.05s-.94,.39-1.48,.39Z"/><path class="cls-1" d="M65.78,230.14c-.56,0-1.06-.13-1.5-.38s-.78-.6-1.04-1.04c-.25-.44-.38-.94-.38-1.5v-3.17c0-.56,.13-1.06,.38-1.5,.25-.44,.6-.79,1.04-1.04s.94-.38,1.5-.38,1.06,.13,1.5,.38,.79,.6,1.04,1.04c.25,.44,.38,.94,.38,1.5v3.17c0,.56-.13,1.06-.38,1.5-.25,.44-.6,.78-1.04,1.04s-.94,.38-1.5,.38Zm0-1.03c.34,0,.65-.08,.92-.25,.28-.16,.5-.38,.66-.66s.25-.58,.25-.92v-3.29c0-.34-.08-.65-.25-.92-.16-.28-.38-.5-.66-.66-.28-.16-.58-.25-.92-.25s-.64,.08-.92,.25-.5,.38-.66,.66c-.16,.28-.25,.58-.25,.92v3.29c0,.34,.08,.64,.25,.92s.39,.5,.66,.66,.58,.25,.92,.25Z"/><path class="cls-1" d="M73.29,230.14c-.56,0-1.06-.13-1.5-.38-.44-.25-.78-.6-1.04-1.04-.25-.44-.38-.94-.38-1.5v-3.17c0-.56,.13-1.06,.38-1.5,.25-.44,.6-.79,1.04-1.04,.44-.25,.94-.38,1.5-.38s1.06,.13,1.5,.38c.44,.25,.79,.6,1.04,1.04,.25,.44,.38,.94,.38,1.5v3.17c0,.56-.13,1.06-.38,1.5-.25,.44-.6,.78-1.04,1.04-.44,.25-.94,.38-1.5,.38Zm0-1.03c.34,0,.65-.08,.92-.25,.28-.16,.5-.38,.66-.66s.25-.58,.25-.92v-3.29c0-.34-.08-.65-.25-.92-.16-.28-.38-.5-.66-.66-.28-.16-.58-.25-.92-.25s-.64,.08-.92,.25c-.28,.16-.5,.38-.66,.66-.16,.28-.25,.58-.25,.92v3.29c0,.34,.08,.64,.25,.92s.38,.5,.66,.66c.28,.16,.59,.25,.92,.25Z"/><path class="cls-1" d="M77.77,231.3l.07-.5c.17,.01,.29-.02,.38-.1s.14-.18,.16-.31c.02-.13,.03-.28,.01-.44h-.62v-1.36h1.18v1.54c0,.42-.1,.74-.31,.95-.21,.21-.49,.28-.87,.22Z"/><path class="cls-1" d="M84.14,230.14c-.56,0-1.06-.13-1.5-.38-.44-.25-.78-.6-1.04-1.04-.25-.44-.38-.94-.38-1.5v-3.17c0-.56,.13-1.06,.38-1.5,.25-.44,.6-.79,1.04-1.04,.44-.25,.94-.38,1.5-.38s1.06,.13,1.5,.38c.44,.25,.79,.6,1.04,1.04,.25,.44,.38,.94,.38,1.5v3.17c0,.56-.13,1.06-.38,1.5-.25,.44-.6,.78-1.04,1.04-.44,.25-.94,.38-1.5,.38Zm0-1.03c.34,0,.65-.08,.92-.25,.28-.16,.5-.38,.66-.66s.25-.58,.25-.92v-3.29c0-.34-.08-.65-.25-.92-.16-.28-.38-.5-.66-.66-.28-.16-.58-.25-.92-.25s-.64,.08-.92,.25c-.28,.16-.5,.38-.66,.66-.16,.28-.25,.58-.25,.92v3.29c0,.34,.08,.64,.25,.92s.38,.5,.66,.66c.28,.16,.59,.25,.92,.25Z"/><path class="cls-1" d="M91.65,230.14c-.56,0-1.06-.13-1.5-.38-.44-.25-.78-.6-1.04-1.04-.25-.44-.38-.94-.38-1.5v-3.17c0-.56,.13-1.06,.38-1.5,.25-.44,.6-.79,1.04-1.04,.44-.25,.94-.38,1.5-.38s1.06,.13,1.5,.38c.44,.25,.79,.6,1.04,1.04,.25,.44,.38,.94,.38,1.5v3.17c0,.56-.13,1.06-.38,1.5-.25,.44-.6,.78-1.04,1.04-.44,.25-.94,.38-1.5,.38Zm0-1.03c.34,0,.65-.08,.92-.25,.28-.16,.5-.38,.66-.66s.25-.58,.25-.92v-3.29c0-.34-.08-.65-.25-.92-.16-.28-.38-.5-.66-.66-.28-.16-.58-.25-.92-.25s-.64,.08-.92,.25c-.28,.16-.5,.38-.66,.66-.16,.28-.25,.58-.25,.92v3.29c0,.34,.08,.64,.25,.92s.38,.5,.66,.66c.28,.16,.59,.25,.92,.25Z"/><path class="cls-1" d="M99.16,230.14c-.56,0-1.06-.13-1.5-.38s-.78-.6-1.04-1.04c-.25-.44-.38-.94-.38-1.5v-3.17c0-.56,.13-1.06,.38-1.5,.25-.44,.6-.79,1.04-1.04s.94-.38,1.5-.38,1.06,.13,1.5,.38,.79,.6,1.04,1.04c.25,.44,.38,.94,.38,1.5v3.17c0,.56-.13,1.06-.38,1.5-.25,.44-.6,.78-1.04,1.04s-.94,.38-1.5,.38Zm0-1.03c.34,0,.65-.08,.92-.25,.28-.16,.5-.38,.66-.66s.25-.58,.25-.92v-3.29c0-.34-.08-.65-.25-.92-.16-.28-.38-.5-.66-.66-.28-.16-.58-.25-.92-.25s-.64,.08-.92,.25-.5,.38-.66,.66c-.16,.28-.25,.58-.25,.92v3.29c0,.34,.08,.64,.25,.92s.38,.5,.66,.66,.58,.25,.92,.25Z"/><path class="cls-1" d="M103.64,231.3l.07-.5c.17,.01,.29-.02,.38-.1s.14-.18,.16-.31c.02-.13,.03-.28,.01-.44h-.62v-1.36h1.18v1.54c0,.42-.1,.74-.31,.95s-.5,.28-.87,.22Z"/><path class="cls-1" d="M110.01,230.14c-.56,0-1.06-.13-1.5-.38s-.78-.6-1.04-1.04c-.25-.44-.38-.94-.38-1.5v-3.17c0-.56,.13-1.06,.38-1.5,.25-.44,.6-.79,1.04-1.04s.94-.38,1.5-.38,1.06,.13,1.5,.38,.79,.6,1.04,1.04c.25,.44,.38,.94,.38,1.5v3.17c0,.56-.13,1.06-.38,1.5-.25,.44-.6,.78-1.04,1.04s-.94,.38-1.5,.38Zm0-1.03c.34,0,.65-.08,.92-.25,.28-.16,.5-.38,.66-.66s.25-.58,.25-.92v-3.29c0-.34-.08-.65-.25-.92-.16-.28-.38-.5-.66-.66-.28-.16-.58-.25-.92-.25s-.64,.08-.92,.25-.5,.38-.66,.66c-.16,.28-.25,.58-.25,.92v3.29c0,.34,.08,.64,.25,.92s.38,.5,.66,.66,.58,.25,.92,.25Z"/><path class="cls-1" d="M117.52,230.14c-.56,0-1.06-.13-1.5-.38-.44-.25-.78-.6-1.04-1.04-.25-.44-.38-.94-.38-1.5v-3.17c0-.56,.13-1.06,.38-1.5,.25-.44,.6-.79,1.04-1.04,.44-.25,.94-.38,1.5-.38s1.06,.13,1.5,.38c.44,.25,.79,.6,1.04,1.04,.25,.44,.38,.94,.38,1.5v3.17c0,.56-.12,1.06-.38,1.5-.25,.44-.6,.78-1.04,1.04-.44,.25-.94,.38-1.5,.38Zm0-1.03c.34,0,.65-.08,.92-.25s.5-.38,.66-.66,.25-.58,.25-.92v-3.29c0-.34-.08-.65-.25-.92-.16-.28-.38-.5-.66-.66s-.58-.25-.92-.25-.64,.08-.92,.25c-.28,.16-.5,.38-.66,.66-.16,.28-.25,.58-.25,.92v3.29c0,.34,.08,.64,.25,.92s.39,.5,.66,.66c.28,.16,.58,.25,.92,.25Z"/><path class="cls-1" d="M125.03,230.14c-.56,0-1.06-.13-1.5-.38-.44-.25-.78-.6-1.04-1.04-.25-.44-.38-.94-.38-1.5v-3.17c0-.56,.13-1.06,.38-1.5,.25-.44,.6-.79,1.04-1.04,.44-.25,.94-.38,1.5-.38s1.06,.13,1.5,.38c.44,.25,.79,.6,1.04,1.04,.25,.44,.38,.94,.38,1.5v3.17c0,.56-.12,1.06-.38,1.5-.25,.44-.6,.78-1.04,1.04-.44,.25-.94,.38-1.5,.38Zm0-1.03c.34,0,.65-.08,.92-.25s.5-.38,.66-.66,.25-.58,.25-.92v-3.29c0-.34-.08-.65-.25-.92-.16-.28-.38-.5-.66-.66s-.58-.25-.92-.25-.64,.08-.92,.25c-.28,.16-.5,.38-.66,.66-.16,.28-.25,.58-.25,.92v3.29c0,.34,.08,.64,.25,.92s.39,.5,.66,.66c.28,.16,.58,.25,.92,.25Z"/></g><g><path class="cls-1" d="M57.72,154.17l3.11-7.61h-3.92v-1.03h5.07v1.03l-3.1,7.61h-1.15Z"/><path class="cls-1" d="M65.97,154.35c-.44,0-.86-.09-1.24-.28-.38-.18-.71-.44-.98-.76-.27-.32-.46-.69-.58-1.11l1.03-.28c.07,.28,.2,.53,.38,.74s.4,.37,.64,.48c.25,.11,.5,.17,.77,.17,.35,0,.67-.08,.95-.25,.28-.17,.5-.4,.67-.68s.25-.59,.25-.93-.08-.66-.25-.95-.4-.5-.68-.67c-.28-.16-.59-.25-.93-.25-.38,0-.71,.08-.97,.24s-.48,.35-.64,.58l-.95-.36,.26-4.52h4.64v1.01h-4.12l.47-.44-.22,3.62-.23-.31c.24-.26,.53-.45,.86-.59,.33-.14,.67-.21,1.02-.21,.54,0,1.02,.12,1.44,.38s.76,.59,1.01,1.02,.37,.91,.37,1.45-.14,1.02-.41,1.46c-.27,.44-.63,.79-1.08,1.05s-.94,.39-1.48,.39Z"/><path class="cls-1" d="M73.29,154.35c-.56,0-1.06-.13-1.5-.38s-.78-.6-1.04-1.04c-.25-.44-.38-.94-.38-1.5v-3.17c0-.56,.13-1.06,.38-1.5,.25-.44,.6-.79,1.04-1.04s.94-.38,1.5-.38,1.06,.13,1.5,.38,.79,.6,1.04,1.04c.25,.44,.38,.94,.38,1.5v3.17c0,.56-.13,1.06-.38,1.5-.25,.44-.6,.78-1.04,1.04s-.94,.38-1.5,.38Zm0-1.03c.34,0,.65-.08,.92-.25,.28-.16,.5-.38,.66-.66s.25-.58,.25-.92v-3.29c0-.34-.08-.65-.25-.92-.16-.28-.38-.5-.66-.66-.28-.16-.58-.25-.92-.25s-.64,.08-.92,.25-.5,.38-.66,.66c-.16,.28-.25,.58-.25,.92v3.29c0,.34,.08,.64,.25,.92s.39,.5,.66,.66,.58,.25,.92,.25Z"/><path class="cls-1" d="M77.77,155.52l.07-.5c.17,.01,.29-.02,.38-.1s.14-.18,.16-.31c.02-.13,.03-.28,.01-.44h-.62v-1.36h1.18v1.54c0,.42-.1,.74-.31,.95-.21,.21-.49,.28-.87,.22Z"/><path class="cls-1" d="M84.14,154.35c-.56,0-1.06-.13-1.5-.38-.44-.25-.78-.6-1.04-1.04-.25-.44-.38-.94-.38-1.5v-3.17c0-.56,.13-1.06,.38-1.5,.25-.44,.6-.79,1.04-1.04,.44-.25,.94-.38,1.5-.38s1.06,.13,1.5,.38c.44,.25,.79,.6,1.04,1.04,.25,.44,.38,.94,.38,1.5v3.17c0,.56-.13,1.06-.38,1.5-.25,.44-.6,.78-1.04,1.04-.44,.25-.94,.38-1.5,.38Zm0-1.03c.34,0,.65-.08,.92-.25,.28-.16,.5-.38,.66-.66s.25-.58,.25-.92v-3.29c0-.34-.08-.65-.25-.92-.16-.28-.38-.5-.66-.66-.28-.16-.58-.25-.92-.25s-.64,.08-.92,.25c-.28,.16-.5,.38-.66,.66-.16,.28-.25,.58-.25,.92v3.29c0,.34,.08,.64,.25,.92s.38,.5,.66,.66c.28,.16,.59,.25,.92,.25Z"/><path class="cls-1" d="M91.65,154.35c-.56,0-1.06-.13-1.5-.38-.44-.25-.78-.6-1.04-1.04-.25-.44-.38-.94-.38-1.5v-3.17c0-.56,.13-1.06,.38-1.5,.25-.44,.6-.79,1.04-1.04,.44-.25,.94-.38,1.5-.38s1.06,.13,1.5,.38c.44,.25,.79,.6,1.04,1.04,.25,.44,.38,.94,.38,1.5v3.17c0,.56-.13,1.06-.38,1.5-.25,.44-.6,.78-1.04,1.04-.44,.25-.94,.38-1.5,.38Zm0-1.03c.34,0,.65-.08,.92-.25,.28-.16,.5-.38,.66-.66s.25-.58,.25-.92v-3.29c0-.34-.08-.65-.25-.92-.16-.28-.38-.5-.66-.66-.28-.16-.58-.25-.92-.25s-.64,.08-.92,.25c-.28,.16-.5,.38-.66,.66-.16,.28-.25,.58-.25,.92v3.29c0,.34,.08,.64,.25,.92s.38,.5,.66,.66c.28,.16,.59,.25,.92,.25Z"/><path class="cls-1" d="M99.16,154.35c-.56,0-1.06-.13-1.5-.38-.44-.25-.78-.6-1.04-1.04-.25-.44-.38-.94-.38-1.5v-3.17c0-.56,.13-1.06,.38-1.5,.25-.44,.6-.79,1.04-1.04,.44-.25,.94-.38,1.5-.38s1.06,.13,1.5,.38c.44,.25,.79,.6,1.04,1.04,.25,.44,.38,.94,.38,1.5v3.17c0,.56-.13,1.06-.38,1.5-.25,.44-.6,.78-1.04,1.04-.44,.25-.94,.38-1.5,.38Zm0-1.03c.34,0,.65-.08,.92-.25,.28-.16,.5-.38,.66-.66s.25-.58,.25-.92v-3.29c0-.34-.08-.65-.25-.92-.16-.28-.38-.5-.66-.66-.28-.16-.58-.25-.92-.25s-.64,.08-.92,.25c-.28,.16-.5,.38-.66,.66-.16,.28-.25,.58-.25,.92v3.29c0,.34,.08,.64,.25,.92s.38,.5,.66,.66c.28,.16,.59,.25,.92,.25Z"/><path class="cls-1" d="M103.64,155.52l.07-.5c.17,.01,.29-.02,.38-.1s.14-.18,.16-.31c.02-.13,.03-.28,.01-.44h-.62v-1.36h1.18v1.54c0,.42-.1,.74-.31,.95s-.5,.28-.87,.22Z"/><path class="cls-1" d="M110.01,154.35c-.56,0-1.06-.13-1.5-.38s-.78-.6-1.04-1.04c-.25-.44-.38-.94-.38-1.5v-3.17c0-.56,.13-1.06,.38-1.5,.25-.44,.6-.79,1.04-1.04s.94-.38,1.5-.38,1.06,.13,1.5,.38,.79,.6,1.04,1.04c.25,.44,.38,.94,.38,1.5v3.17c0,.56-.13,1.06-.38,1.5-.25,.44-.6,.78-1.04,1.04s-.94,.38-1.5,.38Zm0-1.03c.34,0,.65-.08,.92-.25,.28-.16,.5-.38,.66-.66s.25-.58,.25-.92v-3.29c0-.34-.08-.65-.25-.92-.16-.28-.38-.5-.66-.66-.28-.16-.58-.25-.92-.25s-.64,.08-.92,.25-.5,.38-.66,.66c-.16,.28-.25,.58-.25,.92v3.29c0,.34,.08,.64,.25,.92s.38,.5,.66,.66,.58,.25,.92,.25Z"/><path class="cls-1" d="M117.52,154.35c-.56,0-1.06-.13-1.5-.38s-.78-.6-1.04-1.04c-.25-.44-.38-.94-.38-1.5v-3.17c0-.56,.13-1.06,.38-1.5,.25-.44,.6-.79,1.04-1.04s.94-.38,1.5-.38,1.06,.13,1.5,.38,.79,.6,1.04,1.04c.25,.44,.38,.94,.38,1.5v3.17c0,.56-.13,1.06-.38,1.5-.25,.44-.6,.78-1.04,1.04s-.94,.38-1.5,.38Zm0-1.03c.34,0,.65-.08,.92-.25,.28-.16,.5-.38,.66-.66s.25-.58,.25-.92v-3.29c0-.34-.08-.65-.25-.92-.16-.28-.38-.5-.66-.66-.28-.16-.58-.25-.92-.25s-.64,.08-.92,.25-.5,.38-.66,.66c-.16,.28-.25,.58-.25,.92v3.29c0,.34,.08,.64,.25,.92s.38,.5,.66,.66,.58,.25,.92,.25Z"/><path class="cls-1" d="M125.03,154.35c-.56,0-1.06-.13-1.5-.38-.44-.25-.78-.6-1.04-1.04-.25-.44-.38-.94-.38-1.5v-3.17c0-.56,.13-1.06,.38-1.5,.25-.44,.6-.79,1.04-1.04,.44-.25,.94-.38,1.5-.38s1.06,.13,1.5,.38c.44,.25,.79,.6,1.04,1.04,.25,.44,.38,.94,.38,1.5v3.17c0,.56-.12,1.06-.38,1.5-.25,.44-.6,.78-1.04,1.04-.44,.25-.94,.38-1.5,.38Zm0-1.03c.34,0,.65-.08,.92-.25s.5-.38,.66-.66,.25-.58,.25-.92v-3.29c0-.34-.08-.65-.25-.92-.16-.28-.38-.5-.66-.66s-.58-.25-.92-.25-.64,.08-.92,.25c-.28,.16-.5,.38-.66,.66-.16,.28-.25,.58-.25,.92v3.29c0,.34,.08,.64,.25,.92s.39,.5,.66,.66c.28,.16,.58,.25,.92,.25Z"/></g><g><path class="cls-1" d="M49.13,81.47v-7.46l-1.63,.98v-1.19l1.63-.97h1.09v8.64h-1.09Z"/><path class="cls-1" d="M51.9,82.81l.07-.5c.17,.01,.29-.02,.38-.1s.14-.18,.16-.31c.02-.13,.03-.28,.01-.44h-.62v-1.36h1.18v1.54c0,.42-.1,.74-.31,.95s-.5,.28-.87,.22Z"/><path class="cls-1" d="M58.27,81.65c-.56,0-1.06-.13-1.5-.38s-.78-.6-1.04-1.04c-.25-.44-.38-.94-.38-1.5v-3.17c0-.56,.13-1.06,.38-1.5,.25-.44,.6-.79,1.04-1.04s.94-.38,1.5-.38,1.06,.13,1.5,.38,.79,.6,1.04,1.04c.25,.44,.38,.94,.38,1.5v3.17c0,.56-.13,1.06-.38,1.5-.25,.44-.6,.78-1.04,1.04s-.94,.38-1.5,.38Zm0-1.03c.34,0,.65-.08,.92-.25,.28-.16,.5-.38,.66-.66s.25-.58,.25-.92v-3.29c0-.34-.08-.65-.25-.92-.16-.28-.38-.5-.66-.66-.28-.16-.58-.25-.92-.25s-.64,.08-.92,.25-.5,.38-.66,.66c-.16,.28-.25,.58-.25,.92v3.29c0,.34,.08,.64,.25,.92s.39,.5,.66,.66,.58,.25,.92,.25Z"/><path class="cls-1" d="M65.78,81.65c-.56,0-1.06-.13-1.5-.38s-.78-.6-1.04-1.04c-.25-.44-.38-.94-.38-1.5v-3.17c0-.56,.13-1.06,.38-1.5,.25-.44,.6-.79,1.04-1.04s.94-.38,1.5-.38,1.06,.13,1.5,.38,.79,.6,1.04,1.04c.25,.44,.38,.94,.38,1.5v3.17c0,.56-.13,1.06-.38,1.5-.25,.44-.6,.78-1.04,1.04s-.94,.38-1.5,.38Zm0-1.03c.34,0,.65-.08,.92-.25,.28-.16,.5-.38,.66-.66s.25-.58,.25-.92v-3.29c0-.34-.08-.65-.25-.92-.16-.28-.38-.5-.66-.66-.28-.16-.58-.25-.92-.25s-.64,.08-.92,.25-.5,.38-.66,.66c-.16,.28-.25,.58-.25,.92v3.29c0,.34,.08,.64,.25,.92s.39,.5,.66,.66,.58,.25,.92,.25Z"/><path class="cls-1" d="M73.29,81.65c-.56,0-1.06-.13-1.5-.38-.44-.25-.78-.6-1.04-1.04-.25-.44-.38-.94-.38-1.5v-3.17c0-.56,.13-1.06,.38-1.5,.25-.44,.6-.79,1.04-1.04,.44-.25,.94-.38,1.5-.38s1.06,.13,1.5,.38c.44,.25,.79,.6,1.04,1.04,.25,.44,.38,.94,.38,1.5v3.17c0,.56-.13,1.06-.38,1.5-.25,.44-.6,.78-1.04,1.04-.44,.25-.94,.38-1.5,.38Zm0-1.03c.34,0,.65-.08,.92-.25,.28-.16,.5-.38,.66-.66s.25-.58,.25-.92v-3.29c0-.34-.08-.65-.25-.92-.16-.28-.38-.5-.66-.66-.28-.16-.58-.25-.92-.25s-.64,.08-.92,.25c-.28,.16-.5,.38-.66,.66-.16,.28-.25,.58-.25,.92v3.29c0,.34,.08,.64,.25,.92s.38,.5,.66,.66c.28,.16,.59,.25,.92,.25Z"/><path class="cls-1" d="M77.77,82.81l.07-.5c.17,.01,.29-.02,.38-.1s.14-.18,.16-.31c.02-.13,.03-.28,.01-.44h-.62v-1.36h1.18v1.54c0,.42-.1,.74-.31,.95-.21,.21-.49,.28-.87,.22Z"/><path class="cls-1" d="M84.14,81.65c-.56,0-1.06-.13-1.5-.38-.44-.25-.78-.6-1.04-1.04-.25-.44-.38-.94-.38-1.5v-3.17c0-.56,.13-1.06,.38-1.5,.25-.44,.6-.79,1.04-1.04,.44-.25,.94-.38,1.5-.38s1.06,.13,1.5,.38c.44,.25,.79,.6,1.04,1.04,.25,.44,.38,.94,.38,1.5v3.17c0,.56-.13,1.06-.38,1.5-.25,.44-.6,.78-1.04,1.04-.44,.25-.94,.38-1.5,.38Zm0-1.03c.34,0,.65-.08,.92-.25,.28-.16,.5-.38,.66-.66s.25-.58,.25-.92v-3.29c0-.34-.08-.65-.25-.92-.16-.28-.38-.5-.66-.66-.28-.16-.58-.25-.92-.25s-.64,.08-.92,.25c-.28,.16-.5,.38-.66,.66-.16,.28-.25,.58-.25,.92v3.29c0,.34,.08,.64,.25,.92s.38,.5,.66,.66c.28,.16,.59,.25,.92,.25Z"/><path class="cls-1" d="M91.65,81.65c-.56,0-1.06-.13-1.5-.38-.44-.25-.78-.6-1.04-1.04-.25-.44-.38-.94-.38-1.5v-3.17c0-.56,.13-1.06,.38-1.5,.25-.44,.6-.79,1.04-1.04,.44-.25,.94-.38,1.5-.38s1.06,.13,1.5,.38c.44,.25,.79,.6,1.04,1.04,.25,.44,.38,.94,.38,1.5v3.17c0,.56-.13,1.06-.38,1.5-.25,.44-.6,.78-1.04,1.04-.44,.25-.94,.38-1.5,.38Zm0-1.03c.34,0,.65-.08,.92-.25,.28-.16,.5-.38,.66-.66s.25-.58,.25-.92v-3.29c0-.34-.08-.65-.25-.92-.16-.28-.38-.5-.66-.66-.28-.16-.58-.25-.92-.25s-.64,.08-.92,.25c-.28,.16-.5,.38-.66,.66-.16,.28-.25,.58-.25,.92v3.29c0,.34,.08,.64,.25,.92s.38,.5,.66,.66c.28,.16,.59,.25,.92,.25Z"/><path class="cls-1" d="M99.16,81.65c-.56,0-1.06-.13-1.5-.38s-.78-.6-1.04-1.04c-.25-.44-.38-.94-.38-1.5v-3.17c0-.56,.13-1.06,.38-1.5,.25-.44,.6-.79,1.04-1.04s.94-.38,1.5-.38,1.06,.13,1.5,.38,.79,.6,1.04,1.04c.25,.44,.38,.94,.38,1.5v3.17c0,.56-.13,1.06-.38,1.5-.25,.44-.6,.78-1.04,1.04s-.94,.38-1.5,.38Zm0-1.03c.34,0,.65-.08,.92-.25,.28-.16,.5-.38,.66-.66s.25-.58,.25-.92v-3.29c0-.34-.08-.65-.25-.92-.16-.28-.38-.5-.66-.66-.28-.16-.58-.25-.92-.25s-.64,.08-.92,.25-.5,.38-.66,.66c-.16,.28-.25,.58-.25,.92v3.29c0,.34,.08,.64,.25,.92s.38,.5,.66,.66,.58,.25,.92,.25Z"/><path class="cls-1" d="M103.64,82.81l.07-.5c.17,.01,.29-.02,.38-.1s.14-.18,.16-.31c.02-.13,.03-.28,.01-.44h-.62v-1.36h1.18v1.54c0,.42-.1,.74-.31,.95s-.5,.28-.87,.22Z"/><path class="cls-1" d="M110.01,81.65c-.56,0-1.06-.13-1.5-.38s-.78-.6-1.04-1.04c-.25-.44-.38-.94-.38-1.5v-3.17c0-.56,.13-1.06,.38-1.5,.25-.44,.6-.79,1.04-1.04s.94-.38,1.5-.38,1.06,.13,1.5,.38,.79,.6,1.04,1.04c.25,.44,.38,.94,.38,1.5v3.17c0,.56-.13,1.06-.38,1.5-.25,.44-.6,.78-1.04,1.04s-.94,.38-1.5,.38Zm0-1.03c.34,0,.65-.08,.92-.25,.28-.16,.5-.38,.66-.66s.25-.58,.25-.92v-3.29c0-.34-.08-.65-.25-.92-.16-.28-.38-.5-.66-.66-.28-.16-.58-.25-.92-.25s-.64,.08-.92,.25-.5,.38-.66,.66c-.16,.28-.25,.58-.25,.92v3.29c0,.34,.08,.64,.25,.92s.38,.5,.66,.66,.58,.25,.92,.25Z"/><path class="cls-1" d="M117.52,81.65c-.56,0-1.06-.13-1.5-.38-.44-.25-.78-.6-1.04-1.04-.25-.44-.38-.94-.38-1.5v-3.17c0-.56,.13-1.06,.38-1.5,.25-.44,.6-.79,1.04-1.04,.44-.25,.94-.38,1.5-.38s1.06,.13,1.5,.38c.44,.25,.79,.6,1.04,1.04,.25,.44,.38,.94,.38,1.5v3.17c0,.56-.12,1.06-.38,1.5-.25,.44-.6,.78-1.04,1.04-.44,.25-.94,.38-1.5,.38Zm0-1.03c.34,0,.65-.08,.92-.25s.5-.38,.66-.66,.25-.58,.25-.92v-3.29c0-.34-.08-.65-.25-.92-.16-.28-.38-.5-.66-.66s-.58-.25-.92-.25-.64,.08-.92,.25c-.28,.16-.5,.38-.66,.66-.16,.28-.25,.58-.25,.92v3.29c0,.34,.08,.64,.25,.92s.39,.5,.66,.66c.28,.16,.58,.25,.92,.25Z"/><path class="cls-1" d="M125.03,81.65c-.56,0-1.06-.13-1.5-.38-.44-.25-.78-.6-1.04-1.04-.25-.44-.38-.94-.38-1.5v-3.17c0-.56,.13-1.06,.38-1.5,.25-.44,.6-.79,1.04-1.04,.44-.25,.94-.38,1.5-.38s1.06,.13,1.5,.38c.44,.25,.79,.6,1.04,1.04,.25,.44,.38,.94,.38,1.5v3.17c0,.56-.12,1.06-.38,1.5-.25,.44-.6,.78-1.04,1.04-.44,.25-.94,.38-1.5,.38Zm0-1.03c.34,0,.65-.08,.92-.25s.5-.38,.66-.66,.25-.58,.25-.92v-3.29c0-.34-.08-.65-.25-.92-.16-.28-.38-.5-.66-.66s-.58-.25-.92-.25-.64,.08-.92,.25c-.28,.16-.5,.38-.66,.66-.16,.28-.25,.58-.25,.92v3.29c0,.34,.08,.64,.25,.92s.39,.5,.66,.66c.28,.16,.58,.25,.92,.25Z"/></g><g><path class="cls-1" d="M511.06,392.04v-.96s3.84-3.45,3.84-3.45c.32-.29,.54-.56,.65-.82,.11-.26,.16-.52,.16-.79,0-.33-.08-.63-.23-.9-.15-.27-.36-.48-.62-.64-.26-.16-.56-.23-.89-.23s-.65,.08-.92,.24c-.27,.16-.48,.38-.63,.64-.15,.27-.23,.56-.22,.88h-1.09c0-.54,.13-1.02,.38-1.44s.59-.75,1.03-.98c.43-.24,.93-.36,1.48-.36s1.02,.12,1.44,.37,.76,.58,1,1,.37,.9,.37,1.43c0,.38-.05,.7-.14,.98s-.24,.53-.43,.76c-.2,.23-.44,.48-.74,.75l-3.19,2.86-.14-.36h4.64v1.02h-5.74Z"/><path class="cls-1" d="M521.73,392.04v-1.59h-3.97v-1.01l2.85-6.04h1.21l-2.85,6.04h2.76v-2.43h1.08v2.43h.9v1.01h-.9v1.59h-1.08Z"/></g><g><path class="cls-1" d="M701.28,392.21c-.43,0-.83-.08-1.19-.24-.37-.16-.69-.38-.95-.67-.27-.29-.46-.63-.58-1.04l1.03-.29c.13,.4,.35,.71,.66,.91,.31,.21,.65,.31,1.04,.31,.35,0,.66-.09,.92-.24,.26-.15,.46-.37,.6-.63,.14-.27,.21-.58,.21-.93,0-.54-.16-.97-.48-1.3s-.74-.5-1.26-.5c-.14,0-.29,.02-.45,.06-.16,.04-.3,.1-.44,.17l-.52-.85,3.2-2.9,.14,.36h-4.3v-1.02h5.09v1.03l-2.73,2.62v-.38c.56-.04,1.06,.05,1.49,.28s.76,.55,1,.98c.24,.42,.36,.91,.36,1.46s-.12,1.04-.37,1.46c-.25,.42-.58,.76-1.01,1-.42,.24-.9,.36-1.44,.36Z"/><path class="cls-1" d="M708.61,392.22c-.55,0-1.04-.13-1.49-.39-.45-.27-.8-.62-1.06-1.08-.26-.46-.39-.97-.39-1.55v-2.87c0-.61,.13-1.14,.39-1.61,.26-.47,.62-.83,1.08-1.09s.98-.39,1.57-.39c.48,0,.92,.1,1.33,.29,.41,.2,.75,.47,1.04,.84l-.8,.71c-.17-.25-.4-.45-.67-.6-.28-.15-.57-.22-.89-.22-.38,0-.72,.09-1.01,.27-.29,.18-.53,.42-.69,.72-.17,.3-.25,.62-.25,.96v1.73l-.23-.26c.25-.36,.57-.65,.96-.87,.39-.21,.81-.32,1.26-.32,.54,0,1.02,.12,1.44,.38s.76,.59,1.01,1.02c.25,.43,.37,.91,.37,1.45s-.13,1.02-.4,1.46c-.27,.44-.62,.79-1.07,1.04-.45,.26-.94,.39-1.47,.39Zm0-1.03c.34,0,.66-.08,.94-.25s.51-.39,.67-.67c.17-.28,.25-.59,.25-.94s-.08-.66-.25-.94c-.17-.28-.39-.51-.67-.67-.28-.17-.6-.25-.94-.25s-.66,.08-.94,.25-.51,.39-.67,.67c-.17,.29-.25,.6-.25,.94s.08,.65,.25,.93c.17,.28,.39,.51,.67,.68s.59,.25,.94,.25Z"/></g><g><path class="cls-1" d="M135.88,44.49v-10.08h4.07c.1,0,.22,0,.36,0,.14,0,.28,.02,.41,.04,.56,.09,1.03,.28,1.4,.57,.38,.29,.66,.67,.84,1.11,.19,.45,.28,.94,.28,1.48s-.09,1.04-.28,1.49c-.19,.45-.47,.82-.84,1.11-.38,.29-.84,.49-1.4,.57-.13,.02-.27,.03-.42,.04-.15,0-.27,.01-.36,.01h-2.61v3.62h-1.46Zm1.46-5.01h2.55c.09,0,.2,0,.31-.01s.22-.03,.33-.05c.3-.07,.54-.2,.72-.39,.18-.19,.31-.41,.39-.65,.08-.25,.12-.49,.12-.74s-.04-.49-.12-.74c-.08-.25-.21-.46-.39-.65-.18-.19-.42-.32-.72-.39-.1-.03-.21-.05-.33-.06s-.22-.01-.31-.01h-2.55v3.7Z"/><path class="cls-1" d="M144.66,44.49v-7.56h1.3v1.83l-.18-.24c.09-.24,.21-.46,.36-.67,.15-.2,.32-.37,.52-.5,.19-.14,.4-.25,.64-.33,.24-.08,.48-.12,.72-.14,.25-.02,.49,0,.71,.04v1.37c-.25-.06-.52-.08-.82-.05-.3,.03-.58,.12-.83,.29-.24,.15-.43,.34-.56,.56-.14,.22-.24,.46-.3,.73s-.09,.55-.09,.85v3.82h-1.48Z"/><path class="cls-1" d="M150.21,35.7v-1.42h1.46v1.42h-1.46Zm0,8.8v-7.56h1.46v7.56h-1.46Z"/><path class="cls-1" d="M155.82,44.49l-2.74-7.56h1.48l2.01,5.73,2.01-5.73h1.48l-2.74,7.56h-1.48Z"/><path class="cls-1" d="M163.02,44.7c-.56,0-1.03-.1-1.41-.31-.38-.21-.66-.48-.86-.83-.19-.34-.29-.72-.29-1.13,0-.38,.07-.72,.2-1.01,.13-.29,.34-.54,.6-.74s.59-.37,.98-.49c.34-.1,.72-.18,1.14-.26,.42-.08,.87-.14,1.34-.21,.47-.06,.94-.13,1.4-.2l-.53,.29c0-.59-.12-1.03-.38-1.32-.26-.29-.7-.43-1.33-.43-.4,0-.76,.09-1.09,.28-.33,.18-.56,.49-.69,.91l-1.37-.42c.19-.65,.54-1.16,1.07-1.55,.53-.38,1.22-.57,2.1-.57,.68,0,1.27,.12,1.77,.35,.5,.23,.87,.6,1.1,1.1,.12,.25,.2,.51,.22,.78s.04,.57,.04,.89v4.66h-1.29v-1.73l.25,.22c-.31,.58-.71,1.01-1.19,1.29-.48,.28-1.08,.42-1.78,.42Zm.26-1.2c.42,0,.77-.07,1.07-.22,.3-.15,.54-.34,.72-.56s.3-.47,.36-.71c.08-.22,.12-.47,.14-.76,.01-.28,.02-.5,.02-.67l.48,.18c-.46,.07-.88,.13-1.26,.19-.38,.05-.72,.11-1.03,.16-.3,.05-.58,.12-.82,.19-.2,.07-.38,.15-.54,.25-.16,.1-.28,.22-.37,.36-.09,.14-.14,.31-.14,.51s.05,.38,.15,.54c.1,.16,.25,.3,.45,.39,.2,.1,.46,.15,.77,.15Z"/><path class="cls-1" d="M168.02,38.11v-1.18h5.17v1.18h-5.17Zm5.17,6.38c-.48,.09-.94,.13-1.4,.12s-.87-.1-1.22-.27c-.36-.16-.63-.42-.81-.77-.16-.31-.25-.63-.26-.96s-.02-.69-.02-1.1v-6.69h1.47v6.62c0,.3,0,.57,.01,.79,0,.22,.06,.41,.14,.57,.17,.29,.44,.45,.8,.49,.37,.04,.8,.02,1.29-.05v1.24Z"/><path class="cls-1" d="M177.78,44.7c-.75,0-1.41-.16-1.98-.49-.57-.33-1.01-.79-1.32-1.38-.32-.59-.47-1.28-.47-2.05,0-.83,.16-1.54,.46-2.15,.31-.61,.74-1.07,1.3-1.41,.56-.33,1.2-.5,1.94-.5s1.43,.18,1.97,.54c.54,.36,.95,.86,1.21,1.52,.27,.66,.37,1.44,.32,2.35h-1.46v-.53c0-.88-.18-1.53-.5-1.95-.32-.42-.82-.63-1.48-.63-.73,0-1.28,.23-1.65,.69-.37,.46-.55,1.13-.55,2s.18,1.47,.55,1.93c.37,.46,.9,.68,1.6,.68,.46,0,.85-.1,1.19-.31,.33-.21,.59-.51,.78-.89l1.44,.46c-.29,.68-.74,1.2-1.34,1.57s-1.26,.56-1.99,.56Zm-2.7-3.58v-1.14h5.4v1.14h-5.4Z"/><path class="cls-1" d="M187.71,44.7c-.56,0-1.03-.1-1.41-.31-.38-.21-.66-.48-.86-.83-.19-.34-.29-.72-.29-1.13,0-.38,.07-.72,.2-1.01,.14-.29,.34-.54,.6-.74,.27-.2,.59-.37,.98-.49,.34-.1,.72-.18,1.14-.26,.43-.08,.87-.14,1.34-.21,.47-.06,.93-.13,1.4-.2l-.53,.29c0-.59-.12-1.03-.37-1.32s-.7-.43-1.33-.43c-.4,0-.76,.09-1.09,.28-.33,.18-.56,.49-.69,.91l-1.37-.42c.19-.65,.54-1.16,1.07-1.55,.52-.38,1.22-.57,2.1-.57,.68,0,1.27,.12,1.77,.35s.87,.6,1.1,1.1c.12,.25,.2,.51,.22,.78,.03,.28,.04,.57,.04,.89v4.66h-1.29v-1.73l.25,.22c-.31,.58-.71,1.01-1.19,1.29-.48,.28-1.08,.42-1.78,.42Zm.26-1.2c.42,0,.77-.07,1.07-.22,.3-.15,.54-.34,.72-.56s.3-.47,.36-.71c.08-.22,.12-.47,.14-.76,.01-.28,.02-.5,.02-.67l.48,.18c-.46,.07-.88,.13-1.26,.19-.38,.05-.72,.11-1.03,.16-.31,.05-.58,.12-.82,.19-.2,.07-.38,.15-.54,.25-.16,.1-.28,.22-.37,.36-.09,.14-.14,.31-.14,.51s.05,.38,.15,.54c.1,.16,.25,.3,.45,.39,.2,.1,.46,.15,.77,.15Z"/><path class="cls-1" d="M193.69,44.49v-10.29h1.46v10.29h-1.46Z"/><path class="cls-1" d="M197.39,44.49v-10.29h1.46v10.29h-1.46Z"/><path class="cls-1" d="M204.24,44.7c-.76,0-1.41-.17-1.97-.51-.55-.34-.98-.81-1.28-1.41-.3-.6-.45-1.29-.45-2.07s.15-1.48,.46-2.08c.31-.6,.74-1.07,1.29-1.4,.55-.33,1.2-.5,1.95-.5s1.41,.17,1.97,.51c.56,.34,.98,.81,1.29,1.41,.3,.6,.46,1.29,.46,2.06s-.15,1.48-.46,2.08-.74,1.07-1.29,1.41c-.56,.34-1.21,.51-1.96,.51Zm0-1.38c.72,0,1.26-.24,1.62-.73,.36-.49,.54-1.12,.54-1.89s-.18-1.42-.54-1.89c-.36-.47-.9-.71-1.61-.71-.49,0-.89,.11-1.21,.33-.32,.22-.55,.53-.71,.92-.15,.39-.23,.84-.23,1.36,0,.79,.18,1.43,.55,1.9,.36,.47,.9,.71,1.6,.71Z"/><path class="cls-1" d="M212.72,44.7c-.78,0-1.43-.17-1.97-.52s-.96-.82-1.24-1.42c-.29-.6-.43-1.29-.44-2.05,0-.78,.15-1.47,.45-2.07,.29-.6,.71-1.07,1.26-1.41,.55-.34,1.2-.51,1.97-.51,.83,0,1.53,.21,2.12,.62,.58,.41,.97,.97,1.16,1.69l-1.46,.42c-.15-.43-.38-.76-.71-.99-.33-.24-.71-.35-1.13-.35-.48,0-.88,.11-1.18,.34-.31,.23-.54,.54-.69,.93-.15,.39-.23,.84-.23,1.34,0,.78,.18,1.41,.54,1.89,.35,.48,.87,.72,1.56,.72,.47,0,.85-.11,1.14-.32,.29-.22,.51-.53,.67-.94l1.48,.35c-.25,.74-.66,1.3-1.22,1.7-.57,.39-1.26,.59-2.07,.59Z"/><path class="cls-1" d="M219.49,44.7c-.56,0-1.03-.1-1.41-.31-.38-.21-.66-.48-.86-.83-.19-.34-.29-.72-.29-1.13,0-.38,.07-.72,.2-1.01s.34-.54,.6-.74c.27-.2,.59-.37,.98-.49,.34-.1,.72-.18,1.14-.26,.42-.08,.87-.14,1.34-.21,.47-.06,.93-.13,1.4-.2l-.53,.29c0-.59-.12-1.03-.37-1.32-.26-.29-.7-.43-1.33-.43-.4,0-.76,.09-1.09,.28-.33,.18-.56,.49-.69,.91l-1.37-.42c.19-.65,.54-1.16,1.07-1.55,.52-.38,1.22-.57,2.1-.57,.68,0,1.27,.12,1.77,.35s.87,.6,1.1,1.1c.12,.25,.2,.51,.22,.78,.03,.28,.04,.57,.04,.89v4.66h-1.29v-1.73l.25,.22c-.31,.58-.71,1.01-1.19,1.29-.48,.28-1.08,.42-1.78,.42Zm.26-1.2c.42,0,.77-.07,1.07-.22,.3-.15,.54-.34,.72-.56,.18-.23,.3-.47,.36-.71,.08-.22,.12-.47,.14-.76,.01-.28,.02-.5,.02-.67l.48,.18c-.46,.07-.88,.13-1.26,.19-.38,.05-.72,.11-1.03,.16-.31,.05-.58,.12-.82,.19-.2,.07-.38,.15-.54,.25-.16,.1-.28,.22-.37,.36-.09,.14-.14,.31-.14,.51s.05,.38,.15,.54c.1,.16,.25,.3,.45,.39s.46,.15,.77,.15Z"/><path class="cls-1" d="M224.49,38.11v-1.18h5.17v1.18h-5.17Zm5.17,6.38c-.48,.09-.94,.13-1.4,.12-.46-.01-.87-.1-1.22-.27-.36-.16-.63-.42-.81-.77-.16-.31-.25-.63-.26-.96s-.02-.69-.02-1.1v-6.69h1.47v6.62c0,.3,0,.57,0,.79,0,.22,.06,.41,.14,.57,.17,.29,.43,.45,.8,.49,.37,.04,.8,.02,1.29-.05v1.24Z"/><path class="cls-1" d="M231.38,35.7v-1.42h1.46v1.42h-1.46Zm0,8.8v-7.56h1.46v7.56h-1.46Z"/><path class="cls-1" d="M238.23,44.7c-.76,0-1.41-.17-1.97-.51-.56-.34-.98-.81-1.29-1.41-.3-.6-.45-1.29-.45-2.07s.15-1.48,.46-2.08,.74-1.07,1.29-1.4,1.2-.5,1.95-.5,1.41,.17,1.97,.51c.55,.34,.98,.81,1.29,1.41,.3,.6,.46,1.29,.46,2.06s-.15,1.48-.46,2.08c-.31,.6-.74,1.07-1.29,1.41-.56,.34-1.21,.51-1.96,.51Zm0-1.38c.72,0,1.26-.24,1.62-.73,.36-.49,.54-1.12,.54-1.89s-.18-1.42-.54-1.89c-.36-.47-.9-.71-1.61-.71-.49,0-.89,.11-1.21,.33-.32,.22-.55,.53-.71,.92-.15,.39-.23,.84-.23,1.36,0,.79,.18,1.43,.55,1.9,.36,.47,.9,.71,1.6,.71Z"/><path class="cls-1" d="M243.47,44.49v-7.56h1.31v2.18h.17v5.38h-1.48Zm5.31,0v-3.72c0-.29-.02-.6-.07-.91-.05-.31-.14-.6-.28-.87s-.33-.48-.58-.64c-.25-.16-.58-.24-.98-.24-.26,0-.51,.04-.74,.13s-.44,.22-.61,.42-.31,.44-.41,.76c-.1,.31-.15,.69-.15,1.14l-.91-.34c0-.69,.13-1.29,.38-1.82,.26-.53,.62-.94,1.11-1.23,.48-.29,1.06-.44,1.74-.44,.52,0,.96,.08,1.32,.25,.35,.17,.64,.39,.86,.66,.22,.27,.39,.57,.51,.89,.12,.32,.2,.64,.24,.95,.04,.31,.06,.58,.06,.81v4.2h-1.48Z"/><path class="cls-1" d="M258.12,44.7c-.77,0-1.43-.17-1.97-.52-.54-.35-.96-.82-1.24-1.42-.29-.6-.43-1.29-.44-2.05,0-.78,.15-1.47,.45-2.07,.29-.6,.71-1.07,1.26-1.41,.55-.34,1.2-.51,1.97-.51,.83,0,1.53,.21,2.12,.62s.97,.97,1.16,1.69l-1.46,.42c-.14-.43-.38-.76-.71-.99-.33-.24-.71-.35-1.13-.35-.48,0-.88,.11-1.18,.34-.31,.23-.54,.54-.69,.93-.15,.39-.23,.84-.23,1.34,0,.78,.18,1.41,.54,1.89,.35,.48,.88,.72,1.56,.72,.47,0,.85-.11,1.14-.32,.29-.22,.52-.53,.67-.94l1.48,.35c-.25,.74-.66,1.3-1.23,1.7-.57,.39-1.26,.59-2.07,.59Z"/><path class="cls-1" d="M262.78,35.7v-1.42h1.46v1.42h-1.46Zm0,8.8v-7.56h1.46v7.56h-1.46Z"/><path class="cls-1" d="M266.34,44.49v-7.56h1.3v1.83l-.18-.24c.09-.24,.21-.46,.36-.67,.15-.2,.32-.37,.52-.5,.19-.14,.4-.25,.64-.33,.24-.08,.48-.12,.72-.14,.25-.02,.49,0,.71,.04v1.37c-.25-.06-.52-.08-.82-.05-.3,.03-.58,.12-.83,.29-.24,.15-.43,.34-.56,.56-.14,.22-.24,.46-.3,.73s-.09,.55-.09,.85v3.82h-1.48Z"/><path class="cls-1" d="M274.84,44.7c-.77,0-1.43-.17-1.97-.52s-.96-.82-1.24-1.42c-.29-.6-.43-1.29-.44-2.05,0-.78,.15-1.47,.45-2.07s.71-1.07,1.26-1.41c.55-.34,1.2-.51,1.97-.51,.83,0,1.53,.21,2.12,.62,.58,.41,.97,.97,1.16,1.69l-1.46,.42c-.14-.43-.38-.76-.71-.99-.33-.24-.71-.35-1.13-.35-.48,0-.88,.11-1.18,.34-.31,.23-.54,.54-.69,.93-.15,.39-.23,.84-.23,1.34,0,.78,.18,1.41,.54,1.89s.87,.72,1.56,.72c.47,0,.85-.11,1.14-.32,.29-.22,.51-.53,.67-.94l1.48,.35c-.25,.74-.66,1.3-1.23,1.7-.57,.39-1.26,.59-2.07,.59Z"/><path class="cls-1" d="M282.42,44.7c-.52,0-.96-.08-1.32-.25-.36-.17-.64-.39-.87-.66s-.39-.57-.51-.89c-.12-.32-.2-.64-.24-.95-.04-.31-.06-.58-.06-.81v-4.2h1.48v3.72c0,.29,.02,.6,.07,.91s.14,.6,.28,.87c.14,.27,.33,.48,.58,.64,.25,.16,.58,.24,.98,.24,.26,0,.51-.04,.74-.13,.23-.09,.44-.22,.61-.42,.17-.19,.31-.44,.41-.76,.1-.31,.15-.69,.15-1.14l.91,.34c0,.69-.13,1.29-.38,1.82-.26,.53-.62,.93-1.11,1.23-.48,.29-1.06,.44-1.74,.44Zm2.5-.2v-2.18h-.18v-5.38h1.48v7.56h-1.3Z"/><path class="cls-1" d="M288.32,44.49v-10.29h1.46v10.29h-1.46Z"/><path class="cls-1" d="M294.02,44.7c-.56,0-1.03-.1-1.41-.31-.38-.21-.66-.48-.86-.83-.19-.34-.29-.72-.29-1.13,0-.38,.07-.72,.2-1.01,.13-.29,.34-.54,.6-.74s.59-.37,.98-.49c.34-.1,.72-.18,1.14-.26,.42-.08,.87-.14,1.34-.21,.47-.06,.94-.13,1.4-.2l-.53,.29c0-.59-.12-1.03-.38-1.32-.26-.29-.7-.43-1.33-.43-.4,0-.76,.09-1.09,.28-.33,.18-.56,.49-.69,.91l-1.37-.42c.19-.65,.54-1.16,1.07-1.55,.53-.38,1.22-.57,2.1-.57,.68,0,1.27,.12,1.77,.35,.5,.23,.87,.6,1.1,1.1,.12,.25,.2,.51,.22,.78s.04,.57,.04,.89v4.66h-1.29v-1.73l.25,.22c-.31,.58-.71,1.01-1.19,1.29-.48,.28-1.08,.42-1.78,.42Zm.26-1.2c.42,0,.77-.07,1.07-.22,.3-.15,.54-.34,.72-.56s.3-.47,.36-.71c.08-.22,.12-.47,.14-.76,.01-.28,.02-.5,.02-.67l.48,.18c-.46,.07-.88,.13-1.26,.19-.38,.05-.72,.11-1.03,.16-.3,.05-.58,.12-.82,.19-.2,.07-.38,.15-.54,.25-.16,.1-.28,.22-.37,.36-.09,.14-.14,.31-.14,.51s.05,.38,.15,.54c.1,.16,.25,.3,.45,.39,.2,.1,.46,.15,.77,.15Z"/><path class="cls-1" d="M299.01,38.11v-1.18h5.17v1.18h-5.17Zm5.17,6.38c-.48,.09-.94,.13-1.4,.12s-.87-.1-1.22-.27c-.36-.16-.63-.42-.81-.77-.16-.31-.25-.63-.26-.96s-.02-.69-.02-1.1v-6.69h1.47v6.62c0,.3,0,.57,.01,.79,0,.22,.05,.41,.14,.57,.17,.29,.44,.45,.8,.49,.37,.04,.8,.02,1.29-.05v1.24Z"/><path class="cls-1" d="M305.91,35.7v-1.42h1.46v1.42h-1.46Zm0,8.8v-7.56h1.46v7.56h-1.46Z"/><path class="cls-1" d="M309.47,44.49v-7.56h1.31v2.18h.17v5.38h-1.48Zm5.31,0v-3.72c0-.29-.02-.6-.07-.91-.05-.31-.14-.6-.28-.87s-.33-.48-.58-.64c-.25-.16-.58-.24-.98-.24-.26,0-.51,.04-.74,.13s-.44,.22-.61,.42-.31,.44-.41,.76-.15,.69-.15,1.14l-.91-.34c0-.69,.13-1.29,.39-1.82,.26-.53,.62-.94,1.11-1.23,.48-.29,1.06-.44,1.74-.44,.52,0,.96,.08,1.32,.25,.36,.17,.64,.39,.87,.66,.22,.27,.39,.57,.51,.89,.12,.32,.2,.64,.24,.95,.04,.31,.06,.58,.06,.81v4.2h-1.48Z"/><path class="cls-1" d="M321.08,44.7c-.71,0-1.31-.17-1.82-.53-.51-.35-.91-.83-1.18-1.43-.28-.61-.42-1.29-.42-2.04s.14-1.44,.42-2.04,.68-1.07,1.19-1.42,1.13-.52,1.84-.52,1.31,.17,1.8,.52c.49,.35,.86,.82,1.11,1.42s.37,1.28,.37,2.04-.12,1.44-.38,2.04-.62,1.08-1.11,1.43c-.49,.35-1.1,.53-1.82,.53Zm.11,3.36c-.41,0-.8-.06-1.18-.19-.38-.13-.73-.31-1.04-.56-.31-.25-.57-.55-.78-.91l1.35-.69c.16,.32,.4,.56,.7,.71,.3,.15,.62,.22,.96,.22,.42,0,.77-.07,1.06-.22,.29-.15,.52-.37,.67-.66,.15-.29,.23-.66,.22-1.09v-2.12h.17v-5.63h1.29v7.76c0,.2,0,.39-.02,.57-.01,.18-.04,.36-.08,.54-.11,.51-.31,.93-.61,1.26-.3,.33-.68,.58-1.15,.74s-.99,.25-1.58,.25Zm.09-4.68c.48,0,.87-.12,1.18-.34,.3-.23,.53-.54,.67-.95,.14-.4,.21-.86,.21-1.38s-.07-.98-.21-1.39c-.14-.4-.36-.71-.66-.94-.3-.22-.67-.34-1.13-.34-.49,0-.88,.12-1.2,.36s-.54,.56-.7,.96c-.15,.4-.23,.85-.23,1.34s.08,.95,.23,1.35c.15,.4,.38,.72,.69,.96,.3,.24,.69,.36,1.16,.36Z"/><path class="cls-1" d="M332.28,44.7c-.92,0-1.67-.2-2.25-.61-.58-.41-.93-.98-1.06-1.71l1.5-.23c.09,.39,.31,.7,.65,.93,.34,.23,.76,.34,1.26,.34,.46,0,.82-.09,1.07-.28,.26-.19,.39-.44,.39-.77,0-.19-.05-.35-.14-.47s-.28-.23-.57-.34c-.29-.11-.73-.24-1.32-.4-.65-.17-1.16-.35-1.54-.54-.38-.19-.65-.42-.81-.68-.16-.26-.24-.57-.24-.94,0-.46,.12-.86,.36-1.2,.24-.34,.58-.61,1.03-.79,.44-.19,.96-.28,1.55-.28s1.09,.09,1.55,.27c.45,.18,.82,.44,1.1,.77,.28,.33,.45,.72,.5,1.17l-1.5,.27c-.05-.36-.22-.65-.51-.86-.29-.21-.67-.32-1.13-.34-.44-.02-.8,.05-1.08,.22s-.41,.39-.41,.68c0,.17,.05,.31,.16,.43s.31,.23,.61,.34c.3,.11,.75,.24,1.34,.38,.63,.16,1.14,.34,1.51,.54,.37,.2,.64,.43,.8,.71,.16,.27,.24,.6,.24,.99,0,.75-.27,1.33-.82,1.76-.54,.42-1.29,.64-2.25,.64Z"/><path class="cls-1" d="M339.75,44.7c-.52,0-.96-.08-1.32-.25-.36-.17-.64-.39-.87-.66-.22-.27-.39-.57-.51-.89s-.2-.64-.24-.95-.06-.58-.06-.81v-4.2h1.48v3.72c0,.29,.03,.6,.07,.91s.14,.6,.28,.87c.14,.27,.33,.48,.58,.64,.25,.16,.58,.24,.98,.24,.26,0,.51-.04,.74-.13s.44-.22,.61-.42c.18-.19,.31-.44,.41-.76,.1-.31,.15-.69,.15-1.14l.91,.34c0,.69-.13,1.29-.38,1.82s-.63,.93-1.11,1.23c-.48,.29-1.06,.44-1.74,.44Zm2.5-.2v-2.18h-.17v-5.38h1.48v7.56h-1.3Z"/><path class="cls-1" d="M345.5,47.85v-10.92h1.3v5.44h.17v5.48h-1.47Zm3.55-3.15c-.72,0-1.33-.18-1.82-.53-.49-.35-.86-.83-1.11-1.43s-.38-1.28-.38-2.04,.12-1.44,.38-2.04,.62-1.08,1.11-1.42c.49-.35,1.09-.52,1.8-.52s1.32,.17,1.84,.52,.91,.82,1.19,1.42c.28,.6,.42,1.28,.42,2.04s-.14,1.44-.42,2.04c-.28,.6-.67,1.08-1.18,1.43-.51,.35-1.12,.53-1.82,.53Zm-.2-1.32c.47,0,.85-.12,1.16-.36s.53-.56,.69-.96c.15-.4,.23-.85,.23-1.35s-.08-.94-.23-1.34c-.15-.4-.38-.72-.7-.96s-.71-.36-1.2-.36c-.46,0-.83,.11-1.13,.34s-.52,.54-.66,.94c-.14,.4-.21,.86-.21,1.39s.07,.98,.21,1.38c.14,.4,.36,.72,.66,.95,.3,.23,.7,.34,1.18,.34Z"/><path class="cls-1" d="M354.01,47.85v-10.92h1.3v5.44h.17v5.48h-1.47Zm3.56-3.15c-.72,0-1.33-.18-1.82-.53-.49-.35-.86-.83-1.11-1.43s-.38-1.28-.38-2.04,.12-1.44,.38-2.04,.62-1.08,1.11-1.42,1.09-.52,1.8-.52,1.32,.17,1.84,.52,.91,.82,1.19,1.42c.28,.6,.42,1.28,.42,2.04s-.14,1.44-.42,2.04c-.28,.6-.67,1.08-1.18,1.43-.51,.35-1.12,.53-1.82,.53Zm-.2-1.32c.47,0,.85-.12,1.16-.36,.3-.24,.53-.56,.69-.96,.15-.4,.23-.85,.23-1.35s-.08-.94-.23-1.34c-.15-.4-.38-.72-.7-.96-.31-.24-.71-.36-1.2-.36-.46,0-.83,.11-1.13,.34-.3,.22-.52,.54-.66,.94-.14,.4-.21,.86-.21,1.39s.07,.98,.21,1.38c.14,.4,.36,.72,.67,.95s.7,.34,1.18,.34Z"/><path class="cls-1" d="M362.67,44.49v-10.29h1.46v10.29h-1.46Z"/><path class="cls-1" d="M367.26,47.85l1.46-3.98,.02,1.18-3.3-8.11h1.53l2.46,6.27h-.45l2.35-6.27h1.48l-4.17,10.92h-1.39Z"/></g><line class="cls-12" x1="322.98" y1="455.11" x2="340.91" y2="455.11"/><line class="cls-13" x1="451.98" y1="455.11" x2="469.91" y2="455.11"/><g><path class="cls-1" d="M349.41,458.92c-.61,0-1.16-.1-1.65-.31s-.89-.5-1.21-.89c-.32-.39-.52-.84-.62-1.37l1.1-.17c.14,.54,.43,.97,.87,1.28s.96,.46,1.56,.46c.39,0,.74-.06,1.05-.18s.56-.3,.75-.53c.18-.23,.28-.5,.28-.81,0-.19-.03-.36-.1-.5-.07-.14-.16-.26-.27-.35-.11-.1-.24-.18-.39-.25-.14-.07-.29-.12-.45-.17l-2.2-.65c-.24-.07-.47-.16-.7-.27s-.42-.25-.6-.41-.32-.37-.42-.6c-.1-.23-.16-.51-.16-.83,0-.51,.13-.95,.4-1.31,.27-.36,.63-.64,1.08-.83,.46-.19,.97-.29,1.54-.28,.58,0,1.1,.11,1.56,.31,.46,.2,.84,.49,1.14,.87s.5,.83,.61,1.35l-1.13,.2c-.06-.35-.19-.66-.4-.91s-.46-.45-.77-.59c-.31-.14-.65-.21-1.01-.21-.35,0-.67,.05-.95,.17s-.51,.28-.68,.48c-.17,.21-.25,.44-.25,.71s.08,.48,.23,.64c.15,.16,.34,.29,.56,.38,.22,.09,.44,.17,.65,.23l1.64,.47c.19,.05,.4,.12,.65,.22s.49,.22,.72,.39c.23,.17,.42,.39,.58,.66,.15,.27,.23,.62,.23,1.04s-.08,.79-.25,1.11-.4,.59-.69,.81c-.3,.22-.64,.38-1.03,.5-.39,.11-.81,.17-1.26,.17Z"/><path class="cls-1" d="M356.71,458.92c-.64,0-1.19-.14-1.67-.42-.47-.28-.84-.68-1.11-1.18s-.4-1.1-.4-1.77,.13-1.32,.39-1.84c.26-.52,.62-.92,1.09-1.2,.47-.28,1.01-.42,1.64-.42s1.21,.15,1.67,.45c.46,.3,.8,.73,1.03,1.28,.23,.56,.33,1.22,.3,1.99h-1.08v-.38c-.01-.8-.17-1.39-.49-1.79-.31-.39-.78-.59-1.39-.59-.66,0-1.16,.21-1.51,.64-.34,.42-.52,1.03-.52,1.82s.17,1.36,.52,1.78c.34,.42,.83,.63,1.47,.63,.43,0,.8-.1,1.12-.29s.56-.48,.74-.85l1.03,.35c-.25,.57-.63,1.02-1.14,1.33-.51,.31-1.07,.47-1.7,.47Zm-2.39-3.12v-.86h4.79v.86h-4.79Z"/><path class="cls-1" d="M363.8,458.92c-.64,0-1.19-.14-1.67-.42-.47-.28-.84-.68-1.11-1.18s-.4-1.1-.4-1.77,.13-1.32,.39-1.84c.26-.52,.62-.92,1.09-1.2,.47-.28,1.01-.42,1.64-.42s1.21,.15,1.67,.45c.46,.3,.8,.73,1.03,1.28,.23,.56,.33,1.22,.3,1.99h-1.08v-.38c-.01-.8-.17-1.39-.49-1.79-.31-.39-.78-.59-1.39-.59-.66,0-1.16,.21-1.51,.64-.34,.42-.52,1.03-.52,1.82s.17,1.36,.52,1.78c.34,.42,.83,.63,1.47,.63,.43,0,.8-.1,1.12-.29s.56-.48,.74-.85l1.03,.35c-.25,.57-.63,1.02-1.14,1.33-.51,.31-1.07,.47-1.7,.47Zm-2.39-3.12v-.86h4.79v.86h-4.79Z"/><path class="cls-1" d="M370.62,458.92c-.6,0-1.12-.15-1.55-.45-.43-.3-.77-.71-1-1.23s-.35-1.1-.35-1.75,.12-1.23,.35-1.75c.23-.52,.57-.92,1-1.22s.95-.45,1.55-.45,1.13,.15,1.54,.44,.73,.7,.95,1.22c.21,.52,.32,1.1,.32,1.75s-.11,1.23-.32,1.74c-.21,.52-.53,.93-.95,1.23-.42,.3-.93,.45-1.54,.45Zm.13-.98c.44,0,.79-.11,1.07-.32,.28-.21,.49-.5,.62-.87,.13-.37,.2-.79,.2-1.26s-.07-.9-.2-1.27c-.13-.37-.34-.65-.62-.86-.28-.21-.63-.31-1.05-.31s-.8,.11-1.09,.32c-.29,.22-.5,.51-.64,.88-.14,.37-.21,.78-.21,1.24s.07,.88,.21,1.25c.14,.37,.35,.66,.63,.88,.28,.22,.63,.32,1.06,.32Zm1.9,.8v-4.77h-.12v-3.87h1.07v8.64h-.95Z"/></g><g><path class="cls-1" d="M477.9,458.74v-8.64h3.41c.08,0,.18,0,.3,0,.12,0,.23,.02,.34,.04,.47,.07,.86,.23,1.18,.48,.32,.25,.56,.56,.72,.94,.16,.38,.24,.8,.24,1.26s-.08,.87-.24,1.25-.4,.69-.72,.94c-.32,.25-.71,.41-1.17,.48-.11,.02-.22,.03-.34,.04-.12,0-.22,.01-.3,.01h-2.35v3.19h-1.07Zm1.07-4.21h2.31c.08,0,.16,0,.26-.01,.1,0,.19-.02,.28-.04,.28-.06,.5-.18,.68-.35,.17-.17,.3-.37,.38-.6s.12-.46,.12-.71-.04-.47-.12-.71c-.08-.23-.21-.43-.38-.6-.17-.17-.4-.29-.68-.35-.09-.02-.18-.04-.28-.04-.1,0-.18,0-.26,0h-2.31v3.42Z"/><path class="cls-1" d="M485.29,458.74v-6.48h.95v1.57l-.16-.2c.08-.2,.18-.38,.3-.55,.12-.17,.26-.31,.41-.41,.17-.14,.36-.24,.57-.31,.21-.07,.43-.11,.65-.13,.22-.01,.43,0,.62,.04v1c-.22-.06-.47-.08-.74-.05-.27,.03-.52,.13-.74,.29-.21,.15-.37,.33-.48,.54-.11,.21-.19,.44-.24,.69-.04,.25-.07,.5-.07,.75v3.25h-1.07Z"/><path class="cls-1" d="M489.89,451.11v-1.1h1.07v1.1h-1.07Zm0,7.63v-6.48h1.07v6.48h-1.07Z"/><path class="cls-1" d="M494.51,458.74l-2.35-6.48h1.08l1.82,5.12,1.81-5.12h1.09l-2.35,6.48h-1.09Z"/><path class="cls-1" d="M500.52,458.92c-.48,0-.89-.09-1.21-.27s-.57-.41-.74-.71-.25-.61-.25-.96,.06-.63,.19-.88,.31-.46,.55-.62c.24-.17,.52-.3,.85-.39,.31-.08,.65-.16,1.04-.22,.38-.06,.77-.12,1.16-.17,.39-.05,.76-.1,1.1-.15l-.38,.22c.01-.58-.1-1-.35-1.28s-.66-.41-1.25-.41c-.39,0-.74,.09-1.03,.27-.29,.18-.5,.47-.62,.87l-1.01-.31c.16-.57,.46-1.01,.91-1.34s1.04-.49,1.77-.49c.59,0,1.09,.11,1.51,.32,.42,.21,.72,.53,.91,.95,.09,.2,.15,.42,.17,.65,.02,.23,.04,.48,.04,.74v4.01h-.95v-1.55l.22,.14c-.24,.52-.59,.92-1.02,1.19-.44,.27-.97,.4-1.6,.4Zm.16-.89c.38,0,.72-.07,1-.21s.51-.32,.68-.55c.17-.23,.29-.47,.34-.74,.06-.2,.09-.42,.1-.67s0-.43,0-.57l.37,.16c-.35,.05-.69,.09-1.03,.14s-.65,.09-.96,.14c-.3,.05-.57,.11-.81,.18-.18,.06-.34,.13-.5,.22-.15,.09-.28,.2-.37,.34-.09,.14-.14,.31-.14,.51,0,.18,.04,.34,.13,.5,.09,.16,.23,.29,.42,.39,.19,.1,.44,.15,.75,.15Z"/><path class="cls-1" d="M504.71,453.14v-.88h4.34v.88h-4.34Zm4.34,5.6c-.38,.08-.76,.11-1.14,.09-.37-.01-.71-.09-1-.23-.29-.14-.51-.35-.67-.65-.13-.26-.2-.51-.21-.78,0-.26-.02-.56-.02-.89v-5.83h1.07v5.78c0,.26,0,.49,0,.68,0,.19,.05,.35,.12,.49,.14,.26,.37,.41,.69,.45,.31,.04,.69,.03,1.14-.04v.92Z"/><path class="cls-1" d="M512.9,458.92c-.64,0-1.19-.14-1.67-.42s-.84-.68-1.11-1.18c-.26-.51-.4-1.1-.4-1.77s.13-1.32,.39-1.84c.26-.52,.62-.92,1.09-1.2,.47-.28,1.01-.42,1.64-.42s1.21,.15,1.67,.45,.8,.73,1.03,1.28c.23,.56,.33,1.22,.3,1.99h-1.08v-.38c-.01-.8-.17-1.39-.49-1.79-.31-.39-.78-.59-1.39-.59-.66,0-1.16,.21-1.51,.64-.34,.42-.52,1.03-.52,1.82s.17,1.36,.52,1.78,.83,.63,1.47,.63c.43,0,.8-.1,1.12-.29,.32-.2,.56-.48,.74-.85l1.03,.35c-.25,.57-.63,1.02-1.14,1.33-.51,.31-1.07,.47-1.7,.47Zm-2.39-3.12v-.86h4.79v.86h-4.79Z"/><path class="cls-1" d="M522.65,458.92c-.61,0-1.16-.1-1.65-.31-.49-.21-.89-.5-1.21-.89-.32-.39-.53-.84-.62-1.37l1.1-.17c.14,.54,.43,.97,.87,1.28,.44,.31,.96,.46,1.56,.46,.39,0,.74-.06,1.05-.18,.31-.12,.56-.3,.75-.53s.28-.5,.28-.81c0-.19-.03-.36-.1-.5-.07-.14-.16-.26-.27-.35-.11-.1-.24-.18-.39-.25-.14-.07-.29-.12-.45-.17l-2.2-.65c-.24-.07-.47-.16-.7-.27-.22-.11-.42-.25-.6-.41s-.32-.37-.42-.6c-.1-.23-.16-.51-.16-.83,0-.51,.13-.95,.4-1.31,.27-.36,.63-.64,1.08-.83,.46-.19,.97-.29,1.54-.28,.58,0,1.1,.11,1.56,.31s.84,.49,1.14,.87c.3,.38,.51,.83,.61,1.35l-1.13,.2c-.06-.35-.19-.66-.4-.91-.21-.25-.46-.45-.77-.59s-.65-.21-1.01-.21c-.35,0-.67,.05-.95,.17-.29,.12-.51,.28-.68,.48-.17,.21-.25,.44-.25,.71s.08,.48,.23,.64c.15,.16,.34,.29,.56,.38s.44,.17,.65,.23l1.64,.47c.19,.05,.41,.12,.65,.22s.48,.22,.72,.39c.23,.17,.42,.39,.58,.66,.15,.27,.23,.62,.23,1.04s-.08,.79-.25,1.11-.4,.59-.69,.81c-.3,.22-.64,.38-1.03,.5s-.81,.17-1.26,.17Z"/><path class="cls-1" d="M529.95,458.92c-.63,0-1.19-.14-1.66-.42-.47-.28-.84-.68-1.11-1.18s-.4-1.1-.4-1.77,.13-1.32,.39-1.84c.26-.52,.62-.92,1.09-1.2,.47-.28,1.01-.42,1.64-.42s1.21,.15,1.66,.45c.46,.3,.8,.73,1.03,1.28,.23,.56,.33,1.22,.3,1.99h-1.08v-.38c-.01-.8-.17-1.39-.49-1.79-.31-.39-.78-.59-1.39-.59-.66,0-1.16,.21-1.51,.64-.34,.42-.52,1.03-.52,1.82s.17,1.36,.52,1.78,.83,.63,1.47,.63c.43,0,.8-.1,1.12-.29s.56-.48,.74-.85l1.03,.35c-.25,.57-.63,1.02-1.14,1.33-.51,.31-1.07,.47-1.7,.47Zm-2.39-3.12v-.86h4.79v.86h-4.79Z"/><path class="cls-1" d="M537.03,458.92c-.64,0-1.19-.14-1.67-.42s-.84-.68-1.11-1.18c-.26-.51-.4-1.1-.4-1.77s.13-1.32,.39-1.84c.26-.52,.62-.92,1.09-1.2,.46-.28,1.01-.42,1.64-.42s1.21,.15,1.67,.45,.8,.73,1.03,1.28c.23,.56,.33,1.22,.3,1.99h-1.08v-.38c-.01-.8-.17-1.39-.49-1.79-.31-.39-.78-.59-1.39-.59-.66,0-1.16,.21-1.51,.64-.34,.42-.52,1.03-.52,1.82s.17,1.36,.52,1.78c.34,.42,.83,.63,1.47,.63,.43,0,.8-.1,1.12-.29,.32-.2,.56-.48,.74-.85l1.03,.35c-.25,.57-.63,1.02-1.14,1.33-.51,.31-1.07,.47-1.7,.47Zm-2.39-3.12v-.86h4.79v.86h-4.79Z"/><path class="cls-1" d="M543.85,458.92c-.6,0-1.12-.15-1.55-.45-.43-.3-.77-.71-1-1.23-.23-.52-.35-1.1-.35-1.75s.12-1.23,.35-1.75c.23-.52,.57-.92,1-1.22,.43-.3,.95-.45,1.55-.45s1.13,.15,1.54,.44,.73,.7,.95,1.22c.21,.52,.32,1.1,.32,1.75s-.11,1.23-.32,1.74c-.21,.52-.53,.93-.95,1.23-.42,.3-.93,.45-1.54,.45Zm.13-.98c.44,0,.79-.11,1.07-.32,.28-.21,.49-.5,.62-.87,.13-.37,.2-.79,.2-1.26s-.07-.9-.2-1.27c-.13-.37-.34-.65-.62-.86-.28-.21-.63-.31-1.05-.31s-.8,.11-1.09,.32c-.29,.22-.5,.51-.64,.88-.14,.37-.21,.78-.21,1.24s.07,.88,.21,1.25c.14,.37,.35,.66,.63,.88,.28,.22,.63,.32,1.06,.32Zm1.9,.8v-4.77h-.12v-3.87h1.07v8.64h-.95Z"/></g><line class="cls-10" x1="582.1" y1="455.11" x2="600.03" y2="455.11"/><g><path class="cls-1" d="M610.25,458.74v-7.63h-2.95v-1.01h6.96v1.01h-2.95v7.63h-1.07Z"/><path class="cls-1" d="M617.08,458.92c-.63,0-1.19-.14-1.66-.42-.47-.28-.84-.68-1.11-1.18s-.4-1.1-.4-1.77,.13-1.32,.39-1.84c.26-.52,.62-.92,1.09-1.2,.47-.28,1.01-.42,1.64-.42s1.21,.15,1.66,.45c.46,.3,.8,.73,1.03,1.28,.23,.56,.33,1.22,.3,1.99h-1.08v-.38c-.01-.8-.17-1.39-.49-1.79-.31-.39-.78-.59-1.39-.59-.66,0-1.16,.21-1.51,.64-.34,.42-.52,1.03-.52,1.82s.17,1.36,.52,1.78,.83,.63,1.47,.63c.43,0,.8-.1,1.12-.29s.56-.48,.74-.85l1.03,.35c-.25,.57-.63,1.02-1.14,1.33-.51,.31-1.07,.47-1.7,.47Zm-2.39-3.12v-.86h4.79v.86h-4.79Z"/><path class="cls-1" d="M623.08,458.92c-.48,0-.89-.09-1.21-.27s-.57-.41-.74-.71-.25-.61-.25-.96,.06-.63,.19-.88,.31-.46,.55-.62c.24-.17,.52-.3,.85-.39,.31-.08,.65-.16,1.04-.22,.38-.06,.77-.12,1.16-.17,.39-.05,.76-.1,1.1-.15l-.38,.22c.01-.58-.1-1-.35-1.28s-.66-.41-1.25-.41c-.39,0-.74,.09-1.03,.27-.29,.18-.5,.47-.62,.87l-1.01-.31c.16-.57,.46-1.01,.91-1.34s1.04-.49,1.77-.49c.59,0,1.09,.11,1.51,.32,.42,.21,.72,.53,.91,.95,.09,.2,.15,.42,.17,.65,.02,.23,.04,.48,.04,.74v4.01h-.95v-1.55l.22,.14c-.24,.52-.59,.92-1.02,1.19-.44,.27-.97,.4-1.6,.4Zm.16-.89c.38,0,.72-.07,1-.21s.51-.32,.68-.55c.17-.23,.29-.47,.34-.74,.06-.2,.09-.42,.1-.67s0-.43,0-.57l.37,.16c-.35,.05-.69,.09-1.03,.14s-.65,.09-.96,.14c-.3,.05-.57,.11-.81,.18-.18,.06-.34,.13-.5,.22-.15,.09-.28,.2-.37,.34-.09,.14-.14,.31-.14,.51,0,.18,.04,.34,.13,.5,.09,.16,.23,.29,.42,.39,.19,.1,.44,.15,.75,.15Z"/><path class="cls-1" d="M627.98,458.74v-6.48h.95v1.73h.12v4.75h-1.07Zm3.88,0v-4.1c0-.5-.12-.89-.38-1.17-.26-.28-.6-.42-1.02-.42s-.76,.14-1.02,.43c-.26,.29-.39,.67-.39,1.15l-.56-.34c0-.42,.1-.8,.3-1.13,.2-.33,.47-.59,.82-.78,.34-.19,.73-.29,1.17-.29s.82,.09,1.14,.28c.32,.18,.57,.45,.75,.79s.26,.75,.26,1.22v4.36h-1.07Zm3.87,0v-4.15c0-.48-.12-.86-.38-1.14-.26-.27-.59-.41-1-.41-.24,0-.47,.06-.68,.17-.22,.11-.39,.28-.53,.52-.14,.23-.2,.53-.2,.9l-.56-.23c0-.46,.09-.86,.28-1.21,.2-.35,.47-.62,.81-.81,.34-.19,.73-.29,1.16-.29,.68,0,1.21,.21,1.6,.62,.39,.41,.58,.96,.58,1.65v4.38h-1.07Z"/><path class="cls-1" d="M643.57,458.92c-.48,0-.93-.07-1.34-.21-.42-.14-.76-.36-1.04-.66-.21-.24-.38-.5-.48-.79s-.17-.6-.18-.92c0-.32,.05-.62,.14-.93s.24-.57,.44-.81c.1-.13,.22-.24,.35-.33s.26-.17,.39-.23c-.28-.3-.49-.57-.63-.83-.15-.26-.22-.57-.22-.94,0-.47,.12-.89,.36-1.27s.57-.65,.99-.83c.21-.09,.41-.15,.63-.18,.21-.03,.42-.05,.63-.05,.34,0,.68,.05,1,.14,.32,.1,.6,.25,.83,.47,.15,.13,.28,.28,.39,.44s.19,.34,.25,.52l-1.04,.27c-.08-.2-.2-.38-.38-.52-.14-.12-.3-.2-.49-.25-.19-.04-.37-.07-.56-.07-.31,0-.59,.06-.85,.18-.22,.11-.39,.26-.5,.45-.11,.19-.17,.42-.17,.69,0,.23,.04,.42,.12,.56,.08,.15,.19,.3,.33,.46,.08,.09,.18,.18,.29,.28s.21,.2,.33,.3l2.54,2.36c.01-.1,.02-.2,.03-.31,0-.1,0-.2,0-.3v-1.19s.97,0,.97,0v1.4c0,.28,0,.53-.03,.73s-.05,.37-.09,.5l1.1,1.01-.7,.74-.91-.86c-.16,.18-.34,.33-.56,.46-.22,.13-.43,.23-.65,.3-.2,.08-.41,.13-.63,.16-.22,.03-.43,.04-.65,.04Zm.02-1.03c.2,0,.38-.01,.54-.04,.16-.02,.31-.07,.46-.14,.19-.09,.34-.18,.44-.26s.19-.16,.26-.23l-2.63-2.41c-.14,.05-.28,.11-.4,.19-.13,.08-.24,.17-.33,.28-.1,.13-.18,.28-.23,.45-.05,.17-.08,.35-.08,.55,0,.2,.04,.39,.1,.56,.06,.17,.15,.33,.27,.46,.18,.2,.41,.35,.71,.45,.3,.09,.6,.14,.89,.14Z"/><path class="cls-1" d="M652.89,458.92c-.48,0-.89-.09-1.21-.27s-.57-.41-.74-.71-.25-.61-.25-.96,.07-.63,.19-.88c.13-.25,.31-.46,.55-.62,.24-.17,.52-.3,.85-.39,.31-.08,.65-.16,1.04-.22,.38-.06,.77-.12,1.16-.17s.76-.1,1.1-.15l-.38,.22c.01-.58-.1-1-.34-1.28s-.66-.41-1.25-.41c-.39,0-.73,.09-1.03,.27-.29,.18-.5,.47-.62,.87l-1.01-.31c.16-.57,.46-1.01,.91-1.34,.45-.32,1.04-.49,1.77-.49,.59,0,1.09,.11,1.51,.32s.72,.53,.91,.95c.09,.2,.15,.42,.17,.65,.02,.23,.04,.48,.04,.74v4.01h-.95v-1.55l.22,.14c-.24,.52-.58,.92-1.02,1.19-.44,.27-.97,.4-1.6,.4Zm.16-.89c.38,0,.72-.07,1-.21,.28-.14,.51-.32,.68-.55,.17-.23,.28-.47,.34-.74,.06-.2,.09-.42,.1-.67s0-.43,0-.57l.37,.16c-.35,.05-.69,.09-1.03,.14s-.65,.09-.95,.14c-.3,.05-.57,.11-.81,.18-.18,.06-.34,.13-.49,.22-.15,.09-.28,.2-.37,.34-.09,.14-.14,.31-.14,.51,0,.18,.04,.34,.13,.5,.09,.16,.23,.29,.42,.39,.19,.1,.44,.15,.75,.15Z"/><path class="cls-1" d="M660.34,458.92c-.6,0-1.12-.15-1.55-.45-.43-.3-.77-.71-1-1.23-.23-.52-.35-1.1-.35-1.75s.12-1.23,.35-1.75c.23-.52,.57-.92,1-1.22,.43-.3,.95-.45,1.55-.45s1.13,.15,1.54,.44,.73,.7,.95,1.22c.21,.52,.32,1.1,.32,1.75s-.11,1.23-.32,1.74c-.21,.52-.53,.93-.95,1.23-.42,.3-.93,.45-1.54,.45Zm.13-.98c.44,0,.79-.11,1.07-.32,.28-.21,.49-.5,.62-.87,.13-.37,.2-.79,.2-1.26s-.07-.9-.2-1.27c-.13-.37-.34-.65-.62-.86-.28-.21-.63-.31-1.05-.31s-.8,.11-1.09,.32c-.29,.22-.5,.51-.64,.88-.14,.37-.21,.78-.21,1.24s.07,.88,.21,1.25c.14,.37,.35,.66,.63,.88,.28,.22,.63,.32,1.06,.32Zm1.9,.8v-4.77h-.12v-3.87h1.07v8.64h-.95Z"/><path class="cls-1" d="M666.75,458.74l-2.35-6.48h1.08l1.82,5.12,1.81-5.12h1.09l-2.35,6.48h-1.09Z"/><path class="cls-1" d="M671.4,451.11v-1.1h1.07v1.1h-1.07Zm0,7.63v-6.48h1.07v6.48h-1.07Z"/><path class="cls-1" d="M676.72,458.91c-.77,0-1.41-.17-1.9-.51-.49-.34-.8-.81-.91-1.42l1.09-.17c.09,.35,.29,.63,.61,.84,.32,.21,.71,.31,1.18,.31s.79-.09,1.04-.28c.25-.18,.38-.43,.38-.75,0-.18-.04-.33-.13-.45s-.26-.22-.52-.32c-.26-.1-.66-.22-1.18-.36-.57-.15-1.02-.31-1.35-.47-.33-.16-.56-.35-.7-.57-.14-.22-.21-.48-.21-.79,0-.38,.1-.71,.31-1,.21-.29,.5-.51,.87-.66,.38-.16,.81-.23,1.3-.23s.93,.08,1.32,.23c.39,.16,.7,.38,.94,.66s.38,.62,.42,1l-1.09,.2c-.05-.35-.22-.62-.5-.82-.28-.2-.64-.31-1.09-.32-.42-.02-.76,.06-1.02,.22-.26,.16-.39,.39-.39,.67,0,.16,.05,.29,.15,.4,.1,.11,.28,.22,.55,.32,.27,.1,.65,.21,1.16,.34,.57,.14,1.02,.3,1.35,.47s.57,.37,.71,.6c.14,.23,.21,.51,.21,.85,0,.62-.23,1.12-.69,1.47-.46,.36-1.09,.54-1.9,.54Z"/><path class="cls-1" d="M683.39,458.92c-.64,0-1.2-.15-1.67-.44-.47-.29-.82-.7-1.08-1.21-.25-.52-.38-1.11-.38-1.78s.13-1.28,.38-1.79c.26-.51,.62-.91,1.09-1.2,.47-.29,1.02-.43,1.65-.43s1.21,.15,1.67,.44c.47,.29,.83,.69,1.08,1.21,.25,.51,.38,1.1,.38,1.77s-.12,1.27-.38,1.79-.61,.92-1.08,1.21c-.47,.29-1.02,.43-1.67,.43Zm0-1.01c.67,0,1.17-.22,1.5-.67,.33-.45,.49-1.03,.49-1.74s-.17-1.31-.5-1.75c-.33-.43-.83-.65-1.49-.65-.45,0-.82,.1-1.12,.31-.29,.2-.51,.49-.65,.85-.14,.36-.22,.78-.22,1.25,0,.73,.17,1.31,.5,1.75,.34,.44,.83,.66,1.48,.66Z"/><path class="cls-1" d="M687.84,458.74v-6.48h.95v1.57l-.16-.2c.08-.2,.17-.38,.3-.55,.12-.17,.26-.31,.41-.41,.17-.14,.36-.24,.57-.31,.21-.07,.43-.11,.65-.13,.22-.01,.43,0,.62,.04v1c-.22-.06-.47-.08-.74-.05-.27,.03-.52,.13-.74,.29-.21,.15-.37,.33-.48,.54-.11,.21-.19,.44-.24,.69-.04,.25-.07,.5-.07,.75v3.25h-1.07Z"/><path class="cls-1" d="M694.53,458.91c-.77,0-1.41-.17-1.9-.51s-.8-.81-.91-1.42l1.09-.17c.09,.35,.29,.63,.61,.84s.71,.31,1.18,.31,.79-.09,1.04-.28c.25-.18,.38-.43,.38-.75,0-.18-.04-.33-.12-.45s-.26-.22-.52-.32c-.26-.1-.66-.22-1.19-.36-.57-.15-1.02-.31-1.35-.47s-.56-.35-.7-.57c-.14-.22-.21-.48-.21-.79,0-.38,.1-.71,.31-1s.5-.51,.87-.66,.81-.23,1.3-.23,.93,.08,1.32,.23c.39,.16,.7,.38,.94,.66,.24,.29,.38,.62,.42,1l-1.09,.2c-.05-.35-.22-.62-.5-.82-.28-.2-.65-.31-1.09-.32-.42-.02-.76,.06-1.02,.22-.26,.16-.39,.39-.39,.67,0,.16,.05,.29,.15,.4,.1,.11,.28,.22,.55,.32,.27,.1,.65,.21,1.16,.34,.57,.14,1.02,.3,1.35,.47s.56,.37,.71,.6c.14,.23,.21,.51,.21,.85,0,.62-.23,1.12-.69,1.47-.46,.36-1.09,.54-1.9,.54Z"/></g><line class="cls-11" x1="134.9" y1="455.11" x2="152.83" y2="455.11"/><g><path class="cls-1" d="M160.82,458.74v-8.64h3.41c.08,0,.18,0,.3,0,.12,0,.23,.02,.34,.04,.47,.07,.86,.23,1.18,.48,.32,.25,.56,.56,.72,.94,.16,.38,.24,.8,.24,1.26s-.08,.87-.24,1.25-.4,.69-.72,.94-.71,.41-1.17,.48c-.11,.02-.22,.03-.34,.04-.12,0-.22,.01-.3,.01h-2.35v3.19h-1.07Zm1.07-4.21h2.31c.08,0,.16,0,.26-.01s.19-.02,.28-.04c.28-.06,.5-.18,.68-.35s.3-.37,.38-.6,.12-.46,.12-.71-.04-.47-.12-.71c-.08-.23-.21-.43-.38-.6s-.4-.29-.68-.35c-.09-.02-.18-.04-.28-.04s-.18,0-.26,0h-2.31v3.42Z"/><path class="cls-1" d="M168.21,458.74v-6.48h.95v1.57l-.16-.2c.08-.2,.17-.38,.3-.55s.26-.31,.41-.41c.17-.14,.36-.24,.57-.31,.21-.07,.43-.11,.65-.13,.22-.01,.43,0,.62,.04v1c-.22-.06-.47-.08-.74-.05-.27,.03-.52,.13-.74,.29-.21,.15-.37,.33-.48,.54-.11,.21-.19,.44-.24,.69s-.07,.5-.07,.75v3.25h-1.07Z"/><path class="cls-1" d="M172.81,451.11v-1.1h1.07v1.1h-1.07Zm0,7.63v-6.48h1.07v6.48h-1.07Z"/><path class="cls-1" d="M177.43,458.74l-2.35-6.48h1.08l1.82,5.12,1.81-5.12h1.09l-2.35,6.48h-1.09Z"/><path class="cls-1" d="M183.44,458.92c-.48,0-.89-.09-1.22-.27-.33-.18-.57-.41-.74-.71s-.25-.61-.25-.96,.06-.63,.2-.88c.13-.25,.31-.46,.55-.62s.52-.3,.85-.39c.31-.08,.65-.16,1.04-.22,.38-.06,.77-.12,1.16-.17s.76-.1,1.1-.15l-.38,.22c.01-.58-.1-1-.35-1.28-.24-.28-.66-.41-1.25-.41-.39,0-.74,.09-1.03,.27-.29,.18-.5,.47-.62,.87l-1.01-.31c.16-.57,.46-1.01,.91-1.34,.45-.32,1.04-.49,1.77-.49,.59,0,1.09,.11,1.52,.32,.42,.21,.72,.53,.91,.95,.09,.2,.15,.42,.17,.65,.02,.23,.04,.48,.04,.74v4.01h-.95v-1.55l.22,.14c-.24,.52-.58,.92-1.02,1.19-.44,.27-.97,.4-1.6,.4Zm.16-.89c.38,0,.72-.07,1-.21,.28-.14,.51-.32,.68-.55,.17-.23,.28-.47,.34-.74,.06-.2,.09-.42,.1-.67s0-.43,0-.57l.37,.16c-.35,.05-.69,.09-1.03,.14s-.65,.09-.95,.14-.57,.11-.81,.18c-.18,.06-.34,.13-.5,.22-.15,.09-.28,.2-.37,.34-.09,.14-.14,.31-.14,.51,0,.18,.04,.34,.13,.5s.23,.29,.42,.39c.19,.1,.44,.15,.75,.15Z"/><path class="cls-1" d="M187.63,453.14v-.88h4.34v.88h-4.34Zm4.34,5.6c-.38,.08-.76,.11-1.14,.09-.37-.01-.71-.09-1-.23-.29-.14-.51-.35-.67-.65-.13-.26-.2-.51-.21-.78,0-.26-.01-.56-.01-.89v-5.83h1.07v5.78c0,.26,0,.49,0,.68,0,.19,.05,.35,.12,.49,.14,.26,.37,.41,.69,.45s.69,.03,1.14-.04v.92Z"/><path class="cls-1" d="M195.82,458.92c-.63,0-1.19-.14-1.66-.42-.47-.28-.84-.68-1.11-1.18s-.4-1.1-.4-1.77,.13-1.32,.39-1.84c.26-.52,.62-.92,1.09-1.2,.47-.28,1.01-.42,1.64-.42s1.21,.15,1.66,.45c.46,.3,.8,.73,1.03,1.28,.23,.56,.33,1.22,.3,1.99h-1.08v-.38c-.01-.8-.17-1.39-.49-1.79-.31-.39-.78-.59-1.39-.59-.66,0-1.16,.21-1.51,.64-.34,.42-.52,1.03-.52,1.82s.17,1.36,.52,1.78,.83,.63,1.47,.63c.43,0,.8-.1,1.12-.29s.56-.48,.74-.85l1.03,.35c-.25,.57-.63,1.02-1.14,1.33-.51,.31-1.07,.47-1.7,.47Zm-2.39-3.12v-.86h4.79v.86h-4.79Z"/><path class="cls-1" d="M202.5,458.74v-6.48h.96v1.57l-.16-.2c.08-.2,.17-.38,.3-.55s.26-.31,.41-.41c.17-.14,.36-.24,.57-.31,.21-.07,.43-.11,.65-.13,.22-.01,.43,0,.62,.04v1c-.22-.06-.47-.08-.74-.05-.27,.03-.52,.13-.74,.29-.21,.15-.37,.33-.48,.54-.11,.21-.19,.44-.24,.69s-.07,.5-.07,.75v3.25h-1.07Z"/><path class="cls-1" d="M209.62,458.92c-.64,0-1.2-.15-1.67-.44-.47-.29-.82-.7-1.08-1.21-.25-.52-.38-1.11-.38-1.78s.13-1.28,.38-1.79c.26-.51,.62-.91,1.09-1.2,.47-.29,1.02-.43,1.65-.43s1.21,.15,1.67,.44c.47,.29,.83,.69,1.08,1.21,.25,.51,.38,1.1,.38,1.77s-.12,1.27-.38,1.79-.61,.92-1.08,1.21c-.47,.29-1.02,.43-1.67,.43Zm0-1.01c.67,0,1.17-.22,1.5-.67,.33-.45,.49-1.03,.49-1.74s-.17-1.31-.5-1.75c-.33-.43-.83-.65-1.49-.65-.45,0-.82,.1-1.12,.31-.29,.2-.51,.49-.65,.85-.14,.36-.22,.78-.22,1.25,0,.73,.17,1.31,.5,1.75,.34,.44,.83,.66,1.48,.66Z"/><path class="cls-1" d="M216.53,458.91c-.42,0-.77-.07-1.07-.2-.3-.13-.54-.31-.74-.53-.2-.22-.35-.46-.46-.73-.11-.27-.19-.54-.24-.82-.05-.28-.07-.54-.07-.79v-3.58h1.08v3.25c0,.3,.03,.6,.08,.88,.06,.28,.15,.54,.29,.77s.31,.41,.54,.54,.51,.2,.85,.2c.27,0,.51-.05,.73-.14,.22-.09,.41-.23,.56-.41,.16-.18,.28-.41,.36-.69s.13-.61,.13-.98l.7,.22c0,.62-.11,1.16-.34,1.61-.23,.45-.54,.8-.95,1.04-.41,.24-.89,.36-1.45,.36Zm2.16-.17v-1.73h-.12v-4.75h1.07v6.48h-.95Z"/><path class="cls-1" d="M221.32,458.74v-6.48h.96v1.73h.12v4.75h-1.08Zm4.62,0v-3.25c0-.31-.03-.6-.08-.89-.05-.28-.15-.54-.28-.77-.13-.23-.31-.4-.54-.54-.23-.13-.51-.2-.86-.2-.27,0-.51,.04-.73,.13-.22,.09-.4,.23-.56,.41s-.28,.42-.36,.69c-.09,.28-.13,.6-.13,.98l-.7-.22c0-.63,.11-1.17,.34-1.62,.23-.45,.54-.8,.95-1.04s.89-.36,1.45-.36c.42,0,.78,.07,1.07,.2,.3,.13,.54,.31,.74,.53,.2,.22,.35,.46,.46,.73,.11,.27,.19,.54,.24,.82s.07,.54,.07,.79v3.58h-1.08Z"/><path class="cls-1" d="M231.06,458.92c-.6,0-1.12-.15-1.55-.45-.43-.3-.76-.71-1-1.23-.23-.52-.35-1.1-.35-1.75s.12-1.23,.35-1.75c.23-.52,.57-.92,1-1.22,.43-.3,.95-.45,1.55-.45s1.12,.15,1.54,.44,.73,.7,.95,1.22c.21,.52,.32,1.1,.32,1.75s-.11,1.23-.32,1.74c-.21,.52-.53,.93-.95,1.23-.42,.3-.93,.45-1.54,.45Zm.13-.98c.44,0,.79-.11,1.07-.32,.28-.21,.49-.5,.62-.87,.13-.37,.2-.79,.2-1.26s-.07-.9-.2-1.27c-.13-.37-.34-.65-.61-.86s-.63-.31-1.05-.31-.8,.11-1.09,.32c-.29,.22-.5,.51-.64,.88-.14,.37-.21,.78-.21,1.24s.07,.88,.21,1.25c.14,.37,.35,.66,.63,.88,.28,.22,.63,.32,1.06,.32Zm1.9,.8v-4.77h-.12v-3.87h1.07v8.64h-.96Z"/><path class="cls-1" d="M238.17,458.91c-.77,0-1.4-.17-1.9-.51s-.8-.81-.91-1.42l1.09-.17c.09,.35,.29,.63,.61,.84s.71,.31,1.18,.31c.44,0,.79-.09,1.04-.28,.25-.18,.38-.43,.38-.75,0-.18-.04-.33-.13-.45s-.26-.22-.52-.32c-.26-.1-.66-.22-1.19-.36-.57-.15-1.02-.31-1.35-.47s-.56-.35-.7-.57c-.14-.22-.21-.48-.21-.79,0-.38,.1-.71,.31-1,.21-.29,.5-.51,.87-.66,.37-.16,.81-.23,1.3-.23s.93,.08,1.32,.23c.39,.16,.7,.38,.94,.66,.24,.29,.38,.62,.42,1l-1.09,.2c-.05-.35-.22-.62-.5-.82s-.65-.31-1.09-.32c-.42-.02-.76,.06-1.02,.22s-.39,.39-.39,.67c0,.16,.05,.29,.15,.4s.28,.22,.55,.32c.27,.1,.65,.21,1.16,.34,.57,.14,1.02,.3,1.35,.47s.56,.37,.71,.6c.14,.23,.21,.51,.21,.85,0,.62-.23,1.12-.69,1.47-.46,.36-1.09,.54-1.9,.54Z"/></g><path class="cls-1" d="M142.7,392.22c-.56,0-1.06-.13-1.5-.38-.44-.25-.78-.6-1.04-1.04-.25-.44-.38-.94-.38-1.5v-3.17c0-.56,.13-1.06,.38-1.5,.25-.44,.6-.79,1.04-1.04,.44-.25,.94-.38,1.5-.38s1.06,.13,1.5,.38c.44,.25,.79,.6,1.04,1.04,.25,.44,.38,.94,.38,1.5v3.17c0,.56-.12,1.06-.38,1.5-.25,.44-.6,.78-1.04,1.04-.44,.25-.94,.38-1.5,.38Zm0-1.03c.34,0,.65-.08,.92-.25s.5-.38,.66-.66,.25-.58,.25-.92v-3.29c0-.34-.08-.65-.25-.92-.16-.28-.38-.5-.66-.66s-.58-.25-.92-.25-.64,.08-.92,.25c-.28,.16-.5,.38-.66,.66-.16,.28-.25,.58-.25,.92v3.29c0,.34,.08,.64,.25,.92s.39,.5,.66,.66c.28,.16,.58,.25,.92,.25Z"/><g><path class="cls-1" d="M31.56,225.51c0,.86-.19,1.6-.57,2.21-.38,.61-.91,1.07-1.58,1.39s-1.46,.48-2.35,.48-1.68-.16-2.35-.48-1.2-.79-1.58-1.39c-.38-.61-.57-1.34-.57-2.21,0-1,.25-1.82,.76-2.47,.5-.65,1.18-1.11,2.03-1.37l.34,1.27c-.6,.17-1.08,.47-1.42,.9-.34,.43-.52,.99-.52,1.67,0,.61,.14,1.12,.41,1.53s.66,.71,1.16,.92,1.07,.31,1.73,.31c.66,0,1.24-.1,1.73-.3,.5-.21,.88-.51,1.16-.92,.28-.41,.41-.92,.41-1.53,0-.68-.17-1.24-.52-1.67-.35-.43-.82-.73-1.42-.9l.34-1.27c.85,.26,1.53,.71,2.03,1.37s.76,1.48,.76,2.47Z"/><path class="cls-1" d="M31.56,217.54c0,.65-.15,1.21-.44,1.69-.29,.48-.7,.84-1.21,1.1-.51,.26-1.11,.39-1.78,.39s-1.27-.13-1.79-.4c-.51-.26-.91-.63-1.2-1.11-.29-.48-.43-1.03-.43-1.67s.15-1.21,.44-1.69c.29-.48,.69-.84,1.21-1.1,.51-.26,1.1-.39,1.77-.39s1.27,.13,1.79,.39c.51,.26,.92,.63,1.21,1.11,.29,.48,.43,1.04,.43,1.68Zm-1.18,0c0-.62-.21-1.08-.63-1.39-.42-.31-.96-.46-1.62-.46s-1.22,.16-1.62,.46c-.41,.31-.61,.77-.61,1.38,0,.42,.09,.77,.28,1.04,.19,.27,.45,.47,.79,.61,.33,.13,.72,.2,1.16,.2,.68,0,1.22-.16,1.63-.47s.61-.77,.61-1.37Z"/><path class="cls-1" d="M23.84,212.92h-1.22v-1.25h1.22v1.25Zm7.54,0h-6.48v-1.25h6.48v1.25Z"/><path class="cls-1" d="M31.38,205.32h-3.19c-.25,0-.51,.02-.78,.06s-.51,.12-.74,.24c-.23,.12-.41,.28-.55,.5s-.21,.49-.21,.84c0,.22,.04,.44,.11,.64,.07,.2,.19,.38,.36,.53s.38,.27,.65,.35c.27,.09,.59,.13,.98,.13l-.29,.78c-.59,0-1.11-.11-1.56-.33-.45-.22-.8-.54-1.05-.95s-.38-.91-.38-1.49c0-.45,.07-.82,.22-1.13,.14-.3,.33-.55,.57-.74s.49-.33,.76-.43c.28-.1,.55-.17,.81-.21,.26-.04,.5-.05,.7-.05h3.6v1.27Zm0,4.55h-6.48v-1.12h1.87v-.15h4.61v1.27Z"/><path class="cls-1" d="M31.56,200.01c0,.79-.17,1.43-.52,1.93-.35,.5-.84,.8-1.47,.91l-.2-1.28c.34-.08,.6-.27,.79-.55,.19-.29,.29-.65,.29-1.08,0-.39-.08-.7-.24-.92s-.38-.33-.66-.33c-.16,0-.3,.04-.4,.12-.1,.08-.2,.24-.29,.49-.09,.25-.21,.63-.34,1.13-.14,.56-.3,1-.46,1.32-.17,.33-.36,.56-.58,.7-.22,.14-.49,.21-.81,.21-.39,0-.73-.1-1.03-.31s-.52-.5-.68-.88-.24-.82-.24-1.33,.08-.94,.23-1.33,.38-.7,.66-.94c.29-.24,.62-.38,1-.43l.23,1.28c-.31,.04-.56,.19-.74,.44-.18,.25-.28,.57-.29,.96-.02,.38,.05,.69,.19,.92,.14,.24,.34,.35,.58,.35,.14,0,.27-.04,.37-.14,.1-.09,.2-.26,.29-.52s.2-.64,.33-1.15c.14-.54,.29-.98,.46-1.3,.17-.32,.37-.55,.61-.69,.23-.14,.52-.21,.85-.21,.64,0,1.14,.23,1.51,.7s.55,1.11,.55,1.93Z"/></g><g><path class="cls-1" d="M434.24,410.94v-8.64h1.13l3.13,6.5,3.11-6.5h1.15v8.63h-1.19v-5.91l-2.79,5.92h-.57l-2.8-5.92v5.92h-1.18Z"/><path class="cls-1" d="M447.26,411.12c-.65,0-1.21-.15-1.69-.44-.48-.29-.84-.7-1.1-1.21-.26-.51-.39-1.11-.39-1.78s.13-1.27,.4-1.79c.26-.51,.63-.91,1.11-1.2,.48-.29,1.03-.43,1.67-.43s1.21,.15,1.69,.44c.48,.29,.84,.69,1.1,1.21,.26,.51,.39,1.1,.39,1.77s-.13,1.27-.39,1.79c-.26,.51-.63,.92-1.11,1.21-.48,.29-1.04,.43-1.68,.43Zm0-1.18c.62,0,1.08-.21,1.39-.63,.31-.42,.46-.96,.46-1.62s-.16-1.22-.46-1.62c-.31-.41-.77-.61-1.38-.61-.42,0-.77,.09-1.04,.28-.27,.19-.47,.45-.61,.79-.13,.33-.2,.72-.2,1.16,0,.68,.16,1.22,.47,1.63s.77,.61,1.37,.61Z"/><path class="cls-1" d="M451.76,410.94v-6.48h1.12v1.87h.15v4.61h-1.27Zm4.55,0v-3.19c0-.25-.02-.51-.06-.78s-.12-.51-.24-.74c-.12-.23-.28-.41-.5-.55s-.49-.21-.84-.21c-.22,0-.44,.04-.64,.11-.2,.07-.38,.19-.53,.36s-.27,.38-.35,.65c-.09,.27-.13,.59-.13,.98l-.78-.29c0-.59,.11-1.11,.33-1.56,.22-.45,.54-.8,.95-1.05s.91-.38,1.49-.38c.45,0,.82,.07,1.13,.22,.3,.14,.55,.33,.74,.57s.33,.49,.43,.76c.1,.28,.17,.55,.21,.81,.04,.26,.05,.5,.05,.7v3.6h-1.27Z"/><path class="cls-1" d="M458.42,405.46v-1.01h4.43v1.01h-4.43Zm4.43,5.47c-.41,.08-.81,.11-1.2,.1-.39-.01-.74-.09-1.05-.23s-.54-.36-.7-.66c-.14-.27-.21-.54-.22-.82,0-.28-.02-.59-.02-.94v-5.73h1.26v5.67c0,.26,0,.49,0,.68,0,.19,.05,.35,.12,.49,.14,.25,.37,.39,.69,.42,.31,.03,.68,.02,1.11-.04v1.06Z"/><path class="cls-1" d="M464.21,410.94v-8.64h1.12v4.66h.15v3.98h-1.27Zm4.55,0v-3.19c0-.25-.02-.51-.06-.78-.04-.27-.12-.51-.24-.74-.12-.23-.28-.41-.5-.55-.21-.14-.49-.21-.84-.21-.22,0-.44,.04-.64,.11-.2,.07-.38,.19-.53,.36-.15,.16-.27,.38-.35,.65-.09,.27-.13,.59-.13,.98l-.78-.29c0-.59,.11-1.11,.33-1.56,.22-.45,.54-.8,.95-1.05s.91-.38,1.49-.38c.45,0,.82,.07,1.13,.22,.3,.14,.55,.33,.74,.57,.19,.23,.33,.49,.43,.76,.1,.28,.17,.55,.2,.81s.05,.5,.05,.7v3.6h-1.27Z"/><path class="cls-1" d="M474.07,411.11c-.79,0-1.43-.17-1.93-.52-.5-.35-.8-.84-.91-1.47l1.28-.2c.08,.34,.26,.6,.55,.79,.29,.19,.65,.29,1.08,.29,.39,0,.7-.08,.92-.24,.22-.16,.33-.38,.33-.66,0-.16-.04-.3-.12-.4-.08-.1-.24-.2-.49-.29-.25-.09-.63-.21-1.13-.34-.56-.14-1-.3-1.32-.46s-.56-.36-.7-.58c-.14-.22-.21-.49-.21-.81,0-.39,.1-.73,.31-1.03,.21-.29,.5-.52,.88-.68,.38-.16,.82-.24,1.33-.24s.94,.08,1.33,.23c.39,.16,.7,.38,.94,.66s.38,.62,.43,1l-1.28,.23c-.04-.31-.19-.56-.44-.74-.25-.18-.57-.28-.97-.29-.38-.02-.69,.05-.92,.19-.24,.14-.35,.34-.35,.58,0,.14,.04,.27,.14,.37,.09,.1,.26,.2,.52,.29,.26,.09,.64,.2,1.15,.33,.54,.14,.98,.29,1.3,.46s.55,.37,.69,.61c.14,.23,.21,.52,.21,.85,0,.64-.23,1.14-.7,1.51-.47,.36-1.11,.55-1.93,.55Z"/></g><line class="cls-9" x1="134.9" y1="489.8" x2="152.83" y2="489.8"/><line class="cls-8" x1="322.98" y1="489.8" x2="340.91" y2="489.8"/><g><path class="cls-1" d="M160.49,493.43v-7.63h-2.95v-1.01h6.96v1.01h-2.95v7.63h-1.07Z"/><path class="cls-1" d="M167.26,493.61c-.64,0-1.2-.15-1.67-.44-.47-.29-.83-.7-1.08-1.21-.25-.52-.38-1.11-.38-1.78s.13-1.28,.38-1.79c.26-.51,.62-.91,1.09-1.2,.47-.29,1.02-.43,1.65-.43s1.21,.15,1.67,.44,.83,.69,1.08,1.21c.25,.51,.38,1.1,.38,1.77s-.13,1.27-.38,1.79-.61,.92-1.08,1.21-1.02,.43-1.67,.43Zm0-1.01c.67,0,1.17-.22,1.5-.67,.33-.45,.49-1.03,.49-1.74s-.17-1.31-.5-1.75c-.33-.43-.83-.65-1.49-.65-.45,0-.82,.1-1.12,.31s-.51,.49-.65,.85c-.14,.36-.22,.78-.22,1.25,0,.73,.17,1.31,.5,1.75,.34,.44,.83,.66,1.48,.66Z"/><path class="cls-1" d="M170.99,487.83v-.88h4.34v.88h-4.34Zm4.34,5.6c-.38,.08-.76,.11-1.14,.09-.38-.01-.71-.09-1-.23-.29-.14-.51-.35-.67-.65-.13-.26-.2-.51-.21-.78-.01-.26-.01-.56-.01-.89v-5.83h1.07v5.78c0,.26,0,.49,0,.68,0,.19,.05,.35,.12,.49,.14,.26,.37,.41,.69,.45,.31,.04,.69,.03,1.14-.04v.92Z"/><path class="cls-1" d="M178.49,493.61c-.48,0-.89-.09-1.21-.27s-.57-.41-.74-.71-.25-.61-.25-.96,.07-.63,.19-.88c.13-.25,.31-.46,.55-.62,.24-.17,.52-.3,.85-.39,.31-.08,.65-.16,1.04-.22,.38-.06,.77-.12,1.16-.17s.76-.1,1.1-.15l-.38,.22c.01-.58-.1-1-.34-1.28s-.66-.41-1.25-.41c-.39,0-.73,.09-1.03,.27-.29,.18-.5,.47-.62,.87l-1.01-.31c.16-.57,.46-1.01,.91-1.34,.45-.32,1.04-.49,1.77-.49,.59,0,1.09,.11,1.51,.32s.72,.53,.91,.95c.09,.2,.15,.42,.17,.65,.02,.23,.04,.48,.04,.74v4.01h-.95v-1.55l.22,.14c-.24,.52-.58,.92-1.02,1.19-.44,.27-.97,.4-1.6,.4Zm.16-.89c.38,0,.72-.07,1-.21,.28-.14,.51-.32,.68-.55,.17-.23,.28-.47,.34-.74,.06-.2,.09-.42,.1-.67s0-.43,0-.57l.37,.16c-.35,.05-.69,.09-1.03,.14s-.65,.09-.95,.14c-.3,.05-.57,.11-.81,.18-.18,.06-.34,.13-.49,.22-.15,.09-.28,.2-.37,.34-.09,.14-.14,.31-.14,.51,0,.18,.04,.34,.13,.5,.09,.16,.23,.29,.42,.39,.19,.1,.44,.15,.75,.15Z"/><path class="cls-1" d="M183.52,493.43v-8.82h1.07v8.82h-1.07Z"/><path class="cls-1" d="M191.51,493.61c-.66,0-1.21-.15-1.67-.44-.46-.29-.81-.7-1.05-1.21-.24-.52-.37-1.1-.37-1.76,0-.68,.14-1.27,.38-1.79,.25-.51,.6-.92,1.06-1.2,.46-.29,1.01-.43,1.66-.43,.68,0,1.27,.17,1.77,.5s.83,.8,.99,1.38l-1.06,.32c-.14-.38-.36-.67-.66-.88s-.66-.31-1.05-.31c-.44,0-.81,.1-1.1,.31-.29,.21-.5,.49-.64,.85-.14,.36-.21,.78-.22,1.25,0,.72,.17,1.3,.5,1.74,.33,.44,.81,.66,1.45,.66,.42,0,.78-.1,1.06-.29s.49-.47,.64-.84l1.08,.28c-.22,.6-.57,1.07-1.05,1.39-.48,.32-1.05,.48-1.72,.48Z"/><path class="cls-1" d="M195.46,485.8v-1.1h1.07v1.1h-1.07Zm0,7.63v-6.48h1.07v6.48h-1.07Z"/><path class="cls-1" d="M198.33,493.43v-6.48h.95v1.57l-.16-.2c.08-.2,.17-.38,.3-.55s.26-.31,.41-.41c.17-.14,.36-.24,.57-.31,.21-.07,.43-.11,.65-.13,.22-.01,.43,0,.62,.04v1c-.22-.06-.47-.08-.74-.05-.27,.03-.52,.13-.74,.29-.21,.15-.37,.33-.48,.54-.11,.21-.19,.44-.24,.69s-.07,.5-.07,.75v3.25h-1.07Z"/><path class="cls-1" d="M205.42,493.61c-.66,0-1.21-.15-1.67-.44s-.81-.7-1.05-1.21c-.24-.52-.36-1.1-.37-1.76,0-.68,.13-1.27,.38-1.79,.25-.51,.6-.92,1.06-1.2,.46-.29,1.01-.43,1.66-.43,.68,0,1.27,.17,1.77,.5s.82,.8,.99,1.38l-1.05,.32c-.14-.38-.36-.67-.66-.88-.31-.21-.66-.31-1.05-.31-.44,0-.81,.1-1.1,.31-.29,.21-.5,.49-.64,.85-.14,.36-.21,.78-.22,1.25,0,.72,.17,1.3,.5,1.74,.33,.44,.81,.66,1.46,.66,.42,0,.78-.1,1.06-.29,.28-.19,.49-.47,.64-.84l1.08,.28c-.22,.6-.57,1.07-1.05,1.39-.48,.32-1.05,.48-1.72,.48Z"/><path class="cls-1" d="M211.88,493.6c-.42,0-.77-.07-1.07-.2s-.54-.31-.74-.53c-.2-.22-.35-.46-.46-.73-.11-.27-.19-.54-.24-.82-.05-.28-.07-.54-.07-.79v-3.58h1.08v3.25c0,.3,.03,.6,.08,.88,.06,.28,.15,.54,.29,.77,.13,.23,.31,.41,.54,.54,.23,.13,.51,.2,.85,.2,.27,0,.51-.05,.73-.14,.22-.09,.41-.23,.56-.41,.16-.18,.28-.41,.36-.69s.13-.61,.13-.98l.7,.22c0,.62-.11,1.16-.34,1.61-.23,.45-.54,.8-.96,1.04-.41,.24-.89,.36-1.45,.36Zm2.16-.17v-1.73h-.12v-4.75h1.07v6.48h-.96Z"/><path class="cls-1" d="M216.79,493.43v-8.82h1.07v8.82h-1.07Z"/><path class="cls-1" d="M221.5,493.61c-.48,0-.89-.09-1.21-.27s-.57-.41-.74-.71-.25-.61-.25-.96,.07-.63,.19-.88c.13-.25,.31-.46,.55-.62,.24-.17,.52-.3,.85-.39,.31-.08,.65-.16,1.04-.22,.38-.06,.77-.12,1.16-.17s.76-.1,1.1-.15l-.38,.22c.01-.58-.1-1-.34-1.28s-.66-.41-1.25-.41c-.39,0-.73,.09-1.03,.27-.29,.18-.5,.47-.62,.87l-1.01-.31c.16-.57,.46-1.01,.91-1.34,.45-.32,1.04-.49,1.77-.49,.59,0,1.09,.11,1.51,.32s.72,.53,.91,.95c.09,.2,.15,.42,.17,.65,.02,.23,.04,.48,.04,.74v4.01h-.95v-1.55l.22,.14c-.24,.52-.58,.92-1.02,1.19-.44,.27-.97,.4-1.6,.4Zm.16-.89c.38,0,.72-.07,1-.21,.28-.14,.51-.32,.68-.55,.17-.23,.28-.47,.34-.74,.06-.2,.09-.42,.1-.67s0-.43,0-.57l.37,.16c-.35,.05-.69,.09-1.03,.14s-.65,.09-.95,.14c-.3,.05-.57,.11-.81,.18-.18,.06-.34,.13-.49,.22-.15,.09-.28,.2-.37,.34-.09,.14-.14,.31-.14,.51,0,.18,.04,.34,.13,.5,.09,.16,.23,.29,.42,.39,.19,.1,.44,.15,.75,.15Z"/><path class="cls-1" d="M225.69,487.83v-.88h4.34v.88h-4.34Zm4.34,5.6c-.38,.08-.76,.11-1.14,.09-.37-.01-.71-.09-1-.23-.29-.14-.51-.35-.67-.65-.13-.26-.2-.51-.21-.78-.01-.26-.02-.56-.02-.89v-5.83h1.07v5.78c0,.26,0,.49,0,.68,0,.19,.05,.35,.12,.49,.14,.26,.37,.41,.69,.45s.69,.03,1.14-.04v.92Z"/><path class="cls-1" d="M231.47,485.8v-1.1h1.07v1.1h-1.07Zm0,7.63v-6.48h1.07v6.48h-1.07Z"/><path class="cls-1" d="M234.33,493.43v-6.48h.96v1.73h.12v4.75h-1.08Zm4.62,0v-3.25c0-.31-.03-.6-.08-.89-.05-.28-.15-.54-.28-.77-.13-.23-.31-.4-.54-.54-.23-.13-.51-.2-.86-.2-.27,0-.51,.04-.73,.13-.22,.09-.41,.23-.56,.41-.16,.18-.28,.42-.36,.69-.09,.28-.13,.6-.13,.98l-.7-.22c0-.63,.11-1.17,.34-1.62,.23-.45,.54-.8,.95-1.04s.89-.36,1.45-.36c.42,0,.78,.07,1.07,.2s.54,.31,.74,.53c.2,.22,.35,.46,.46,.73,.11,.27,.19,.54,.24,.82,.04,.28,.07,.54,.07,.79v3.58h-1.08Z"/><path class="cls-1" d="M244.13,493.61c-.6,0-1.12-.15-1.55-.45-.43-.3-.77-.71-1-1.23-.23-.52-.35-1.1-.35-1.75s.12-1.23,.35-1.75c.23-.52,.57-.92,1-1.22,.43-.3,.95-.45,1.55-.45s1.13,.15,1.54,.44,.73,.7,.95,1.22c.21,.52,.32,1.1,.32,1.75s-.11,1.23-.32,1.74c-.21,.52-.53,.93-.95,1.23-.42,.3-.93,.45-1.54,.45Zm.08,2.88c-.34,0-.67-.05-1-.16-.32-.1-.62-.26-.89-.47-.27-.21-.49-.47-.67-.79l.98-.52c.16,.32,.39,.55,.68,.69,.29,.14,.6,.22,.91,.22,.41,0,.75-.08,1.03-.23,.27-.15,.47-.37,.6-.67s.19-.66,.19-1.1v-1.77h.13v-4.74h.95v6.52c0,.18,0,.35-.01,.51-.01,.16-.03,.33-.06,.49-.08,.46-.25,.84-.5,1.14s-.57,.52-.96,.67c-.39,.15-.85,.22-1.36,.22Zm.05-3.86c.44,0,.79-.11,1.07-.32,.28-.21,.49-.5,.62-.87,.13-.37,.2-.79,.2-1.26s-.07-.9-.2-1.27c-.13-.37-.34-.65-.62-.86-.28-.21-.63-.31-1.05-.31s-.8,.11-1.09,.32c-.29,.22-.5,.51-.64,.88-.14,.37-.21,.78-.21,1.24s.07,.88,.21,1.25c.14,.37,.35,.66,.63,.88,.28,.22,.63,.32,1.06,.32Z"/><path class="cls-1" d="M253.64,493.6c-.77,0-1.4-.17-1.9-.51s-.8-.81-.91-1.42l1.09-.17c.09,.35,.29,.63,.61,.84s.71,.31,1.18,.31c.44,0,.79-.09,1.04-.28,.25-.18,.38-.43,.38-.75,0-.18-.04-.33-.13-.45s-.26-.22-.52-.32c-.26-.1-.66-.22-1.19-.36-.57-.15-1.02-.31-1.35-.47s-.56-.35-.7-.57c-.14-.22-.21-.48-.21-.79,0-.38,.1-.71,.31-1,.21-.29,.5-.51,.87-.66,.37-.16,.81-.23,1.3-.23s.93,.08,1.32,.23c.39,.16,.7,.38,.94,.66,.24,.29,.38,.62,.42,1l-1.09,.2c-.05-.35-.22-.62-.5-.82s-.65-.31-1.09-.32c-.42-.02-.76,.06-1.02,.22s-.39,.39-.39,.67c0,.16,.05,.29,.15,.4s.28,.22,.55,.32c.27,.1,.65,.21,1.16,.34,.57,.14,1.02,.3,1.35,.47s.56,.37,.71,.6c.14,.23,.21,.51,.21,.85,0,.62-.23,1.12-.69,1.47-.46,.36-1.09,.54-1.9,.54Z"/><path class="cls-1" d="M260.02,493.6c-.42,0-.77-.07-1.07-.2s-.54-.31-.74-.53c-.2-.22-.35-.46-.46-.73-.11-.27-.19-.54-.24-.82-.04-.28-.07-.54-.07-.79v-3.58h1.08v3.25c0,.3,.03,.6,.08,.88,.06,.28,.15,.54,.29,.77,.13,.23,.31,.41,.54,.54,.23,.13,.51,.2,.85,.2,.27,0,.51-.05,.73-.14,.22-.09,.41-.23,.56-.41,.16-.18,.28-.41,.36-.69s.12-.61,.12-.98l.7,.22c0,.62-.11,1.16-.34,1.61-.23,.45-.54,.8-.95,1.04-.41,.24-.89,.36-1.45,.36Zm2.16-.17v-1.73h-.12v-4.75h1.07v6.48h-.95Z"/><path class="cls-1" d="M264.8,496.31v-9.36h.96v4.77h.12v4.59h-1.07Zm2.98-2.7c-.61,0-1.12-.15-1.54-.45-.42-.3-.73-.71-.94-1.23-.21-.52-.32-1.1-.32-1.74s.11-1.24,.32-1.75c.21-.52,.53-.92,.95-1.22s.93-.44,1.54-.44,1.12,.15,1.55,.45c.43,.3,.77,.71,1,1.22,.23,.52,.35,1.1,.35,1.75s-.12,1.23-.35,1.75c-.23,.52-.57,.92-1,1.23-.43,.3-.95,.45-1.56,.45Zm-.13-.98c.43,0,.78-.11,1.06-.32,.28-.22,.49-.51,.63-.88,.14-.37,.21-.79,.21-1.25s-.07-.87-.21-1.24c-.14-.37-.35-.66-.63-.88-.29-.22-.65-.32-1.09-.32s-.77,.1-1.04,.31-.48,.49-.62,.86c-.14,.37-.2,.79-.2,1.27s.07,.89,.2,1.26c.13,.37,.34,.66,.62,.87s.64,.32,1.07,.32Z"/><path class="cls-1" d="M272,496.31v-9.36h.95v4.77h.12v4.59h-1.07Zm2.98-2.7c-.61,0-1.12-.15-1.54-.45-.42-.3-.73-.71-.95-1.23s-.32-1.1-.32-1.74,.11-1.24,.32-1.75,.53-.92,.95-1.22c.42-.3,.93-.44,1.54-.44s1.12,.15,1.55,.45,.77,.71,1,1.22c.23,.52,.35,1.1,.35,1.75s-.12,1.23-.35,1.75-.56,.92-1,1.23c-.43,.3-.95,.45-1.56,.45Zm-.13-.98c.43,0,.78-.11,1.06-.32s.49-.51,.63-.88,.21-.79,.21-1.25-.07-.87-.21-1.24c-.14-.37-.35-.66-.64-.88-.29-.22-.65-.32-1.09-.32s-.77,.1-1.04,.31c-.28,.21-.48,.49-.62,.86-.14,.37-.2,.79-.2,1.27s.07,.89,.2,1.26c.13,.37,.34,.66,.62,.87,.28,.21,.64,.32,1.07,.32Z"/><path class="cls-1" d="M279.33,493.43v-8.82h1.07v8.82h-1.07Z"/><path class="cls-1" d="M283.1,496.31l1.25-3.41,.02,1.01-2.83-6.96h1.12l2.22,5.6h-.38l2.08-5.6h1.09l-3.53,9.36h-1.04Z"/></g><g><path class="cls-1" d="M351.13,493.43v-7.63h-2.95v-1.01h6.96v1.01h-2.95v7.63h-1.07Z"/><path class="cls-1" d="M357.9,493.61c-.64,0-1.2-.15-1.67-.44-.47-.29-.83-.7-1.08-1.21-.25-.52-.38-1.11-.38-1.78s.13-1.28,.38-1.79c.26-.51,.62-.91,1.09-1.2,.47-.29,1.02-.43,1.65-.43s1.21,.15,1.67,.44,.83,.69,1.08,1.21c.25,.51,.38,1.1,.38,1.77s-.13,1.27-.38,1.79-.61,.92-1.08,1.21-1.02,.43-1.67,.43Zm0-1.01c.67,0,1.17-.22,1.5-.67,.33-.45,.49-1.03,.49-1.74s-.17-1.31-.5-1.75c-.33-.43-.83-.65-1.49-.65-.45,0-.82,.1-1.12,.31s-.51,.49-.65,.85c-.14,.36-.22,.78-.22,1.25,0,.73,.17,1.31,.5,1.75,.34,.44,.83,.66,1.48,.66Z"/><path class="cls-1" d="M361.63,487.83v-.88h4.34v.88h-4.34Zm4.34,5.6c-.38,.08-.76,.11-1.14,.09-.38-.01-.71-.09-1-.23-.29-.14-.51-.35-.67-.65-.13-.26-.2-.51-.21-.78-.01-.26-.01-.56-.01-.89v-5.83h1.07v5.78c0,.26,0,.49,0,.68,0,.19,.05,.35,.12,.49,.14,.26,.37,.41,.69,.45,.31,.04,.69,.03,1.14-.04v.92Z"/><path class="cls-1" d="M369.13,493.61c-.48,0-.89-.09-1.21-.27s-.57-.41-.74-.71-.25-.61-.25-.96,.07-.63,.19-.88c.13-.25,.31-.46,.55-.62,.24-.17,.52-.3,.85-.39,.31-.08,.65-.16,1.04-.22,.38-.06,.77-.12,1.16-.17s.76-.1,1.1-.15l-.38,.22c.01-.58-.1-1-.34-1.28s-.66-.41-1.25-.41c-.39,0-.73,.09-1.03,.27-.29,.18-.5,.47-.62,.87l-1.01-.31c.16-.57,.46-1.01,.91-1.34,.45-.32,1.04-.49,1.77-.49,.59,0,1.09,.11,1.51,.32s.72,.53,.91,.95c.09,.2,.15,.42,.17,.65,.02,.23,.04,.48,.04,.74v4.01h-.95v-1.55l.22,.14c-.24,.52-.58,.92-1.02,1.19-.44,.27-.97,.4-1.6,.4Zm.16-.89c.38,0,.72-.07,1-.21,.28-.14,.51-.32,.68-.55,.17-.23,.28-.47,.34-.74,.06-.2,.09-.42,.1-.67s0-.43,0-.57l.37,.16c-.35,.05-.69,.09-1.03,.14s-.65,.09-.95,.14c-.3,.05-.57,.11-.81,.18-.18,.06-.34,.13-.49,.22-.15,.09-.28,.2-.37,.34-.09,.14-.14,.31-.14,.51,0,.18,.04,.34,.13,.5,.09,.16,.23,.29,.42,.39,.19,.1,.44,.15,.75,.15Z"/><path class="cls-1" d="M374.16,493.43v-8.82h1.07v8.82h-1.07Z"/><path class="cls-1" d="M381.87,493.6c-.77,0-1.41-.17-1.9-.51-.49-.34-.8-.81-.91-1.42l1.09-.17c.09,.35,.29,.63,.61,.84,.32,.21,.71,.31,1.18,.31,.44,0,.79-.09,1.04-.28,.25-.18,.38-.43,.38-.75,0-.18-.04-.33-.13-.45s-.26-.22-.52-.32c-.26-.1-.66-.22-1.18-.36-.57-.15-1.02-.31-1.35-.47-.33-.16-.56-.35-.7-.57-.14-.22-.21-.48-.21-.79,0-.38,.1-.71,.31-1s.5-.51,.87-.66,.81-.23,1.3-.23,.93,.08,1.32,.23,.7,.38,.94,.66,.38,.62,.42,1l-1.09,.2c-.05-.35-.22-.62-.5-.82-.28-.2-.64-.31-1.09-.32-.42-.02-.76,.06-1.02,.22s-.39,.39-.39,.67c0,.16,.05,.29,.15,.4s.28,.22,.55,.32c.27,.1,.65,.21,1.16,.34,.57,.14,1.02,.3,1.35,.47s.57,.37,.71,.6c.14,.23,.21,.51,.21,.85,0,.62-.23,1.12-.69,1.47-.46,.36-1.09,.54-1.9,.54Z"/><path class="cls-1" d="M388.25,493.6c-.42,0-.77-.07-1.07-.2s-.54-.31-.74-.53c-.2-.22-.35-.46-.46-.73-.11-.27-.19-.54-.24-.82-.05-.28-.07-.54-.07-.79v-3.58h1.08v3.25c0,.3,.03,.6,.08,.88,.06,.28,.15,.54,.29,.77,.13,.23,.31,.41,.54,.54,.23,.13,.51,.2,.85,.2,.27,0,.51-.05,.73-.14,.22-.09,.41-.23,.56-.41,.16-.18,.28-.41,.36-.69s.13-.61,.13-.98l.7,.22c0,.62-.11,1.16-.34,1.61-.23,.45-.54,.8-.96,1.04-.41,.24-.89,.36-1.45,.36Zm2.16-.17v-1.73h-.12v-4.75h1.07v6.48h-.96Z"/><path class="cls-1" d="M393.04,496.31v-9.36h.95v4.77h.12v4.59h-1.07Zm2.98-2.7c-.61,0-1.12-.15-1.54-.45-.42-.3-.73-.71-.95-1.23-.21-.52-.32-1.1-.32-1.74s.11-1.24,.32-1.75c.21-.52,.53-.92,.95-1.22,.42-.3,.93-.44,1.54-.44s1.12,.15,1.55,.45c.43,.3,.77,.71,1,1.22,.23,.52,.35,1.1,.35,1.75s-.12,1.23-.35,1.75c-.23,.52-.56,.92-1,1.23-.43,.3-.95,.45-1.56,.45Zm-.13-.98c.43,0,.78-.11,1.06-.32,.28-.22,.49-.51,.63-.88,.14-.37,.21-.79,.21-1.25s-.07-.87-.21-1.24c-.14-.37-.35-.66-.64-.88-.29-.22-.65-.32-1.09-.32s-.77,.1-1.04,.31c-.28,.21-.48,.49-.62,.86-.14,.37-.21,.79-.21,1.27s.07,.89,.2,1.26c.13,.37,.34,.66,.62,.87,.28,.21,.64,.32,1.07,.32Z"/><path class="cls-1" d="M400.24,496.31v-9.36h.95v4.77h.12v4.59h-1.07Zm2.98-2.7c-.61,0-1.12-.15-1.54-.45-.42-.3-.73-.71-.94-1.23s-.32-1.1-.32-1.74,.11-1.24,.32-1.75,.53-.92,.95-1.22,.93-.44,1.54-.44,1.12,.15,1.55,.45,.77,.71,1,1.22c.23,.52,.35,1.1,.35,1.75s-.12,1.23-.35,1.75-.57,.92-1,1.23c-.43,.3-.95,.45-1.56,.45Zm-.13-.98c.43,0,.78-.11,1.06-.32,.28-.22,.49-.51,.63-.88s.21-.79,.21-1.25-.07-.87-.21-1.24c-.14-.37-.35-.66-.64-.88-.29-.22-.65-.32-1.09-.32s-.77,.1-1.04,.31c-.28,.21-.48,.49-.62,.86-.14,.37-.2,.79-.2,1.27s.07,.89,.2,1.26c.13,.37,.34,.66,.62,.87,.28,.21,.64,.32,1.07,.32Z"/><path class="cls-1" d="M407.57,493.43v-8.82h1.07v8.82h-1.07Z"/><path class="cls-1" d="M411.33,496.31l1.25-3.41,.02,1.01-2.83-6.96h1.12l2.22,5.6h-.38l2.08-5.6h1.09l-3.53,9.36h-1.04Z"/></g><polyline class="cls-7" points="142.35 305.59 157.96 301.54 173.58 296.06 189.19 289.13 204.81 282.37 220.42 275.61 236.04 257.47 251.65 250.24 267.27 243.48 282.88 236.72 298.5 229.96 314.11 223.34 329.73 178.05 345.34 172.85 360.96 167.66 376.57 162.46 392.19 159.13 407.8 155.81 423.42 152.48 439.03 149.15 454.65 145.82 470.26 142.5 485.88 139.17 501.49 135.84 517.11 117.73 532.72 115.02 548.34 112.31 563.95 109.59 579.57 106.88 595.18 104.17 610.8 101.46 626.41 98.75 642.02 96.04 657.64 93.32 673.25 90.61 688.87 87.9 704.48 85.19 720.1 82.48 735.71 79.76 751.33 77.05"/><polyline class="cls-6" points="142.35 77.05 157.96 77.05 173.58 77.05 189.19 77.05 204.81 77.05 220.42 77.05 236.04 77.05 251.65 77.05 267.27 77.05 282.88 77.05 298.5 77.05 314.11 77.05 329.73 77.05 345.34 77.05 360.96 77.05 376.57 77.05 392.19 77.05 407.8 77.05 423.42 77.05 439.03 77.05 454.65 77.05 470.26 77.05 485.88 77.05 501.49 77.05 517.11 77.05 532.72 77.05 548.34 77.05 563.95 77.05 579.57 77.05 595.18 77.05 610.8 77.05 626.41 77.05 642.02 77.05 657.64 77.05 673.25 77.05 688.87 77.05 704.48 77.05 720.1 77.05 735.71 77.05 751.33 77.05"/></svg>