<?xml version="1.0" encoding="UTF-8"?><svg id="Layer_1" xmlns="http://www.w3.org/2000/svg" viewBox="0 0 469.31 270.94"><defs><style>.cls-1{stroke-dasharray:0 0 0 1.5;}.cls-1,.cls-2{stroke:#98bcff;stroke-linejoin:round;stroke-width:.75px;}.cls-1,.cls-2,.cls-3,.cls-4,.cls-5{fill:none;}.cls-1,.cls-2,.cls-4{stroke-linecap:round;}.cls-6{fill:#001c32;}.cls-7{fill:#8f8f9b;}.cls-3{stroke:#8f8f9b;stroke-width:.25px;}.cls-4{stroke:#317aff;stroke-width:2px;}.cls-4,.cls-5{stroke-miterlimit:10;}.cls-5{stroke:#001c32;}</style></defs><g><path class="cls-7" d="M26,118.99h-8.64v-.7l7.41-5h-7.41v-.7h8.64v.7l-7.42,5h7.42v.7Z"/><path class="cls-7" d="M26.18,108.25c0,.64-.15,1.19-.44,1.64-.29,.45-.7,.79-1.21,1.03-.52,.24-1.11,.35-1.78,.35s-1.27-.12-1.79-.36c-.51-.24-.91-.58-1.2-1.04-.28-.45-.43-.99-.43-1.62s.15-1.19,.44-1.64c.29-.45,.69-.79,1.2-1.03,.51-.23,1.1-.35,1.77-.35s1.28,.12,1.8,.35c.51,.24,.92,.58,1.2,1.03s.43,1,.43,1.63Zm-.67,0c0-.76-.26-1.33-.77-1.71s-1.18-.57-1.99-.57-1.5,.19-1.99,.57-.74,.95-.74,1.71c0,.52,.12,.94,.35,1.28,.23,.34,.56,.59,.97,.75s.88,.25,1.42,.25c.83,0,1.5-.19,2-.58s.76-.95,.76-1.7Z"/><path class="cls-7" d="M26,99.22h-4.99v.06h-3.65v-.69h8.64v.63Zm.18,2.21c0,.61-.15,1.13-.45,1.55-.3,.42-.71,.74-1.23,.96-.52,.22-1.1,.33-1.75,.33s-1.22-.11-1.73-.33c-.52-.22-.92-.54-1.22-.95s-.45-.92-.45-1.5,.15-1.11,.44-1.53,.7-.73,1.21-.94c.51-.21,1.1-.32,1.75-.32s1.23,.11,1.75,.32c.52,.21,.93,.52,1.23,.92,.3,.4,.46,.9,.46,1.48Zm-.66-.04c0-.48-.12-.89-.36-1.21s-.57-.56-.99-.72c-.42-.16-.89-.24-1.42-.24s-1.01,.08-1.42,.24-.74,.4-.98,.72c-.23,.32-.35,.72-.35,1.19s.12,.9,.36,1.22c.24,.32,.57,.56,.98,.71s.88,.23,1.4,.23,1-.08,1.41-.24,.75-.4,.99-.72,.37-.71,.37-1.19Z"/><path class="cls-7" d="M26.18,94.24c0,.62-.14,1.16-.42,1.61-.28,.45-.67,.8-1.18,1.05s-1.11,.37-1.81,.37-1.32-.12-1.83-.37c-.51-.25-.91-.59-1.19-1.04-.28-.45-.41-.98-.41-1.6s.14-1.17,.43-1.61c.29-.45,.7-.79,1.24-1.02s1.19-.34,1.95-.33v.72h-.24c-.89,.02-1.56,.22-2.03,.6-.46,.38-.7,.92-.7,1.63s.24,1.3,.72,1.69c.48,.4,1.16,.6,2.04,.6s1.55-.2,2.03-.6c.48-.4,.72-.96,.72-1.68,0-.5-.12-.94-.35-1.31-.23-.37-.57-.67-1-.89l.28-.62c.56,.26,.99,.64,1.3,1.13,.3,.49,.46,1.05,.46,1.69Zm-3.22,2.56h-.62v-5.12h.62v5.12Z"/><path class="cls-7" d="M26,87.56h-8.64v-3.26c0-.08,0-.17,0-.27,0-.1,.02-.2,.04-.31,.07-.43,.22-.8,.46-1.11,.24-.31,.55-.55,.91-.71s.77-.25,1.21-.25c.64,0,1.19,.17,1.66,.51,.47,.34,.77,.81,.9,1.42l.08,.2v3.09h3.37v.69Zm-4.04-.69v-2.56c0-.07,0-.15-.01-.25,0-.09-.02-.19-.04-.29-.06-.31-.19-.57-.38-.78-.19-.21-.42-.36-.69-.47-.27-.1-.55-.16-.85-.16s-.58,.05-.84,.16c-.27,.1-.49,.26-.68,.47-.19,.21-.32,.47-.38,.78-.02,.1-.03,.19-.04,.29s-.01,.18-.01,.25v2.56h3.92Zm4.04-4.63l-3.52,1.71-.32-.64,3.84-1.87v.81Z"/><path class="cls-7" d="M26,75.41h-1.46v.07h-5.02v-.7h6.48v.63Zm.15,2.2c0,.36-.05,.68-.16,.96-.1,.28-.25,.53-.44,.73-.19,.21-.41,.38-.67,.52s-.54,.24-.85,.3c-.31,.07-.63,.1-.97,.1h-3.55v-.7h3.37c.41,0,.77-.04,1.09-.12,.32-.08,.59-.21,.82-.37,.22-.17,.39-.37,.51-.62,.12-.25,.17-.54,.17-.88s-.06-.66-.18-.92-.29-.47-.51-.64-.48-.29-.78-.37-.63-.12-.99-.12l.07-.55c.7,0,1.28,.12,1.73,.36,.45,.24,.79,.56,1.01,.96,.22,.4,.33,.86,.33,1.36Z"/><path class="cls-7" d="M26,68.36h-3.37c-.41,0-.77,.04-1.09,.12s-.59,.21-.82,.37c-.22,.17-.39,.37-.51,.62s-.17,.54-.17,.88,.06,.66,.18,.92,.29,.47,.51,.64c.22,.17,.48,.29,.78,.37,.3,.08,.63,.12,.99,.12l-.07,.55c-.7,0-1.28-.12-1.73-.36-.45-.24-.79-.56-1.01-.96-.22-.4-.33-.86-.33-1.36,0-.36,.05-.68,.16-.96,.1-.28,.25-.53,.44-.73,.19-.21,.41-.38,.67-.52,.26-.14,.54-.24,.85-.3,.31-.07,.63-.1,.97-.1h3.55v.7Zm0,4.75h-6.48v-.63h1.46v-.07h5.02v.7Z"/><path class="cls-7" d="M26,61.36h-3.37c-.41,0-.77,.04-1.09,.12s-.59,.21-.82,.37c-.22,.17-.39,.37-.51,.62s-.17,.54-.17,.88,.06,.66,.18,.92,.29,.47,.51,.64c.22,.17,.48,.29,.78,.37,.3,.08,.63,.12,.99,.12l-.07,.55c-.7,0-1.28-.12-1.73-.36-.45-.24-.79-.56-1.01-.96-.22-.4-.33-.86-.33-1.36,0-.36,.05-.68,.16-.96,.1-.28,.25-.53,.44-.73,.19-.21,.41-.38,.67-.52,.26-.14,.54-.24,.85-.3,.31-.07,.63-.1,.97-.1h3.55v.7Zm0,4.75h-6.48v-.63h1.46v-.07h5.02v.7Z"/><path class="cls-7" d="M26.18,56.43c0,.62-.14,1.16-.42,1.61-.28,.45-.67,.8-1.18,1.05s-1.11,.37-1.81,.37-1.32-.12-1.83-.37c-.51-.25-.91-.59-1.19-1.04-.28-.45-.41-.99-.41-1.61s.14-1.17,.43-1.61c.29-.45,.7-.79,1.24-1.02s1.19-.35,1.95-.33v.72h-.24c-.89,.02-1.56,.22-2.03,.6-.46,.38-.7,.92-.7,1.63s.24,1.3,.72,1.7c.48,.4,1.16,.6,2.04,.6s1.55-.2,2.03-.6c.48-.4,.72-.96,.72-1.68,0-.5-.12-.94-.35-1.31-.23-.38-.57-.67-1-.89l.28-.62c.56,.26,.99,.64,1.3,1.13,.3,.49,.46,1.05,.46,1.69Zm-3.22,2.56h-.62v-5.12h.62v5.12Z"/><path class="cls-7" d="M26,52.15h-6.48v-.63h1.55l-.2,.16c-.18-.07-.36-.16-.51-.27-.16-.11-.29-.22-.39-.34-.16-.17-.28-.37-.36-.61s-.13-.47-.14-.7c-.01-.24,0-.45,.06-.64h.65c-.06,.26-.07,.53-.04,.82,.04,.29,.16,.56,.37,.81,.19,.22,.42,.38,.67,.48,.25,.1,.52,.16,.8,.19,.28,.03,.55,.04,.81,.04h3.21v.7Z"/><path class="cls-7" d="M26.17,45.82c0,.75-.16,1.36-.47,1.85-.32,.49-.76,.79-1.32,.9l-.12-.71c.38-.1,.69-.34,.92-.71,.23-.37,.34-.83,.34-1.37s-.11-.96-.34-1.28c-.23-.32-.54-.47-.94-.47-.22,0-.39,.05-.53,.15-.14,.1-.26,.29-.38,.58s-.25,.72-.41,1.28c-.16,.6-.32,1.07-.48,1.41-.16,.34-.34,.58-.55,.71s-.45,.21-.75,.21c-.36,0-.67-.1-.94-.3-.27-.21-.48-.49-.63-.86-.15-.37-.23-.79-.23-1.27s.08-.91,.24-1.29c.16-.38,.38-.7,.66-.93,.28-.24,.61-.37,.98-.41l.13,.71c-.42,.07-.74,.28-.99,.63-.24,.35-.37,.79-.37,1.32,0,.5,.09,.91,.3,1.22,.21,.32,.48,.47,.81,.47,.19,0,.36-.05,.49-.17,.13-.11,.26-.31,.37-.58,.11-.28,.23-.68,.36-1.19,.16-.62,.32-1.11,.49-1.46,.17-.35,.36-.6,.59-.74,.23-.14,.5-.22,.84-.22,.6,0,1.07,.22,1.41,.67,.34,.45,.51,1.06,.51,1.84Z"/></g><g><path class="cls-6" d="M47.56,48.41v-6.38l-1.35,.81v-.82l1.35-.81h.75v7.2h-.75Z"/><path class="cls-6" d="M49.96,48.41v-.86h.86v.86h-.86Z"/><path class="cls-6" d="M52.15,48.41v-.67s3.26-2.94,3.26-2.94c.28-.25,.47-.49,.56-.72,.09-.23,.14-.47,.14-.72,0-.3-.07-.57-.21-.81-.14-.24-.33-.43-.57-.57-.24-.14-.5-.21-.8-.21s-.58,.07-.82,.22c-.24,.15-.43,.34-.57,.58-.14,.24-.21,.5-.2,.79h-.75c0-.44,.1-.83,.31-1.18s.49-.62,.84-.82,.75-.3,1.2-.3,.83,.1,1.18,.31c.35,.21,.62,.48,.83,.83,.2,.35,.3,.74,.3,1.16,0,.3-.04,.56-.11,.79-.07,.23-.18,.44-.33,.64-.15,.19-.34,.4-.58,.6l-2.89,2.61-.12-.3h4.03v.71h-4.7Z"/><path class="cls-6" d="M58.05,48.41v-5.4h.66v1.33h.08v4.07h-.74Zm3.23,0v-3.5c0-.43-.11-.77-.34-1.02-.23-.25-.53-.37-.9-.37s-.67,.13-.9,.38c-.23,.26-.35,.59-.35,1.02l-.44-.24c0-.35,.08-.66,.25-.93,.16-.28,.39-.49,.67-.65,.28-.16,.6-.24,.96-.24s.65,.07,.92,.22c.27,.15,.48,.36,.63,.64,.15,.28,.23,.62,.23,1.02v3.67h-.73Zm3.21,0v-3.54c0-.42-.11-.74-.34-.98-.23-.24-.53-.36-.88-.36-.2,0-.4,.05-.6,.14-.19,.09-.35,.24-.48,.45s-.19,.48-.19,.81l-.44-.12c0-.39,.07-.72,.23-1.01,.16-.29,.39-.52,.67-.68,.28-.16,.61-.24,.97-.24,.54,0,.98,.17,1.3,.5,.33,.34,.49,.79,.49,1.36v3.68h-.74Z"/></g><g><path class="cls-6" d="M53.49,76.15v-6.38l-1.36,.81v-.82l1.36-.81h.75v7.2h-.75Z"/><path class="cls-6" d="M56.13,76.15v-5.4h.66v1.33h.08v4.07h-.74Zm3.23,0v-3.5c0-.43-.11-.77-.34-1.02-.23-.25-.53-.37-.9-.37s-.67,.13-.91,.38c-.23,.26-.34,.59-.34,1.02l-.44-.24c0-.35,.08-.66,.25-.93,.16-.28,.39-.49,.67-.65,.28-.16,.6-.24,.96-.24s.65,.07,.92,.22,.48,.36,.63,.64c.15,.28,.23,.62,.23,1.02v3.67h-.73Zm3.22,0v-3.54c0-.42-.11-.74-.34-.98-.23-.24-.53-.36-.88-.36-.2,0-.4,.05-.59,.14-.19,.09-.35,.24-.48,.45s-.19,.48-.19,.81l-.43-.12c-.01-.39,.07-.72,.23-1.01s.38-.52,.67-.68c.29-.16,.61-.24,.97-.24,.54,0,.98,.17,1.31,.5,.33,.34,.49,.79,.49,1.36v3.68h-.74Z"/></g><g><path class="cls-6" d="M47.02,104.04c-.45,0-.85-.09-1.19-.27-.35-.18-.62-.43-.81-.76-.2-.32-.29-.71-.29-1.14s.11-.84,.33-1.19c.22-.35,.55-.61,.99-.79v.29c-.38-.14-.66-.36-.86-.67-.19-.31-.29-.65-.29-1.03,0-.4,.09-.74,.27-1.03,.18-.29,.43-.51,.75-.67,.32-.16,.68-.23,1.1-.23s.78,.08,1.1,.23c.32,.16,.57,.38,.75,.67s.28,.63,.28,1.03c0,.38-.09,.72-.28,1.03s-.47,.53-.85,.67l-.03-.29c.44,.18,.78,.44,1,.79,.22,.35,.33,.75,.33,1.2s-.1,.82-.29,1.14c-.2,.33-.47,.58-.81,.76-.35,.18-.75,.27-1.2,.27Zm0-.71c.45,0,.82-.13,1.1-.38s.43-.61,.43-1.09-.14-.84-.42-1.09c-.28-.25-.65-.37-1.11-.37s-.83,.12-1.1,.37c-.28,.25-.42,.61-.42,1.09s.14,.83,.42,1.09c.28,.25,.65,.38,1.1,.38Zm0-3.64c.4,0,.73-.1,.98-.31,.25-.2,.38-.51,.38-.91s-.12-.71-.38-.91c-.25-.2-.58-.3-.98-.3s-.72,.1-.97,.3c-.25,.2-.37,.5-.37,.91s.12,.71,.37,.91c.25,.21,.57,.31,.97,.31Z"/><path class="cls-6" d="M52.98,104.04c-.44,0-.84-.1-1.2-.31-.36-.21-.64-.49-.84-.84-.21-.35-.31-.75-.31-1.2v-2.8c0-.44,.1-.84,.31-1.2,.21-.36,.49-.64,.84-.84,.35-.21,.75-.31,1.2-.31s.84,.1,1.2,.31,.64,.49,.84,.84c.21,.35,.31,.75,.31,1.2v2.8c0,.44-.1,.84-.31,1.2-.21,.36-.49,.64-.84,.84-.36,.21-.75,.31-1.2,.31Zm0-.71c.3,0,.57-.07,.81-.22,.24-.15,.44-.34,.58-.58,.14-.24,.21-.51,.21-.8v-2.87c0-.3-.07-.57-.21-.81s-.34-.44-.58-.58c-.24-.14-.51-.22-.81-.22s-.57,.07-.81,.22c-.24,.15-.44,.34-.58,.58-.14,.24-.21,.51-.21,.81v2.87c0,.29,.07,.56,.21,.8,.14,.24,.34,.44,.58,.58,.24,.14,.51,.22,.81,.22Z"/><path class="cls-6" d="M59.08,104.04c-.44,0-.84-.1-1.2-.31-.36-.21-.64-.49-.84-.84-.21-.35-.31-.75-.31-1.2v-2.8c0-.44,.1-.84,.31-1.2,.21-.36,.49-.64,.84-.84s.75-.31,1.2-.31,.84,.1,1.2,.31c.36,.21,.64,.49,.84,.84,.21,.35,.31,.75,.31,1.2v2.8c0,.44-.1,.84-.31,1.2-.21,.36-.49,.64-.84,.84-.35,.21-.75,.31-1.2,.31Zm0-.71c.3,0,.57-.07,.81-.22,.24-.15,.44-.34,.58-.58,.14-.24,.21-.51,.21-.8v-2.87c0-.3-.07-.57-.21-.81-.14-.24-.34-.44-.58-.58-.24-.14-.51-.22-.81-.22s-.57,.07-.81,.22c-.24,.15-.44,.34-.58,.58s-.22,.51-.22,.81v2.87c0,.29,.07,.56,.22,.8,.14,.24,.34,.44,.58,.58,.24,.14,.51,.22,.81,.22Z"/><path class="cls-6" d="M62.83,103.89v-7.2h.75v4.4l2.41-2.6h.98l-2.53,2.7,2.86,2.7h-1.07l-2.65-2.6v2.6h-.75Z"/></g><g><path class="cls-6" d="M46.98,131.78c-.45,0-.86-.11-1.23-.33-.37-.22-.66-.51-.88-.89-.22-.38-.33-.8-.33-1.27v-2.5c0-.48,.11-.91,.33-1.29,.22-.38,.51-.68,.89-.9,.38-.22,.8-.33,1.28-.33,.41,0,.79,.09,1.14,.27,.35,.18,.64,.43,.86,.75l-.57,.46c-.15-.24-.36-.43-.61-.57-.25-.14-.53-.21-.83-.21-.34,0-.64,.08-.9,.24-.26,.16-.47,.38-.62,.64-.15,.27-.23,.55-.23,.86v1.57l-.18-.21c.21-.33,.49-.6,.83-.8s.71-.3,1.12-.3c.45,0,.85,.11,1.21,.32,.36,.21,.64,.5,.85,.86,.21,.36,.31,.76,.31,1.21s-.11,.85-.33,1.21-.52,.65-.88,.87c-.37,.22-.78,.33-1.22,.33Zm0-.72c.31,0,.6-.07,.86-.22s.46-.35,.62-.61c.15-.26,.23-.54,.23-.85s-.08-.6-.23-.86c-.15-.26-.36-.46-.61-.62-.26-.15-.54-.23-.85-.23s-.6,.08-.85,.23c-.26,.15-.46,.36-.61,.62-.15,.26-.23,.54-.23,.86s.08,.59,.23,.85c.15,.26,.35,.46,.61,.61,.26,.15,.54,.23,.86,.23Z"/><path class="cls-6" d="M53.1,131.78c-.44,0-.84-.1-1.2-.31-.35-.21-.63-.49-.84-.84-.21-.35-.31-.75-.31-1.2v-2.8c0-.44,.1-.84,.31-1.2,.21-.36,.49-.64,.84-.84,.36-.21,.75-.31,1.2-.31s.84,.1,1.2,.31,.64,.49,.84,.84c.21,.35,.31,.75,.31,1.2v2.8c0,.44-.1,.84-.31,1.2-.21,.36-.49,.64-.84,.84-.35,.21-.75,.31-1.2,.31Zm0-.71c.3,0,.57-.07,.81-.22,.24-.15,.44-.34,.58-.58,.14-.24,.21-.51,.21-.8v-2.87c0-.3-.07-.57-.21-.81-.14-.24-.34-.44-.58-.58-.24-.14-.51-.22-.81-.22s-.57,.07-.81,.22c-.24,.15-.44,.34-.58,.58-.14,.24-.22,.51-.22,.81v2.87c0,.29,.07,.56,.22,.8,.14,.24,.34,.44,.58,.58,.24,.14,.51,.22,.81,.22Z"/><path class="cls-6" d="M59.2,131.78c-.44,0-.84-.1-1.2-.31-.35-.21-.63-.49-.84-.84-.21-.35-.31-.75-.31-1.2v-2.8c0-.44,.1-.84,.31-1.2,.21-.36,.49-.64,.84-.84,.36-.21,.75-.31,1.2-.31s.84,.1,1.2,.31,.64,.49,.84,.84c.21,.35,.31,.75,.31,1.2v2.8c0,.44-.1,.84-.31,1.2-.21,.36-.49,.64-.84,.84-.35,.21-.75,.31-1.2,.31Zm0-.71c.3,0,.57-.07,.81-.22,.24-.15,.44-.34,.58-.58,.14-.24,.21-.51,.21-.8v-2.87c0-.3-.07-.57-.21-.81-.14-.24-.34-.44-.58-.58-.24-.14-.51-.22-.81-.22s-.57,.07-.81,.22c-.24,.15-.44,.34-.58,.58-.14,.24-.22,.51-.22,.81v2.87c0,.29,.07,.56,.22,.8,.14,.24,.34,.44,.58,.58,.24,.14,.51,.22,.81,.22Z"/><path class="cls-6" d="M62.95,131.63v-7.2h.74v4.4l2.41-2.6h.98l-2.53,2.7,2.86,2.7h-1.07l-2.65-2.6v2.6h-.74Z"/></g><g><path class="cls-6" d="M47.94,159.37v-1.39h-3.37v-.7l2.41-5.11h.82l-2.41,5.11h2.54v-2.1h.74v2.1h.79v.7h-.79v1.39h-.74Z"/><path class="cls-6" d="M53.01,159.52c-.44,0-.84-.1-1.2-.31-.35-.21-.64-.49-.84-.84-.21-.35-.31-.75-.31-1.2v-2.8c0-.44,.1-.84,.31-1.2,.21-.36,.49-.64,.84-.84s.75-.31,1.2-.31,.84,.1,1.2,.31c.35,.21,.63,.49,.84,.84,.21,.35,.31,.75,.31,1.2v2.8c0,.44-.1,.84-.31,1.2-.21,.36-.49,.64-.84,.84-.36,.21-.75,.31-1.2,.31Zm0-.71c.3,0,.57-.07,.81-.22,.24-.15,.44-.34,.58-.58,.14-.24,.21-.51,.21-.8v-2.87c0-.3-.07-.57-.21-.81-.14-.24-.34-.44-.58-.58-.24-.14-.51-.22-.81-.22s-.57,.07-.81,.22c-.24,.15-.44,.34-.58,.58-.14,.24-.21,.51-.21,.81v2.87c0,.29,.07,.56,.21,.8,.14,.24,.34,.44,.58,.58,.24,.14,.51,.22,.81,.22Z"/><path class="cls-6" d="M59.11,159.52c-.44,0-.84-.1-1.2-.31-.35-.21-.64-.49-.84-.84-.21-.35-.31-.75-.31-1.2v-2.8c0-.44,.1-.84,.31-1.2,.21-.36,.49-.64,.84-.84s.75-.31,1.2-.31,.84,.1,1.2,.31c.35,.21,.63,.49,.84,.84,.21,.35,.31,.75,.31,1.2v2.8c0,.44-.1,.84-.31,1.2-.21,.36-.49,.64-.84,.84-.36,.21-.75,.31-1.2,.31Zm0-.71c.3,0,.57-.07,.81-.22,.24-.15,.44-.34,.58-.58,.14-.24,.21-.51,.21-.8v-2.87c0-.3-.07-.57-.21-.81-.14-.24-.34-.44-.58-.58-.24-.14-.51-.22-.81-.22s-.57,.07-.81,.22c-.24,.15-.44,.34-.58,.58-.14,.24-.21,.51-.21,.81v2.87c0,.29,.07,.56,.21,.8,.14,.24,.34,.44,.58,.58,.24,.14,.51,.22,.81,.22Z"/><path class="cls-6" d="M62.86,159.37v-7.2h.75v4.4l2.41-2.6h.98l-2.53,2.7,2.86,2.7h-1.07l-2.65-2.6v2.6h-.75Z"/></g><g><path class="cls-6" d="M44.71,187.11v-.67s3.26-2.94,3.26-2.94c.28-.25,.47-.49,.56-.72,.09-.23,.14-.47,.14-.72,0-.3-.07-.57-.21-.81-.14-.24-.33-.43-.56-.57-.24-.14-.5-.21-.8-.21s-.58,.07-.82,.22-.43,.34-.57,.58c-.14,.24-.21,.5-.2,.79h-.75c0-.44,.1-.83,.31-1.18,.21-.35,.49-.62,.84-.82,.35-.2,.75-.3,1.2-.3s.83,.1,1.18,.31c.35,.21,.62,.48,.83,.83,.2,.35,.3,.74,.3,1.16,0,.3-.04,.56-.11,.79-.07,.23-.18,.44-.34,.64-.15,.19-.34,.4-.58,.6l-2.89,2.61-.12-.3h4.03v.71h-4.7Z"/><path class="cls-6" d="M52.96,187.27c-.44,0-.84-.1-1.2-.31-.35-.21-.63-.49-.84-.84-.21-.35-.31-.75-.31-1.2v-2.8c0-.44,.1-.84,.31-1.2,.21-.36,.49-.64,.84-.84,.36-.21,.75-.31,1.2-.31s.84,.1,1.2,.31,.64,.49,.84,.84c.21,.35,.31,.75,.31,1.2v2.8c0,.44-.1,.84-.31,1.2-.21,.36-.49,.64-.84,.84-.35,.21-.75,.31-1.2,.31Zm0-.71c.3,0,.57-.07,.81-.22,.24-.15,.44-.34,.58-.58,.14-.24,.21-.51,.21-.8v-2.87c0-.3-.07-.57-.21-.81-.14-.24-.34-.44-.58-.58-.24-.14-.51-.22-.81-.22s-.57,.07-.81,.22c-.24,.15-.44,.34-.58,.58-.14,.24-.22,.51-.22,.81v2.87c0,.29,.07,.56,.22,.8,.14,.24,.34,.44,.58,.58,.24,.14,.51,.22,.81,.22Z"/><path class="cls-6" d="M59.06,187.27c-.44,0-.84-.1-1.2-.31-.35-.21-.64-.49-.84-.84-.21-.35-.31-.75-.31-1.2v-2.8c0-.44,.1-.84,.31-1.2,.21-.36,.49-.64,.84-.84s.75-.31,1.2-.31,.84,.1,1.2,.31c.35,.21,.63,.49,.84,.84,.21,.35,.31,.75,.31,1.2v2.8c0,.44-.1,.84-.31,1.2-.21,.36-.49,.64-.84,.84-.36,.21-.75,.31-1.2,.31Zm0-.71c.3,0,.57-.07,.81-.22,.24-.15,.44-.34,.58-.58,.14-.24,.21-.51,.21-.8v-2.87c0-.3-.07-.57-.21-.81-.14-.24-.34-.44-.58-.58-.24-.14-.51-.22-.81-.22s-.57,.07-.81,.22c-.24,.15-.44,.34-.58,.58-.14,.24-.21,.51-.21,.81v2.87c0,.29,.07,.56,.21,.8,.14,.24,.34,.44,.58,.58,.24,.14,.51,.22,.81,.22Z"/><path class="cls-6" d="M62.8,187.11v-7.2h.74v4.4l2.41-2.6h.98l-2.53,2.7,2.86,2.7h-1.07l-2.65-2.6v2.6h-.74Z"/></g><path class="cls-6" d="M59.37,213.81c-.44,0-.84-.1-1.2-.31-.35-.21-.63-.49-.84-.84-.21-.35-.31-.75-.31-1.2v-2.8c0-.44,.1-.84,.31-1.2,.21-.36,.49-.64,.84-.84,.36-.21,.75-.31,1.2-.31s.84,.1,1.2,.31,.64,.49,.84,.84c.21,.35,.31,.75,.31,1.2v2.8c0,.44-.1,.84-.31,1.2-.21,.36-.49,.64-.84,.84-.35,.21-.75,.31-1.2,.31Zm0-.71c.3,0,.57-.07,.81-.22,.24-.15,.44-.34,.58-.58,.14-.24,.21-.51,.21-.8v-2.87c0-.3-.07-.57-.21-.81-.14-.24-.34-.44-.58-.58-.24-.14-.51-.22-.81-.22s-.57,.07-.81,.22c-.24,.15-.44,.34-.58,.58-.14,.24-.22,.51-.22,.81v2.87c0,.29,.07,.56,.22,.8,.14,.24,.34,.44,.58,.58,.24,.14,.51,.22,.81,.22Z"/><g><path class="cls-6" d="M87.47,226.58c-.5,0-.96-.08-1.36-.25s-.73-.41-1-.72c-.26-.31-.43-.68-.51-1.1l.75-.12c.12,.47,.37,.83,.76,1.1,.39,.26,.85,.4,1.38,.4,.35,0,.67-.06,.95-.17,.28-.11,.5-.27,.66-.48,.16-.21,.24-.45,.24-.73,0-.19-.03-.35-.1-.48-.07-.13-.15-.24-.27-.33-.11-.09-.23-.16-.36-.22-.13-.06-.26-.11-.38-.14l-1.83-.54c-.22-.06-.42-.14-.61-.24-.19-.1-.35-.22-.49-.35-.14-.14-.25-.3-.32-.49-.08-.19-.12-.4-.12-.64,0-.41,.11-.76,.32-1.05s.5-.53,.88-.69c.37-.16,.79-.24,1.27-.23,.48,0,.91,.08,1.29,.25,.38,.17,.69,.41,.94,.73,.25,.31,.41,.69,.49,1.12l-.77,.14c-.05-.31-.17-.58-.34-.81-.18-.23-.41-.41-.69-.53-.28-.12-.58-.19-.92-.19-.32,0-.61,.05-.86,.16-.25,.11-.45,.26-.6,.44-.15,.19-.22,.4-.22,.64s.07,.44,.2,.58c.14,.15,.3,.26,.5,.35,.2,.08,.39,.15,.58,.21l1.41,.42c.15,.04,.32,.1,.52,.17,.2,.08,.39,.18,.58,.32,.19,.14,.34,.32,.47,.54,.12,.22,.18,.51,.18,.85s-.07,.63-.2,.89c-.13,.26-.32,.49-.55,.67-.24,.18-.52,.32-.83,.41-.32,.09-.67,.14-1.04,.14Z"/><path class="cls-6" d="M93.42,226.58c-.53,0-.98-.12-1.37-.35s-.68-.56-.9-.98c-.21-.42-.32-.92-.32-1.49s.1-1.1,.32-1.53c.21-.43,.51-.76,.89-1,.38-.23,.83-.35,1.35-.35s.99,.12,1.36,.37c.38,.25,.66,.6,.85,1.05s.28,1,.27,1.63h-.75v-.26c-.01-.7-.16-1.23-.45-1.58-.29-.36-.71-.54-1.26-.54-.58,0-1.02,.19-1.33,.57-.31,.38-.46,.91-.46,1.61s.15,1.21,.46,1.58c.31,.38,.75,.56,1.31,.56,.39,0,.72-.09,1.01-.27,.29-.18,.52-.44,.68-.77l.68,.26c-.21,.47-.53,.83-.94,1.09-.42,.26-.88,.39-1.41,.39Zm-2.06-2.65v-.62h4.12v.62h-4.12Z"/><path class="cls-6" d="M96.97,228.83v-7.8h.66v4.07h.08v3.74h-.74Zm2.43-2.25c-.5,0-.92-.13-1.26-.38s-.6-.59-.78-1.03c-.18-.43-.27-.92-.27-1.45s.09-1.03,.27-1.46c.18-.43,.44-.77,.79-1.01,.35-.25,.77-.37,1.28-.37s.92,.12,1.27,.38,.62,.59,.81,1.02c.19,.43,.28,.91,.28,1.45s-.09,1.03-.29,1.46-.46,.77-.82,1.02c-.36,.25-.79,.38-1.29,.38Zm-.07-.69c.38,0,.69-.09,.94-.29,.25-.19,.44-.45,.56-.78s.19-.7,.19-1.11-.06-.77-.18-1.1c-.12-.33-.31-.58-.56-.78-.25-.19-.57-.29-.96-.29s-.69,.09-.94,.28-.43,.44-.56,.76c-.12,.32-.19,.7-.19,1.12s.06,.79,.19,1.12c.12,.33,.31,.59,.56,.77,.25,.19,.57,.28,.95,.28Z"/><path class="cls-6" d="M102.3,221.66v-.63h3.54v.63h-3.54Zm3.54,4.77c-.3,.06-.6,.09-.9,.08-.3-.01-.56-.08-.79-.19-.23-.11-.41-.29-.53-.53-.1-.2-.15-.4-.16-.61,0-.2-.01-.44-.01-.7v-4.95h.73v4.92c0,.23,0,.42,0,.57,0,.15,.04,.29,.1,.4,.12,.22,.31,.36,.57,.4,.26,.04,.59,.03,.97-.03v.64Z"/><path class="cls-6" d="M108.7,226.42v-.67s3.26-2.94,3.26-2.94c.28-.25,.46-.49,.56-.72,.09-.23,.14-.47,.14-.72,0-.3-.07-.57-.21-.81-.14-.24-.33-.43-.56-.57s-.5-.21-.79-.21-.58,.07-.82,.22-.43,.34-.57,.58c-.14,.24-.21,.5-.2,.79h-.75c0-.44,.1-.83,.31-1.18s.49-.62,.84-.82c.35-.2,.75-.3,1.2-.3s.83,.1,1.18,.31c.35,.21,.62,.48,.82,.83,.2,.35,.3,.74,.3,1.16,0,.3-.04,.56-.11,.79-.07,.23-.18,.44-.33,.64-.15,.19-.34,.4-.58,.6l-2.89,2.61-.12-.3h4.03v.71h-4.7Z"/><path class="cls-6" d="M115.86,226.43v-6.38l-1.35,.81v-.82l1.35-.81h.75v7.2h-.75Z"/></g><g><path class="cls-6" d="M152.11,226.43v-7.2h2.18c.08,0,.21,0,.39,0,.19,0,.36,.02,.53,.04,.55,.08,1,.28,1.37,.61s.64,.75,.83,1.26,.27,1.07,.27,1.69-.09,1.17-.27,1.68-.46,.93-.83,1.26-.82,.53-1.37,.61c-.17,.02-.35,.03-.54,.04s-.32,0-.39,0h-2.18Zm.76-.71h1.42c.14,0,.29,0,.44-.01,.16,0,.29-.02,.41-.05,.42-.07,.76-.24,1.02-.51,.26-.27,.45-.6,.57-1,.12-.4,.18-.84,.18-1.32s-.06-.93-.18-1.33c-.12-.4-.31-.74-.57-1-.26-.26-.6-.43-1.01-.5-.11-.02-.25-.04-.41-.05-.16,0-.31-.01-.44-.01h-1.42v5.79Z"/><path class="cls-6" d="M161.11,226.58c-.53,0-.98-.12-1.37-.35-.39-.23-.68-.56-.9-.98-.21-.42-.32-.92-.32-1.49s.11-1.1,.31-1.53c.21-.43,.51-.76,.89-1,.38-.23,.83-.35,1.35-.35s.99,.12,1.37,.37,.66,.6,.86,1.05,.28,1,.26,1.63h-.75v-.26c-.01-.7-.16-1.23-.45-1.58-.29-.36-.71-.54-1.26-.54s-1.02,.19-1.33,.57c-.31,.38-.46,.91-.46,1.61s.15,1.21,.46,1.58,.75,.56,1.31,.56c.39,0,.72-.09,1.01-.27,.29-.18,.52-.44,.68-.77l.69,.26c-.21,.47-.53,.83-.94,1.09-.41,.26-.88,.39-1.41,.39Zm-2.07-2.65v-.62h4.12v.62h-4.12Z"/><path class="cls-6" d="M166.91,226.58c-.54,0-1-.12-1.38-.37-.38-.24-.66-.58-.86-1.01-.2-.43-.3-.92-.3-1.48,0-.57,.11-1.06,.31-1.49s.49-.76,.87-1c.38-.24,.83-.36,1.37-.36s1.02,.13,1.43,.4c.4,.27,.68,.63,.83,1.1l-.72,.23c-.13-.32-.33-.57-.6-.75-.28-.18-.59-.27-.94-.27-.4,0-.72,.09-.98,.27s-.45,.43-.58,.76c-.13,.32-.19,.7-.2,1.12,0,.65,.16,1.17,.45,1.56s.73,.59,1.31,.59c.37,0,.68-.08,.94-.25,.26-.17,.46-.41,.59-.74l.74,.22c-.2,.48-.49,.85-.88,1.1-.39,.25-.85,.38-1.39,.38Z"/><path class="cls-6" d="M172.01,226.42v-.67s3.26-2.94,3.26-2.94c.28-.25,.46-.49,.56-.72,.09-.23,.14-.47,.14-.72,0-.3-.07-.57-.21-.81-.14-.24-.33-.43-.56-.57s-.5-.21-.79-.21-.58,.07-.82,.22-.43,.34-.57,.58c-.14,.24-.21,.5-.2,.79h-.75c0-.44,.1-.83,.31-1.18s.49-.62,.84-.82c.35-.2,.75-.3,1.2-.3s.83,.1,1.18,.31c.35,.21,.62,.48,.82,.83,.2,.35,.3,.74,.3,1.16,0,.3-.04,.56-.11,.79-.07,.23-.18,.44-.33,.64-.15,.19-.34,.4-.58,.6l-2.89,2.61-.12-.3h4.03v.71h-4.7Z"/><path class="cls-6" d="M179.16,226.43v-6.38l-1.36,.81v-.82l1.36-.81h.75v7.2h-.75Z"/></g><g><path class="cls-6" d="M217.98,226.43v-7.2h4.13v.74h-3.4v2.5h2.8v.73h-2.8v3.24h-.74Z"/><path class="cls-6" d="M225.3,226.58c-.53,0-.98-.12-1.37-.35-.39-.23-.68-.56-.9-.98-.21-.42-.32-.92-.32-1.49s.1-1.1,.31-1.53,.51-.76,.89-1,.83-.35,1.35-.35,.99,.12,1.37,.37,.66,.6,.85,1.05,.28,1,.27,1.63h-.75v-.26c-.01-.7-.16-1.23-.45-1.58-.29-.36-.71-.54-1.26-.54-.58,0-1.02,.19-1.33,.57-.31,.38-.46,.91-.46,1.61s.15,1.21,.46,1.58,.75,.56,1.31,.56c.39,0,.72-.09,1.01-.27,.29-.18,.52-.44,.68-.77l.68,.26c-.21,.47-.53,.83-.94,1.09-.42,.26-.88,.39-1.41,.39Zm-2.07-2.65v-.62h4.12v.62h-4.12Z"/><path class="cls-6" d="M228.86,226.43v-7.2h.74v3.13h-.08v4.07h-.66Zm2.43,.15c-.5,0-.92-.13-1.26-.38s-.6-.59-.78-1.03c-.18-.43-.26-.92-.26-1.45s.09-1.03,.27-1.46c.18-.43,.44-.77,.79-1.01,.35-.25,.77-.37,1.28-.37s.92,.12,1.27,.38c.35,.25,.62,.59,.81,1.02,.19,.43,.28,.91,.28,1.45s-.1,1.03-.29,1.46c-.19,.43-.46,.77-.82,1.02s-.79,.38-1.29,.38Zm-.08-.69c.38,0,.69-.09,.94-.29,.25-.19,.44-.45,.56-.78s.19-.7,.19-1.11-.06-.77-.18-1.1c-.12-.33-.31-.58-.56-.78-.25-.19-.57-.29-.96-.29s-.69,.09-.94,.28-.43,.44-.56,.76c-.12,.32-.18,.7-.18,1.12s.06,.79,.18,1.12c.12,.33,.31,.59,.56,.77,.25,.19,.57,.28,.95,.28Z"/><path class="cls-6" d="M236.58,226.42v-.67s3.26-2.94,3.26-2.94c.28-.25,.47-.49,.56-.72,.09-.23,.14-.47,.14-.72,0-.3-.07-.57-.21-.81-.14-.24-.33-.43-.56-.57-.24-.14-.5-.21-.8-.21s-.58,.07-.82,.22-.43,.34-.57,.58c-.14,.24-.21,.5-.2,.79h-.75c0-.44,.1-.83,.31-1.18,.21-.35,.49-.62,.84-.82s.75-.3,1.2-.3,.83,.1,1.18,.31c.35,.21,.62,.48,.83,.83,.2,.35,.3,.74,.3,1.16,0,.3-.04,.56-.11,.79-.07,.23-.18,.44-.33,.64-.15,.19-.34,.4-.58,.6l-2.89,2.61-.12-.3h4.03v.71h-4.7Z"/><path class="cls-6" d="M242.28,226.42v-.67s3.26-2.94,3.26-2.94c.28-.25,.47-.49,.56-.72,.09-.23,.14-.47,.14-.72,0-.3-.07-.57-.21-.81-.14-.24-.33-.43-.57-.57s-.5-.21-.79-.21-.58,.07-.82,.22c-.24,.15-.43,.34-.57,.58-.14,.24-.21,.5-.2,.79h-.75c0-.44,.1-.83,.31-1.18,.21-.35,.49-.62,.84-.82,.35-.2,.75-.3,1.2-.3s.83,.1,1.18,.31c.35,.21,.62,.48,.83,.83,.2,.35,.3,.74,.3,1.16,0,.3-.04,.56-.11,.79-.07,.23-.18,.44-.33,.64-.15,.19-.34,.4-.58,.6l-2.89,2.61-.12-.3h4.03v.71h-4.7Z"/></g><g><path class="cls-6" d="M283.89,226.57c-.48,0-.89-.13-1.24-.4s-.57-.62-.7-1.07l.74-.17c.06,.26,.2,.49,.42,.67,.22,.18,.48,.27,.77,.27,.19,0,.38-.05,.57-.14,.19-.09,.34-.24,.45-.44,.07-.14,.12-.3,.13-.47s.02-.37,.02-.61v-4.99h.74v4.99c0,.2,0,.38,0,.54,0,.16-.02,.32-.05,.47-.03,.15-.09,.3-.18,.45-.17,.3-.41,.53-.7,.68-.29,.15-.62,.22-.97,.22Z"/><path class="cls-6" d="M289.22,226.56c-.32,0-.61-.05-.85-.15-.24-.1-.45-.24-.61-.41-.17-.17-.3-.36-.41-.58-.1-.22-.18-.45-.23-.69s-.07-.49-.07-.73v-2.97h.74v2.76c0,.3,.03,.57,.08,.82,.06,.25,.15,.47,.27,.66s.29,.33,.49,.44,.44,.15,.72,.15c.26,0,.49-.04,.69-.13,.2-.09,.37-.22,.5-.39,.13-.17,.24-.37,.31-.61,.07-.24,.11-.51,.11-.82l.52,.11c0,.55-.1,1.02-.29,1.4s-.46,.66-.8,.85-.73,.29-1.17,.29Zm1.82-.13v-1.33h-.08v-4.07h.74v5.4h-.66Z"/><path class="cls-6" d="M292.95,226.43v-5.4h.67v1.33h.08v4.07h-.74Zm3.91,0v-2.75c0-.3-.03-.58-.08-.83-.06-.25-.15-.47-.27-.66s-.29-.33-.49-.44-.44-.16-.72-.16c-.26,0-.49,.04-.69,.13-.2,.09-.37,.22-.5,.39s-.24,.37-.31,.61c-.07,.24-.11,.51-.11,.82l-.52-.12c0-.55,.1-1.02,.29-1.39,.19-.38,.46-.66,.8-.86s.73-.29,1.17-.29c.32,0,.61,.05,.85,.15,.24,.1,.45,.23,.62,.4,.17,.17,.3,.36,.41,.58s.18,.45,.23,.7c.05,.25,.07,.49,.07,.73v2.97h-.74Z"/><path class="cls-6" d="M300.55,226.42v-.67s3.26-2.94,3.26-2.94c.28-.25,.46-.49,.56-.72,.09-.23,.14-.47,.14-.72,0-.3-.07-.57-.21-.81-.14-.24-.33-.43-.56-.57s-.5-.21-.79-.21-.58,.07-.82,.22-.43,.34-.57,.58c-.14,.24-.21,.5-.2,.79h-.75c0-.44,.1-.83,.31-1.18s.49-.62,.84-.82c.35-.2,.75-.3,1.2-.3s.83,.1,1.18,.31c.35,.21,.62,.48,.82,.83,.2,.35,.3,.74,.3,1.16,0,.3-.04,.56-.11,.79-.07,.23-.18,.44-.33,.64-.15,.19-.34,.4-.58,.6l-2.89,2.61-.12-.3h4.03v.71h-4.7Z"/><path class="cls-6" d="M306.25,226.42v-.67s3.26-2.94,3.26-2.94c.28-.25,.47-.49,.56-.72,.09-.23,.14-.47,.14-.72,0-.3-.07-.57-.21-.81-.14-.24-.33-.43-.57-.57s-.5-.21-.79-.21-.58,.07-.82,.22c-.24,.15-.43,.34-.57,.58-.14,.24-.21,.5-.2,.79h-.75c0-.44,.1-.83,.31-1.18,.21-.35,.49-.62,.84-.82s.75-.3,1.2-.3,.83,.1,1.18,.31c.35,.21,.62,.48,.83,.83,.2,.35,.3,.74,.3,1.16,0,.3-.04,.56-.11,.79-.07,.23-.18,.44-.33,.64-.15,.19-.34,.4-.58,.6l-2.89,2.61-.12-.3h4.03v.71h-4.7Z"/></g><g><path class="cls-6" d="M347.53,226.58c-.5,0-.96-.08-1.36-.25s-.73-.41-.99-.72c-.26-.31-.43-.68-.51-1.1l.75-.12c.12,.47,.37,.83,.76,1.1,.39,.26,.85,.4,1.39,.4,.35,0,.67-.06,.95-.17,.28-.11,.5-.27,.66-.48,.16-.21,.24-.45,.24-.73,0-.19-.03-.35-.1-.48-.07-.13-.16-.24-.27-.33-.11-.09-.23-.16-.36-.22-.13-.06-.26-.11-.38-.14l-1.82-.54c-.22-.06-.42-.14-.61-.24-.19-.1-.35-.22-.49-.35-.14-.14-.25-.3-.32-.49-.08-.19-.12-.4-.12-.64,0-.41,.11-.76,.32-1.05,.21-.3,.51-.53,.88-.69,.37-.16,.79-.24,1.27-.23,.48,0,.91,.08,1.29,.25,.38,.17,.69,.41,.94,.73,.25,.31,.41,.69,.49,1.12l-.77,.14c-.05-.31-.16-.58-.35-.81-.18-.23-.41-.41-.69-.53-.28-.12-.58-.19-.92-.19-.32,0-.61,.05-.86,.16s-.45,.26-.6,.44-.22,.4-.22,.64,.07,.44,.2,.58c.13,.15,.3,.26,.5,.35,.2,.08,.39,.15,.58,.21l1.41,.42c.15,.04,.32,.1,.52,.17,.2,.08,.39,.18,.58,.32,.19,.14,.34,.32,.47,.54,.12,.22,.19,.51,.19,.85s-.07,.63-.2,.89c-.13,.26-.32,.49-.56,.67-.24,.18-.52,.32-.83,.41-.32,.09-.67,.14-1.04,.14Z"/><path class="cls-6" d="M353.48,226.58c-.53,0-.98-.12-1.37-.35-.38-.23-.68-.56-.9-.98-.21-.42-.32-.92-.32-1.49s.11-1.1,.31-1.53c.21-.43,.51-.76,.89-1,.38-.23,.83-.35,1.35-.35s.99,.12,1.37,.37,.66,.6,.86,1.05,.28,1,.27,1.63h-.75v-.26c-.01-.7-.17-1.23-.45-1.58-.29-.36-.71-.54-1.26-.54s-1.02,.19-1.33,.57c-.31,.38-.46,.91-.46,1.61s.15,1.21,.46,1.58,.75,.56,1.31,.56c.39,0,.72-.09,1.01-.27,.29-.18,.52-.44,.68-.77l.69,.26c-.21,.47-.53,.83-.94,1.09-.41,.26-.88,.39-1.41,.39Zm-2.07-2.65v-.62h4.12v.62h-4.12Z"/><path class="cls-6" d="M357.04,228.83v-7.8h.66v4.07h.08v3.74h-.74Zm2.43-2.25c-.5,0-.92-.13-1.26-.38-.34-.25-.6-.59-.78-1.03-.18-.43-.26-.92-.26-1.45s.09-1.03,.27-1.46c.18-.43,.44-.77,.79-1.01,.35-.25,.77-.37,1.28-.37s.92,.12,1.27,.38,.62,.59,.81,1.02c.19,.43,.28,.91,.28,1.45s-.1,1.03-.29,1.46-.46,.77-.82,1.02c-.36,.25-.79,.38-1.29,.38Zm-.08-.69c.38,0,.69-.09,.94-.29,.25-.19,.44-.45,.56-.78s.19-.7,.19-1.11-.06-.77-.19-1.1c-.12-.33-.31-.58-.56-.78-.25-.19-.57-.29-.96-.29s-.69,.09-.94,.28-.44,.44-.56,.76c-.12,.32-.18,.7-.18,1.12s.06,.79,.18,1.12c.12,.33,.31,.59,.56,.77,.25,.19,.57,.28,.95,.28Z"/><path class="cls-6" d="M362.36,221.66v-.63h3.54v.63h-3.54Zm3.54,4.77c-.3,.06-.6,.09-.9,.08-.29-.01-.56-.08-.79-.19-.23-.11-.41-.29-.53-.53-.1-.2-.15-.4-.16-.61,0-.2-.01-.44-.01-.7v-4.95h.73v4.92c0,.23,0,.42,0,.57,0,.15,.04,.29,.1,.4,.12,.22,.31,.36,.57,.4,.26,.04,.58,.03,.97-.03v.64Z"/><path class="cls-6" d="M368.63,226.42v-.67s3.26-2.94,3.26-2.94c.28-.25,.46-.49,.56-.72,.09-.23,.14-.47,.14-.72,0-.3-.07-.57-.21-.81-.14-.24-.33-.43-.56-.57s-.5-.21-.79-.21-.58,.07-.82,.22-.43,.34-.57,.58c-.14,.24-.21,.5-.2,.79h-.75c0-.44,.1-.83,.31-1.18,.21-.35,.49-.62,.84-.82,.35-.2,.75-.3,1.2-.3s.83,.1,1.18,.31c.35,.21,.62,.48,.82,.83,.2,.35,.3,.74,.3,1.16,0,.3-.04,.56-.11,.79-.07,.23-.18,.44-.33,.64-.15,.19-.35,.4-.58,.6l-2.89,2.61-.12-.3h4.03v.71h-4.7Z"/><path class="cls-6" d="M374.33,226.42v-.67s3.26-2.94,3.26-2.94c.28-.25,.47-.49,.56-.72,.09-.23,.14-.47,.14-.72,0-.3-.07-.57-.21-.81-.14-.24-.33-.43-.57-.57-.24-.14-.5-.21-.79-.21s-.58,.07-.82,.22c-.24,.15-.43,.34-.57,.58-.14,.24-.21,.5-.2,.79h-.75c0-.44,.1-.83,.31-1.18s.49-.62,.84-.82,.75-.3,1.2-.3,.83,.1,1.18,.31c.35,.21,.62,.48,.83,.83,.2,.35,.3,.74,.3,1.16,0,.3-.04,.56-.11,.79-.07,.23-.18,.44-.34,.64-.15,.19-.34,.4-.58,.6l-2.89,2.61-.12-.3h4.03v.71h-4.7Z"/></g><g><path class="cls-6" d="M412.11,226.43v-7.2h2.18c.08,0,.21,0,.39,0,.19,0,.36,.02,.53,.04,.55,.08,1,.28,1.37,.61,.37,.33,.64,.75,.83,1.26s.28,1.07,.28,1.69-.09,1.17-.28,1.68-.46,.93-.83,1.26c-.37,.33-.82,.53-1.37,.61-.17,.02-.34,.03-.53,.04-.19,0-.32,0-.39,0h-2.18Zm.76-.71h1.42c.14,0,.28,0,.44-.01,.16,0,.29-.02,.41-.05,.42-.07,.76-.24,1.02-.51,.26-.27,.45-.6,.57-1s.18-.84,.18-1.32-.06-.93-.18-1.33-.31-.74-.57-1c-.26-.26-.6-.43-1.01-.5-.11-.02-.25-.04-.41-.05-.16,0-.31-.01-.44-.01h-1.42v5.79Z"/><path class="cls-6" d="M421.11,226.58c-.53,0-.98-.12-1.37-.35-.38-.23-.68-.56-.9-.98-.21-.42-.32-.92-.32-1.49s.1-1.1,.31-1.53,.51-.76,.89-1,.83-.35,1.35-.35,.99,.12,1.37,.37c.38,.25,.66,.6,.85,1.05s.28,1,.27,1.63h-.75v-.26c-.01-.7-.17-1.23-.45-1.58s-.71-.54-1.26-.54-1.02,.19-1.33,.57c-.31,.38-.46,.91-.46,1.61s.15,1.21,.46,1.58,.75,.56,1.31,.56c.39,0,.72-.09,1.01-.27,.29-.18,.52-.44,.68-.77l.68,.26c-.21,.47-.53,.83-.94,1.09-.42,.26-.88,.39-1.41,.39Zm-2.07-2.65v-.62h4.12v.62h-4.12Z"/><path class="cls-6" d="M426.91,226.58c-.54,0-1-.12-1.38-.37-.38-.24-.66-.58-.86-1.01-.19-.43-.3-.92-.3-1.48,0-.57,.11-1.06,.31-1.49s.49-.76,.87-1c.38-.24,.83-.36,1.37-.36s1.02,.13,1.43,.4c.41,.27,.68,.63,.83,1.1l-.72,.23c-.13-.32-.33-.57-.6-.75-.28-.18-.59-.27-.94-.27-.4,0-.73,.09-.99,.27s-.45,.43-.58,.76c-.13,.32-.19,.7-.2,1.12,0,.65,.16,1.17,.45,1.56s.73,.59,1.31,.59c.37,0,.68-.08,.94-.25,.26-.17,.45-.41,.59-.74l.74,.22c-.2,.48-.49,.85-.88,1.1s-.85,.38-1.38,.38Z"/><path class="cls-6" d="M432,226.42v-.67s3.26-2.94,3.26-2.94c.28-.25,.47-.49,.56-.72,.09-.23,.14-.47,.14-.72,0-.3-.07-.57-.21-.81-.14-.24-.33-.43-.57-.57-.24-.14-.5-.21-.79-.21s-.58,.07-.82,.22c-.24,.15-.43,.34-.57,.58-.14,.24-.21,.5-.2,.79h-.75c0-.44,.1-.83,.31-1.18,.21-.35,.49-.62,.84-.82,.35-.2,.75-.3,1.2-.3s.83,.1,1.18,.31c.35,.21,.62,.48,.83,.83,.2,.35,.3,.74,.3,1.16,0,.3-.04,.56-.11,.79-.07,.23-.18,.44-.33,.64-.15,.19-.34,.4-.58,.6l-2.89,2.61-.12-.3h4.03v.71h-4.7Z"/><path class="cls-6" d="M437.7,226.42v-.67s3.26-2.94,3.26-2.94c.28-.25,.47-.49,.56-.72,.09-.23,.14-.47,.14-.72,0-.3-.07-.57-.21-.81-.14-.24-.33-.43-.57-.57-.24-.14-.5-.21-.79-.21s-.58,.07-.82,.22c-.24,.15-.43,.34-.57,.58-.14,.24-.21,.5-.2,.79h-.75c0-.44,.1-.83,.31-1.18,.21-.35,.49-.62,.84-.82,.35-.2,.75-.3,1.2-.3s.83,.1,1.18,.31c.35,.21,.62,.48,.83,.83,.2,.35,.3,.74,.3,1.16,0,.3-.04,.56-.11,.79-.07,.23-.18,.44-.33,.64-.15,.19-.34,.4-.58,.6l-2.89,2.61-.12-.3h4.03v.71h-4.7Z"/></g><line class="cls-5" x1="74.38" y1="213.15" x2="443.7" y2="213.15"/><line class="cls-1" x1="75.93" y1="157.73" x2="442.89" y2="157.73"/><path class="cls-2" d="M443.64,157.73h0m-369.21,0h0"/><line class="cls-1" x1="75.93" y1="130.01" x2="442.89" y2="130.01"/><path class="cls-2" d="M443.64,130.01h0m-369.21,0h0"/><line class="cls-1" x1="75.93" y1="102.28" x2="442.89" y2="102.28"/><path class="cls-2" d="M443.64,102.28h0m-369.21,0h0"/><line class="cls-1" x1="75.93" y1="74.56" x2="442.89" y2="74.56"/><path class="cls-2" d="M443.64,74.56h0m-369.21,0h0"/><line class="cls-1" x1="75.93" y1="185.45" x2="442.89" y2="185.45"/><path class="cls-2" d="M443.64,185.45h0m-369.21,0h0"/><line class="cls-1" x1="75.93" y1="46.84" x2="442.89" y2="46.84"/><path class="cls-2" d="M443.64,46.84h0m-369.21,0h0"/><path class="cls-4" d="M74.78,212.91s16.25-3,57.19-3,40.67-3.76,112.6-3.76c152.01,0,196.29-137.54,196.29-137.54"/><line class="cls-3" x1="30.34" y1="119.42" x2="30.34" y2="44.52"/></svg>