<svg width="1870" height="1589" viewBox="0 0 1870 1589" fill="none" xmlns="http://www.w3.org/2000/svg">
<path d="M1753.39 657.595L1457.01 712.411L1511.8 1008.68L1808.18 953.86L1753.39 657.595Z" fill="#27292C"/>
<path d="M629.812 176.002L333.43 230.818L347.128 304.884L643.51 250.068L629.812 176.002Z" fill="#27292C"/>
<path d="M650.361 287.102L353.979 341.917L367.677 415.983L664.059 361.168L650.361 287.102Z" fill="#27292C"/>
<path d="M670.908 398.201L374.525 453.016L388.224 527.082L684.606 472.267L670.908 398.201Z" fill="#27292C"/>
<path d="M209.834 598.375C127.988 613.512 73.9082 692.102 89.0395 773.915C104.171 855.728 182.781 909.777 264.627 894.639C346.473 879.502 400.553 800.913 385.422 719.099C370.29 637.286 291.68 583.238 209.834 598.375Z" fill="#27292C"/>
<path d="M1085.9 1330L1067.64 1231.26L968.852 1249.53L950.586 1150.77L851.787 1169.04L906.581 1465.31L1202.96 1410.49L1184.7 1311.73L1085.9 1330Z" fill="#27292C"/>
<path d="M1096.21 833.31L1034.14 790.619L956.048 904.105L842.53 826.057L799.832 888.125L913.347 966.159L835.254 1079.65L897.327 1122.34L975.42 1008.85L1088.94 1086.9L1131.64 1024.83L1018.13 946.779L1096.21 833.31Z" fill="#27292C"/>
<path d="M481.312 1237.56L184.93 1292.38L198.628 1366.44L495.01 1311.63L481.312 1237.56Z" fill="#27292C"/>
<path d="M522.408 1459.76L226.025 1514.58L239.724 1588.64L536.106 1533.83L522.408 1459.76Z" fill="#27292C"/>
<path d="M501.859 1348.66L427.764 1362.37L441.462 1436.43L515.558 1422.73L501.859 1348.66Z" fill="#27292C"/>
<path d="M279.574 1389.77L205.479 1403.48L219.177 1477.54L293.272 1463.84L279.574 1389.77Z" fill="#27292C"/>
<path d="M390.717 1369.22L316.621 1382.92L330.32 1456.99L404.415 1443.28L390.717 1369.22Z" fill="#27292C"/>
<path d="M1481.6 1052.56L1185.22 1107.38L1240.01 1403.64L1536.39 1348.82L1481.6 1052.56ZM1368.82 1150.02L1290.72 1263.49L1273.01 1167.74L1368.82 1150.02ZM1430.89 1192.71L1448.6 1288.46L1352.8 1306.18L1430.88 1192.71L1430.89 1192.71Z" fill="#27292C"/>
<path d="M1824.72 1043.27L1869.83 1287.16L1625.83 1332.3L1686.23 1244.53L1782.04 1226.81L1764.32 1131.04L1824.72 1043.27Z" fill="#27292C"/>
<path d="M1762.65 1000.58L1702.25 1088.35L1606.44 1106.07L1624.15 1201.82L1563.76 1289.59L1518.65 1045.71L1762.65 1000.58Z" fill="#27292C"/>
<path d="M175.588 413.21L27.3965 440.618L54.7934 588.75L202.984 561.342L175.588 413.21Z" fill="#27292C"/>
<path d="M0 292.485L351.176 533.934L296.382 237.67L0 292.485Z" fill="#27292C"/>
<path d="M1592.96 342.567L1494.16 360.84L1512.43 459.6L1611.23 441.327L1592.96 342.567Z" fill="#27292C"/>
<path d="M1629.49 540.072L1530.69 558.345L1548.96 657.105L1647.76 638.832L1629.49 540.072Z" fill="#27292C"/>
<path d="M1710.01 423.057L1611.21 441.33L1629.48 540.09L1728.28 521.817L1710.01 423.057Z" fill="#27292C"/>
<path d="M1512.43 459.6L1413.63 477.873L1431.89 576.632L1530.69 558.36L1512.43 459.6Z" fill="#27292C"/>
<path d="M963.24 114.335L889.145 128.039L902.843 202.105L976.939 188.401L963.24 114.335Z" fill="#27292C"/>
<path d="M963.24 114.335L889.145 128.039L902.843 202.105L976.939 188.401L963.24 114.335Z" fill="#27292C"/>
<path d="M740.955 155.447L666.859 169.15L680.558 243.217L754.653 229.513L740.955 155.447Z" fill="#27292C"/>
<path d="M852.099 134.891L778.004 148.595L791.702 222.661L865.798 208.957L852.099 134.891Z" fill="#27292C"/>
<path d="M983.791 225.434L909.695 239.138L923.394 313.204L997.489 299.5L983.791 225.434Z" fill="#27292C"/>
<path d="M761.504 266.546L687.408 280.25L701.107 354.316L775.202 340.612L761.504 266.546Z" fill="#27292C"/>
<path d="M872.646 245.99L798.551 259.694L812.249 333.76L886.345 320.056L872.646 245.99Z" fill="#27292C"/>
<path d="M1004.34 336.533L930.24 350.237L943.939 424.303L1018.03 410.599L1004.34 336.533Z" fill="#27292C"/>
<path d="M782.051 377.645L707.955 391.349L721.654 465.415L795.749 451.711L782.051 377.645Z" fill="#27292C"/>
<path d="M893.193 357.089L819.098 370.793L832.796 444.859L906.892 431.155L893.193 357.089Z" fill="#27292C"/>
<path d="M1316.28 531.617C1353.11 524.806 1377.45 489.439 1370.64 452.624C1363.83 415.809 1328.46 391.487 1291.63 398.298C1254.8 405.11 1230.46 440.476 1237.27 477.291C1244.08 514.106 1279.45 538.429 1316.28 531.617Z" fill="#27292C"/>
<path d="M1153.28 561.766C1190.11 554.954 1214.44 519.588 1207.63 482.773C1200.83 445.958 1165.45 421.635 1128.62 428.447C1091.79 435.258 1067.45 470.625 1074.26 507.44C1081.07 544.255 1116.45 568.577 1153.28 561.766Z" fill="#27292C"/>
<path d="M1346.42 694.563C1383.25 687.751 1407.59 652.385 1400.78 615.57C1393.97 578.755 1358.6 554.432 1321.77 561.244C1284.94 568.055 1260.6 603.422 1267.41 640.237C1274.22 677.052 1309.59 701.374 1346.42 694.563Z" fill="#27292C"/>
<path d="M1183.41 724.711C1220.24 717.9 1244.58 682.533 1237.77 645.718C1230.96 608.903 1195.59 584.581 1158.76 591.392C1121.93 598.204 1097.59 633.57 1104.4 670.385C1111.21 707.2 1146.58 731.523 1183.41 724.711Z" fill="#27292C"/>
<path d="M662.504 974.253L588.408 987.956L602.107 1062.02L676.202 1048.32L662.504 974.253Z" fill="#27292C"/>
<path d="M456.717 897.413L511.511 1193.68L807.893 1138.86L753.099 842.598L456.717 897.413ZM720.099 1078.5L571.908 1105.91L544.511 957.775L692.702 930.368L720.099 1078.5Z" fill="#27292C"/>
<path d="M543.265 536.707C461.419 551.845 407.34 630.434 422.471 712.247C437.602 794.061 516.213 848.109 598.059 832.972C679.905 817.835 733.985 739.245 718.853 657.432C703.722 575.618 625.111 521.57 543.265 536.707ZM584.361 758.906C543.445 766.473 504.131 739.443 496.567 698.544C489.002 657.644 516.048 618.341 556.964 610.774C597.879 603.206 637.193 630.237 644.758 671.136C652.322 712.035 625.276 751.339 584.361 758.906Z" fill="#27292C"/>
<path d="M1296.67 52.6674L1000.29 107.483L1013.99 181.549L1183.89 150.126L1045.4 351.383L1107.47 394.074L1245.96 192.817L1277.37 362.636L1351.47 348.932L1296.67 52.6674Z" fill="#27292C"/>
<path d="M1388.52 342.095L1684.9 287.279L1671.2 213.213L1501.3 244.636L1639.79 43.3795L1577.72 0.688538L1439.22 201.93L1407.81 32.1115L1333.72 45.8154L1388.52 342.095Z" fill="#27292C"/>
<path d="M802.598 488.744L816.296 562.81L964.487 535.402L991.884 683.534L1065.98 669.831L1024.88 447.632L802.598 488.744Z" fill="#27292C"/>
<path d="M728.502 502.448L816.296 562.81L802.598 488.744L728.502 502.448Z" fill="#27292C"/>
<path d="M991.883 683.534L1079.68 743.897L1065.98 669.831L991.883 683.534Z" fill="#27292C"/>
<path d="M904.089 623.172L755.898 650.58L783.295 798.712L931.486 771.305L904.089 623.172Z" fill="#27292C"/>
<path d="M447.065 1052.4L271.479 931.676L150.686 1107.21L326.272 1227.94L447.065 1052.4Z" fill="#27292C"/>
<path d="M774.059 1284.51L771.828 1345.68L741.996 1277.83L678.746 1264.66L676.035 1338.53L646.657 1257.91L583.472 1244.71L573.154 1526.98L637.292 1515.11L640.469 1428.54L669.835 1509.09L733.974 1497.23L736.684 1423.36L766.517 1491.21L830.655 1479.35L837.278 1297.75L774.084 1284.5L774.059 1284.51Z" fill="#27292C"/>
<path d="M1271.77 746.67L1150.97 922.21L1326.56 1042.93L1447.36 867.395L1271.77 746.67ZM1229.01 906.123L1285.95 823.373L1368.73 880.283L1311.78 963.032L1229.01 906.123Z" fill="#27292C"/>
</svg>
