<?xml version="1.0" encoding="UTF-8"?><svg id="a" xmlns="http://www.w3.org/2000/svg" viewBox="0 0 1168.59 519.64"><defs><style>.b{fill:#fff;}.c{fill:#ff9682;}.d{fill:#bdbdc4;}.e{fill:#accaff;}.f{stroke-dasharray:0 0 1.99 1.99;}.f,.g{fill:none;stroke:#fff;stroke-miterlimit:10;}</style></defs><rect class="d" x="365.76" y="124.41" width="82.08" height="318.06"/><rect class="e" x="447.84" y="283.45" width="82.08" height="159.03"/><rect class="c" x="529.92" y="361.82" width="82.08" height="80.65"/><g><path class="b" d="M233.02,53.13v-15.54h2.04l5.63,11.68,5.6-11.68h2.06v15.52h-2.14v-10.63l-5.02,10.64h-1.03l-5.03-10.64v10.64h-2.12Z"/><path class="b" d="M254.66,53.45c-.86,0-1.59-.16-2.17-.48-.58-.32-1.02-.74-1.32-1.27-.3-.53-.45-1.11-.45-1.74,0-.59,.1-1.11,.31-1.55,.21-.45,.52-.83,.93-1.14s.91-.57,1.51-.76c.52-.15,1.1-.28,1.76-.4,.65-.11,1.34-.22,2.07-.32s1.44-.2,2.15-.3l-.82,.45c.01-.91-.18-1.59-.58-2.03-.4-.44-1.08-.66-2.05-.66-.61,0-1.17,.14-1.68,.43-.51,.28-.87,.75-1.07,1.41l-2.1-.65c.29-1,.84-1.79,1.64-2.38,.81-.59,1.89-.88,3.23-.88,1.04,0,1.95,.18,2.72,.53,.77,.36,1.34,.92,1.7,1.69,.19,.38,.3,.78,.35,1.21,.04,.42,.06,.88,.06,1.37v7.17h-2v-2.66l.39,.34c-.48,.89-1.09,1.56-1.84,1.99-.75,.44-1.66,.65-2.75,.65Zm.4-1.84c.64,0,1.19-.11,1.65-.34s.83-.52,1.11-.87,.46-.72,.55-1.1c.12-.34,.19-.73,.21-1.17,.02-.43,.03-.78,.03-1.04l.73,.27c-.71,.11-1.36,.21-1.94,.29-.58,.09-1.11,.17-1.58,.25-.47,.08-.89,.18-1.26,.3-.31,.11-.58,.24-.83,.39-.24,.15-.43,.33-.57,.55s-.21,.48-.21,.79,.08,.58,.23,.84c.15,.26,.38,.46,.69,.61,.31,.15,.7,.23,1.19,.23Z"/><path class="b" d="M262.37,53.13l4.36-5.89-4.26-5.76h2.68l2.9,4,2.87-4h2.68l-4.26,5.76,4.37,5.89h-2.69l-2.97-4.13-2.99,4.13h-2.69Z"/><path class="b" d="M285.23,57.15c-.83-.97-1.55-2.07-2.16-3.29-.6-1.22-1.06-2.5-1.38-3.84-.32-1.34-.46-2.68-.44-4.02-.02-1.34,.13-2.68,.44-4.02s.78-2.62,1.38-3.84c.6-1.22,1.32-2.31,2.16-3.29l1.68,1.25c-.86,1.02-1.56,2.07-2.08,3.14s-.91,2.18-1.15,3.3c-.25,1.13-.37,2.28-.37,3.45s.12,2.31,.37,3.44c.24,1.13,.63,2.23,1.16,3.31,.53,1.08,1.22,2.12,2.08,3.14l-1.68,1.25Z"/><path class="b" d="M289.32,53.13v-15.54h9.92v2.12h-7.67v4.36h6.38v2.13h-6.38v4.8h7.67v2.12h-9.92Z"/><path class="b" d="M305.12,53.45c-.86,0-1.59-.16-2.17-.48-.58-.32-1.02-.74-1.32-1.27-.3-.53-.45-1.11-.45-1.74,0-.59,.1-1.11,.31-1.55,.21-.45,.52-.83,.93-1.14s.91-.57,1.51-.76c.52-.15,1.1-.28,1.76-.4,.65-.11,1.34-.22,2.07-.32s1.44-.2,2.15-.3l-.82,.45c.01-.91-.18-1.59-.58-2.03-.4-.44-1.08-.66-2.05-.66-.61,0-1.17,.14-1.68,.43-.51,.28-.87,.75-1.07,1.41l-2.1-.65c.29-1,.84-1.79,1.64-2.38,.81-.59,1.89-.88,3.23-.88,1.04,0,1.95,.18,2.72,.53,.77,.36,1.34,.92,1.7,1.69,.19,.38,.3,.78,.35,1.21,.04,.42,.06,.88,.06,1.37v7.17h-2v-2.66l.39,.34c-.48,.89-1.09,1.56-1.84,1.99-.75,.44-1.66,.65-2.75,.65Zm.4-1.84c.64,0,1.19-.11,1.65-.34s.83-.52,1.11-.87,.46-.72,.55-1.1c.12-.34,.19-.73,.21-1.17,.02-.43,.03-.78,.03-1.04l.73,.27c-.71,.11-1.36,.21-1.94,.29-.58,.09-1.11,.17-1.58,.25-.47,.08-.89,.18-1.26,.3-.31,.11-.58,.24-.83,.39-.24,.15-.43,.33-.57,.55s-.21,.48-.21,.79,.08,.58,.23,.84c.15,.26,.38,.46,.69,.61,.31,.15,.7,.23,1.19,.23Z"/><path class="b" d="M318.57,53.44c-1.42,0-2.57-.31-3.46-.94-.89-.63-1.44-1.51-1.64-2.64l2.31-.36c.14,.6,.48,1.08,1,1.43s1.17,.52,1.95,.52c.71,0,1.26-.14,1.66-.43,.4-.29,.6-.68,.6-1.19,0-.29-.07-.53-.21-.72-.14-.18-.43-.36-.88-.52-.45-.17-1.13-.37-2.04-.61-1-.26-1.79-.54-2.38-.84-.59-.3-1-.65-1.25-1.05-.25-.4-.37-.88-.37-1.45,0-.71,.19-1.32,.56-1.84s.9-.93,1.58-1.22c.68-.29,1.48-.43,2.39-.43s1.69,.14,2.38,.42c.7,.28,1.26,.68,1.69,1.19,.43,.51,.69,1.12,.78,1.81l-2.31,.42c-.08-.56-.34-1-.79-1.33-.45-.32-1.02-.5-1.74-.53-.68-.03-1.24,.08-1.66,.34-.42,.26-.64,.61-.64,1.05,0,.26,.08,.48,.24,.66,.16,.18,.48,.35,.94,.52,.47,.17,1.16,.36,2.07,.59,.98,.25,1.75,.53,2.33,.84,.58,.31,.99,.67,1.24,1.09s.37,.93,.37,1.53c0,1.15-.42,2.05-1.26,2.71-.84,.66-1.99,.98-3.47,.98Z"/><path class="b" d="M327.26,58.3l2.25-6.14,.03,1.81-5.08-12.5h2.35l3.8,9.66h-.69l3.62-9.66h2.29l-6.43,16.83h-2.15Z"/><path class="b" d="M336.9,55.9c.86-1.01,1.55-2.06,2.08-3.14,.53-1.08,.92-2.18,1.16-3.31s.37-2.28,.37-3.44-.12-2.32-.37-3.45c-.24-1.12-.63-2.23-1.15-3.3s-1.22-2.12-2.08-3.14l1.68-1.25c.83,.97,1.55,2.07,2.16,3.29,.6,1.22,1.06,2.5,1.38,3.84s.46,2.68,.44,4.02c.02,1.34-.13,2.68-.44,4.02-.32,1.34-.78,2.62-1.38,3.84-.6,1.22-1.32,2.31-2.16,3.29l-1.68-1.25Z"/></g><g><path class="b" d="M13.3,129.55v-15.54h2.04l5.63,11.68,5.6-11.68h2.06v15.52h-2.14v-10.63l-5.02,10.64h-1.03l-5.03-10.64v10.64h-2.12Z"/><path class="b" d="M34.94,129.87c-.86,0-1.59-.16-2.17-.48-.58-.32-1.02-.74-1.32-1.27-.3-.53-.45-1.11-.45-1.74,0-.59,.1-1.11,.31-1.55,.21-.45,.52-.83,.93-1.14s.91-.57,1.51-.76c.52-.15,1.1-.28,1.76-.4,.65-.11,1.34-.22,2.07-.32s1.44-.2,2.15-.3l-.82,.45c.01-.91-.18-1.59-.58-2.03-.4-.44-1.08-.66-2.05-.66-.61,0-1.17,.14-1.68,.43-.51,.28-.87,.75-1.07,1.41l-2.1-.65c.29-1,.84-1.79,1.64-2.38,.81-.59,1.89-.88,3.23-.88,1.04,0,1.95,.18,2.72,.53,.77,.36,1.34,.92,1.7,1.69,.19,.38,.3,.78,.35,1.21,.04,.42,.06,.88,.06,1.37v7.17h-2v-2.66l.39,.34c-.48,.89-1.09,1.56-1.84,1.99-.75,.44-1.66,.65-2.75,.65Zm.4-1.84c.64,0,1.19-.11,1.65-.34s.83-.52,1.11-.87,.46-.72,.55-1.1c.12-.34,.19-.73,.21-1.17,.02-.43,.03-.78,.03-1.04l.73,.27c-.71,.11-1.36,.21-1.94,.29-.58,.09-1.11,.17-1.58,.25-.47,.08-.89,.18-1.26,.3-.31,.11-.58,.24-.83,.39-.24,.15-.43,.33-.57,.55s-.21,.48-.21,.79,.08,.58,.23,.84c.15,.26,.38,.46,.69,.61,.31,.15,.7,.23,1.19,.23Z"/><path class="b" d="M42.64,129.55l4.36-5.89-4.26-5.76h2.68l2.9,4,2.87-4h2.68l-4.26,5.76,4.37,5.89h-2.69l-2.97-4.13-2.99,4.13h-2.69Z"/><path class="b" d="M63.66,129.55l-5.05-15.54h2.34l4.3,13.26,4.36-13.26h2.34l-5.05,15.54h-3.25Z"/><path class="b" d="M76.86,129.87c-.86,0-1.59-.16-2.17-.48-.58-.32-1.02-.74-1.32-1.27-.3-.53-.45-1.11-.45-1.74,0-.59,.1-1.11,.31-1.55,.21-.45,.52-.83,.93-1.14s.91-.57,1.51-.76c.52-.15,1.1-.28,1.76-.4,.65-.11,1.34-.22,2.07-.32s1.44-.2,2.15-.3l-.82,.45c.01-.91-.18-1.59-.58-2.03-.4-.44-1.08-.66-2.05-.66-.61,0-1.17,.14-1.68,.43-.51,.28-.87,.75-1.07,1.41l-2.1-.65c.29-1,.84-1.79,1.64-2.38,.81-.59,1.89-.88,3.23-.88,1.04,0,1.95,.18,2.72,.53,.77,.36,1.34,.92,1.7,1.69,.19,.38,.3,.78,.35,1.21,.04,.42,.06,.88,.06,1.37v7.17h-2v-2.66l.39,.34c-.48,.89-1.09,1.56-1.84,1.99-.75,.44-1.66,.65-2.75,.65Zm.4-1.84c.64,0,1.19-.11,1.65-.34s.83-.52,1.11-.87,.46-.72,.55-1.1c.12-.34,.19-.73,.21-1.17,.02-.43,.03-.78,.03-1.04l.73,.27c-.71,.11-1.36,.21-1.94,.29-.58,.09-1.11,.17-1.58,.25-.47,.08-.89,.18-1.26,.3-.31,.11-.58,.24-.83,.39-.24,.15-.43,.33-.57,.55s-.21,.48-.21,.79,.08,.58,.23,.84c.15,.26,.38,.46,.69,.61,.31,.15,.7,.23,1.19,.23Z"/><path class="b" d="M86.07,129.55v-15.86h2.25v15.86h-2.25Z"/><path class="b" d="M95.96,129.86c-.81,0-1.48-.13-2.03-.39s-.99-.6-1.33-1.02c-.34-.42-.6-.88-.78-1.38-.18-.5-.3-.98-.37-1.46s-.1-.89-.1-1.25v-6.47h2.29v5.73c0,.45,.04,.92,.11,1.4,.08,.48,.22,.92,.43,1.33,.21,.41,.51,.74,.9,.99,.38,.25,.89,.38,1.5,.38,.4,0,.78-.07,1.14-.2,.36-.13,.67-.35,.94-.64,.27-.29,.48-.68,.64-1.17,.15-.48,.23-1.07,.23-1.76l1.4,.53c0,1.06-.2,1.99-.59,2.8-.4,.81-.96,1.44-1.7,1.89-.74,.45-1.64,.68-2.69,.68Zm3.85-.31v-3.37h-.27v-8.29h2.28v11.65h-2.01Z"/><path class="b" d="M110,129.87c-1.16,0-2.17-.25-3.05-.76-.87-.51-1.55-1.22-2.04-2.13-.49-.91-.73-1.96-.73-3.17,0-1.27,.24-2.38,.72-3.31,.48-.94,1.15-1.66,2-2.17,.86-.51,1.85-.77,2.99-.77s2.2,.27,3.03,.83c.83,.55,1.46,1.33,1.87,2.35,.41,1.01,.58,2.22,.49,3.61h-2.25v-.82c-.01-1.35-.27-2.35-.77-3s-1.26-.97-2.28-.97c-1.13,0-1.98,.36-2.55,1.07s-.85,1.74-.85,3.09,.28,2.27,.85,2.97,1.39,1.05,2.46,1.05c.71,0,1.31-.16,1.83-.48,.51-.32,.92-.78,1.2-1.38l2.21,.7c-.45,1.04-1.14,1.85-2.06,2.42-.92,.57-1.95,.86-3.08,.86Zm-4.15-5.51v-1.76h8.32v1.76h-8.32Z"/><path class="b" d="M123.91,114.01l-4.14,15.54h-2.28l4.14-15.54h2.28Z"/><path class="b" d="M130.59,129.55v-13.41h-5.17v-2.12h12.59v2.12h-5.17v13.41h-2.25Z"/><path class="b" d="M139.73,129.55v-11.65h2.01v2.83l-.28-.37c.14-.37,.33-.72,.56-1.03,.23-.31,.5-.57,.8-.77,.29-.22,.62-.38,.99-.5,.36-.12,.74-.19,1.12-.22,.38-.02,.75,0,1.1,.06v2.11c-.38-.1-.8-.13-1.27-.09s-.89,.19-1.28,.44c-.37,.24-.66,.53-.87,.86-.21,.34-.37,.71-.46,1.13-.09,.41-.14,.85-.14,1.31v5.88h-2.28Z"/><path class="b" d="M151.36,129.87c-.86,0-1.59-.16-2.17-.48-.58-.32-1.02-.74-1.32-1.27-.3-.53-.45-1.11-.45-1.74,0-.59,.1-1.11,.31-1.55,.21-.45,.52-.83,.93-1.14s.91-.57,1.51-.76c.52-.15,1.1-.28,1.76-.4,.65-.11,1.34-.22,2.07-.32s1.44-.2,2.15-.3l-.82,.45c.01-.91-.18-1.59-.58-2.03-.4-.44-1.08-.66-2.05-.66-.61,0-1.17,.14-1.68,.43-.51,.28-.87,.75-1.07,1.41l-2.1-.65c.29-1,.84-1.79,1.64-2.38,.81-.59,1.89-.88,3.23-.88,1.04,0,1.95,.18,2.72,.53,.77,.36,1.34,.92,1.7,1.69,.19,.38,.3,.78,.35,1.21,.04,.42,.06,.88,.06,1.37v7.17h-2v-2.66l.39,.34c-.48,.89-1.09,1.56-1.84,1.99-.75,.44-1.66,.65-2.75,.65Zm.4-1.84c.64,0,1.19-.11,1.65-.34s.83-.52,1.11-.87,.46-.72,.55-1.1c.12-.34,.19-.73,.21-1.17,.02-.43,.03-.78,.03-1.04l.73,.27c-.71,.11-1.36,.21-1.94,.29-.58,.09-1.11,.17-1.58,.25-.47,.08-.89,.18-1.26,.3-.31,.11-.58,.24-.83,.39-.24,.15-.43,.33-.57,.55s-.21,.48-.21,.79,.08,.58,.23,.84c.15,.26,.38,.46,.69,.61,.31,.15,.7,.23,1.19,.23Z"/><path class="b" d="M160.35,129.55v-11.65h2.02v3.37h.27v8.29h-2.29Zm8.19,0v-5.73c0-.45-.04-.92-.11-1.4-.08-.48-.22-.92-.43-1.33-.21-.41-.51-.74-.9-.99s-.89-.38-1.5-.38c-.4,0-.78,.07-1.14,.2-.36,.13-.67,.35-.94,.64s-.48,.68-.64,1.17-.23,1.07-.23,1.76l-1.4-.53c0-1.06,.2-1.99,.59-2.8,.4-.81,.96-1.44,1.71-1.89,.74-.45,1.64-.68,2.69-.68,.81,0,1.48,.13,2.03,.39,.55,.26,.99,.6,1.33,1.02,.34,.42,.6,.88,.78,1.38,.18,.5,.3,.98,.37,1.46s.1,.89,.1,1.25v6.47h-2.29Z"/><path class="b" d="M178.09,129.86c-1.42,0-2.57-.31-3.46-.94-.89-.63-1.44-1.51-1.64-2.64l2.31-.36c.14,.6,.48,1.08,1,1.43s1.17,.52,1.95,.52c.71,0,1.26-.14,1.66-.43,.4-.29,.6-.68,.6-1.19,0-.29-.07-.53-.21-.72-.14-.18-.43-.36-.88-.52-.45-.17-1.13-.37-2.04-.61-1-.26-1.79-.54-2.38-.84-.59-.3-1-.65-1.25-1.05-.25-.4-.37-.88-.37-1.45,0-.71,.19-1.32,.56-1.84s.9-.93,1.58-1.22c.68-.29,1.48-.43,2.39-.43s1.69,.14,2.38,.42c.7,.28,1.26,.68,1.69,1.19,.43,.51,.69,1.12,.78,1.81l-2.31,.42c-.08-.56-.34-1-.79-1.33-.45-.32-1.02-.5-1.74-.53-.68-.03-1.24,.08-1.66,.34-.42,.26-.64,.61-.64,1.05,0,.26,.08,.48,.24,.66,.16,.18,.48,.35,.94,.52,.47,.17,1.16,.36,2.07,.59,.98,.25,1.75,.53,2.33,.84,.58,.31,.99,.67,1.24,1.09s.37,.93,.37,1.53c0,1.15-.42,2.05-1.26,2.71-.84,.66-1.99,.98-3.47,.98Z"/><path class="b" d="M188.49,129.87c-.86,0-1.59-.16-2.17-.48-.58-.32-1.02-.74-1.32-1.27-.3-.53-.45-1.11-.45-1.74,0-.59,.1-1.11,.31-1.55,.21-.45,.52-.83,.93-1.14s.91-.57,1.51-.76c.52-.15,1.1-.28,1.76-.4,.65-.11,1.34-.22,2.07-.32s1.44-.2,2.15-.3l-.82,.45c.01-.91-.18-1.59-.58-2.03-.4-.44-1.08-.66-2.05-.66-.61,0-1.17,.14-1.68,.43-.51,.28-.87,.75-1.07,1.41l-2.1-.65c.29-1,.84-1.79,1.64-2.38,.81-.59,1.89-.88,3.23-.88,1.04,0,1.95,.18,2.72,.53,.77,.36,1.34,.92,1.7,1.69,.19,.38,.3,.78,.35,1.21,.04,.42,.06,.88,.06,1.37v7.17h-2v-2.66l.39,.34c-.48,.89-1.09,1.56-1.84,1.99-.75,.44-1.66,.65-2.75,.65Zm.4-1.84c.64,0,1.19-.11,1.65-.34s.83-.52,1.11-.87,.46-.72,.55-1.1c.12-.34,.19-.73,.21-1.17,.02-.43,.03-.78,.03-1.04l.73,.27c-.71,.11-1.36,.21-1.94,.29-.58,.09-1.11,.17-1.58,.25-.47,.08-.89,.18-1.26,.3-.31,.11-.58,.24-.83,.39-.24,.15-.43,.33-.57,.55s-.21,.48-.21,.79,.08,.58,.23,.84c.15,.26,.38,.46,.69,.61,.31,.15,.7,.23,1.19,.23Z"/><path class="b" d="M202.47,129.87c-1.19,0-2.21-.27-3.04-.8s-1.47-1.26-1.92-2.19c-.44-.93-.67-1.98-.67-3.16,0-1.2,.24-2.26,.69-3.19,.45-.92,1.1-1.65,1.94-2.17,.84-.52,1.85-.79,3.03-.79,1.27,0,2.36,.32,3.26,.95,.9,.63,1.5,1.5,1.79,2.6l-2.24,.65c-.22-.65-.59-1.16-1.09-1.53-.51-.36-1.09-.54-1.74-.54-.74,0-1.35,.17-1.82,.52-.48,.35-.83,.83-1.06,1.43-.23,.6-.35,1.29-.36,2.07,0,1.2,.28,2.17,.83,2.91,.54,.74,1.35,1.11,2.41,1.11,.73,0,1.31-.17,1.76-.5,.45-.33,.79-.81,1.03-1.44l2.29,.54c-.38,1.14-1.01,2.01-1.89,2.62-.88,.61-1.94,.91-3.19,.91Z"/><path class="b" d="M208.46,119.71v-1.81h7.96v1.81h-7.96Zm7.96,9.84c-.73,.14-1.45,.21-2.16,.18-.7-.02-1.33-.16-1.89-.41-.55-.25-.97-.65-1.25-1.19-.25-.48-.39-.97-.41-1.47-.02-.5-.03-1.07-.03-1.7v-10.3h2.27v10.2c0,.47,0,.87,.02,1.22s.08,.64,.22,.87c.26,.45,.67,.7,1.24,.76,.56,.06,1.23,.04,1.99-.07v1.91Z"/><path class="b" d="M219.08,115.99v-2.19h2.25v2.19h-2.25Zm0,13.56v-11.65h2.25v11.65h-2.25Z"/><path class="b" d="M229.63,129.87c-1.17,0-2.18-.26-3.03-.79-.86-.52-1.52-1.25-1.98-2.17-.46-.92-.7-1.99-.7-3.2s.24-2.29,.71-3.21,1.14-1.64,2-2.16c.86-.51,1.86-.77,3-.77s2.18,.26,3.03,.79c.86,.53,1.52,1.25,1.99,2.17,.47,.92,.7,1.98,.7,3.18s-.24,2.29-.71,3.21c-.47,.92-1.13,1.65-1.99,2.17s-1.86,.78-3.02,.78Zm0-2.13c1.11,0,1.95-.38,2.5-1.13,.55-.75,.83-1.72,.83-2.91s-.28-2.19-.84-2.92c-.56-.73-1.39-1.09-2.49-1.09-.75,0-1.38,.17-1.87,.51-.49,.34-.85,.81-1.09,1.41s-.36,1.3-.36,2.09c0,1.22,.28,2.2,.84,2.93,.56,.73,1.38,1.1,2.47,1.1Z"/><path class="b" d="M237.71,129.55v-11.65h2.02v3.37h.27v8.29h-2.29Zm8.19,0v-5.73c0-.45-.04-.92-.11-1.4-.08-.48-.22-.92-.43-1.33-.21-.41-.51-.74-.9-.99s-.89-.38-1.5-.38c-.4,0-.78,.07-1.14,.2-.36,.13-.67,.35-.94,.64s-.48,.68-.64,1.17-.23,1.07-.23,1.76l-1.4-.53c0-1.06,.2-1.99,.59-2.8,.4-.81,.96-1.44,1.71-1.89,.74-.45,1.64-.68,2.69-.68,.81,0,1.48,.13,2.03,.39,.55,.26,.99,.6,1.33,1.02,.34,.42,.6,.88,.78,1.38,.18,.5,.3,.98,.37,1.46s.1,.89,.1,1.25v6.47h-2.29Z"/><path class="b" d="M259.94,129.87c-1.09,0-2.02-.27-2.81-.81-.79-.54-1.4-1.27-1.82-2.21s-.64-1.98-.64-3.14,.22-2.22,.65-3.15c.43-.92,1.04-1.65,1.84-2.19,.79-.54,1.74-.8,2.83-.8s2.03,.27,2.78,.8c.75,.54,1.32,1.27,1.7,2.2s.58,1.97,.58,3.14-.19,2.21-.58,3.14-.96,1.66-1.72,2.21c-.75,.54-1.69,.81-2.8,.81Zm.31-2.04c.74,0,1.34-.18,1.81-.53,.47-.35,.81-.84,1.03-1.46s.32-1.33,.32-2.14-.11-1.52-.33-2.14c-.22-.62-.56-1.1-1.01-1.45-.46-.35-1.04-.52-1.74-.52-.75,0-1.36,.18-1.84,.55-.48,.37-.84,.86-1.07,1.48-.23,.62-.35,1.31-.35,2.07s.12,1.46,.35,2.09c.23,.62,.59,1.12,1.06,1.48,.47,.37,1.07,.55,1.79,.55Zm3.16,1.71v-8.38h-.26v-7.15h2.27v15.54h-2.01Z"/><path class="b" d="M268.66,115.99v-2.19h2.25v2.19h-2.25Zm0,13.56v-11.65h2.25v11.65h-2.25Z"/><path class="b" d="M273.28,119.71v-1.81h7.13v1.81h-7.13Zm1.93,9.84v-12.06c0-.29,.01-.61,.03-.94,.02-.33,.08-.67,.19-.99,.1-.33,.28-.63,.52-.9,.29-.32,.62-.55,.97-.69s.7-.22,1.05-.24,.67-.03,.97-.03h1.47v1.86h-1.36c-.53,0-.93,.13-1.19,.39-.26,.26-.39,.63-.39,1.12v12.49h-2.25Zm5.12-9.84v-1.81h7.13v1.81h-7.13Zm1.93,9.84v-12.06c0-.29,.01-.61,.03-.94,.02-.33,.08-.67,.19-.99,.1-.33,.28-.63,.52-.9,.29-.32,.62-.55,.97-.69s.7-.22,1.05-.24,.67-.03,.97-.03h1.47v1.86h-1.36c-.53,0-.93,.13-1.19,.39-.26,.26-.39,.63-.39,1.12v12.49h-2.25Z"/><path class="b" d="M289.41,115.99v-2.19h2.25v2.19h-2.25Zm0,13.56v-11.65h2.25v11.65h-2.25Z"/><path class="b" d="M299.89,129.87c-1.19,0-2.21-.27-3.04-.8s-1.47-1.26-1.92-2.19c-.44-.93-.67-1.98-.67-3.16,0-1.2,.24-2.26,.69-3.19,.45-.92,1.1-1.65,1.94-2.17,.84-.52,1.85-.79,3.03-.79,1.27,0,2.36,.32,3.26,.95,.9,.63,1.5,1.5,1.79,2.6l-2.24,.65c-.22-.65-.59-1.16-1.09-1.53-.51-.36-1.09-.54-1.74-.54-.74,0-1.35,.17-1.82,.52-.48,.35-.83,.83-1.06,1.43-.23,.6-.35,1.29-.36,2.07,0,1.2,.28,2.17,.83,2.91,.54,.74,1.35,1.11,2.41,1.11,.73,0,1.31-.17,1.76-.5,.45-.33,.79-.81,1.03-1.44l2.29,.54c-.38,1.14-1.01,2.01-1.89,2.62-.88,.61-1.94,.91-3.19,.91Z"/><path class="b" d="M311.56,129.86c-.81,0-1.48-.13-2.03-.39s-.99-.6-1.33-1.02c-.34-.42-.6-.88-.78-1.38-.18-.5-.3-.98-.37-1.46s-.1-.89-.1-1.25v-6.47h2.29v5.73c0,.45,.04,.92,.11,1.4,.08,.48,.22,.92,.43,1.33,.21,.41,.51,.74,.9,.99,.38,.25,.89,.38,1.5,.38,.4,0,.78-.07,1.14-.2,.36-.13,.67-.35,.94-.64,.27-.29,.48-.68,.64-1.17,.15-.48,.23-1.07,.23-1.76l1.4,.53c0,1.06-.2,1.99-.59,2.8-.4,.81-.96,1.44-1.7,1.89-.74,.45-1.64,.68-2.69,.68Zm3.85-.31v-3.37h-.27v-8.29h2.28v11.65h-2.01Z"/><path class="b" d="M320.66,129.55v-15.86h2.25v15.86h-2.25Z"/><path class="b" d="M324.85,119.71v-1.81h7.96v1.81h-7.96Zm7.96,9.84c-.73,.14-1.45,.21-2.16,.18-.7-.02-1.33-.16-1.89-.41-.55-.25-.97-.65-1.25-1.19-.25-.48-.39-.97-.41-1.47-.02-.5-.03-1.07-.03-1.7v-10.3h2.27v10.2c0,.47,0,.87,.02,1.22s.08,.64,.22,.87c.26,.45,.67,.7,1.24,.76,.56,.06,1.23,.04,1.99-.07v1.91Z"/><path class="b" d="M336.84,134.73l2.25-6.14,.03,1.81-5.08-12.5h2.35l3.8,9.66h-.69l3.62-9.66h2.29l-6.43,16.83h-2.15Z"/></g><g><path class="b" d="M81.66,289.94v-15.54h2.04l5.63,11.68,5.6-11.68h2.06v15.52h-2.14v-10.63l-5.02,10.64h-1.03l-5.03-10.64v10.64h-2.12Z"/><path class="b" d="M103.3,290.26c-.86,0-1.59-.16-2.17-.48-.58-.32-1.02-.75-1.32-1.27-.3-.53-.45-1.11-.45-1.74,0-.59,.1-1.11,.31-1.55s.52-.83,.93-1.14c.41-.31,.91-.57,1.51-.76,.52-.15,1.1-.28,1.76-.4,.65-.12,1.34-.22,2.07-.32,.72-.1,1.44-.2,2.15-.3l-.82,.45c.01-.91-.18-1.59-.58-2.03-.4-.44-1.08-.66-2.05-.66-.61,0-1.17,.14-1.68,.43-.51,.28-.87,.75-1.07,1.41l-2.1-.65c.29-1,.84-1.79,1.64-2.38,.81-.59,1.89-.88,3.23-.88,1.04,0,1.95,.18,2.72,.53,.77,.36,1.34,.92,1.7,1.69,.19,.38,.3,.78,.35,1.21,.04,.42,.06,.88,.06,1.37v7.17h-2v-2.67l.39,.35c-.48,.89-1.09,1.55-1.84,1.99-.75,.43-1.66,.65-2.75,.65Zm.4-1.84c.64,0,1.19-.11,1.65-.34s.83-.52,1.11-.87,.46-.72,.55-1.1c.12-.35,.19-.73,.21-1.17,.02-.43,.03-.78,.03-1.04l.73,.27c-.71,.11-1.36,.21-1.94,.29-.58,.09-1.11,.17-1.58,.25-.47,.08-.89,.18-1.26,.3-.31,.11-.58,.24-.83,.39-.24,.15-.43,.33-.57,.55s-.21,.48-.21,.79,.08,.58,.23,.84c.15,.25,.38,.46,.69,.61,.31,.15,.7,.23,1.19,.23Z"/><path class="b" d="M111,289.94l4.36-5.89-4.26-5.76h2.68l2.9,4,2.87-4h2.68l-4.26,5.76,4.37,5.89h-2.69l-2.97-4.13-2.99,4.13h-2.69Z"/><path class="b" d="M132.02,289.94l-5.05-15.54h2.34l4.3,13.26,4.36-13.26h2.34l-5.05,15.54h-3.25Z"/><path class="b" d="M145.23,290.26c-.86,0-1.59-.16-2.17-.48-.58-.32-1.02-.75-1.32-1.27-.3-.53-.45-1.11-.45-1.74,0-.59,.1-1.11,.31-1.55s.52-.83,.93-1.14c.41-.31,.91-.57,1.51-.76,.52-.15,1.1-.28,1.76-.4,.65-.12,1.34-.22,2.07-.32,.72-.1,1.44-.2,2.15-.3l-.82,.45c.01-.91-.18-1.59-.58-2.03-.4-.44-1.08-.66-2.05-.66-.61,0-1.17,.14-1.68,.43-.51,.28-.87,.75-1.07,1.41l-2.1-.65c.29-1,.84-1.79,1.64-2.38,.81-.59,1.89-.88,3.23-.88,1.04,0,1.95,.18,2.72,.53,.77,.36,1.34,.92,1.7,1.69,.19,.38,.3,.78,.35,1.21,.04,.42,.06,.88,.06,1.37v7.17h-2v-2.67l.39,.35c-.48,.89-1.09,1.55-1.84,1.99-.75,.43-1.66,.65-2.75,.65Zm.4-1.84c.64,0,1.19-.11,1.65-.34s.83-.52,1.11-.87,.46-.72,.55-1.1c.12-.35,.19-.73,.21-1.17,.02-.43,.03-.78,.03-1.04l.73,.27c-.71,.11-1.36,.21-1.94,.29-.58,.09-1.11,.17-1.58,.25-.47,.08-.89,.18-1.26,.3-.31,.11-.58,.24-.83,.39-.24,.15-.43,.33-.57,.55s-.21,.48-.21,.79,.08,.58,.23,.84c.15,.25,.38,.46,.69,.61,.31,.15,.7,.23,1.19,.23Z"/><path class="b" d="M154.44,289.94v-15.86h2.25v15.86h-2.25Z"/><path class="b" d="M164.32,290.25c-.81,0-1.48-.13-2.03-.39-.55-.26-.99-.6-1.33-1.02-.34-.42-.6-.88-.78-1.38s-.3-.98-.37-1.46c-.06-.48-.1-.89-.1-1.25v-6.47h2.29v5.73c0,.45,.04,.92,.11,1.4,.08,.48,.22,.92,.43,1.33,.21,.41,.51,.74,.9,.99,.38,.25,.89,.38,1.5,.38,.4,0,.78-.07,1.14-.2,.36-.13,.67-.35,.94-.64,.27-.29,.48-.68,.64-1.17s.23-1.07,.23-1.76l1.4,.53c0,1.06-.2,1.99-.59,2.8-.4,.81-.96,1.44-1.7,1.89-.74,.45-1.64,.68-2.69,.68Zm3.85-.31v-3.37h-.27v-8.29h2.28v11.65h-2.01Z"/><path class="b" d="M178.37,290.26c-1.16,0-2.17-.25-3.05-.76-.87-.51-1.55-1.21-2.04-2.12-.49-.91-.73-1.96-.73-3.17,0-1.27,.24-2.38,.72-3.31,.48-.93,1.15-1.66,2-2.17,.86-.51,1.85-.77,2.99-.77s2.2,.28,3.03,.83c.83,.55,1.46,1.33,1.87,2.35,.41,1.01,.58,2.22,.49,3.61h-2.25v-.82c-.01-1.35-.27-2.35-.77-3s-1.26-.97-2.28-.97c-1.13,0-1.98,.36-2.55,1.07-.57,.71-.85,1.74-.85,3.08s.28,2.27,.85,2.97,1.39,1.05,2.46,1.05c.71,0,1.31-.16,1.83-.48,.51-.32,.92-.78,1.2-1.38l2.21,.7c-.45,1.04-1.14,1.85-2.06,2.42-.92,.57-1.95,.86-3.08,.86Zm-4.15-5.51v-1.76h8.32v1.76h-8.32Z"/><path class="b" d="M192.27,274.4l-4.14,15.54h-2.28l4.14-15.54h2.28Z"/><path class="b" d="M195.08,289.94v-15.54h6.11c.99,0,1.81,.2,2.48,.6,.67,.4,1.17,.92,1.51,1.56,.34,.64,.51,1.31,.51,2.01,0,.86-.21,1.59-.63,2.2s-.99,1.03-1.7,1.25l-.02-.53c.99,.24,1.75,.72,2.29,1.43,.53,.71,.8,1.53,.8,2.48s-.18,1.71-.54,2.38c-.36,.68-.89,1.2-1.59,1.58-.69,.38-1.53,.57-2.52,.57h-6.69Zm2.29-9.19h3.79c.42,0,.79-.08,1.13-.25,.33-.17,.6-.41,.8-.73,.2-.32,.3-.71,.3-1.16,0-.6-.2-1.1-.6-1.49-.4-.39-.94-.58-1.62-.58h-3.79v4.22Zm0,7.04h4.06c.51,0,.97-.1,1.38-.29s.73-.47,.96-.84,.35-.8,.35-1.3c0-.47-.1-.89-.31-1.27-.2-.38-.5-.68-.88-.9-.39-.22-.84-.33-1.35-.33h-4.2v4.92Z"/><path class="b" d="M208.78,289.94v-15.86h2.25v15.86h-2.25Z"/><path class="b" d="M219.33,290.26c-1.17,0-2.18-.26-3.03-.79-.86-.53-1.52-1.25-1.98-2.17-.46-.92-.7-1.99-.7-3.2s.24-2.29,.71-3.21c.47-.92,1.14-1.64,2-2.16,.86-.51,1.86-.77,3-.77s2.18,.26,3.03,.79c.86,.52,1.52,1.25,1.99,2.17s.7,1.98,.7,3.18-.24,2.29-.71,3.21c-.47,.92-1.13,1.65-1.99,2.17s-1.86,.78-3.02,.78Zm0-2.12c1.11,0,1.95-.38,2.5-1.13,.55-.75,.83-1.72,.83-2.91s-.28-2.19-.84-2.92c-.56-.73-1.39-1.1-2.49-1.1-.75,0-1.38,.17-1.87,.51-.49,.34-.85,.81-1.09,1.41-.24,.6-.36,1.3-.36,2.09,0,1.22,.28,2.2,.84,2.93s1.38,1.1,2.47,1.1Z"/><path class="b" d="M232.41,290.26c-1.19,0-2.21-.27-3.04-.8s-1.47-1.26-1.92-2.19-.67-1.98-.67-3.16c0-1.2,.24-2.26,.69-3.19,.45-.92,1.1-1.65,1.94-2.17,.84-.53,1.85-.79,3.03-.79,1.27,0,2.36,.32,3.26,.95,.9,.63,1.5,1.5,1.79,2.6l-2.24,.65c-.22-.66-.59-1.16-1.09-1.53-.51-.36-1.09-.54-1.74-.54-.74,0-1.35,.17-1.82,.52-.48,.35-.83,.83-1.06,1.43-.23,.6-.35,1.29-.36,2.07,0,1.2,.28,2.17,.83,2.91s1.35,1.11,2.41,1.11c.73,0,1.31-.17,1.76-.5,.45-.33,.79-.81,1.03-1.44l2.29,.54c-.38,1.14-1.01,2.01-1.89,2.62-.88,.61-1.94,.91-3.19,.91Z"/><path class="b" d="M239.68,289.94v-15.54h2.3v9.49l4.57-5.61h2.87l-4.83,5.83,5.33,5.83h-3.06l-4.88-5.61v5.61h-2.3Z"/><path class="b" d="M259.94,290.26c-1.09,0-2.02-.27-2.81-.81-.79-.54-1.4-1.28-1.82-2.21-.43-.93-.64-1.98-.64-3.14s.22-2.22,.65-3.14,1.04-1.65,1.84-2.19c.79-.54,1.74-.8,2.83-.8s2.03,.27,2.78,.8c.75,.54,1.32,1.27,1.7,2.2s.58,1.97,.58,3.14-.19,2.21-.58,3.14-.96,1.66-1.72,2.21c-.75,.54-1.69,.81-2.8,.81Zm.31-2.04c.74,0,1.34-.18,1.81-.53s.81-.84,1.03-1.46c.22-.62,.32-1.33,.32-2.14s-.11-1.52-.33-2.14c-.22-.62-.56-1.1-1.01-1.45-.46-.34-1.04-.52-1.74-.52-.75,0-1.36,.18-1.84,.55-.48,.37-.84,.86-1.07,1.48-.23,.62-.35,1.31-.35,2.07s.12,1.47,.35,2.09c.23,.62,.59,1.12,1.06,1.48,.47,.37,1.07,.55,1.79,.55Zm3.16,1.72v-8.38h-.26v-7.15h2.27v15.54h-2.01Z"/><path class="b" d="M268.65,276.37v-2.19h2.25v2.19h-2.25Zm0,13.56v-11.65h2.25v11.65h-2.25Z"/><path class="b" d="M273.28,280.1v-1.81h7.13v1.81h-7.13Zm1.93,9.84v-12.06c0-.29,.01-.61,.03-.94,.02-.33,.08-.67,.19-.99,.1-.33,.28-.63,.52-.9,.29-.32,.62-.55,.97-.69s.7-.22,1.05-.24,.67-.03,.97-.03h1.47v1.86h-1.36c-.53,0-.93,.13-1.19,.39-.26,.26-.39,.64-.39,1.12v12.49h-2.25Zm5.12-9.84v-1.81h7.13v1.81h-7.13Zm1.93,9.84v-12.06c0-.29,.01-.61,.03-.94,.02-.33,.08-.67,.19-.99,.1-.33,.28-.63,.52-.9,.29-.32,.62-.55,.97-.69s.7-.22,1.05-.24,.67-.03,.97-.03h1.47v1.86h-1.36c-.53,0-.93,.13-1.19,.39-.26,.26-.39,.64-.39,1.12v12.49h-2.25Z"/><path class="b" d="M289.41,276.37v-2.19h2.25v2.19h-2.25Zm0,13.56v-11.65h2.25v11.65h-2.25Z"/><path class="b" d="M299.89,290.26c-1.19,0-2.21-.27-3.04-.8s-1.47-1.26-1.92-2.19-.67-1.98-.67-3.16c0-1.2,.24-2.26,.69-3.19,.45-.92,1.1-1.65,1.94-2.17,.84-.53,1.85-.79,3.03-.79,1.27,0,2.36,.32,3.26,.95,.9,.63,1.5,1.5,1.79,2.6l-2.24,.65c-.22-.66-.59-1.16-1.09-1.53-.51-.36-1.09-.54-1.74-.54-.74,0-1.35,.17-1.82,.52-.48,.35-.83,.83-1.06,1.43-.23,.6-.35,1.29-.36,2.07,0,1.2,.28,2.17,.83,2.91s1.35,1.11,2.41,1.11c.73,0,1.31-.17,1.76-.5,.45-.33,.79-.81,1.03-1.44l2.29,.54c-.38,1.14-1.01,2.01-1.89,2.62-.88,.61-1.94,.91-3.19,.91Z"/><path class="b" d="M311.56,290.25c-.81,0-1.48-.13-2.03-.39-.55-.26-.99-.6-1.33-1.02-.34-.42-.6-.88-.78-1.38s-.3-.98-.37-1.46c-.06-.48-.1-.89-.1-1.25v-6.47h2.29v5.73c0,.45,.04,.92,.11,1.4,.08,.48,.22,.92,.43,1.33,.21,.41,.51,.74,.9,.99,.38,.25,.89,.38,1.5,.38,.4,0,.78-.07,1.14-.2,.36-.13,.67-.35,.94-.64,.27-.29,.48-.68,.64-1.17s.23-1.07,.23-1.76l1.4,.53c0,1.06-.2,1.99-.59,2.8-.4,.81-.96,1.44-1.7,1.89-.74,.45-1.64,.68-2.69,.68Zm3.85-.31v-3.37h-.27v-8.29h2.28v11.65h-2.01Z"/><path class="b" d="M320.65,289.94v-15.86h2.25v15.86h-2.25Z"/><path class="b" d="M324.85,280.1v-1.81h7.96v1.81h-7.96Zm7.96,9.84c-.73,.14-1.45,.21-2.16,.18-.7-.02-1.33-.16-1.89-.41-.55-.25-.97-.65-1.25-1.19-.25-.48-.39-.97-.41-1.47-.02-.5-.03-1.07-.03-1.7v-10.3h2.27v10.2c0,.47,0,.87,.02,1.22,.01,.35,.08,.64,.22,.87,.26,.45,.67,.7,1.24,.76,.56,.06,1.23,.04,1.99-.07v1.91Z"/><path class="b" d="M336.84,295.11l2.25-6.14,.03,1.81-5.08-12.5h2.35l3.8,9.66h-.69l3.62-9.66h2.29l-6.43,16.83h-2.15Z"/></g><g><path class="b" d="M681.13,312.2v-15.54h6.11c.99,0,1.81,.2,2.48,.6,.67,.4,1.17,.92,1.51,1.56,.34,.64,.51,1.31,.51,2.01,0,.86-.21,1.59-.63,2.2s-.99,1.03-1.7,1.25l-.02-.53c.99,.24,1.75,.72,2.29,1.43,.53,.71,.8,1.53,.8,2.48s-.18,1.71-.54,2.38c-.36,.68-.89,1.2-1.59,1.58-.69,.38-1.53,.57-2.52,.57h-6.69Zm2.29-9.19h3.79c.42,0,.79-.08,1.13-.25,.33-.17,.6-.41,.8-.73,.2-.32,.3-.71,.3-1.16,0-.6-.2-1.1-.6-1.49-.4-.39-.94-.58-1.62-.58h-3.79v4.22Zm0,7.04h4.06c.51,0,.97-.1,1.38-.29s.73-.47,.96-.84,.35-.8,.35-1.3c0-.47-.1-.89-.31-1.27-.2-.38-.5-.68-.88-.9-.39-.22-.84-.33-1.35-.33h-4.2v4.92Z"/><path class="b" d="M694.83,312.2v-15.86h2.25v15.86h-2.25Z"/><path class="b" d="M705.38,312.53c-1.17,0-2.18-.26-3.03-.79-.86-.53-1.52-1.25-1.98-2.17-.46-.92-.7-1.99-.7-3.2s.24-2.29,.71-3.21c.47-.92,1.14-1.64,2-2.16,.86-.51,1.86-.77,3-.77s2.18,.26,3.03,.79c.86,.52,1.52,1.25,1.99,2.17s.7,1.98,.7,3.18-.24,2.29-.71,3.21c-.47,.92-1.13,1.65-1.99,2.17s-1.86,.78-3.02,.78Zm0-2.12c1.11,0,1.95-.38,2.5-1.13,.55-.75,.83-1.72,.83-2.91s-.28-2.19-.84-2.92c-.56-.73-1.39-1.1-2.49-1.1-.75,0-1.38,.17-1.87,.51-.49,.34-.85,.81-1.09,1.41-.24,.6-.36,1.3-.36,2.09,0,1.22,.28,2.2,.84,2.93s1.38,1.1,2.47,1.1Z"/><path class="b" d="M718.46,312.53c-1.19,0-2.21-.27-3.04-.8s-1.47-1.26-1.92-2.19-.67-1.98-.67-3.16c0-1.2,.24-2.26,.69-3.19,.45-.92,1.1-1.65,1.94-2.17,.84-.53,1.85-.79,3.03-.79,1.27,0,2.36,.32,3.26,.95,.9,.63,1.5,1.5,1.79,2.6l-2.24,.65c-.22-.66-.59-1.16-1.09-1.53-.51-.36-1.09-.54-1.74-.54-.74,0-1.35,.17-1.82,.52-.48,.35-.83,.83-1.06,1.43-.23,.6-.35,1.29-.36,2.07,0,1.2,.28,2.17,.83,2.91s1.35,1.11,2.41,1.11c.73,0,1.31-.17,1.76-.5,.45-.33,.79-.81,1.03-1.44l2.29,.54c-.38,1.14-1.01,2.01-1.89,2.62-.88,.61-1.94,.91-3.19,.91Z"/><path class="b" d="M725.73,312.2v-15.54h2.3v9.49l4.57-5.61h2.87l-4.83,5.83,5.33,5.83h-3.06l-4.88-5.61v5.61h-2.3Z"/><path class="b" d="M745.24,312.2v-13.41h-5.17v-2.12h12.59v2.12h-5.17v13.41h-2.25Z"/><path class="b" d="M757.67,312.53c-.86,0-1.59-.16-2.17-.48-.58-.32-1.02-.75-1.32-1.27-.3-.53-.45-1.11-.45-1.74,0-.59,.1-1.11,.31-1.55s.52-.83,.93-1.14c.41-.31,.91-.57,1.51-.76,.52-.15,1.1-.28,1.76-.4,.65-.12,1.34-.22,2.07-.32,.72-.1,1.44-.2,2.15-.3l-.82,.45c.01-.91-.18-1.59-.58-2.03-.4-.44-1.08-.66-2.05-.66-.61,0-1.17,.14-1.68,.43-.51,.28-.87,.75-1.07,1.41l-2.1-.65c.29-1,.84-1.79,1.64-2.38,.81-.59,1.89-.88,3.23-.88,1.04,0,1.95,.18,2.72,.53,.77,.36,1.34,.92,1.7,1.69,.19,.38,.3,.78,.35,1.21,.04,.42,.06,.88,.06,1.37v7.17h-2v-2.67l.39,.35c-.48,.89-1.09,1.55-1.84,1.99-.75,.43-1.66,.65-2.75,.65Zm.4-1.84c.64,0,1.19-.11,1.65-.34s.83-.52,1.11-.87,.46-.72,.55-1.1c.12-.35,.19-.73,.21-1.17,.02-.43,.03-.78,.03-1.04l.73,.27c-.71,.11-1.36,.21-1.94,.29-.58,.09-1.11,.17-1.58,.25-.47,.08-.89,.18-1.26,.3-.31,.11-.58,.24-.83,.39-.24,.15-.43,.33-.57,.55s-.21,.48-.21,.79,.08,.58,.23,.84c.15,.25,.38,.46,.69,.61,.31,.15,.7,.23,1.19,.23Z"/><path class="b" d="M766.67,312.2v-11.65h2.01v2.83l-.28-.37c.14-.37,.33-.72,.56-1.03,.23-.31,.5-.57,.8-.77,.29-.21,.62-.38,.99-.5,.36-.12,.74-.19,1.12-.22,.38-.03,.75,0,1.1,.06v2.11c-.38-.1-.8-.13-1.27-.09-.46,.04-.89,.19-1.28,.44-.37,.24-.66,.53-.87,.86-.21,.34-.37,.71-.46,1.13-.09,.41-.14,.85-.14,1.31v5.88h-2.28Z"/><path class="b" d="M779.64,312.53c-1.09,0-2.02-.27-2.81-.81-.79-.54-1.4-1.28-1.82-2.21-.43-.93-.64-1.98-.64-3.14s.22-2.22,.65-3.14,1.04-1.65,1.84-2.19c.79-.54,1.74-.8,2.83-.8s2.03,.27,2.78,.8c.75,.54,1.32,1.27,1.7,2.2s.58,1.97,.58,3.14-.19,2.21-.58,3.14-.96,1.66-1.72,2.21c-.75,.54-1.69,.81-2.8,.81Zm.17,5.18c-.63,0-1.23-.1-1.82-.29-.59-.19-1.12-.48-1.6-.86-.48-.38-.88-.84-1.2-1.4l2.08-1.06c.25,.5,.61,.86,1.08,1.09,.47,.23,.96,.34,1.48,.34,.64,0,1.19-.11,1.64-.34s.8-.57,1.03-1.02,.35-1.01,.34-1.68v-3.26h.27v-8.68h2v11.96c0,.31-.01,.6-.03,.88s-.06,.56-.12,.84c-.17,.78-.48,1.43-.94,1.94s-1.05,.89-1.77,1.14-1.53,.38-2.43,.38Zm.14-7.22c.74,0,1.34-.18,1.81-.53s.81-.84,1.03-1.46c.22-.62,.32-1.33,.32-2.14s-.11-1.52-.33-2.14c-.22-.62-.56-1.1-1.01-1.45-.46-.34-1.04-.52-1.74-.52-.75,0-1.36,.18-1.84,.55-.48,.37-.84,.86-1.07,1.48-.23,.62-.35,1.31-.35,2.07s.12,1.47,.35,2.09c.23,.62,.59,1.12,1.06,1.48,.47,.37,1.07,.55,1.79,.55Z"/><path class="b" d="M793.3,312.53c-1.16,0-2.17-.25-3.05-.76-.87-.51-1.55-1.21-2.04-2.12-.49-.91-.73-1.96-.73-3.17,0-1.27,.24-2.38,.72-3.31,.48-.93,1.15-1.66,2-2.17,.86-.51,1.85-.77,2.99-.77s2.2,.28,3.03,.83c.83,.55,1.46,1.33,1.87,2.35,.41,1.01,.58,2.22,.49,3.61h-2.25v-.82c-.01-1.35-.27-2.35-.77-3s-1.26-.97-2.28-.97c-1.13,0-1.98,.36-2.55,1.07-.57,.71-.85,1.74-.85,3.08s.28,2.27,.85,2.97,1.39,1.05,2.46,1.05c.71,0,1.31-.16,1.83-.48,.51-.32,.92-.78,1.2-1.38l2.21,.7c-.45,1.04-1.14,1.85-2.06,2.42-.92,.57-1.95,.86-3.08,.86Zm-4.15-5.51v-1.76h8.32v1.76h-8.32Z"/><path class="b" d="M799.7,302.36v-1.81h7.96v1.81h-7.96Zm7.96,9.84c-.73,.14-1.45,.21-2.16,.18-.7-.02-1.33-.16-1.89-.41-.55-.25-.97-.65-1.25-1.19-.25-.48-.39-.97-.41-1.47-.02-.5-.03-1.07-.03-1.7v-10.3h2.27v10.2c0,.47,0,.87,.02,1.22,.01,.35,.08,.64,.22,.87,.26,.45,.67,.7,1.24,.76,.56,.06,1.23,.04,1.99-.07v1.91Z"/></g><g><path class="b" d="M620.54,149.29v-13.41h-5.17v-2.12h12.59v2.12h-5.17v13.41h-2.25Z"/><path class="b" d="M629.69,149.29v-11.65h2.01v2.83l-.28-.37c.14-.37,.33-.72,.56-1.03,.23-.31,.5-.57,.8-.77,.29-.21,.62-.38,.99-.5,.36-.12,.74-.19,1.12-.22,.38-.03,.75,0,1.1,.06v2.11c-.38-.1-.8-.13-1.27-.09-.46,.04-.89,.19-1.28,.44-.37,.24-.66,.53-.87,.86-.21,.34-.37,.71-.46,1.13-.09,.41-.14,.85-.14,1.31v5.88h-2.28Z"/><path class="b" d="M641.32,149.62c-.86,0-1.59-.16-2.17-.48-.58-.32-1.02-.75-1.32-1.27-.3-.53-.45-1.11-.45-1.74,0-.59,.1-1.11,.31-1.55s.52-.83,.93-1.14c.41-.31,.91-.57,1.51-.76,.52-.15,1.1-.28,1.76-.4,.65-.12,1.34-.22,2.07-.32,.72-.1,1.44-.2,2.15-.3l-.82,.45c.01-.91-.18-1.59-.58-2.03-.4-.44-1.08-.66-2.05-.66-.61,0-1.17,.14-1.68,.43-.51,.28-.87,.75-1.07,1.41l-2.1-.65c.29-1,.84-1.79,1.64-2.38,.81-.59,1.89-.88,3.23-.88,1.04,0,1.95,.18,2.72,.53,.77,.36,1.34,.92,1.7,1.69,.19,.38,.3,.78,.35,1.21,.04,.42,.06,.88,.06,1.37v7.17h-2v-2.67l.39,.35c-.48,.89-1.09,1.55-1.84,1.99-.75,.43-1.66,.65-2.75,.65Zm.4-1.84c.64,0,1.19-.11,1.65-.34s.83-.52,1.11-.87,.46-.72,.55-1.1c.12-.35,.19-.73,.21-1.17,.02-.43,.03-.78,.03-1.04l.73,.27c-.71,.11-1.36,.21-1.94,.29-.58,.09-1.11,.17-1.58,.25-.47,.08-.89,.18-1.26,.3-.31,.11-.58,.24-.83,.39-.24,.15-.43,.33-.57,.55s-.21,.48-.21,.79,.08,.58,.23,.84c.15,.25,.38,.46,.69,.61,.31,.15,.7,.23,1.19,.23Z"/><path class="b" d="M650.31,149.29v-11.65h2.02v3.37h.27v8.29h-2.29Zm8.19,0v-5.73c0-.45-.04-.92-.11-1.4-.08-.48-.22-.92-.43-1.33-.21-.41-.51-.74-.9-.99-.38-.25-.89-.38-1.5-.38-.4,0-.78,.07-1.14,.2-.36,.13-.67,.35-.94,.64s-.48,.68-.64,1.17c-.15,.48-.23,1.07-.23,1.76l-1.4-.53c0-1.06,.2-1.99,.59-2.8s.96-1.44,1.71-1.89c.74-.45,1.64-.68,2.69-.68,.81,0,1.48,.13,2.03,.39s.99,.6,1.33,1.02c.34,.42,.6,.88,.78,1.38,.18,.5,.3,.98,.37,1.46s.1,.89,.1,1.25v6.47h-2.29Z"/><path class="b" d="M668.04,149.61c-1.42,0-2.57-.31-3.46-.94s-1.44-1.51-1.64-2.64l2.31-.36c.14,.6,.48,1.08,1,1.43,.52,.35,1.17,.52,1.95,.52,.71,0,1.26-.14,1.66-.43,.4-.29,.6-.68,.6-1.19,0-.29-.07-.53-.21-.72-.14-.18-.43-.36-.88-.52s-1.13-.37-2.04-.62c-1-.26-1.79-.54-2.38-.84s-1-.65-1.25-1.05c-.25-.4-.37-.88-.37-1.45,0-.71,.19-1.32,.56-1.85,.37-.52,.9-.93,1.58-1.22,.68-.29,1.48-.43,2.39-.43s1.69,.14,2.38,.42c.7,.28,1.26,.68,1.69,1.19,.43,.51,.69,1.12,.78,1.81l-2.31,.42c-.08-.56-.34-1-.79-1.33-.45-.32-1.02-.5-1.74-.53-.68-.03-1.24,.08-1.66,.34-.42,.25-.64,.61-.64,1.05,0,.26,.08,.48,.24,.66s.48,.35,.94,.52c.47,.17,1.16,.36,2.07,.59,.98,.25,1.75,.53,2.33,.84s.99,.67,1.24,1.09,.37,.93,.37,1.53c0,1.15-.42,2.05-1.26,2.71s-1.99,.98-3.47,.98Z"/><path class="b" d="M678.45,149.62c-.86,0-1.59-.16-2.17-.48-.58-.32-1.02-.75-1.32-1.27-.3-.53-.45-1.11-.45-1.74,0-.59,.1-1.11,.31-1.55s.52-.83,.93-1.14c.41-.31,.91-.57,1.51-.76,.52-.15,1.1-.28,1.76-.4,.65-.12,1.34-.22,2.07-.32,.72-.1,1.44-.2,2.15-.3l-.82,.45c.01-.91-.18-1.59-.58-2.03-.4-.44-1.08-.66-2.05-.66-.61,0-1.17,.14-1.68,.43-.51,.28-.87,.75-1.07,1.41l-2.1-.65c.29-1,.84-1.79,1.64-2.38,.81-.59,1.89-.88,3.23-.88,1.04,0,1.95,.18,2.72,.53,.77,.36,1.34,.92,1.7,1.69,.19,.38,.3,.78,.35,1.21,.04,.42,.06,.88,.06,1.37v7.17h-2v-2.67l.39,.35c-.48,.89-1.09,1.55-1.84,1.99-.75,.43-1.66,.65-2.75,.65Zm.4-1.84c.64,0,1.19-.11,1.65-.34s.83-.52,1.11-.87,.46-.72,.55-1.1c.12-.35,.19-.73,.21-1.17,.02-.43,.03-.78,.03-1.04l.73,.27c-.71,.11-1.36,.21-1.94,.29-.58,.09-1.11,.17-1.58,.25-.47,.08-.89,.18-1.26,.3-.31,.11-.58,.24-.83,.39-.24,.15-.43,.33-.57,.55s-.21,.48-.21,.79,.08,.58,.23,.84c.15,.25,.38,.46,.69,.61,.31,.15,.7,.23,1.19,.23Z"/><path class="b" d="M692.43,149.62c-1.19,0-2.21-.27-3.04-.8s-1.47-1.26-1.92-2.19-.67-1.98-.67-3.16c0-1.2,.24-2.26,.69-3.19,.45-.92,1.1-1.65,1.94-2.17,.84-.53,1.85-.79,3.03-.79,1.27,0,2.36,.32,3.26,.95,.9,.63,1.5,1.5,1.79,2.6l-2.24,.65c-.22-.66-.59-1.16-1.09-1.53-.51-.36-1.09-.54-1.74-.54-.74,0-1.35,.17-1.82,.52-.48,.35-.83,.83-1.06,1.43-.23,.6-.35,1.29-.36,2.07,0,1.2,.28,2.17,.83,2.91s1.35,1.11,2.41,1.11c.73,0,1.31-.17,1.76-.5,.45-.33,.79-.81,1.03-1.44l2.29,.54c-.38,1.14-1.01,2.01-1.89,2.62-.88,.61-1.94,.91-3.19,.91Z"/><path class="b" d="M698.41,139.46v-1.81h7.96v1.81h-7.96Zm7.96,9.84c-.73,.14-1.45,.21-2.16,.18-.7-.02-1.33-.16-1.89-.41-.55-.25-.97-.65-1.25-1.19-.25-.48-.39-.97-.41-1.47-.02-.5-.03-1.07-.03-1.7v-10.3h2.27v10.2c0,.47,0,.87,.02,1.22,.01,.35,.08,.64,.22,.87,.26,.45,.67,.7,1.24,.76,.56,.06,1.23,.04,1.99-.07v1.91Z"/><path class="b" d="M709.04,135.73v-2.19h2.25v2.19h-2.25Zm0,13.56v-11.65h2.25v11.65h-2.25Z"/><path class="b" d="M719.59,149.62c-1.17,0-2.18-.26-3.03-.79-.86-.53-1.52-1.25-1.98-2.17-.46-.92-.7-1.99-.7-3.2s.24-2.29,.71-3.21c.47-.92,1.14-1.64,2-2.16,.86-.51,1.86-.77,3-.77s2.18,.26,3.03,.79c.86,.52,1.52,1.25,1.99,2.17s.7,1.98,.7,3.18-.24,2.29-.71,3.21c-.47,.92-1.13,1.65-1.99,2.17s-1.86,.78-3.02,.78Zm0-2.12c1.11,0,1.95-.38,2.5-1.13,.55-.75,.83-1.72,.83-2.91s-.28-2.19-.84-2.92c-.56-.73-1.39-1.1-2.49-1.1-.75,0-1.38,.17-1.87,.51-.49,.34-.85,.81-1.09,1.41-.24,.6-.36,1.3-.36,2.09,0,1.22,.28,2.2,.84,2.93s1.38,1.1,2.47,1.1Z"/><path class="b" d="M727.67,149.29v-11.65h2.02v3.37h.27v8.29h-2.29Zm8.19,0v-5.73c0-.45-.04-.92-.11-1.4-.08-.48-.22-.92-.43-1.33-.21-.41-.51-.74-.9-.99-.38-.25-.89-.38-1.5-.38-.4,0-.78,.07-1.14,.2-.36,.13-.67,.35-.94,.64s-.48,.68-.64,1.17c-.15,.48-.23,1.07-.23,1.76l-1.4-.53c0-1.06,.2-1.99,.59-2.8s.96-1.44,1.71-1.89c.74-.45,1.64-.68,2.69-.68,.81,0,1.48,.13,2.03,.39s.99,.6,1.33,1.02c.34,.42,.6,.88,.78,1.38,.18,.5,.3,.98,.37,1.46s.1,.89,.1,1.25v6.47h-2.29Z"/><path class="b" d="M743.97,139.46v-1.81h7.96v1.81h-7.96Zm7.96,9.84c-.73,.14-1.45,.21-2.16,.18-.7-.02-1.33-.16-1.89-.41-.55-.25-.97-.65-1.25-1.19-.25-.48-.39-.97-.41-1.47-.02-.5-.03-1.07-.03-1.7v-10.3h2.27v10.2c0,.47,0,.87,.02,1.22,.01,.35,.08,.64,.22,.87,.26,.45,.67,.7,1.24,.76,.56,.06,1.23,.04,1.99-.07v1.91Z"/><path class="b" d="M757.68,149.62c-.86,0-1.59-.16-2.17-.48-.58-.32-1.02-.75-1.32-1.27-.3-.53-.45-1.11-.45-1.74,0-.59,.1-1.11,.31-1.55s.52-.83,.93-1.14c.41-.31,.91-.57,1.51-.76,.52-.15,1.1-.28,1.76-.4,.65-.12,1.34-.22,2.07-.32,.72-.1,1.44-.2,2.15-.3l-.82,.45c.01-.91-.18-1.59-.58-2.03-.4-.44-1.08-.66-2.05-.66-.61,0-1.17,.14-1.68,.43-.51,.28-.87,.75-1.07,1.41l-2.1-.65c.29-1,.84-1.79,1.64-2.38,.81-.59,1.89-.88,3.23-.88,1.04,0,1.95,.18,2.72,.53,.77,.36,1.34,.92,1.7,1.69,.19,.38,.3,.78,.35,1.21,.04,.42,.06,.88,.06,1.37v7.17h-2v-2.67l.39,.35c-.48,.89-1.09,1.55-1.84,1.99-.75,.43-1.66,.65-2.75,.65Zm.4-1.84c.64,0,1.19-.11,1.65-.34s.83-.52,1.11-.87,.46-.72,.55-1.1c.12-.35,.19-.73,.21-1.17,.02-.43,.03-.78,.03-1.04l.73,.27c-.71,.11-1.36,.21-1.94,.29-.58,.09-1.11,.17-1.58,.25-.47,.08-.89,.18-1.26,.3-.31,.11-.58,.24-.83,.39-.24,.15-.43,.33-.57,.55s-.21,.48-.21,.79,.08,.58,.23,.84c.15,.25,.38,.46,.69,.61,.31,.15,.7,.23,1.19,.23Z"/><path class="b" d="M766.67,149.29v-11.65h2.01v2.83l-.28-.37c.14-.37,.33-.72,.56-1.03,.23-.31,.5-.57,.8-.77,.29-.21,.62-.38,.99-.5,.36-.12,.74-.19,1.12-.22,.38-.03,.75,0,1.1,.06v2.11c-.38-.1-.8-.13-1.27-.09-.46,.04-.89,.19-1.28,.44-.37,.24-.66,.53-.87,.86-.21,.34-.37,.71-.46,1.13-.09,.41-.14,.85-.14,1.31v5.88h-2.28Z"/><path class="b" d="M779.64,149.62c-1.09,0-2.02-.27-2.81-.81-.79-.54-1.4-1.28-1.82-2.21-.43-.93-.64-1.98-.64-3.14s.22-2.22,.65-3.14,1.04-1.65,1.84-2.19c.79-.54,1.74-.8,2.83-.8s2.03,.27,2.78,.8c.75,.54,1.32,1.27,1.7,2.2s.58,1.97,.58,3.14-.19,2.21-.58,3.14-.96,1.66-1.72,2.21c-.75,.54-1.69,.81-2.8,.81Zm.17,5.18c-.63,0-1.23-.1-1.82-.29-.59-.19-1.12-.48-1.6-.86-.48-.38-.88-.84-1.2-1.4l2.08-1.06c.25,.5,.61,.86,1.08,1.09,.47,.23,.96,.34,1.48,.34,.64,0,1.19-.11,1.64-.34s.8-.57,1.03-1.02,.35-1.01,.34-1.68v-3.26h.27v-8.68h2v11.96c0,.31-.01,.6-.03,.88s-.06,.56-.12,.84c-.17,.78-.48,1.43-.94,1.94s-1.05,.89-1.77,1.14-1.53,.38-2.43,.38Zm.14-7.22c.74,0,1.34-.18,1.81-.53s.81-.84,1.03-1.46c.22-.62,.32-1.33,.32-2.14s-.11-1.52-.33-2.14c-.22-.62-.56-1.1-1.01-1.45-.46-.34-1.04-.52-1.74-.52-.75,0-1.36,.18-1.84,.55-.48,.37-.84,.86-1.07,1.48-.23,.62-.35,1.31-.35,2.07s.12,1.47,.35,2.09c.23,.62,.59,1.12,1.06,1.48,.47,.37,1.07,.55,1.79,.55Z"/><path class="b" d="M793.3,149.62c-1.16,0-2.17-.25-3.05-.76-.87-.51-1.55-1.21-2.04-2.12-.49-.91-.73-1.96-.73-3.17,0-1.27,.24-2.38,.72-3.31,.48-.93,1.15-1.66,2-2.17,.86-.51,1.85-.77,2.99-.77s2.2,.28,3.03,.83c.83,.55,1.46,1.33,1.87,2.35,.41,1.01,.58,2.22,.49,3.61h-2.25v-.82c-.01-1.35-.27-2.35-.77-3s-1.26-.97-2.28-.97c-1.13,0-1.98,.36-2.55,1.07-.57,.71-.85,1.74-.85,3.08s.28,2.27,.85,2.97,1.39,1.05,2.46,1.05c.71,0,1.31-.16,1.83-.48,.51-.32,.92-.78,1.2-1.38l2.21,.7c-.45,1.04-1.14,1.85-2.06,2.42-.92,.57-1.95,.86-3.08,.86Zm-4.15-5.51v-1.76h8.32v1.76h-8.32Z"/><path class="b" d="M799.71,139.46v-1.81h7.96v1.81h-7.96Zm7.96,9.84c-.73,.14-1.45,.21-2.16,.18-.7-.02-1.33-.16-1.89-.41-.55-.25-.97-.65-1.25-1.19-.25-.48-.39-.97-.41-1.47-.02-.5-.03-1.07-.03-1.7v-10.3h2.27v10.2c0,.47,0,.87,.02,1.22,.01,.35,.08,.64,.22,.87,.26,.45,.67,.7,1.24,.76,.56,.06,1.23,.04,1.99-.07v1.91Z"/></g><g><path class="b" d="M20.18,369.58v-15.54h2.04l5.63,11.68,5.6-11.68h2.06v15.52h-2.14v-10.63l-5.02,10.64h-1.03l-5.03-10.64v10.64h-2.12Z"/><path class="b" d="M41.82,369.9c-.86,0-1.59-.16-2.17-.48-.58-.32-1.02-.75-1.32-1.27-.3-.53-.45-1.11-.45-1.74,0-.59,.1-1.11,.31-1.55s.52-.83,.93-1.14c.41-.31,.91-.57,1.51-.76,.52-.15,1.1-.28,1.76-.4,.65-.12,1.34-.22,2.07-.32,.72-.1,1.44-.2,2.15-.3l-.82,.45c.01-.91-.18-1.59-.58-2.03-.4-.44-1.08-.66-2.05-.66-.61,0-1.17,.14-1.68,.43-.51,.28-.87,.75-1.07,1.41l-2.1-.65c.29-1,.84-1.79,1.64-2.38,.81-.59,1.89-.88,3.23-.88,1.04,0,1.95,.18,2.72,.53,.77,.36,1.34,.92,1.7,1.69,.19,.38,.3,.78,.35,1.21,.04,.42,.06,.88,.06,1.37v7.17h-2v-2.67l.39,.35c-.48,.89-1.09,1.55-1.84,1.99-.75,.43-1.66,.65-2.75,.65Zm.4-1.84c.64,0,1.19-.11,1.65-.34s.83-.52,1.11-.87,.46-.72,.55-1.1c.12-.35,.19-.73,.21-1.17,.02-.43,.03-.78,.03-1.04l.73,.27c-.71,.11-1.36,.21-1.94,.29-.58,.09-1.11,.17-1.58,.25-.47,.08-.89,.18-1.26,.3-.31,.11-.58,.24-.83,.39-.24,.15-.43,.33-.57,.55s-.21,.48-.21,.79,.08,.58,.23,.84c.15,.25,.38,.46,.69,.61,.31,.15,.7,.23,1.19,.23Z"/><path class="b" d="M49.52,369.58l4.36-5.89-4.26-5.76h2.68l2.9,4,2.87-4h2.68l-4.26,5.76,4.37,5.89h-2.69l-2.97-4.13-2.99,4.13h-2.69Z"/><path class="b" d="M70.54,369.58l-5.05-15.54h2.34l4.3,13.26,4.36-13.26h2.34l-5.05,15.54h-3.25Z"/><path class="b" d="M83.74,369.9c-.86,0-1.59-.16-2.17-.48-.58-.32-1.02-.75-1.32-1.27-.3-.53-.45-1.11-.45-1.74,0-.59,.1-1.11,.31-1.55s.52-.83,.93-1.14c.41-.31,.91-.57,1.51-.76,.52-.15,1.1-.28,1.76-.4,.65-.12,1.34-.22,2.07-.32,.72-.1,1.44-.2,2.15-.3l-.82,.45c.01-.91-.18-1.59-.58-2.03-.4-.44-1.08-.66-2.05-.66-.61,0-1.17,.14-1.68,.43-.51,.28-.87,.75-1.07,1.41l-2.1-.65c.29-1,.84-1.79,1.64-2.38,.81-.59,1.89-.88,3.23-.88,1.04,0,1.95,.18,2.72,.53,.77,.36,1.34,.92,1.7,1.69,.19,.38,.3,.78,.35,1.21,.04,.42,.06,.88,.06,1.37v7.17h-2v-2.67l.39,.35c-.48,.89-1.09,1.55-1.84,1.99-.75,.43-1.66,.65-2.75,.65Zm.4-1.84c.64,0,1.19-.11,1.65-.34s.83-.52,1.11-.87,.46-.72,.55-1.1c.12-.35,.19-.73,.21-1.17,.02-.43,.03-.78,.03-1.04l.73,.27c-.71,.11-1.36,.21-1.94,.29-.58,.09-1.11,.17-1.58,.25-.47,.08-.89,.18-1.26,.3-.31,.11-.58,.24-.83,.39-.24,.15-.43,.33-.57,.55s-.21,.48-.21,.79,.08,.58,.23,.84c.15,.25,.38,.46,.69,.61,.31,.15,.7,.23,1.19,.23Z"/><path class="b" d="M92.96,369.58v-15.86h2.25v15.86h-2.25Z"/><path class="b" d="M102.84,369.89c-.81,0-1.48-.13-2.03-.39-.55-.26-.99-.6-1.33-1.02-.34-.42-.6-.88-.78-1.38s-.3-.98-.37-1.46c-.06-.48-.1-.89-.1-1.25v-6.47h2.29v5.73c0,.45,.04,.92,.11,1.4,.08,.48,.22,.92,.43,1.33,.21,.41,.51,.74,.9,.99,.38,.25,.89,.38,1.5,.38,.4,0,.78-.07,1.14-.2,.36-.13,.67-.35,.94-.64,.27-.29,.48-.68,.64-1.17s.23-1.07,.23-1.76l1.4,.53c0,1.06-.2,1.99-.59,2.8-.4,.81-.96,1.44-1.7,1.89-.74,.45-1.64,.68-2.69,.68Zm3.85-.31v-3.37h-.27v-8.29h2.28v11.65h-2.01Z"/><path class="b" d="M116.88,369.9c-1.16,0-2.17-.25-3.05-.76-.87-.51-1.55-1.21-2.04-2.12-.49-.91-.73-1.96-.73-3.17,0-1.27,.24-2.38,.72-3.31,.48-.93,1.15-1.66,2-2.17,.86-.51,1.85-.77,2.99-.77s2.2,.28,3.03,.83c.83,.55,1.46,1.33,1.87,2.35,.41,1.01,.58,2.22,.49,3.61h-2.25v-.82c-.01-1.35-.27-2.35-.77-3s-1.26-.97-2.28-.97c-1.13,0-1.98,.36-2.55,1.07-.57,.71-.85,1.74-.85,3.08s.28,2.27,.85,2.97,1.39,1.05,2.46,1.05c.71,0,1.31-.16,1.83-.48,.51-.32,.92-.78,1.2-1.38l2.21,.7c-.45,1.04-1.14,1.85-2.06,2.42-.92,.57-1.95,.86-3.08,.86Zm-4.15-5.51v-1.76h8.32v1.76h-8.32Z"/><path class="b" d="M130.79,354.04l-4.14,15.54h-2.28l4.14-15.54h2.28Z"/><path class="b" d="M139.23,369.9c-1.11,0-2.12-.19-3.01-.58s-1.63-.93-2.21-1.65-.96-1.57-1.13-2.55l2.35-.36c.24,.95,.73,1.69,1.49,2.22,.76,.53,1.64,.79,2.64,.79,.63,0,1.2-.1,1.73-.3,.52-.2,.95-.48,1.27-.85,.32-.37,.48-.81,.48-1.33,0-.28-.05-.53-.15-.74s-.23-.41-.4-.57c-.17-.16-.37-.3-.61-.42-.24-.12-.51-.22-.79-.31l-3.98-1.18c-.39-.12-.78-.26-1.19-.45-.4-.18-.77-.42-1.11-.72-.33-.3-.61-.67-.82-1.11-.21-.44-.31-.98-.31-1.61,0-.96,.25-1.77,.74-2.43,.49-.67,1.16-1.17,2-1.51s1.78-.51,2.83-.51c1.05,.01,1.99,.2,2.82,.56,.83,.36,1.52,.88,2.07,1.55,.55,.67,.93,1.49,1.14,2.44l-2.42,.41c-.11-.58-.34-1.08-.69-1.5s-.78-.74-1.29-.97-1.06-.34-1.66-.35c-.58-.01-1.1,.07-1.58,.26-.48,.19-.86,.45-1.14,.79s-.43,.73-.43,1.17,.12,.78,.38,1.05c.25,.27,.56,.48,.93,.63,.37,.16,.74,.28,1.11,.38l2.87,.81c.36,.1,.77,.24,1.22,.4,.46,.17,.9,.4,1.33,.71,.43,.3,.78,.7,1.06,1.2,.28,.5,.42,1.13,.42,1.88s-.16,1.47-.48,2.07c-.32,.59-.75,1.09-1.3,1.49-.55,.4-1.18,.7-1.9,.9-.72,.2-1.48,.3-2.28,.3Z"/><path class="b" d="M151.87,369.89c-.81,0-1.48-.13-2.03-.39-.55-.26-.99-.6-1.33-1.02-.34-.42-.6-.88-.78-1.38s-.3-.98-.37-1.46c-.06-.48-.1-.89-.1-1.25v-6.47h2.29v5.73c0,.45,.04,.92,.11,1.4,.08,.48,.22,.92,.43,1.33,.21,.41,.51,.74,.9,.99,.38,.25,.89,.38,1.5,.38,.4,0,.78-.07,1.14-.2,.36-.13,.67-.35,.94-.64,.27-.29,.48-.68,.64-1.17s.23-1.07,.23-1.76l1.4,.53c0,1.06-.2,1.99-.59,2.8-.4,.81-.96,1.44-1.7,1.89-.74,.45-1.64,.68-2.69,.68Zm3.85-.31v-3.37h-.27v-8.29h2.28v11.65h-2.01Z"/><path class="b" d="M160.74,374.75v-16.83h2.01v8.38h.26v8.45h-2.27Zm5.48-4.85c-1.12,0-2.05-.27-2.81-.81-.75-.54-1.33-1.28-1.71-2.21s-.58-1.97-.58-3.14,.19-2.21,.58-3.14,.95-1.66,1.71-2.2c.75-.54,1.68-.8,2.78-.8s2.04,.27,2.83,.8c.79,.54,1.41,1.27,1.84,2.19s.65,1.97,.65,3.14-.21,2.21-.64,3.14c-.43,.93-1.04,1.67-1.82,2.21-.79,.54-1.72,.81-2.81,.81Zm-.31-2.04c.72,0,1.31-.18,1.79-.55,.47-.37,.82-.86,1.06-1.48,.23-.62,.35-1.32,.35-2.09s-.12-1.45-.35-2.07c-.23-.62-.59-1.11-1.07-1.48-.48-.37-1.1-.55-1.84-.55-.71,0-1.29,.17-1.74,.52-.46,.35-.79,.83-1.01,1.45-.22,.62-.33,1.33-.33,2.14s.11,1.52,.32,2.14c.22,.62,.56,1.1,1.02,1.46s1.07,.53,1.81,.53Z"/><path class="b" d="M179.04,369.9c-1.16,0-2.17-.25-3.05-.76-.87-.51-1.55-1.21-2.04-2.12-.49-.91-.73-1.96-.73-3.17,0-1.27,.24-2.38,.72-3.31,.48-.93,1.15-1.66,2-2.17,.86-.51,1.85-.77,2.99-.77s2.2,.28,3.03,.83c.83,.55,1.46,1.33,1.87,2.35,.41,1.01,.58,2.22,.49,3.61h-2.25v-.82c-.01-1.35-.27-2.35-.77-3s-1.26-.97-2.28-.97c-1.13,0-1.98,.36-2.55,1.07-.57,.71-.85,1.74-.85,3.08s.28,2.27,.85,2.97,1.39,1.05,2.46,1.05c.71,0,1.31-.16,1.83-.48,.51-.32,.92-.78,1.2-1.38l2.21,.7c-.45,1.04-1.14,1.85-2.06,2.42-.92,.57-1.95,.86-3.08,.86Zm-4.15-5.51v-1.76h8.32v1.76h-8.32Z"/><path class="b" d="M186.74,369.58v-11.65h2.01v2.83l-.28-.37c.14-.37,.33-.72,.56-1.03,.23-.31,.5-.57,.8-.77,.29-.21,.62-.38,.99-.5,.36-.12,.74-.19,1.12-.22,.38-.03,.75,0,1.1,.06v2.11c-.38-.1-.8-.13-1.27-.09-.46,.04-.89,.19-1.28,.44-.37,.24-.66,.53-.87,.86-.21,.34-.37,.71-.46,1.13-.09,.41-.14,.85-.14,1.31v5.88h-2.28Z"/><path class="b" d="M195.08,369.58v-15.54h6.11c.99,0,1.81,.2,2.48,.6,.67,.4,1.17,.92,1.51,1.56,.34,.64,.51,1.31,.51,2.01,0,.86-.21,1.59-.63,2.2s-.99,1.03-1.7,1.25l-.02-.53c.99,.24,1.75,.72,2.29,1.43,.53,.71,.8,1.53,.8,2.48s-.18,1.71-.54,2.38c-.36,.68-.89,1.2-1.59,1.58-.69,.38-1.53,.57-2.52,.57h-6.69Zm2.29-9.19h3.79c.42,0,.79-.08,1.13-.25,.33-.17,.6-.41,.8-.73,.2-.32,.3-.71,.3-1.16,0-.6-.2-1.1-.6-1.49-.4-.39-.94-.58-1.62-.58h-3.79v4.22Zm0,7.04h4.06c.51,0,.97-.1,1.38-.29s.73-.47,.96-.84,.35-.8,.35-1.3c0-.47-.1-.89-.31-1.27-.2-.38-.5-.68-.88-.9-.39-.22-.84-.33-1.35-.33h-4.2v4.92Z"/><path class="b" d="M208.78,369.58v-15.86h2.25v15.86h-2.25Z"/><path class="b" d="M219.33,369.9c-1.17,0-2.18-.26-3.03-.79-.86-.53-1.52-1.25-1.98-2.17-.46-.92-.7-1.99-.7-3.2s.24-2.29,.71-3.21c.47-.92,1.14-1.64,2-2.16,.86-.51,1.86-.77,3-.77s2.18,.26,3.03,.79c.86,.52,1.52,1.25,1.99,2.17s.7,1.98,.7,3.18-.24,2.29-.71,3.21c-.47,.92-1.13,1.65-1.99,2.17s-1.86,.78-3.02,.78Zm0-2.12c1.11,0,1.95-.38,2.5-1.13,.55-.75,.83-1.72,.83-2.91s-.28-2.19-.84-2.92c-.56-.73-1.39-1.1-2.49-1.1-.75,0-1.38,.17-1.87,.51-.49,.34-.85,.81-1.09,1.41-.24,.6-.36,1.3-.36,2.09,0,1.22,.28,2.2,.84,2.93s1.38,1.1,2.47,1.1Z"/><path class="b" d="M232.41,369.9c-1.19,0-2.21-.27-3.04-.8s-1.47-1.26-1.92-2.19-.67-1.98-.67-3.16c0-1.2,.24-2.26,.69-3.19,.45-.92,1.1-1.65,1.94-2.17,.84-.53,1.85-.79,3.03-.79,1.27,0,2.36,.32,3.26,.95,.9,.63,1.5,1.5,1.79,2.6l-2.24,.65c-.22-.66-.59-1.16-1.09-1.53-.51-.36-1.09-.54-1.74-.54-.74,0-1.35,.17-1.82,.52-.48,.35-.83,.83-1.06,1.43-.23,.6-.35,1.29-.36,2.07,0,1.2,.28,2.17,.83,2.91s1.35,1.11,2.41,1.11c.73,0,1.31-.17,1.76-.5,.45-.33,.79-.81,1.03-1.44l2.29,.54c-.38,1.14-1.01,2.01-1.89,2.62-.88,.61-1.94,.91-3.19,.91Z"/><path class="b" d="M239.68,369.58v-15.54h2.3v9.49l4.57-5.61h2.87l-4.83,5.83,5.33,5.83h-3.06l-4.88-5.61v5.61h-2.3Z"/><path class="b" d="M259.94,369.9c-1.09,0-2.02-.27-2.81-.81-.79-.54-1.4-1.28-1.82-2.21-.43-.93-.64-1.98-.64-3.14s.22-2.22,.65-3.14,1.04-1.65,1.84-2.19c.79-.54,1.74-.8,2.83-.8s2.03,.27,2.78,.8c.75,.54,1.32,1.27,1.7,2.2s.58,1.97,.58,3.14-.19,2.21-.58,3.14-.96,1.66-1.72,2.21c-.75,.54-1.69,.81-2.8,.81Zm.31-2.04c.74,0,1.34-.18,1.81-.53s.81-.84,1.03-1.46c.22-.62,.32-1.33,.32-2.14s-.11-1.52-.33-2.14c-.22-.62-.56-1.1-1.01-1.45-.46-.34-1.04-.52-1.74-.52-.75,0-1.36,.18-1.84,.55-.48,.37-.84,.86-1.07,1.48-.23,.62-.35,1.31-.35,2.07s.12,1.47,.35,2.09c.23,.62,.59,1.12,1.06,1.48,.47,.37,1.07,.55,1.79,.55Zm3.16,1.72v-8.38h-.26v-7.15h2.27v15.54h-2.01Z"/><path class="b" d="M268.65,356.01v-2.19h2.25v2.19h-2.25Zm0,13.56v-11.65h2.25v11.65h-2.25Z"/><path class="b" d="M273.28,359.74v-1.81h7.13v1.81h-7.13Zm1.93,9.84v-12.06c0-.29,.01-.61,.03-.94,.02-.33,.08-.67,.19-.99,.1-.33,.28-.63,.52-.9,.29-.32,.62-.55,.97-.69s.7-.22,1.05-.24,.67-.03,.97-.03h1.47v1.86h-1.36c-.53,0-.93,.13-1.19,.39-.26,.26-.39,.64-.39,1.12v12.49h-2.25Zm5.12-9.84v-1.81h7.13v1.81h-7.13Zm1.93,9.84v-12.06c0-.29,.01-.61,.03-.94,.02-.33,.08-.67,.19-.99,.1-.33,.28-.63,.52-.9,.29-.32,.62-.55,.97-.69s.7-.22,1.05-.24,.67-.03,.97-.03h1.47v1.86h-1.36c-.53,0-.93,.13-1.19,.39-.26,.26-.39,.64-.39,1.12v12.49h-2.25Z"/><path class="b" d="M289.41,356.01v-2.19h2.25v2.19h-2.25Zm0,13.56v-11.65h2.25v11.65h-2.25Z"/><path class="b" d="M299.89,369.9c-1.19,0-2.21-.27-3.04-.8s-1.47-1.26-1.92-2.19-.67-1.98-.67-3.16c0-1.2,.24-2.26,.69-3.19,.45-.92,1.1-1.65,1.94-2.17,.84-.53,1.85-.79,3.03-.79,1.27,0,2.36,.32,3.26,.95,.9,.63,1.5,1.5,1.79,2.6l-2.24,.65c-.22-.66-.59-1.16-1.09-1.53-.51-.36-1.09-.54-1.74-.54-.74,0-1.35,.17-1.82,.52-.48,.35-.83,.83-1.06,1.43-.23,.6-.35,1.29-.36,2.07,0,1.2,.28,2.17,.83,2.91s1.35,1.11,2.41,1.11c.73,0,1.31-.17,1.76-.5,.45-.33,.79-.81,1.03-1.44l2.29,.54c-.38,1.14-1.01,2.01-1.89,2.62-.88,.61-1.94,.91-3.19,.91Z"/><path class="b" d="M311.56,369.89c-.81,0-1.48-.13-2.03-.39-.55-.26-.99-.6-1.33-1.02-.34-.42-.6-.88-.78-1.38s-.3-.98-.37-1.46c-.06-.48-.1-.89-.1-1.25v-6.47h2.29v5.73c0,.45,.04,.92,.11,1.4,.08,.48,.22,.92,.43,1.33,.21,.41,.51,.74,.9,.99,.38,.25,.89,.38,1.5,.38,.4,0,.78-.07,1.14-.2,.36-.13,.67-.35,.94-.64,.27-.29,.48-.68,.64-1.17s.23-1.07,.23-1.76l1.4,.53c0,1.06-.2,1.99-.59,2.8-.4,.81-.96,1.44-1.7,1.89-.74,.45-1.64,.68-2.69,.68Zm3.85-.31v-3.37h-.27v-8.29h2.28v11.65h-2.01Z"/><path class="b" d="M320.65,369.58v-15.86h2.25v15.86h-2.25Z"/><path class="b" d="M324.85,359.74v-1.81h7.96v1.81h-7.96Zm7.96,9.84c-.73,.14-1.45,.21-2.16,.18-.7-.02-1.33-.16-1.89-.41-.55-.25-.97-.65-1.25-1.19-.25-.48-.39-.97-.41-1.47-.02-.5-.03-1.07-.03-1.7v-10.3h2.27v10.2c0,.47,0,.87,.02,1.22,.01,.35,.08,.64,.22,.87,.26,.45,.67,.7,1.24,.76,.56,.06,1.23,.04,1.99-.07v1.91Z"/><path class="b" d="M336.84,374.75l2.25-6.14,.03,1.81-5.08-12.5h2.35l3.8,9.66h-.69l3.62-9.66h2.29l-6.43,16.83h-2.15Z"/></g><g><path class="b" d="M628.07,389.93c-1.11,0-2.12-.19-3.01-.58-.9-.38-1.63-.93-2.21-1.65-.58-.72-.96-1.57-1.13-2.55l2.35-.36c.24,.95,.73,1.69,1.49,2.22,.76,.53,1.64,.79,2.64,.79,.62,0,1.2-.1,1.73-.3,.52-.2,.95-.48,1.27-.85,.32-.37,.48-.81,.48-1.33,0-.28-.05-.53-.14-.74-.1-.22-.23-.41-.4-.57-.17-.16-.37-.3-.61-.42-.24-.12-.51-.22-.79-.31l-3.98-1.18c-.39-.12-.78-.26-1.19-.45-.4-.18-.77-.42-1.11-.72-.34-.3-.61-.67-.82-1.11-.21-.44-.31-.98-.31-1.61,0-.96,.25-1.77,.74-2.43,.49-.67,1.16-1.17,2-1.51s1.79-.51,2.83-.51c1.05,.01,1.99,.2,2.82,.56,.83,.36,1.52,.88,2.07,1.55,.55,.67,.93,1.49,1.14,2.44l-2.42,.41c-.11-.58-.34-1.08-.69-1.5-.35-.42-.78-.74-1.29-.97-.51-.23-1.06-.34-1.66-.35-.58-.01-1.1,.07-1.58,.26-.48,.19-.86,.45-1.14,.79-.28,.34-.43,.73-.43,1.17s.12,.78,.38,1.05c.25,.27,.56,.48,.93,.63,.37,.16,.74,.28,1.11,.38l2.87,.81c.36,.1,.77,.24,1.22,.4,.46,.17,.9,.4,1.33,.71,.43,.3,.78,.7,1.06,1.2,.28,.5,.42,1.13,.42,1.88s-.16,1.47-.48,2.07c-.32,.59-.75,1.09-1.3,1.49-.55,.4-1.19,.7-1.9,.9s-1.48,.3-2.28,.3Z"/><path class="b" d="M640.72,389.92c-.8,0-1.48-.13-2.03-.39-.55-.26-.99-.6-1.33-1.02-.34-.42-.6-.88-.78-1.38s-.3-.98-.37-1.46c-.06-.48-.1-.89-.1-1.25v-6.47h2.29v5.73c0,.45,.04,.92,.11,1.4,.07,.48,.22,.92,.43,1.33,.21,.41,.51,.74,.89,.99s.89,.38,1.51,.38c.4,0,.78-.07,1.14-.2,.36-.13,.67-.35,.94-.64,.27-.29,.48-.68,.64-1.17s.23-1.07,.23-1.76l1.4,.53c0,1.06-.2,1.99-.59,2.8-.39,.81-.96,1.44-1.7,1.89-.74,.45-1.64,.68-2.69,.68Zm3.85-.31v-3.37h-.27v-8.29h2.28v11.65h-2.01Z"/><path class="b" d="M649.59,394.79v-16.83h2.01v8.38h.26v8.45h-2.27Zm5.48-4.85c-1.12,0-2.05-.27-2.81-.81-.75-.54-1.33-1.28-1.71-2.21s-.58-1.97-.58-3.14,.19-2.21,.58-3.14,.95-1.66,1.71-2.2c.75-.54,1.68-.8,2.78-.8s2.04,.27,2.83,.8c.79,.54,1.41,1.27,1.84,2.19s.65,1.97,.65,3.14-.21,2.21-.64,3.14c-.43,.93-1.04,1.67-1.82,2.21-.79,.54-1.72,.81-2.81,.81Zm-.31-2.04c.72,0,1.31-.18,1.79-.55,.47-.37,.82-.86,1.06-1.48s.35-1.32,.35-2.09-.12-1.45-.35-2.07c-.23-.62-.59-1.11-1.07-1.48-.48-.37-1.1-.55-1.84-.55-.71,0-1.29,.17-1.74,.52-.46,.35-.79,.83-1.02,1.45-.22,.62-.33,1.33-.33,2.14s.11,1.52,.32,2.14c.21,.62,.56,1.1,1.02,1.46,.47,.35,1.07,.53,1.81,.53Z"/><path class="b" d="M667.88,389.93c-1.16,0-2.17-.25-3.05-.76-.87-.51-1.55-1.21-2.04-2.12s-.73-1.96-.73-3.17c0-1.27,.24-2.38,.72-3.31,.48-.93,1.15-1.66,2-2.17s1.85-.77,2.99-.77,2.2,.28,3.03,.83c.83,.55,1.46,1.33,1.87,2.35,.41,1.01,.58,2.22,.49,3.61h-2.25v-.82c-.02-1.35-.27-2.35-.77-3s-1.26-.97-2.28-.97c-1.13,0-1.98,.36-2.54,1.07-.57,.71-.85,1.74-.85,3.08s.29,2.27,.85,2.97,1.39,1.05,2.46,1.05c.71,0,1.31-.16,1.83-.48,.52-.32,.92-.78,1.2-1.38l2.21,.7c-.45,1.04-1.14,1.85-2.06,2.42-.92,.57-1.95,.86-3.08,.86Zm-4.15-5.51v-1.76h8.32v1.76h-8.32Z"/><path class="b" d="M675.58,389.61v-11.65h2.01v2.83l-.28-.37c.14-.37,.33-.72,.56-1.03,.23-.31,.5-.57,.8-.77,.29-.21,.62-.38,.99-.5,.36-.12,.74-.19,1.12-.22s.75,0,1.1,.06v2.11c-.38-.1-.8-.13-1.27-.09-.46,.04-.89,.19-1.28,.44-.37,.24-.66,.53-.87,.86s-.37,.71-.46,1.13c-.09,.41-.14,.85-.14,1.31v5.88h-2.28Z"/><path class="b" d="M683.92,389.61v-15.54h6.11c.98,0,1.81,.2,2.48,.6,.67,.4,1.17,.92,1.51,1.56,.34,.64,.51,1.31,.51,2.01,0,.86-.21,1.59-.63,2.2-.42,.61-.99,1.03-1.7,1.25l-.02-.53c.99,.24,1.76,.72,2.29,1.43,.53,.71,.8,1.53,.8,2.48s-.18,1.71-.54,2.38c-.36,.68-.89,1.2-1.59,1.58-.69,.38-1.53,.57-2.52,.57h-6.69Zm2.29-9.19h3.79c.42,0,.79-.08,1.13-.25,.33-.17,.6-.41,.8-.73,.2-.32,.3-.71,.3-1.16,0-.6-.2-1.1-.6-1.49-.4-.39-.94-.58-1.62-.58h-3.79v4.22Zm0,7.04h4.05c.51,0,.97-.1,1.38-.29s.73-.47,.96-.84c.23-.36,.35-.8,.35-1.3,0-.47-.1-.89-.31-1.27-.2-.38-.5-.68-.88-.9-.39-.22-.84-.33-1.36-.33h-4.2v4.92Z"/><path class="b" d="M697.63,389.61v-15.86h2.25v15.86h-2.25Z"/><path class="b" d="M708.18,389.93c-1.17,0-2.18-.26-3.03-.79-.86-.53-1.52-1.25-1.98-2.17-.46-.92-.7-1.99-.7-3.2s.24-2.29,.71-3.21c.47-.92,1.14-1.64,2-2.16,.86-.51,1.86-.77,3-.77s2.18,.26,3.03,.79c.86,.52,1.52,1.25,1.98,2.17,.47,.92,.7,1.98,.7,3.18s-.23,2.29-.71,3.21c-.47,.92-1.13,1.65-1.99,2.17s-1.86,.78-3.02,.78Zm0-2.12c1.11,0,1.95-.38,2.5-1.13,.55-.75,.83-1.72,.83-2.91s-.28-2.19-.84-2.92c-.56-.73-1.39-1.1-2.49-1.1-.76,0-1.38,.17-1.87,.51-.49,.34-.85,.81-1.09,1.41-.24,.6-.36,1.3-.36,2.09,0,1.22,.28,2.2,.84,2.93s1.38,1.1,2.47,1.1Z"/><path class="b" d="M721.25,389.93c-1.2,0-2.21-.27-3.04-.8s-1.47-1.26-1.92-2.19c-.44-.93-.67-1.98-.67-3.16,0-1.2,.24-2.26,.69-3.19,.45-.92,1.1-1.65,1.94-2.17,.84-.53,1.85-.79,3.03-.79,1.27,0,2.36,.32,3.26,.95s1.5,1.5,1.79,2.6l-2.24,.65c-.22-.66-.59-1.16-1.09-1.53-.51-.36-1.09-.54-1.74-.54-.74,0-1.35,.17-1.82,.52-.47,.35-.83,.83-1.06,1.43-.23,.6-.35,1.29-.36,2.07,0,1.2,.28,2.17,.83,2.91s1.35,1.11,2.41,1.11c.72,0,1.31-.17,1.76-.5,.45-.33,.79-.81,1.03-1.44l2.29,.54c-.38,1.14-1.01,2.01-1.89,2.62-.88,.61-1.94,.91-3.19,.91Z"/><path class="b" d="M728.52,389.61v-15.54h2.3v9.49l4.57-5.61h2.87l-4.83,5.83,5.33,5.83h-3.06l-4.88-5.61v5.61h-2.3Z"/><path class="b" d="M744.37,389.61v-15.54h2.25v13.41h7.03v2.13h-9.29Z"/><path class="b" d="M760.66,389.93c-1.16,0-2.17-.25-3.05-.76-.87-.51-1.55-1.21-2.04-2.12s-.73-1.96-.73-3.17c0-1.27,.24-2.38,.72-3.31,.48-.93,1.15-1.66,2-2.17s1.85-.77,2.99-.77,2.2,.28,3.03,.83c.83,.55,1.46,1.33,1.87,2.35,.41,1.01,.58,2.22,.49,3.61h-2.25v-.82c-.02-1.35-.27-2.35-.77-3s-1.26-.97-2.28-.97c-1.13,0-1.98,.36-2.54,1.07-.57,.71-.85,1.74-.85,3.08s.29,2.27,.85,2.97,1.39,1.05,2.46,1.05c.71,0,1.31-.16,1.83-.48,.52-.32,.92-.78,1.2-1.38l2.21,.7c-.45,1.04-1.14,1.85-2.06,2.42-.92,.57-1.95,.86-3.08,.86Zm-4.15-5.51v-1.76h8.32v1.76h-8.32Z"/><path class="b" d="M771.51,389.61l-4.23-11.65h2.28l3.1,8.82,3.1-8.82h2.28l-4.23,11.65h-2.29Z"/><path class="b" d="M785.14,389.93c-1.16,0-2.17-.25-3.05-.76-.87-.51-1.55-1.21-2.04-2.12s-.73-1.96-.73-3.17c0-1.27,.24-2.38,.72-3.31,.48-.93,1.15-1.66,2-2.17s1.85-.77,2.99-.77,2.2,.28,3.03,.83c.83,.55,1.46,1.33,1.87,2.35,.41,1.01,.58,2.22,.49,3.61h-2.25v-.82c-.02-1.35-.27-2.35-.77-3s-1.26-.97-2.28-.97c-1.13,0-1.98,.36-2.54,1.07-.57,.71-.85,1.74-.85,3.08s.29,2.27,.85,2.97,1.39,1.05,2.46,1.05c.71,0,1.31-.16,1.83-.48,.52-.32,.92-.78,1.2-1.38l2.21,.7c-.45,1.04-1.14,1.85-2.06,2.42-.92,.57-1.95,.86-3.08,.86Zm-4.15-5.51v-1.76h8.32v1.76h-8.32Z"/><path class="b" d="M793.06,389.61v-15.86h2.25v15.86h-2.25Z"/><path class="b" d="M803,389.92c-1.42,0-2.57-.31-3.46-.94-.89-.63-1.44-1.51-1.64-2.64l2.31-.36c.14,.6,.48,1.08,1,1.43,.52,.35,1.17,.52,1.95,.52,.71,0,1.26-.14,1.66-.43,.4-.29,.6-.68,.6-1.19,0-.29-.07-.53-.21-.72-.14-.18-.43-.36-.88-.52-.45-.17-1.12-.37-2.04-.62-1-.26-1.79-.54-2.38-.84s-1-.65-1.25-1.05c-.25-.4-.37-.88-.37-1.45,0-.71,.19-1.32,.56-1.85,.38-.52,.9-.93,1.58-1.22,.68-.29,1.48-.43,2.39-.43s1.69,.14,2.38,.42c.7,.28,1.26,.68,1.69,1.19,.43,.51,.69,1.12,.78,1.81l-2.31,.42c-.08-.56-.34-1-.79-1.33-.45-.32-1.02-.5-1.74-.53-.68-.03-1.24,.08-1.66,.34-.42,.25-.64,.61-.64,1.05,0,.26,.08,.48,.24,.66s.48,.35,.94,.52c.47,.17,1.16,.36,2.07,.59,.98,.25,1.75,.53,2.33,.84,.57,.31,.99,.67,1.23,1.09s.37,.93,.37,1.53c0,1.15-.42,2.05-1.26,2.71s-1.99,.98-3.47,.98Z"/></g><path class="b" d="M338.66,438.41c-1.06,0-1.99-.23-2.8-.7s-1.45-1.1-1.92-1.92-.7-1.75-.7-2.81v-5.35c0-1.06,.23-1.99,.7-2.8,.46-.81,1.1-1.45,1.92-1.92s1.75-.7,2.8-.7,1.99,.23,2.81,.7c.81,.46,1.45,1.1,1.92,1.92,.46,.81,.7,1.75,.7,2.8v5.35c0,1.06-.23,1.99-.7,2.81s-1.1,1.45-1.92,1.92c-.81,.46-1.75,.7-2.81,.7Zm0-2.16c.58,0,1.1-.14,1.57-.42,.47-.28,.85-.65,1.13-1.12,.28-.47,.42-1,.42-1.58v-5.65c0-.58-.14-1.1-.42-1.57-.28-.47-.66-.85-1.13-1.12-.47-.28-.99-.42-1.57-.42s-1.1,.14-1.57,.42c-.47,.28-.85,.65-1.13,1.12-.28,.47-.42,.99-.42,1.57v5.65c0,.58,.14,1.11,.42,1.58,.28,.47,.66,.85,1.13,1.12,.47,.28,.99,.42,1.57,.42Z"/><g><path class="b" d="M237.23,475.12v-15.54h2.04l5.63,11.68,5.6-11.68h2.06v15.52h-2.14v-10.63l-5.02,10.64h-1.03l-5.03-10.64v10.64h-2.12Z"/><path class="b" d="M255.8,461.56v-2.19h2.25v2.19h-2.25Zm0,13.56v-11.65h2.25v11.65h-2.25Z"/><path class="b" d="M261.28,475.12v-11.65h2.02v3.37h.27v8.29h-2.29Zm8.19,0v-5.73c0-.45-.04-.92-.11-1.4-.08-.48-.22-.92-.43-1.33-.21-.41-.51-.74-.9-.99-.38-.25-.89-.38-1.5-.38-.4,0-.78,.07-1.14,.2-.36,.13-.67,.35-.94,.64s-.48,.68-.64,1.17c-.15,.48-.23,1.07-.23,1.76l-1.4-.53c0-1.06,.2-1.99,.59-2.8s.96-1.44,1.71-1.89c.74-.45,1.64-.68,2.69-.68,.81,0,1.48,.13,2.03,.39s.99,.6,1.33,1.02c.34,.42,.6,.88,.78,1.38,.18,.5,.3,.98,.37,1.46s.1,.89,.1,1.25v6.47h-2.29Z"/><path class="b" d="M284.36,479.15c-.83-.97-1.55-2.07-2.16-3.29-.6-1.22-1.06-2.5-1.38-3.84-.32-1.34-.46-2.68-.44-4.02-.02-1.34,.13-2.68,.44-4.02,.32-1.34,.78-2.62,1.38-3.84,.6-1.22,1.32-2.31,2.16-3.28l1.68,1.25c-.86,1.02-1.56,2.07-2.08,3.14s-.91,2.18-1.15,3.3c-.25,1.13-.37,2.27-.37,3.45s.12,2.31,.37,3.44c.24,1.13,.63,2.23,1.16,3.31,.53,1.08,1.22,2.12,2.08,3.14l-1.68,1.25Z"/><path class="b" d="M288.45,475.12v-15.54h2.25v6.7h7.77v-6.7h2.27v15.54h-2.27v-6.71h-7.77v6.71h-2.25Z"/><path class="b" d="M307.05,475.45c-.86,0-1.59-.16-2.17-.48-.58-.32-1.02-.75-1.32-1.27-.3-.53-.45-1.11-.45-1.74,0-.59,.1-1.11,.31-1.55s.52-.83,.93-1.14c.41-.31,.91-.57,1.51-.76,.52-.15,1.1-.28,1.76-.4,.65-.12,1.34-.22,2.07-.32,.72-.1,1.44-.2,2.15-.3l-.82,.45c.01-.91-.18-1.59-.58-2.03-.4-.44-1.08-.66-2.05-.66-.61,0-1.17,.14-1.68,.43-.51,.28-.87,.75-1.07,1.41l-2.1-.65c.29-1,.84-1.79,1.64-2.38,.81-.59,1.89-.88,3.23-.88,1.04,0,1.95,.18,2.72,.53,.77,.36,1.34,.92,1.7,1.69,.19,.38,.3,.78,.35,1.21,.04,.42,.06,.88,.06,1.37v7.17h-2v-2.67l.39,.35c-.48,.89-1.09,1.55-1.84,1.99-.75,.43-1.66,.65-2.75,.65Zm.4-1.84c.64,0,1.19-.11,1.65-.34s.83-.52,1.11-.87,.46-.72,.55-1.1c.12-.35,.19-.73,.21-1.17,.02-.43,.03-.78,.03-1.04l.73,.27c-.71,.11-1.36,.21-1.94,.29-.58,.09-1.11,.17-1.58,.25-.47,.08-.89,.18-1.26,.3-.31,.11-.58,.24-.83,.39-.24,.15-.43,.33-.57,.55s-.21,.48-.21,.79,.08,.58,.23,.84c.15,.25,.38,.46,.69,.61,.31,.15,.7,.23,1.19,.23Z"/><path class="b" d="M316.05,475.12v-11.65h2.01v2.83l-.28-.37c.14-.37,.33-.72,.56-1.03,.23-.31,.5-.57,.8-.77,.29-.21,.62-.38,.99-.5,.36-.12,.74-.19,1.12-.22,.38-.03,.75,0,1.1,.06v2.11c-.38-.1-.8-.13-1.27-.09-.46,.04-.89,.19-1.28,.44-.37,.24-.66,.53-.87,.86-.21,.34-.37,.71-.46,1.13-.09,.41-.14,.85-.14,1.31v5.88h-2.28Z"/><path class="b" d="M329.02,475.45c-1.09,0-2.02-.27-2.81-.81-.79-.54-1.4-1.28-1.82-2.21-.43-.93-.64-1.98-.64-3.14s.22-2.22,.65-3.14,1.04-1.65,1.84-2.19c.79-.54,1.74-.8,2.83-.8s2.03,.27,2.78,.8c.75,.54,1.32,1.27,1.7,2.2s.58,1.97,.58,3.14-.19,2.21-.58,3.14-.96,1.66-1.72,2.21c-.75,.54-1.69,.81-2.8,.81Zm.31-2.04c.74,0,1.34-.18,1.81-.53s.81-.84,1.03-1.46c.22-.62,.32-1.33,.32-2.14s-.11-1.52-.33-2.14c-.22-.62-.56-1.1-1.01-1.45-.46-.34-1.04-.52-1.74-.52-.75,0-1.36,.18-1.84,.55-.48,.37-.84,.86-1.07,1.48-.23,.62-.35,1.31-.35,2.07s.12,1.47,.35,2.09c.23,.62,.59,1.12,1.06,1.48,.47,.37,1.07,.55,1.79,.55Zm3.16,1.72v-8.38h-.26v-7.15h2.27v15.54h-2.01Z"/><path class="b" d="M336.9,477.9c.86-1.01,1.55-2.06,2.08-3.14,.53-1.08,.92-2.18,1.16-3.31,.24-1.13,.37-2.28,.37-3.44s-.12-2.32-.37-3.45-.63-2.23-1.15-3.3-1.22-2.12-2.08-3.14l1.68-1.25c.83,.97,1.55,2.07,2.16,3.28,.6,1.22,1.06,2.5,1.38,3.84,.32,1.34,.46,2.68,.44,4.02,.02,1.34-.13,2.68-.44,4.02-.32,1.34-.78,2.62-1.38,3.84-.6,1.22-1.32,2.31-2.16,3.29l-1.68-1.25Z"/></g><polyline class="g" points="808.6 442.48 365.76 442.48 365.76 44.21"/><g><line class="g" x1="365.76" y1="361.82" x2="366.76" y2="361.82"/><line class="f" x1="368.75" y1="361.82" x2="806.61" y2="361.82"/><line class="g" x1="807.6" y1="361.82" x2="808.6" y2="361.82"/></g><g><line class="g" x1="365.76" y1="283.5" x2="366.76" y2="283.5"/><line class="f" x1="368.75" y1="283.5" x2="806.61" y2="283.5"/><line class="g" x1="807.6" y1="283.5" x2="808.6" y2="283.5"/></g><g><line class="g" x1="365.76" y1="124.41" x2="366.76" y2="124.41"/><line class="f" x1="368.75" y1="124.41" x2="806.61" y2="124.41"/><line class="g" x1="807.6" y1="124.41" x2="808.6" y2="124.41"/></g></svg>