<?xml version="1.0" encoding="UTF-8"?><svg id="Layer_1" xmlns="http://www.w3.org/2000/svg" viewBox="0 0 630 164.65"><defs><style>.cls-1{fill:#ff512f;}.cls-2{fill:#317aff;}.cls-3{fill:#16181c;}.cls-4{fill:#0d0e10;}.cls-5{stroke:#317aff;}.cls-5,.cls-6,.cls-7,.cls-8{fill:none;}.cls-6,.cls-8{stroke:#0d0e10;}.cls-7{stroke:#ff512f;}.cls-8{stroke-dasharray:0 0 3 3;}</style></defs><g><polyline class="cls-8" points="498.5 90.51 508.62 90.51 508.62 136.88 511.47 136.88"/><polygon class="cls-4" points="509.98 139.06 518.11 136.88 509.98 134.7 509.98 139.06"/></g><g><path class="cls-3" d="M4.55,13.14c-.71,0-1.32-.16-1.82-.47-.51-.31-.89-.74-1.16-1.3-.27-.55-.41-1.2-.41-1.93s.13-1.38,.41-1.93c.27-.55,.66-.99,1.16-1.3s1.11-.47,1.82-.47c.82,0,1.5,.2,2.04,.61s.93,.96,1.15,1.65l-1.2,.33c-.14-.46-.37-.83-.7-1.09-.33-.26-.76-.39-1.29-.39-.48,0-.87,.11-1.19,.32-.32,.21-.55,.51-.71,.9s-.24,.84-.24,1.36c0,.52,.08,.97,.24,1.36s.4,.69,.72,.9,.72,.32,1.19,.32c.53,0,.96-.13,1.29-.39,.33-.26,.57-.62,.7-1.08l1.2,.33c-.22,.69-.6,1.24-1.15,1.65s-1.23,.61-2.04,.61Z"/><path class="cls-3" d="M11.18,13.14c-.53,0-1-.12-1.39-.36-.4-.24-.71-.57-.92-.99-.22-.42-.33-.91-.33-1.45s.11-1.05,.33-1.47c.22-.42,.53-.75,.93-.98s.86-.35,1.38-.35,1,.12,1.4,.36c.4,.24,.71,.57,.93,.99s.33,.91,.33,1.46-.11,1.04-.33,1.46c-.22,.42-.53,.75-.93,.99-.4,.24-.86,.36-1.39,.36Zm0-1.11c.47,0,.82-.16,1.05-.47,.23-.31,.34-.72,.34-1.22s-.12-.93-.35-1.23c-.23-.31-.58-.46-1.05-.46-.32,0-.58,.07-.79,.21-.21,.14-.36,.34-.46,.6-.1,.25-.15,.55-.15,.88,0,.52,.12,.93,.35,1.23,.23,.31,.58,.46,1.04,.46Z"/><path class="cls-3" d="M14.9,12.99V7.67h1.06v1.65h.14v3.67h-1.2Zm3.69,0v-2.56c0-.17-.01-.35-.03-.56s-.08-.4-.16-.59c-.08-.19-.21-.34-.37-.47-.17-.12-.39-.18-.67-.18-.15,0-.3,.02-.45,.07s-.28,.13-.4,.25c-.12,.12-.22,.28-.29,.49s-.11,.48-.11,.8l-.7-.3c0-.45,.09-.86,.26-1.23s.43-.66,.78-.88,.76-.33,1.26-.33c.39,0,.72,.07,.97,.2s.46,.3,.61,.5c.15,.2,.26,.42,.33,.65,.07,.23,.12,.45,.14,.65s.03,.37,.03,.5v2.97h-1.2Z"/><path class="cls-3" d="M21.06,12.99V7.67h1.06v1.65h.14v3.67h-1.2Zm3.69,0v-2.56c0-.17-.01-.35-.03-.56s-.08-.4-.16-.59c-.08-.19-.21-.34-.37-.47-.17-.12-.39-.18-.67-.18-.15,0-.3,.02-.45,.07s-.28,.13-.4,.25c-.12,.12-.22,.28-.29,.49s-.11,.48-.11,.8l-.7-.3c0-.45,.09-.86,.26-1.23s.43-.66,.78-.88,.76-.33,1.26-.33c.39,0,.72,.07,.97,.2s.46,.3,.61,.5c.15,.2,.26,.42,.33,.65,.07,.23,.12,.45,.14,.65s.03,.37,.03,.5v2.97h-1.2Z"/><path class="cls-3" d="M29.58,13.14c-.54,0-1.01-.12-1.42-.35-.41-.23-.72-.56-.95-.97-.23-.41-.34-.89-.34-1.43,0-.58,.11-1.09,.33-1.51,.22-.43,.53-.76,.93-1s.86-.35,1.38-.35c.55,0,1.02,.13,1.41,.39,.38,.26,.67,.62,.86,1.09,.19,.47,.26,1.02,.21,1.66h-1.18v-.43c0-.58-.11-1-.31-1.27-.2-.27-.51-.4-.95-.4-.49,0-.85,.15-1.08,.45s-.35,.74-.35,1.32c0,.54,.12,.96,.35,1.25s.58,.44,1.03,.44c.29,0,.54-.06,.76-.19,.21-.13,.38-.32,.49-.56l1.17,.35c-.2,.48-.52,.85-.94,1.12-.42,.27-.89,.4-1.41,.4Zm-1.83-2.48v-.9h3.66v.9h-3.66Z"/><path class="cls-3" d="M35.4,13.14c-.55,0-1.02-.12-1.4-.37-.39-.24-.68-.58-.89-1-.21-.42-.31-.9-.31-1.44,0-.54,.11-1.03,.32-1.45,.21-.42,.51-.75,.9-.99s.85-.36,1.39-.36c.6,0,1.12,.15,1.53,.46,.42,.3,.69,.72,.82,1.24l-1.18,.32c-.09-.29-.25-.51-.46-.67-.21-.16-.46-.24-.73-.24-.31,0-.56,.07-.76,.22-.2,.15-.35,.35-.44,.6-.09,.26-.14,.55-.14,.87,0,.51,.11,.91,.34,1.23,.23,.31,.56,.47,1.01,.47,.31,0,.56-.07,.75-.22,.18-.14,.32-.35,.41-.63l1.21,.27c-.16,.54-.45,.96-.86,1.25-.41,.29-.91,.44-1.51,.44Z"/><path class="cls-3" d="M38.17,8.6v-.93h3.71v.93h-3.71Zm3.71,4.39c-.35,.07-.7,.09-1.03,.09-.34,0-.64-.07-.9-.19-.27-.12-.47-.3-.61-.55-.12-.23-.19-.46-.19-.7s0-.51,0-.81V6.2h1.18v4.55c0,.21,0,.4,0,.56,0,.16,.04,.29,.1,.39,.12,.2,.31,.31,.57,.33,.26,.02,.55,0,.89-.04v.99Z"/><path class="cls-3" d="M43.12,6.86v-1.09h1.19v1.09h-1.19Zm0,6.13V7.67h1.19v5.32h-1.19Z"/><path class="cls-3" d="M48.13,13.14c-.53,0-1-.12-1.39-.36-.4-.24-.71-.57-.92-.99-.22-.42-.33-.91-.33-1.45s.11-1.05,.33-1.47c.22-.42,.53-.75,.93-.98s.86-.35,1.38-.35,1,.12,1.4,.36c.4,.24,.71,.57,.93,.99s.33,.91,.33,1.46-.11,1.04-.33,1.46c-.22,.42-.53,.75-.93,.99-.4,.24-.86,.36-1.39,.36Zm0-1.11c.47,0,.82-.16,1.05-.47,.23-.31,.34-.72,.34-1.22s-.12-.93-.35-1.23c-.23-.31-.58-.46-1.05-.46-.32,0-.58,.07-.79,.21-.21,.14-.36,.34-.46,.6-.1,.25-.15,.55-.15,.88,0,.52,.12,.93,.35,1.23,.23,.31,.58,.46,1.04,.46Z"/><path class="cls-3" d="M51.86,12.99V7.67h1.06v1.65h.14v3.67h-1.2Zm3.69,0v-2.56c0-.17-.01-.35-.03-.56s-.08-.4-.16-.59c-.08-.19-.21-.34-.37-.47-.17-.12-.39-.18-.67-.18-.15,0-.3,.02-.45,.07s-.28,.13-.4,.25c-.12,.12-.22,.28-.29,.49s-.11,.48-.11,.8l-.7-.3c0-.45,.09-.86,.26-1.23s.43-.66,.78-.88,.76-.33,1.26-.33c.39,0,.72,.07,.97,.2s.46,.3,.61,.5c.15,.2,.26,.42,.33,.65,.07,.23,.12,.45,.14,.65s.03,.37,.03,.5v2.97h-1.2Z"/></g><g><path class="cls-3" d="M134.03,13.14c-.71,0-1.32-.16-1.82-.47-.51-.31-.89-.74-1.16-1.3-.27-.55-.41-1.2-.41-1.93s.13-1.38,.41-1.93c.27-.55,.66-.99,1.16-1.3s1.11-.47,1.82-.47c.82,0,1.5,.2,2.04,.61s.93,.96,1.15,1.65l-1.2,.33c-.14-.46-.37-.83-.7-1.09-.33-.26-.76-.39-1.29-.39-.48,0-.87,.11-1.19,.32-.32,.21-.55,.51-.71,.9s-.24,.84-.24,1.36c0,.52,.08,.97,.24,1.36s.4,.69,.72,.9,.72,.32,1.19,.32c.53,0,.96-.13,1.29-.39,.33-.26,.57-.62,.7-1.08l1.2,.33c-.22,.69-.6,1.24-1.15,1.65s-1.23,.61-2.04,.61Z"/><path class="cls-3" d="M138.3,12.99V7.67h1.05v1.29l-.13-.17c.07-.18,.15-.34,.26-.48,.11-.15,.24-.27,.4-.36,.13-.09,.28-.16,.44-.21,.16-.05,.32-.08,.49-.09,.17-.01,.33,0,.49,.02v1.11c-.16-.05-.34-.06-.54-.04-.21,.02-.39,.07-.55,.17-.16,.09-.3,.2-.4,.34s-.18,.29-.23,.47c-.05,.18-.07,.37-.07,.57v2.7h-1.19Z"/><path class="cls-3" d="M144.56,13.14c-.54,0-1.01-.12-1.42-.35-.41-.23-.72-.56-.95-.97-.23-.41-.34-.89-.34-1.43,0-.58,.11-1.09,.33-1.51,.22-.43,.53-.76,.93-1s.86-.35,1.38-.35c.55,0,1.02,.13,1.41,.39,.38,.26,.67,.62,.86,1.09,.19,.47,.26,1.02,.21,1.66h-1.18v-.43c0-.58-.11-1-.31-1.27-.2-.27-.51-.4-.95-.4-.49,0-.85,.15-1.08,.45s-.35,.74-.35,1.32c0,.54,.12,.96,.35,1.25s.58,.44,1.03,.44c.29,0,.54-.06,.76-.19,.21-.13,.38-.32,.49-.56l1.17,.35c-.2,.48-.52,.85-.94,1.12-.42,.27-.89,.4-1.41,.4Zm-1.83-2.48v-.9h3.66v.9h-3.66Z"/><path class="cls-3" d="M149.47,13.14c-.38,0-.71-.07-.98-.22-.27-.15-.47-.34-.6-.58-.14-.24-.21-.51-.21-.8,0-.26,.04-.49,.13-.69,.09-.21,.22-.38,.39-.53,.18-.15,.41-.27,.69-.37,.21-.07,.46-.13,.75-.19,.29-.06,.6-.11,.94-.16,.34-.05,.69-.1,1.06-.16l-.42,.24c0-.37-.08-.64-.25-.81-.17-.17-.45-.26-.85-.26-.24,0-.47,.06-.69,.17-.22,.11-.38,.3-.47,.58l-1.08-.34c.13-.45,.38-.81,.75-1.08s.87-.41,1.49-.41c.47,0,.89,.08,1.25,.23,.36,.15,.63,.41,.8,.76,.09,.19,.15,.38,.17,.57s.03,.41,.03,.64v3.26h-1.04v-1.15l.17,.19c-.24,.38-.52,.67-.84,.84-.32,.18-.72,.27-1.2,.27Zm.24-.95c.27,0,.5-.05,.69-.14,.19-.1,.34-.21,.46-.35s.19-.27,.23-.39c.06-.15,.1-.32,.11-.52,0-.2,.01-.35,.01-.48l.37,.11c-.36,.06-.67,.1-.92,.15-.26,.04-.48,.08-.66,.12s-.35,.08-.49,.13c-.14,.05-.25,.11-.35,.17-.1,.07-.17,.14-.22,.23-.05,.09-.08,.19-.08,.3,0,.13,.03,.25,.1,.35s.16,.18,.29,.24,.28,.09,.47,.09Z"/><path class="cls-3" d="M153.06,8.6v-.93h3.71v.93h-3.71Zm3.71,4.39c-.35,.07-.7,.09-1.03,.09-.34,0-.64-.07-.9-.19-.27-.12-.47-.3-.61-.55-.12-.23-.19-.46-.19-.7s0-.51,0-.81V6.2h1.18v4.55c0,.21,0,.4,0,.56,0,.16,.04,.29,.1,.39,.12,.2,.31,.31,.57,.33,.26,.02,.55,0,.89-.04v.99Z"/><path class="cls-3" d="M160.07,13.14c-.54,0-1.01-.12-1.42-.35-.41-.23-.72-.56-.95-.97-.23-.41-.34-.89-.34-1.43,0-.58,.11-1.09,.33-1.51,.22-.43,.53-.76,.93-1s.86-.35,1.38-.35c.55,0,1.02,.13,1.41,.39,.38,.26,.67,.62,.86,1.09,.19,.47,.26,1.02,.21,1.66h-1.18v-.43c0-.58-.11-1-.31-1.27-.2-.27-.51-.4-.95-.4-.49,0-.85,.15-1.08,.45s-.35,.74-.35,1.32c0,.54,.12,.96,.35,1.25s.58,.44,1.03,.44c.29,0,.54-.06,.76-.19,.21-.13,.38-.32,.49-.56l1.17,.35c-.2,.48-.52,.85-.94,1.12-.42,.27-.89,.4-1.41,.4Zm-1.83-2.48v-.9h3.66v.9h-3.66Z"/><path class="cls-3" d="M167.9,13.14c-.39,0-.77-.06-1.12-.17-.35-.12-.64-.3-.87-.55-.19-.21-.32-.43-.41-.68-.09-.24-.14-.51-.15-.79,0-.27,.04-.54,.12-.79,.08-.26,.2-.48,.37-.68,.07-.08,.14-.15,.21-.21,.08-.06,.16-.12,.23-.17-.19-.22-.34-.43-.44-.63-.1-.2-.15-.44-.15-.72,0-.41,.11-.78,.33-1.11,.22-.33,.53-.56,.91-.71,.17-.06,.34-.1,.51-.13,.17-.02,.34-.03,.5-.03,.31,0,.61,.05,.89,.14,.29,.09,.53,.25,.73,.46,.13,.12,.24,.26,.32,.41,.08,.15,.15,.31,.19,.47l-1.17,.25c-.05-.15-.13-.27-.24-.38-.1-.1-.22-.16-.35-.19-.13-.03-.27-.05-.4-.05-.21,0-.4,.04-.56,.11-.16,.08-.28,.18-.36,.31-.08,.13-.12,.28-.12,.47,0,.16,.03,.3,.09,.39,.06,.1,.13,.2,.22,.3,.06,.07,.13,.14,.22,.22,.08,.08,.17,.16,.27,.25l1.78,1.65c0-.07,0-.14,0-.21v-1.09h1.04v1.29c0,.18,0,.35-.02,.51,0,.17-.03,.3-.06,.41l.88,.81-.76,.81-.68-.65c-.17,.16-.35,.29-.55,.38-.2,.1-.4,.17-.61,.21-.15,.04-.29,.06-.42,.07-.13,.01-.27,.02-.41,.02Zm.05-1.13c.1,0,.2,0,.29-.01,.09,0,.18-.03,.26-.06,.12-.04,.23-.08,.31-.13s.16-.1,.23-.15l-1.88-1.72c-.09,.03-.17,.07-.24,.13s-.13,.11-.18,.17c-.06,.08-.11,.18-.15,.29-.03,.11-.05,.23-.05,.36,0,.15,.03,.28,.07,.4,.05,.12,.11,.22,.18,.31,.12,.15,.29,.26,.51,.32s.43,.1,.63,.1Z"/><path class="cls-3" d="M176.15,13.14c-.66,0-1.19-.15-1.6-.44s-.66-.71-.75-1.25l1.21-.19c.06,.26,.2,.47,.41,.62,.21,.15,.48,.23,.81,.23,.29,0,.51-.06,.66-.17,.16-.11,.23-.27,.23-.47,0-.12-.03-.22-.09-.29-.06-.07-.18-.15-.38-.21-.19-.07-.49-.16-.89-.26-.45-.12-.8-.25-1.06-.38-.26-.14-.45-.3-.57-.48-.11-.19-.17-.41-.17-.68,0-.33,.09-.62,.26-.87,.17-.25,.42-.44,.73-.57,.31-.13,.68-.2,1.1-.2s.78,.06,1.1,.19c.32,.13,.58,.31,.78,.55,.2,.24,.32,.51,.36,.83l-1.21,.22c-.03-.23-.13-.41-.31-.54-.17-.13-.41-.21-.7-.22-.28-.02-.5,.03-.67,.13s-.26,.24-.26,.42c0,.1,.03,.19,.1,.26,.07,.07,.21,.14,.42,.22,.21,.07,.52,.16,.93,.27,.42,.11,.76,.23,1.02,.37,.25,.14,.44,.31,.55,.5s.17,.43,.17,.7c0,.54-.19,.96-.58,1.26-.39,.31-.93,.46-1.61,.46Z"/><path class="cls-3" d="M179.53,6.86v-1.09h1.19v1.09h-1.19Zm0,6.13V7.67h1.19v5.32h-1.19Z"/><path class="cls-3" d="M184.33,13.14c-.49,0-.92-.12-1.28-.37s-.65-.58-.85-1-.3-.9-.3-1.43,.1-1.02,.3-1.44c.2-.42,.49-.75,.86-1s.81-.37,1.31-.37,.93,.12,1.27,.37,.6,.58,.78,1c.18,.42,.27,.9,.27,1.44s-.09,1-.27,1.43c-.18,.43-.44,.76-.79,1.01-.35,.25-.79,.37-1.3,.37Zm.1,2.36c-.3,0-.58-.05-.85-.14-.27-.09-.51-.22-.73-.4-.22-.17-.39-.38-.53-.62l1.09-.54c.1,.19,.25,.34,.43,.43,.19,.09,.38,.14,.59,.14,.25,0,.47-.04,.66-.13,.19-.09,.34-.21,.45-.38s.16-.38,.15-.63v-1.51h.15V7.67h1.04v5.57c0,.13,0,.26-.02,.39-.01,.12-.03,.24-.06,.36-.08,.34-.23,.63-.45,.85-.22,.22-.5,.39-.83,.49s-.7,.16-1.1,.16Zm.08-3.43c.32,0,.58-.07,.77-.22s.34-.35,.43-.61c.09-.26,.14-.57,.14-.91s-.04-.65-.14-.91c-.09-.26-.23-.46-.42-.61-.19-.15-.44-.22-.74-.22-.32,0-.58,.08-.79,.23-.21,.16-.36,.37-.46,.63-.1,.26-.15,.56-.15,.88s.05,.62,.15,.88,.25,.47,.45,.63,.46,.23,.76,.23Z"/><path class="cls-3" d="M188.25,12.99V7.67h1.06v1.65h.14v3.67h-1.2Zm3.69,0v-2.56c0-.17-.01-.35-.03-.56s-.08-.4-.16-.59c-.08-.19-.21-.34-.37-.47-.17-.12-.39-.18-.67-.18-.15,0-.3,.02-.45,.07s-.28,.13-.4,.25c-.12,.12-.22,.28-.29,.49s-.11,.48-.11,.8l-.7-.3c0-.45,.09-.86,.26-1.23s.43-.66,.78-.88,.76-.33,1.26-.33c.39,0,.72,.07,.97,.2s.46,.3,.61,.5c.15,.2,.26,.42,.33,.65,.07,.23,.12,.45,.14,.65s.03,.37,.03,.5v2.97h-1.2Z"/><path class="cls-3" d="M196.38,12.99V7.67h1.05v1.65h.15v3.67h-1.2Zm3.21,0v-3.22c0-.37-.09-.66-.27-.87-.18-.21-.43-.31-.74-.31s-.54,.1-.73,.31c-.18,.21-.27,.48-.27,.81l-.53-.35c0-.34,.09-.65,.26-.93,.17-.28,.4-.49,.69-.65,.29-.16,.62-.24,.98-.24,.4,0,.73,.08,1,.25s.47,.4,.6,.69,.2,.62,.2,.98v3.53h-1.18Zm3.19,0v-3.23c0-.36-.09-.65-.27-.85s-.42-.31-.73-.31c-.19,0-.36,.04-.51,.13-.15,.09-.27,.22-.36,.38-.09,.17-.13,.37-.13,.6l-.53-.31c0-.37,.08-.69,.25-.97,.17-.28,.4-.5,.69-.66s.61-.24,.96-.24c.59,0,1.04,.18,1.35,.53s.47,.82,.47,1.39v3.53h-1.19Z"/><path class="cls-3" d="M207.6,13.14c-.54,0-1.01-.12-1.42-.35-.41-.23-.72-.56-.95-.97-.23-.41-.34-.89-.34-1.43,0-.58,.11-1.09,.33-1.51,.22-.43,.53-.76,.93-1s.86-.35,1.38-.35c.55,0,1.02,.13,1.41,.39,.38,.26,.67,.62,.86,1.09,.19,.47,.26,1.02,.21,1.66h-1.18v-.43c0-.58-.11-1-.31-1.27-.2-.27-.51-.4-.95-.4-.49,0-.85,.15-1.08,.45s-.35,.74-.35,1.32c0,.54,.12,.96,.35,1.25s.58,.44,1.03,.44c.29,0,.54-.06,.76-.19,.21-.13,.38-.32,.49-.56l1.17,.35c-.2,.48-.52,.85-.94,1.12-.42,.27-.89,.4-1.41,.4Zm-1.83-2.48v-.9h3.66v.9h-3.66Z"/><path class="cls-3" d="M213.16,13.14c-.66,0-1.19-.15-1.6-.44s-.66-.71-.75-1.25l1.21-.19c.06,.26,.2,.47,.41,.62,.21,.15,.48,.23,.81,.23,.29,0,.51-.06,.66-.17,.16-.11,.23-.27,.23-.47,0-.12-.03-.22-.09-.29-.06-.07-.18-.15-.38-.21-.19-.07-.49-.16-.89-.26-.45-.12-.8-.25-1.06-.38-.26-.14-.45-.3-.57-.48-.11-.19-.17-.41-.17-.68,0-.33,.09-.62,.26-.87,.17-.25,.42-.44,.73-.57,.31-.13,.68-.2,1.1-.2s.78,.06,1.1,.19c.32,.13,.58,.31,.78,.55,.2,.24,.32,.51,.36,.83l-1.21,.22c-.03-.23-.13-.41-.31-.54-.17-.13-.41-.21-.7-.22-.28-.02-.5,.03-.67,.13s-.26,.24-.26,.42c0,.1,.03,.19,.1,.26,.07,.07,.21,.14,.42,.22,.21,.07,.52,.16,.93,.27,.42,.11,.76,.23,1.02,.37,.25,.14,.44,.31,.55,.5s.17,.43,.17,.7c0,.54-.19,.96-.58,1.26-.39,.31-.93,.46-1.61,.46Z"/><path class="cls-3" d="M218.5,13.14c-.66,0-1.19-.15-1.6-.44s-.66-.71-.75-1.25l1.21-.19c.06,.26,.2,.47,.41,.62,.21,.15,.48,.23,.81,.23,.29,0,.51-.06,.66-.17,.16-.11,.23-.27,.23-.47,0-.12-.03-.22-.09-.29-.06-.07-.18-.15-.38-.21-.19-.07-.49-.16-.89-.26-.45-.12-.8-.25-1.06-.38-.26-.14-.45-.3-.57-.48-.11-.19-.17-.41-.17-.68,0-.33,.09-.62,.26-.87,.17-.25,.42-.44,.73-.57,.31-.13,.68-.2,1.1-.2s.78,.06,1.1,.19c.32,.13,.58,.31,.78,.55,.2,.24,.32,.51,.36,.83l-1.21,.22c-.03-.23-.13-.41-.31-.54-.17-.13-.41-.21-.7-.22-.28-.02-.5,.03-.67,.13s-.26,.24-.26,.42c0,.1,.03,.19,.1,.26,.07,.07,.21,.14,.42,.22,.21,.07,.52,.16,.93,.27,.42,.11,.76,.23,1.02,.37,.25,.14,.44,.31,.55,.5s.17,.43,.17,.7c0,.54-.19,.96-.58,1.26-.39,.31-.93,.46-1.61,.46Z"/><path class="cls-3" d="M223.26,13.14c-.38,0-.71-.07-.98-.22-.27-.15-.47-.34-.6-.58-.14-.24-.21-.51-.21-.8,0-.26,.04-.49,.13-.69,.09-.21,.22-.38,.39-.53,.18-.15,.41-.27,.69-.37,.21-.07,.46-.13,.75-.19,.29-.06,.6-.11,.94-.16,.34-.05,.69-.1,1.06-.16l-.42,.24c0-.37-.08-.64-.25-.81-.17-.17-.45-.26-.85-.26-.24,0-.47,.06-.69,.17-.22,.11-.38,.3-.47,.58l-1.08-.34c.13-.45,.38-.81,.75-1.08s.87-.41,1.49-.41c.47,0,.89,.08,1.25,.23,.36,.15,.63,.41,.8,.76,.09,.19,.15,.38,.17,.57s.03,.41,.03,.64v3.26h-1.04v-1.15l.17,.19c-.24,.38-.52,.67-.84,.84-.32,.18-.72,.27-1.2,.27Zm.24-.95c.27,0,.5-.05,.69-.14,.19-.1,.34-.21,.46-.35s.19-.27,.23-.39c.06-.15,.1-.32,.11-.52,0-.2,.01-.35,.01-.48l.37,.11c-.36,.06-.67,.1-.92,.15-.26,.04-.48,.08-.66,.12s-.35,.08-.49,.13c-.14,.05-.25,.11-.35,.17-.1,.07-.17,.14-.22,.23-.05,.09-.08,.19-.08,.3,0,.13,.03,.25,.1,.35s.16,.18,.29,.24,.28,.09,.47,.09Z"/><path class="cls-3" d="M229.58,13.14c-.49,0-.92-.12-1.28-.37s-.65-.58-.85-1-.3-.9-.3-1.43,.1-1.02,.3-1.44c.2-.42,.49-.75,.86-1s.81-.37,1.31-.37,.93,.12,1.27,.37,.6,.58,.78,1c.18,.42,.27,.9,.27,1.44s-.09,1-.27,1.43c-.18,.43-.44,.76-.79,1.01-.35,.25-.79,.37-1.3,.37Zm.1,2.36c-.3,0-.58-.05-.85-.14-.27-.09-.51-.22-.73-.4-.22-.17-.39-.38-.53-.62l1.09-.54c.1,.19,.25,.34,.43,.43,.19,.09,.38,.14,.59,.14,.25,0,.47-.04,.66-.13,.19-.09,.34-.21,.45-.38s.16-.38,.15-.63v-1.51h.15V7.67h1.04v5.57c0,.13,0,.26-.02,.39-.01,.12-.03,.24-.06,.36-.08,.34-.23,.63-.45,.85-.22,.22-.5,.39-.83,.49s-.7,.16-1.1,.16Zm.08-3.43c.32,0,.58-.07,.77-.22s.34-.35,.43-.61c.09-.26,.14-.57,.14-.91s-.04-.65-.14-.91c-.09-.26-.23-.46-.42-.61-.19-.15-.44-.22-.74-.22-.32,0-.58,.08-.79,.23-.21,.16-.36,.37-.46,.63-.1,.26-.15,.56-.15,.88s.05,.62,.15,.88,.25,.47,.45,.63,.46,.23,.76,.23Z"/><path class="cls-3" d="M235.93,13.14c-.54,0-1.01-.12-1.42-.35-.41-.23-.72-.56-.95-.97-.23-.41-.34-.89-.34-1.43,0-.58,.11-1.09,.33-1.51,.22-.43,.53-.76,.93-1s.86-.35,1.38-.35c.55,0,1.02,.13,1.41,.39,.38,.26,.67,.62,.86,1.09,.19,.47,.26,1.02,.21,1.66h-1.18v-.43c0-.58-.11-1-.31-1.27-.2-.27-.51-.4-.95-.4-.49,0-.85,.15-1.08,.45s-.35,.74-.35,1.32c0,.54,.12,.96,.35,1.25s.58,.44,1.03,.44c.29,0,.54-.06,.76-.19,.21-.13,.38-.32,.49-.56l1.17,.35c-.2,.48-.52,.85-.94,1.12-.42,.27-.89,.4-1.41,.4Zm-1.83-2.48v-.9h3.66v.9h-3.66Z"/></g><g><path class="cls-3" d="M260.5,12.99V5.9h4.58v1.11h-3.39v1.75h2.8v1.11h-2.8v2h3.39v1.11h-4.58Z"/><path class="cls-3" d="M266.25,12.99V7.67h1.06v1.65h.14v3.67h-1.2Zm3.69,0v-2.56c0-.17-.01-.35-.03-.56s-.08-.4-.16-.59c-.08-.19-.21-.34-.37-.47-.17-.12-.39-.18-.67-.18-.15,0-.3,.02-.45,.07s-.28,.13-.4,.25c-.12,.12-.22,.28-.29,.49s-.11,.48-.11,.8l-.7-.3c0-.45,.09-.86,.26-1.23s.43-.66,.78-.88,.76-.33,1.26-.33c.39,0,.72,.07,.97,.2s.46,.3,.61,.5c.15,.2,.26,.42,.33,.65,.07,.23,.12,.45,.14,.65s.03,.37,.03,.5v2.97h-1.2Z"/><path class="cls-3" d="M274.65,13.14c-.55,0-1.02-.12-1.4-.37-.39-.24-.68-.58-.89-1-.21-.42-.31-.9-.31-1.44,0-.54,.11-1.03,.32-1.45,.21-.42,.51-.75,.9-.99s.85-.36,1.39-.36c.6,0,1.12,.15,1.53,.46,.42,.3,.69,.72,.82,1.24l-1.18,.32c-.09-.29-.25-.51-.46-.67-.21-.16-.46-.24-.73-.24-.31,0-.56,.07-.76,.22-.2,.15-.35,.35-.44,.6-.09,.26-.14,.55-.14,.87,0,.51,.11,.91,.34,1.23,.23,.31,.56,.47,1.01,.47,.31,0,.56-.07,.75-.22,.18-.14,.32-.35,.41-.63l1.21,.27c-.16,.54-.45,.96-.86,1.25-.41,.29-.91,.44-1.51,.44Z"/><path class="cls-3" d="M278,12.99V7.67h1.05v1.29l-.13-.17c.07-.18,.15-.34,.26-.48,.11-.15,.24-.27,.4-.36,.13-.09,.28-.16,.44-.21,.16-.05,.32-.08,.49-.09,.17-.01,.33,0,.49,.02v1.11c-.16-.05-.34-.06-.54-.04-.21,.02-.39,.07-.55,.17-.16,.09-.3,.2-.4,.34s-.18,.29-.23,.47c-.05,.18-.07,.37-.07,.57v2.7h-1.19Z"/><path class="cls-3" d="M282.49,15.35l1.02-2.81,.02,.83-2.32-5.7h1.24l1.64,4.21h-.32l1.6-4.21h1.19l-2.96,7.68h-1.11Z"/><path class="cls-3" d="M287.29,15.35V7.67h1.05v3.73h.15v3.95h-1.2Zm2.57-2.22c-.52,0-.95-.12-1.3-.37-.35-.25-.62-.58-.79-1.01-.18-.43-.27-.9-.27-1.43s.09-1.01,.27-1.44c.18-.42,.44-.76,.78-1s.77-.37,1.27-.37,.94,.12,1.31,.37,.66,.58,.86,1c.2,.42,.31,.9,.31,1.44s-.1,1.01-.3,1.43-.48,.76-.85,1-.79,.37-1.28,.37Zm-.18-1.06c.31,0,.56-.08,.76-.23s.35-.36,.45-.63,.15-.56,.15-.88-.05-.61-.15-.88c-.1-.26-.25-.47-.46-.63-.21-.16-.47-.23-.79-.23-.3,0-.55,.07-.74,.22-.19,.15-.33,.35-.42,.61-.09,.26-.13,.57-.13,.91s.04,.65,.13,.91c.09,.26,.23,.47,.43,.61s.45,.22,.77,.22Z"/><path class="cls-3" d="M292.77,8.6v-.93h3.71v.93h-3.71Zm3.71,4.39c-.35,.07-.7,.09-1.03,.09-.34,0-.64-.07-.9-.19-.27-.12-.47-.3-.61-.55-.12-.23-.19-.46-.19-.7s0-.51,0-.81V6.2h1.18v4.55c0,.21,0,.4,0,.56,0,.16,.04,.29,.1,.39,.12,.2,.31,.31,.57,.33,.26,.02,.55,0,.89-.04v.99Z"/><path class="cls-3" d="M297.73,6.86v-1.09h1.19v1.09h-1.19Zm0,6.13V7.67h1.19v5.32h-1.19Z"/><path class="cls-3" d="M302.74,13.14c-.53,0-1-.12-1.39-.36-.4-.24-.71-.57-.92-.99-.22-.42-.33-.91-.33-1.45s.11-1.05,.33-1.47c.22-.42,.53-.75,.93-.98s.86-.35,1.38-.35,1,.12,1.4,.36c.4,.24,.71,.57,.93,.99s.33,.91,.33,1.46-.11,1.04-.33,1.46c-.22,.42-.53,.75-.93,.99-.4,.24-.86,.36-1.39,.36Zm0-1.11c.47,0,.82-.16,1.05-.47,.23-.31,.34-.72,.34-1.22s-.12-.93-.35-1.23c-.23-.31-.58-.46-1.05-.46-.32,0-.58,.07-.79,.21-.21,.14-.36,.34-.46,.6-.1,.25-.15,.55-.15,.88,0,.52,.12,.93,.35,1.23,.23,.31,.58,.46,1.04,.46Z"/><path class="cls-3" d="M306.46,12.99V7.67h1.06v1.65h.14v3.67h-1.2Zm3.69,0v-2.56c0-.17-.01-.35-.03-.56s-.08-.4-.16-.59c-.08-.19-.21-.34-.37-.47-.17-.12-.39-.18-.67-.18-.15,0-.3,.02-.45,.07s-.28,.13-.4,.25c-.12,.12-.22,.28-.29,.49s-.11,.48-.11,.8l-.7-.3c0-.45,.09-.86,.26-1.23s.43-.66,.78-.88,.76-.33,1.26-.33c.39,0,.72,.07,.97,.2s.46,.3,.61,.5c.15,.2,.26,.42,.33,.65,.07,.23,.12,.45,.14,.65s.03,.37,.03,.5v2.97h-1.2Z"/><path class="cls-3" d="M316.95,13.14c-.39,0-.77-.06-1.12-.17-.35-.12-.64-.3-.87-.55-.19-.21-.32-.43-.41-.68-.09-.24-.14-.51-.15-.79,0-.27,.04-.54,.12-.79,.08-.26,.2-.48,.37-.68,.07-.08,.14-.15,.21-.21,.08-.06,.16-.12,.23-.17-.19-.22-.34-.43-.44-.63-.1-.2-.15-.44-.15-.72,0-.41,.11-.78,.33-1.11,.22-.33,.53-.56,.91-.71,.17-.06,.34-.1,.51-.13,.17-.02,.34-.03,.5-.03,.31,0,.61,.05,.89,.14,.29,.09,.53,.25,.73,.46,.13,.12,.24,.26,.32,.41,.08,.15,.15,.31,.19,.47l-1.17,.25c-.05-.15-.13-.27-.24-.38-.1-.1-.22-.16-.35-.19-.13-.03-.27-.05-.4-.05-.21,0-.4,.04-.56,.11-.16,.08-.28,.18-.36,.31-.08,.13-.12,.28-.12,.47,0,.16,.03,.3,.09,.39,.06,.1,.13,.2,.22,.3,.06,.07,.13,.14,.22,.22,.08,.08,.17,.16,.27,.25l1.78,1.65c0-.07,0-.14,0-.21v-1.09h1.04v1.29c0,.18,0,.35-.02,.51,0,.17-.03,.3-.06,.41l.88,.81-.76,.81-.68-.65c-.17,.16-.35,.29-.55,.38-.2,.1-.4,.17-.61,.21-.15,.04-.29,.06-.42,.07-.13,.01-.27,.02-.41,.02Zm.05-1.13c.1,0,.2,0,.29-.01,.09,0,.18-.03,.26-.06,.12-.04,.23-.08,.31-.13s.16-.1,.23-.15l-1.88-1.72c-.09,.03-.17,.07-.24,.13s-.13,.11-.18,.17c-.06,.08-.11,.18-.15,.29-.03,.11-.05,.23-.05,.36,0,.15,.03,.28,.07,.4,.05,.12,.11,.22,.18,.31,.12,.15,.29,.26,.51,.32s.43,.1,.63,.1Z"/><path class="cls-3" d="M324.29,12.99l-1.62-5.33h1.16s1.04,3.42,1.04,3.42l1.05-3.41h1l1.05,3.41,1.04-3.41h1.16l-1.62,5.32h-.93l-1.21-3.66-1.2,3.66h-.92Z"/><path class="cls-3" d="M333.23,13.14c-.53,0-1-.12-1.39-.36-.4-.24-.71-.57-.92-.99-.22-.42-.33-.91-.33-1.45s.11-1.05,.33-1.47c.22-.42,.53-.75,.93-.98s.86-.35,1.38-.35,1,.12,1.4,.36c.4,.24,.71,.57,.93,.99s.33,.91,.33,1.46-.11,1.04-.33,1.46c-.22,.42-.53,.75-.93,.99-.4,.24-.86,.36-1.39,.36Zm0-1.11c.47,0,.82-.16,1.05-.47,.23-.31,.34-.72,.34-1.22s-.12-.93-.35-1.23c-.23-.31-.58-.46-1.05-.46-.32,0-.58,.07-.79,.21-.21,.14-.36,.34-.46,.6-.1,.25-.15,.55-.15,.88,0,.52,.12,.93,.35,1.23,.23,.31,.58,.46,1.04,.46Z"/><path class="cls-3" d="M336.97,12.99V7.67h1.05v1.29l-.13-.17c.07-.18,.15-.34,.26-.48,.11-.15,.24-.27,.4-.36,.13-.09,.28-.16,.44-.21,.16-.05,.32-.08,.49-.09,.17-.01,.33,0,.49,.02v1.11c-.16-.05-.34-.06-.54-.04-.21,.02-.39,.07-.55,.17-.16,.09-.3,.2-.4,.34s-.18,.29-.23,.47c-.05,.18-.07,.37-.07,.57v2.7h-1.19Z"/><path class="cls-3" d="M340.89,12.99V5.9h1.21v4.33l1.95-2.56h1.48l-2.06,2.66,2.24,2.66h-1.57l-2.03-2.56v2.56h-1.21Z"/></g><g><path class="cls-3" d="M392.82,13.14c-.56,0-1.06-.12-1.49-.34-.43-.23-.76-.55-1-.97-.24-.42-.36-.91-.36-1.47V5.91h1.2s0,4.42,0,4.42c0,.27,.04,.5,.14,.71,.09,.21,.21,.39,.37,.53s.33,.26,.53,.33c.2,.08,.41,.11,.62,.11s.43-.04,.63-.12c.2-.08,.38-.19,.53-.33s.28-.32,.36-.53c.09-.21,.13-.45,.13-.71V5.9h1.2v4.46c0,.56-.12,1.05-.36,1.47s-.58,.74-1,.97c-.43,.23-.93,.34-1.49,.34Z"/><path class="cls-3" d="M399.11,13.14c-.66,0-1.19-.15-1.6-.44s-.66-.71-.75-1.25l1.21-.19c.06,.26,.2,.47,.41,.62,.21,.15,.48,.23,.81,.23,.29,0,.51-.06,.66-.17,.16-.11,.23-.27,.23-.47,0-.12-.03-.22-.09-.29-.06-.07-.18-.15-.38-.21-.19-.07-.49-.16-.89-.26-.45-.12-.8-.25-1.06-.38-.26-.14-.45-.3-.57-.48-.11-.19-.17-.41-.17-.68,0-.33,.09-.62,.26-.87,.17-.25,.42-.44,.73-.57,.31-.13,.68-.2,1.1-.2s.78,.06,1.1,.19c.32,.13,.58,.31,.78,.55,.2,.24,.32,.51,.36,.83l-1.21,.22c-.03-.23-.13-.41-.31-.54-.17-.13-.41-.21-.7-.22-.28-.02-.5,.03-.67,.13s-.26,.24-.26,.42c0,.1,.03,.19,.1,.26,.07,.07,.21,.14,.42,.22,.21,.07,.52,.16,.93,.27,.42,.11,.76,.23,1.02,.37,.25,.14,.44,.31,.55,.5s.17,.43,.17,.7c0,.54-.19,.96-.58,1.26-.39,.31-.93,.46-1.61,.46Z"/><path class="cls-3" d="M404.81,13.14c-.54,0-1.01-.12-1.42-.35-.41-.23-.72-.56-.95-.97-.23-.41-.34-.89-.34-1.43,0-.58,.11-1.09,.33-1.51,.22-.43,.53-.76,.93-1s.86-.35,1.38-.35c.55,0,1.02,.13,1.41,.39,.38,.26,.67,.62,.86,1.09,.19,.47,.26,1.02,.21,1.66h-1.18v-.43c0-.58-.11-1-.31-1.27-.2-.27-.51-.4-.95-.4-.49,0-.85,.15-1.08,.45s-.35,.74-.35,1.32c0,.54,.12,.96,.35,1.25s.58,.44,1.03,.44c.29,0,.54-.06,.76-.19,.21-.13,.38-.32,.49-.56l1.17,.35c-.2,.48-.52,.85-.94,1.12-.42,.27-.89,.4-1.41,.4Zm-1.83-2.48v-.9h3.66v.9h-3.66Z"/><path class="cls-3" d="M408.32,12.99V7.67h1.05v1.29l-.13-.17c.07-.18,.15-.34,.26-.48,.11-.15,.24-.27,.4-.36,.13-.09,.28-.16,.44-.21,.16-.05,.32-.08,.49-.09,.17-.01,.33,0,.49,.02v1.11c-.16-.05-.34-.06-.54-.04-.21,.02-.39,.07-.55,.17-.16,.09-.3,.2-.4,.34s-.18,.29-.23,.47c-.05,.18-.07,.37-.07,.57v2.7h-1.19Z"/><path class="cls-3" d="M413.62,8.6v-.93h3.71v.93h-3.71Zm3.71,4.39c-.35,.07-.7,.09-1.03,.09-.34,0-.64-.07-.9-.19-.27-.12-.47-.3-.61-.55-.12-.23-.19-.46-.19-.7s0-.51,0-.81V6.2h1.18v4.55c0,.21,0,.4,0,.56,0,.16,.04,.29,.1,.39,.12,.2,.31,.31,.57,.33,.26,.02,.55,0,.89-.04v.99Z"/><path class="cls-3" d="M420.56,13.14c-.53,0-1-.12-1.39-.36-.4-.24-.71-.57-.92-.99-.22-.42-.33-.91-.33-1.45s.11-1.05,.33-1.47c.22-.42,.53-.75,.93-.98s.86-.35,1.38-.35,1,.12,1.4,.36c.4,.24,.71,.57,.93,.99s.33,.91,.33,1.46-.11,1.04-.33,1.46c-.22,.42-.53,.75-.93,.99-.4,.24-.86,.36-1.39,.36Zm0-1.11c.47,0,.82-.16,1.05-.47,.23-.31,.34-.72,.34-1.22s-.12-.93-.35-1.23c-.23-.31-.58-.46-1.05-.46-.32,0-.58,.07-.79,.21-.21,.14-.36,.34-.46,.6-.1,.25-.15,.55-.15,.88,0,.52,.12,.93,.35,1.23,.23,.31,.58,.46,1.04,.46Z"/><path class="cls-3" d="M426.26,12.99V5.9h1.06v3.73h.14v3.36h-1.2Zm3.69,0v-2.56c0-.17-.01-.35-.03-.56s-.08-.4-.16-.59c-.08-.19-.21-.34-.37-.47-.17-.12-.39-.18-.67-.18-.15,0-.3,.02-.45,.07s-.28,.13-.4,.25c-.12,.12-.22,.28-.29,.49s-.11,.48-.11,.8l-.7-.3c0-.45,.09-.86,.26-1.23s.43-.66,.78-.88,.76-.33,1.26-.33c.39,0,.72,.07,.97,.2s.46,.3,.61,.5c.15,.2,.26,.42,.33,.65,.07,.23,.12,.45,.14,.65s.03,.37,.03,.5v2.97h-1.2Z"/><path class="cls-3" d="M434.78,13.14c-.53,0-1-.12-1.39-.36-.4-.24-.71-.57-.92-.99-.22-.42-.33-.91-.33-1.45s.11-1.05,.33-1.47c.22-.42,.53-.75,.93-.98s.86-.35,1.38-.35,1,.12,1.4,.36c.4,.24,.71,.57,.93,.99s.33,.91,.33,1.46-.11,1.04-.33,1.46c-.22,.42-.53,.75-.93,.99-.4,.24-.86,.36-1.39,.36Zm0-1.11c.47,0,.82-.16,1.05-.47,.23-.31,.34-.72,.34-1.22s-.12-.93-.35-1.23c-.23-.31-.58-.46-1.05-.46-.32,0-.58,.07-.79,.21-.21,.14-.36,.34-.46,.6-.1,.25-.15,.55-.15,.88,0,.52,.12,.93,.35,1.23,.23,.31,.58,.46,1.04,.46Z"/><path class="cls-3" d="M440.45,13.14c-.66,0-1.19-.15-1.6-.44s-.66-.71-.75-1.25l1.21-.19c.06,.26,.2,.47,.41,.62,.21,.15,.48,.23,.81,.23,.29,0,.51-.06,.66-.17,.16-.11,.23-.27,.23-.47,0-.12-.03-.22-.09-.29-.06-.07-.18-.15-.38-.21-.19-.07-.49-.16-.89-.26-.45-.12-.8-.25-1.06-.38-.26-.14-.45-.3-.57-.48-.11-.19-.17-.41-.17-.68,0-.33,.09-.62,.26-.87,.17-.25,.42-.44,.73-.57,.31-.13,.68-.2,1.1-.2s.78,.06,1.1,.19c.32,.13,.58,.31,.78,.55,.2,.24,.32,.51,.36,.83l-1.21,.22c-.03-.23-.13-.41-.31-.54-.17-.13-.41-.21-.7-.22-.28-.02-.5,.03-.67,.13s-.26,.24-.26,.42c0,.1,.03,.19,.1,.26,.07,.07,.21,.14,.42,.22,.21,.07,.52,.16,.93,.27,.42,.11,.76,.23,1.02,.37,.25,.14,.44,.31,.55,.5s.17,.43,.17,.7c0,.54-.19,.96-.58,1.26-.39,.31-.93,.46-1.61,.46Z"/><path class="cls-3" d="M443.14,8.6v-.93h3.71v.93h-3.71Zm3.71,4.39c-.35,.07-.7,.09-1.03,.09-.34,0-.64-.07-.9-.19-.27-.12-.47-.3-.61-.55-.12-.23-.19-.46-.19-.7s0-.51,0-.81V6.2h1.18v4.55c0,.21,0,.4,0,.56,0,.16,.04,.29,.1,.39,.12,.2,.31,.31,.57,.33,.26,.02,.55,0,.89-.04v.99Z"/></g><g><path class="cls-3" d="M519.44,12.99V5.9h1.19v2.98h3.36v-2.98h1.18v7.09h-1.18v-2.99h-3.36v2.99h-1.19Z"/><path class="cls-3" d="M528.89,13.14c-.53,0-1-.12-1.39-.36-.4-.24-.71-.57-.92-.99-.22-.42-.33-.91-.33-1.45s.11-1.05,.33-1.47c.22-.42,.53-.75,.93-.98s.86-.35,1.38-.35,1,.12,1.4,.36c.4,.24,.71,.57,.93,.99s.33,.91,.33,1.46-.11,1.04-.33,1.46c-.22,.42-.53,.75-.93,.99-.4,.24-.86,.36-1.39,.36Zm0-1.11c.47,0,.82-.16,1.05-.47,.23-.31,.34-.72,.34-1.22s-.12-.93-.35-1.23c-.23-.31-.58-.46-1.05-.46-.32,0-.58,.07-.79,.21-.21,.14-.36,.34-.46,.6-.1,.25-.15,.55-.15,.88,0,.52,.12,.93,.35,1.23,.23,.31,.58,.46,1.04,.46Z"/><path class="cls-3" d="M534.56,13.14c-.66,0-1.19-.15-1.6-.44s-.66-.71-.75-1.25l1.21-.19c.06,.26,.2,.47,.41,.62,.21,.15,.48,.23,.81,.23,.29,0,.51-.06,.66-.17,.16-.11,.23-.27,.23-.47,0-.12-.03-.22-.09-.29-.06-.07-.18-.15-.38-.21-.19-.07-.49-.16-.89-.26-.45-.12-.8-.25-1.06-.38-.26-.14-.45-.3-.57-.48-.11-.19-.17-.41-.17-.68,0-.33,.09-.62,.26-.87,.17-.25,.42-.44,.73-.57,.31-.13,.68-.2,1.1-.2s.78,.06,1.1,.19c.32,.13,.58,.31,.78,.55,.2,.24,.32,.51,.36,.83l-1.21,.22c-.03-.23-.13-.41-.31-.54-.17-.13-.41-.21-.7-.22-.28-.02-.5,.03-.67,.13s-.26,.24-.26,.42c0,.1,.03,.19,.1,.26,.07,.07,.21,.14,.42,.22,.21,.07,.52,.16,.93,.27,.42,.11,.76,.23,1.02,.37,.25,.14,.44,.31,.55,.5s.17,.43,.17,.7c0,.54-.19,.96-.58,1.26-.39,.31-.93,.46-1.61,.46Z"/><path class="cls-3" d="M537.25,8.6v-.93h3.71v.93h-3.71Zm3.71,4.39c-.35,.07-.7,.09-1.03,.09-.34,0-.64-.07-.9-.19-.27-.12-.47-.3-.61-.55-.12-.23-.19-.46-.19-.7s0-.51,0-.81V6.2h1.18v4.55c0,.21,0,.4,0,.56,0,.16,.04,.29,.1,.39,.12,.2,.31,.31,.57,.33,.26,.02,.55,0,.89-.04v.99Z"/><path class="cls-3" d="M543.48,8.6v-.93h3.71v.93h-3.71Zm3.71,4.39c-.35,.07-.7,.09-1.03,.09-.34,0-.64-.07-.9-.19-.27-.12-.47-.3-.61-.55-.12-.23-.19-.46-.19-.7s0-.51,0-.81V6.2h1.18v4.55c0,.21,0,.4,0,.56,0,.16,.04,.29,.1,.39,.12,.2,.31,.31,.57,.33,.26,.02,.55,0,.89-.04v.99Z"/><path class="cls-3" d="M550.42,13.14c-.53,0-1-.12-1.39-.36-.4-.24-.71-.57-.92-.99-.22-.42-.33-.91-.33-1.45s.11-1.05,.33-1.47c.22-.42,.53-.75,.93-.98s.86-.35,1.38-.35,1,.12,1.4,.36c.4,.24,.71,.57,.93,.99s.33,.91,.33,1.46-.11,1.04-.33,1.46c-.22,.42-.53,.75-.93,.99-.4,.24-.86,.36-1.39,.36Zm0-1.11c.47,0,.82-.16,1.05-.47,.23-.31,.34-.72,.34-1.22s-.12-.93-.35-1.23c-.23-.31-.58-.46-1.05-.46-.32,0-.58,.07-.79,.21-.21,.14-.36,.34-.46,.6-.1,.25-.15,.55-.15,.88,0,.52,.12,.93,.35,1.23,.23,.31,.58,.46,1.04,.46Z"/><path class="cls-3" d="M556.13,12.99V7.67h1.05v1.29l-.13-.17c.07-.18,.15-.34,.26-.48,.11-.15,.24-.27,.4-.36,.13-.09,.28-.16,.44-.21,.16-.05,.32-.08,.49-.09,.17-.01,.33,0,.49,.02v1.11c-.16-.05-.34-.06-.54-.04-.21,.02-.39,.07-.55,.17-.16,.09-.3,.2-.4,.34s-.18,.29-.23,.47c-.05,.18-.07,.37-.07,.57v2.7h-1.19Z"/><path class="cls-3" d="M562.39,13.14c-.54,0-1.01-.12-1.42-.35-.41-.23-.72-.56-.95-.97-.23-.41-.34-.89-.34-1.43,0-.58,.11-1.09,.33-1.51,.22-.43,.53-.76,.93-1s.86-.35,1.38-.35c.55,0,1.02,.13,1.41,.39,.38,.26,.67,.62,.86,1.09,.19,.47,.26,1.02,.21,1.66h-1.18v-.43c0-.58-.11-1-.31-1.27-.2-.27-.51-.4-.95-.4-.49,0-.85,.15-1.08,.45s-.35,.74-.35,1.32c0,.54,.12,.96,.35,1.25s.58,.44,1.03,.44c.29,0,.54-.06,.76-.19,.21-.13,.38-.32,.49-.56l1.17,.35c-.2,.48-.52,.85-.94,1.12-.42,.27-.89,.4-1.41,.4Zm-1.83-2.48v-.9h3.66v.9h-3.66Z"/><path class="cls-3" d="M568.21,13.14c-.55,0-1.02-.12-1.4-.37-.39-.24-.68-.58-.89-1-.21-.42-.31-.9-.31-1.44,0-.54,.11-1.03,.32-1.45,.21-.42,.51-.75,.9-.99s.85-.36,1.39-.36c.6,0,1.12,.15,1.53,.46,.42,.3,.69,.72,.82,1.24l-1.18,.32c-.09-.29-.25-.51-.46-.67-.21-.16-.46-.24-.73-.24-.31,0-.56,.07-.76,.22-.2,.15-.35,.35-.44,.6-.09,.26-.14,.55-.14,.87,0,.51,.11,.91,.34,1.23,.23,.31,.56,.47,1.01,.47,.31,0,.56-.07,.75-.22,.18-.14,.32-.35,.41-.63l1.21,.27c-.16,.54-.45,.96-.86,1.25-.41,.29-.91,.44-1.51,.44Z"/><path class="cls-3" d="M571.52,6.86v-1.09h1.19v1.09h-1.19Zm0,6.13V7.67h1.19v5.32h-1.19Z"/><path class="cls-3" d="M574.17,15.35V7.67h1.05v3.73h.15v3.95h-1.2Zm2.57-2.22c-.52,0-.95-.12-1.3-.37-.35-.25-.62-.58-.79-1.01-.18-.43-.27-.9-.27-1.43s.09-1.01,.27-1.44c.18-.42,.44-.76,.78-1s.77-.37,1.27-.37,.94,.12,1.31,.37,.66,.58,.86,1c.2,.42,.31,.9,.31,1.44s-.1,1.01-.3,1.43-.48,.76-.85,1-.79,.37-1.28,.37Zm-.18-1.06c.31,0,.56-.08,.76-.23s.35-.36,.45-.63,.15-.56,.15-.88-.05-.61-.15-.88c-.1-.26-.25-.47-.46-.63-.21-.16-.47-.23-.79-.23-.3,0-.55,.07-.74,.22-.19,.15-.33,.35-.42,.61-.09,.26-.13,.57-.13,.91s.04,.65,.13,.91c.09,.26,.23,.47,.43,.61s.45,.22,.77,.22Z"/><path class="cls-3" d="M580.34,6.86v-1.09h1.19v1.09h-1.19Zm0,6.13V7.67h1.19v5.32h-1.19Z"/><path class="cls-3" d="M585.43,13.14c-.54,0-1.01-.12-1.42-.35-.41-.23-.72-.56-.95-.97-.23-.41-.34-.89-.34-1.43,0-.58,.11-1.09,.33-1.51,.22-.43,.53-.76,.93-1s.86-.35,1.38-.35c.55,0,1.02,.13,1.41,.39,.38,.26,.67,.62,.86,1.09,.19,.47,.26,1.02,.21,1.66h-1.18v-.43c0-.58-.11-1-.31-1.27-.2-.27-.51-.4-.95-.4-.49,0-.85,.15-1.08,.45s-.35,.74-.35,1.32c0,.54,.12,.96,.35,1.25s.58,.44,1.03,.44c.29,0,.54-.06,.76-.19,.21-.13,.38-.32,.49-.56l1.17,.35c-.2,.48-.52,.85-.94,1.12-.42,.27-.89,.4-1.41,.4Zm-1.83-2.48v-.9h3.66v.9h-3.66Z"/><path class="cls-3" d="M588.8,12.99V7.67h1.06v1.65h.14v3.67h-1.2Zm3.69,0v-2.56c0-.17-.01-.35-.03-.56s-.08-.4-.16-.59c-.08-.19-.21-.34-.37-.47-.17-.12-.39-.18-.67-.18-.15,0-.3,.02-.45,.07s-.28,.13-.4,.25c-.12,.12-.22,.28-.29,.49s-.11,.48-.11,.8l-.7-.3c0-.45,.09-.86,.26-1.23s.43-.66,.78-.88,.76-.33,1.26-.33c.39,0,.72,.07,.97,.2s.46,.3,.61,.5c.15,.2,.26,.42,.33,.65,.07,.23,.12,.45,.14,.65s.03,.37,.03,.5v2.97h-1.2Z"/><path class="cls-3" d="M594.38,8.6v-.93h3.71v.93h-3.71Zm3.71,4.39c-.35,.07-.7,.09-1.03,.09-.34,0-.64-.07-.9-.19-.27-.12-.47-.3-.61-.55-.12-.23-.19-.46-.19-.7s0-.51,0-.81V6.2h1.18v4.55c0,.21,0,.4,0,.56,0,.16,.04,.29,.1,.39,.12,.2,.31,.31,.57,.33,.26,.02,.55,0,.89-.04v.99Z"/></g><g><path class="cls-3" d="M519.44,115.61v-7.09h2.93c.07,0,.16,0,.27,0s.21,.02,.3,.03c.41,.06,.75,.2,1.02,.41,.27,.21,.47,.48,.6,.8s.19,.68,.19,1.07-.07,.74-.2,1.06c-.13,.32-.33,.59-.6,.8s-.6,.35-1.01,.41c-.09,.01-.19,.02-.3,.03-.11,0-.2,.01-.26,.01h-1.74v2.48h-1.19Zm1.19-3.58h1.69c.07,0,.14,0,.22,0,.08,0,.16-.02,.23-.04,.2-.05,.35-.14,.47-.26,.11-.12,.19-.27,.24-.42s.07-.31,.07-.46-.02-.31-.07-.47-.13-.3-.24-.43c-.11-.12-.27-.21-.47-.26-.07-.02-.14-.03-.23-.04s-.16,0-.22,0h-1.69v2.39Z"/><path class="cls-3" d="M525.72,115.61v-5.32h1.05v1.29l-.13-.17c.07-.18,.15-.34,.26-.48,.11-.15,.24-.27,.4-.36,.13-.09,.28-.16,.44-.21,.16-.05,.32-.08,.49-.09,.17-.01,.33,0,.49,.02v1.11c-.16-.05-.34-.06-.54-.04-.21,.02-.39,.07-.55,.17-.16,.09-.3,.2-.4,.34s-.18,.29-.23,.47c-.05,.18-.07,.37-.07,.57v2.7h-1.19Z"/><path class="cls-3" d="M531.91,115.76c-.53,0-1-.12-1.39-.36-.4-.24-.71-.57-.92-.99-.22-.42-.33-.91-.33-1.45s.11-1.05,.33-1.47c.22-.42,.53-.75,.93-.98s.86-.35,1.38-.35,1,.12,1.4,.36c.4,.24,.71,.57,.93,.99s.33,.91,.33,1.46-.11,1.04-.33,1.46c-.22,.42-.53,.75-.93,.99-.4,.24-.86,.36-1.39,.36Zm0-1.11c.47,0,.82-.16,1.05-.47,.23-.31,.34-.72,.34-1.22s-.12-.93-.35-1.23c-.23-.31-.58-.46-1.05-.46-.32,0-.58,.07-.79,.21-.21,.14-.36,.34-.46,.6-.1,.25-.15,.55-.15,.88,0,.52,.12,.93,.35,1.23,.23,.31,.58,.46,1.04,.46Z"/><path class="cls-3" d="M535.64,117.98v-7.68h1.05v3.73h.15v3.95h-1.2Zm2.57-2.22c-.52,0-.95-.12-1.3-.37-.35-.25-.62-.58-.79-1.01-.18-.43-.27-.9-.27-1.43s.09-1.01,.27-1.44c.18-.42,.44-.76,.78-1s.77-.37,1.27-.37,.94,.12,1.31,.37,.66,.58,.86,1c.2,.42,.31,.9,.31,1.44s-.1,1.01-.3,1.43-.48,.76-.85,1-.79,.37-1.28,.37Zm-.18-1.06c.31,0,.56-.08,.76-.23s.35-.36,.45-.63,.15-.56,.15-.88-.05-.61-.15-.88c-.1-.26-.25-.47-.46-.63-.21-.16-.47-.23-.79-.23-.3,0-.55,.07-.74,.22-.19,.15-.33,.35-.42,.61-.09,.26-.13,.57-.13,.91s.04,.65,.13,.91c.09,.26,.23,.47,.43,.61s.45,.22,.77,.22Z"/><path class="cls-3" d="M543.2,115.76c-.38,0-.71-.07-.98-.22-.27-.15-.47-.34-.6-.58-.14-.24-.21-.51-.21-.8,0-.26,.04-.49,.13-.69,.09-.21,.22-.38,.39-.53,.18-.15,.41-.27,.69-.37,.21-.07,.46-.13,.75-.19,.29-.06,.6-.11,.94-.16,.34-.05,.69-.1,1.06-.16l-.42,.24c0-.37-.08-.64-.25-.81-.17-.17-.45-.26-.85-.26-.24,0-.47,.06-.69,.17-.22,.11-.38,.3-.47,.58l-1.08-.34c.13-.45,.38-.81,.75-1.08s.87-.41,1.49-.41c.47,0,.89,.08,1.25,.23,.36,.15,.63,.41,.8,.76,.09,.19,.15,.38,.17,.57s.03,.41,.03,.64v3.26h-1.04v-1.15l.17,.19c-.24,.38-.52,.67-.84,.84-.32,.18-.72,.27-1.2,.27Zm.24-.95c.27,0,.5-.05,.69-.14,.19-.1,.34-.21,.46-.35s.19-.27,.23-.39c.06-.15,.1-.32,.11-.52,0-.2,.01-.35,.01-.48l.37,.11c-.36,.06-.67,.1-.92,.15-.26,.04-.48,.08-.66,.12s-.35,.08-.49,.13c-.14,.05-.25,.11-.35,.17-.1,.07-.17,.14-.22,.23-.05,.09-.08,.19-.08,.3,0,.13,.03,.25,.1,.35s.16,.18,.29,.24,.28,.09,.47,.09Z"/><path class="cls-3" d="M549.52,115.76c-.49,0-.92-.12-1.28-.37s-.65-.58-.85-1-.3-.9-.3-1.43,.1-1.02,.3-1.44c.2-.42,.49-.75,.86-1s.81-.37,1.31-.37,.93,.12,1.27,.37,.6,.58,.78,1c.18,.42,.27,.9,.27,1.44s-.09,1-.27,1.43c-.18,.43-.44,.76-.79,1.01-.35,.25-.79,.37-1.3,.37Zm.1,2.36c-.3,0-.58-.05-.85-.14-.27-.09-.51-.22-.73-.4-.22-.17-.39-.38-.53-.62l1.09-.54c.1,.19,.25,.34,.43,.43,.19,.09,.38,.14,.59,.14,.25,0,.47-.04,.66-.13,.19-.09,.34-.21,.45-.38s.16-.38,.15-.63v-1.51h.15v-4.04h1.04v5.57c0,.13,0,.26-.02,.39-.01,.12-.03,.24-.06,.36-.08,.34-.23,.63-.45,.85-.22,.22-.5,.39-.83,.49s-.7,.16-1.1,.16Zm.08-3.43c.32,0,.58-.07,.77-.22s.34-.35,.43-.61c.09-.26,.14-.57,.14-.91s-.04-.65-.14-.91c-.09-.26-.23-.46-.42-.61-.19-.15-.44-.22-.74-.22-.32,0-.58,.08-.79,.23-.21,.16-.36,.37-.46,.63-.1,.26-.15,.56-.15,.88s.05,.62,.15,.88,.25,.47,.45,.63,.46,.23,.76,.23Z"/><path class="cls-3" d="M554.94,115.76c-.38,0-.71-.07-.98-.22-.27-.15-.47-.34-.6-.58-.14-.24-.21-.51-.21-.8,0-.26,.04-.49,.13-.69,.09-.21,.22-.38,.39-.53,.18-.15,.41-.27,.69-.37,.21-.07,.46-.13,.75-.19,.29-.06,.6-.11,.94-.16,.34-.05,.69-.1,1.06-.16l-.42,.24c0-.37-.08-.64-.25-.81-.17-.17-.45-.26-.85-.26-.24,0-.47,.06-.69,.17-.22,.11-.38,.3-.47,.58l-1.08-.34c.13-.45,.38-.81,.75-1.08s.87-.41,1.49-.41c.47,0,.89,.08,1.25,.23,.36,.15,.63,.41,.8,.76,.09,.19,.15,.38,.17,.57s.03,.41,.03,.64v3.26h-1.04v-1.15l.17,.19c-.24,.38-.52,.67-.84,.84-.32,.18-.72,.27-1.2,.27Zm.24-.95c.27,0,.5-.05,.69-.14,.19-.1,.34-.21,.46-.35s.19-.27,.23-.39c.06-.15,.1-.32,.11-.52,0-.2,.01-.35,.01-.48l.37,.11c-.36,.06-.67,.1-.92,.15-.26,.04-.48,.08-.66,.12s-.35,.08-.49,.13c-.14,.05-.25,.11-.35,.17-.1,.07-.17,.14-.22,.23-.05,.09-.08,.19-.08,.3,0,.13,.03,.25,.1,.35s.16,.18,.29,.24,.28,.09,.47,.09Z"/><path class="cls-3" d="M558.54,111.23v-.93h3.71v.93h-3.71Zm3.71,4.39c-.35,.07-.7,.09-1.03,.09-.34,0-.64-.07-.9-.19-.27-.12-.47-.3-.61-.55-.12-.23-.19-.46-.19-.7s0-.51,0-.81v-4.62h1.18v4.55c0,.21,0,.4,0,.56,0,.16,.04,.29,.1,.39,.12,.2,.31,.31,.57,.33,.26,.02,.55,0,.89-.04v.99Z"/><path class="cls-3" d="M565.54,115.76c-.54,0-1.01-.12-1.42-.35-.41-.23-.72-.56-.95-.97-.23-.41-.34-.89-.34-1.43,0-.58,.11-1.09,.33-1.51,.22-.43,.53-.76,.93-1s.86-.35,1.38-.35c.55,0,1.02,.13,1.41,.39,.38,.26,.67,.62,.86,1.09,.19,.47,.26,1.02,.21,1.66h-1.18v-.43c0-.58-.11-1-.31-1.27-.2-.27-.51-.4-.95-.4-.49,0-.85,.15-1.08,.45s-.35,.74-.35,1.32c0,.54,.12,.96,.35,1.25s.58,.44,1.03,.44c.29,0,.54-.06,.76-.19,.21-.13,.38-.32,.49-.56l1.17,.35c-.2,.48-.52,.85-.94,1.12-.42,.27-.89,.4-1.41,.4Zm-1.83-2.48v-.9h3.66v.9h-3.66Z"/></g><g><line class="cls-6" x1="110.43" y1="37.59" x2="123.69" y2="37.59"/><polygon class="cls-4" points="122.21 39.77 130.34 37.59 122.21 35.41 122.21 39.77"/></g><g><line class="cls-6" x1="239.72" y1="37.59" x2="253.16" y2="37.59"/><polygon class="cls-4" points="251.68 39.77 259.81 37.59 251.68 35.41 251.68 39.77"/></g><g><line class="cls-6" x1="369.17" y1="37.46" x2="382.63" y2="37.46"/><polygon class="cls-4" points="381.15 39.64 389.28 37.46 381.15 35.28 381.15 39.64"/></g><g><line class="cls-6" x1="369.17" y1="90.51" x2="382.45" y2="90.51"/><polygon class="cls-4" points="380.97 92.69 389.1 90.51 380.97 88.33 380.97 92.69"/></g><g><line class="cls-6" x1="498.8" y1="37.46" x2="512.1" y2="37.46"/><polygon class="cls-4" points="510.62 39.64 518.75 37.46 510.62 35.28 510.62 39.64"/></g><g><path class="cls-1" d="M528.32,41.74c-.58,0-1.11-.1-1.58-.3-.47-.2-.85-.49-1.15-.87-.3-.38-.49-.83-.57-1.35l1.38-.21c.12,.47,.36,.84,.73,1.1,.37,.26,.79,.39,1.27,.39,.28,0,.55-.04,.8-.13,.25-.09,.46-.22,.61-.39s.24-.38,.24-.63c0-.11-.02-.21-.06-.31-.04-.09-.09-.18-.16-.25-.07-.07-.16-.14-.28-.2-.11-.06-.24-.11-.39-.16l-2.06-.61c-.18-.05-.37-.12-.57-.21-.21-.09-.4-.21-.58-.36-.18-.15-.33-.35-.45-.59-.12-.24-.17-.53-.17-.88,0-.51,.13-.94,.39-1.29,.26-.35,.61-.61,1.05-.78,.44-.17,.93-.26,1.47-.25,.55,0,1.03,.1,1.46,.28,.43,.18,.79,.45,1.07,.79s.49,.77,.61,1.26l-1.43,.25c-.06-.28-.17-.52-.34-.72-.17-.2-.37-.35-.62-.45-.24-.1-.5-.16-.77-.17-.27,0-.51,.04-.74,.12-.23,.08-.41,.2-.55,.36s-.21,.34-.21,.54c0,.2,.06,.36,.18,.48,.12,.12,.26,.22,.44,.29,.18,.07,.35,.13,.53,.18l1.43,.4c.2,.05,.42,.12,.66,.21,.24,.09,.48,.21,.7,.37,.23,.16,.41,.37,.56,.63,.15,.26,.22,.59,.22,.99s-.09,.78-.26,1.09c-.17,.31-.4,.57-.7,.78-.29,.21-.62,.36-1,.47-.38,.1-.77,.15-1.18,.15Z"/><path class="cls-1" d="M532.76,34.69v-1.22h1.33v1.22h-1.33Zm0,6.89v-5.98h1.33v5.98h-1.33Z"/><path class="cls-1" d="M538.15,41.74c-.55,0-1.03-.14-1.44-.42-.41-.28-.73-.65-.95-1.13-.23-.48-.34-1.01-.34-1.61s.11-1.15,.34-1.62c.23-.47,.55-.85,.97-1.12,.42-.28,.91-.41,1.47-.41s1.05,.14,1.43,.41c.39,.27,.68,.65,.88,1.13,.2,.48,.3,1.02,.3,1.62s-.1,1.13-.3,1.61c-.2,.48-.5,.86-.89,1.13-.39,.28-.88,.42-1.47,.42Zm.12,2.66c-.33,0-.65-.05-.96-.16s-.58-.25-.82-.45c-.24-.19-.44-.43-.6-.7l1.23-.61c.11,.22,.28,.38,.49,.48,.21,.1,.43,.16,.67,.16,.28,0,.52-.05,.74-.15,.22-.1,.39-.24,.51-.43,.12-.19,.18-.43,.17-.71v-1.7h.17v-4.55h1.17v6.27c0,.15,0,.3-.02,.43-.01,.14-.03,.27-.06,.41-.09,.39-.26,.71-.51,.96-.25,.25-.56,.44-.93,.56-.37,.12-.78,.18-1.23,.18Zm.09-3.86c.36,0,.65-.08,.87-.25,.22-.16,.38-.39,.48-.69s.15-.64,.15-1.02-.05-.73-.15-1.03c-.1-.29-.26-.52-.47-.69-.21-.16-.49-.25-.83-.25-.36,0-.65,.09-.89,.26s-.4,.41-.52,.71c-.11,.3-.17,.63-.17,.99s.05,.7,.16,.99c.11,.3,.28,.53,.5,.71,.23,.17,.51,.26,.86,.26Z"/><path class="cls-1" d="M542.57,41.58v-5.98h1.19v1.86h.16v4.13h-1.35Zm4.15,0v-2.88c0-.19-.01-.4-.04-.63-.03-.23-.09-.45-.18-.66-.09-.21-.23-.39-.42-.52s-.44-.21-.76-.21c-.17,0-.34,.03-.5,.08-.17,.06-.32,.15-.45,.29s-.24,.32-.32,.55c-.08,.23-.12,.53-.12,.9l-.79-.34c0-.51,.1-.97,.3-1.39,.2-.41,.49-.74,.87-.99,.38-.25,.86-.37,1.42-.37,.44,0,.81,.07,1.1,.22,.29,.15,.52,.34,.69,.56s.3,.47,.38,.73c.08,.26,.13,.5,.16,.73,.02,.23,.04,.42,.04,.56v3.34h-1.35Z"/><path class="cls-1" d="M552.15,41.74c-.61,0-1.14-.13-1.59-.39-.46-.26-.82-.63-1.07-1.09s-.38-1-.38-1.61c0-.65,.12-1.22,.38-1.7,.25-.48,.6-.86,1.05-1.12,.45-.27,.96-.4,1.55-.4,.62,0,1.15,.15,1.58,.44,.43,.29,.76,.7,.97,1.23,.21,.53,.29,1.15,.24,1.87h-1.32v-.49c0-.65-.12-1.12-.34-1.42-.23-.3-.58-.45-1.06-.45-.55,0-.95,.17-1.22,.51-.27,.34-.4,.83-.4,1.48,0,.61,.13,1.07,.4,1.41,.27,.33,.65,.5,1.16,.5,.33,0,.61-.07,.85-.22,.24-.15,.42-.36,.55-.63l1.32,.4c-.23,.54-.58,.96-1.06,1.26-.48,.3-1.01,.45-1.58,.45Zm-2.06-2.79v-1.01h4.12v1.01h-4.12Z"/><path class="cls-1" d="M558.5,41.74c-.55,0-1.03-.14-1.44-.42-.41-.28-.73-.65-.95-1.13-.23-.48-.34-1.01-.34-1.61s.11-1.15,.34-1.62c.23-.47,.55-.85,.97-1.12,.42-.28,.91-.41,1.47-.41s1.05,.14,1.43,.41c.39,.27,.68,.65,.88,1.13,.2,.48,.3,1.02,.3,1.62s-.1,1.13-.3,1.61c-.2,.48-.5,.86-.89,1.13-.39,.28-.88,.42-1.47,.42Zm.21-1.2c.36,0,.65-.08,.87-.25,.22-.16,.38-.39,.48-.69s.15-.64,.15-1.02-.05-.73-.15-1.03c-.1-.29-.26-.52-.47-.69-.21-.16-.49-.25-.83-.25-.36,0-.65,.09-.89,.26s-.4,.41-.52,.71c-.11,.3-.17,.63-.17,.99s.05,.7,.16,.99c.11,.3,.28,.53,.5,.71,.23,.17,.51,.26,.86,.26Zm1.5,1.03v-4.2h-.17v-3.78h1.35v7.98h-1.18Z"/><path class="cls-1" d="M562.82,42.99l.08-.58c.17,.01,.3-.01,.4-.09,.1-.07,.17-.17,.2-.3,.04-.13,.04-.28,.03-.45h-.71v-1.42h1.37v1.48c0,.48-.11,.85-.34,1.1-.23,.25-.57,.33-1.02,.26Z"/><path class="cls-1" d="M570.97,41.74c-.61,0-1.14-.13-1.59-.39-.46-.26-.82-.63-1.07-1.09s-.38-1-.38-1.61c0-.65,.12-1.22,.38-1.7,.25-.48,.6-.86,1.05-1.12,.45-.27,.96-.4,1.55-.4,.62,0,1.15,.15,1.58,.44,.43,.29,.76,.7,.97,1.23,.21,.53,.29,1.15,.24,1.87h-1.32v-.49c0-.65-.12-1.12-.34-1.42-.23-.3-.58-.45-1.06-.45-.55,0-.95,.17-1.22,.51-.27,.34-.4,.83-.4,1.48,0,.61,.13,1.07,.4,1.41,.27,.33,.65,.5,1.16,.5,.33,0,.61-.07,.85-.22,.24-.15,.42-.36,.55-.63l1.32,.4c-.23,.54-.58,.96-1.06,1.26-.48,.3-1.01,.45-1.58,.45Zm-2.06-2.79v-1.01h4.12v1.01h-4.12Z"/><path class="cls-1" d="M574.75,41.58v-5.98h1.19v1.86h.16v4.13h-1.35Zm4.15,0v-2.88c0-.19-.01-.4-.04-.63-.03-.23-.09-.45-.18-.66-.09-.21-.23-.39-.42-.52s-.44-.21-.76-.21c-.17,0-.34,.03-.5,.08-.17,.06-.32,.15-.45,.29s-.24,.32-.32,.55c-.08,.23-.12,.53-.12,.9l-.79-.34c0-.51,.1-.97,.3-1.39,.2-.41,.49-.74,.87-.99,.38-.25,.86-.37,1.42-.37,.44,0,.81,.07,1.1,.22,.29,.15,.52,.34,.69,.56s.3,.47,.38,.73c.08,.26,.13,.5,.16,.73,.02,.23,.04,.42,.04,.56v3.34h-1.35Z"/><path class="cls-1" d="M584.2,41.74c-.62,0-1.14-.14-1.58-.41s-.77-.65-1-1.13c-.23-.48-.35-1.02-.35-1.62,0-.61,.12-1.16,.36-1.63s.58-.85,1.02-1.12,.96-.41,1.57-.41c.68,0,1.25,.17,1.73,.51,.47,.34,.78,.81,.92,1.4l-1.33,.36c-.1-.32-.28-.57-.52-.75-.24-.18-.51-.27-.82-.27-.35,0-.63,.08-.86,.25-.22,.16-.39,.39-.5,.68-.11,.29-.16,.61-.16,.98,0,.57,.13,1.03,.38,1.38,.25,.35,.63,.53,1.13,.53,.36,0,.63-.08,.84-.24,.21-.16,.36-.4,.46-.7l1.36,.3c-.18,.61-.51,1.08-.97,1.4-.46,.33-1.03,.49-1.7,.49Z"/><path class="cls-1" d="M587.98,41.58v-5.98h1.18v1.46l-.14-.19c.07-.2,.17-.38,.3-.55,.12-.16,.27-.3,.45-.41,.15-.1,.31-.18,.49-.24,.18-.06,.36-.09,.55-.1,.19-.01,.37,0,.55,.02v1.25c-.18-.05-.38-.07-.61-.05s-.44,.08-.62,.19c-.18,.1-.33,.23-.45,.38s-.2,.33-.26,.53c-.06,.2-.08,.41-.08,.64v3.04h-1.34Z"/><path class="cls-1" d="M593.02,44.24l1.15-3.16,.02,.93-2.61-6.41h1.39l1.85,4.74h-.35l1.8-4.74h1.33l-3.33,8.64h-1.25Z"/><path class="cls-1" d="M598.42,44.24v-8.64h1.18v4.2h.17v4.44h-1.35Zm2.89-2.49c-.58,0-1.07-.14-1.47-.42-.4-.28-.69-.65-.89-1.13-.2-.48-.3-1.01-.3-1.61s.1-1.14,.3-1.62c.2-.48,.49-.85,.88-1.13,.39-.28,.86-.41,1.43-.41s1.06,.14,1.47,.41c.42,.27,.74,.65,.97,1.12,.23,.47,.34,1.01,.34,1.62s-.11,1.14-.34,1.61c-.23,.48-.54,.85-.95,1.13-.41,.28-.89,.42-1.44,.42Zm-.21-1.2c.35,0,.63-.09,.86-.26,.23-.17,.39-.41,.5-.71,.11-.3,.16-.63,.16-.99s-.06-.69-.17-.99c-.11-.3-.28-.53-.52-.71-.23-.18-.53-.26-.89-.26-.34,0-.62,.08-.83,.25-.21,.16-.37,.39-.47,.69-.1,.29-.15,.64-.15,1.03s.05,.73,.15,1.02,.26,.53,.48,.69c.22,.16,.51,.25,.87,.25Z"/><path class="cls-1" d="M604.59,36.64v-1.05h4.17v1.05h-4.17Zm4.17,4.94c-.4,.07-.78,.11-1.16,.1-.38,0-.72-.08-1.02-.21-.3-.13-.53-.34-.68-.62-.14-.26-.21-.52-.22-.79,0-.27-.01-.57-.01-.91v-5.2h1.33v5.12c0,.24,0,.45,0,.63,0,.18,.04,.33,.11,.44,.13,.22,.35,.35,.64,.37,.29,.03,.62,.01,1-.04v1.12Z"/><path class="cls-1" d="M612.47,41.74c-.61,0-1.14-.13-1.59-.39-.46-.26-.82-.63-1.07-1.09s-.38-1-.38-1.61c0-.65,.12-1.22,.38-1.7,.25-.48,.6-.86,1.05-1.12,.45-.27,.96-.4,1.55-.4,.62,0,1.15,.15,1.58,.44,.43,.29,.76,.7,.97,1.23,.21,.53,.29,1.15,.24,1.87h-1.32v-.49c0-.65-.12-1.12-.34-1.42-.23-.3-.58-.45-1.06-.45-.55,0-.95,.17-1.22,.51-.27,.34-.4,.83-.4,1.48,0,.61,.13,1.07,.4,1.41,.27,.33,.65,.5,1.16,.5,.33,0,.61-.07,.85-.22,.24-.15,.42-.36,.55-.63l1.32,.4c-.23,.54-.58,.96-1.06,1.26-.48,.3-1.01,.45-1.58,.45Zm-2.06-2.79v-1.01h4.12v1.01h-4.12Z"/><path class="cls-1" d="M618.82,41.74c-.55,0-1.03-.14-1.44-.42-.41-.28-.73-.65-.95-1.13-.23-.48-.34-1.01-.34-1.61s.11-1.15,.34-1.62c.23-.47,.55-.85,.97-1.12,.42-.28,.91-.41,1.47-.41s1.05,.14,1.43,.41c.39,.27,.68,.65,.88,1.13,.2,.48,.3,1.02,.3,1.62s-.1,1.13-.3,1.61c-.2,.48-.5,.86-.89,1.13-.39,.28-.88,.42-1.47,.42Zm.21-1.2c.36,0,.65-.08,.87-.25,.22-.16,.38-.39,.48-.69s.15-.64,.15-1.02-.05-.73-.15-1.03c-.1-.29-.26-.52-.47-.69-.21-.16-.49-.25-.83-.25-.36,0-.65,.09-.89,.26s-.4,.41-.52,.71c-.11,.3-.17,.63-.17,.99s.05,.7,.16,.99c.11,.3,.28,.53,.5,.71,.23,.17,.51,.26,.86,.26Zm1.5,1.03v-4.2h-.17v-3.78h1.35v7.98h-1.18Z"/></g><g><path class="cls-1" d="M525.35,57.58v-5.98h1.18v1.86h.17v4.13h-1.35Zm3.61,0v-3.62c0-.42-.1-.74-.3-.98-.2-.23-.48-.35-.83-.35s-.61,.12-.82,.35c-.21,.23-.31,.54-.31,.91l-.6-.4c0-.39,.1-.74,.29-1.05,.19-.31,.45-.55,.78-.73,.33-.18,.69-.27,1.1-.27,.45,0,.82,.1,1.12,.29,.3,.19,.53,.45,.68,.78s.22,.7,.22,1.1v3.97h-1.33Zm3.59,0v-3.63c0-.41-.1-.73-.3-.96-.2-.23-.48-.35-.83-.35-.21,0-.41,.05-.58,.15-.17,.1-.3,.24-.4,.43-.1,.19-.15,.42-.15,.68l-.59-.35c0-.41,.09-.78,.28-1.09,.19-.32,.45-.56,.77-.74,.32-.18,.69-.27,1.08-.27,.66,0,1.17,.2,1.52,.6,.35,.4,.53,.92,.53,1.56v3.97h-1.33Z"/><path class="cls-1" d="M537.95,57.74c-.61,0-1.14-.13-1.59-.39-.46-.26-.82-.63-1.07-1.09s-.38-1-.38-1.61c0-.65,.12-1.22,.38-1.7,.25-.48,.6-.86,1.05-1.12,.45-.27,.96-.4,1.55-.4,.62,0,1.15,.15,1.58,.44,.43,.29,.76,.7,.97,1.23,.21,.53,.29,1.15,.24,1.87h-1.32v-.49c0-.65-.12-1.12-.34-1.42-.23-.3-.58-.45-1.06-.45-.55,0-.95,.17-1.22,.51-.27,.34-.4,.83-.4,1.48,0,.61,.13,1.07,.4,1.41,.27,.33,.65,.5,1.16,.5,.33,0,.61-.07,.85-.22,.24-.15,.42-.36,.55-.63l1.32,.4c-.23,.54-.58,.96-1.06,1.26-.48,.3-1.01,.45-1.58,.45Zm-2.06-2.79v-1.01h4.12v1.01h-4.12Z"/><path class="cls-1" d="M544.21,57.74c-.74,0-1.34-.17-1.8-.5-.46-.33-.74-.8-.84-1.4l1.36-.21c.07,.3,.23,.53,.47,.7,.24,.17,.54,.25,.91,.25,.32,0,.57-.06,.75-.19,.17-.13,.26-.3,.26-.52,0-.14-.03-.25-.1-.33s-.21-.16-.42-.24-.55-.18-1-.29c-.5-.13-.9-.28-1.2-.43-.29-.15-.51-.34-.64-.55-.13-.21-.19-.47-.19-.76,0-.37,.1-.7,.29-.98,.2-.28,.47-.49,.82-.64,.35-.15,.76-.22,1.24-.22s.88,.07,1.24,.22,.65,.35,.87,.61c.22,.27,.36,.58,.41,.94l-1.36,.24c-.03-.25-.15-.46-.35-.6-.2-.15-.46-.23-.79-.25-.31-.02-.57,.03-.76,.14-.19,.11-.29,.27-.29,.47,0,.11,.04,.21,.12,.29,.08,.08,.23,.16,.47,.24,.23,.08,.58,.18,1.05,.3,.48,.12,.86,.26,1.14,.42,.29,.16,.49,.34,.62,.56,.13,.22,.19,.48,.19,.79,0,.6-.22,1.07-.66,1.42-.44,.34-1.04,.52-1.81,.52Z"/><path class="cls-1" d="M550.21,57.74c-.74,0-1.34-.17-1.8-.5-.46-.33-.74-.8-.84-1.4l1.36-.21c.07,.3,.23,.53,.47,.7,.24,.17,.54,.25,.91,.25,.32,0,.57-.06,.75-.19,.17-.13,.26-.3,.26-.52,0-.14-.03-.25-.1-.33s-.21-.16-.42-.24-.55-.18-1-.29c-.5-.13-.9-.28-1.2-.43-.29-.15-.51-.34-.64-.55-.13-.21-.19-.47-.19-.76,0-.37,.1-.7,.29-.98,.2-.28,.47-.49,.82-.64,.35-.15,.76-.22,1.24-.22s.88,.07,1.24,.22,.65,.35,.87,.61c.22,.27,.36,.58,.41,.94l-1.36,.24c-.03-.25-.15-.46-.35-.6-.2-.15-.46-.23-.79-.25-.31-.02-.57,.03-.76,.14-.19,.11-.29,.27-.29,.47,0,.11,.04,.21,.12,.29,.08,.08,.23,.16,.47,.24,.23,.08,.58,.18,1.05,.3,.48,.12,.86,.26,1.14,.42,.29,.16,.49,.34,.62,.56,.13,.22,.19,.48,.19,.79,0,.6-.22,1.07-.66,1.42-.44,.34-1.04,.52-1.81,.52Z"/><path class="cls-1" d="M555.57,57.74c-.43,0-.8-.08-1.1-.25-.3-.16-.53-.38-.68-.66-.15-.27-.23-.57-.23-.9,0-.29,.05-.55,.14-.78,.1-.23,.24-.43,.44-.6s.46-.31,.78-.41c.24-.08,.52-.15,.84-.21,.32-.06,.67-.12,1.05-.17,.38-.05,.77-.11,1.19-.17l-.48,.27c0-.41-.09-.72-.28-.91s-.51-.29-.95-.29c-.27,0-.53,.06-.78,.19s-.43,.34-.53,.65l-1.22-.38c.15-.51,.43-.91,.84-1.22s.98-.46,1.68-.46c.53,0,1,.09,1.4,.26,.4,.17,.7,.46,.9,.85,.11,.21,.17,.43,.19,.65s.03,.46,.03,.72v3.67h-1.17v-1.3l.19,.21c-.27,.43-.58,.75-.95,.95-.36,.2-.81,.3-1.35,.3Zm.27-1.06c.3,0,.56-.05,.78-.16s.38-.24,.51-.39c.13-.16,.21-.3,.26-.44,.07-.17,.11-.36,.12-.58s.01-.4,.01-.53l.41,.12c-.4,.06-.75,.12-1.04,.17s-.54,.09-.74,.14-.39,.09-.55,.14c-.16,.06-.29,.12-.39,.19-.11,.07-.19,.16-.25,.25-.06,.1-.09,.21-.09,.34,0,.15,.04,.28,.11,.39s.18,.2,.32,.27c.14,.07,.32,.1,.53,.1Z"/><path class="cls-1" d="M562.68,57.74c-.55,0-1.03-.14-1.44-.42-.41-.28-.73-.65-.95-1.13-.23-.48-.34-1.01-.34-1.61s.11-1.15,.34-1.62c.23-.47,.55-.85,.97-1.12,.42-.28,.91-.41,1.47-.41s1.05,.14,1.43,.41c.39,.27,.68,.65,.88,1.13,.2,.48,.3,1.02,.3,1.62s-.1,1.13-.3,1.61c-.2,.48-.5,.86-.89,1.13-.39,.28-.88,.42-1.47,.42Zm.12,2.66c-.33,0-.65-.05-.96-.16s-.58-.25-.82-.45c-.24-.19-.44-.43-.6-.7l1.23-.61c.11,.22,.28,.38,.49,.48,.21,.1,.43,.16,.67,.16,.28,0,.52-.05,.74-.15,.22-.1,.39-.24,.51-.43,.12-.19,.18-.43,.17-.71v-1.7h.17v-4.55h1.17v6.27c0,.15,0,.3-.02,.43-.01,.14-.03,.27-.06,.41-.09,.39-.26,.71-.51,.96-.25,.25-.56,.44-.93,.56-.37,.12-.78,.18-1.23,.18Zm.09-3.86c.36,0,.65-.08,.87-.25,.22-.16,.38-.39,.48-.69s.15-.64,.15-1.02-.05-.73-.15-1.03c-.1-.29-.26-.52-.47-.69-.21-.16-.49-.25-.83-.25-.36,0-.65,.09-.89,.26s-.4,.41-.52,.71c-.11,.3-.17,.63-.17,.99s.05,.7,.16,.99c.11,.3,.28,.53,.5,.71,.23,.17,.51,.26,.86,.26Z"/><path class="cls-1" d="M569.83,57.74c-.61,0-1.14-.13-1.59-.39-.46-.26-.82-.63-1.07-1.09s-.38-1-.38-1.61c0-.65,.12-1.22,.38-1.7,.25-.48,.6-.86,1.05-1.12,.45-.27,.96-.4,1.55-.4,.62,0,1.15,.15,1.58,.44,.43,.29,.76,.7,.97,1.23,.21,.53,.29,1.15,.24,1.87h-1.32v-.49c0-.65-.12-1.12-.34-1.42-.23-.3-.58-.45-1.06-.45-.55,0-.95,.17-1.22,.51-.27,.34-.4,.83-.4,1.48,0,.61,.13,1.07,.4,1.41,.27,.33,.65,.5,1.16,.5,.33,0,.61-.07,.85-.22,.24-.15,.42-.36,.55-.63l1.32,.4c-.23,.54-.58,.96-1.06,1.26-.48,.3-1.01,.45-1.58,.45Zm-2.06-2.79v-1.01h4.12v1.01h-4.12Z"/></g><rect class="cls-7" x="519.04" y="28.06" width="108.91" height="35.06"/><g><path class="cls-1" d="M398.85,41.74c-.58,0-1.11-.1-1.58-.3-.47-.2-.85-.49-1.15-.87-.3-.38-.49-.83-.57-1.35l1.38-.21c.12,.47,.36,.84,.73,1.1,.37,.26,.79,.39,1.27,.39,.28,0,.55-.04,.8-.13,.25-.09,.46-.22,.61-.39s.24-.38,.24-.63c0-.11-.02-.21-.06-.31-.04-.09-.09-.18-.16-.25-.07-.07-.16-.14-.28-.2-.11-.06-.24-.11-.39-.16l-2.06-.61c-.18-.05-.37-.12-.57-.21-.21-.09-.4-.21-.58-.36-.18-.15-.33-.35-.45-.59-.12-.24-.17-.53-.17-.88,0-.51,.13-.94,.39-1.29,.26-.35,.61-.61,1.05-.78,.44-.17,.93-.26,1.47-.25,.55,0,1.03,.1,1.46,.28,.43,.18,.79,.45,1.07,.79s.49,.77,.61,1.26l-1.43,.25c-.06-.28-.17-.52-.34-.72-.17-.2-.37-.35-.62-.45-.24-.1-.5-.16-.77-.17-.27,0-.51,.04-.74,.12-.23,.08-.41,.2-.55,.36s-.21,.34-.21,.54c0,.2,.06,.36,.18,.48,.12,.12,.26,.22,.44,.29,.18,.07,.35,.13,.53,.18l1.43,.4c.2,.05,.42,.12,.66,.21,.24,.09,.48,.21,.7,.37,.23,.16,.41,.37,.56,.63,.15,.26,.22,.59,.22,.99s-.09,.78-.26,1.09c-.17,.31-.4,.57-.7,.78-.29,.21-.62,.36-1,.47-.38,.1-.77,.15-1.18,.15Z"/><path class="cls-1" d="M403.29,34.69v-1.22h1.33v1.22h-1.33Zm0,6.89v-5.98h1.33v5.98h-1.33Z"/><path class="cls-1" d="M408.68,41.74c-.55,0-1.03-.14-1.44-.42-.41-.28-.73-.65-.95-1.13-.23-.48-.34-1.01-.34-1.61s.11-1.15,.34-1.62c.23-.47,.55-.85,.97-1.12,.42-.28,.91-.41,1.47-.41s1.05,.14,1.43,.41c.39,.27,.68,.65,.88,1.13,.2,.48,.3,1.02,.3,1.62s-.1,1.13-.3,1.61c-.2,.48-.5,.86-.89,1.13-.39,.28-.88,.42-1.47,.42Zm.12,2.66c-.33,0-.65-.05-.96-.16s-.58-.25-.82-.45c-.24-.19-.44-.43-.6-.7l1.23-.61c.11,.22,.28,.38,.49,.48,.21,.1,.43,.16,.67,.16,.28,0,.52-.05,.74-.15,.22-.1,.39-.24,.51-.43,.12-.19,.18-.43,.17-.71v-1.7h.17v-4.55h1.17v6.27c0,.15,0,.3-.02,.43-.01,.14-.03,.27-.06,.41-.09,.39-.26,.71-.51,.96-.25,.25-.56,.44-.93,.56-.37,.12-.78,.18-1.23,.18Zm.09-3.86c.36,0,.65-.08,.87-.25,.22-.16,.38-.39,.48-.69s.15-.64,.15-1.02-.05-.73-.15-1.03c-.1-.29-.26-.52-.47-.69-.21-.16-.49-.25-.83-.25-.36,0-.65,.09-.89,.26s-.4,.41-.52,.71c-.11,.3-.17,.63-.17,.99s.05,.7,.16,.99c.11,.3,.28,.53,.5,.71,.23,.17,.51,.26,.86,.26Z"/><path class="cls-1" d="M413.1,41.58v-5.98h1.19v1.86h.16v4.13h-1.35Zm4.15,0v-2.88c0-.19-.01-.4-.04-.63-.03-.23-.09-.45-.18-.66-.09-.21-.23-.39-.42-.52s-.44-.21-.76-.21c-.17,0-.34,.03-.5,.08-.17,.06-.32,.15-.45,.29s-.24,.32-.32,.55c-.08,.23-.12,.53-.12,.9l-.79-.34c0-.51,.1-.97,.3-1.39,.2-.41,.49-.74,.87-.99,.38-.25,.86-.37,1.42-.37,.44,0,.81,.07,1.1,.22,.29,.15,.52,.34,.69,.56s.3,.47,.38,.73c.08,.26,.13,.5,.16,.73,.02,.23,.04,.42,.04,.56v3.34h-1.35Z"/><path class="cls-1" d="M422.68,41.74c-.61,0-1.14-.13-1.59-.39-.46-.26-.82-.63-1.07-1.09s-.38-1-.38-1.61c0-.65,.12-1.22,.38-1.7,.25-.48,.6-.86,1.05-1.12,.45-.27,.96-.4,1.55-.4,.62,0,1.15,.15,1.58,.44,.43,.29,.76,.7,.97,1.23,.21,.53,.29,1.15,.24,1.87h-1.32v-.49c0-.65-.12-1.12-.34-1.42-.23-.3-.58-.45-1.06-.45-.55,0-.95,.17-1.22,.51-.27,.34-.4,.83-.4,1.48,0,.61,.13,1.07,.4,1.41,.27,.33,.65,.5,1.16,.5,.33,0,.61-.07,.85-.22,.24-.15,.42-.36,.55-.63l1.32,.4c-.23,.54-.58,.96-1.06,1.26-.48,.3-1.01,.45-1.58,.45Zm-2.06-2.79v-1.01h4.12v1.01h-4.12Z"/><path class="cls-1" d="M429.03,41.74c-.55,0-1.03-.14-1.44-.42-.41-.28-.73-.65-.95-1.13-.23-.48-.34-1.01-.34-1.61s.11-1.15,.34-1.62c.23-.47,.55-.85,.97-1.12,.42-.28,.91-.41,1.47-.41s1.05,.14,1.43,.41c.39,.27,.68,.65,.88,1.13,.2,.48,.3,1.02,.3,1.62s-.1,1.13-.3,1.61c-.2,.48-.5,.86-.89,1.13-.39,.28-.88,.42-1.47,.42Zm.21-1.2c.36,0,.65-.08,.87-.25,.22-.16,.38-.39,.48-.69s.15-.64,.15-1.02-.05-.73-.15-1.03c-.1-.29-.26-.52-.47-.69-.21-.16-.49-.25-.83-.25-.36,0-.65,.09-.89,.26s-.4,.41-.52,.71c-.11,.3-.17,.63-.17,.99s.05,.7,.16,.99c.11,.3,.28,.53,.5,.71,.23,.17,.51,.26,.86,.26Zm1.5,1.03v-4.2h-.17v-3.78h1.35v7.98h-1.18Z"/><path class="cls-1" d="M433.36,42.99l.08-.58c.17,.01,.3-.01,.4-.09,.1-.07,.17-.17,.2-.3,.04-.13,.04-.28,.03-.45h-.71v-1.42h1.37v1.48c0,.48-.11,.85-.34,1.1-.23,.25-.57,.33-1.02,.26Z"/><path class="cls-1" d="M441.5,41.74c-.61,0-1.14-.13-1.59-.39-.46-.26-.82-.63-1.07-1.09s-.38-1-.38-1.61c0-.65,.12-1.22,.38-1.7,.25-.48,.6-.86,1.05-1.12,.45-.27,.96-.4,1.55-.4,.62,0,1.15,.15,1.58,.44,.43,.29,.76,.7,.97,1.23,.21,.53,.29,1.15,.24,1.87h-1.32v-.49c0-.65-.12-1.12-.34-1.42-.23-.3-.58-.45-1.06-.45-.55,0-.95,.17-1.22,.51-.27,.34-.4,.83-.4,1.48,0,.61,.13,1.07,.4,1.41,.27,.33,.65,.5,1.16,.5,.33,0,.61-.07,.85-.22,.24-.15,.42-.36,.55-.63l1.32,.4c-.23,.54-.58,.96-1.06,1.26-.48,.3-1.01,.45-1.58,.45Zm-2.06-2.79v-1.01h4.12v1.01h-4.12Z"/><path class="cls-1" d="M445.28,41.58v-5.98h1.19v1.86h.16v4.13h-1.35Zm4.15,0v-2.88c0-.19-.01-.4-.04-.63-.03-.23-.09-.45-.18-.66-.09-.21-.23-.39-.42-.52s-.44-.21-.76-.21c-.17,0-.34,.03-.5,.08-.17,.06-.32,.15-.45,.29s-.24,.32-.32,.55c-.08,.23-.12,.53-.12,.9l-.79-.34c0-.51,.1-.97,.3-1.39,.2-.41,.49-.74,.87-.99,.38-.25,.86-.37,1.42-.37,.44,0,.81,.07,1.1,.22,.29,.15,.52,.34,.69,.56s.3,.47,.38,.73c.08,.26,.13,.5,.16,.73,.02,.23,.04,.42,.04,.56v3.34h-1.35Z"/><path class="cls-1" d="M454.73,41.74c-.62,0-1.14-.14-1.58-.41s-.77-.65-1-1.13c-.23-.48-.35-1.02-.35-1.62,0-.61,.12-1.16,.36-1.63s.58-.85,1.02-1.12,.96-.41,1.57-.41c.68,0,1.25,.17,1.73,.51,.47,.34,.78,.81,.92,1.4l-1.33,.36c-.1-.32-.28-.57-.52-.75-.24-.18-.51-.27-.82-.27-.35,0-.63,.08-.86,.25-.22,.16-.39,.39-.5,.68-.11,.29-.16,.61-.16,.98,0,.57,.13,1.03,.38,1.38,.25,.35,.63,.53,1.13,.53,.36,0,.63-.08,.84-.24,.21-.16,.36-.4,.46-.7l1.36,.3c-.18,.61-.51,1.08-.97,1.4-.46,.33-1.03,.49-1.7,.49Z"/><path class="cls-1" d="M458.51,41.58v-5.98h1.18v1.46l-.14-.19c.07-.2,.17-.38,.3-.55,.12-.16,.27-.3,.45-.41,.15-.1,.31-.18,.49-.24,.18-.06,.36-.09,.55-.1,.19-.01,.37,0,.55,.02v1.25c-.18-.05-.38-.07-.61-.05s-.44,.08-.62,.19c-.18,.1-.33,.23-.45,.38s-.2,.33-.26,.53c-.06,.2-.08,.41-.08,.64v3.04h-1.34Z"/><path class="cls-1" d="M463.55,44.24l1.15-3.16,.02,.93-2.61-6.41h1.39l1.85,4.74h-.35l1.8-4.74h1.33l-3.33,8.64h-1.25Z"/><path class="cls-1" d="M468.95,44.24v-8.64h1.18v4.2h.17v4.44h-1.35Zm2.89-2.49c-.58,0-1.07-.14-1.47-.42-.4-.28-.69-.65-.89-1.13-.2-.48-.3-1.01-.3-1.61s.1-1.14,.3-1.62c.2-.48,.49-.85,.88-1.13,.39-.28,.86-.41,1.43-.41s1.06,.14,1.47,.41c.42,.27,.74,.65,.97,1.12,.23,.47,.34,1.01,.34,1.62s-.11,1.14-.34,1.61c-.23,.48-.54,.85-.95,1.13-.41,.28-.89,.42-1.44,.42Zm-.21-1.2c.35,0,.63-.09,.86-.26,.23-.17,.39-.41,.5-.71,.11-.3,.16-.63,.16-.99s-.06-.69-.17-.99c-.11-.3-.28-.53-.52-.71-.23-.18-.53-.26-.89-.26-.34,0-.62,.08-.83,.25-.21,.16-.37,.39-.47,.69-.1,.29-.15,.64-.15,1.03s.05,.73,.15,1.02,.26,.53,.48,.69c.22,.16,.51,.25,.87,.25Z"/><path class="cls-1" d="M475.12,36.64v-1.05h4.17v1.05h-4.17Zm4.17,4.94c-.4,.07-.78,.11-1.16,.1-.38,0-.72-.08-1.02-.21-.3-.13-.53-.34-.68-.62-.14-.26-.21-.52-.22-.79,0-.27-.01-.57-.01-.91v-5.2h1.33v5.12c0,.24,0,.45,0,.63,0,.18,.04,.33,.11,.44,.13,.22,.35,.35,.64,.37,.29,.03,.62,.01,1-.04v1.12Z"/><path class="cls-1" d="M483.01,41.74c-.61,0-1.14-.13-1.59-.39-.46-.26-.82-.63-1.07-1.09s-.38-1-.38-1.61c0-.65,.12-1.22,.38-1.7,.25-.48,.6-.86,1.05-1.12,.45-.27,.96-.4,1.55-.4,.62,0,1.15,.15,1.58,.44,.43,.29,.76,.7,.97,1.23,.21,.53,.29,1.15,.24,1.87h-1.32v-.49c0-.65-.12-1.12-.34-1.42-.23-.3-.58-.45-1.06-.45-.55,0-.95,.17-1.22,.51-.27,.34-.4,.83-.4,1.48,0,.61,.13,1.07,.4,1.41,.27,.33,.65,.5,1.16,.5,.33,0,.61-.07,.85-.22,.24-.15,.42-.36,.55-.63l1.32,.4c-.23,.54-.58,.96-1.06,1.26-.48,.3-1.01,.45-1.58,.45Zm-2.06-2.79v-1.01h4.12v1.01h-4.12Z"/><path class="cls-1" d="M489.35,41.74c-.55,0-1.03-.14-1.44-.42-.41-.28-.73-.65-.95-1.13-.23-.48-.34-1.01-.34-1.61s.11-1.15,.34-1.62c.23-.47,.55-.85,.97-1.12,.42-.28,.91-.41,1.47-.41s1.05,.14,1.43,.41c.39,.27,.68,.65,.88,1.13,.2,.48,.3,1.02,.3,1.62s-.1,1.13-.3,1.61c-.2,.48-.5,.86-.89,1.13-.39,.28-.88,.42-1.47,.42Zm.21-1.2c.36,0,.65-.08,.87-.25,.22-.16,.38-.39,.48-.69s.15-.64,.15-1.02-.05-.73-.15-1.03c-.1-.29-.26-.52-.47-.69-.21-.16-.49-.25-.83-.25-.36,0-.65,.09-.89,.26s-.4,.41-.52,.71c-.11,.3-.17,.63-.17,.99s.05,.7,.16,.99c.11,.3,.28,.53,.5,.71,.23,.17,.51,.26,.86,.26Zm1.5,1.03v-4.2h-.17v-3.78h1.35v7.98h-1.18Z"/></g><g><path class="cls-1" d="M395.88,57.58v-5.98h1.18v1.86h.17v4.13h-1.35Zm3.61,0v-3.62c0-.42-.1-.74-.3-.98-.2-.23-.48-.35-.83-.35s-.61,.12-.82,.35c-.21,.23-.31,.54-.31,.91l-.6-.4c0-.39,.1-.74,.29-1.05,.19-.31,.45-.55,.78-.73,.33-.18,.69-.27,1.1-.27,.45,0,.82,.1,1.12,.29,.3,.19,.53,.45,.68,.78s.22,.7,.22,1.1v3.97h-1.33Zm3.59,0v-3.63c0-.41-.1-.73-.3-.96-.2-.23-.48-.35-.83-.35-.21,0-.41,.05-.58,.15-.17,.1-.3,.24-.4,.43-.1,.19-.15,.42-.15,.68l-.59-.35c0-.41,.09-.78,.28-1.09,.19-.32,.45-.56,.77-.74,.32-.18,.69-.27,1.08-.27,.66,0,1.17,.2,1.52,.6,.35,.4,.53,.92,.53,1.56v3.97h-1.33Z"/><path class="cls-1" d="M408.49,57.74c-.61,0-1.14-.13-1.59-.39-.46-.26-.82-.63-1.07-1.09s-.38-1-.38-1.61c0-.65,.12-1.22,.38-1.7,.25-.48,.6-.86,1.05-1.12,.45-.27,.96-.4,1.55-.4,.62,0,1.15,.15,1.58,.44,.43,.29,.76,.7,.97,1.23,.21,.53,.29,1.15,.24,1.87h-1.32v-.49c0-.65-.12-1.12-.34-1.42-.23-.3-.58-.45-1.06-.45-.55,0-.95,.17-1.22,.51-.27,.34-.4,.83-.4,1.48,0,.61,.13,1.07,.4,1.41,.27,.33,.65,.5,1.16,.5,.33,0,.61-.07,.85-.22,.24-.15,.42-.36,.55-.63l1.32,.4c-.23,.54-.58,.96-1.06,1.26-.48,.3-1.01,.45-1.58,.45Zm-2.06-2.79v-1.01h4.12v1.01h-4.12Z"/><path class="cls-1" d="M414.74,57.74c-.74,0-1.34-.17-1.8-.5-.46-.33-.74-.8-.84-1.4l1.36-.21c.07,.3,.23,.53,.47,.7,.24,.17,.54,.25,.91,.25,.32,0,.57-.06,.75-.19,.17-.13,.26-.3,.26-.52,0-.14-.03-.25-.1-.33s-.21-.16-.42-.24-.55-.18-1-.29c-.5-.13-.9-.28-1.2-.43-.29-.15-.51-.34-.64-.55-.13-.21-.19-.47-.19-.76,0-.37,.1-.7,.29-.98,.2-.28,.47-.49,.82-.64,.35-.15,.76-.22,1.24-.22s.88,.07,1.24,.22,.65,.35,.87,.61c.22,.27,.36,.58,.41,.94l-1.36,.24c-.03-.25-.15-.46-.35-.6-.2-.15-.46-.23-.79-.25-.31-.02-.57,.03-.76,.14-.19,.11-.29,.27-.29,.47,0,.11,.04,.21,.12,.29,.08,.08,.23,.16,.47,.24,.23,.08,.58,.18,1.05,.3,.48,.12,.86,.26,1.14,.42,.29,.16,.49,.34,.62,.56,.13,.22,.19,.48,.19,.79,0,.6-.22,1.07-.66,1.42-.44,.34-1.04,.52-1.81,.52Z"/><path class="cls-1" d="M420.74,57.74c-.74,0-1.34-.17-1.8-.5-.46-.33-.74-.8-.84-1.4l1.36-.21c.07,.3,.23,.53,.47,.7,.24,.17,.54,.25,.91,.25,.32,0,.57-.06,.75-.19,.17-.13,.26-.3,.26-.52,0-.14-.03-.25-.1-.33s-.21-.16-.42-.24-.55-.18-1-.29c-.5-.13-.9-.28-1.2-.43-.29-.15-.51-.34-.64-.55-.13-.21-.19-.47-.19-.76,0-.37,.1-.7,.29-.98,.2-.28,.47-.49,.82-.64,.35-.15,.76-.22,1.24-.22s.88,.07,1.24,.22,.65,.35,.87,.61c.22,.27,.36,.58,.41,.94l-1.36,.24c-.03-.25-.15-.46-.35-.6-.2-.15-.46-.23-.79-.25-.31-.02-.57,.03-.76,.14-.19,.11-.29,.27-.29,.47,0,.11,.04,.21,.12,.29,.08,.08,.23,.16,.47,.24,.23,.08,.58,.18,1.05,.3,.48,.12,.86,.26,1.14,.42,.29,.16,.49,.34,.62,.56,.13,.22,.19,.48,.19,.79,0,.6-.22,1.07-.66,1.42-.44,.34-1.04,.52-1.81,.52Z"/><path class="cls-1" d="M426.11,57.74c-.43,0-.8-.08-1.1-.25-.3-.16-.53-.38-.68-.66-.15-.27-.23-.57-.23-.9,0-.29,.05-.55,.14-.78,.1-.23,.24-.43,.44-.6s.46-.31,.78-.41c.24-.08,.52-.15,.84-.21,.32-.06,.67-.12,1.05-.17,.38-.05,.77-.11,1.19-.17l-.48,.27c0-.41-.09-.72-.28-.91s-.51-.29-.95-.29c-.27,0-.53,.06-.78,.19s-.43,.34-.53,.65l-1.22-.38c.15-.51,.43-.91,.84-1.22s.98-.46,1.68-.46c.53,0,1,.09,1.4,.26,.4,.17,.7,.46,.9,.85,.11,.21,.17,.43,.19,.65s.03,.46,.03,.72v3.67h-1.17v-1.3l.19,.21c-.27,.43-.58,.75-.95,.95-.36,.2-.81,.3-1.35,.3Zm.27-1.06c.3,0,.56-.05,.78-.16s.38-.24,.51-.39c.13-.16,.21-.3,.26-.44,.07-.17,.11-.36,.12-.58s.01-.4,.01-.53l.41,.12c-.4,.06-.75,.12-1.04,.17s-.54,.09-.74,.14-.39,.09-.55,.14c-.16,.06-.29,.12-.39,.19-.11,.07-.19,.16-.25,.25-.06,.1-.09,.21-.09,.34,0,.15,.04,.28,.11,.39s.18,.2,.32,.27c.14,.07,.32,.1,.53,.1Z"/><path class="cls-1" d="M433.21,57.74c-.55,0-1.03-.14-1.44-.42-.41-.28-.73-.65-.95-1.13-.23-.48-.34-1.01-.34-1.61s.11-1.15,.34-1.62c.23-.47,.55-.85,.97-1.12,.42-.28,.91-.41,1.47-.41s1.05,.14,1.43,.41c.39,.27,.68,.65,.88,1.13,.2,.48,.3,1.02,.3,1.62s-.1,1.13-.3,1.61c-.2,.48-.5,.86-.89,1.13-.39,.28-.88,.42-1.47,.42Zm.12,2.66c-.33,0-.65-.05-.96-.16s-.58-.25-.82-.45c-.24-.19-.44-.43-.6-.7l1.23-.61c.11,.22,.28,.38,.49,.48,.21,.1,.43,.16,.67,.16,.28,0,.52-.05,.74-.15,.22-.1,.39-.24,.51-.43,.12-.19,.18-.43,.17-.71v-1.7h.17v-4.55h1.17v6.27c0,.15,0,.3-.02,.43-.01,.14-.03,.27-.06,.41-.09,.39-.26,.71-.51,.96-.25,.25-.56,.44-.93,.56-.37,.12-.78,.18-1.23,.18Zm.09-3.86c.36,0,.65-.08,.87-.25,.22-.16,.38-.39,.48-.69s.15-.64,.15-1.02-.05-.73-.15-1.03c-.1-.29-.26-.52-.47-.69-.21-.16-.49-.25-.83-.25-.36,0-.65,.09-.89,.26s-.4,.41-.52,.71c-.11,.3-.17,.63-.17,.99s.05,.7,.16,.99c.11,.3,.28,.53,.5,.71,.23,.17,.51,.26,.86,.26Z"/><path class="cls-1" d="M440.36,57.74c-.61,0-1.14-.13-1.59-.39-.46-.26-.82-.63-1.07-1.09s-.38-1-.38-1.61c0-.65,.12-1.22,.38-1.7,.25-.48,.6-.86,1.05-1.12,.45-.27,.96-.4,1.55-.4,.62,0,1.15,.15,1.58,.44,.43,.29,.76,.7,.97,1.23,.21,.53,.29,1.15,.24,1.87h-1.32v-.49c0-.65-.12-1.12-.34-1.42-.23-.3-.58-.45-1.06-.45-.55,0-.95,.17-1.22,.51-.27,.34-.4,.83-.4,1.48,0,.61,.13,1.07,.4,1.41,.27,.33,.65,.5,1.16,.5,.33,0,.61-.07,.85-.22,.24-.15,.42-.36,.55-.63l1.32,.4c-.23,.54-.58,.96-1.06,1.26-.48,.3-1.01,.45-1.58,.45Zm-2.06-2.79v-1.01h4.12v1.01h-4.12Z"/></g><rect class="cls-7" x="389.58" y="28.06" width="108.91" height="35.06"/><g><path class="cls-1" d="M269.38,41.74c-.58,0-1.11-.1-1.58-.3-.47-.2-.85-.49-1.15-.87-.3-.38-.49-.83-.57-1.35l1.38-.21c.12,.47,.36,.84,.73,1.1,.37,.26,.79,.39,1.27,.39,.28,0,.55-.04,.8-.13,.25-.09,.46-.22,.61-.39s.24-.38,.24-.63c0-.11-.02-.21-.06-.31-.04-.09-.09-.18-.16-.25-.07-.07-.16-.14-.28-.2-.11-.06-.24-.11-.39-.16l-2.06-.61c-.18-.05-.37-.12-.57-.21-.21-.09-.4-.21-.58-.36-.18-.15-.33-.35-.45-.59-.12-.24-.17-.53-.17-.88,0-.51,.13-.94,.39-1.29,.26-.35,.61-.61,1.05-.78,.44-.17,.93-.26,1.47-.25,.55,0,1.03,.1,1.46,.28,.43,.18,.79,.45,1.07,.79s.49,.77,.61,1.26l-1.43,.25c-.06-.28-.17-.52-.34-.72-.17-.2-.37-.35-.62-.45-.24-.1-.5-.16-.77-.17-.27,0-.51,.04-.74,.12-.23,.08-.41,.2-.55,.36s-.21,.34-.21,.54c0,.2,.06,.36,.18,.48,.12,.12,.26,.22,.44,.29,.18,.07,.35,.13,.53,.18l1.43,.4c.2,.05,.42,.12,.66,.21,.24,.09,.48,.21,.7,.37,.23,.16,.41,.37,.56,.63,.15,.26,.22,.59,.22,.99s-.09,.78-.26,1.09c-.17,.31-.4,.57-.7,.78-.29,.21-.62,.36-1,.47-.38,.1-.77,.15-1.18,.15Z"/><path class="cls-1" d="M273.82,34.69v-1.22h1.33v1.22h-1.33Zm0,6.89v-5.98h1.33v5.98h-1.33Z"/><path class="cls-1" d="M279.22,41.74c-.55,0-1.03-.14-1.44-.42-.41-.28-.73-.65-.95-1.13-.23-.48-.34-1.01-.34-1.61s.11-1.15,.34-1.62c.23-.47,.55-.85,.97-1.12,.42-.28,.91-.41,1.47-.41s1.05,.14,1.43,.41c.39,.27,.68,.65,.88,1.13,.2,.48,.3,1.02,.3,1.62s-.1,1.13-.3,1.61c-.2,.48-.5,.86-.89,1.13-.39,.28-.88,.42-1.47,.42Zm.12,2.66c-.33,0-.65-.05-.96-.16s-.58-.25-.82-.45c-.24-.19-.44-.43-.6-.7l1.23-.61c.11,.22,.28,.38,.49,.48,.21,.1,.43,.16,.67,.16,.28,0,.52-.05,.74-.15,.22-.1,.39-.24,.51-.43,.12-.19,.18-.43,.17-.71v-1.7h.17v-4.55h1.17v6.27c0,.15,0,.3-.02,.43-.01,.14-.03,.27-.06,.41-.09,.39-.26,.71-.51,.96-.25,.25-.56,.44-.93,.56-.37,.12-.78,.18-1.23,.18Zm.09-3.86c.36,0,.65-.08,.87-.25,.22-.16,.38-.39,.48-.69s.15-.64,.15-1.02-.05-.73-.15-1.03c-.1-.29-.26-.52-.47-.69-.21-.16-.49-.25-.83-.25-.36,0-.65,.09-.89,.26s-.4,.41-.52,.71c-.11,.3-.17,.63-.17,.99s.05,.7,.16,.99c.11,.3,.28,.53,.5,.71,.23,.17,.51,.26,.86,.26Z"/><path class="cls-1" d="M283.63,41.58v-5.98h1.19v1.86h.16v4.13h-1.35Zm4.15,0v-2.88c0-.19-.01-.4-.04-.63-.03-.23-.09-.45-.18-.66-.09-.21-.23-.39-.42-.52s-.44-.21-.76-.21c-.17,0-.34,.03-.5,.08-.17,.06-.32,.15-.45,.29s-.24,.32-.32,.55c-.08,.23-.12,.53-.12,.9l-.79-.34c0-.51,.1-.97,.3-1.39,.2-.41,.49-.74,.87-.99,.38-.25,.86-.37,1.42-.37,.44,0,.81,.07,1.1,.22,.29,.15,.52,.34,.69,.56s.3,.47,.38,.73c.08,.26,.13,.5,.16,.73,.02,.23,.04,.42,.04,.56v3.34h-1.35Z"/><path class="cls-1" d="M293.22,41.74c-.61,0-1.14-.13-1.59-.39-.46-.26-.82-.63-1.07-1.09s-.38-1-.38-1.61c0-.65,.12-1.22,.38-1.7,.25-.48,.6-.86,1.05-1.12,.45-.27,.96-.4,1.55-.4,.62,0,1.15,.15,1.58,.44,.43,.29,.76,.7,.97,1.23,.21,.53,.29,1.15,.24,1.87h-1.32v-.49c0-.65-.12-1.12-.34-1.42-.23-.3-.58-.45-1.06-.45-.55,0-.95,.17-1.22,.51-.27,.34-.4,.83-.4,1.48,0,.61,.13,1.07,.4,1.41,.27,.33,.65,.5,1.16,.5,.33,0,.61-.07,.85-.22,.24-.15,.42-.36,.55-.63l1.32,.4c-.23,.54-.58,.96-1.06,1.26-.48,.3-1.01,.45-1.58,.45Zm-2.06-2.79v-1.01h4.12v1.01h-4.12Z"/><path class="cls-1" d="M299.56,41.74c-.55,0-1.03-.14-1.44-.42-.41-.28-.73-.65-.95-1.13-.23-.48-.34-1.01-.34-1.61s.11-1.15,.34-1.62c.23-.47,.55-.85,.97-1.12,.42-.28,.91-.41,1.47-.41s1.05,.14,1.43,.41c.39,.27,.68,.65,.88,1.13,.2,.48,.3,1.02,.3,1.62s-.1,1.13-.3,1.61c-.2,.48-.5,.86-.89,1.13-.39,.28-.88,.42-1.47,.42Zm.21-1.2c.36,0,.65-.08,.87-.25,.22-.16,.38-.39,.48-.69s.15-.64,.15-1.02-.05-.73-.15-1.03c-.1-.29-.26-.52-.47-.69-.21-.16-.49-.25-.83-.25-.36,0-.65,.09-.89,.26s-.4,.41-.52,.71c-.11,.3-.17,.63-.17,.99s.05,.7,.16,.99c.11,.3,.28,.53,.5,.71,.23,.17,.51,.26,.86,.26Zm1.5,1.03v-4.2h-.17v-3.78h1.35v7.98h-1.18Z"/><path class="cls-1" d="M303.89,42.99l.08-.58c.17,.01,.3-.01,.4-.09,.1-.07,.17-.17,.2-.3,.04-.13,.04-.28,.03-.45h-.71v-1.42h1.37v1.48c0,.48-.11,.85-.34,1.1-.23,.25-.57,.33-1.02,.26Z"/><path class="cls-1" d="M312.03,41.74c-.61,0-1.14-.13-1.59-.39-.46-.26-.82-.63-1.07-1.09s-.38-1-.38-1.61c0-.65,.12-1.22,.38-1.7,.25-.48,.6-.86,1.05-1.12,.45-.27,.96-.4,1.55-.4,.62,0,1.15,.15,1.58,.44,.43,.29,.76,.7,.97,1.23,.21,.53,.29,1.15,.24,1.87h-1.32v-.49c0-.65-.12-1.12-.34-1.42-.23-.3-.58-.45-1.06-.45-.55,0-.95,.17-1.22,.51-.27,.34-.4,.83-.4,1.48,0,.61,.13,1.07,.4,1.41,.27,.33,.65,.5,1.16,.5,.33,0,.61-.07,.85-.22,.24-.15,.42-.36,.55-.63l1.32,.4c-.23,.54-.58,.96-1.06,1.26-.48,.3-1.01,.45-1.58,.45Zm-2.06-2.79v-1.01h4.12v1.01h-4.12Z"/><path class="cls-1" d="M315.82,41.58v-5.98h1.19v1.86h.16v4.13h-1.35Zm4.15,0v-2.88c0-.19-.01-.4-.04-.63-.03-.23-.09-.45-.18-.66-.09-.21-.23-.39-.42-.52s-.44-.21-.76-.21c-.17,0-.34,.03-.5,.08-.17,.06-.32,.15-.45,.29s-.24,.32-.32,.55c-.08,.23-.12,.53-.12,.9l-.79-.34c0-.51,.1-.97,.3-1.39,.2-.41,.49-.74,.87-.99,.38-.25,.86-.37,1.42-.37,.44,0,.81,.07,1.1,.22,.29,.15,.52,.34,.69,.56s.3,.47,.38,.73c.08,.26,.13,.5,.16,.73,.02,.23,.04,.42,.04,.56v3.34h-1.35Z"/><path class="cls-1" d="M325.27,41.74c-.62,0-1.14-.14-1.58-.41s-.77-.65-1-1.13c-.23-.48-.35-1.02-.35-1.62,0-.61,.12-1.16,.36-1.63s.58-.85,1.02-1.12,.96-.41,1.57-.41c.68,0,1.25,.17,1.73,.51,.47,.34,.78,.81,.92,1.4l-1.33,.36c-.1-.32-.28-.57-.52-.75-.24-.18-.51-.27-.82-.27-.35,0-.63,.08-.86,.25-.22,.16-.39,.39-.5,.68-.11,.29-.16,.61-.16,.98,0,.57,.13,1.03,.38,1.38,.25,.35,.63,.53,1.13,.53,.36,0,.63-.08,.84-.24,.21-.16,.36-.4,.46-.7l1.36,.3c-.18,.61-.51,1.08-.97,1.4-.46,.33-1.03,.49-1.7,.49Z"/><path class="cls-1" d="M329.04,41.58v-5.98h1.18v1.46l-.14-.19c.07-.2,.17-.38,.3-.55,.12-.16,.27-.3,.45-.41,.15-.1,.31-.18,.49-.24,.18-.06,.36-.09,.55-.1,.19-.01,.37,0,.55,.02v1.25c-.18-.05-.38-.07-.61-.05s-.44,.08-.62,.19c-.18,.1-.33,.23-.45,.38s-.2,.33-.26,.53c-.06,.2-.08,.41-.08,.64v3.04h-1.34Z"/><path class="cls-1" d="M334.08,44.24l1.15-3.16,.02,.93-2.61-6.41h1.39l1.85,4.74h-.35l1.8-4.74h1.33l-3.33,8.64h-1.25Z"/><path class="cls-1" d="M339.49,44.24v-8.64h1.18v4.2h.17v4.44h-1.35Zm2.89-2.49c-.58,0-1.07-.14-1.47-.42-.4-.28-.69-.65-.89-1.13-.2-.48-.3-1.01-.3-1.61s.1-1.14,.3-1.62c.2-.48,.49-.85,.88-1.13,.39-.28,.86-.41,1.43-.41s1.06,.14,1.47,.41c.42,.27,.74,.65,.97,1.12,.23,.47,.34,1.01,.34,1.62s-.11,1.14-.34,1.61c-.23,.48-.54,.85-.95,1.13-.41,.28-.89,.42-1.44,.42Zm-.21-1.2c.35,0,.63-.09,.86-.26,.23-.17,.39-.41,.5-.71,.11-.3,.16-.63,.16-.99s-.06-.69-.17-.99c-.11-.3-.28-.53-.52-.71-.23-.18-.53-.26-.89-.26-.34,0-.62,.08-.83,.25-.21,.16-.37,.39-.47,.69-.1,.29-.15,.64-.15,1.03s.05,.73,.15,1.02,.26,.53,.48,.69c.22,.16,.51,.25,.87,.25Z"/><path class="cls-1" d="M345.66,36.64v-1.05h4.17v1.05h-4.17Zm4.17,4.94c-.4,.07-.78,.11-1.16,.1-.38,0-.72-.08-1.02-.21-.3-.13-.53-.34-.68-.62-.14-.26-.21-.52-.22-.79,0-.27-.01-.57-.01-.91v-5.2h1.33v5.12c0,.24,0,.45,0,.63,0,.18,.04,.33,.11,.44,.13,.22,.35,.35,.64,.37,.29,.03,.62,.01,1-.04v1.12Z"/><path class="cls-1" d="M353.54,41.74c-.61,0-1.14-.13-1.59-.39-.46-.26-.82-.63-1.07-1.09s-.38-1-.38-1.61c0-.65,.12-1.22,.38-1.7,.25-.48,.6-.86,1.05-1.12,.45-.27,.96-.4,1.55-.4,.62,0,1.15,.15,1.58,.44,.43,.29,.76,.7,.97,1.23,.21,.53,.29,1.15,.24,1.87h-1.32v-.49c0-.65-.12-1.12-.34-1.42-.23-.3-.58-.45-1.06-.45-.55,0-.95,.17-1.22,.51-.27,.34-.4,.83-.4,1.48,0,.61,.13,1.07,.4,1.41,.27,.33,.65,.5,1.16,.5,.33,0,.61-.07,.85-.22,.24-.15,.42-.36,.55-.63l1.32,.4c-.23,.54-.58,.96-1.06,1.26-.48,.3-1.01,.45-1.58,.45Zm-2.06-2.79v-1.01h4.12v1.01h-4.12Z"/><path class="cls-1" d="M359.89,41.74c-.55,0-1.03-.14-1.44-.42-.41-.28-.73-.65-.95-1.13-.23-.48-.34-1.01-.34-1.61s.11-1.15,.34-1.62c.23-.47,.55-.85,.97-1.12,.42-.28,.91-.41,1.47-.41s1.05,.14,1.43,.41c.39,.27,.68,.65,.88,1.13,.2,.48,.3,1.02,.3,1.62s-.1,1.13-.3,1.61c-.2,.48-.5,.86-.89,1.13-.39,.28-.88,.42-1.47,.42Zm.21-1.2c.36,0,.65-.08,.87-.25,.22-.16,.38-.39,.48-.69s.15-.64,.15-1.02-.05-.73-.15-1.03c-.1-.29-.26-.52-.47-.69-.21-.16-.49-.25-.83-.25-.36,0-.65,.09-.89,.26s-.4,.41-.52,.71c-.11,.3-.17,.63-.17,.99s.05,.7,.16,.99c.11,.3,.28,.53,.5,.71,.23,.17,.51,.26,.86,.26Zm1.5,1.03v-4.2h-.17v-3.78h1.35v7.98h-1.18Z"/></g><g><path class="cls-1" d="M266.42,57.58v-5.98h1.18v1.86h.17v4.13h-1.35Zm3.61,0v-3.62c0-.42-.1-.74-.3-.98-.2-.23-.48-.35-.83-.35s-.61,.12-.82,.35c-.21,.23-.31,.54-.31,.91l-.6-.4c0-.39,.1-.74,.29-1.05,.19-.31,.45-.55,.78-.73,.33-.18,.69-.27,1.1-.27,.45,0,.82,.1,1.12,.29,.3,.19,.53,.45,.68,.78s.22,.7,.22,1.1v3.97h-1.33Zm3.59,0v-3.63c0-.41-.1-.73-.3-.96-.2-.23-.48-.35-.83-.35-.21,0-.41,.05-.58,.15-.17,.1-.3,.24-.4,.43-.1,.19-.15,.42-.15,.68l-.59-.35c0-.41,.09-.78,.28-1.09,.19-.32,.45-.56,.77-.74,.32-.18,.69-.27,1.08-.27,.66,0,1.17,.2,1.52,.6,.35,.4,.53,.92,.53,1.56v3.97h-1.33Z"/><path class="cls-1" d="M279.02,57.74c-.61,0-1.14-.13-1.59-.39-.46-.26-.82-.63-1.07-1.09s-.38-1-.38-1.61c0-.65,.12-1.22,.38-1.7,.25-.48,.6-.86,1.05-1.12,.45-.27,.96-.4,1.55-.4,.62,0,1.15,.15,1.58,.44,.43,.29,.76,.7,.97,1.23,.21,.53,.29,1.15,.24,1.87h-1.32v-.49c0-.65-.12-1.12-.34-1.42-.23-.3-.58-.45-1.06-.45-.55,0-.95,.17-1.22,.51-.27,.34-.4,.83-.4,1.48,0,.61,.13,1.07,.4,1.41,.27,.33,.65,.5,1.16,.5,.33,0,.61-.07,.85-.22,.24-.15,.42-.36,.55-.63l1.32,.4c-.23,.54-.58,.96-1.06,1.26-.48,.3-1.01,.45-1.58,.45Zm-2.06-2.79v-1.01h4.12v1.01h-4.12Z"/><path class="cls-1" d="M285.28,57.74c-.74,0-1.34-.17-1.8-.5-.46-.33-.74-.8-.84-1.4l1.36-.21c.07,.3,.23,.53,.47,.7,.24,.17,.54,.25,.91,.25,.32,0,.57-.06,.75-.19,.17-.13,.26-.3,.26-.52,0-.14-.03-.25-.1-.33s-.21-.16-.42-.24-.55-.18-1-.29c-.5-.13-.9-.28-1.2-.43-.29-.15-.51-.34-.64-.55-.13-.21-.19-.47-.19-.76,0-.37,.1-.7,.29-.98,.2-.28,.47-.49,.82-.64,.35-.15,.76-.22,1.24-.22s.88,.07,1.24,.22,.65,.35,.87,.61c.22,.27,.36,.58,.41,.94l-1.36,.24c-.03-.25-.15-.46-.35-.6-.2-.15-.46-.23-.79-.25-.31-.02-.57,.03-.76,.14-.19,.11-.29,.27-.29,.47,0,.11,.04,.21,.12,.29,.08,.08,.23,.16,.47,.24,.23,.08,.58,.18,1.05,.3,.48,.12,.86,.26,1.14,.42,.29,.16,.49,.34,.62,.56,.13,.22,.19,.48,.19,.79,0,.6-.22,1.07-.66,1.42-.44,.34-1.04,.52-1.81,.52Z"/><path class="cls-1" d="M291.28,57.74c-.74,0-1.34-.17-1.8-.5-.46-.33-.74-.8-.84-1.4l1.36-.21c.07,.3,.23,.53,.47,.7,.24,.17,.54,.25,.91,.25,.32,0,.57-.06,.75-.19,.17-.13,.26-.3,.26-.52,0-.14-.03-.25-.1-.33s-.21-.16-.42-.24-.55-.18-1-.29c-.5-.13-.9-.28-1.2-.43-.29-.15-.51-.34-.64-.55-.13-.21-.19-.47-.19-.76,0-.37,.1-.7,.29-.98,.2-.28,.47-.49,.82-.64,.35-.15,.76-.22,1.24-.22s.88,.07,1.24,.22,.65,.35,.87,.61c.22,.27,.36,.58,.41,.94l-1.36,.24c-.03-.25-.15-.46-.35-.6-.2-.15-.46-.23-.79-.25-.31-.02-.57,.03-.76,.14-.19,.11-.29,.27-.29,.47,0,.11,.04,.21,.12,.29,.08,.08,.23,.16,.47,.24,.23,.08,.58,.18,1.05,.3,.48,.12,.86,.26,1.14,.42,.29,.16,.49,.34,.62,.56,.13,.22,.19,.48,.19,.79,0,.6-.22,1.07-.66,1.42-.44,.34-1.04,.52-1.81,.52Z"/><path class="cls-1" d="M296.64,57.74c-.43,0-.8-.08-1.1-.25-.3-.16-.53-.38-.68-.66-.15-.27-.23-.57-.23-.9,0-.29,.05-.55,.14-.78,.1-.23,.24-.43,.44-.6s.46-.31,.78-.41c.24-.08,.52-.15,.84-.21,.32-.06,.67-.12,1.05-.17,.38-.05,.77-.11,1.19-.17l-.48,.27c0-.41-.09-.72-.28-.91s-.51-.29-.95-.29c-.27,0-.53,.06-.78,.19s-.43,.34-.53,.65l-1.22-.38c.15-.51,.43-.91,.84-1.22s.98-.46,1.68-.46c.53,0,1,.09,1.4,.26,.4,.17,.7,.46,.9,.85,.11,.21,.17,.43,.19,.65s.03,.46,.03,.72v3.67h-1.17v-1.3l.19,.21c-.27,.43-.58,.75-.95,.95-.36,.2-.81,.3-1.35,.3Zm.27-1.06c.3,0,.56-.05,.78-.16s.38-.24,.51-.39c.13-.16,.21-.3,.26-.44,.07-.17,.11-.36,.12-.58s.01-.4,.01-.53l.41,.12c-.4,.06-.75,.12-1.04,.17s-.54,.09-.74,.14-.39,.09-.55,.14c-.16,.06-.29,.12-.39,.19-.11,.07-.19,.16-.25,.25-.06,.1-.09,.21-.09,.34,0,.15,.04,.28,.11,.39s.18,.2,.32,.27c.14,.07,.32,.1,.53,.1Z"/><path class="cls-1" d="M303.75,57.74c-.55,0-1.03-.14-1.44-.42-.41-.28-.73-.65-.95-1.13-.23-.48-.34-1.01-.34-1.61s.11-1.15,.34-1.62c.23-.47,.55-.85,.97-1.12,.42-.28,.91-.41,1.47-.41s1.05,.14,1.43,.41c.39,.27,.68,.65,.88,1.13,.2,.48,.3,1.02,.3,1.62s-.1,1.13-.3,1.61c-.2,.48-.5,.86-.89,1.13-.39,.28-.88,.42-1.47,.42Zm.12,2.66c-.33,0-.65-.05-.96-.16s-.58-.25-.82-.45c-.24-.19-.44-.43-.6-.7l1.23-.61c.11,.22,.28,.38,.49,.48,.21,.1,.43,.16,.67,.16,.28,0,.52-.05,.74-.15,.22-.1,.39-.24,.51-.43,.12-.19,.18-.43,.17-.71v-1.7h.17v-4.55h1.17v6.27c0,.15,0,.3-.02,.43-.01,.14-.03,.27-.06,.41-.09,.39-.26,.71-.51,.96-.25,.25-.56,.44-.93,.56-.37,.12-.78,.18-1.23,.18Zm.09-3.86c.36,0,.65-.08,.87-.25,.22-.16,.38-.39,.48-.69s.15-.64,.15-1.02-.05-.73-.15-1.03c-.1-.29-.26-.52-.47-.69-.21-.16-.49-.25-.83-.25-.36,0-.65,.09-.89,.26s-.4,.41-.52,.71c-.11,.3-.17,.63-.17,.99s.05,.7,.16,.99c.11,.3,.28,.53,.5,.71,.23,.17,.51,.26,.86,.26Z"/><path class="cls-1" d="M310.89,57.74c-.61,0-1.14-.13-1.59-.39-.46-.26-.82-.63-1.07-1.09s-.38-1-.38-1.61c0-.65,.12-1.22,.38-1.7,.25-.48,.6-.86,1.05-1.12,.45-.27,.96-.4,1.55-.4,.62,0,1.15,.15,1.58,.44,.43,.29,.76,.7,.97,1.23,.21,.53,.29,1.15,.24,1.87h-1.32v-.49c0-.65-.12-1.12-.34-1.42-.23-.3-.58-.45-1.06-.45-.55,0-.95,.17-1.22,.51-.27,.34-.4,.83-.4,1.48,0,.61,.13,1.07,.4,1.41,.27,.33,.65,.5,1.16,.5,.33,0,.61-.07,.85-.22,.24-.15,.42-.36,.55-.63l1.32,.4c-.23,.54-.58,.96-1.06,1.26-.48,.3-1.01,.45-1.58,.45Zm-2.06-2.79v-1.01h4.12v1.01h-4.12Z"/></g><rect class="cls-7" x="260.11" y="28.06" width="108.91" height="35.06"/><g><path class="cls-1" d="M139.91,41.74c-.58,0-1.11-.1-1.58-.3-.47-.2-.85-.49-1.15-.87-.3-.38-.49-.83-.57-1.35l1.38-.21c.12,.47,.36,.84,.73,1.1,.37,.26,.79,.39,1.27,.39,.28,0,.55-.04,.8-.13,.25-.09,.46-.22,.61-.39s.24-.38,.24-.63c0-.11-.02-.21-.06-.31-.04-.09-.09-.18-.16-.25-.07-.07-.16-.14-.28-.2-.11-.06-.24-.11-.39-.16l-2.06-.61c-.18-.05-.37-.12-.57-.21-.21-.09-.4-.21-.58-.36-.18-.15-.33-.35-.45-.59-.12-.24-.17-.53-.17-.88,0-.51,.13-.94,.39-1.29,.26-.35,.61-.61,1.05-.78,.44-.17,.93-.26,1.47-.25,.55,0,1.03,.1,1.46,.28,.43,.18,.79,.45,1.07,.79s.49,.77,.61,1.26l-1.43,.25c-.06-.28-.17-.52-.34-.72-.17-.2-.37-.35-.62-.45-.24-.1-.5-.16-.77-.17-.27,0-.51,.04-.74,.12-.23,.08-.41,.2-.55,.36s-.21,.34-.21,.54c0,.2,.06,.36,.18,.48,.12,.12,.26,.22,.44,.29,.18,.07,.35,.13,.53,.18l1.43,.4c.2,.05,.42,.12,.66,.21,.24,.09,.48,.21,.7,.37,.23,.16,.41,.37,.56,.63,.15,.26,.22,.59,.22,.99s-.09,.78-.26,1.09c-.17,.31-.4,.57-.7,.78-.29,.21-.62,.36-1,.47-.38,.1-.77,.15-1.18,.15Z"/><path class="cls-1" d="M144.36,34.69v-1.22h1.33v1.22h-1.33Zm0,6.89v-5.98h1.33v5.98h-1.33Z"/><path class="cls-1" d="M149.75,41.74c-.55,0-1.03-.14-1.44-.42-.41-.28-.73-.65-.95-1.13-.23-.48-.34-1.01-.34-1.61s.11-1.15,.34-1.62c.23-.47,.55-.85,.97-1.12,.42-.28,.91-.41,1.47-.41s1.05,.14,1.43,.41c.39,.27,.68,.65,.88,1.13,.2,.48,.3,1.02,.3,1.62s-.1,1.13-.3,1.61c-.2,.48-.5,.86-.89,1.13-.39,.28-.88,.42-1.47,.42Zm.12,2.66c-.33,0-.65-.05-.96-.16s-.58-.25-.82-.45c-.24-.19-.44-.43-.6-.7l1.23-.61c.11,.22,.28,.38,.49,.48,.21,.1,.43,.16,.67,.16,.28,0,.52-.05,.74-.15,.22-.1,.39-.24,.51-.43,.12-.19,.18-.43,.17-.71v-1.7h.17v-4.55h1.17v6.27c0,.15,0,.3-.02,.43-.01,.14-.03,.27-.06,.41-.09,.39-.26,.71-.51,.96-.25,.25-.56,.44-.93,.56-.37,.12-.78,.18-1.23,.18Zm.09-3.86c.36,0,.65-.08,.87-.25,.22-.16,.38-.39,.48-.69s.15-.64,.15-1.02-.05-.73-.15-1.03c-.1-.29-.26-.52-.47-.69-.21-.16-.49-.25-.83-.25-.36,0-.65,.09-.89,.26s-.4,.41-.52,.71c-.11,.3-.17,.63-.17,.99s.05,.7,.16,.99c.11,.3,.28,.53,.5,.71,.23,.17,.51,.26,.86,.26Z"/><path class="cls-1" d="M154.16,41.58v-5.98h1.19v1.86h.16v4.13h-1.35Zm4.15,0v-2.88c0-.19-.01-.4-.04-.63-.03-.23-.09-.45-.18-.66-.09-.21-.23-.39-.42-.52s-.44-.21-.76-.21c-.17,0-.34,.03-.5,.08-.17,.06-.32,.15-.45,.29s-.24,.32-.32,.55c-.08,.23-.12,.53-.12,.9l-.79-.34c0-.51,.1-.97,.3-1.39,.2-.41,.49-.74,.87-.99,.38-.25,.86-.37,1.42-.37,.44,0,.81,.07,1.1,.22,.29,.15,.52,.34,.69,.56s.3,.47,.38,.73c.08,.26,.13,.5,.16,.73,.02,.23,.04,.42,.04,.56v3.34h-1.35Z"/><path class="cls-1" d="M163.75,41.74c-.61,0-1.14-.13-1.59-.39-.46-.26-.82-.63-1.07-1.09s-.38-1-.38-1.61c0-.65,.12-1.22,.38-1.7,.25-.48,.6-.86,1.05-1.12,.45-.27,.96-.4,1.55-.4,.62,0,1.15,.15,1.58,.44,.43,.29,.76,.7,.97,1.23,.21,.53,.29,1.15,.24,1.87h-1.32v-.49c0-.65-.12-1.12-.34-1.42-.23-.3-.58-.45-1.06-.45-.55,0-.95,.17-1.22,.51-.27,.34-.4,.83-.4,1.48,0,.61,.13,1.07,.4,1.41,.27,.33,.65,.5,1.16,.5,.33,0,.61-.07,.85-.22,.24-.15,.42-.36,.55-.63l1.32,.4c-.23,.54-.58,.96-1.06,1.26-.48,.3-1.01,.45-1.58,.45Zm-2.06-2.79v-1.01h4.12v1.01h-4.12Z"/><path class="cls-1" d="M170.1,41.74c-.55,0-1.03-.14-1.44-.42-.41-.28-.73-.65-.95-1.13-.23-.48-.34-1.01-.34-1.61s.11-1.15,.34-1.62c.23-.47,.55-.85,.97-1.12,.42-.28,.91-.41,1.47-.41s1.05,.14,1.43,.41c.39,.27,.68,.65,.88,1.13,.2,.48,.3,1.02,.3,1.62s-.1,1.13-.3,1.61c-.2,.48-.5,.86-.89,1.13-.39,.28-.88,.42-1.47,.42Zm.21-1.2c.36,0,.65-.08,.87-.25,.22-.16,.38-.39,.48-.69s.15-.64,.15-1.02-.05-.73-.15-1.03c-.1-.29-.26-.52-.47-.69-.21-.16-.49-.25-.83-.25-.36,0-.65,.09-.89,.26s-.4,.41-.52,.71c-.11,.3-.17,.63-.17,.99s.05,.7,.16,.99c.11,.3,.28,.53,.5,.71,.23,.17,.51,.26,.86,.26Zm1.5,1.03v-4.2h-.17v-3.78h1.35v7.98h-1.18Z"/><path class="cls-1" d="M176.74,41.58v-5.98h1.18v1.86h.17v4.13h-1.35Zm3.61,0v-3.62c0-.42-.1-.74-.3-.98-.2-.23-.48-.35-.83-.35s-.61,.12-.82,.35c-.21,.23-.31,.54-.31,.91l-.6-.4c0-.39,.1-.74,.29-1.05,.19-.31,.45-.55,.78-.73,.33-.18,.69-.27,1.1-.27,.45,0,.82,.1,1.12,.29,.3,.19,.53,.45,.68,.78s.22,.7,.22,1.1v3.97h-1.33Zm3.59,0v-3.63c0-.41-.1-.73-.3-.96-.2-.23-.48-.35-.83-.35-.21,0-.41,.05-.58,.15-.17,.1-.3,.24-.4,.43-.1,.19-.15,.42-.15,.68l-.59-.35c0-.41,.09-.78,.28-1.09,.19-.32,.45-.56,.77-.74,.32-.18,.69-.27,1.08-.27,.66,0,1.17,.2,1.52,.6,.35,.4,.53,.92,.53,1.56v3.97h-1.33Z"/><path class="cls-1" d="M189.34,41.74c-.61,0-1.14-.13-1.59-.39-.46-.26-.82-.63-1.07-1.09s-.38-1-.38-1.61c0-.65,.12-1.22,.38-1.7,.25-.48,.6-.86,1.05-1.12,.45-.27,.96-.4,1.55-.4,.62,0,1.15,.15,1.58,.44,.43,.29,.76,.7,.97,1.23,.21,.53,.29,1.15,.24,1.87h-1.32v-.49c0-.65-.12-1.12-.34-1.42-.23-.3-.58-.45-1.06-.45-.55,0-.95,.17-1.22,.51-.27,.34-.4,.83-.4,1.48,0,.61,.13,1.07,.4,1.41,.27,.33,.65,.5,1.16,.5,.33,0,.61-.07,.85-.22,.24-.15,.42-.36,.55-.63l1.32,.4c-.23,.54-.58,.96-1.06,1.26-.48,.3-1.01,.45-1.58,.45Zm-2.06-2.79v-1.01h4.12v1.01h-4.12Z"/><path class="cls-1" d="M195.6,41.74c-.74,0-1.34-.17-1.8-.5-.46-.33-.74-.8-.84-1.4l1.36-.21c.07,.3,.23,.53,.47,.7,.24,.17,.54,.25,.91,.25,.32,0,.57-.06,.75-.19,.17-.13,.26-.3,.26-.52,0-.14-.03-.25-.1-.33s-.21-.16-.42-.24-.55-.18-1-.29c-.5-.13-.9-.28-1.2-.43-.29-.15-.51-.34-.64-.55-.13-.21-.19-.47-.19-.76,0-.37,.1-.7,.29-.98,.2-.28,.47-.49,.82-.64,.35-.15,.76-.22,1.24-.22s.88,.07,1.24,.22,.65,.35,.87,.61c.22,.27,.36,.58,.41,.94l-1.36,.24c-.03-.25-.15-.46-.35-.6-.2-.15-.46-.23-.79-.25-.31-.02-.57,.03-.76,.14-.19,.11-.29,.27-.29,.47,0,.11,.04,.21,.12,.29,.08,.08,.23,.16,.47,.24,.23,.08,.58,.18,1.05,.3,.48,.12,.86,.26,1.14,.42,.29,.16,.49,.34,.62,.56,.13,.22,.19,.48,.19,.79,0,.6-.22,1.07-.66,1.42-.44,.34-1.04,.52-1.81,.52Z"/><path class="cls-1" d="M201.6,41.74c-.74,0-1.34-.17-1.8-.5-.46-.33-.74-.8-.84-1.4l1.36-.21c.07,.3,.23,.53,.47,.7,.24,.17,.54,.25,.91,.25,.32,0,.57-.06,.75-.19,.17-.13,.26-.3,.26-.52,0-.14-.03-.25-.1-.33s-.21-.16-.42-.24-.55-.18-1-.29c-.5-.13-.9-.28-1.2-.43-.29-.15-.51-.34-.64-.55-.13-.21-.19-.47-.19-.76,0-.37,.1-.7,.29-.98,.2-.28,.47-.49,.82-.64,.35-.15,.76-.22,1.24-.22s.88,.07,1.24,.22,.65,.35,.87,.61c.22,.27,.36,.58,.41,.94l-1.36,.24c-.03-.25-.15-.46-.35-.6-.2-.15-.46-.23-.79-.25-.31-.02-.57,.03-.76,.14-.19,.11-.29,.27-.29,.47,0,.11,.04,.21,.12,.29,.08,.08,.23,.16,.47,.24,.23,.08,.58,.18,1.05,.3,.48,.12,.86,.26,1.14,.42,.29,.16,.49,.34,.62,.56,.13,.22,.19,.48,.19,.79,0,.6-.22,1.07-.66,1.42-.44,.34-1.04,.52-1.81,.52Z"/><path class="cls-1" d="M206.96,41.74c-.43,0-.8-.08-1.1-.25-.3-.16-.53-.38-.68-.66-.15-.27-.23-.57-.23-.9,0-.29,.05-.55,.14-.78,.1-.23,.24-.43,.44-.6s.46-.31,.78-.41c.24-.08,.52-.15,.84-.21,.32-.06,.67-.12,1.05-.17,.38-.05,.77-.11,1.19-.17l-.48,.27c0-.41-.09-.72-.28-.91s-.51-.29-.95-.29c-.27,0-.53,.06-.78,.19s-.43,.34-.53,.65l-1.22-.38c.15-.51,.43-.91,.84-1.22s.98-.46,1.68-.46c.53,0,1,.09,1.4,.26,.4,.17,.7,.46,.9,.85,.11,.21,.17,.43,.19,.65s.03,.46,.03,.72v3.67h-1.17v-1.3l.19,.21c-.27,.43-.58,.75-.95,.95-.36,.2-.81,.3-1.35,.3Zm.27-1.06c.3,0,.56-.05,.78-.16s.38-.24,.51-.39c.13-.16,.21-.3,.26-.44,.07-.17,.11-.36,.12-.58s.01-.4,.01-.53l.41,.12c-.4,.06-.75,.12-1.04,.17s-.54,.09-.74,.14-.39,.09-.55,.14c-.16,.06-.29,.12-.39,.19-.11,.07-.19,.16-.25,.25-.06,.1-.09,.21-.09,.34,0,.15,.04,.28,.11,.39s.18,.2,.32,.27c.14,.07,.32,.1,.53,.1Z"/><path class="cls-1" d="M214.07,41.74c-.55,0-1.03-.14-1.44-.42-.41-.28-.73-.65-.95-1.13-.23-.48-.34-1.01-.34-1.61s.11-1.15,.34-1.62c.23-.47,.55-.85,.97-1.12,.42-.28,.91-.41,1.47-.41s1.05,.14,1.43,.41c.39,.27,.68,.65,.88,1.13,.2,.48,.3,1.02,.3,1.62s-.1,1.13-.3,1.61c-.2,.48-.5,.86-.89,1.13-.39,.28-.88,.42-1.47,.42Zm.12,2.66c-.33,0-.65-.05-.96-.16s-.58-.25-.82-.45c-.24-.19-.44-.43-.6-.7l1.23-.61c.11,.22,.28,.38,.49,.48,.21,.1,.43,.16,.67,.16,.28,0,.52-.05,.74-.15,.22-.1,.39-.24,.51-.43,.12-.19,.18-.43,.17-.71v-1.7h.17v-4.55h1.17v6.27c0,.15,0,.3-.02,.43-.01,.14-.03,.27-.06,.41-.09,.39-.26,.71-.51,.96-.25,.25-.56,.44-.93,.56-.37,.12-.78,.18-1.23,.18Zm.09-3.86c.36,0,.65-.08,.87-.25,.22-.16,.38-.39,.48-.69s.15-.64,.15-1.02-.05-.73-.15-1.03c-.1-.29-.26-.52-.47-.69-.21-.16-.49-.25-.83-.25-.36,0-.65,.09-.89,.26s-.4,.41-.52,.71c-.11,.3-.17,.63-.17,.99s.05,.7,.16,.99c.11,.3,.28,.53,.5,.71,.23,.17,.51,.26,.86,.26Z"/><path class="cls-1" d="M221.21,41.74c-.61,0-1.14-.13-1.59-.39-.46-.26-.82-.63-1.07-1.09s-.38-1-.38-1.61c0-.65,.12-1.22,.38-1.7,.25-.48,.6-.86,1.05-1.12,.45-.27,.96-.4,1.55-.4,.62,0,1.15,.15,1.58,.44,.43,.29,.76,.7,.97,1.23,.21,.53,.29,1.15,.24,1.87h-1.32v-.49c0-.65-.12-1.12-.34-1.42-.23-.3-.58-.45-1.06-.45-.55,0-.95,.17-1.22,.51-.27,.34-.4,.83-.4,1.48,0,.61,.13,1.07,.4,1.41,.27,.33,.65,.5,1.16,.5,.33,0,.61-.07,.85-.22,.24-.15,.42-.36,.55-.63l1.32,.4c-.23,.54-.58,.96-1.06,1.26-.48,.3-1.01,.45-1.58,.45Zm-2.06-2.79v-1.01h4.12v1.01h-4.12Z"/></g><rect class="cls-7" x="130.64" y="28.06" width="108.91" height="19.06"/><g><path class="cls-1" d="M10.87,41.74c-.8,0-1.48-.17-2.05-.52-.57-.35-1.01-.84-1.31-1.46s-.46-1.35-.46-2.17,.15-1.55,.46-2.17,.74-1.11,1.31-1.46c.57-.35,1.25-.52,2.05-.52,.92,0,1.69,.23,2.3,.69,.61,.46,1.04,1.08,1.29,1.86l-1.35,.37c-.16-.52-.42-.93-.79-1.22-.37-.29-.86-.44-1.45-.44-.54,0-.98,.12-1.34,.36s-.62,.58-.8,1.01c-.18,.43-.27,.94-.27,1.53,0,.58,.09,1.09,.27,1.53,.18,.43,.45,.77,.81,1.01,.36,.24,.8,.36,1.34,.36,.59,0,1.08-.15,1.45-.44s.64-.7,.79-1.22l1.35,.37c-.25,.78-.68,1.4-1.29,1.86-.61,.46-1.38,.69-2.3,.69Z"/><path class="cls-1" d="M18.32,41.74c-.6,0-1.12-.13-1.57-.4-.45-.27-.79-.64-1.04-1.12-.25-.47-.37-1.02-.37-1.64s.12-1.18,.38-1.65c.25-.47,.6-.84,1.05-1.11,.45-.27,.96-.4,1.55-.4s1.13,.14,1.57,.4c.45,.27,.79,.64,1.04,1.12,.25,.47,.37,1.02,.37,1.64s-.12,1.17-.37,1.64c-.25,.47-.6,.85-1.04,1.11-.45,.27-.97,.4-1.57,.4Zm0-1.25c.53,0,.93-.18,1.19-.53,.26-.35,.39-.81,.39-1.37s-.13-1.04-.39-1.39c-.26-.35-.66-.52-1.18-.52-.36,0-.65,.08-.88,.24s-.4,.38-.51,.67c-.11,.29-.17,.62-.17,.99,0,.58,.13,1.04,.4,1.39,.26,.35,.65,.52,1.17,.52Z"/><path class="cls-1" d="M22.51,41.58v-5.98h1.19v1.86h.16v4.13h-1.35Zm4.15,0v-2.88c0-.19-.01-.4-.04-.63-.03-.23-.09-.45-.18-.66-.09-.21-.23-.39-.42-.52s-.44-.21-.76-.21c-.17,0-.34,.03-.5,.08-.17,.06-.32,.15-.45,.29s-.24,.32-.32,.55c-.08,.23-.12,.53-.12,.9l-.79-.34c0-.51,.1-.97,.3-1.39,.2-.41,.49-.74,.87-.99,.38-.25,.86-.37,1.42-.37,.44,0,.81,.07,1.1,.22,.29,.15,.52,.34,.69,.56s.3,.47,.38,.73c.08,.26,.13,.5,.16,.73,.02,.23,.04,.42,.04,.56v3.34h-1.35Z"/><path class="cls-1" d="M28.78,36.64v-1.05h4.17v1.05h-4.17Zm4.17,4.94c-.4,.07-.78,.11-1.16,.1-.38,0-.72-.08-1.02-.21-.3-.13-.53-.34-.68-.62-.14-.26-.21-.52-.22-.79,0-.27-.01-.57-.01-.91v-5.2h1.33v5.12c0,.24,0,.45,0,.63,0,.18,.04,.33,.11,.44,.13,.22,.35,.35,.64,.37,.29,.03,.62,.01,1-.04v1.12Z"/><path class="cls-1" d="M35.92,41.74c-.43,0-.8-.08-1.1-.25-.3-.16-.53-.38-.68-.66-.15-.27-.23-.57-.23-.9,0-.29,.05-.55,.14-.78,.1-.23,.24-.43,.44-.6s.46-.31,.78-.41c.24-.08,.52-.15,.84-.21,.32-.06,.67-.12,1.05-.17,.38-.05,.77-.11,1.19-.17l-.48,.27c0-.41-.09-.72-.28-.91s-.51-.29-.95-.29c-.27,0-.53,.06-.78,.19s-.43,.34-.53,.65l-1.22-.38c.15-.51,.43-.91,.84-1.22s.98-.46,1.68-.46c.53,0,1,.09,1.4,.26,.4,.17,.7,.46,.9,.85,.11,.21,.17,.43,.19,.65s.03,.46,.03,.72v3.67h-1.17v-1.3l.19,.21c-.27,.43-.58,.75-.95,.95-.36,.2-.81,.3-1.35,.3Zm.27-1.06c.3,0,.56-.05,.78-.16s.38-.24,.51-.39c.13-.16,.21-.3,.26-.44,.07-.17,.11-.36,.12-.58s.01-.4,.01-.53l.41,.12c-.4,.06-.75,.12-1.04,.17s-.54,.09-.74,.14-.39,.09-.55,.14c-.16,.06-.29,.12-.39,.19-.11,.07-.19,.16-.25,.25-.06,.1-.09,.21-.09,.34,0,.15,.04,.28,.11,.39s.18,.2,.32,.27c.14,.07,.32,.1,.53,.1Z"/><path class="cls-1" d="M43.23,41.74c-.62,0-1.14-.14-1.58-.41s-.77-.65-1-1.13c-.23-.48-.35-1.02-.35-1.62,0-.61,.12-1.16,.36-1.63s.58-.85,1.02-1.12,.96-.41,1.57-.41c.68,0,1.25,.17,1.73,.51,.47,.34,.78,.81,.92,1.4l-1.33,.36c-.1-.32-.28-.57-.52-.75-.24-.18-.51-.27-.82-.27-.35,0-.63,.08-.86,.25-.22,.16-.39,.39-.5,.68-.11,.29-.16,.61-.16,.98,0,.57,.13,1.03,.38,1.38,.25,.35,.63,.53,1.13,.53,.36,0,.63-.08,.84-.24,.21-.16,.36-.4,.46-.7l1.36,.3c-.18,.61-.51,1.08-.97,1.4-.46,.33-1.03,.49-1.7,.49Z"/><path class="cls-1" d="M46.34,36.64v-1.05h4.17v1.05h-4.17Zm4.17,4.94c-.4,.07-.78,.11-1.16,.1-.38,0-.72-.08-1.02-.21-.3-.13-.53-.34-.68-.62-.14-.26-.21-.52-.22-.79,0-.27-.01-.57-.01-.91v-5.2h1.33v5.12c0,.24,0,.45,0,.63,0,.18,.04,.33,.11,.44,.13,.22,.35,.35,.64,.37,.29,.03,.62,.01,1-.04v1.12Z"/></g><rect class="cls-7" x="1.17" y="28.06" width="108.91" height="19.06"/><g><path class="cls-2" d="M268.34,94.5v-6.73h-2.58v-1.25h6.5v1.25h-2.58v6.73h-1.33Z"/><path class="cls-2" d="M271.72,94.5l2.19-3.02-2.14-2.96h1.57l1.35,1.91,1.32-1.91h1.57l-2.14,2.96,2.2,3.02h-1.57l-1.38-1.98-1.39,1.98h-1.57Z"/><path class="cls-2" d="M278.52,94.5v-7.98h3.3c.08,0,.18,0,.3,0,.12,0,.23,.02,.34,.04,.46,.07,.84,.22,1.14,.46s.52,.53,.67,.89c.15,.36,.22,.76,.22,1.2s-.07,.83-.22,1.19c-.15,.36-.37,.66-.67,.89s-.68,.39-1.14,.46c-.1,.01-.22,.03-.34,.03-.12,0-.22,.01-.3,.01h-1.96v2.79h-1.33Zm1.33-4.03h1.91c.07,0,.16,0,.25-.01,.09,0,.18-.02,.25-.04,.22-.06,.4-.15,.52-.29,.13-.14,.22-.3,.27-.48,.05-.18,.08-.35,.08-.52s-.03-.34-.08-.52c-.05-.18-.14-.34-.27-.48-.13-.14-.3-.24-.52-.29-.08-.02-.16-.04-.25-.04-.09,0-.18,0-.25,0h-1.91v2.69Z"/><path class="cls-2" d="M288.15,94.66c-.6,0-1.12-.13-1.57-.4-.45-.27-.79-.64-1.04-1.12-.25-.47-.37-1.02-.37-1.64s.12-1.18,.38-1.65c.25-.47,.6-.84,1.05-1.11,.45-.27,.96-.4,1.55-.4s1.13,.14,1.57,.4c.45,.27,.79,.64,1.04,1.12,.25,.47,.37,1.02,.37,1.64s-.12,1.17-.37,1.64c-.25,.47-.6,.85-1.04,1.11-.45,.27-.97,.4-1.57,.4Zm0-1.25c.53,0,.93-.18,1.19-.53,.26-.35,.39-.81,.39-1.37s-.13-1.04-.39-1.39c-.26-.35-.66-.52-1.18-.52-.36,0-.65,.08-.88,.24s-.4,.38-.51,.67c-.11,.29-.17,.62-.17,.99,0,.58,.13,1.04,.4,1.39,.26,.35,.65,.52,1.17,.52Z"/><path class="cls-2" d="M293.7,94.5l-2.33-7.98h1.4l1.59,5.76,1.58-5.75h1.4s1.59,5.75,1.59,5.75l1.58-5.76h1.4l-2.33,7.98h-1.32l-1.63-5.67-1.62,5.67h-1.32Z"/><path class="cls-2" d="M307.29,94.67c-.44,0-.81-.07-1.1-.22-.29-.15-.52-.34-.69-.56s-.3-.47-.38-.73c-.08-.26-.13-.5-.16-.73-.02-.23-.04-.42-.04-.56v-3.34h1.35v2.88c0,.18,.01,.39,.04,.62,.03,.23,.09,.45,.18,.67,.09,.21,.23,.39,.42,.52s.44,.2,.76,.2c.17,0,.34-.03,.5-.08,.17-.06,.32-.15,.45-.29s.24-.32,.32-.56c.08-.24,.12-.54,.12-.9l.79,.34c0,.51-.1,.97-.3,1.38s-.49,.74-.87,.99c-.38,.25-.86,.37-1.42,.37Zm1.96-.17v-1.86h-.16v-4.13h1.34v5.98h-1.18Z"/><path class="cls-2" d="M311.96,94.5v-5.98h1.19v1.86h.16v4.13h-1.35Zm4.15,0v-2.88c0-.19-.01-.4-.04-.63-.03-.23-.09-.45-.18-.66-.09-.21-.23-.39-.42-.52s-.44-.21-.76-.21c-.17,0-.34,.03-.5,.08-.17,.06-.32,.15-.45,.29s-.24,.32-.32,.55c-.08,.23-.12,.53-.12,.9l-.79-.34c0-.51,.1-.97,.3-1.39,.2-.41,.49-.74,.87-.99,.38-.25,.86-.37,1.42-.37,.44,0,.81,.07,1.1,.22,.29,.15,.52,.34,.69,.56s.3,.47,.38,.73c.08,.26,.13,.5,.16,.73,.02,.23,.04,.42,.04,.56v3.34h-1.35Z"/><path class="cls-2" d="M319.01,87.61v-1.22h1.33v1.22h-1.33Zm0,6.89v-5.98h1.33v5.98h-1.33Z"/><path class="cls-2" d="M321.34,89.56v-1.05h4.17v1.05h-4.17Zm4.17,4.94c-.4,.07-.78,.11-1.16,.1-.38,0-.72-.08-1.02-.21-.3-.13-.53-.34-.68-.62-.14-.26-.21-.52-.22-.79,0-.27-.01-.57-.01-.91v-5.2h1.33v5.12c0,.24,0,.45,0,.63,0,.18,.04,.33,.11,.44,.13,.22,.35,.35,.64,.37,.29,.03,.62,.01,1-.04v1.12Z"/></g><rect class="cls-5" x="260.11" y="80.98" width="108.92" height="19.06"/><g><path class="cls-2" d="M397.81,94.5v-6.73h-2.58v-1.25h6.5v1.25h-2.58v6.73h-1.33Z"/><path class="cls-2" d="M401.19,94.5l2.19-3.02-2.14-2.96h1.57l1.35,1.91,1.32-1.91h1.57l-2.14,2.96,2.2,3.02h-1.57l-1.38-1.98-1.39,1.98h-1.57Z"/><path class="cls-2" d="M407.99,94.5v-7.98h3.3c.08,0,.18,0,.3,0,.12,0,.23,.02,.34,.04,.46,.07,.84,.22,1.14,.46s.52,.53,.67,.89c.15,.36,.22,.76,.22,1.2s-.07,.83-.22,1.19c-.15,.36-.37,.66-.67,.89s-.68,.39-1.14,.46c-.1,.01-.22,.03-.34,.03-.12,0-.22,.01-.3,.01h-1.96v2.79h-1.33Zm1.33-4.03h1.91c.07,0,.16,0,.25-.01,.09,0,.18-.02,.25-.04,.22-.06,.4-.15,.52-.29,.13-.14,.22-.3,.27-.48,.05-.18,.08-.35,.08-.52s-.03-.34-.08-.52c-.05-.18-.14-.34-.27-.48-.13-.14-.3-.24-.52-.29-.08-.02-.16-.04-.25-.04-.09,0-.18,0-.25,0h-1.91v2.69Z"/><path class="cls-2" d="M417.62,94.66c-.6,0-1.12-.13-1.57-.4-.45-.27-.79-.64-1.04-1.12-.25-.47-.37-1.02-.37-1.64s.12-1.18,.38-1.65c.25-.47,.6-.84,1.05-1.11,.45-.27,.96-.4,1.55-.4s1.13,.14,1.57,.4c.45,.27,.79,.64,1.04,1.12,.25,.47,.37,1.02,.37,1.64s-.12,1.17-.37,1.64c-.25,.47-.6,.85-1.04,1.11-.45,.27-.97,.4-1.57,.4Zm0-1.25c.53,0,.93-.18,1.19-.53,.26-.35,.39-.81,.39-1.37s-.13-1.04-.39-1.39c-.26-.35-.66-.52-1.18-.52-.36,0-.65,.08-.88,.24s-.4,.38-.51,.67c-.11,.29-.17,.62-.17,.99,0,.58,.13,1.04,.4,1.39,.26,.35,.65,.52,1.17,.52Z"/><path class="cls-2" d="M423.17,94.5l-2.33-7.98h1.4l1.59,5.76,1.58-5.75h1.4s1.59,5.75,1.59,5.75l1.58-5.76h1.4l-2.33,7.98h-1.32l-1.63-5.67-1.62,5.67h-1.32Z"/><path class="cls-2" d="M436.75,94.67c-.44,0-.81-.07-1.1-.22-.29-.15-.52-.34-.69-.56s-.3-.47-.38-.73c-.08-.26-.13-.5-.16-.73-.02-.23-.04-.42-.04-.56v-3.34h1.35v2.88c0,.18,.01,.39,.04,.62,.03,.23,.09,.45,.18,.67,.09,.21,.23,.39,.42,.52s.44,.2,.76,.2c.17,0,.34-.03,.5-.08,.17-.06,.32-.15,.45-.29s.24-.32,.32-.56c.08-.24,.12-.54,.12-.9l.79,.34c0,.51-.1,.97-.3,1.38s-.49,.74-.87,.99c-.38,.25-.86,.37-1.42,.37Zm1.96-.17v-1.86h-.16v-4.13h1.34v5.98h-1.18Z"/><path class="cls-2" d="M441.43,94.5v-5.98h1.19v1.86h.16v4.13h-1.35Zm4.15,0v-2.88c0-.19-.01-.4-.04-.63-.03-.23-.09-.45-.18-.66-.09-.21-.23-.39-.42-.52s-.44-.21-.76-.21c-.17,0-.34,.03-.5,.08-.17,.06-.32,.15-.45,.29s-.24,.32-.32,.55c-.08,.23-.12,.53-.12,.9l-.79-.34c0-.51,.1-.97,.3-1.39,.2-.41,.49-.74,.87-.99,.38-.25,.86-.37,1.42-.37,.44,0,.81,.07,1.1,.22,.29,.15,.52,.34,.69,.56s.3,.47,.38,.73c.08,.26,.13,.5,.16,.73,.02,.23,.04,.42,.04,.56v3.34h-1.35Z"/><path class="cls-2" d="M448.48,87.61v-1.22h1.33v1.22h-1.33Zm0,6.89v-5.98h1.33v5.98h-1.33Z"/><path class="cls-2" d="M450.81,89.56v-1.05h4.17v1.05h-4.17Zm4.17,4.94c-.4,.07-.78,.11-1.16,.1-.38,0-.72-.08-1.02-.21-.3-.13-.53-.34-.68-.62-.14-.26-.21-.52-.22-.79,0-.27-.01-.57-.01-.91v-5.2h1.33v5.12c0,.24,0,.45,0,.63,0,.18,.04,.33,.11,.44,.13,.22,.35,.35,.64,.37,.29,.03,.62,.01,1-.04v1.12Z"/></g><rect class="cls-5" x="389.58" y="80.98" width="108.92" height="19.06"/><g><path class="cls-2" d="M525.36,140.89v-7.98h3.16c.54,0,.98,.11,1.33,.32,.34,.22,.6,.49,.77,.83,.17,.34,.25,.68,.25,1.04,0,.44-.1,.81-.31,1.12-.21,.31-.49,.51-.85,.62v-.28c.5,.11,.88,.35,1.14,.71,.26,.36,.39,.77,.39,1.23s-.09,.89-.27,1.24-.45,.63-.81,.83c-.36,.2-.8,.3-1.32,.3h-3.48Zm1.35-4.79h1.79c.19,0,.36-.04,.52-.11,.15-.07,.27-.18,.36-.33,.09-.14,.13-.32,.13-.53,0-.28-.09-.51-.27-.69-.18-.18-.42-.28-.74-.28h-1.79v1.94Zm0,3.53h1.97c.23,0,.44-.05,.63-.14,.18-.09,.33-.23,.43-.4,.11-.17,.16-.38,.16-.61,0-.21-.05-.41-.14-.58-.09-.17-.23-.31-.4-.41-.18-.1-.39-.15-.64-.15h-2.01v2.29Z"/><path class="cls-2" d="M532.46,140.89v-8.14h1.33v8.14h-1.33Z"/><path class="cls-2" d="M538.1,141.06c-.6,0-1.12-.13-1.57-.4-.45-.27-.79-.64-1.04-1.12-.25-.47-.37-1.02-.37-1.64s.12-1.18,.38-1.65c.25-.47,.6-.84,1.05-1.11,.45-.27,.96-.4,1.55-.4s1.13,.14,1.57,.4c.45,.27,.79,.64,1.04,1.12,.25,.47,.37,1.02,.37,1.64s-.12,1.17-.37,1.64c-.25,.47-.6,.85-1.04,1.11-.45,.27-.97,.4-1.57,.4Zm0-1.25c.53,0,.93-.18,1.19-.53,.26-.35,.39-.81,.39-1.37s-.13-1.04-.39-1.39c-.26-.35-.66-.52-1.18-.52-.36,0-.65,.08-.88,.24s-.4,.38-.51,.67c-.11,.29-.17,.62-.17,.99,0,.58,.13,1.04,.4,1.39,.26,.35,.65,.52,1.17,.52Z"/><path class="cls-2" d="M544.91,141.06c-.62,0-1.14-.14-1.58-.41s-.77-.65-1-1.13c-.23-.48-.35-1.02-.35-1.62,0-.61,.12-1.16,.36-1.63s.58-.85,1.02-1.12,.96-.41,1.57-.41c.68,0,1.25,.17,1.73,.51,.47,.34,.78,.81,.92,1.4l-1.33,.36c-.1-.32-.28-.57-.52-.75-.24-.18-.51-.27-.82-.27-.35,0-.63,.08-.86,.25-.22,.16-.39,.39-.5,.68-.11,.29-.16,.61-.16,.98,0,.57,.13,1.03,.38,1.38,.25,.35,.63,.53,1.13,.53,.36,0,.63-.08,.84-.24,.21-.16,.36-.4,.46-.7l1.36,.3c-.18,.61-.51,1.08-.97,1.4-.46,.33-1.03,.49-1.7,.49Z"/><path class="cls-2" d="M548.67,140.89v-7.98h1.36v4.87l2.19-2.88h1.67l-2.32,2.99,2.52,2.99h-1.77l-2.29-2.88v2.88h-1.36Z"/></g><rect class="cls-5" x="519.04" y="127.38" width="108.91" height="19.06"/></svg>