<?xml version="1.0" encoding="UTF-8"?><svg id="a" xmlns="http://www.w3.org/2000/svg" viewBox="0 0 1498.63 679.09"><defs><style>.b{opacity:.05;}.c{opacity:.1;}.d{fill:#fff;}.e{fill:#ff9682;}.f{fill:#bdbdc4;}.g{fill:#accaff;}.h{fill:#363a3f;}.i{fill:none;stroke:#fff;stroke-miterlimit:10;}</style></defs><line class="i" x1="961.31" y1="290.77" x2="961.31" y2="419.9"/><line class="i" x1="105.52" y1="111.4" x2="542.61" y2="346.75"/><path class="h" d="M517.43,227.01v-3.19h3.19v3.19m-3.19,12.75v-3.19h3.19v3.19m-3.19,12.75v-3.19h3.19v3.19m-3.19,12.75v-3.19h3.19v3.19m-3.19,12.75v-3.19h3.19v3.19m-3.19,12.75v-3.19h3.19v3.19m-3.19,12.75v-3.19h3.19v3.19m-3.19,12.75v-3.19h3.19v3.19m-3.19,12.75v-3.19h3.19v3.19m-3.19,12.75v-3.19h3.19v3.19m-3.19,12.75v-3.19h3.19v3.19m-3.19,12.75v-3.19h3.19v3.19m-3.19,12.75v-3.19h3.19v3.19m-3.19,12.75v-3.19h3.19v3.19m-3.19,12.75v-3.19h3.19v3.19m-3.19,12.75v-3.19h3.19v3.19m-3.19,12.75v-3.19h3.19v3.19m-3.19,12.75v-3.19h3.19v3.19m-3.19,12.75v-3.19h3.19v3.19"/><g><polygon class="g" points="535.93 313.89 599.69 313.89 615.63 329.83 615.63 393.59 551.87 393.59 535.93 377.65 535.93 313.89"/><polygon class="i" points="535.93 313.89 599.69 313.89 615.63 329.83 615.63 393.59 551.87 393.59 535.93 377.65 535.93 313.89"/><polygon class="b" points="535.93 313.89 599.69 313.89 615.63 329.83 551.87 329.83 535.93 313.89"/><polygon class="c" points="535.93 313.89 551.87 329.83 551.87 393.59 535.93 377.65 535.93 313.89"/><path class="i" d="M551.87,329.83h63.76m-63.76,63.76v-63.76l-15.94-15.94"/></g><g><path class="h" d="M579.81,365.7v-10.61l-2.38,1.45v-2.04l2.38-1.42h1.87v12.62h-1.87Z"/><path class="h" d="M585.67,365.7l4.44-10.88h-5.62v-1.75h7.59v1.75l-4.43,10.88h-1.98Z"/></g><g><polygon class="g" points="631.57 313.89 695.33 313.89 711.28 329.83 711.28 393.59 647.51 393.59 631.57 377.65 631.57 313.89"/><polygon class="i" points="631.57 313.89 695.33 313.89 711.28 329.83 711.28 393.59 647.51 393.59 631.57 377.65 631.57 313.89"/><polygon class="b" points="631.57 313.89 695.33 313.89 711.28 329.83 647.51 329.83 631.57 313.89"/><polygon class="c" points="631.57 313.89 647.51 329.83 647.51 393.59 631.57 377.65 631.57 313.89"/><path class="i" d="M647.51,329.83h63.76m-63.76,63.76v-63.76l-15.94-15.94"/></g><g><polygon class="g" points="727.22 313.89 790.98 313.89 806.92 329.83 806.92 393.59 743.16 393.59 727.22 377.65 727.22 313.89"/><polygon class="i" points="727.22 313.89 790.98 313.89 806.92 329.83 806.92 393.59 743.16 393.59 727.22 377.65 727.22 313.89"/><polygon class="b" points="727.22 313.89 790.98 313.89 806.92 329.83 743.16 329.83 727.22 313.89"/><polygon class="c" points="727.22 313.89 743.16 329.83 743.16 393.59 727.22 377.65 727.22 313.89"/><path class="i" d="M743.16,329.83h63.76m-63.76,63.76v-63.76l-15.94-15.94"/></g><g><polygon class="g" points="822.86 313.89 886.63 313.89 902.57 329.83 902.57 393.59 838.8 393.59 822.86 377.65 822.86 313.89"/><polygon class="i" points="822.86 313.89 886.63 313.89 902.57 329.83 902.57 393.59 838.8 393.59 822.86 377.65 822.86 313.89"/><polygon class="b" points="822.86 313.89 886.63 313.89 902.57 329.83 838.8 329.83 822.86 313.89"/><polygon class="c" points="822.86 313.89 838.8 329.83 838.8 393.59 822.86 377.65 822.86 313.89"/><path class="i" d="M838.8,329.83h63.76m-63.76,63.76v-63.76l-15.94-15.94"/></g><g><polygon class="g" points="1014.15 313.89 1077.92 313.89 1093.86 329.83 1093.86 393.59 1030.09 393.59 1014.15 377.65 1014.15 313.89"/><polygon class="i" points="1014.15 313.89 1077.92 313.89 1093.86 329.83 1093.86 393.59 1030.09 393.59 1014.15 377.65 1014.15 313.89"/><polygon class="b" points="1014.15 313.89 1077.92 313.89 1093.86 329.83 1030.09 329.83 1014.15 313.89"/><polygon class="c" points="1014.15 313.89 1030.09 329.83 1030.09 393.59 1014.15 377.65 1014.15 313.89"/><path class="i" d="M1030.09,329.83h63.76m-63.76,63.76v-63.76l-15.94-15.94"/></g><line class="i" x1="806.92" y1="554.6" x2="838.8" y2="554.6"/><polygon class="f" points="727.22 514.74 790.98 514.74 806.92 530.69 806.92 594.45 743.16 594.45 727.22 578.51 727.22 514.74"/><polygon class="i" points="727.22 514.74 790.98 514.74 806.92 530.69 806.92 594.45 743.16 594.45 727.22 578.51 727.22 514.74"/><polygon class="b" points="727.22 514.74 790.98 514.74 806.92 530.69 743.16 530.69 727.22 514.74"/><polygon class="c" points="727.22 514.74 743.16 530.69 743.16 594.45 727.22 578.51 727.22 514.74"/><path class="i" d="M743.16,530.69h63.76m-63.76,63.76v-63.76l-15.94-15.94"/><polygon class="f" points="822.86 514.74 886.63 514.74 902.57 530.69 902.57 594.45 838.8 594.45 822.86 578.51 822.86 514.74"/><polygon class="i" points="822.86 514.74 886.63 514.74 902.57 530.69 902.57 594.45 838.8 594.45 822.86 578.51 822.86 514.74"/><polygon class="b" points="822.86 514.74 886.63 514.74 902.57 530.69 838.8 530.69 822.86 514.74"/><polygon class="c" points="822.86 514.74 838.8 530.69 838.8 594.45 822.86 578.51 822.86 514.74"/><path class="i" d="M838.8,530.69h63.76m-63.76,63.76v-63.76l-15.94-15.94"/><g><polygon class="f" points="727.22 105.06 790.98 105.06 806.92 121 806.92 184.77 743.16 184.77 727.22 168.82 727.22 105.06"/><polygon class="i" points="727.22 105.06 790.98 105.06 806.92 121 806.92 184.77 743.16 184.77 727.22 168.82 727.22 105.06"/><polygon class="c" points="727.22 105.06 743.16 121 743.16 184.77 727.22 168.82 727.22 105.06"/><path class="i" d="M743.16,121h63.76m-63.76,63.76v-63.76l-15.94-15.94"/></g><g><line class="i" x1="806.92" y1="144.91" x2="822.86" y2="144.91"/><polygon class="f" points="822.86 105.06 886.63 105.06 902.57 121 902.57 184.77 838.8 184.77 822.86 168.82 822.86 105.06"/><polygon class="i" points="822.86 105.06 886.63 105.06 902.57 121 902.57 184.77 838.8 184.77 822.86 168.82 822.86 105.06"/><polygon class="c" points="822.86 105.06 838.8 121 838.8 184.77 822.86 168.82 822.86 105.06"/><path class="i" d="M838.8,121h63.76m-63.76,63.76v-63.76l-15.94-15.94"/></g><g><polygon class="f" points="822.86 105.06 886.63 105.06 902.57 121 902.57 184.77 838.8 184.77 822.86 168.82 822.86 105.06"/><polygon class="i" points="822.86 105.06 886.63 105.06 902.57 121 902.57 184.77 838.8 184.77 822.86 168.82 822.86 105.06"/><polygon class="c" points="822.86 105.06 838.8 121 838.8 184.77 822.86 168.82 822.86 105.06"/><path class="i" d="M838.8,121h63.76m-63.76,63.76v-63.76l-15.94-15.94"/></g><g><line class="i" x1="902.57" y1="144.91" x2="918.51" y2="144.91"/><polygon class="f" points="918.51 105.06 982.27 105.06 998.21 121 998.21 184.77 934.45 184.77 918.51 168.82 918.51 105.06"/><polygon class="i" points="918.51 105.06 982.27 105.06 998.21 121 998.21 184.77 934.45 184.77 918.51 168.82 918.51 105.06"/><polygon class="c" points="918.51 105.06 934.45 121 934.45 184.77 918.51 168.82 918.51 105.06"/><path class="i" d="M934.45,121h63.76m-63.76,63.76v-63.76l-15.94-15.94"/></g><g><line class="i" x1="998.21" y1="144.91" x2="1014.15" y2="144.91"/><polygon class="f" points="1014.15 105.06 1077.92 105.06 1093.86 121 1093.86 184.77 1030.09 184.77 1014.15 168.82 1014.15 105.06"/><polygon class="i" points="1014.15 105.06 1077.92 105.06 1093.86 121 1093.86 184.77 1030.09 184.77 1014.15 168.82 1014.15 105.06"/><polygon class="c" points="1014.15 105.06 1030.09 121 1030.09 184.77 1014.15 168.82 1014.15 105.06"/><path class="i" d="M1030.09,121h63.76m-63.76,63.76v-63.76l-15.94-15.94"/></g><g><line class="i" x1="1093.86" y1="144.91" x2="1109.8" y2="144.91"/><polygon class="f" points="1109.8 105.06 1173.56 105.06 1189.5 121 1189.5 184.77 1125.74 184.77 1109.8 168.82 1109.8 105.06"/><polygon class="i" points="1109.8 105.06 1173.56 105.06 1189.5 121 1189.5 184.77 1125.74 184.77 1109.8 168.82 1109.8 105.06"/><polygon class="c" points="1109.8 105.06 1125.74 121 1125.74 184.77 1109.8 168.82 1109.8 105.06"/><path class="i" d="M1125.74,121h63.76m-63.76,63.76v-63.76l-15.94-15.94"/></g><g><line class="i" x1="1189.5" y1="144.91" x2="1205.44" y2="144.91"/><polygon class="f" points="1205.44 105.06 1269.21 105.06 1285.15 121 1285.15 184.77 1221.38 184.77 1205.44 168.82 1205.44 105.06"/><polygon class="i" points="1205.44 105.06 1269.21 105.06 1285.15 121 1285.15 184.77 1221.38 184.77 1205.44 168.82 1205.44 105.06"/><polygon class="c" points="1205.44 105.06 1221.38 121 1221.38 184.77 1205.44 168.82 1205.44 105.06"/><path class="i" d="M1221.38,121h63.76m-63.76,63.76v-63.76l-15.94-15.94"/></g><g><line class="i" x1="615.63" y1="353.74" x2="631.57" y2="353.74"/><line class="i" x1="711.28" y1="353.74" x2="727.22" y2="353.74"/><line class="i" x1="806.92" y1="353.74" x2="822.86" y2="353.74"/><line class="i" x1="902.57" y1="353.74" x2="918.51" y2="353.74"/><line class="i" x1="998.21" y1="353.74" x2="1014.15" y2="353.74"/></g><g><line class="i" x1="711.28" y1="353.74" x2="727.22" y2="353.74"/><line class="i" x1="806.92" y1="353.74" x2="822.86" y2="353.74"/><line class="i" x1="902.57" y1="353.74" x2="918.51" y2="353.74"/><line class="i" x1="998.21" y1="353.74" x2="1014.15" y2="353.74"/><line class="i" x1="1093.86" y1="353.74" x2="1109.8" y2="353.74"/></g><g><polygon class="g" points="918.51 313.89 982.27 313.89 998.21 329.83 998.21 393.59 934.45 393.59 918.51 377.65 918.51 313.89"/><polygon class="i" points="918.51 313.89 982.27 313.89 998.21 329.83 998.21 393.59 934.45 393.59 918.51 377.65 918.51 313.89"/><polygon class="b" points="918.51 313.89 982.27 313.89 998.21 329.83 934.45 329.83 918.51 313.89"/><polygon class="c" points="918.51 313.89 934.45 329.83 934.45 393.59 918.51 377.65 918.51 313.89"/><path class="i" d="M934.45,329.83h63.76m-63.76,63.76v-63.76l-15.94-15.94"/></g><g><polygon class="g" points="1109.8 313.89 1173.56 313.89 1189.5 329.83 1189.5 393.59 1125.74 393.59 1109.8 377.65 1109.8 313.89"/><polygon class="i" points="1109.8 313.89 1173.56 313.89 1189.5 329.83 1189.5 393.59 1125.74 393.59 1109.8 377.65 1109.8 313.89"/><polygon class="b" points="1109.8 313.89 1173.56 313.89 1189.5 329.83 1125.74 329.83 1109.8 313.89"/><polygon class="c" points="1109.8 313.89 1125.74 329.83 1125.74 393.59 1109.8 377.65 1109.8 313.89"/><path class="i" d="M1125.74,329.83h63.76m-63.76,63.76v-63.76l-15.94-15.94"/></g><g><line class="i" x1="1304.36" y1="149.87" x2="1492.34" y2="149.87"/><polygon class="d" points="1305.82 154.86 1297.18 149.87 1305.82 144.89 1305.82 154.86"/></g><g><line class="i" x1="101.42" y1="18.87" x2="503.25" y2="235.24"/><polygon class="d" points="100.34 23.95 95.1 15.47 105.07 15.17 100.34 23.95"/><polygon class="d" points="499.6 238.94 509.56 238.64 504.33 230.16 499.6 238.94"/></g><g><path class="d" d="M297.5,113.14c-1.37-.74-2.37-1.66-3.01-2.78-.64-1.12-.93-2.35-.86-3.69,.07-1.34,.48-2.72,1.24-4.14,.76-1.41,1.68-2.52,2.77-3.31s2.27-1.23,3.56-1.31c1.28-.08,2.61,.25,3.98,.98,1.58,.85,2.67,1.95,3.27,3.31,.61,1.36,.75,2.82,.43,4.38l-2.3-.54c.25-1.1,.18-2.11-.21-3.02-.39-.91-1.12-1.66-2.21-2.24-.97-.52-1.89-.74-2.78-.65s-1.7,.44-2.45,1.05c-.75,.61-1.4,1.44-1.97,2.48-.57,1.04-.9,2.04-1,3s.06,1.83,.48,2.62c.41,.79,1.1,1.44,2.07,1.96,1.08,.58,2.11,.78,3.09,.6,.98-.18,1.85-.67,2.63-1.48l1.72,1.63c-1.13,1.13-2.43,1.82-3.89,2.06s-2.99-.06-4.56-.91Z"/><path class="d" d="M308.57,119.1c-.76-.41-1.32-.89-1.68-1.45-.36-.56-.55-1.14-.56-1.75s.13-1.19,.43-1.75c.28-.52,.62-.93,1.01-1.22,.39-.29,.85-.48,1.36-.56s1.07-.07,1.69,.05c.53,.11,1.11,.27,1.74,.48,.63,.21,1.29,.44,1.97,.7,.68,.25,1.36,.51,2.04,.75h-.94c.45-.79,.6-1.48,.46-2.05-.14-.58-.64-1.1-1.49-1.56-.54-.29-1.1-.43-1.68-.42-.58,0-1.12,.25-1.61,.73l-1.55-1.57c.73-.74,1.59-1.18,2.58-1.32,.99-.14,2.08,.12,3.26,.75,.92,.49,1.63,1.08,2.15,1.76,.51,.68,.74,1.44,.69,2.29-.02,.42-.1,.83-.27,1.23-.16,.39-.36,.81-.59,1.24l-3.4,6.32-1.76-.95,1.26-2.35,.18,.49c-.85,.56-1.7,.85-2.56,.88-.86,.03-1.77-.21-2.73-.73Zm1.23-1.43c.56,.3,1.1,.46,1.61,.48s.98-.06,1.39-.24c.41-.18,.75-.41,1.01-.71,.27-.25,.52-.55,.74-.93,.22-.37,.39-.67,.51-.9l.52,.59c-.68-.24-1.29-.46-1.85-.66-.55-.2-1.06-.38-1.51-.53-.45-.15-.87-.26-1.25-.33-.32-.05-.63-.07-.91-.05-.28,.02-.54,.09-.76,.21-.23,.12-.41,.32-.56,.59-.14,.27-.21,.55-.2,.84,.01,.3,.12,.58,.32,.86,.2,.28,.51,.53,.94,.76Z"/><path class="d" d="M320.42,125.47c-1.25-.67-2.12-1.49-2.6-2.47-.49-.97-.55-2.01-.19-3.1l2.2,.78c-.16,.6-.09,1.18,.2,1.73,.29,.55,.78,1.01,1.47,1.38,.62,.33,1.17,.47,1.66,.41,.49-.06,.85-.32,1.09-.76,.14-.26,.19-.5,.15-.73-.04-.23-.21-.52-.53-.88-.31-.36-.82-.86-1.5-1.51-.76-.7-1.32-1.32-1.7-1.86s-.58-1.05-.61-1.51c-.03-.47,.09-.95,.36-1.45,.33-.62,.79-1.07,1.37-1.36s1.23-.39,1.97-.32,1.5,.32,2.31,.75c.79,.42,1.42,.92,1.9,1.5,.48,.58,.79,1.2,.93,1.85,.14,.66,.08,1.31-.17,1.96l-2.23-.72c.2-.53,.17-1.04-.06-1.54-.24-.5-.67-.93-1.28-1.29-.59-.35-1.13-.51-1.62-.49-.49,.02-.85,.23-1.06,.62-.12,.23-.16,.46-.1,.7,.06,.24,.25,.54,.58,.9s.85,.87,1.54,1.5c.74,.69,1.29,1.3,1.66,1.84,.36,.54,.55,1.06,.57,1.54,.02,.49-.11,1-.4,1.52-.55,1.01-1.34,1.61-2.39,1.79-1.05,.18-2.22-.08-3.52-.78Z"/><path class="d" d="M331.06,131.21c-1.05-.57-1.82-1.28-2.3-2.15-.48-.86-.7-1.81-.65-2.84,.05-1.03,.35-2.06,.91-3.1,.58-1.05,1.28-1.88,2.12-2.48,.84-.6,1.75-.93,2.74-.99,.99-.06,2,.18,3.04,.74,1.12,.6,1.93,1.4,2.42,2.38,.5,.99,.61,2.03,.34,3.14l-2.28-.49c.11-.68,.03-1.3-.24-1.86-.28-.56-.7-1-1.28-1.31-.65-.35-1.27-.49-1.85-.4-.58,.08-1.12,.33-1.61,.76-.49,.42-.92,.97-1.3,1.65-.56,1.06-.78,2.05-.65,2.96,.13,.91,.66,1.62,1.6,2.12,.64,.34,1.24,.47,1.79,.39,.55-.08,1.08-.34,1.59-.78l1.76,1.56c-.88,.82-1.84,1.29-2.9,1.41-1.06,.12-2.14-.12-3.24-.71Z"/><path class="d" d="M340.37,136.22c-.76-.41-1.32-.89-1.68-1.45-.36-.56-.55-1.14-.56-1.75-.01-.61,.13-1.19,.43-1.75,.28-.52,.62-.93,1.01-1.22,.39-.29,.85-.48,1.36-.56s1.07-.07,1.69,.05c.53,.11,1.11,.27,1.74,.48,.63,.21,1.29,.44,1.97,.69,.68,.25,1.36,.51,2.04,.75h-.94c.45-.79,.6-1.48,.46-2.05-.14-.58-.64-1.1-1.49-1.56-.54-.29-1.1-.43-1.68-.42s-1.12,.25-1.61,.73l-1.55-1.57c.73-.74,1.59-1.18,2.58-1.32,.99-.14,2.08,.12,3.26,.75,.92,.5,1.63,1.08,2.15,1.76s.74,1.44,.69,2.29c-.02,.42-.1,.83-.27,1.23-.16,.39-.36,.81-.59,1.24l-3.4,6.32-1.76-.95,1.26-2.35,.18,.49c-.85,.56-1.7,.85-2.56,.88-.86,.03-1.77-.21-2.73-.73Zm1.23-1.43c.56,.3,1.1,.46,1.61,.48s.98-.06,1.39-.24c.41-.18,.75-.41,1.01-.71,.27-.25,.52-.55,.74-.93,.22-.37,.39-.67,.51-.9l.52,.58c-.68-.24-1.29-.46-1.85-.66s-1.06-.38-1.51-.53c-.45-.15-.87-.26-1.25-.33-.32-.05-.63-.07-.91-.05-.28,.02-.54,.09-.76,.21-.23,.12-.41,.32-.56,.59-.14,.27-.21,.55-.2,.84,.01,.3,.12,.58,.32,.86s.51,.53,.94,.76Z"/><path class="d" d="M352.37,142.68c-.96-.51-1.65-1.2-2.09-2.04-.44-.85-.62-1.78-.56-2.81,.07-1.02,.38-2.05,.93-3.07,.56-1.03,1.24-1.85,2.06-2.46,.82-.61,1.7-.96,2.66-1.06,.95-.09,1.91,.12,2.87,.63,.97,.52,1.66,1.2,2.07,2.03,.41,.83,.56,1.74,.46,2.74-.1,1-.43,2.01-.98,3.04-.55,1.03-1.22,1.86-2,2.49s-1.63,1.01-2.56,1.13-1.87-.08-2.86-.61Zm1.24-1.65c.65,.35,1.27,.48,1.85,.39,.58-.09,1.11-.35,1.59-.8,.48-.44,.92-1.02,1.3-1.73,.38-.71,.62-1.39,.72-2.04,.1-.65,.03-1.23-.21-1.75-.24-.52-.67-.95-1.29-1.28-.66-.36-1.29-.49-1.89-.39-.6,.09-1.15,.36-1.65,.79-.5,.43-.93,.99-1.29,1.66-.36,.68-.59,1.35-.68,2-.09,.66-.01,1.26,.23,1.81,.24,.55,.68,.99,1.31,1.33Zm1.97,3.01l3.97-7.38-.23-.12,3.39-6.3,1.99,1.07-7.37,13.68-1.77-.95Z"/><path class="d" d="M364.4,149.16c-1.02-.55-1.79-1.25-2.32-2.11-.53-.86-.79-1.81-.79-2.84,0-1.03,.29-2.07,.86-3.13,.6-1.12,1.34-1.98,2.2-2.58,.86-.6,1.79-.92,2.79-.96s1.99,.2,2.99,.74c1.04,.56,1.8,1.28,2.28,2.16s.65,1.86,.54,2.95c-.12,1.09-.54,2.23-1.28,3.42l-1.99-1.07,.39-.72c.63-1.2,.88-2.2,.74-3.01-.13-.81-.65-1.45-1.55-1.94-.99-.54-1.91-.62-2.75-.27-.84,.36-1.58,1.13-2.21,2.31-.61,1.13-.83,2.13-.66,3.02,.17,.89,.72,1.58,1.67,2.09,.62,.33,1.23,.48,1.84,.44,.61-.04,1.18-.25,1.71-.64l1.62,1.67c-.89,.7-1.88,1.09-2.96,1.16-1.08,.07-2.12-.17-3.11-.7Zm-1.04-6.82l.83-1.55,7.32,3.94-.83,1.55-7.32-3.94Z"/></g><g><line class="i" x1="734.39" y1="626.33" x2="911.33" y2="626.33"/><polygon class="d" points="735.85 631.32 727.22 626.33 735.85 621.35 735.85 631.32"/><polygon class="d" points="909.87 631.32 918.51 626.33 909.87 621.35 909.87 631.32"/></g><g><path class="d" d="M798.68,651.62v-15.54h6.11c.99,0,1.81,.2,2.48,.6,.67,.4,1.17,.92,1.51,1.56s.51,1.31,.51,2.01c0,.86-.21,1.59-.63,2.2s-.99,1.03-1.7,1.25l-.02-.53c.99,.24,1.75,.72,2.29,1.43,.53,.71,.8,1.53,.8,2.48s-.18,1.71-.54,2.38c-.36,.68-.89,1.2-1.59,1.58-.69,.38-1.53,.57-2.52,.57h-6.69Zm2.29-9.19h3.79c.42,0,.79-.08,1.13-.25,.33-.17,.6-.41,.8-.73,.2-.32,.3-.71,.3-1.16,0-.6-.2-1.1-.6-1.49-.4-.39-.94-.58-1.62-.58h-3.79v4.22Zm0,7.04h4.06c.51,0,.97-.1,1.38-.29s.73-.47,.96-.84,.35-.8,.35-1.3c0-.47-.1-.89-.31-1.27-.2-.38-.5-.68-.88-.9-.39-.22-.84-.33-1.35-.33h-4.2v4.92Z"/><path class="d" d="M812.16,651.62v-11.65h2.01v2.83l-.28-.37c.14-.37,.33-.72,.56-1.03,.23-.31,.5-.57,.8-.77,.29-.22,.62-.38,.99-.5s.74-.19,1.12-.22c.38-.03,.75,0,1.1,.06v2.11c-.38-.1-.8-.13-1.27-.09s-.89,.19-1.28,.44c-.37,.24-.66,.52-.87,.86-.21,.34-.37,.71-.46,1.13s-.14,.85-.14,1.31v5.88h-2.28Z"/><path class="d" d="M823.79,651.94c-.86,0-1.59-.16-2.17-.48-.58-.32-1.02-.74-1.32-1.27-.3-.53-.45-1.11-.45-1.74,0-.59,.1-1.11,.31-1.55,.21-.45,.52-.83,.93-1.14,.41-.31,.91-.57,1.51-.76,.52-.15,1.1-.28,1.76-.4,.65-.12,1.34-.22,2.07-.32s1.44-.2,2.15-.3l-.82,.45c.01-.91-.18-1.59-.58-2.03-.4-.44-1.08-.66-2.05-.66-.61,0-1.17,.14-1.68,.43-.51,.28-.87,.75-1.07,1.41l-2.1-.65c.29-1,.84-1.79,1.64-2.38,.81-.59,1.89-.88,3.23-.88,1.04,0,1.95,.18,2.72,.53,.77,.36,1.34,.92,1.7,1.69,.19,.38,.3,.78,.35,1.21,.04,.42,.06,.88,.06,1.37v7.17h-2v-2.67l.39,.35c-.48,.89-1.09,1.56-1.84,1.99-.75,.44-1.66,.65-2.75,.65Zm.4-1.84c.64,0,1.19-.11,1.65-.34s.83-.52,1.11-.87,.46-.72,.55-1.1c.12-.34,.19-.73,.21-1.17,.02-.43,.03-.78,.03-1.04l.73,.27c-.71,.11-1.36,.21-1.94,.29-.58,.09-1.11,.17-1.58,.25-.47,.08-.89,.18-1.26,.3-.31,.11-.58,.24-.83,.39-.24,.15-.43,.33-.57,.55-.14,.21-.21,.48-.21,.79s.08,.58,.23,.84c.15,.26,.38,.46,.69,.61,.31,.15,.7,.23,1.19,.23Z"/><path class="d" d="M832.78,651.62v-11.65h2.02v3.37h.27v8.29h-2.29Zm8.19,0v-5.73c0-.45-.04-.92-.11-1.4-.08-.48-.22-.92-.43-1.33-.21-.41-.51-.74-.9-.99-.38-.25-.89-.38-1.5-.38-.4,0-.78,.07-1.14,.2-.36,.13-.67,.35-.94,.64s-.48,.68-.64,1.17c-.15,.48-.23,1.07-.23,1.76l-1.4-.53c0-1.06,.2-1.99,.59-2.8,.4-.81,.96-1.44,1.71-1.89,.74-.45,1.64-.68,2.69-.68,.81,0,1.48,.13,2.03,.39s.99,.6,1.33,1.02c.34,.42,.6,.88,.78,1.38,.18,.5,.3,.98,.37,1.46s.1,.89,.1,1.25v6.47h-2.29Z"/><path class="d" d="M851.04,651.94c-1.19,0-2.21-.27-3.04-.8s-1.47-1.26-1.92-2.19-.67-1.98-.67-3.16c0-1.2,.24-2.26,.69-3.19s1.1-1.65,1.94-2.17c.84-.53,1.85-.79,3.03-.79,1.27,0,2.36,.32,3.26,.95,.9,.63,1.5,1.5,1.79,2.6l-2.24,.65c-.22-.65-.59-1.16-1.09-1.53-.51-.36-1.09-.54-1.74-.54-.74,0-1.35,.17-1.82,.52-.48,.35-.83,.83-1.06,1.43-.23,.6-.35,1.29-.36,2.07,0,1.2,.28,2.17,.83,2.91,.54,.74,1.35,1.11,2.41,1.11,.73,0,1.31-.17,1.76-.5,.45-.33,.79-.81,1.03-1.44l2.29,.54c-.38,1.14-1.01,2.01-1.89,2.62-.88,.61-1.94,.91-3.19,.91Z"/><path class="d" d="M858.32,651.62v-15.54h2.02v8.38h.27v7.15h-2.29Zm8.19,0v-5.73c0-.45-.04-.92-.11-1.4-.08-.48-.22-.92-.43-1.33-.21-.41-.51-.74-.9-.99-.38-.25-.89-.38-1.5-.38-.4,0-.78,.07-1.14,.2-.36,.13-.67,.35-.94,.64s-.48,.68-.64,1.17c-.15,.48-.23,1.07-.23,1.76l-1.4-.53c0-1.06,.2-1.99,.59-2.8,.4-.81,.96-1.44,1.71-1.89,.74-.45,1.64-.68,2.69-.68,.81,0,1.48,.13,2.03,.39s.99,.6,1.33,1.02c.34,.42,.6,.88,.78,1.38,.18,.5,.3,.98,.37,1.46s.1,.89,.1,1.25v6.47h-2.29Z"/></g><line class="i" x1="770.02" y1="393.59" x2="770.02" y2="514.74"/><line class="i" x1="770.02" y1="184.77" x2="770.02" y2="313.89"/><line class="i" x1="998.21" y1="451.78" x2="1030.09" y2="451.78"/><polygon class="b" points="918.51 411.93 982.27 411.93 998.21 427.87 934.45 427.87 918.51 411.93"/><g><polygon class="f" points="918.51 411.93 982.27 411.93 998.21 427.87 998.21 491.63 934.45 491.63 918.51 475.69 918.51 411.93"/><polygon class="i" points="918.51 411.93 982.27 411.93 998.21 427.87 998.21 491.63 934.45 491.63 918.51 475.69 918.51 411.93"/><polygon class="c" points="918.51 411.93 934.45 427.87 934.45 491.63 918.51 475.69 918.51 411.93"/><path class="i" d="M934.45,427.87h63.76m-63.76,63.76v-63.76l-15.94-15.94"/></g><g><polygon class="f" points="918.51 215.85 982.27 215.85 998.21 231.79 998.21 295.56 934.45 295.56 918.51 279.61 918.51 215.85"/><polygon class="i" points="918.51 215.85 982.27 215.85 998.21 231.79 998.21 295.56 934.45 295.56 918.51 279.61 918.51 215.85"/><polygon class="c" points="918.51 215.85 934.45 231.79 934.45 295.56 918.51 279.61 918.51 215.85"/><path class="i" d="M934.45,231.79h63.76m-63.76,63.76v-63.76l-15.94-15.94"/></g><polygon class="f" points="1014.15 411.93 1077.92 411.93 1093.86 427.87 1093.86 491.63 1030.09 491.63 1014.15 475.69 1014.15 411.93"/><polygon class="i" points="1014.15 411.93 1077.92 411.93 1093.86 427.87 1093.86 491.63 1030.09 491.63 1014.15 475.69 1014.15 411.93"/><polygon class="b" points="1014.15 411.93 1077.92 411.93 1093.86 427.87 1030.09 427.87 1014.15 411.93"/><polygon class="c" points="1014.15 411.93 1030.09 427.87 1030.09 491.63 1014.15 475.69 1014.15 411.93"/><path class="i" d="M1030.09,427.87h63.76m-63.76,63.76v-63.76l-15.94-15.94"/><line class="i" x1="998.21" y1="255.7" x2="1030.09" y2="255.7"/><polygon class="f" points="1014.15 215.85 1077.92 215.85 1093.86 231.79 1093.86 295.56 1030.09 295.56 1014.15 279.61 1014.15 215.85"/><polygon class="i" points="1014.15 215.85 1077.92 215.85 1093.86 231.79 1093.86 295.56 1030.09 295.56 1014.15 279.61 1014.15 215.85"/><polygon class="b" points="1014.15 215.85 1077.92 215.85 1093.86 231.79 1030.09 231.79 1014.15 215.85"/><polygon class="c" points="1014.15 215.85 1030.09 231.79 1030.09 295.56 1014.15 279.61 1014.15 215.85"/><path class="i" d="M1030.09,231.79h63.76m-63.76,63.76v-63.76l-15.94-15.94"/><g><polygon class="e" points="137.4 107.37 201.17 107.37 217.11 123.31 217.11 187.07 153.34 187.07 137.4 171.13 137.4 107.37"/><polygon class="i" points="137.4 107.37 201.17 107.37 217.11 123.31 217.11 187.07 153.34 187.07 137.4 171.13 137.4 107.37"/><polygon class="b" points="137.4 107.37 201.17 107.37 217.11 123.31 153.34 123.31 137.4 107.37"/><polygon class="c" points="137.4 107.37 153.34 123.31 153.34 187.07 137.4 171.13 137.4 107.37"/><path class="i" d="M153.34,123.31h63.76m-63.76,63.76v-63.76l-15.94-15.94"/></g><g><polygon class="e" points="328.69 210.51 392.46 210.51 408.4 226.45 408.4 290.21 344.64 290.21 328.69 274.27 328.69 210.51"/><polygon class="i" points="328.69 210.51 392.46 210.51 408.4 226.45 408.4 290.21 344.64 290.21 328.69 274.27 328.69 210.51"/><polygon class="b" points="328.69 210.51 392.46 210.51 408.4 226.45 344.64 226.45 328.69 210.51"/><polygon class="c" points="328.69 210.51 344.64 226.45 344.64 290.21 328.69 274.27 328.69 210.51"/><path class="i" d="M344.64,226.45h63.76m-63.76,63.76v-63.76l-15.94-15.94"/></g><g><polygon class="e" points="424.34 262.08 488.1 262.08 504.04 278.02 504.04 341.78 440.28 341.78 424.34 325.84 424.34 262.08"/><polygon class="i" points="424.34 262.08 488.1 262.08 504.04 278.02 504.04 341.78 440.28 341.78 424.34 325.84 424.34 262.08"/><polygon class="b" points="424.34 262.08 488.1 262.08 504.04 278.02 440.28 278.02 424.34 262.08"/><polygon class="c" points="424.34 262.08 440.28 278.02 440.28 341.78 424.34 325.84 424.34 262.08"/><path class="i" d="M440.28,278.02h63.76m-63.76,63.76v-63.76l-15.94-15.94"/></g><g><polygon class="e" points="233.05 158.94 296.81 158.94 312.75 174.88 312.75 238.64 248.99 238.64 233.05 222.7 233.05 158.94"/><polygon class="i" points="233.05 158.94 296.81 158.94 312.75 174.88 312.75 238.64 248.99 238.64 233.05 222.7 233.05 158.94"/><polygon class="b" points="233.05 158.94 296.81 158.94 312.75 174.88 248.99 174.88 233.05 158.94"/><polygon class="c" points="233.05 158.94 248.99 174.88 248.99 238.64 233.05 222.7 233.05 158.94"/><path class="i" d="M248.99,174.88h63.76m-63.76,63.76v-63.76l-15.94-15.94"/></g><polygon class="e" points="9.88 47.35 105.52 47.35 121.46 63.29 121.46 158.94 25.82 158.94 9.88 143 9.88 47.35"/><polygon class="i" points="9.88 47.35 105.52 47.35 121.46 63.29 121.46 158.94 25.82 158.94 9.88 143 9.88 47.35"/><polygon class="b" points="9.88 47.35 105.52 47.35 121.46 63.29 25.82 63.29 9.88 47.35"/><polygon class="c" points="9.88 47.35 25.82 63.29 25.82 158.94 9.88 143 9.88 47.35"/><path class="i" d="M25.82,63.29H121.46M25.82,158.94V63.29l-15.94-15.94"/><g><path class="h" d="M40.29,116.96c-.85,0-1.63-.15-2.34-.44s-1.33-.73-1.86-1.29c-.53-.57-.93-1.26-1.23-2.07-.29-.81-.44-1.74-.44-2.77,0-1.36,.25-2.53,.75-3.51,.5-.98,1.19-1.73,2.07-2.26,.88-.53,1.9-.79,3.05-.79,1.48,0,2.67,.34,3.55,1.03,.88,.69,1.49,1.64,1.81,2.86l-1.86,.33c-.26-.75-.67-1.36-1.24-1.81-.57-.45-1.29-.68-2.16-.68-.89,0-1.64,.19-2.23,.6s-1.04,.97-1.34,1.7-.45,1.57-.46,2.54c0,.96,.14,1.81,.44,2.53s.75,1.28,1.35,1.69,1.35,.61,2.24,.61c.72,.01,1.34-.12,1.85-.4,.52-.28,.93-.69,1.23-1.22,.3-.54,.5-1.2,.59-1.98h-2.45v-1.47h4.4c.01,.11,.02,.24,.03,.42,0,.17,0,.28,0,.33,0,1.17-.22,2.21-.67,3.13-.45,.92-1.1,1.64-1.96,2.16-.86,.52-1.9,.79-3.12,.79Z"/><path class="h" d="M47.8,116.69v-12.62h8.06v1.73h-6.23v3.54h5.18v1.73h-5.18v3.9h6.23v1.73h-8.06Z"/><path class="h" d="M57.97,116.69v-12.62h1.86l6.21,9.38v-9.38h1.86v12.62h-1.86l-6.21-9.39v9.39h-1.86Z"/><path class="h" d="M70.35,116.69v-12.62h8.06v1.73h-6.23v3.54h5.18v1.73h-5.18v3.9h6.23v1.73h-8.06Z"/><path class="h" d="M85.1,116.96c-.91,0-1.72-.16-2.45-.47s-1.33-.76-1.8-1.34c-.47-.58-.78-1.27-.92-2.07l1.91-.29c.19,.77,.6,1.37,1.21,1.8,.61,.43,1.33,.64,2.15,.64,.51,0,.98-.08,1.4-.24,.43-.16,.77-.39,1.03-.69,.26-.3,.39-.66,.39-1.08,0-.23-.04-.43-.12-.61-.08-.17-.19-.33-.32-.46s-.3-.25-.5-.34c-.2-.1-.41-.18-.64-.25l-3.24-.96c-.32-.09-.64-.21-.96-.36-.33-.15-.63-.34-.9-.59s-.49-.54-.66-.9c-.17-.36-.25-.8-.25-1.31,0-.78,.2-1.44,.6-1.98,.4-.54,.94-.95,1.63-1.23,.68-.28,1.45-.42,2.3-.42,.85,.01,1.62,.16,2.29,.46s1.24,.71,1.68,1.26c.45,.55,.76,1.21,.92,1.99l-1.96,.33c-.09-.47-.28-.88-.56-1.22s-.64-.6-1.05-.79c-.42-.18-.87-.28-1.35-.29-.47-.01-.9,.06-1.28,.21s-.7,.37-.93,.64c-.23,.27-.35,.59-.35,.95s.1,.63,.31,.85c.2,.22,.46,.39,.76,.51,.3,.13,.6,.23,.9,.31l2.33,.66c.29,.08,.62,.19,1,.33s.73,.33,1.08,.57c.35,.25,.64,.57,.86,.98s.34,.92,.34,1.53-.13,1.2-.39,1.68-.61,.89-1.06,1.21c-.45,.32-.96,.57-1.55,.73-.58,.16-1.2,.25-1.85,.25Z"/><path class="h" d="M91.98,116.69v-12.62h1.83v12.62h-1.83Z"/><path class="h" d="M101.02,116.96c-.91,0-1.72-.16-2.45-.47s-1.33-.76-1.8-1.34c-.47-.58-.78-1.27-.92-2.07l1.91-.29c.19,.77,.6,1.37,1.21,1.8,.61,.43,1.33,.64,2.15,.64,.51,0,.98-.08,1.4-.24,.43-.16,.77-.39,1.03-.69,.26-.3,.39-.66,.39-1.08,0-.23-.04-.43-.12-.61-.08-.17-.19-.33-.32-.46s-.3-.25-.5-.34c-.2-.1-.41-.18-.64-.25l-3.24-.96c-.32-.09-.64-.21-.96-.36-.33-.15-.63-.34-.9-.59s-.49-.54-.66-.9c-.17-.36-.25-.8-.25-1.31,0-.78,.2-1.44,.6-1.98,.4-.54,.94-.95,1.63-1.23,.68-.28,1.45-.42,2.3-.42,.85,.01,1.62,.16,2.29,.46s1.24,.71,1.68,1.26c.45,.55,.76,1.21,.92,1.99l-1.96,.33c-.09-.47-.28-.88-.56-1.22s-.64-.6-1.05-.79c-.42-.18-.87-.28-1.35-.29-.47-.01-.9,.06-1.28,.21s-.7,.37-.93,.64c-.23,.27-.35,.59-.35,.95s.1,.63,.31,.85c.2,.22,.46,.39,.76,.51,.3,.13,.6,.23,.9,.31l2.33,.66c.29,.08,.62,.19,1,.33s.73,.33,1.08,.57c.35,.25,.64,.57,.86,.98s.34,.92,.34,1.53-.13,1.2-.39,1.68-.61,.89-1.06,1.21c-.45,.32-.96,.57-1.55,.73-.58,.16-1.2,.25-1.85,.25Z"/></g><g><path class="h" d="M672.16,365.7v-10.61l-2.38,1.45v-2.04l2.38-1.42h1.87v12.62h-1.87Z"/><path class="h" d="M681.7,365.96c-.82,0-1.55-.19-2.21-.58s-1.17-.92-1.56-1.6c-.38-.68-.57-1.45-.57-2.31v-4.02c0-.92,.19-1.72,.57-2.42,.38-.7,.91-1.24,1.59-1.62s1.47-.58,2.35-.58c.67,0,1.29,.13,1.88,.38,.58,.25,1.09,.62,1.52,1.12l-1.34,1.25c-.24-.31-.54-.56-.9-.74-.36-.18-.74-.28-1.15-.28-.53,0-.99,.12-1.38,.37s-.71,.57-.93,.98c-.22,.4-.34,.84-.34,1.3v2.31l-.36-.4c.36-.47,.81-.85,1.35-1.12,.54-.27,1.11-.41,1.73-.41,.78,0,1.48,.18,2.1,.55s1.1,.86,1.46,1.49c.35,.62,.53,1.33,.53,2.11s-.2,1.5-.59,2.14c-.39,.64-.92,1.15-1.58,1.53-.66,.38-1.38,.57-2.16,.57Zm0-1.76c.46,0,.87-.11,1.25-.33,.37-.22,.67-.52,.89-.89s.33-.79,.33-1.25-.11-.87-.33-1.25c-.22-.37-.52-.67-.89-.89-.37-.22-.79-.33-1.25-.33s-.87,.11-1.25,.33c-.38,.22-.68,.52-.9,.89-.22,.37-.33,.79-.33,1.25s.11,.86,.33,1.24c.22,.37,.52,.67,.89,.9,.37,.22,.79,.34,1.25,.34Z"/></g><path class="h" d="M772.95,365.96c-.82,0-1.55-.17-2.19-.5s-1.13-.79-1.49-1.38c-.36-.59-.54-1.27-.54-2.05,0-.72,.17-1.39,.51-1.99,.34-.6,.84-1.08,1.52-1.42l-.04,.63c-.54-.33-.95-.75-1.24-1.25-.29-.5-.43-1.06-.43-1.68,0-.72,.17-1.34,.5-1.87,.33-.53,.79-.93,1.38-1.22,.59-.29,1.26-.43,2.02-.43s1.43,.14,2.02,.43c.58,.29,1.04,.69,1.38,1.22,.33,.53,.5,1.15,.5,1.87,0,.62-.14,1.18-.41,1.67-.27,.5-.7,.92-1.26,1.25l-.03-.61c.67,.33,1.17,.79,1.52,1.4s.52,1.27,.52,1.99c0,.78-.18,1.46-.54,2.05-.36,.59-.86,1.05-1.5,1.38s-1.37,.5-2.18,.5Zm0-1.75c.68,0,1.23-.19,1.65-.56s.63-.91,.63-1.63-.21-1.26-.63-1.63-.97-.57-1.65-.57-1.24,.19-1.65,.57c-.42,.38-.63,.92-.63,1.63s.21,1.25,.63,1.63,.97,.56,1.65,.56Zm0-6.14c.58,0,1.05-.14,1.41-.43,.36-.29,.54-.73,.54-1.32s-.18-1.03-.54-1.33-.83-.44-1.41-.44-1.05,.15-1.41,.44c-.36,.29-.54,.74-.54,1.33s.18,1.03,.54,1.32c.36,.29,.83,.43,1.41,.43Z"/><path class="h" d="M867.85,365.7l4.44-10.88h-5.62v-1.75h7.59v1.75l-4.43,10.88h-1.98Z"/><path class="h" d="M963.52,365.93c-.62,0-1.21-.12-1.76-.36-.55-.24-1.02-.57-1.42-1.01s-.69-.96-.87-1.55l1.77-.49c.17,.54,.46,.96,.89,1.25s.89,.43,1.4,.42c.46,0,.87-.11,1.22-.32,.35-.21,.62-.5,.82-.85,.2-.36,.3-.77,.3-1.24,0-.7-.22-1.28-.65-1.74-.44-.46-1-.68-1.71-.68-.2,0-.4,.03-.61,.09-.21,.06-.4,.13-.58,.23l-.86-1.45,4.45-3.94,.19,.53h-6.14v-1.75h7.59v1.75l-3.7,3.56-.02-.6c.79,0,1.48,.18,2.07,.53,.58,.35,1.04,.83,1.35,1.44,.32,.6,.48,1.28,.48,2.03,0,.81-.19,1.52-.57,2.15s-.88,1.12-1.52,1.47c-.63,.36-1.35,.54-2.13,.54Z"/><path class="h" d="M1056.83,365.69v-1.63l5.5-4.93c.44-.39,.75-.77,.91-1.12,.16-.36,.24-.71,.24-1.07,0-.45-.1-.85-.3-1.21-.2-.36-.47-.64-.82-.85-.35-.21-.75-.32-1.21-.32s-.88,.11-1.25,.33-.65,.51-.85,.87c-.21,.36-.3,.75-.3,1.17h-1.88c0-.82,.18-1.54,.56-2.15,.37-.62,.88-1.1,1.53-1.45s1.39-.52,2.23-.52,1.51,.18,2.14,.54,1.13,.85,1.49,1.48c.37,.62,.55,1.34,.55,2.14,0,.58-.08,1.07-.23,1.47s-.38,.78-.68,1.12-.68,.72-1.14,1.12l-4.24,3.79-.2-.53h6.5v1.74h-8.54Z"/><path class="h" d="M1157.74,365.7v-10.61l-2.38,1.45v-2.04l2.38-1.42h1.87v12.62h-1.87Z"/><path class="h" d="M774.02,157.93c-.82,0-1.55-.19-2.21-.58s-1.17-.92-1.56-1.6c-.38-.68-.57-1.45-.57-2.31v-4.02c0-.92,.19-1.72,.57-2.42,.38-.7,.91-1.24,1.59-1.62s1.47-.58,2.35-.58c.67,0,1.29,.12,1.88,.38,.58,.25,1.09,.62,1.52,1.12l-1.34,1.25c-.24-.31-.54-.56-.9-.74-.36-.18-.74-.28-1.15-.28-.53,0-.99,.12-1.38,.37s-.71,.57-.93,.98c-.22,.4-.34,.84-.34,1.3v2.31l-.36-.4c.36-.47,.81-.85,1.35-1.12,.54-.28,1.11-.41,1.73-.41,.78,0,1.48,.18,2.1,.55s1.1,.86,1.46,1.49,.53,1.33,.53,2.11-.2,1.5-.59,2.14c-.39,.64-.92,1.15-1.58,1.53-.66,.38-1.38,.57-2.16,.57Zm0-1.76c.46,0,.87-.11,1.25-.33,.37-.22,.67-.52,.89-.89s.33-.79,.33-1.24-.11-.87-.33-1.25c-.22-.37-.52-.67-.89-.89-.37-.22-.79-.33-1.25-.33s-.87,.11-1.25,.33-.68,.52-.9,.89c-.22,.38-.33,.79-.33,1.25s.11,.86,.33,1.24c.22,.37,.52,.67,.89,.9s.79,.34,1.25,.34Z"/><path class="h" d="M870.54,157.93c-.65,0-1.25-.13-1.81-.4-.56-.27-1.04-.63-1.43-1.1-.4-.47-.68-1.01-.85-1.63l1.76-.47c.1,.37,.27,.7,.51,.97s.53,.49,.85,.63c.33,.15,.67,.22,1.02,.22,.46,0,.88-.11,1.26-.33,.38-.22,.68-.52,.89-.89s.33-.79,.33-1.24-.11-.88-.34-1.25c-.22-.37-.53-.67-.9-.89-.38-.22-.79-.33-1.24-.33-.51,0-.95,.1-1.31,.31s-.63,.44-.83,.71l-1.59-.56,.38-6.63h6.81v1.73h-5.87l.75-.69-.31,4.97-.36-.46c.33-.33,.73-.59,1.19-.76,.46-.18,.92-.26,1.38-.26,.78,0,1.48,.18,2.1,.54,.62,.36,1.1,.85,1.46,1.48,.36,.62,.54,1.33,.54,2.12s-.2,1.49-.61,2.13-.94,1.15-1.6,1.53c-.67,.38-1.39,.57-2.17,.57Z"/><path class="h" d="M769.63,567.41v-1.63l5.5-4.93c.44-.39,.75-.77,.91-1.12,.16-.36,.24-.71,.24-1.07,0-.45-.1-.85-.3-1.21-.2-.36-.47-.64-.82-.86-.35-.21-.75-.32-1.21-.32s-.88,.11-1.25,.33-.65,.51-.85,.87c-.21,.36-.3,.75-.3,1.17h-1.88c0-.82,.18-1.54,.56-2.15,.37-.62,.88-1.1,1.53-1.45s1.39-.52,2.23-.52,1.51,.18,2.14,.54,1.13,.85,1.49,1.48c.37,.62,.55,1.34,.55,2.14,0,.58-.08,1.07-.23,1.47-.15,.4-.38,.78-.68,1.12-.3,.35-.68,.72-1.14,1.12l-4.24,3.79-.2-.53h6.5v1.75h-8.54Z"/><path class="h" d="M870.41,567.42v-10.61l-2.38,1.45v-2.04l2.38-1.42h1.87v12.62h-1.87Z"/><path class="h" d="M967.62,157.67v-2.2h-5.7v-1.74l4.1-8.69h2.09l-4.1,8.69h3.6v-3.42h1.86v3.42h1.25v1.74h-1.25v2.2h-1.86Z"/><path class="h" d="M1060.84,157.9c-.62,0-1.21-.12-1.76-.36-.55-.24-1.02-.57-1.42-1.01-.4-.44-.69-.96-.87-1.55l1.77-.49c.17,.54,.46,.96,.89,1.25,.42,.29,.89,.43,1.4,.42,.46,0,.87-.11,1.22-.32,.35-.21,.62-.49,.82-.85,.2-.36,.3-.77,.3-1.24,0-.7-.22-1.28-.65-1.74-.44-.46-1-.68-1.71-.68-.2,0-.4,.03-.61,.09-.21,.06-.4,.13-.58,.23l-.86-1.45,4.45-3.94,.19,.53h-6.14v-1.74h7.59v1.74l-3.7,3.56-.02-.6c.79,0,1.48,.18,2.07,.53,.58,.35,1.04,.83,1.35,1.44,.32,.6,.48,1.28,.48,2.03,0,.81-.19,1.52-.57,2.15s-.88,1.12-1.52,1.47c-.63,.36-1.35,.54-2.13,.54Z"/><path class="h" d="M962.06,268.19v-1.63l5.5-4.93c.44-.39,.75-.77,.91-1.12,.16-.36,.24-.71,.24-1.07,0-.45-.1-.85-.3-1.21-.2-.36-.47-.64-.82-.85-.35-.21-.75-.32-1.21-.32s-.88,.11-1.25,.33-.65,.51-.86,.87-.3,.75-.3,1.17h-1.88c0-.82,.19-1.54,.56-2.15,.37-.62,.88-1.1,1.53-1.45s1.39-.52,2.23-.52,1.51,.18,2.14,.54,1.13,.85,1.49,1.48c.37,.62,.55,1.34,.55,2.14,0,.58-.08,1.07-.23,1.47s-.38,.78-.68,1.12c-.3,.34-.68,.72-1.14,1.12l-4.24,3.79-.2-.53h6.5v1.74h-8.54Z"/><path class="h" d="M1060.83,268.2v-10.61l-2.38,1.45v-2.04l2.38-1.42h1.87v12.62h-1.87Z"/><path class="h" d="M962.06,466.21v-1.63l5.5-4.93c.44-.39,.75-.77,.91-1.12,.16-.36,.24-.71,.24-1.07,0-.45-.1-.85-.3-1.21-.2-.36-.47-.64-.82-.85-.35-.21-.75-.32-1.21-.32s-.88,.11-1.25,.33c-.37,.22-.65,.51-.86,.87s-.3,.75-.3,1.17h-1.88c0-.82,.19-1.54,.56-2.15s.88-1.1,1.53-1.45,1.39-.52,2.23-.52,1.51,.18,2.14,.54,1.13,.85,1.49,1.48c.37,.63,.55,1.34,.55,2.14,0,.58-.08,1.07-.23,1.47s-.38,.78-.68,1.12c-.3,.35-.68,.72-1.14,1.12l-4.24,3.79-.2-.53h6.5v1.75h-8.54Z"/><path class="h" d="M1060.83,466.22v-10.61l-2.38,1.45v-2.04l2.38-1.42h1.87v12.62h-1.87Z"/><path class="h" d="M1153.74,157.66v-1.63l5.5-4.93c.44-.39,.75-.77,.91-1.12,.16-.36,.24-.71,.24-1.07,0-.45-.1-.85-.3-1.21-.2-.36-.47-.64-.82-.85-.35-.21-.75-.32-1.21-.32s-.88,.11-1.25,.33c-.37,.22-.65,.51-.85,.87-.21,.36-.3,.75-.3,1.17h-1.88c0-.82,.18-1.54,.56-2.15,.37-.62,.88-1.1,1.53-1.45s1.39-.52,2.23-.52,1.51,.18,2.14,.54,1.13,.85,1.49,1.48,.55,1.34,.55,2.14c0,.58-.08,1.07-.23,1.47s-.38,.78-.68,1.12c-.3,.35-.68,.72-1.14,1.12l-4.24,3.79-.2-.53h6.5v1.74h-8.54Z"/><path class="h" d="M1253,157.67v-10.61l-2.38,1.45v-2.04l2.38-1.42h1.87v12.62h-1.87Z"/><g><path class="d" d="M1342.3,79.87v-15.54h2.04l5.63,11.68,5.6-11.68h2.06v15.52h-2.14v-10.63l-5.02,10.64h-1.03l-5.03-10.64v10.64h-2.12Z"/><path class="d" d="M1363.94,80.2c-.86,0-1.59-.16-2.17-.48-.58-.32-1.02-.74-1.32-1.27-.3-.53-.45-1.11-.45-1.74,0-.59,.1-1.11,.31-1.55,.21-.45,.52-.83,.93-1.14s.91-.57,1.51-.76c.52-.15,1.1-.28,1.76-.4,.65-.11,1.34-.22,2.07-.32s1.44-.2,2.15-.3l-.82,.45c.01-.91-.18-1.59-.58-2.03-.4-.44-1.08-.66-2.05-.66-.61,0-1.17,.14-1.68,.43-.51,.28-.87,.75-1.07,1.41l-2.1-.65c.29-1,.84-1.79,1.64-2.38,.81-.59,1.89-.88,3.23-.88,1.04,0,1.95,.18,2.72,.53,.77,.36,1.34,.92,1.7,1.69,.19,.38,.3,.78,.35,1.21,.04,.42,.06,.88,.06,1.37v7.17h-2v-2.66l.39,.34c-.48,.89-1.09,1.56-1.84,1.99-.75,.44-1.66,.65-2.75,.65Zm.4-1.84c.64,0,1.19-.11,1.65-.34s.83-.52,1.11-.87,.46-.72,.55-1.1c.12-.34,.19-.73,.21-1.17,.02-.43,.03-.78,.03-1.04l.73,.27c-.71,.11-1.36,.21-1.94,.29-.58,.09-1.11,.17-1.58,.25-.47,.08-.89,.18-1.26,.3-.31,.11-.58,.24-.83,.39-.24,.15-.43,.33-.57,.55s-.21,.48-.21,.79,.08,.58,.23,.84c.15,.26,.38,.46,.69,.61,.31,.15,.7,.23,1.19,.23Z"/><path class="d" d="M1373.16,66.31v-2.19h2.25v2.19h-2.25Zm0,13.56v-11.65h2.25v11.65h-2.25Z"/><path class="d" d="M1378.64,79.87v-11.65h2.02v3.37h.27v8.29h-2.29Zm8.19,0v-5.73c0-.45-.04-.92-.11-1.4-.08-.48-.22-.92-.43-1.33-.21-.41-.51-.74-.9-.99s-.89-.38-1.5-.38c-.4,0-.78,.07-1.14,.2-.36,.13-.67,.35-.94,.64s-.48,.68-.64,1.17-.23,1.07-.23,1.76l-1.4-.53c0-1.06,.2-1.99,.59-2.8,.4-.81,.96-1.44,1.71-1.89,.74-.45,1.64-.68,2.69-.68,.81,0,1.48,.13,2.03,.39,.55,.26,.99,.6,1.33,1.02,.34,.42,.6,.88,.78,1.38,.18,.5,.3,.98,.37,1.46s.1,.89,.1,1.25v6.47h-2.29Z"/><path class="d" d="M1402.72,80.2c-1.55,0-2.88-.34-3.97-1.02-1.09-.68-1.93-1.63-2.51-2.84-.58-1.22-.87-2.62-.87-4.23s.29-3.01,.87-4.23c.58-1.22,1.42-2.16,2.51-2.84,1.09-.68,2.42-1.02,3.97-1.02,1.79,0,3.27,.45,4.45,1.36s1.99,2.12,2.45,3.66l-2.29,.61c-.3-1.09-.84-1.94-1.61-2.56-.77-.62-1.77-.93-3-.93-1.1,0-2.02,.25-2.75,.74s-1.29,1.19-1.66,2.08c-.37,.89-.56,1.93-.56,3.12,0,1.19,.17,2.23,.54,3.12s.92,1.59,1.66,2.08c.74,.5,1.66,.74,2.76,.74,1.23,0,2.23-.31,3-.93,.77-.62,1.31-1.47,1.61-2.55l2.29,.62c-.46,1.53-1.28,2.75-2.45,3.66s-2.66,1.36-4.45,1.36Z"/><path class="d" d="M1411.99,79.87v-15.54h2.02v8.38h.27v7.15h-2.29Zm8.19,0v-5.73c0-.45-.04-.92-.11-1.4-.08-.48-.22-.92-.43-1.33-.21-.41-.51-.74-.9-.99s-.89-.38-1.5-.38c-.4,0-.78,.07-1.14,.2-.36,.13-.67,.35-.94,.64s-.48,.68-.64,1.17-.23,1.07-.23,1.76l-1.4-.53c0-1.06,.2-1.99,.59-2.8,.4-.81,.96-1.44,1.71-1.89,.74-.45,1.64-.68,2.69-.68,.81,0,1.48,.13,2.03,.39,.55,.26,.99,.6,1.33,1.02,.34,.42,.6,.88,.78,1.38,.18,.5,.3,.98,.37,1.46s.1,.89,.1,1.25v6.47h-2.29Z"/><path class="d" d="M1428.56,80.2c-.86,0-1.59-.16-2.17-.48-.58-.32-1.02-.74-1.32-1.27-.3-.53-.45-1.11-.45-1.74,0-.59,.1-1.11,.31-1.55,.21-.45,.52-.83,.93-1.14s.91-.57,1.51-.76c.52-.15,1.1-.28,1.76-.4,.65-.11,1.34-.22,2.07-.32s1.44-.2,2.15-.3l-.82,.45c.01-.91-.18-1.59-.58-2.03-.4-.44-1.08-.66-2.05-.66-.61,0-1.17,.14-1.68,.43-.51,.28-.87,.75-1.07,1.41l-2.1-.65c.29-1,.84-1.79,1.64-2.38,.81-.59,1.89-.88,3.23-.88,1.04,0,1.95,.18,2.72,.53,.77,.36,1.34,.92,1.7,1.69,.19,.38,.3,.78,.35,1.21,.04,.42,.06,.88,.06,1.37v7.17h-2v-2.66l.39,.34c-.48,.89-1.09,1.56-1.84,1.99-.75,.44-1.66,.65-2.75,.65Zm.4-1.84c.64,0,1.19-.11,1.65-.34s.83-.52,1.11-.87,.46-.72,.55-1.1c.12-.34,.19-.73,.21-1.17,.02-.43,.03-.78,.03-1.04l.73,.27c-.71,.11-1.36,.21-1.94,.29-.58,.09-1.11,.17-1.58,.25-.47,.08-.89,.18-1.26,.3-.31,.11-.58,.24-.83,.39-.24,.15-.43,.33-.57,.55s-.21,.48-.21,.79,.08,.58,.23,.84c.15,.26,.38,.46,.69,.61,.31,.15,.7,.23,1.19,.23Z"/><path class="d" d="M1437.77,66.31v-2.19h2.25v2.19h-2.25Zm0,13.56v-11.65h2.25v11.65h-2.25Z"/><path class="d" d="M1443.25,79.87v-11.65h2.02v3.37h.27v8.29h-2.29Zm8.19,0v-5.73c0-.45-.04-.92-.11-1.4-.08-.48-.22-.92-.43-1.33-.21-.41-.51-.74-.9-.99s-.89-.38-1.5-.38c-.4,0-.78,.07-1.14,.2-.36,.13-.67,.35-.94,.64s-.48,.68-.64,1.17-.23,1.07-.23,1.76l-1.4-.53c0-1.06,.2-1.99,.59-2.8,.4-.81,.96-1.44,1.71-1.89,.74-.45,1.64-.68,2.69-.68,.81,0,1.48,.13,2.03,.39,.55,.26,.99,.6,1.33,1.02,.34,.42,.6,.88,.78,1.38,.18,.5,.3,.98,.37,1.46s.1,.89,.1,1.25v6.47h-2.29Z"/><path class="d" d="M1337.65,106.09c-.86,0-1.59-.16-2.17-.48-.58-.32-1.02-.75-1.32-1.27-.3-.53-.45-1.11-.45-1.74,0-.59,.1-1.11,.31-1.55s.52-.83,.93-1.14c.41-.31,.91-.57,1.51-.76,.52-.15,1.1-.28,1.76-.4,.65-.12,1.34-.22,2.07-.32,.72-.1,1.44-.2,2.15-.3l-.82,.45c.01-.91-.18-1.59-.58-2.03-.4-.44-1.08-.66-2.05-.66-.61,0-1.17,.14-1.68,.43-.51,.28-.87,.75-1.07,1.41l-2.1-.65c.29-1,.84-1.79,1.64-2.38,.81-.59,1.89-.88,3.23-.88,1.04,0,1.95,.18,2.72,.53,.77,.36,1.34,.92,1.7,1.69,.19,.38,.3,.78,.35,1.21,.04,.42,.06,.88,.06,1.37v7.17h-2v-2.67l.39,.35c-.48,.89-1.09,1.55-1.84,1.99-.75,.43-1.66,.65-2.75,.65Zm.4-1.84c.64,0,1.19-.11,1.65-.34s.83-.52,1.11-.87,.46-.72,.55-1.1c.12-.35,.19-.73,.21-1.17,.02-.43,.03-.78,.03-1.04l.73,.27c-.71,.11-1.36,.21-1.94,.29-.58,.09-1.11,.17-1.58,.25-.47,.08-.89,.18-1.26,.3-.31,.11-.58,.24-.83,.39-.24,.15-.43,.33-.57,.55s-.21,.48-.21,.79,.08,.58,.23,.84c.15,.25,.38,.46,.69,.61,.31,.15,.7,.23,1.19,.23Z"/><path class="d" d="M1351.63,106.09c-1.19,0-2.21-.27-3.04-.8s-1.47-1.26-1.92-2.19-.67-1.98-.67-3.16c0-1.2,.24-2.26,.69-3.19,.45-.92,1.1-1.65,1.94-2.17,.84-.53,1.85-.79,3.03-.79,1.27,0,2.36,.32,3.26,.95,.9,.63,1.5,1.5,1.79,2.6l-2.24,.65c-.22-.66-.59-1.16-1.09-1.53-.51-.36-1.09-.54-1.74-.54-.74,0-1.35,.17-1.82,.52-.48,.35-.83,.83-1.06,1.43-.23,.6-.35,1.29-.36,2.07,0,1.2,.28,2.17,.83,2.91s1.35,1.11,2.41,1.11c.73,0,1.31-.17,1.76-.5,.45-.33,.79-.81,1.03-1.44l2.29,.54c-.38,1.14-1.01,2.01-1.89,2.62-.88,.61-1.94,.91-3.19,.91Z"/><path class="d" d="M1363.9,106.09c-1.19,0-2.21-.27-3.04-.8s-1.47-1.26-1.92-2.19-.67-1.98-.67-3.16c0-1.2,.24-2.26,.69-3.19,.45-.92,1.1-1.65,1.94-2.17,.84-.53,1.85-.79,3.03-.79,1.27,0,2.36,.32,3.26,.95,.9,.63,1.5,1.5,1.79,2.6l-2.24,.65c-.22-.66-.59-1.16-1.09-1.53-.51-.36-1.09-.54-1.74-.54-.74,0-1.35,.17-1.82,.52-.48,.35-.83,.83-1.06,1.43-.23,.6-.35,1.29-.36,2.07,0,1.2,.28,2.17,.83,2.91s1.35,1.11,2.41,1.11c.73,0,1.31-.17,1.76-.5,.45-.33,.79-.81,1.03-1.44l2.29,.54c-.38,1.14-1.01,2.01-1.89,2.62-.88,.61-1.94,.91-3.19,.91Z"/><path class="d" d="M1376.24,106.09c-1.17,0-2.18-.26-3.03-.79-.86-.53-1.52-1.25-1.98-2.17-.46-.92-.7-1.99-.7-3.2s.24-2.29,.71-3.21c.47-.92,1.14-1.64,2-2.16,.86-.51,1.86-.77,3-.77s2.18,.26,3.03,.79c.86,.52,1.52,1.25,1.99,2.17s.7,1.98,.7,3.18-.24,2.29-.71,3.21c-.47,.92-1.13,1.65-1.99,2.17s-1.86,.78-3.02,.78Zm0-2.12c1.11,0,1.95-.38,2.5-1.13,.55-.75,.83-1.72,.83-2.91s-.28-2.19-.84-2.92c-.56-.73-1.39-1.1-2.49-1.1-.75,0-1.38,.17-1.87,.51-.49,.34-.85,.81-1.09,1.41-.24,.6-.36,1.3-.36,2.09,0,1.22,.28,2.2,.84,2.93s1.38,1.1,2.47,1.1Z"/><path class="d" d="M1384.33,105.76v-11.65h2.01v2.83l-.28-.37c.14-.37,.33-.72,.56-1.03,.23-.31,.5-.57,.8-.77,.29-.21,.62-.38,.99-.5,.36-.12,.74-.19,1.12-.22,.38-.03,.75,0,1.1,.06v2.11c-.38-.1-.8-.13-1.27-.09-.46,.04-.89,.19-1.28,.44-.37,.24-.66,.53-.87,.86-.21,.34-.37,.71-.46,1.13-.09,.41-.14,.85-.14,1.31v5.88h-2.28Z"/><path class="d" d="M1397.3,106.09c-1.09,0-2.02-.27-2.81-.81-.79-.54-1.4-1.28-1.82-2.21-.43-.93-.64-1.98-.64-3.14s.22-2.22,.65-3.14,1.04-1.65,1.84-2.19c.79-.54,1.74-.8,2.83-.8s2.03,.27,2.78,.8c.75,.54,1.32,1.27,1.7,2.2s.58,1.97,.58,3.14-.19,2.21-.58,3.14-.96,1.66-1.72,2.21c-.75,.54-1.69,.81-2.8,.81Zm.31-2.04c.74,0,1.34-.18,1.81-.53s.81-.84,1.03-1.46c.22-.62,.32-1.33,.32-2.14s-.11-1.52-.33-2.14c-.22-.62-.56-1.1-1.01-1.45-.46-.34-1.04-.52-1.74-.52-.75,0-1.36,.18-1.84,.55-.48,.37-.84,.86-1.07,1.48-.23,.62-.35,1.31-.35,2.07s.12,1.47,.35,2.09c.23,.62,.59,1.12,1.06,1.48,.47,.37,1.07,.55,1.79,.55Zm3.16,1.72v-8.38h-.26v-7.15h2.27v15.54h-2.01Z"/><path class="d" d="M1406.01,92.2v-2.19h2.25v2.19h-2.25Zm0,13.56v-11.65h2.25v11.65h-2.25Z"/><path class="d" d="M1411.5,105.76v-11.65h2.02v3.37h.27v8.29h-2.29Zm8.19,0v-5.73c0-.45-.04-.92-.11-1.4-.08-.48-.22-.92-.43-1.33-.21-.41-.51-.74-.9-.99-.38-.25-.89-.38-1.5-.38-.4,0-.78,.07-1.14,.2-.36,.13-.67,.35-.94,.64s-.48,.68-.64,1.17c-.15,.48-.23,1.07-.23,1.76l-1.4-.53c0-1.06,.2-1.99,.59-2.8s.96-1.44,1.71-1.89c.74-.45,1.64-.68,2.69-.68,.81,0,1.48,.13,2.03,.39s.99,.6,1.33,1.02c.34,.42,.6,.88,.78,1.38,.18,.5,.3,.98,.37,1.46s.1,.89,.1,1.25v6.47h-2.29Z"/><path class="d" d="M1429.4,106.09c-1.09,0-2.02-.27-2.81-.81-.79-.54-1.4-1.28-1.82-2.21-.43-.93-.64-1.98-.64-3.14s.22-2.22,.65-3.14,1.04-1.65,1.84-2.19c.79-.54,1.74-.8,2.83-.8s2.03,.27,2.78,.8c.75,.54,1.32,1.27,1.7,2.2s.58,1.97,.58,3.14-.19,2.21-.58,3.14-.96,1.66-1.72,2.21c-.75,.54-1.69,.81-2.8,.81Zm.17,5.18c-.63,0-1.23-.1-1.82-.29-.59-.19-1.12-.48-1.6-.86-.48-.38-.88-.84-1.2-1.4l2.08-1.06c.25,.5,.61,.86,1.08,1.09,.47,.23,.96,.34,1.48,.34,.64,0,1.19-.11,1.64-.34s.8-.57,1.03-1.02,.35-1.01,.34-1.68v-3.26h.27v-8.68h2v11.96c0,.31-.01,.6-.03,.88s-.06,.56-.12,.84c-.17,.78-.48,1.43-.94,1.94s-1.05,.89-1.77,1.14-1.53,.38-2.43,.38Zm.14-7.22c.74,0,1.34-.18,1.81-.53s.81-.84,1.03-1.46c.22-.62,.32-1.33,.32-2.14s-.11-1.52-.33-2.14c-.22-.62-.56-1.1-1.01-1.45-.46-.34-1.04-.52-1.74-.52-.75,0-1.36,.18-1.84,.55-.48,.37-.84,.86-1.07,1.48-.23,.62-.35,1.31-.35,2.07s.12,1.47,.35,2.09c.23,.62,.59,1.12,1.06,1.48,.47,.37,1.07,.55,1.79,.55Z"/><path class="d" d="M1440.91,95.92v-1.81h7.96v1.81h-7.96Zm7.96,9.84c-.73,.14-1.45,.21-2.16,.18-.7-.02-1.33-.16-1.89-.41-.55-.25-.97-.65-1.25-1.19-.25-.48-.39-.97-.41-1.47-.02-.5-.03-1.07-.03-1.7v-10.3h2.27v10.2c0,.47,0,.87,.02,1.22,.01,.35,.08,.64,.22,.87,.26,.45,.67,.7,1.24,.76,.56,.06,1.23,.04,1.99-.07v1.91Z"/><path class="d" d="M1456.38,106.09c-1.17,0-2.18-.26-3.03-.79-.86-.53-1.52-1.25-1.98-2.17-.46-.92-.7-1.99-.7-3.2s.24-2.29,.71-3.21c.47-.92,1.14-1.64,2-2.16,.86-.51,1.86-.77,3-.77s2.18,.26,3.03,.79c.86,.52,1.52,1.25,1.99,2.17s.7,1.98,.7,3.18-.24,2.29-.71,3.21c-.47,.92-1.13,1.65-1.99,2.17s-1.86,.78-3.02,.78Zm0-2.12c1.11,0,1.95-.38,2.5-1.13,.55-.75,.83-1.72,.83-2.91s-.28-2.19-.84-2.92c-.56-.73-1.39-1.1-2.49-1.1-.75,0-1.38,.17-1.87,.51-.49,.34-.85,.81-1.09,1.41-.24,.6-.36,1.3-.36,2.09,0,1.22,.28,2.2,.84,2.93s1.38,1.1,2.47,1.1Z"/><path class="d" d="M1304.61,131.66v-15.54h2.25v13.41h7.03v2.13h-9.29Z"/><path class="d" d="M1320.79,131.98c-1.17,0-2.18-.26-3.03-.79-.86-.53-1.52-1.25-1.98-2.17-.46-.92-.7-1.99-.7-3.2s.24-2.29,.71-3.21c.47-.92,1.14-1.64,2-2.16,.86-.51,1.86-.77,3-.77s2.18,.26,3.03,.79c.86,.52,1.52,1.25,1.99,2.17s.7,1.98,.7,3.18-.24,2.29-.71,3.21c-.47,.92-1.13,1.65-1.99,2.17s-1.86,.78-3.02,.78Zm0-2.12c1.11,0,1.95-.38,2.5-1.13,.55-.75,.83-1.72,.83-2.91s-.28-2.19-.84-2.92c-.56-.73-1.39-1.1-2.49-1.1-.75,0-1.38,.17-1.87,.51-.49,.34-.85,.81-1.09,1.41-.24,.6-.36,1.3-.36,2.09,0,1.22,.28,2.2,.84,2.93s1.38,1.1,2.47,1.1Z"/><path class="d" d="M1328.87,131.66v-11.65h2.02v3.37h.27v8.29h-2.29Zm8.19,0v-5.73c0-.45-.04-.92-.11-1.4-.08-.48-.22-.92-.43-1.33-.21-.41-.51-.74-.9-.99-.38-.25-.89-.38-1.5-.38-.4,0-.78,.07-1.14,.2-.36,.13-.67,.35-.94,.64s-.48,.68-.64,1.17c-.15,.48-.23,1.07-.23,1.76l-1.4-.53c0-1.06,.2-1.99,.59-2.8s.96-1.44,1.71-1.89c.74-.45,1.64-.68,2.69-.68,.81,0,1.48,.13,2.03,.39s.99,.6,1.33,1.02c.34,.42,.6,.88,.78,1.38,.18,.5,.3,.98,.37,1.46s.1,.89,.1,1.25v6.47h-2.29Z"/><path class="d" d="M1346.78,131.98c-1.09,0-2.02-.27-2.81-.81-.79-.54-1.4-1.28-1.82-2.21-.43-.93-.64-1.98-.64-3.14s.22-2.22,.65-3.14,1.04-1.65,1.84-2.19c.79-.54,1.74-.8,2.83-.8s2.03,.27,2.78,.8c.75,.54,1.32,1.27,1.7,2.2s.58,1.97,.58,3.14-.19,2.21-.58,3.14-.96,1.66-1.72,2.21c-.75,.54-1.69,.81-2.8,.81Zm.17,5.18c-.63,0-1.23-.1-1.82-.29-.59-.19-1.12-.48-1.6-.86-.48-.38-.88-.84-1.2-1.4l2.08-1.06c.25,.5,.61,.86,1.08,1.09,.47,.23,.96,.34,1.48,.34,.64,0,1.19-.11,1.64-.34s.8-.57,1.03-1.02,.35-1.01,.34-1.68v-3.26h.27v-8.68h2v11.96c0,.31-.01,.6-.03,.88s-.06,.56-.12,.84c-.17,.78-.48,1.43-.94,1.94s-1.05,.89-1.77,1.14-1.53,.38-2.43,.38Zm.14-7.22c.74,0,1.34-.18,1.81-.53s.81-.84,1.03-1.46c.22-.62,.32-1.33,.32-2.14s-.11-1.52-.33-2.14c-.22-.62-.56-1.1-1.01-1.45-.46-.34-1.04-.52-1.74-.52-.75,0-1.36,.18-1.84,.55-.48,.37-.84,.86-1.07,1.48-.23,.62-.35,1.31-.35,2.07s.12,1.47,.35,2.09c.23,.62,.59,1.12,1.06,1.48,.47,.37,1.07,.55,1.79,.55Z"/><path class="d" d="M1360.44,131.98c-1.16,0-2.17-.25-3.05-.76-.87-.51-1.55-1.21-2.04-2.12-.49-.91-.73-1.96-.73-3.17,0-1.27,.24-2.38,.72-3.31,.48-.93,1.15-1.66,2-2.17,.86-.51,1.85-.77,2.99-.77s2.2,.28,3.03,.83c.83,.55,1.46,1.33,1.87,2.35,.41,1.01,.58,2.22,.49,3.61h-2.25v-.82c-.01-1.35-.27-2.35-.77-3s-1.26-.97-2.28-.97c-1.13,0-1.98,.36-2.55,1.07-.57,.71-.85,1.74-.85,3.08s.28,2.27,.85,2.97,1.39,1.05,2.46,1.05c.71,0,1.31-.16,1.83-.48,.51-.32,.92-.78,1.2-1.38l2.21,.7c-.45,1.04-1.14,1.85-2.06,2.42-.92,.57-1.95,.86-3.08,.86Zm-4.15-5.51v-1.76h8.32v1.76h-8.32Z"/><path class="d" d="M1372.6,131.97c-1.42,0-2.57-.31-3.46-.94s-1.44-1.51-1.64-2.64l2.31-.36c.14,.6,.48,1.08,1,1.43,.52,.35,1.17,.52,1.95,.52,.71,0,1.26-.14,1.66-.43,.4-.29,.6-.68,.6-1.19,0-.29-.07-.53-.21-.72-.14-.18-.43-.36-.88-.52s-1.13-.37-2.04-.62c-1-.26-1.79-.54-2.38-.84s-1-.65-1.25-1.05c-.25-.4-.37-.88-.37-1.45,0-.71,.19-1.32,.56-1.85,.37-.52,.9-.93,1.58-1.22,.68-.29,1.48-.43,2.39-.43s1.69,.14,2.38,.42c.7,.28,1.26,.68,1.69,1.19,.43,.51,.69,1.12,.78,1.81l-2.31,.42c-.08-.56-.34-1-.79-1.33-.45-.32-1.02-.5-1.74-.53-.68-.03-1.24,.08-1.66,.34-.42,.25-.64,.61-.64,1.05,0,.26,.08,.48,.24,.66s.48,.35,.94,.52c.47,.17,1.16,.36,2.07,.59,.98,.25,1.75,.53,2.33,.84s.99,.67,1.24,1.09,.37,.93,.37,1.53c0,1.15-.42,2.05-1.26,2.71s-1.99,.98-3.47,.98Z"/><path class="d" d="M1378.41,121.82v-1.81h7.96v1.81h-7.96Zm7.96,9.84c-.73,.14-1.45,.21-2.16,.18-.7-.02-1.33-.16-1.89-.41-.55-.25-.97-.65-1.25-1.19-.25-.48-.39-.97-.41-1.47-.02-.5-.03-1.07-.03-1.7v-10.3h2.27v10.2c0,.47,0,.87,.02,1.22,.01,.35,.08,.64,.22,.87,.26,.45,.67,.7,1.24,.76,.56,.06,1.23,.04,1.99-.07v1.91Z"/><path class="d" d="M1398.12,131.98c-1.19,0-2.21-.27-3.04-.8s-1.47-1.26-1.92-2.19-.67-1.98-.67-3.16c0-1.2,.24-2.26,.69-3.19,.45-.92,1.1-1.65,1.94-2.17,.84-.53,1.85-.79,3.03-.79,1.27,0,2.36,.32,3.26,.95,.9,.63,1.5,1.5,1.79,2.6l-2.24,.65c-.22-.66-.59-1.16-1.09-1.53-.51-.36-1.09-.54-1.74-.54-.74,0-1.35,.17-1.82,.52-.48,.35-.83,.83-1.06,1.43-.23,.6-.35,1.29-.36,2.07,0,1.2,.28,2.17,.83,2.91s1.35,1.11,2.41,1.11c.73,0,1.31-.17,1.76-.5,.45-.33,.79-.81,1.03-1.44l2.29,.54c-.38,1.14-1.01,2.01-1.89,2.62-.88,.61-1.94,.91-3.19,.91Z"/><path class="d" d="M1405.39,131.66v-15.54h2.02v8.38h.27v7.15h-2.29Zm8.19,0v-5.73c0-.45-.04-.92-.11-1.4-.08-.48-.22-.92-.43-1.33-.21-.41-.51-.74-.9-.99-.38-.25-.89-.38-1.5-.38-.4,0-.78,.07-1.14,.2-.36,.13-.67,.35-.94,.64s-.48,.68-.64,1.17c-.15,.48-.23,1.07-.23,1.76l-1.4-.53c0-1.06,.2-1.99,.59-2.8s.96-1.44,1.71-1.89c.74-.45,1.64-.68,2.69-.68,.81,0,1.48,.13,2.03,.39s.99,.6,1.33,1.02c.34,.42,.6,.88,.78,1.38,.18,.5,.3,.98,.37,1.46s.1,.89,.1,1.25v6.47h-2.29Z"/><path class="d" d="M1421.97,131.98c-.86,0-1.59-.16-2.17-.48-.58-.32-1.02-.75-1.32-1.27-.3-.53-.45-1.11-.45-1.74,0-.59,.1-1.11,.31-1.55s.52-.83,.93-1.14c.41-.31,.91-.57,1.51-.76,.52-.15,1.1-.28,1.76-.4,.65-.12,1.34-.22,2.07-.32,.72-.1,1.44-.2,2.15-.3l-.82,.45c.01-.91-.18-1.59-.58-2.03-.4-.44-1.08-.66-2.05-.66-.61,0-1.17,.14-1.68,.43-.51,.28-.87,.75-1.07,1.41l-2.1-.65c.29-1,.84-1.79,1.64-2.38,.81-.59,1.89-.88,3.23-.88,1.04,0,1.95,.18,2.72,.53,.77,.36,1.34,.92,1.7,1.69,.19,.38,.3,.78,.35,1.21,.04,.42,.06,.88,.06,1.37v7.17h-2v-2.67l.39,.35c-.48,.89-1.09,1.55-1.84,1.99-.75,.43-1.66,.65-2.75,.65Zm.4-1.84c.64,0,1.19-.11,1.65-.34s.83-.52,1.11-.87,.46-.72,.55-1.1c.12-.35,.19-.73,.21-1.17,.02-.43,.03-.78,.03-1.04l.73,.27c-.71,.11-1.36,.21-1.94,.29-.58,.09-1.11,.17-1.58,.25-.47,.08-.89,.18-1.26,.3-.31,.11-.58,.24-.83,.39-.24,.15-.43,.33-.57,.55s-.21,.48-.21,.79,.08,.58,.23,.84c.15,.25,.38,.46,.69,.61,.31,.15,.7,.23,1.19,.23Z"/><path class="d" d="M1431.18,118.09v-2.19h2.25v2.19h-2.25Zm0,13.56v-11.65h2.25v11.65h-2.25Z"/><path class="d" d="M1436.66,131.66v-11.65h2.02v3.37h.27v8.29h-2.29Zm8.19,0v-5.73c0-.45-.04-.92-.11-1.4-.08-.48-.22-.92-.43-1.33-.21-.41-.51-.74-.9-.99-.38-.25-.89-.38-1.5-.38-.4,0-.78,.07-1.14,.2-.36,.13-.67,.35-.94,.64s-.48,.68-.64,1.17c-.15,.48-.23,1.07-.23,1.76l-1.4-.53c0-1.06,.2-1.99,.59-2.8s.96-1.44,1.71-1.89c.74-.45,1.64-.68,2.69-.68,.81,0,1.48,.13,2.03,.39s.99,.6,1.33,1.02c.34,.42,.6,.88,.78,1.38,.18,.5,.3,.98,.37,1.46s.1,.89,.1,1.25v6.47h-2.29Z"/><path class="d" d="M1454.26,131.66v-11.65h2.01v2.83l-.28-.37c.14-.37,.33-.72,.56-1.03,.23-.31,.5-.57,.8-.77,.29-.21,.62-.38,.99-.5,.36-.12,.74-.19,1.12-.22,.38-.03,.75,0,1.1,.06v2.11c-.38-.1-.8-.13-1.27-.09-.46,.04-.89,.19-1.28,.44-.37,.24-.66,.53-.87,.86-.21,.34-.37,.71-.46,1.13-.09,.41-.14,.85-.14,1.31v5.88h-2.28Z"/><path class="d" d="M1466.98,131.97c-.81,0-1.48-.13-2.03-.39-.55-.26-.99-.6-1.33-1.02-.34-.42-.6-.88-.78-1.38s-.3-.98-.37-1.46c-.06-.48-.1-.89-.1-1.25v-6.47h2.29v5.73c0,.45,.04,.92,.11,1.4,.08,.48,.22,.92,.43,1.33,.21,.41,.51,.74,.9,.99,.38,.25,.89,.38,1.5,.38,.4,0,.78-.07,1.14-.2,.36-.13,.67-.35,.94-.64,.27-.29,.48-.68,.64-1.17s.23-1.07,.23-1.76l1.4,.53c0,1.06-.2,1.99-.59,2.8-.4,.81-.96,1.44-1.7,1.89-.74,.45-1.64,.68-2.69,.68Zm3.85-.31v-3.37h-.27v-8.29h2.28v11.65h-2.01Z"/><path class="d" d="M1476.08,131.66v-15.86h2.25v15.86h-2.25Z"/><path class="d" d="M1486.74,131.98c-1.16,0-2.17-.25-3.05-.76-.87-.51-1.55-1.21-2.04-2.12-.49-.91-.73-1.96-.73-3.17,0-1.27,.24-2.38,.72-3.31,.48-.93,1.15-1.66,2-2.17,.86-.51,1.85-.77,2.99-.77s2.2,.28,3.03,.83c.83,.55,1.46,1.33,1.87,2.35,.41,1.01,.58,2.22,.49,3.61h-2.25v-.82c-.01-1.35-.27-2.35-.77-3s-1.26-.97-2.28-.97c-1.13,0-1.98,.36-2.55,1.07-.57,.71-.85,1.74-.85,3.08s.28,2.27,.85,2.97,1.39,1.05,2.46,1.05c.71,0,1.31-.16,1.83-.48,.51-.32,.92-.78,1.2-1.38l2.21,.7c-.45,1.04-1.14,1.85-2.06,2.42-.92,.57-1.95,.86-3.08,.86Zm-4.15-5.51v-1.76h8.32v1.76h-8.32Z"/></g><g><line class="i" x1="1200.42" y1="353.74" x2="1492.34" y2="353.74"/><polygon class="d" points="1201.88 358.73 1193.24 353.74 1201.88 348.75 1201.88 358.73"/></g><g><path class="d" d="M1342.3,283.74v-15.54h2.04l5.63,11.68,5.6-11.68h2.06v15.52h-2.14v-10.63l-5.02,10.64h-1.03l-5.03-10.64v10.64h-2.12Z"/><path class="d" d="M1363.94,284.06c-.86,0-1.59-.16-2.17-.48-.58-.32-1.02-.75-1.32-1.27-.3-.53-.45-1.11-.45-1.74,0-.59,.1-1.11,.31-1.55s.52-.83,.93-1.14c.41-.31,.91-.57,1.51-.76,.52-.15,1.1-.28,1.76-.4,.65-.12,1.34-.22,2.07-.32,.72-.1,1.44-.2,2.15-.3l-.82,.45c.01-.91-.18-1.59-.58-2.03-.4-.44-1.08-.66-2.05-.66-.61,0-1.17,.14-1.68,.43-.51,.28-.87,.75-1.07,1.41l-2.1-.65c.29-1,.84-1.79,1.64-2.38,.81-.59,1.89-.88,3.23-.88,1.04,0,1.95,.18,2.72,.53,.77,.36,1.34,.92,1.7,1.69,.19,.38,.3,.78,.35,1.21,.04,.42,.06,.88,.06,1.37v7.17h-2v-2.67l.39,.35c-.48,.89-1.09,1.55-1.84,1.99-.75,.43-1.66,.65-2.75,.65Zm.4-1.84c.64,0,1.19-.11,1.65-.34s.83-.52,1.11-.87,.46-.72,.55-1.1c.12-.35,.19-.73,.21-1.17,.02-.43,.03-.78,.03-1.04l.73,.27c-.71,.11-1.36,.21-1.94,.29-.58,.09-1.11,.17-1.58,.25-.47,.08-.89,.18-1.26,.3-.31,.11-.58,.24-.83,.39-.24,.15-.43,.33-.57,.55s-.21,.48-.21,.79,.08,.58,.23,.84c.15,.25,.38,.46,.69,.61,.31,.15,.7,.23,1.19,.23Z"/><path class="d" d="M1373.16,270.18v-2.19h2.25v2.19h-2.25Zm0,13.56v-11.65h2.25v11.65h-2.25Z"/><path class="d" d="M1378.64,283.74v-11.65h2.02v3.37h.27v8.29h-2.29Zm8.19,0v-5.73c0-.45-.04-.92-.11-1.4-.08-.48-.22-.92-.43-1.33-.21-.41-.51-.74-.9-.99-.38-.25-.89-.38-1.5-.38-.4,0-.78,.07-1.14,.2-.36,.13-.67,.35-.94,.64s-.48,.68-.64,1.17c-.15,.48-.23,1.07-.23,1.76l-1.4-.53c0-1.06,.2-1.99,.59-2.8s.96-1.44,1.71-1.89c.74-.45,1.64-.68,2.69-.68,.81,0,1.48,.13,2.03,.39s.99,.6,1.33,1.02c.34,.42,.6,.88,.78,1.38,.18,.5,.3,.98,.37,1.46s.1,.89,.1,1.25v6.47h-2.29Z"/><path class="d" d="M1402.72,284.06c-1.55,0-2.88-.34-3.97-1.02-1.09-.68-1.93-1.63-2.51-2.84-.58-1.21-.87-2.62-.87-4.23s.29-3.01,.87-4.23c.58-1.21,1.42-2.16,2.51-2.84,1.09-.68,2.42-1.02,3.97-1.02,1.79,0,3.27,.45,4.45,1.36s1.99,2.12,2.45,3.66l-2.29,.62c-.3-1.09-.84-1.94-1.61-2.56-.77-.62-1.77-.93-3-.93-1.1,0-2.02,.25-2.75,.74s-1.29,1.19-1.66,2.08-.56,1.93-.56,3.12c0,1.19,.17,2.23,.54,3.12,.37,.89,.92,1.59,1.66,2.08,.74,.5,1.66,.75,2.76,.75,1.23,0,2.23-.31,3-.93,.77-.62,1.31-1.47,1.61-2.55l2.29,.62c-.46,1.53-1.28,2.75-2.45,3.66s-2.66,1.36-4.45,1.36Z"/><path class="d" d="M1411.99,283.74v-15.54h2.02v8.38h.27v7.15h-2.29Zm8.19,0v-5.73c0-.45-.04-.92-.11-1.4-.08-.48-.22-.92-.43-1.33-.21-.41-.51-.74-.9-.99-.38-.25-.89-.38-1.5-.38-.4,0-.78,.07-1.14,.2-.36,.13-.67,.35-.94,.64s-.48,.68-.64,1.17c-.15,.48-.23,1.07-.23,1.76l-1.4-.53c0-1.06,.2-1.99,.59-2.8s.96-1.44,1.71-1.89c.74-.45,1.64-.68,2.69-.68,.81,0,1.48,.13,2.03,.39s.99,.6,1.33,1.02c.34,.42,.6,.88,.78,1.38,.18,.5,.3,.98,.37,1.46s.1,.89,.1,1.25v6.47h-2.29Z"/><path class="d" d="M1428.56,284.06c-.86,0-1.59-.16-2.17-.48-.58-.32-1.02-.75-1.32-1.27-.3-.53-.45-1.11-.45-1.74,0-.59,.1-1.11,.31-1.55s.52-.83,.93-1.14c.41-.31,.91-.57,1.51-.76,.52-.15,1.1-.28,1.76-.4,.65-.12,1.34-.22,2.07-.32,.72-.1,1.44-.2,2.15-.3l-.82,.45c.01-.91-.18-1.59-.58-2.03-.4-.44-1.08-.66-2.05-.66-.61,0-1.17,.14-1.68,.43-.51,.28-.87,.75-1.07,1.41l-2.1-.65c.29-1,.84-1.79,1.64-2.38,.81-.59,1.89-.88,3.23-.88,1.04,0,1.95,.18,2.72,.53,.77,.36,1.34,.92,1.7,1.69,.19,.38,.3,.78,.35,1.21,.04,.42,.06,.88,.06,1.37v7.17h-2v-2.67l.39,.35c-.48,.89-1.09,1.55-1.84,1.99-.75,.43-1.66,.65-2.75,.65Zm.4-1.84c.64,0,1.19-.11,1.65-.34s.83-.52,1.11-.87,.46-.72,.55-1.1c.12-.35,.19-.73,.21-1.17,.02-.43,.03-.78,.03-1.04l.73,.27c-.71,.11-1.36,.21-1.94,.29-.58,.09-1.11,.17-1.58,.25-.47,.08-.89,.18-1.26,.3-.31,.11-.58,.24-.83,.39-.24,.15-.43,.33-.57,.55s-.21,.48-.21,.79,.08,.58,.23,.84c.15,.25,.38,.46,.69,.61,.31,.15,.7,.23,1.19,.23Z"/><path class="d" d="M1437.77,270.18v-2.19h2.25v2.19h-2.25Zm0,13.56v-11.65h2.25v11.65h-2.25Z"/><path class="d" d="M1443.25,283.74v-11.65h2.02v3.37h.27v8.29h-2.29Zm8.19,0v-5.73c0-.45-.04-.92-.11-1.4-.08-.48-.22-.92-.43-1.33-.21-.41-.51-.74-.9-.99-.38-.25-.89-.38-1.5-.38-.4,0-.78,.07-1.14,.2-.36,.13-.67,.35-.94,.64s-.48,.68-.64,1.17c-.15,.48-.23,1.07-.23,1.76l-1.4-.53c0-1.06,.2-1.99,.59-2.8s.96-1.44,1.71-1.89c.74-.45,1.64-.68,2.69-.68,.81,0,1.48,.13,2.03,.39s.99,.6,1.33,1.02c.34,.42,.6,.88,.78,1.38,.18,.5,.3,.98,.37,1.46s.1,.89,.1,1.25v6.47h-2.29Z"/><path class="d" d="M1337.65,309.95c-.86,0-1.59-.16-2.17-.48-.58-.32-1.02-.74-1.32-1.27-.3-.53-.45-1.11-.45-1.74,0-.59,.1-1.11,.31-1.55,.21-.45,.52-.83,.93-1.14s.91-.57,1.51-.76c.52-.15,1.1-.28,1.76-.4,.65-.11,1.34-.22,2.07-.32s1.44-.2,2.15-.3l-.82,.45c.01-.91-.18-1.59-.58-2.03-.4-.44-1.08-.66-2.05-.66-.61,0-1.17,.14-1.68,.43-.51,.28-.87,.75-1.07,1.41l-2.1-.65c.29-1,.84-1.79,1.64-2.38,.81-.59,1.89-.88,3.23-.88,1.04,0,1.95,.18,2.72,.53,.77,.36,1.34,.92,1.7,1.69,.19,.38,.3,.78,.35,1.21,.04,.42,.06,.88,.06,1.37v7.17h-2v-2.66l.39,.34c-.48,.89-1.09,1.56-1.84,1.99-.75,.44-1.66,.65-2.75,.65Zm.4-1.84c.64,0,1.19-.11,1.65-.34s.83-.52,1.11-.87,.46-.72,.55-1.1c.12-.34,.19-.73,.21-1.17,.02-.43,.03-.78,.03-1.04l.73,.27c-.71,.11-1.36,.21-1.94,.29-.58,.09-1.11,.17-1.58,.25-.47,.08-.89,.18-1.26,.3-.31,.11-.58,.24-.83,.39-.24,.15-.43,.33-.57,.55s-.21,.48-.21,.79,.08,.58,.23,.84c.15,.26,.38,.46,.69,.61,.31,.15,.7,.23,1.19,.23Z"/><path class="d" d="M1351.63,309.95c-1.19,0-2.21-.27-3.04-.8s-1.47-1.26-1.92-2.19c-.44-.93-.67-1.98-.67-3.16,0-1.2,.24-2.26,.69-3.19,.45-.92,1.1-1.65,1.94-2.17,.84-.52,1.85-.79,3.03-.79,1.27,0,2.36,.32,3.26,.95,.9,.63,1.5,1.5,1.79,2.6l-2.24,.65c-.22-.65-.59-1.16-1.09-1.53-.51-.36-1.09-.54-1.74-.54-.74,0-1.35,.17-1.82,.52-.48,.35-.83,.83-1.06,1.43-.23,.6-.35,1.29-.36,2.07,0,1.2,.28,2.17,.83,2.91,.54,.74,1.35,1.11,2.41,1.11,.73,0,1.31-.17,1.76-.5,.45-.33,.79-.81,1.03-1.44l2.29,.54c-.38,1.14-1.01,2.01-1.89,2.62-.88,.61-1.94,.91-3.19,.91Z"/><path class="d" d="M1363.9,309.95c-1.19,0-2.21-.27-3.04-.8s-1.47-1.26-1.92-2.19c-.44-.93-.67-1.98-.67-3.16,0-1.2,.24-2.26,.69-3.19,.45-.92,1.1-1.65,1.94-2.17,.84-.52,1.85-.79,3.03-.79,1.27,0,2.36,.32,3.26,.95,.9,.63,1.5,1.5,1.79,2.6l-2.24,.65c-.22-.65-.59-1.16-1.09-1.53-.51-.36-1.09-.54-1.74-.54-.74,0-1.35,.17-1.82,.52-.48,.35-.83,.83-1.06,1.43-.23,.6-.35,1.29-.36,2.07,0,1.2,.28,2.17,.83,2.91,.54,.74,1.35,1.11,2.41,1.11,.73,0,1.31-.17,1.76-.5,.45-.33,.79-.81,1.03-1.44l2.29,.54c-.38,1.14-1.01,2.01-1.89,2.62-.88,.61-1.94,.91-3.19,.91Z"/><path class="d" d="M1376.24,309.95c-1.17,0-2.18-.26-3.03-.79-.86-.52-1.52-1.25-1.98-2.17-.46-.92-.7-1.99-.7-3.2s.24-2.29,.71-3.21,1.14-1.64,2-2.16c.86-.51,1.86-.77,3-.77s2.18,.26,3.03,.79c.86,.53,1.52,1.25,1.99,2.17,.47,.92,.7,1.98,.7,3.18s-.24,2.29-.71,3.21c-.47,.92-1.13,1.65-1.99,2.17s-1.86,.78-3.02,.78Zm0-2.13c1.11,0,1.95-.38,2.5-1.13,.55-.75,.83-1.72,.83-2.91s-.28-2.19-.84-2.92c-.56-.73-1.39-1.09-2.49-1.09-.75,0-1.38,.17-1.87,.51-.49,.34-.85,.81-1.09,1.41s-.36,1.3-.36,2.09c0,1.22,.28,2.2,.84,2.93,.56,.73,1.38,1.1,2.47,1.1Z"/><path class="d" d="M1384.33,309.63v-11.65h2.01v2.83l-.28-.37c.14-.37,.33-.72,.56-1.03,.23-.31,.5-.57,.8-.77,.29-.22,.62-.38,.99-.5,.36-.12,.74-.19,1.12-.22,.38-.02,.75,0,1.1,.06v2.11c-.38-.1-.8-.13-1.27-.09s-.89,.19-1.28,.44c-.37,.24-.66,.53-.87,.86-.21,.34-.37,.71-.46,1.13-.09,.41-.14,.85-.14,1.31v5.88h-2.28Z"/><path class="d" d="M1397.3,309.95c-1.09,0-2.02-.27-2.81-.81-.79-.54-1.4-1.27-1.82-2.21s-.64-1.98-.64-3.14,.22-2.22,.65-3.15c.43-.92,1.04-1.65,1.84-2.19,.79-.54,1.74-.8,2.83-.8s2.03,.27,2.78,.8c.75,.54,1.32,1.27,1.7,2.2s.58,1.97,.58,3.14-.19,2.21-.58,3.14-.96,1.66-1.72,2.21c-.75,.54-1.69,.81-2.8,.81Zm.31-2.04c.74,0,1.34-.18,1.81-.53,.47-.35,.81-.84,1.03-1.46s.32-1.33,.32-2.14-.11-1.52-.33-2.14c-.22-.62-.56-1.1-1.01-1.45-.46-.35-1.04-.52-1.74-.52-.75,0-1.36,.18-1.84,.55-.48,.37-.84,.86-1.07,1.48-.23,.62-.35,1.31-.35,2.07s.12,1.46,.35,2.09c.23,.62,.59,1.12,1.06,1.48,.47,.37,1.07,.55,1.79,.55Zm3.16,1.71v-8.38h-.26v-7.15h2.27v15.54h-2.01Z"/><path class="d" d="M1406.01,296.07v-2.19h2.25v2.19h-2.25Zm0,13.56v-11.65h2.25v11.65h-2.25Z"/><path class="d" d="M1411.5,309.63v-11.65h2.02v3.37h.27v8.29h-2.29Zm8.19,0v-5.73c0-.45-.04-.92-.11-1.4-.08-.48-.22-.92-.43-1.33-.21-.41-.51-.74-.9-.99s-.89-.38-1.5-.38c-.4,0-.78,.07-1.14,.2-.36,.13-.67,.35-.94,.64s-.48,.68-.64,1.17-.23,1.07-.23,1.76l-1.4-.53c0-1.06,.2-1.99,.59-2.8,.4-.81,.96-1.44,1.71-1.89,.74-.45,1.64-.68,2.69-.68,.81,0,1.48,.13,2.03,.39,.55,.26,.99,.6,1.33,1.02,.34,.42,.6,.88,.78,1.38,.18,.5,.3,.98,.37,1.46s.1,.89,.1,1.25v6.47h-2.29Z"/><path class="d" d="M1429.4,309.95c-1.09,0-2.02-.27-2.81-.81-.79-.54-1.4-1.27-1.82-2.21s-.64-1.98-.64-3.14,.22-2.22,.65-3.15c.43-.92,1.04-1.65,1.84-2.19,.79-.54,1.74-.8,2.83-.8s2.03,.27,2.78,.8c.75,.54,1.32,1.27,1.7,2.2s.58,1.97,.58,3.14-.19,2.21-.58,3.14-.96,1.66-1.72,2.21c-.75,.54-1.69,.81-2.8,.81Zm.17,5.18c-.63,0-1.23-.1-1.82-.29s-1.12-.48-1.6-.86c-.48-.38-.88-.84-1.2-1.4l2.08-1.06c.25,.5,.61,.86,1.08,1.09,.47,.23,.96,.35,1.48,.35,.64,0,1.19-.11,1.64-.34s.8-.57,1.03-1.02,.35-1.01,.34-1.68v-3.26h.27v-8.68h2v11.96c0,.31-.01,.6-.03,.88-.02,.28-.06,.56-.12,.84-.17,.78-.48,1.43-.94,1.94s-1.05,.89-1.77,1.14c-.72,.25-1.53,.38-2.43,.38Zm.14-7.22c.74,0,1.34-.18,1.81-.53,.47-.35,.81-.84,1.03-1.46s.32-1.33,.32-2.14-.11-1.52-.33-2.14c-.22-.62-.56-1.1-1.01-1.45-.46-.35-1.04-.52-1.74-.52-.75,0-1.36,.18-1.84,.55-.48,.37-.84,.86-1.07,1.48-.23,.62-.35,1.31-.35,2.07s.12,1.46,.35,2.09c.23,.62,.59,1.12,1.06,1.48,.47,.37,1.07,.55,1.79,.55Z"/><path class="d" d="M1440.91,299.79v-1.81h7.96v1.81h-7.96Zm7.96,9.84c-.73,.14-1.45,.21-2.16,.18-.7-.02-1.33-.16-1.89-.41-.55-.25-.97-.65-1.25-1.19-.25-.48-.39-.97-.41-1.47-.02-.5-.03-1.07-.03-1.7v-10.3h2.27v10.2c0,.47,0,.87,.02,1.22s.08,.64,.22,.87c.26,.45,.67,.7,1.24,.76,.56,.06,1.23,.04,1.99-.07v1.91Z"/><path class="d" d="M1456.38,309.95c-1.17,0-2.18-.26-3.03-.79-.86-.52-1.52-1.25-1.98-2.17-.46-.92-.7-1.99-.7-3.2s.24-2.29,.71-3.21,1.14-1.64,2-2.16c.86-.51,1.86-.77,3-.77s2.18,.26,3.03,.79c.86,.53,1.52,1.25,1.99,2.17,.47,.92,.7,1.98,.7,3.18s-.24,2.29-.71,3.21c-.47,.92-1.13,1.65-1.99,2.17s-1.86,.78-3.02,.78Zm0-2.13c1.11,0,1.95-.38,2.5-1.13,.55-.75,.83-1.72,.83-2.91s-.28-2.19-.84-2.92c-.56-.73-1.39-1.09-2.49-1.09-.75,0-1.38,.17-1.87,.51-.49,.34-.85,.81-1.09,1.41s-.36,1.3-.36,2.09c0,1.22,.28,2.2,.84,2.93,.56,.73,1.38,1.1,2.47,1.1Z"/><path class="d" d="M1368.88,335.85c-1.04,0-2-.18-2.88-.54-.88-.36-1.64-.89-2.29-1.59-.65-.7-1.15-1.55-1.51-2.55s-.54-2.14-.54-3.41c0-1.68,.31-3.12,.92-4.32,.61-1.21,1.46-2.13,2.55-2.78,1.09-.65,2.34-.98,3.75-.98,1.83,0,3.28,.42,4.37,1.27s1.83,2.02,2.23,3.52l-2.29,.41c-.32-.93-.83-1.67-1.53-2.22-.71-.55-1.59-.83-2.65-.84-1.1,0-2.02,.24-2.75,.73-.73,.5-1.28,1.19-1.65,2.09-.37,.9-.55,1.94-.56,3.12,0,1.19,.17,2.22,.54,3.11,.37,.89,.92,1.58,1.66,2.08,.74,.5,1.66,.75,2.76,.75,.88,.01,1.65-.15,2.28-.49,.64-.34,1.14-.84,1.52-1.51,.37-.66,.61-1.47,.72-2.44h-3.02v-1.81h5.42c.01,.13,.03,.3,.03,.51,0,.21,.01,.35,.01,.4,0,1.44-.28,2.72-.83,3.85s-1.36,2.02-2.42,2.66c-1.06,.64-2.34,.97-3.84,.97Z"/><path class="d" d="M1378.12,335.52v-15.54h2.25v6.7h7.77v-6.7h2.27v15.54h-2.27v-6.71h-7.77v6.71h-2.25Z"/><path class="d" d="M1399.91,335.85c-1.55,0-2.88-.34-3.97-1.02-1.09-.68-1.93-1.63-2.51-2.84-.58-1.22-.87-2.62-.87-4.23s.29-3.01,.87-4.23c.58-1.22,1.42-2.16,2.51-2.84,1.09-.68,2.42-1.02,3.97-1.02s2.87,.34,3.96,1.02,1.93,1.63,2.51,2.84c.58,1.21,.86,2.62,.86,4.23s-.29,3.01-.86,4.23c-.58,1.21-1.41,2.16-2.51,2.84s-2.42,1.02-3.96,1.02Zm0-2.15c1.1,.01,2.02-.23,2.75-.73,.73-.5,1.28-1.2,1.64-2.09,.37-.9,.55-1.94,.55-3.12s-.18-2.22-.55-3.11c-.37-.89-.92-1.58-1.64-2.08-.73-.5-1.65-.75-2.75-.75-1.1-.01-2.02,.23-2.75,.72-.73,.5-1.28,1.19-1.65,2.09-.37,.9-.55,1.94-.56,3.13,0,1.19,.17,2.22,.54,3.11,.37,.89,.92,1.58,1.66,2.08,.74,.5,1.66,.75,2.76,.75Z"/><path class="d" d="M1415.04,335.85c-1.11,0-2.12-.19-3.01-.58s-1.63-.94-2.21-1.65c-.58-.71-.96-1.57-1.13-2.55l2.35-.36c.24,.95,.73,1.69,1.49,2.22,.76,.53,1.64,.79,2.64,.79,.63,0,1.2-.1,1.73-.3,.52-.2,.95-.48,1.27-.85,.32-.37,.48-.81,.48-1.33,0-.28-.05-.53-.15-.74s-.23-.4-.4-.57-.37-.3-.61-.42c-.24-.12-.51-.22-.79-.31l-3.98-1.18c-.39-.11-.78-.26-1.19-.45-.4-.18-.77-.42-1.11-.72-.33-.3-.61-.67-.82-1.11-.21-.44-.31-.98-.31-1.61,0-.96,.25-1.77,.74-2.43,.49-.67,1.16-1.17,2-1.51,.84-.34,1.78-.51,2.83-.51,1.05,.01,1.99,.2,2.82,.56,.83,.36,1.52,.88,2.07,1.55,.55,.67,.93,1.49,1.14,2.44l-2.42,.41c-.11-.58-.34-1.08-.69-1.5s-.78-.74-1.29-.97-1.06-.34-1.66-.35c-.58-.01-1.1,.07-1.58,.26-.48,.19-.86,.45-1.14,.79s-.43,.73-.43,1.17,.12,.78,.38,1.05c.25,.27,.56,.48,.93,.63,.37,.15,.74,.28,1.11,.38l2.87,.81c.36,.1,.77,.24,1.22,.41,.46,.17,.9,.4,1.33,.71,.43,.3,.78,.7,1.06,1.2,.28,.5,.42,1.13,.42,1.88s-.16,1.47-.48,2.07c-.32,.59-.75,1.09-1.3,1.49-.55,.4-1.18,.7-1.9,.9-.72,.2-1.48,.3-2.28,.3Z"/><path class="d" d="M1427.17,335.52v-13.41h-5.17v-2.12h12.59v2.12h-5.17v13.41h-2.25Z"/></g></svg>