<?xml version="1.0" encoding="UTF-8"?><svg id="a" xmlns="http://www.w3.org/2000/svg" viewBox="0 0 512.26 260.7"><defs><style>.b{fill:#363a3f;}.c{fill:none;stroke:#363a3f;stroke-miterlimit:10;}</style></defs><path class="b" d="M239.3,1c2.47,0,4.48,2.01,4.48,4.48V92.12c0,2.47-2.01,4.48-4.48,4.48H61.21c-2.47,0-4.48-2.01-4.48-4.48V5.48c0-2.47,2.01-4.48,4.48-4.48H239.3M239.3,0H61.21C58.19,0,55.74,2.45,55.74,5.48V92.12c0,3.03,2.45,5.48,5.48,5.48H239.3c3.02,0,5.48-2.45,5.48-5.48V5.48C244.77,2.45,242.32,0,239.3,0h0Z"/><g><path class="b" d="M74.6,28.79v-8.64h3.57c.08,0,.19,0,.32,0,.13,0,.25,.02,.37,.04,.5,.08,.91,.24,1.24,.5s.57,.58,.73,.97c.16,.39,.24,.82,.24,1.3s-.08,.9-.24,1.29c-.16,.39-.4,.71-.73,.97-.33,.26-.74,.42-1.23,.5-.11,.02-.23,.03-.37,.04-.13,0-.24,.01-.32,.01h-2.12v3.02h-1.45Zm1.45-4.37h2.06c.08,0,.17,0,.27-.01,.1,0,.19-.02,.28-.05,.24-.06,.43-.17,.57-.32s.24-.32,.29-.52c.06-.19,.09-.38,.09-.56s-.03-.37-.09-.57c-.06-.19-.16-.37-.29-.52s-.33-.26-.57-.32c-.08-.02-.18-.04-.28-.04-.1,0-.19,0-.27,0h-2.06v2.92Z"/><path class="b" d="M83.91,28.97c-.47,0-.86-.09-1.19-.27s-.57-.42-.74-.71-.25-.62-.25-.98c0-.31,.05-.59,.16-.84,.1-.25,.26-.47,.48-.65,.22-.18,.5-.33,.84-.45,.26-.08,.56-.16,.92-.23,.35-.07,.73-.13,1.14-.19s.84-.12,1.29-.19l-.52,.29c0-.45-.1-.78-.3-.99-.2-.21-.55-.32-1.03-.32-.29,0-.57,.07-.85,.2-.27,.14-.46,.37-.57,.7l-1.32-.41c.16-.55,.46-.99,.92-1.32s1.06-.5,1.82-.5c.58,0,1.08,.09,1.52,.28,.44,.19,.76,.5,.98,.92,.12,.23,.19,.46,.21,.7,.02,.24,.04,.5,.04,.78v3.98h-1.27v-1.4l.21,.23c-.29,.47-.63,.81-1.02,1.03-.39,.22-.88,.33-1.46,.33Zm.29-1.15c.33,0,.61-.06,.84-.17,.23-.12,.42-.26,.55-.43s.23-.33,.28-.47c.08-.18,.12-.4,.13-.63,0-.24,.01-.43,.01-.58l.44,.13c-.44,.07-.81,.13-1.12,.18-.31,.05-.58,.1-.8,.15-.22,.05-.42,.1-.59,.15-.17,.06-.31,.13-.43,.21s-.21,.17-.27,.28c-.06,.1-.09,.23-.09,.37,0,.16,.04,.3,.12,.42s.2,.22,.35,.29c.15,.07,.34,.11,.57,.11Z"/><path class="b" d="M89.01,28.79v-6.48h1.28v1.58l-.16-.2c.08-.22,.19-.41,.32-.59,.13-.18,.29-.32,.48-.44,.16-.11,.34-.19,.53-.25,.19-.06,.39-.1,.6-.11,.2-.01,.4,0,.59,.03v1.35c-.19-.06-.41-.07-.66-.05-.25,.02-.48,.09-.67,.21-.2,.11-.36,.25-.49,.41s-.22,.36-.28,.57c-.06,.21-.09,.45-.09,.69v3.29h-1.45Z"/><path class="b" d="M96.62,28.97c-.66,0-1.23-.14-1.73-.43s-.88-.68-1.16-1.18c-.28-.5-.42-1.08-.42-1.74,0-.71,.14-1.32,.41-1.84,.27-.52,.65-.93,1.13-1.21,.48-.29,1.04-.43,1.68-.43,.67,0,1.24,.16,1.71,.47,.47,.31,.82,.76,1.05,1.33,.23,.57,.31,1.25,.26,2.02h-1.43v-.53c0-.7-.13-1.22-.37-1.54s-.63-.49-1.15-.49c-.59,0-1.03,.18-1.32,.55s-.43,.9-.43,1.6c0,.66,.14,1.16,.43,1.52,.29,.36,.71,.54,1.26,.54,.36,0,.66-.08,.92-.24s.46-.39,.6-.69l1.43,.43c-.25,.58-.63,1.04-1.15,1.36-.52,.32-1.09,.49-1.71,.49Zm-2.23-3.02v-1.09h4.46v1.09h-4.46Z"/><path class="b" d="M100.71,28.79v-6.48h1.29v2.01h.17v4.47h-1.46Zm4.49,0v-3.12c0-.2-.01-.43-.04-.68-.03-.25-.09-.49-.2-.72-.1-.23-.25-.42-.46-.57-.2-.15-.47-.22-.82-.22-.18,0-.37,.03-.55,.09-.18,.06-.34,.16-.49,.31s-.26,.35-.35,.6-.13,.58-.13,.97l-.86-.37c0-.55,.11-1.05,.32-1.5,.21-.45,.53-.8,.95-1.07,.42-.27,.93-.4,1.54-.4,.48,0,.88,.08,1.19,.24,.31,.16,.56,.36,.74,.61,.18,.25,.32,.51,.41,.79,.09,.28,.14,.55,.17,.8s.04,.45,.04,.61v3.62h-1.46Z"/><path class="b" d="M107.51,23.45v-1.13h4.52v1.13h-4.52Zm4.52,5.35c-.43,.08-.85,.12-1.26,.11-.41-.01-.78-.09-1.1-.23-.32-.14-.57-.37-.74-.67-.15-.28-.23-.57-.23-.86,0-.29-.01-.62-.01-.99v-5.63h1.44v5.55c0,.26,0,.49,0,.68s.05,.36,.12,.48c.14,.24,.37,.37,.69,.4,.32,.03,.68,.01,1.08-.05v1.21Z"/><path class="b" d="M115.82,28.79v-8.64h5.58v1.36h-4.13v2.13h3.41v1.36h-3.41v2.44h4.13v1.36h-5.58Z"/><path class="b" d="M122.83,28.79v-6.48h1.29v2.01h.17v4.47h-1.46Zm4.49,0v-3.12c0-.2-.01-.43-.04-.68-.03-.25-.09-.49-.2-.72-.1-.23-.25-.42-.46-.57-.2-.15-.47-.22-.82-.22-.18,0-.37,.03-.55,.09-.18,.06-.34,.16-.49,.31s-.26,.35-.35,.6-.13,.58-.13,.97l-.86-.37c0-.55,.11-1.05,.32-1.5,.21-.45,.53-.8,.95-1.07,.42-.27,.93-.4,1.54-.4,.48,0,.88,.08,1.19,.24,.31,.16,.56,.36,.74,.61,.18,.25,.32,.51,.41,.79,.09,.28,.14,.55,.17,.8s.04,.45,.04,.61v3.62h-1.46Z"/><path class="b" d="M129.63,23.45v-1.13h4.52v1.13h-4.52Zm4.52,5.35c-.43,.08-.85,.12-1.26,.11-.41-.01-.78-.09-1.1-.23-.32-.14-.57-.37-.74-.67-.15-.28-.23-.57-.23-.86,0-.29-.01-.62-.01-.99v-5.63h1.44v5.55c0,.26,0,.49,0,.68s.05,.36,.12,.48c.14,.24,.37,.37,.69,.4,.32,.03,.68,.01,1.08-.05v1.21Z"/><path class="b" d="M135.54,28.79v-6.48h1.28v1.58l-.16-.2c.08-.22,.19-.41,.32-.59,.13-.18,.29-.32,.48-.44,.16-.11,.34-.19,.53-.25,.19-.06,.39-.1,.6-.11,.2-.01,.4,0,.59,.03v1.35c-.19-.06-.41-.07-.66-.05-.25,.02-.48,.09-.67,.21-.2,.11-.36,.25-.49,.41s-.22,.36-.28,.57c-.06,.21-.09,.45-.09,.69v3.29h-1.45Z"/><path class="b" d="M140.99,31.67l1.25-3.43,.02,1.01-2.83-6.94h1.51l2,5.14h-.38l1.95-5.14h1.45l-3.61,9.36h-1.36Z"/><path class="b" d="M150.09,31.34v-13.31h2.62v1.28h-1.34v10.74h1.34v1.28h-2.62Z"/><path class="b" d="M155.83,28.79v-7.06l-1.62,.99v-1.6l1.62-.97h1.48v8.64h-1.48Z"/><path class="b" d="M159.35,28.79v-1.48h1.48v1.48h-1.48Z"/><path class="b" d="M165.22,28.96c-.43,0-.84-.08-1.22-.25s-.72-.41-1-.71c-.28-.31-.49-.67-.61-1.09l1.4-.38c.1,.34,.28,.61,.55,.8,.27,.19,.56,.28,.88,.27,.28,0,.54-.07,.76-.2,.22-.13,.4-.31,.53-.54,.13-.23,.19-.48,.19-.76,0-.43-.14-.79-.41-1.07-.28-.29-.63-.43-1.07-.43-.13,0-.26,.02-.39,.05s-.25,.09-.36,.15l-.66-1.14,2.9-2.48,.13,.35h-4.11v-1.36h5.3v1.37l-2.33,2.24v-.43c.51,.04,.96,.18,1.33,.44,.37,.26,.65,.59,.85,.99,.2,.4,.3,.85,.3,1.33,0,.54-.13,1.03-.4,1.46-.27,.43-.62,.77-1.07,1.02s-.94,.38-1.48,.38Z"/><path class="b" d="M169.67,31.34v-1.28h1.34v-10.74h-1.34v-1.28h2.62v13.31h-2.62Z"/><path class="b" d="M74.46,52.79v-7.2h1.08l2.49,5.1,2.49-5.1h1.08v7.2h-1.12v-4.62l-2.21,4.62h-.48l-2.21-4.62v4.62h-1.13Z"/><path class="b" d="M83.01,52.79v-7.2h1.08l2.49,5.1,2.49-5.1h1.08v7.2h-1.12v-4.62l-2.21,4.62h-.48l-2.21-4.62v4.62h-1.13Z"/><path class="b" d="M91.56,52.79v-7.2h2.97c.07,0,.16,0,.27,0,.11,0,.21,.02,.3,.03,.42,.06,.76,.2,1.03,.42,.27,.21,.47,.48,.61,.81s.2,.69,.2,1.08c0,.59-.15,1.09-.45,1.51-.3,.42-.75,.68-1.36,.78l-.52,.04h-1.85v2.51h-1.21Zm1.21-3.64h1.72c.07,0,.14,0,.22-.01,.08,0,.16-.02,.23-.04,.2-.05,.36-.14,.47-.26s.2-.27,.25-.43c.05-.16,.07-.32,.07-.47s-.02-.31-.07-.47c-.05-.16-.13-.31-.25-.43s-.27-.21-.47-.27c-.07-.02-.15-.03-.23-.04-.08,0-.16,0-.22,0h-1.72v2.43Zm2.93,3.64l-1.42-2.93,1.22-.27,1.56,3.2h-1.37Z"/><path class="b" d="M98.16,52.79v-7.2h2.29c.06,0,.18,0,.36,0,.18,0,.35,.02,.52,.04,.57,.07,1.05,.28,1.45,.61,.4,.33,.69,.75,.9,1.27,.2,.51,.3,1.08,.3,1.69s-.1,1.17-.3,1.68-.5,.94-.9,1.27c-.39,.33-.88,.53-1.45,.61-.16,.02-.33,.03-.51,.04-.18,0-.3,0-.36,0h-2.29Zm1.22-1.13h1.07c.1,0,.23,0,.38,0,.15,0,.29-.02,.41-.05,.34-.06,.62-.21,.83-.45,.21-.24,.37-.53,.47-.88,.1-.34,.15-.7,.15-1.08s-.05-.76-.16-1.1c-.1-.34-.26-.63-.48-.87-.21-.23-.49-.38-.82-.44-.12-.03-.26-.04-.41-.05-.16,0-.28,0-.38,0h-1.07v4.93Z"/><path class="b" d="M106.67,52.94c-.39,0-.72-.07-.99-.22-.27-.15-.47-.35-.61-.59s-.21-.52-.21-.82c0-.26,.04-.49,.13-.7,.09-.21,.22-.39,.4-.54,.18-.15,.41-.28,.7-.37,.22-.07,.47-.13,.76-.19s.61-.11,.95-.16c.34-.05,.7-.1,1.07-.16l-.43,.24c0-.37-.08-.65-.25-.82s-.46-.27-.86-.27c-.24,0-.48,.06-.71,.17s-.38,.31-.47,.58l-1.1-.34c.13-.46,.39-.82,.76-1.1,.38-.28,.88-.42,1.52-.42,.48,0,.9,.08,1.27,.23,.37,.16,.64,.41,.81,.77,.1,.19,.16,.38,.17,.58,.02,.2,.03,.42,.03,.65v3.32h-1.05v-1.17l.17,.19c-.24,.39-.53,.68-.85,.86s-.73,.27-1.22,.27Zm.24-.96c.27,0,.51-.05,.7-.15s.35-.21,.46-.35c.12-.14,.19-.27,.23-.4,.06-.15,.1-.33,.11-.53,0-.2,.01-.36,.01-.48l.37,.11c-.36,.06-.67,.11-.93,.15-.26,.04-.48,.08-.67,.12-.19,.04-.35,.08-.5,.13-.14,.05-.26,.11-.36,.17-.1,.07-.17,.14-.22,.23s-.08,.19-.08,.3c0,.13,.03,.25,.1,.35,.07,.1,.16,.18,.29,.24,.13,.06,.29,.09,.48,.09Z"/><path class="b" d="M110.32,48.34v-.95h3.77v.95h-3.77Zm3.77,4.46c-.36,.07-.71,.1-1.05,.09-.34,0-.65-.07-.92-.19-.27-.12-.48-.31-.62-.56-.12-.23-.19-.47-.2-.71s0-.52,0-.83v-4.7h1.2v4.62c0,.22,0,.41,0,.57,0,.16,.04,.3,.1,.4,.12,.2,.31,.31,.58,.33s.56,0,.9-.04v1.01Z"/><path class="b" d="M116.76,52.94c-.39,0-.72-.07-.99-.22-.27-.15-.47-.35-.61-.59s-.21-.52-.21-.82c0-.26,.04-.49,.13-.7,.09-.21,.22-.39,.4-.54,.18-.15,.41-.28,.7-.37,.22-.07,.47-.13,.76-.19s.61-.11,.95-.16c.34-.05,.7-.1,1.07-.16l-.43,.24c0-.37-.08-.65-.25-.82s-.46-.27-.86-.27c-.24,0-.48,.06-.71,.17s-.38,.31-.47,.58l-1.1-.34c.13-.46,.39-.82,.76-1.1,.38-.28,.88-.42,1.52-.42,.48,0,.9,.08,1.27,.23,.37,.16,.64,.41,.81,.77,.1,.19,.16,.38,.17,.58,.02,.2,.03,.42,.03,.65v3.32h-1.05v-1.17l.17,.19c-.24,.39-.53,.68-.85,.86s-.73,.27-1.22,.27Zm.24-.96c.27,0,.51-.05,.7-.15s.35-.21,.46-.35c.12-.14,.19-.27,.23-.4,.06-.15,.1-.33,.11-.53,0-.2,.01-.36,.01-.48l.37,.11c-.36,.06-.67,.11-.93,.15-.26,.04-.48,.08-.67,.12-.19,.04-.35,.08-.5,.13-.14,.05-.26,.11-.36,.17-.1,.07-.17,.14-.22,.23s-.08,.19-.08,.3c0,.13,.03,.25,.1,.35,.07,.1,.16,.18,.29,.24,.13,.06,.29,.09,.48,.09Z"/><path class="b" d="M121.41,52.14v-1.23h1.24v1.23h-1.24Zm.01-2.86v-1.24h1.23v1.24h-1.23Z"/><path class="b" d="M74.46,64.79v-7.2h2.29c.06,0,.18,0,.36,0,.18,0,.35,.02,.52,.04,.57,.07,1.05,.28,1.45,.61,.4,.33,.69,.75,.9,1.27,.2,.51,.3,1.08,.3,1.69s-.1,1.17-.3,1.68-.5,.94-.9,1.27c-.39,.33-.88,.53-1.45,.61-.16,.02-.33,.03-.51,.04-.18,0-.3,0-.36,0h-2.29Zm1.22-1.13h1.07c.1,0,.23,0,.38,0,.15,0,.29-.02,.41-.05,.34-.06,.62-.21,.83-.45,.21-.24,.37-.53,.47-.88,.1-.34,.15-.7,.15-1.08s-.05-.76-.16-1.1c-.1-.34-.26-.63-.48-.87-.21-.23-.49-.38-.82-.44-.12-.03-.26-.04-.41-.05-.16,0-.28,0-.38,0h-1.07v4.93Z"/><path class="b" d="M82.97,64.94c-.39,0-.72-.07-.99-.22-.27-.15-.47-.35-.61-.59s-.21-.52-.21-.82c0-.26,.04-.49,.13-.7,.09-.21,.22-.39,.4-.54,.18-.15,.41-.28,.7-.37,.22-.07,.47-.13,.76-.19s.61-.11,.95-.16c.34-.05,.7-.1,1.07-.16l-.43,.24c0-.37-.08-.65-.25-.82s-.46-.27-.86-.27c-.24,0-.48,.06-.71,.17s-.38,.31-.47,.58l-1.1-.34c.13-.46,.39-.82,.76-1.1,.38-.28,.88-.42,1.52-.42,.48,0,.9,.08,1.27,.23,.37,.16,.64,.41,.81,.77,.1,.19,.16,.38,.17,.58,.02,.2,.03,.42,.03,.65v3.32h-1.05v-1.17l.17,.19c-.24,.39-.53,.68-.85,.86s-.73,.27-1.22,.27Zm.24-.96c.27,0,.51-.05,.7-.15s.35-.21,.46-.35c.12-.14,.19-.27,.23-.4,.06-.15,.1-.33,.11-.53,0-.2,.01-.36,.01-.48l.37,.11c-.36,.06-.67,.11-.93,.15-.26,.04-.48,.08-.67,.12-.19,.04-.35,.08-.5,.13-.14,.05-.26,.11-.36,.17-.1,.07-.17,.14-.22,.23s-.08,.19-.08,.3c0,.13,.03,.25,.1,.35,.07,.1,.16,.18,.29,.24,.13,.06,.29,.09,.48,.09Z"/><path class="b" d="M86.62,60.34v-.95h3.77v.95h-3.77Zm3.77,4.46c-.36,.07-.71,.1-1.05,.09-.34,0-.65-.07-.92-.19-.27-.12-.48-.31-.62-.56-.12-.23-.19-.47-.2-.71s0-.52,0-.83v-4.7h1.2v4.62c0,.22,0,.41,0,.57,0,.16,.04,.3,.1,.4,.12,.2,.31,.31,.58,.33s.56,0,.9-.04v1.01Z"/><path class="b" d="M93.06,64.94c-.39,0-.72-.07-.99-.22-.27-.15-.47-.35-.61-.59s-.21-.52-.21-.82c0-.26,.04-.49,.13-.7,.09-.21,.22-.39,.4-.54,.18-.15,.41-.28,.7-.37,.22-.07,.47-.13,.76-.19s.61-.11,.95-.16c.34-.05,.7-.1,1.07-.16l-.43,.24c0-.37-.08-.65-.25-.82s-.46-.27-.86-.27c-.24,0-.48,.06-.71,.17s-.38,.31-.47,.58l-1.1-.34c.13-.46,.39-.82,.76-1.1,.38-.28,.88-.42,1.52-.42,.48,0,.9,.08,1.27,.23,.37,.16,.64,.41,.81,.77,.1,.19,.16,.38,.17,.58,.02,.2,.03,.42,.03,.65v3.32h-1.05v-1.17l.17,.19c-.24,.39-.53,.68-.85,.86s-.73,.27-1.22,.27Zm.24-.96c.27,0,.51-.05,.7-.15s.35-.21,.46-.35c.12-.14,.19-.27,.23-.4,.06-.15,.1-.33,.11-.53,0-.2,.01-.36,.01-.48l.37,.11c-.36,.06-.67,.11-.93,.15-.26,.04-.48,.08-.67,.12-.19,.04-.35,.08-.5,.13-.14,.05-.26,.11-.36,.17-.1,.07-.17,.14-.22,.23s-.08,.19-.08,.3c0,.13,.03,.25,.1,.35,.07,.1,.16,.18,.29,.24,.13,.06,.29,.09,.48,.09Z"/><path class="b" d="M97.71,64.04v-.98h.98v.98h-.98Zm0-2.92v-.98h.98v.98h-.98Z"/><path class="b" d="M102.45,64.79v-7.2h.89v3.17h3.79v-3.17h.89v7.2h-.89v-3.18h-3.79v3.18h-.89Z"/><path class="b" d="M110.95,64.94c-.4,0-.74-.07-1.01-.22s-.48-.34-.62-.59-.21-.51-.21-.8,.05-.53,.16-.74c.11-.21,.26-.38,.46-.52,.2-.14,.43-.25,.71-.33,.26-.07,.54-.13,.86-.18s.64-.1,.97-.14c.33-.04,.63-.08,.92-.12l-.32,.19c0-.48-.09-.83-.29-1.07-.2-.23-.55-.34-1.04-.34-.33,0-.61,.07-.86,.22-.25,.15-.42,.39-.52,.72l-.85-.25c.13-.47,.38-.84,.76-1.11,.37-.27,.86-.41,1.47-.41,.49,0,.91,.09,1.26,.26,.35,.17,.6,.44,.76,.79,.08,.17,.12,.35,.15,.54,.02,.19,.03,.4,.03,.61v3.34h-.79v-1.29l.18,.12c-.2,.44-.49,.77-.85,.99-.37,.22-.81,.33-1.33,.33Zm.13-.75c.32,0,.6-.06,.83-.17,.24-.12,.42-.27,.57-.46,.14-.19,.24-.39,.28-.62,.05-.17,.08-.35,.08-.56s0-.36,0-.47l.31,.13c-.29,.04-.58,.08-.86,.12-.28,.04-.54,.08-.79,.12-.25,.04-.47,.09-.67,.15-.15,.05-.28,.11-.41,.18-.13,.07-.23,.17-.31,.28s-.12,.26-.12,.43c0,.15,.04,.29,.11,.42,.08,.13,.19,.24,.35,.33,.16,.08,.37,.12,.62,.12Z"/><path class="b" d="M117.08,64.94c-.64,0-1.17-.14-1.58-.42-.41-.28-.66-.68-.76-1.18l.91-.15c.07,.29,.24,.53,.51,.7,.26,.17,.59,.26,.98,.26s.66-.08,.87-.23,.32-.36,.32-.62c0-.15-.04-.28-.11-.37-.07-.09-.21-.18-.43-.27-.22-.08-.55-.18-.99-.3-.48-.13-.85-.26-1.12-.39s-.47-.29-.58-.48c-.12-.18-.17-.4-.17-.65,0-.32,.09-.59,.26-.83,.17-.24,.42-.42,.73-.55,.31-.13,.67-.19,1.09-.19s.78,.06,1.1,.19c.32,.13,.58,.31,.78,.55s.32,.52,.35,.83l-.91,.17c-.04-.29-.18-.52-.42-.69-.24-.17-.54-.25-.91-.26-.35-.01-.63,.05-.85,.18-.22,.14-.33,.32-.33,.56,0,.13,.04,.24,.12,.33,.08,.09,.23,.18,.46,.26,.22,.08,.54,.18,.97,.29,.48,.12,.85,.25,1.13,.39,.27,.14,.47,.31,.59,.5,.12,.19,.18,.43,.18,.71,0,.52-.19,.93-.58,1.23-.38,.3-.91,.45-1.58,.45Z"/><path class="b" d="M120.34,64.79v-7.2h.8v3.98h.1v3.22h-.9Zm3.85,0v-2.71c0-.26-.02-.5-.07-.74-.04-.24-.12-.45-.24-.64-.11-.19-.26-.34-.45-.45-.19-.11-.43-.17-.71-.17-.22,0-.43,.04-.61,.11-.18,.07-.34,.19-.47,.34s-.23,.35-.3,.58c-.07,.23-.11,.5-.11,.82l-.58-.18c0-.52,.09-.97,.28-1.35,.19-.38,.45-.66,.79-.87,.34-.2,.74-.3,1.21-.3,.35,0,.65,.05,.9,.17,.25,.11,.45,.26,.61,.44,.16,.18,.29,.38,.39,.61,.09,.22,.16,.45,.2,.68s.06,.45,.06,.66v2.99h-.9Z"/><path class="b" d="M127.09,66.95v-11.07h1.97v.81h-1.17v9.45h1.17v.81h-1.97Z"/><path class="b" d="M130.52,64.79v-7.2h.89v3.17h3.79v-3.17h.89v7.2h-.89v-3.18h-3.79v3.18h-.89Z"/><path class="b" d="M142.05,66.62c-.39-.45-.72-.96-1-1.51-.28-.56-.5-1.15-.64-1.77-.15-.62-.22-1.23-.21-1.85,0-.62,.06-1.24,.21-1.86,.15-.62,.37-1.2,.64-1.76,.28-.56,.62-1.06,1-1.51l.66,.5c-.39,.47-.72,.95-.97,1.46-.25,.5-.44,1.02-.56,1.55-.12,.53-.18,1.07-.19,1.62,0,.54,.07,1.08,.19,1.62,.12,.54,.31,1.05,.56,1.56,.25,.5,.57,.99,.96,1.45l-.66,.5Z"/><path class="b" d="M145.71,64.94c-.55,0-1.01-.12-1.39-.37-.38-.25-.67-.58-.87-1.01-.2-.43-.3-.92-.31-1.47,0-.56,.11-1.06,.32-1.49s.5-.76,.88-1c.38-.24,.85-.36,1.39-.36,.57,0,1.06,.14,1.47,.42,.41,.28,.69,.66,.83,1.15l-.88,.27c-.11-.31-.3-.56-.55-.73-.25-.17-.55-.26-.88-.26-.37,0-.67,.09-.92,.26-.24,.17-.42,.41-.53,.71-.12,.3-.18,.65-.18,1.04,0,.6,.15,1.08,.42,1.45,.27,.37,.68,.55,1.21,.55,.35,0,.65-.08,.88-.24,.23-.16,.41-.4,.53-.7l.9,.23c-.19,.5-.48,.89-.88,1.16s-.88,.4-1.44,.4Z"/><path class="b" d="M151.19,64.94c-.54,0-1-.12-1.39-.37-.39-.24-.69-.58-.9-1.01-.21-.43-.31-.92-.31-1.48s.11-1.06,.32-1.49c.21-.43,.52-.76,.91-1s.85-.36,1.38-.36,1,.12,1.39,.36c.39,.24,.69,.58,.9,1,.21,.43,.31,.92,.31,1.48s-.11,1.06-.32,1.49c-.21,.43-.51,.76-.9,1-.39,.24-.85,.36-1.39,.36Zm0-.85c.56,0,.98-.19,1.25-.56s.41-.86,.41-1.45-.14-1.1-.42-1.46c-.28-.36-.69-.54-1.25-.54-.38,0-.69,.08-.93,.25-.24,.17-.43,.41-.54,.71-.12,.3-.18,.65-.18,1.04,0,.61,.14,1.09,.42,1.46,.28,.37,.69,.55,1.24,.55Z"/><path class="b" d="M155,58.44v-.92h.89v.92h-.89Zm0,6.36v-5.4h.89v5.4h-.89Z"/><path class="b" d="M157.39,64.79v-5.4h.8v1.45h.1v3.96h-.9Zm3.85,0v-2.71c0-.26-.02-.5-.07-.74-.04-.24-.12-.45-.24-.64-.11-.19-.26-.34-.45-.45-.19-.11-.43-.17-.71-.17-.22,0-.43,.04-.61,.11-.18,.07-.34,.19-.47,.34s-.23,.35-.3,.58c-.07,.23-.11,.5-.11,.82l-.58-.18c0-.52,.09-.97,.28-1.35,.19-.38,.45-.66,.79-.87,.34-.2,.74-.3,1.21-.3,.35,0,.65,.05,.9,.17,.25,.11,.45,.26,.61,.44,.16,.18,.29,.38,.39,.61,.09,.22,.16,.45,.2,.68s.06,.45,.06,.66v2.99h-.9Z"/><path class="b" d="M167.89,64.94c-.46,0-.87-.11-1.24-.33-.37-.22-.67-.52-.88-.9-.22-.38-.33-.81-.33-1.29v-2.39c0-.5,.11-.95,.33-1.34,.22-.39,.52-.69,.9-.91,.38-.22,.82-.33,1.31-.33,.4,0,.77,.08,1.11,.24,.34,.16,.63,.39,.86,.7l-.67,.59c-.14-.21-.33-.38-.56-.5-.23-.12-.48-.18-.75-.18-.32,0-.6,.08-.84,.23s-.44,.35-.58,.6c-.14,.25-.21,.52-.21,.8v1.45l-.2-.22c.21-.3,.48-.54,.8-.72,.32-.18,.67-.27,1.05-.27,.45,0,.85,.1,1.2,.31,.35,.21,.63,.49,.84,.85s.31,.76,.31,1.21-.11,.85-.33,1.21c-.22,.36-.52,.65-.89,.87-.37,.22-.78,.33-1.23,.33Zm0-.86c.29,0,.55-.07,.79-.21,.24-.14,.42-.32,.56-.56,.14-.24,.21-.5,.21-.78s-.07-.55-.21-.79c-.14-.24-.33-.42-.56-.56s-.5-.21-.78-.21-.55,.07-.78,.21c-.24,.14-.42,.33-.56,.56-.14,.24-.21,.5-.21,.79s.07,.54,.21,.78,.33,.42,.56,.56c.24,.14,.5,.21,.78,.21Z"/><path class="b" d="M171.37,66.12c.39-.46,.71-.94,.96-1.45,.25-.51,.44-1.03,.56-1.56,.12-.54,.18-1.07,.19-1.62,0-.55-.06-1.09-.18-1.62-.12-.53-.31-1.05-.56-1.55-.25-.5-.57-.99-.97-1.46l.66-.5c.39,.45,.72,.95,1,1.51,.28,.56,.5,1.15,.65,1.76,.15,.62,.22,1.24,.21,1.86,0,.62-.07,1.23-.21,1.85-.15,.62-.37,1.21-.65,1.77-.28,.56-.62,1.06-1,1.51l-.66-.5Z"/><path class="b" d="M175.89,65.91l.06-.42c.14,0,.25-.02,.31-.08,.07-.06,.12-.15,.14-.26,.02-.11,.02-.23,0-.37h-.52v-1.13h.98v1.28c0,.35-.09,.61-.26,.79-.17,.18-.41,.24-.72,.18Z"/><path class="b" d="M180.77,64.79v-7.2h.89v3.17h3.79v-3.17h.89v7.2h-.89v-3.18h-3.79v3.18h-.89Z"/><path class="b" d="M190.31,66.62c-.39-.45-.72-.96-1-1.51-.28-.56-.5-1.15-.64-1.77-.15-.62-.22-1.23-.21-1.85,0-.62,.06-1.24,.21-1.86,.15-.62,.37-1.2,.64-1.76,.28-.56,.62-1.06,1-1.51l.66,.5c-.39,.47-.72,.95-.97,1.46-.25,.5-.44,1.02-.56,1.55-.12,.53-.18,1.07-.19,1.62,0,.54,.07,1.08,.19,1.62,.12,.54,.31,1.05,.56,1.56,.25,.5,.57,.99,.96,1.45l-.66,.5Z"/><path class="b" d="M193.97,64.94c-.55,0-1.01-.12-1.39-.37-.38-.25-.67-.58-.87-1.01-.2-.43-.3-.92-.31-1.47,0-.56,.11-1.06,.32-1.49s.5-.76,.88-1c.38-.24,.85-.36,1.39-.36,.57,0,1.06,.14,1.47,.42,.41,.28,.69,.66,.83,1.15l-.88,.27c-.11-.31-.3-.56-.55-.73-.25-.17-.55-.26-.88-.26-.37,0-.67,.09-.92,.26-.24,.17-.42,.41-.53,.71-.12,.3-.18,.65-.18,1.04,0,.6,.15,1.08,.42,1.45,.27,.37,.68,.55,1.21,.55,.35,0,.65-.08,.88-.24,.23-.16,.41-.4,.53-.7l.9,.23c-.19,.5-.48,.89-.88,1.16s-.88,.4-1.44,.4Z"/><path class="b" d="M199.45,64.94c-.54,0-1-.12-1.39-.37-.39-.24-.69-.58-.9-1.01-.21-.43-.31-.92-.31-1.48s.11-1.06,.32-1.49c.21-.43,.52-.76,.91-1s.85-.36,1.38-.36,1,.12,1.39,.36c.39,.24,.69,.58,.9,1,.21,.43,.31,.92,.31,1.48s-.11,1.06-.32,1.49c-.21,.43-.51,.76-.9,1-.39,.24-.85,.36-1.39,.36Zm0-.85c.56,0,.98-.19,1.25-.56s.41-.86,.41-1.45-.14-1.1-.42-1.46c-.28-.36-.69-.54-1.25-.54-.38,0-.69,.08-.93,.25-.24,.17-.43,.41-.54,.71-.12,.3-.18,.65-.18,1.04,0,.61,.14,1.09,.42,1.46,.28,.37,.69,.55,1.24,.55Z"/><path class="b" d="M203.26,58.44v-.92h.89v.92h-.89Zm0,6.36v-5.4h.89v5.4h-.89Z"/><path class="b" d="M205.64,64.79v-5.4h.8v1.45h.1v3.96h-.9Zm3.85,0v-2.71c0-.26-.02-.5-.07-.74-.04-.24-.12-.45-.24-.64-.11-.19-.26-.34-.45-.45-.19-.11-.43-.17-.71-.17-.22,0-.43,.04-.61,.11-.18,.07-.34,.19-.47,.34s-.23,.35-.3,.58c-.07,.23-.11,.5-.11,.82l-.58-.18c0-.52,.09-.97,.28-1.35,.19-.38,.45-.66,.79-.87,.34-.2,.74-.3,1.21-.3,.35,0,.65,.05,.9,.17,.25,.11,.45,.26,.61,.44,.16,.18,.29,.38,.39,.61,.09,.22,.16,.45,.2,.68s.06,.45,.06,.66v2.99h-.9Z"/><path class="b" d="M214.07,64.79l2.59-6.34h-3.27v-.86h4.22v.86l-2.58,6.34h-.96Z"/><path class="b" d="M218.54,66.12c.39-.46,.71-.94,.96-1.45,.25-.51,.44-1.03,.56-1.56,.12-.54,.18-1.07,.19-1.62,0-.55-.06-1.09-.18-1.62-.12-.53-.31-1.05-.56-1.55-.25-.5-.57-.99-.97-1.46l.66-.5c.39,.45,.72,.95,1,1.51,.28,.56,.5,1.15,.65,1.76,.15,.62,.22,1.24,.21,1.86,0,.62-.07,1.23-.21,1.85-.15,.62-.37,1.21-.65,1.77-.28,.56-.62,1.06-1,1.51l-.66-.5Z"/><path class="b" d="M223.22,66.95v-.81h1.17v-9.45h-1.17v-.81h1.97v11.07h-1.97Z"/><path class="b" d="M76.08,76.79l-2.27-7.2h1.24l1.9,6.03,1.92-6.03h1.24l-2.27,7.2h-1.76Z"/><path class="b" d="M81.92,76.94c-.39,0-.72-.07-.99-.22-.27-.15-.47-.35-.61-.59s-.21-.52-.21-.82c0-.26,.04-.49,.13-.7,.09-.21,.22-.39,.4-.54,.18-.15,.41-.28,.7-.37,.22-.07,.47-.13,.76-.19s.61-.11,.95-.16c.34-.05,.7-.1,1.07-.16l-.43,.24c0-.37-.08-.65-.25-.82s-.46-.27-.86-.27c-.24,0-.48,.06-.71,.17s-.38,.31-.47,.58l-1.1-.34c.13-.46,.39-.82,.76-1.1,.38-.28,.88-.42,1.52-.42,.48,0,.9,.08,1.27,.23,.37,.16,.64,.41,.81,.77,.1,.19,.16,.38,.17,.58,.02,.2,.03,.42,.03,.65v3.32h-1.05v-1.17l.17,.19c-.24,.39-.53,.68-.85,.86s-.73,.27-1.22,.27Zm.24-.96c.27,0,.51-.05,.7-.15s.35-.21,.46-.35c.12-.14,.19-.27,.23-.4,.06-.15,.1-.33,.11-.53,0-.2,.01-.36,.01-.48l.37,.11c-.36,.06-.67,.11-.93,.15-.26,.04-.48,.08-.67,.12-.19,.04-.35,.08-.5,.13-.14,.05-.26,.11-.36,.17-.1,.07-.17,.14-.22,.23s-.08,.19-.08,.3c0,.13,.03,.25,.1,.35,.07,.1,.16,.18,.29,.24,.13,.06,.29,.09,.48,.09Z"/><path class="b" d="M86.27,76.79v-7.35h1.21v7.35h-1.21Z"/><path class="b" d="M91,76.95c-.4,0-.73-.07-.99-.2-.26-.13-.47-.3-.62-.51-.15-.21-.27-.43-.34-.66-.07-.23-.12-.45-.14-.66-.02-.21-.03-.38-.03-.51v-3.02h1.22v2.6c0,.17,.01,.35,.04,.56,.02,.21,.08,.41,.16,.6,.08,.19,.21,.35,.38,.47s.4,.18,.68,.18c.15,0,.3-.02,.46-.07,.15-.05,.29-.14,.41-.26s.22-.29,.29-.5c.07-.21,.11-.48,.11-.81l.71,.3c0,.46-.09,.88-.27,1.25-.18,.37-.44,.67-.79,.89s-.77,.33-1.28,.33Zm1.77-.16v-1.67h-.15v-3.73h1.21v5.4h-1.06Z"/><path class="b" d="M97.69,76.94c-.55,0-1.03-.12-1.44-.36s-.74-.56-.97-.99c-.23-.42-.35-.9-.35-1.45,0-.59,.11-1.1,.34-1.54,.23-.43,.54-.77,.94-1.01,.4-.24,.87-.36,1.4-.36,.56,0,1.04,.13,1.43,.39s.68,.63,.87,1.11c.19,.48,.26,1.04,.21,1.68h-1.19v-.44c0-.59-.11-1.02-.31-1.29-.2-.27-.52-.41-.96-.41-.49,0-.86,.15-1.1,.46-.24,.3-.36,.75-.36,1.34,0,.55,.12,.97,.36,1.27,.24,.3,.59,.45,1.05,.45,.3,0,.55-.07,.77-.2s.38-.32,.5-.57l1.19,.36c-.21,.49-.53,.86-.96,1.13-.43,.27-.91,.41-1.43,.41Zm-1.86-2.52v-.91h3.71v.91h-3.71Z"/><path class="b" d="M101.65,76.04v-.98h.98v.98h-.98Zm0-2.92v-.98h.98v.98h-.98Z"/><path class="b" d="M108.36,76.93c-.36,0-.69-.07-1-.2s-.57-.32-.79-.56c-.22-.24-.38-.53-.49-.86l.85-.24c.11,.33,.29,.59,.55,.76,.26,.17,.54,.26,.87,.25,.29,0,.55-.07,.76-.2,.21-.13,.38-.3,.5-.53,.12-.22,.18-.48,.18-.77,0-.45-.13-.81-.4-1.09s-.62-.42-1.05-.42c-.12,0-.25,.02-.38,.05s-.25,.08-.37,.14l-.43-.71,2.67-2.42,.11,.3h-3.58v-.85h4.25v.86l-2.27,2.18v-.32c.47-.03,.88,.05,1.24,.24,.36,.19,.63,.46,.83,.82s.3,.76,.3,1.21-.1,.87-.31,1.22-.49,.63-.84,.83c-.35,.2-.75,.3-1.2,.3Z"/><path class="b" d="M114.44,76.94c-.47,0-.88-.11-1.25-.32-.37-.21-.65-.5-.87-.86-.21-.37-.32-.78-.32-1.25v-2.64c0-.47,.11-.88,.32-1.25,.21-.37,.5-.66,.87-.87,.36-.21,.78-.31,1.25-.31s.88,.1,1.25,.31c.37,.21,.66,.5,.87,.87,.21,.37,.31,.78,.31,1.25v2.64c0,.47-.1,.88-.31,1.25-.21,.36-.5,.65-.87,.86-.37,.21-.78,.32-1.25,.32Zm0-.86c.28,0,.54-.07,.77-.21,.23-.14,.41-.32,.55-.55,.14-.23,.21-.49,.21-.77v-2.74c0-.28-.07-.54-.21-.77-.14-.23-.32-.41-.55-.55-.23-.14-.49-.21-.77-.21s-.54,.07-.77,.21-.42,.32-.55,.55c-.14,.23-.2,.49-.2,.77v2.74c0,.28,.07,.54,.2,.77,.14,.23,.32,.42,.55,.55s.49,.21,.77,.21Z"/></g><path class="b" d="M69.66,122.38c37.86,0,68.66,30.8,68.66,68.66s-30.8,68.66-68.66,68.66S1,228.9,1,191.04,31.8,122.38,69.66,122.38m0-1C31.19,121.38,0,152.57,0,191.04s31.19,69.66,69.66,69.66,69.66-31.19,69.66-69.66-31.19-69.66-69.66-69.66h0Z"/><g><path class="b" d="M27.74,171.27c-.86,0-1.6-.19-2.22-.57-.62-.38-1.09-.91-1.42-1.58-.33-.68-.5-1.46-.5-2.35s.17-1.68,.5-2.35c.33-.68,.8-1.2,1.42-1.58,.62-.38,1.36-.57,2.22-.57,1,0,1.83,.25,2.49,.75,.66,.5,1.13,1.17,1.4,2.01l-1.46,.4c-.17-.56-.45-1-.86-1.32-.4-.32-.93-.48-1.57-.48-.58,0-1.06,.13-1.45,.39-.39,.26-.68,.62-.87,1.1-.19,.47-.29,1.02-.3,1.65,0,.63,.1,1.18,.29,1.65s.49,.83,.87,1.09c.39,.26,.87,.39,1.45,.39,.64,0,1.17-.16,1.57-.48,.4-.32,.69-.76,.86-1.32l1.46,.4c-.27,.84-.73,1.51-1.4,2.01-.66,.5-1.49,.75-2.49,.75Z"/><path class="b" d="M35.81,171.27c-.65,0-1.21-.15-1.7-.44s-.86-.7-1.12-1.21-.4-1.11-.4-1.77,.14-1.28,.41-1.79c.27-.51,.65-.91,1.13-1.2,.48-.29,1.04-.43,1.68-.43s1.22,.15,1.7,.44c.48,.29,.86,.69,1.13,1.21,.27,.51,.4,1.1,.4,1.77s-.13,1.27-.4,1.78c-.27,.51-.65,.92-1.13,1.21-.48,.29-1.05,.43-1.7,.43Zm0-1.36c.58,0,1-.19,1.28-.58,.28-.38,.42-.88,.42-1.49s-.14-1.13-.43-1.5c-.28-.37-.71-.56-1.28-.56-.39,0-.71,.09-.96,.26s-.44,.42-.55,.73c-.12,.31-.18,.67-.18,1.08,0,.63,.14,1.13,.43,1.5,.29,.37,.71,.56,1.26,.56Z"/><path class="b" d="M40.48,163.63v-1.33h1.45v1.33h-1.45Zm0,7.46v-6.48h1.45v6.48h-1.45Z"/><path class="b" d="M43.72,171.09v-6.48h1.29v2.01h.17v4.47h-1.46Zm4.49,0v-3.12c0-.2-.01-.43-.04-.68-.03-.25-.09-.49-.2-.72-.1-.23-.25-.42-.46-.57-.2-.15-.47-.22-.82-.22-.18,0-.37,.03-.55,.09-.18,.06-.34,.16-.49,.31s-.26,.35-.35,.6-.13,.58-.13,.97l-.86-.37c0-.55,.11-1.05,.32-1.5,.21-.45,.53-.8,.95-1.07,.42-.27,.93-.4,1.54-.4,.48,0,.88,.08,1.19,.24,.31,.16,.56,.36,.74,.61,.18,.25,.32,.51,.41,.79,.09,.28,.14,.55,.17,.8s.04,.45,.04,.61v3.62h-1.46Z"/><path class="b" d="M53.64,171.09v-8.64h5.58v1.36h-4.13v2.13h3.41v1.36h-3.41v2.44h4.13v1.36h-5.58Z"/><path class="b" d="M60.64,171.09v-6.48h1.29v2.01h.17v4.47h-1.46Zm4.49,0v-3.12c0-.2-.01-.43-.04-.68-.03-.25-.09-.49-.2-.72-.1-.23-.25-.42-.46-.57-.2-.15-.47-.22-.82-.22-.18,0-.37,.03-.55,.09-.18,.06-.34,.16-.49,.31s-.26,.35-.35,.6-.13,.58-.13,.97l-.86-.37c0-.55,.11-1.05,.32-1.5,.21-.45,.53-.8,.95-1.07,.42-.27,.93-.4,1.54-.4,.48,0,.88,.08,1.19,.24,.31,.16,.56,.36,.74,.61,.18,.25,.32,.51,.41,.79,.09,.28,.14,.55,.17,.8s.04,.45,.04,.61v3.62h-1.46Z"/><path class="b" d="M67.44,165.75v-1.13h4.52v1.13h-4.52Zm4.52,5.35c-.43,.08-.85,.12-1.26,.11-.41-.01-.78-.09-1.1-.23-.32-.14-.57-.37-.74-.67-.15-.28-.23-.57-.23-.86,0-.29-.01-.62-.01-.99v-5.63h1.44v5.55c0,.26,0,.49,0,.68s.05,.36,.12,.48c.14,.24,.37,.37,.69,.4,.32,.03,.68,.01,1.08-.05v1.21Z"/><path class="b" d="M73.36,171.09v-6.48h1.28v1.58l-.16-.2c.08-.22,.19-.41,.32-.59,.13-.18,.29-.32,.48-.44,.16-.11,.34-.19,.53-.25,.19-.06,.39-.1,.6-.11,.2-.01,.4,0,.59,.03v1.35c-.19-.06-.41-.07-.66-.05-.25,.02-.48,.09-.67,.21-.2,.11-.36,.25-.49,.41s-.22,.36-.28,.57c-.06,.21-.09,.45-.09,.69v3.29h-1.45Z"/><path class="b" d="M78.8,173.97l1.25-3.43,.02,1.01-2.83-6.94h1.51l2,5.14h-.38l1.95-5.14h1.45l-3.61,9.36h-1.36Z"/><path class="b" d="M87.9,173.64v-13.31h2.62v1.28h-1.34v10.74h1.34v1.28h-2.62Z"/><path class="b" d="M95.25,171.27c-.61,0-1.15-.13-1.62-.39s-.83-.63-1.09-1.09c-.26-.47-.39-1.01-.39-1.62v-2.78c0-.61,.13-1.15,.39-1.62,.26-.47,.63-.83,1.09-1.09s1.01-.39,1.62-.39,1.15,.13,1.62,.39c.47,.26,.83,.63,1.09,1.09s.4,1.01,.4,1.62v2.78c0,.61-.13,1.15-.4,1.62-.26,.47-.63,.83-1.09,1.09-.47,.26-1.01,.39-1.62,.39Zm0-1.37c.3,0,.58-.07,.83-.22,.25-.15,.44-.34,.59-.59,.14-.25,.22-.52,.22-.83v-2.99c0-.31-.07-.58-.22-.83-.14-.25-.34-.44-.59-.59-.25-.15-.52-.22-.83-.22s-.58,.07-.83,.22c-.25,.15-.44,.34-.59,.59-.14,.25-.22,.52-.22,.83v2.99c0,.3,.07,.58,.22,.83,.14,.25,.34,.44,.59,.59,.25,.15,.52,.22,.83,.22Z"/><path class="b" d="M99.92,172.62l.08-.62c.18,.02,.33-.02,.44-.09,.11-.08,.18-.19,.22-.33,.04-.14,.05-.3,.03-.48h-.77v-1.54h1.48v1.6c0,.52-.12,.92-.37,1.19-.25,.27-.62,.36-1.11,.28Z"/><path class="b" d="M106.67,171.27c-.56,0-1.07-.13-1.52-.4-.45-.27-.81-.63-1.07-1.11-.26-.47-.4-1.01-.4-1.63v-2.63c0-.66,.13-1.23,.39-1.71,.26-.48,.63-.86,1.1-1.12s1.03-.4,1.65-.4c.44,0,.85,.07,1.24,.22,.39,.15,.74,.38,1.04,.7l-1.04,1.01c-.15-.18-.34-.32-.56-.43-.22-.1-.45-.16-.69-.16-.34,0-.63,.08-.88,.24s-.45,.37-.58,.62c-.14,.26-.21,.53-.21,.82v1.43l-.26-.29c.25-.29,.55-.51,.89-.67,.35-.16,.71-.24,1.09-.24,.54,0,1.02,.12,1.44,.37s.74,.58,.98,1.01,.36,.91,.36,1.46-.14,1.03-.41,1.47c-.27,.44-.64,.79-1.09,1.04s-.95,.39-1.49,.39Zm0-1.39c.28,0,.54-.07,.77-.2,.23-.13,.42-.32,.56-.55,.14-.23,.21-.48,.21-.76s-.07-.54-.2-.77c-.14-.23-.32-.42-.55-.55-.23-.14-.49-.21-.77-.21s-.54,.07-.77,.21c-.23,.14-.42,.32-.55,.55-.14,.23-.2,.49-.2,.77s.07,.52,.2,.75c.13,.23,.32,.41,.55,.55,.23,.14,.48,.21,.76,.21Z"/><path class="b" d="M111.08,173.64v-1.28h1.34v-10.74h-1.34v-1.28h2.62v13.31h-2.62Z"/><path class="b" d="M23.95,195.09v-7.2h1.08l2.49,5.1,2.49-5.1h1.08v7.2h-1.12v-4.62l-2.21,4.62h-.48l-2.21-4.62v4.62h-1.13Z"/><path class="b" d="M32.5,195.09v-7.2h1.08l2.49,5.1,2.49-5.1h1.08v7.2h-1.12v-4.62l-2.21,4.62h-.48l-2.21-4.62v4.62h-1.13Z"/><path class="b" d="M41.05,195.09v-7.2h2.97c.07,0,.16,0,.27,0,.11,0,.21,.02,.3,.03,.42,.06,.76,.2,1.03,.42,.27,.21,.47,.48,.61,.81s.2,.69,.2,1.08c0,.59-.15,1.09-.45,1.51-.3,.42-.75,.68-1.36,.78l-.52,.04h-1.85v2.51h-1.21Zm1.21-3.64h1.72c.07,0,.14,0,.22-.01,.08,0,.16-.02,.23-.04,.2-.05,.36-.14,.47-.26s.2-.27,.25-.43c.05-.16,.07-.32,.07-.47s-.02-.31-.07-.47c-.05-.16-.13-.31-.25-.43s-.27-.21-.47-.27c-.07-.02-.15-.03-.23-.04-.08,0-.16,0-.22,0h-1.72v2.43Zm2.93,3.64l-1.42-2.93,1.22-.27,1.56,3.2h-1.37Z"/><path class="b" d="M47.64,195.09v-7.2h2.29c.06,0,.18,0,.36,0,.18,0,.35,.02,.52,.04,.57,.07,1.05,.28,1.45,.61,.4,.33,.69,.75,.9,1.27,.2,.51,.3,1.08,.3,1.69s-.1,1.17-.3,1.68-.5,.94-.9,1.27c-.39,.33-.88,.53-1.45,.61-.16,.02-.33,.03-.51,.04-.18,0-.3,0-.36,0h-2.29Zm1.22-1.13h1.07c.1,0,.23,0,.38,0,.15,0,.29-.02,.41-.05,.34-.06,.62-.21,.83-.45,.21-.24,.37-.53,.47-.88,.1-.34,.15-.7,.15-1.08s-.05-.76-.16-1.1c-.1-.34-.26-.63-.48-.87-.21-.23-.49-.38-.82-.44-.12-.03-.26-.04-.41-.05-.16,0-.28,0-.38,0h-1.07v4.93Z"/><path class="b" d="M56.16,195.24c-.39,0-.72-.07-.99-.22-.27-.15-.47-.35-.61-.59s-.21-.52-.21-.82c0-.26,.04-.49,.13-.7,.09-.21,.22-.39,.4-.54,.18-.15,.41-.28,.7-.37,.22-.07,.47-.13,.76-.19s.61-.11,.95-.16c.34-.05,.7-.1,1.07-.16l-.43,.24c0-.37-.08-.65-.25-.82s-.46-.27-.86-.27c-.24,0-.48,.06-.71,.17s-.38,.31-.47,.58l-1.1-.34c.13-.46,.39-.82,.76-1.1,.38-.28,.88-.42,1.52-.42,.48,0,.9,.08,1.27,.23,.37,.16,.64,.41,.81,.77,.1,.19,.16,.38,.17,.58,.02,.2,.03,.42,.03,.65v3.32h-1.05v-1.17l.17,.19c-.24,.39-.53,.68-.85,.86s-.73,.27-1.22,.27Zm.24-.96c.27,0,.51-.05,.7-.15s.35-.21,.46-.35c.12-.14,.19-.27,.23-.4,.06-.15,.1-.33,.11-.53,0-.2,.01-.36,.01-.48l.37,.11c-.36,.06-.67,.11-.93,.15-.26,.04-.48,.08-.67,.12-.19,.04-.35,.08-.5,.13-.14,.05-.26,.11-.36,.17-.1,.07-.17,.14-.22,.23s-.08,.19-.08,.3c0,.13,.03,.25,.1,.35,.07,.1,.16,.18,.29,.24,.13,.06,.29,.09,.48,.09Z"/><path class="b" d="M59.81,190.64v-.95h3.77v.95h-3.77Zm3.77,4.46c-.36,.07-.71,.1-1.05,.09-.34,0-.65-.07-.92-.19-.27-.12-.48-.31-.62-.56-.12-.23-.19-.47-.2-.71s0-.52,0-.83v-4.7h1.2v4.62c0,.22,0,.41,0,.57,0,.16,.04,.3,.1,.4,.12,.2,.31,.31,.58,.33s.56,0,.9-.04v1.01Z"/><path class="b" d="M66.25,195.24c-.39,0-.72-.07-.99-.22-.27-.15-.47-.35-.61-.59s-.21-.52-.21-.82c0-.26,.04-.49,.13-.7,.09-.21,.22-.39,.4-.54,.18-.15,.41-.28,.7-.37,.22-.07,.47-.13,.76-.19s.61-.11,.95-.16c.34-.05,.7-.1,1.07-.16l-.43,.24c0-.37-.08-.65-.25-.82s-.46-.27-.86-.27c-.24,0-.48,.06-.71,.17s-.38,.31-.47,.58l-1.1-.34c.13-.46,.39-.82,.76-1.1,.38-.28,.88-.42,1.52-.42,.48,0,.9,.08,1.27,.23,.37,.16,.64,.41,.81,.77,.1,.19,.16,.38,.17,.58,.02,.2,.03,.42,.03,.65v3.32h-1.05v-1.17l.17,.19c-.24,.39-.53,.68-.85,.86s-.73,.27-1.22,.27Zm.24-.96c.27,0,.51-.05,.7-.15s.35-.21,.46-.35c.12-.14,.19-.27,.23-.4,.06-.15,.1-.33,.11-.53,0-.2,.01-.36,.01-.48l.37,.11c-.36,.06-.67,.11-.93,.15-.26,.04-.48,.08-.67,.12-.19,.04-.35,.08-.5,.13-.14,.05-.26,.11-.36,.17-.1,.07-.17,.14-.22,.23s-.08,.19-.08,.3c0,.13,.03,.25,.1,.35,.07,.1,.16,.18,.29,.24,.13,.06,.29,.09,.48,.09Z"/><path class="b" d="M70.9,194.44v-1.23h1.24v1.23h-1.24Zm.01-2.86v-1.24h1.23v1.24h-1.23Z"/><path class="b" d="M23.95,207.09v-7.2h2.29c.06,0,.18,0,.36,0,.18,0,.35,.02,.52,.04,.57,.07,1.05,.28,1.45,.61,.4,.33,.69,.75,.9,1.27,.2,.51,.3,1.08,.3,1.69s-.1,1.17-.3,1.68-.5,.94-.9,1.27c-.39,.33-.88,.53-1.45,.61-.16,.02-.33,.03-.51,.04-.18,0-.3,0-.36,0h-2.29Zm1.22-1.13h1.07c.1,0,.23,0,.38,0,.15,0,.29-.02,.41-.05,.34-.06,.62-.21,.83-.45,.21-.24,.37-.53,.47-.88,.1-.34,.15-.7,.15-1.08s-.05-.76-.16-1.1c-.1-.34-.26-.63-.48-.87-.21-.23-.49-.38-.82-.44-.12-.03-.26-.04-.41-.05-.16,0-.28,0-.38,0h-1.07v4.93Z"/><path class="b" d="M32.46,207.24c-.39,0-.72-.07-.99-.22-.27-.15-.47-.35-.61-.59s-.21-.52-.21-.82c0-.26,.04-.49,.13-.7,.09-.21,.22-.39,.4-.54,.18-.15,.41-.28,.7-.37,.22-.07,.47-.13,.76-.19s.61-.11,.95-.16c.34-.05,.7-.1,1.07-.16l-.43,.24c0-.37-.08-.65-.25-.82s-.46-.27-.86-.27c-.24,0-.48,.06-.71,.17s-.38,.31-.47,.58l-1.1-.34c.13-.46,.39-.82,.76-1.1,.38-.28,.88-.42,1.52-.42,.48,0,.9,.08,1.27,.23,.37,.16,.64,.41,.81,.77,.1,.19,.16,.38,.17,.58,.02,.2,.03,.42,.03,.65v3.32h-1.05v-1.17l.17,.19c-.24,.39-.53,.68-.85,.86s-.73,.27-1.22,.27Zm.24-.96c.27,0,.51-.05,.7-.15s.35-.21,.46-.35c.12-.14,.19-.27,.23-.4,.06-.15,.1-.33,.11-.53,0-.2,.01-.36,.01-.48l.37,.11c-.36,.06-.67,.11-.93,.15-.26,.04-.48,.08-.67,.12-.19,.04-.35,.08-.5,.13-.14,.05-.26,.11-.36,.17-.1,.07-.17,.14-.22,.23s-.08,.19-.08,.3c0,.13,.03,.25,.1,.35,.07,.1,.16,.18,.29,.24,.13,.06,.29,.09,.48,.09Z"/><path class="b" d="M36.11,202.64v-.95h3.77v.95h-3.77Zm3.77,4.46c-.36,.07-.71,.1-1.05,.09-.34,0-.65-.07-.92-.19-.27-.12-.48-.31-.62-.56-.12-.23-.19-.47-.2-.71s0-.52,0-.83v-4.7h1.2v4.62c0,.22,0,.41,0,.57,0,.16,.04,.3,.1,.4,.12,.2,.31,.31,.58,.33s.56,0,.9-.04v1.01Z"/><path class="b" d="M42.55,207.24c-.39,0-.72-.07-.99-.22-.27-.15-.47-.35-.61-.59s-.21-.52-.21-.82c0-.26,.04-.49,.13-.7,.09-.21,.22-.39,.4-.54,.18-.15,.41-.28,.7-.37,.22-.07,.47-.13,.76-.19s.61-.11,.95-.16c.34-.05,.7-.1,1.07-.16l-.43,.24c0-.37-.08-.65-.25-.82s-.46-.27-.86-.27c-.24,0-.48,.06-.71,.17s-.38,.31-.47,.58l-1.1-.34c.13-.46,.39-.82,.76-1.1,.38-.28,.88-.42,1.52-.42,.48,0,.9,.08,1.27,.23,.37,.16,.64,.41,.81,.77,.1,.19,.16,.38,.17,.58,.02,.2,.03,.42,.03,.65v3.32h-1.05v-1.17l.17,.19c-.24,.39-.53,.68-.85,.86s-.73,.27-1.22,.27Zm.24-.96c.27,0,.51-.05,.7-.15s.35-.21,.46-.35c.12-.14,.19-.27,.23-.4,.06-.15,.1-.33,.11-.53,0-.2,.01-.36,.01-.48l.37,.11c-.36,.06-.67,.11-.93,.15-.26,.04-.48,.08-.67,.12-.19,.04-.35,.08-.5,.13-.14,.05-.26,.11-.36,.17-.1,.07-.17,.14-.22,.23s-.08,.19-.08,.3c0,.13,.03,.25,.1,.35,.07,.1,.16,.18,.29,.24,.13,.06,.29,.09,.48,.09Z"/><path class="b" d="M47.2,206.44v-1.23h1.24v1.23h-1.24Zm.01-2.86v-1.24h1.23v1.24h-1.23Z"/><path class="b" d="M52.23,207.09v-7.2h.89v3.17h3.79v-3.17h.89v7.2h-.89v-3.18h-3.79v3.18h-.89Z"/><path class="b" d="M60.73,207.24c-.4,0-.74-.07-1.01-.22s-.48-.34-.62-.59-.21-.51-.21-.8,.05-.53,.16-.74c.11-.21,.26-.38,.46-.52,.2-.14,.43-.25,.71-.33,.26-.07,.54-.13,.86-.18s.64-.1,.97-.14c.33-.04,.63-.08,.92-.12l-.32,.19c0-.48-.09-.83-.29-1.07-.2-.23-.55-.34-1.04-.34-.33,0-.61,.07-.86,.22-.25,.15-.42,.39-.52,.72l-.85-.25c.13-.47,.38-.84,.76-1.11,.37-.27,.86-.41,1.47-.41,.49,0,.91,.09,1.26,.26,.35,.17,.6,.44,.76,.79,.08,.17,.12,.35,.15,.54,.02,.19,.03,.4,.03,.61v3.34h-.79v-1.29l.18,.12c-.2,.44-.49,.77-.85,.99-.37,.22-.81,.33-1.33,.33Zm.13-.75c.32,0,.6-.06,.83-.17,.24-.12,.42-.27,.57-.46,.14-.19,.24-.39,.28-.62,.05-.17,.08-.35,.08-.56s0-.36,0-.47l.31,.13c-.29,.04-.58,.08-.86,.12-.28,.04-.54,.08-.79,.12-.25,.04-.47,.09-.67,.15-.15,.05-.28,.11-.41,.18-.13,.07-.23,.17-.31,.28s-.12,.26-.12,.43c0,.15,.04,.29,.11,.42,.08,.13,.19,.24,.35,.33,.16,.08,.37,.12,.62,.12Z"/><path class="b" d="M66.86,207.24c-.64,0-1.17-.14-1.58-.42-.41-.28-.66-.68-.76-1.18l.91-.15c.07,.29,.24,.53,.51,.7,.26,.17,.59,.26,.98,.26s.66-.08,.87-.23,.32-.36,.32-.62c0-.15-.04-.28-.11-.37-.07-.09-.21-.18-.43-.27-.22-.08-.55-.18-.99-.3-.48-.13-.85-.26-1.12-.39s-.47-.29-.58-.48c-.12-.18-.17-.4-.17-.65,0-.32,.09-.59,.26-.83,.17-.24,.42-.42,.73-.55,.31-.13,.67-.19,1.09-.19s.78,.06,1.1,.19c.32,.13,.58,.31,.78,.55s.32,.52,.35,.83l-.91,.17c-.04-.29-.18-.52-.42-.69-.24-.17-.54-.25-.91-.26-.35-.01-.63,.05-.85,.18-.22,.14-.33,.32-.33,.56,0,.13,.04,.24,.12,.33,.08,.09,.23,.18,.46,.26,.22,.08,.54,.18,.97,.29,.48,.12,.85,.25,1.13,.39,.27,.14,.47,.31,.59,.5,.12,.19,.18,.43,.18,.71,0,.52-.19,.93-.58,1.23-.38,.3-.91,.45-1.58,.45Z"/><path class="b" d="M70.12,207.09v-7.2h.8v3.98h.1v3.22h-.9Zm3.85,0v-2.71c0-.26-.02-.5-.07-.74-.04-.24-.12-.45-.24-.64-.11-.19-.26-.34-.45-.45-.19-.11-.43-.17-.71-.17-.22,0-.43,.04-.61,.11-.18,.07-.34,.19-.47,.34s-.23,.35-.3,.58c-.07,.23-.11,.5-.11,.82l-.58-.18c0-.52,.09-.97,.28-1.35,.19-.38,.45-.66,.79-.87,.34-.2,.74-.3,1.21-.3,.35,0,.65,.05,.9,.17,.25,.11,.45,.26,.61,.44,.16,.18,.29,.38,.39,.61,.09,.22,.16,.45,.2,.68s.06,.45,.06,.66v2.99h-.9Z"/><path class="b" d="M78.73,208.92c-.39-.45-.72-.96-1-1.51-.28-.56-.5-1.15-.64-1.77-.15-.62-.22-1.23-.21-1.85,0-.62,.06-1.24,.21-1.86,.15-.62,.37-1.2,.64-1.76,.28-.56,.62-1.06,1-1.51l.66,.5c-.39,.47-.72,.95-.97,1.46-.25,.5-.44,1.02-.56,1.55-.12,.53-.18,1.07-.19,1.62,0,.54,.07,1.08,.19,1.62,.12,.54,.31,1.05,.56,1.56,.25,.5,.57,.99,.96,1.45l-.66,.5Z"/><path class="b" d="M82.39,207.24c-.55,0-1.01-.12-1.39-.37-.38-.25-.67-.58-.87-1.01-.2-.43-.3-.92-.31-1.47,0-.56,.11-1.06,.32-1.49s.5-.76,.88-1c.38-.24,.85-.36,1.39-.36,.57,0,1.06,.14,1.47,.42,.41,.28,.69,.66,.83,1.15l-.88,.27c-.11-.31-.3-.56-.55-.73-.25-.17-.55-.26-.88-.26-.37,0-.67,.09-.92,.26-.24,.17-.42,.41-.53,.71-.12,.3-.18,.65-.18,1.04,0,.6,.15,1.08,.42,1.45,.27,.37,.68,.55,1.21,.55,.35,0,.65-.08,.88-.24,.23-.16,.41-.4,.53-.7l.9,.23c-.19,.5-.48,.89-.88,1.16s-.88,.4-1.44,.4Z"/><path class="b" d="M87.88,207.24c-.54,0-1-.12-1.39-.37-.39-.24-.69-.58-.9-1.01-.21-.43-.31-.92-.31-1.48s.11-1.06,.32-1.49c.21-.43,.52-.76,.91-1s.85-.36,1.38-.36,1,.12,1.39,.36c.39,.24,.69,.58,.9,1,.21,.43,.31,.92,.31,1.48s-.11,1.06-.32,1.49c-.21,.43-.51,.76-.9,1-.39,.24-.85,.36-1.39,.36Zm0-.85c.56,0,.98-.19,1.25-.56s.41-.86,.41-1.45-.14-1.1-.42-1.46c-.28-.36-.69-.54-1.25-.54-.38,0-.69,.08-.93,.25-.24,.17-.43,.41-.54,.71-.12,.3-.18,.65-.18,1.04,0,.61,.14,1.09,.42,1.46,.28,.37,.69,.55,1.24,.55Z"/><path class="b" d="M91.68,200.74v-.92h.89v.92h-.89Zm0,6.36v-5.4h.89v5.4h-.89Z"/><path class="b" d="M94.07,207.09v-5.4h.8v1.45h.1v3.96h-.9Zm3.85,0v-2.71c0-.26-.02-.5-.07-.74-.04-.24-.12-.45-.24-.64-.11-.19-.26-.34-.45-.45-.19-.11-.43-.17-.71-.17-.22,0-.43,.04-.61,.11-.18,.07-.34,.19-.47,.34s-.23,.35-.3,.58c-.07,.23-.11,.5-.11,.82l-.58-.18c0-.52,.09-.97,.28-1.35,.19-.38,.45-.66,.79-.87,.34-.2,.74-.3,1.21-.3,.35,0,.65,.05,.9,.17,.25,.11,.45,.26,.61,.44,.16,.18,.29,.38,.39,.61,.09,.22,.16,.45,.2,.68s.06,.45,.06,.66v2.99h-.9Z"/><path class="b" d="M104.57,207.24c-.46,0-.87-.11-1.24-.33-.37-.22-.67-.52-.88-.9-.22-.38-.33-.81-.33-1.29v-2.39c0-.5,.11-.95,.33-1.34,.22-.39,.52-.69,.9-.91,.38-.22,.82-.33,1.31-.33,.4,0,.77,.08,1.11,.24,.34,.16,.63,.39,.86,.7l-.67,.59c-.14-.21-.33-.38-.56-.5-.23-.12-.48-.18-.75-.18-.32,0-.6,.08-.84,.23s-.44,.35-.58,.6c-.14,.25-.21,.52-.21,.8v1.45l-.2-.22c.21-.3,.48-.54,.8-.72,.32-.18,.67-.27,1.05-.27,.45,0,.85,.1,1.2,.31,.35,.21,.63,.49,.84,.85s.31,.76,.31,1.21-.11,.85-.33,1.21c-.22,.36-.52,.65-.89,.87-.37,.22-.78,.33-1.23,.33Zm0-.86c.29,0,.55-.07,.79-.21,.24-.14,.42-.32,.56-.56,.14-.24,.21-.5,.21-.78s-.07-.55-.21-.79c-.14-.24-.33-.42-.56-.56s-.5-.21-.78-.21-.55,.07-.78,.21c-.24,.14-.42,.33-.56,.56-.14,.24-.21,.5-.21,.79s.07,.54,.21,.78,.33,.42,.56,.56c.24,.14,.5,.21,.78,.21Z"/><path class="b" d="M108.05,208.42c.39-.46,.71-.94,.96-1.45,.25-.51,.44-1.03,.56-1.56,.12-.54,.18-1.07,.19-1.62,0-.55-.06-1.09-.18-1.62-.12-.53-.31-1.05-.56-1.55-.25-.5-.57-.99-.97-1.46l.66-.5c.39,.45,.72,.95,1,1.51,.28,.56,.5,1.15,.65,1.76,.15,.62,.22,1.24,.21,1.86,0,.62-.07,1.23-.21,1.85-.15,.62-.37,1.21-.65,1.77-.28,.56-.62,1.06-1,1.51l-.66-.5Z"/><path class="b" d="M25.57,219.09l-2.27-7.2h1.24l1.9,6.03,1.92-6.03h1.24l-2.27,7.2h-1.76Z"/><path class="b" d="M31.41,219.24c-.39,0-.72-.07-.99-.22-.27-.15-.47-.35-.61-.59s-.21-.52-.21-.82c0-.26,.04-.49,.13-.7,.09-.21,.22-.39,.4-.54,.18-.15,.41-.28,.7-.37,.22-.07,.47-.13,.76-.19s.61-.11,.95-.16c.34-.05,.7-.1,1.07-.16l-.43,.24c0-.37-.08-.65-.25-.82s-.46-.27-.86-.27c-.24,0-.48,.06-.71,.17s-.38,.31-.47,.58l-1.1-.34c.13-.46,.39-.82,.76-1.1,.38-.28,.88-.42,1.52-.42,.48,0,.9,.08,1.27,.23,.37,.16,.64,.41,.81,.77,.1,.19,.16,.38,.17,.58,.02,.2,.03,.42,.03,.65v3.32h-1.05v-1.17l.17,.19c-.24,.39-.53,.68-.85,.86s-.73,.27-1.22,.27Zm.24-.96c.27,0,.51-.05,.7-.15s.35-.21,.46-.35c.12-.14,.19-.27,.23-.4,.06-.15,.1-.33,.11-.53,0-.2,.01-.36,.01-.48l.37,.11c-.36,.06-.67,.11-.93,.15-.26,.04-.48,.08-.67,.12-.19,.04-.35,.08-.5,.13-.14,.05-.26,.11-.36,.17-.1,.07-.17,.14-.22,.23s-.08,.19-.08,.3c0,.13,.03,.25,.1,.35,.07,.1,.16,.18,.29,.24,.13,.06,.29,.09,.48,.09Z"/><path class="b" d="M35.76,219.09v-7.35h1.21v7.35h-1.21Z"/><path class="b" d="M40.49,219.25c-.4,0-.73-.07-.99-.2-.26-.13-.47-.3-.62-.51-.15-.21-.27-.43-.34-.66-.07-.23-.12-.45-.14-.66-.02-.21-.03-.38-.03-.51v-3.02h1.22v2.6c0,.17,.01,.35,.04,.56,.02,.21,.08,.41,.16,.6,.08,.19,.21,.35,.38,.47s.4,.18,.68,.18c.15,0,.3-.02,.46-.07,.15-.05,.29-.14,.41-.26s.22-.29,.29-.5c.07-.21,.11-.48,.11-.81l.71,.3c0,.46-.09,.88-.27,1.25-.18,.37-.44,.67-.79,.89s-.77,.33-1.28,.33Zm1.77-.16v-1.67h-.15v-3.73h1.21v5.4h-1.06Z"/><path class="b" d="M47.18,219.24c-.55,0-1.03-.12-1.44-.36s-.74-.56-.97-.99c-.23-.42-.35-.9-.35-1.45,0-.59,.11-1.1,.34-1.54,.23-.43,.54-.77,.94-1.01,.4-.24,.87-.36,1.4-.36,.56,0,1.04,.13,1.43,.39s.68,.63,.87,1.11c.19,.48,.26,1.04,.21,1.68h-1.19v-.44c0-.59-.11-1.02-.31-1.29-.2-.27-.52-.41-.96-.41-.49,0-.86,.15-1.1,.46-.24,.3-.36,.75-.36,1.34,0,.55,.12,.97,.36,1.27,.24,.3,.59,.45,1.05,.45,.3,0,.55-.07,.77-.2s.38-.32,.5-.57l1.19,.36c-.21,.49-.53,.86-.96,1.13-.43,.27-.91,.41-1.43,.41Zm-1.86-2.52v-.91h3.71v.91h-3.71Z"/><path class="b" d="M51.14,218.44v-1.23h1.24v1.23h-1.24Zm.01-2.86v-1.24h1.23v1.24h-1.23Z"/><path class="b" d="M57.42,219.09v-6.21l-1.36,.82v-1l1.36-.81h.91v7.2h-.91Z"/><path class="b" d="M62.65,219.24c-.47,0-.88-.11-1.25-.32-.37-.21-.65-.5-.87-.86-.21-.37-.32-.78-.32-1.25v-2.64c0-.47,.11-.88,.32-1.25,.21-.37,.5-.66,.87-.87,.36-.21,.78-.31,1.25-.31s.88,.1,1.25,.31c.37,.21,.66,.5,.87,.87,.21,.37,.31,.78,.31,1.25v2.64c0,.47-.1,.88-.31,1.25-.21,.36-.5,.65-.87,.86-.37,.21-.78,.32-1.25,.32Zm0-.86c.28,0,.54-.07,.77-.21,.23-.14,.41-.32,.55-.55,.14-.23,.21-.49,.21-.77v-2.74c0-.28-.07-.54-.21-.77-.14-.23-.32-.41-.55-.55-.23-.14-.49-.21-.77-.21s-.54,.07-.77,.21-.42,.32-.55,.55c-.14,.23-.2,.49-.2,.77v2.74c0,.28,.07,.54,.2,.77,.14,.23,.32,.42,.55,.55s.49,.21,.77,.21Z"/></g><path class="b" d="M230.85,122.38c37.86,0,68.66,30.8,68.66,68.66s-30.8,68.66-68.66,68.66-68.66-30.8-68.66-68.66,30.8-68.66,68.66-68.66m0-1c-38.47,0-69.66,31.19-69.66,69.66s31.19,69.66,69.66,69.66,69.66-31.19,69.66-69.66-31.19-69.66-69.66-69.66h0Z"/><g><path class="b" d="M189.73,171.27c-.86,0-1.6-.19-2.22-.57-.62-.38-1.09-.91-1.42-1.58-.33-.68-.5-1.46-.5-2.35s.17-1.68,.5-2.35c.33-.68,.8-1.2,1.42-1.58,.62-.38,1.36-.57,2.22-.57,1,0,1.83,.25,2.49,.75,.66,.5,1.13,1.17,1.4,2.01l-1.46,.4c-.17-.56-.45-1-.86-1.32-.4-.32-.93-.48-1.57-.48-.58,0-1.06,.13-1.45,.39-.39,.26-.68,.62-.87,1.1-.19,.47-.29,1.02-.3,1.65,0,.63,.1,1.18,.29,1.65s.49,.83,.87,1.09c.39,.26,.87,.39,1.45,.39,.64,0,1.17-.16,1.57-.48,.4-.32,.69-.76,.86-1.32l1.46,.4c-.27,.84-.73,1.51-1.4,2.01-.66,.5-1.49,.75-2.49,.75Z"/><path class="b" d="M197.8,171.27c-.65,0-1.21-.15-1.7-.44s-.86-.7-1.12-1.21-.4-1.11-.4-1.77,.14-1.28,.41-1.79c.27-.51,.65-.91,1.13-1.2,.48-.29,1.04-.43,1.68-.43s1.22,.15,1.7,.44c.48,.29,.86,.69,1.13,1.21,.27,.51,.4,1.1,.4,1.77s-.13,1.27-.4,1.78c-.27,.51-.65,.92-1.13,1.21-.48,.29-1.05,.43-1.7,.43Zm0-1.36c.58,0,1-.19,1.28-.58,.28-.38,.42-.88,.42-1.49s-.14-1.13-.43-1.5c-.28-.37-.71-.56-1.28-.56-.39,0-.71,.09-.96,.26s-.44,.42-.55,.73c-.12,.31-.18,.67-.18,1.08,0,.63,.14,1.13,.43,1.5,.29,.37,.71,.56,1.26,.56Z"/><path class="b" d="M202.47,163.63v-1.33h1.45v1.33h-1.45Zm0,7.46v-6.48h1.45v6.48h-1.45Z"/><path class="b" d="M205.71,171.09v-6.48h1.29v2.01h.17v4.47h-1.46Zm4.49,0v-3.12c0-.2-.01-.43-.04-.68-.03-.25-.09-.49-.2-.72-.1-.23-.25-.42-.46-.57-.2-.15-.47-.22-.82-.22-.18,0-.37,.03-.55,.09-.18,.06-.34,.16-.49,.31s-.26,.35-.35,.6-.13,.58-.13,.97l-.86-.37c0-.55,.11-1.05,.32-1.5,.21-.45,.53-.8,.95-1.07,.42-.27,.93-.4,1.54-.4,.48,0,.88,.08,1.19,.24,.31,.16,.56,.36,.74,.61,.18,.25,.32,.51,.41,.79,.09,.28,.14,.55,.17,.8s.04,.45,.04,.61v3.62h-1.46Z"/><path class="b" d="M215.63,171.09v-8.64h5.58v1.36h-4.13v2.13h3.41v1.36h-3.41v2.44h4.13v1.36h-5.58Z"/><path class="b" d="M222.63,171.09v-6.48h1.29v2.01h.17v4.47h-1.46Zm4.49,0v-3.12c0-.2-.01-.43-.04-.68-.03-.25-.09-.49-.2-.72-.1-.23-.25-.42-.46-.57-.2-.15-.47-.22-.82-.22-.18,0-.37,.03-.55,.09-.18,.06-.34,.16-.49,.31s-.26,.35-.35,.6-.13,.58-.13,.97l-.86-.37c0-.55,.11-1.05,.32-1.5,.21-.45,.53-.8,.95-1.07,.42-.27,.93-.4,1.54-.4,.48,0,.88,.08,1.19,.24,.31,.16,.56,.36,.74,.61,.18,.25,.32,.51,.41,.79,.09,.28,.14,.55,.17,.8s.04,.45,.04,.61v3.62h-1.46Z"/><path class="b" d="M229.43,165.75v-1.13h4.52v1.13h-4.52Zm4.52,5.35c-.43,.08-.85,.12-1.26,.11-.41-.01-.78-.09-1.1-.23-.32-.14-.57-.37-.74-.67-.15-.28-.23-.57-.23-.86,0-.29-.01-.62-.01-.99v-5.63h1.44v5.55c0,.26,0,.49,0,.68s.05,.36,.12,.48c.14,.24,.37,.37,.69,.4,.32,.03,.68,.01,1.08-.05v1.21Z"/><path class="b" d="M235.35,171.09v-6.48h1.28v1.58l-.16-.2c.08-.22,.19-.41,.32-.59,.13-.18,.29-.32,.48-.44,.16-.11,.34-.19,.53-.25,.19-.06,.39-.1,.6-.11,.2-.01,.4,0,.59,.03v1.35c-.19-.06-.41-.07-.66-.05-.25,.02-.48,.09-.67,.21-.2,.11-.36,.25-.49,.41s-.22,.36-.28,.57c-.06,.21-.09,.45-.09,.69v3.29h-1.45Z"/><path class="b" d="M240.79,173.97l1.25-3.43,.02,1.01-2.83-6.94h1.51l2,5.14h-.38l1.95-5.14h1.45l-3.61,9.36h-1.36Z"/><path class="b" d="M249.89,173.64v-13.31h2.62v1.28h-1.34v10.74h1.34v1.28h-2.62Z"/><path class="b" d="M257.24,171.27c-.61,0-1.15-.13-1.62-.39s-.83-.63-1.09-1.09c-.26-.47-.39-1.01-.39-1.62v-2.78c0-.61,.13-1.15,.39-1.62,.26-.47,.63-.83,1.09-1.09s1.01-.39,1.62-.39,1.15,.13,1.62,.39c.47,.26,.83,.63,1.09,1.09s.4,1.01,.4,1.62v2.78c0,.61-.13,1.15-.4,1.62-.26,.47-.63,.83-1.09,1.09-.47,.26-1.01,.39-1.62,.39Zm0-1.37c.3,0,.58-.07,.83-.22,.25-.15,.44-.34,.59-.59,.14-.25,.22-.52,.22-.83v-2.99c0-.31-.07-.58-.22-.83-.14-.25-.34-.44-.59-.59-.25-.15-.52-.22-.83-.22s-.58,.07-.83,.22c-.25,.15-.44,.34-.59,.59-.14,.25-.22,.52-.22,.83v2.99c0,.3,.07,.58,.22,.83,.14,.25,.34,.44,.59,.59,.25,.15,.52,.22,.83,.22Z"/><path class="b" d="M261.91,172.62l.08-.62c.18,.02,.33-.02,.44-.09,.11-.08,.18-.19,.22-.33,.04-.14,.05-.3,.03-.48h-.77v-1.54h1.48v1.6c0,.52-.12,.92-.37,1.19-.25,.27-.62,.36-1.11,.28Z"/><path class="b" d="M266.11,171.09l2.98-7.27h-3.77v-1.37h5.32v1.37l-2.96,7.27h-1.56Z"/><path class="b" d="M272.01,173.64v-1.28h1.34v-10.74h-1.34v-1.28h2.62v13.31h-2.62Z"/><path class="b" d="M185.94,195.09v-7.2h1.08l2.49,5.1,2.49-5.1h1.08v7.2h-1.12v-4.62l-2.21,4.62h-.48l-2.21-4.62v4.62h-1.13Z"/><path class="b" d="M194.49,195.09v-7.2h1.08l2.49,5.1,2.49-5.1h1.08v7.2h-1.12v-4.62l-2.21,4.62h-.48l-2.21-4.62v4.62h-1.13Z"/><path class="b" d="M203.04,195.09v-7.2h2.97c.07,0,.16,0,.27,0,.11,0,.21,.02,.3,.03,.42,.06,.76,.2,1.03,.42,.27,.21,.47,.48,.61,.81s.2,.69,.2,1.08c0,.59-.15,1.09-.45,1.51-.3,.42-.75,.68-1.36,.78l-.52,.04h-1.85v2.51h-1.21Zm1.21-3.64h1.72c.07,0,.14,0,.22-.01,.08,0,.16-.02,.23-.04,.2-.05,.36-.14,.47-.26s.2-.27,.25-.43c.05-.16,.07-.32,.07-.47s-.02-.31-.07-.47c-.05-.16-.13-.31-.25-.43s-.27-.21-.47-.27c-.07-.02-.15-.03-.23-.04-.08,0-.16,0-.22,0h-1.72v2.43Zm2.93,3.64l-1.42-2.93,1.22-.27,1.56,3.2h-1.37Z"/><path class="b" d="M209.64,195.09v-7.2h2.29c.06,0,.18,0,.36,0,.18,0,.35,.02,.52,.04,.57,.07,1.05,.28,1.45,.61,.4,.33,.69,.75,.9,1.27,.2,.51,.3,1.08,.3,1.69s-.1,1.17-.3,1.68-.5,.94-.9,1.27c-.39,.33-.88,.53-1.45,.61-.16,.02-.33,.03-.51,.04-.18,0-.3,0-.36,0h-2.29Zm1.22-1.13h1.07c.1,0,.23,0,.38,0,.15,0,.29-.02,.41-.05,.34-.06,.62-.21,.83-.45,.21-.24,.37-.53,.47-.88,.1-.34,.15-.7,.15-1.08s-.05-.76-.16-1.1c-.1-.34-.26-.63-.48-.87-.21-.23-.49-.38-.82-.44-.12-.03-.26-.04-.41-.05-.16,0-.28,0-.38,0h-1.07v4.93Z"/><path class="b" d="M218.15,195.24c-.39,0-.72-.07-.99-.22-.27-.15-.47-.35-.61-.59s-.21-.52-.21-.82c0-.26,.04-.49,.13-.7,.09-.21,.22-.39,.4-.54,.18-.15,.41-.28,.7-.37,.22-.07,.47-.13,.76-.19s.61-.11,.95-.16c.34-.05,.7-.1,1.07-.16l-.43,.24c0-.37-.08-.65-.25-.82s-.46-.27-.86-.27c-.24,0-.48,.06-.71,.17s-.38,.31-.47,.58l-1.1-.34c.13-.46,.39-.82,.76-1.1,.38-.28,.88-.42,1.52-.42,.48,0,.9,.08,1.27,.23,.37,.16,.64,.41,.81,.77,.1,.19,.16,.38,.17,.58,.02,.2,.03,.42,.03,.65v3.32h-1.05v-1.17l.17,.19c-.24,.39-.53,.68-.85,.86s-.73,.27-1.22,.27Zm.24-.96c.27,0,.51-.05,.7-.15s.35-.21,.46-.35c.12-.14,.19-.27,.23-.4,.06-.15,.1-.33,.11-.53,0-.2,.01-.36,.01-.48l.37,.11c-.36,.06-.67,.11-.93,.15-.26,.04-.48,.08-.67,.12-.19,.04-.35,.08-.5,.13-.14,.05-.26,.11-.36,.17-.1,.07-.17,.14-.22,.23s-.08,.19-.08,.3c0,.13,.03,.25,.1,.35,.07,.1,.16,.18,.29,.24,.13,.06,.29,.09,.48,.09Z"/><path class="b" d="M221.8,190.64v-.95h3.77v.95h-3.77Zm3.77,4.46c-.36,.07-.71,.1-1.05,.09-.34,0-.65-.07-.92-.19-.27-.12-.48-.31-.62-.56-.12-.23-.19-.47-.2-.71s0-.52,0-.83v-4.7h1.2v4.62c0,.22,0,.41,0,.57,0,.16,.04,.3,.1,.4,.12,.2,.31,.31,.58,.33s.56,0,.9-.04v1.01Z"/><path class="b" d="M228.24,195.24c-.39,0-.72-.07-.99-.22-.27-.15-.47-.35-.61-.59s-.21-.52-.21-.82c0-.26,.04-.49,.13-.7,.09-.21,.22-.39,.4-.54,.18-.15,.41-.28,.7-.37,.22-.07,.47-.13,.76-.19s.61-.11,.95-.16c.34-.05,.7-.1,1.07-.16l-.43,.24c0-.37-.08-.65-.25-.82s-.46-.27-.86-.27c-.24,0-.48,.06-.71,.17s-.38,.31-.47,.58l-1.1-.34c.13-.46,.39-.82,.76-1.1,.38-.28,.88-.42,1.52-.42,.48,0,.9,.08,1.27,.23,.37,.16,.64,.41,.81,.77,.1,.19,.16,.38,.17,.58,.02,.2,.03,.42,.03,.65v3.32h-1.05v-1.17l.17,.19c-.24,.39-.53,.68-.85,.86s-.73,.27-1.22,.27Zm.24-.96c.27,0,.51-.05,.7-.15s.35-.21,.46-.35c.12-.14,.19-.27,.23-.4,.06-.15,.1-.33,.11-.53,0-.2,.01-.36,.01-.48l.37,.11c-.36,.06-.67,.11-.93,.15-.26,.04-.48,.08-.67,.12-.19,.04-.35,.08-.5,.13-.14,.05-.26,.11-.36,.17-.1,.07-.17,.14-.22,.23s-.08,.19-.08,.3c0,.13,.03,.25,.1,.35,.07,.1,.16,.18,.29,.24,.13,.06,.29,.09,.48,.09Z"/><path class="b" d="M232.89,194.44v-1.23h1.24v1.23h-1.24Zm.01-2.86v-1.24h1.23v1.24h-1.23Z"/><path class="b" d="M185.94,207.09v-7.2h2.29c.06,0,.18,0,.36,0,.18,0,.35,.02,.52,.04,.57,.07,1.05,.28,1.45,.61,.4,.33,.69,.75,.9,1.27,.2,.51,.3,1.08,.3,1.69s-.1,1.17-.3,1.68-.5,.94-.9,1.27c-.39,.33-.88,.53-1.45,.61-.16,.02-.33,.03-.51,.04-.18,0-.3,0-.36,0h-2.29Zm1.22-1.13h1.07c.1,0,.23,0,.38,0,.15,0,.29-.02,.41-.05,.34-.06,.62-.21,.83-.45,.21-.24,.37-.53,.47-.88,.1-.34,.15-.7,.15-1.08s-.05-.76-.16-1.1c-.1-.34-.26-.63-.48-.87-.21-.23-.49-.38-.82-.44-.12-.03-.26-.04-.41-.05-.16,0-.28,0-.38,0h-1.07v4.93Z"/><path class="b" d="M194.45,207.24c-.39,0-.72-.07-.99-.22-.27-.15-.47-.35-.61-.59s-.21-.52-.21-.82c0-.26,.04-.49,.13-.7,.09-.21,.22-.39,.4-.54,.18-.15,.41-.28,.7-.37,.22-.07,.47-.13,.76-.19s.61-.11,.95-.16c.34-.05,.7-.1,1.07-.16l-.43,.24c0-.37-.08-.65-.25-.82s-.46-.27-.86-.27c-.24,0-.48,.06-.71,.17s-.38,.31-.47,.58l-1.1-.34c.13-.46,.39-.82,.76-1.1,.38-.28,.88-.42,1.52-.42,.48,0,.9,.08,1.27,.23,.37,.16,.64,.41,.81,.77,.1,.19,.16,.38,.17,.58,.02,.2,.03,.42,.03,.65v3.32h-1.05v-1.17l.17,.19c-.24,.39-.53,.68-.85,.86s-.73,.27-1.22,.27Zm.24-.96c.27,0,.51-.05,.7-.15s.35-.21,.46-.35c.12-.14,.19-.27,.23-.4,.06-.15,.1-.33,.11-.53,0-.2,.01-.36,.01-.48l.37,.11c-.36,.06-.67,.11-.93,.15-.26,.04-.48,.08-.67,.12-.19,.04-.35,.08-.5,.13-.14,.05-.26,.11-.36,.17-.1,.07-.17,.14-.22,.23s-.08,.19-.08,.3c0,.13,.03,.25,.1,.35,.07,.1,.16,.18,.29,.24,.13,.06,.29,.09,.48,.09Z"/><path class="b" d="M198.1,202.64v-.95h3.77v.95h-3.77Zm3.77,4.46c-.36,.07-.71,.1-1.05,.09-.34,0-.65-.07-.92-.19-.27-.12-.48-.31-.62-.56-.12-.23-.19-.47-.2-.71s0-.52,0-.83v-4.7h1.2v4.62c0,.22,0,.41,0,.57,0,.16,.04,.3,.1,.4,.12,.2,.31,.31,.58,.33s.56,0,.9-.04v1.01Z"/><path class="b" d="M204.54,207.24c-.39,0-.72-.07-.99-.22-.27-.15-.47-.35-.61-.59s-.21-.52-.21-.82c0-.26,.04-.49,.13-.7,.09-.21,.22-.39,.4-.54,.18-.15,.41-.28,.7-.37,.22-.07,.47-.13,.76-.19s.61-.11,.95-.16c.34-.05,.7-.1,1.07-.16l-.43,.24c0-.37-.08-.65-.25-.82s-.46-.27-.86-.27c-.24,0-.48,.06-.71,.17s-.38,.31-.47,.58l-1.1-.34c.13-.46,.39-.82,.76-1.1,.38-.28,.88-.42,1.52-.42,.48,0,.9,.08,1.27,.23,.37,.16,.64,.41,.81,.77,.1,.19,.16,.38,.17,.58,.02,.2,.03,.42,.03,.65v3.32h-1.05v-1.17l.17,.19c-.24,.39-.53,.68-.85,.86s-.73,.27-1.22,.27Zm.24-.96c.27,0,.51-.05,.7-.15s.35-.21,.46-.35c.12-.14,.19-.27,.23-.4,.06-.15,.1-.33,.11-.53,0-.2,.01-.36,.01-.48l.37,.11c-.36,.06-.67,.11-.93,.15-.26,.04-.48,.08-.67,.12-.19,.04-.35,.08-.5,.13-.14,.05-.26,.11-.36,.17-.1,.07-.17,.14-.22,.23s-.08,.19-.08,.3c0,.13,.03,.25,.1,.35,.07,.1,.16,.18,.29,.24,.13,.06,.29,.09,.48,.09Z"/><path class="b" d="M209.19,206.44v-1.23h1.24v1.23h-1.24Zm.01-2.86v-1.24h1.23v1.24h-1.23Z"/><path class="b" d="M214.22,207.09v-7.2h.89v3.17h3.79v-3.17h.89v7.2h-.89v-3.18h-3.79v3.18h-.89Z"/><path class="b" d="M222.72,207.24c-.4,0-.74-.07-1.01-.22s-.48-.34-.62-.59-.21-.51-.21-.8,.05-.53,.16-.74c.11-.21,.26-.38,.46-.52,.2-.14,.43-.25,.71-.33,.26-.07,.54-.13,.86-.18s.64-.1,.97-.14c.33-.04,.63-.08,.92-.12l-.32,.19c0-.48-.09-.83-.29-1.07-.2-.23-.55-.34-1.04-.34-.33,0-.61,.07-.86,.22-.25,.15-.42,.39-.52,.72l-.85-.25c.13-.47,.38-.84,.76-1.11,.37-.27,.86-.41,1.47-.41,.49,0,.91,.09,1.26,.26,.35,.17,.6,.44,.76,.79,.08,.17,.12,.35,.15,.54,.02,.19,.03,.4,.03,.61v3.34h-.79v-1.29l.18,.12c-.2,.44-.49,.77-.85,.99-.37,.22-.81,.33-1.33,.33Zm.13-.75c.32,0,.6-.06,.83-.17,.24-.12,.42-.27,.57-.46,.14-.19,.24-.39,.28-.62,.05-.17,.08-.35,.08-.56s0-.36,0-.47l.31,.13c-.29,.04-.58,.08-.86,.12-.28,.04-.54,.08-.79,.12-.25,.04-.47,.09-.67,.15-.15,.05-.28,.11-.41,.18-.13,.07-.23,.17-.31,.28s-.12,.26-.12,.43c0,.15,.04,.29,.11,.42,.08,.13,.19,.24,.35,.33,.16,.08,.37,.12,.62,.12Z"/><path class="b" d="M228.85,207.24c-.64,0-1.17-.14-1.58-.42-.41-.28-.66-.68-.76-1.18l.91-.15c.07,.29,.24,.53,.51,.7,.26,.17,.59,.26,.98,.26s.66-.08,.87-.23,.32-.36,.32-.62c0-.15-.04-.28-.11-.37-.07-.09-.21-.18-.43-.27-.22-.08-.55-.18-.99-.3-.48-.13-.85-.26-1.12-.39s-.47-.29-.58-.48c-.12-.18-.17-.4-.17-.65,0-.32,.09-.59,.26-.83,.17-.24,.42-.42,.73-.55,.31-.13,.67-.19,1.09-.19s.78,.06,1.1,.19c.32,.13,.58,.31,.78,.55s.32,.52,.35,.83l-.91,.17c-.04-.29-.18-.52-.42-.69-.24-.17-.54-.25-.91-.26-.35-.01-.63,.05-.85,.18-.22,.14-.33,.32-.33,.56,0,.13,.04,.24,.12,.33,.08,.09,.23,.18,.46,.26,.22,.08,.54,.18,.97,.29,.48,.12,.85,.25,1.13,.39,.27,.14,.47,.31,.59,.5,.12,.19,.18,.43,.18,.71,0,.52-.19,.93-.58,1.23-.38,.3-.91,.45-1.58,.45Z"/><path class="b" d="M232.11,207.09v-7.2h.8v3.98h.1v3.22h-.9Zm3.85,0v-2.71c0-.26-.02-.5-.07-.74-.04-.24-.12-.45-.24-.64-.11-.19-.26-.34-.45-.45-.19-.11-.43-.17-.71-.17-.22,0-.43,.04-.61,.11-.18,.07-.34,.19-.47,.34s-.23,.35-.3,.58c-.07,.23-.11,.5-.11,.82l-.58-.18c0-.52,.09-.97,.28-1.35,.19-.38,.45-.66,.79-.87,.34-.2,.74-.3,1.21-.3,.35,0,.65,.05,.9,.17,.25,.11,.45,.26,.61,.44,.16,.18,.29,.38,.39,.61,.09,.22,.16,.45,.2,.68s.06,.45,.06,.66v2.99h-.9Z"/><path class="b" d="M240.72,208.92c-.39-.45-.72-.96-1-1.51-.28-.56-.5-1.15-.64-1.77-.15-.62-.22-1.23-.21-1.85,0-.62,.06-1.24,.21-1.86,.15-.62,.37-1.2,.64-1.76,.28-.56,.62-1.06,1-1.51l.66,.5c-.39,.47-.72,.95-.97,1.46-.25,.5-.44,1.02-.56,1.55-.12,.53-.18,1.07-.19,1.62,0,.54,.07,1.08,.19,1.62,.12,.54,.31,1.05,.56,1.56,.25,.5,.57,.99,.96,1.45l-.66,.5Z"/><path class="b" d="M244.38,207.24c-.55,0-1.01-.12-1.39-.37-.38-.25-.67-.58-.87-1.01-.2-.43-.3-.92-.31-1.47,0-.56,.11-1.06,.32-1.49s.5-.76,.88-1c.38-.24,.85-.36,1.39-.36,.57,0,1.06,.14,1.47,.42,.41,.28,.69,.66,.83,1.15l-.88,.27c-.11-.31-.3-.56-.55-.73-.25-.17-.55-.26-.88-.26-.37,0-.67,.09-.92,.26-.24,.17-.42,.41-.53,.71-.12,.3-.18,.65-.18,1.04,0,.6,.15,1.08,.42,1.45,.27,.37,.68,.55,1.21,.55,.35,0,.65-.08,.88-.24,.23-.16,.41-.4,.53-.7l.9,.23c-.19,.5-.48,.89-.88,1.16s-.88,.4-1.44,.4Z"/><path class="b" d="M249.87,207.24c-.54,0-1-.12-1.39-.37-.39-.24-.69-.58-.9-1.01-.21-.43-.31-.92-.31-1.48s.11-1.06,.32-1.49c.21-.43,.52-.76,.91-1s.85-.36,1.38-.36,1,.12,1.39,.36c.39,.24,.69,.58,.9,1,.21,.43,.31,.92,.31,1.48s-.11,1.06-.32,1.49c-.21,.43-.51,.76-.9,1-.39,.24-.85,.36-1.39,.36Zm0-.85c.56,0,.98-.19,1.25-.56s.41-.86,.41-1.45-.14-1.1-.42-1.46c-.28-.36-.69-.54-1.25-.54-.38,0-.69,.08-.93,.25-.24,.17-.43,.41-.54,.71-.12,.3-.18,.65-.18,1.04,0,.61,.14,1.09,.42,1.46,.28,.37,.69,.55,1.24,.55Z"/><path class="b" d="M253.67,200.74v-.92h.89v.92h-.89Zm0,6.36v-5.4h.89v5.4h-.89Z"/><path class="b" d="M256.06,207.09v-5.4h.8v1.45h.1v3.96h-.9Zm3.85,0v-2.71c0-.26-.02-.5-.07-.74-.04-.24-.12-.45-.24-.64-.11-.19-.26-.34-.45-.45-.19-.11-.43-.17-.71-.17-.22,0-.43,.04-.61,.11-.18,.07-.34,.19-.47,.34s-.23,.35-.3,.58c-.07,.23-.11,.5-.11,.82l-.58-.18c0-.52,.09-.97,.28-1.35,.19-.38,.45-.66,.79-.87,.34-.2,.74-.3,1.21-.3,.35,0,.65,.05,.9,.17,.25,.11,.45,.26,.61,.44,.16,.18,.29,.38,.39,.61,.09,.22,.16,.45,.2,.68s.06,.45,.06,.66v2.99h-.9Z"/><path class="b" d="M264.49,207.09l2.59-6.34h-3.27v-.86h4.22v.86l-2.58,6.34h-.96Z"/><path class="b" d="M268.96,208.42c.39-.46,.71-.94,.96-1.45,.25-.51,.44-1.03,.56-1.56,.12-.54,.18-1.07,.19-1.62,0-.55-.06-1.09-.18-1.62-.12-.53-.31-1.05-.56-1.55-.25-.5-.57-.99-.97-1.46l.66-.5c.39,.45,.72,.95,1,1.51,.28,.56,.5,1.15,.65,1.76,.15,.62,.22,1.24,.21,1.86,0,.62-.07,1.23-.21,1.85-.15,.62-.37,1.21-.65,1.77-.28,.56-.62,1.06-1,1.51l-.66-.5Z"/><path class="b" d="M187.56,219.09l-2.27-7.2h1.24l1.9,6.03,1.92-6.03h1.24l-2.27,7.2h-1.76Z"/><path class="b" d="M193.4,219.24c-.39,0-.72-.07-.99-.22-.27-.15-.47-.35-.61-.59s-.21-.52-.21-.82c0-.26,.04-.49,.13-.7,.09-.21,.22-.39,.4-.54,.18-.15,.41-.28,.7-.37,.22-.07,.47-.13,.76-.19s.61-.11,.95-.16c.34-.05,.7-.1,1.07-.16l-.43,.24c0-.37-.08-.65-.25-.82s-.46-.27-.86-.27c-.24,0-.48,.06-.71,.17s-.38,.31-.47,.58l-1.1-.34c.13-.46,.39-.82,.76-1.1,.38-.28,.88-.42,1.52-.42,.48,0,.9,.08,1.27,.23,.37,.16,.64,.41,.81,.77,.1,.19,.16,.38,.17,.58,.02,.2,.03,.42,.03,.65v3.32h-1.05v-1.17l.17,.19c-.24,.39-.53,.68-.85,.86s-.73,.27-1.22,.27Zm.24-.96c.27,0,.51-.05,.7-.15s.35-.21,.46-.35c.12-.14,.19-.27,.23-.4,.06-.15,.1-.33,.11-.53,0-.2,.01-.36,.01-.48l.37,.11c-.36,.06-.67,.11-.93,.15-.26,.04-.48,.08-.67,.12-.19,.04-.35,.08-.5,.13-.14,.05-.26,.11-.36,.17-.1,.07-.17,.14-.22,.23s-.08,.19-.08,.3c0,.13,.03,.25,.1,.35,.07,.1,.16,.18,.29,.24,.13,.06,.29,.09,.48,.09Z"/><path class="b" d="M197.75,219.09v-7.35h1.21v7.35h-1.21Z"/><path class="b" d="M202.48,219.25c-.4,0-.73-.07-.99-.2-.26-.13-.47-.3-.62-.51-.15-.21-.27-.43-.34-.66-.07-.23-.12-.45-.14-.66-.02-.21-.03-.38-.03-.51v-3.02h1.22v2.6c0,.17,.01,.35,.04,.56,.02,.21,.08,.41,.16,.6,.08,.19,.21,.35,.38,.47s.4,.18,.68,.18c.15,0,.3-.02,.46-.07,.15-.05,.29-.14,.41-.26s.22-.29,.29-.5c.07-.21,.11-.48,.11-.81l.71,.3c0,.46-.09,.88-.27,1.25-.18,.37-.44,.67-.79,.89s-.77,.33-1.28,.33Zm1.77-.16v-1.67h-.15v-3.73h1.21v5.4h-1.06Z"/><path class="b" d="M209.17,219.24c-.55,0-1.03-.12-1.44-.36s-.74-.56-.97-.99c-.23-.42-.35-.9-.35-1.45,0-.59,.11-1.1,.34-1.54,.23-.43,.54-.77,.94-1.01,.4-.24,.87-.36,1.4-.36,.56,0,1.04,.13,1.43,.39s.68,.63,.87,1.11c.19,.48,.26,1.04,.21,1.68h-1.19v-.44c0-.59-.11-1.02-.31-1.29-.2-.27-.52-.41-.96-.41-.49,0-.86,.15-1.1,.46-.24,.3-.36,.75-.36,1.34,0,.55,.12,.97,.36,1.27,.24,.3,.59,.45,1.05,.45,.3,0,.55-.07,.77-.2s.38-.32,.5-.57l1.19,.36c-.21,.49-.53,.86-.96,1.13-.43,.27-.91,.41-1.43,.41Zm-1.86-2.52v-.91h3.71v.91h-3.71Z"/><path class="b" d="M213.13,218.44v-1.23h1.24v1.23h-1.24Zm.01-2.86v-1.24h1.23v1.24h-1.23Z"/><path class="b" d="M217.95,219.09v-.8l3.2-2.88c.27-.24,.45-.47,.54-.68s.14-.44,.14-.66c0-.28-.06-.53-.19-.75-.13-.22-.3-.4-.52-.53-.22-.13-.47-.2-.74-.2s-.54,.07-.76,.2c-.22,.14-.4,.31-.53,.54-.13,.22-.19,.47-.19,.73h-.91c0-.45,.1-.85,.31-1.2s.5-.62,.86-.82c.36-.2,.77-.3,1.23-.3s.85,.1,1.2,.31c.35,.21,.63,.48,.84,.84,.21,.35,.31,.75,.31,1.19,0,.31-.04,.58-.12,.81-.08,.23-.2,.44-.36,.64-.16,.2-.37,.4-.61,.62l-2.66,2.39-.12-.3h3.87v.85h-4.79Z"/><path class="b" d="M226.37,219.24c-.47,0-.88-.11-1.25-.32-.37-.21-.65-.5-.87-.86-.21-.37-.32-.78-.32-1.25v-2.64c0-.47,.11-.88,.32-1.25,.21-.37,.5-.66,.87-.87,.36-.21,.78-.31,1.25-.31s.88,.1,1.25,.31c.37,.21,.66,.5,.87,.87,.21,.37,.31,.78,.31,1.25v2.64c0,.47-.1,.88-.31,1.25-.21,.36-.5,.65-.87,.86-.37,.21-.78,.32-1.25,.32Zm0-.86c.28,0,.54-.07,.77-.21,.23-.14,.41-.32,.55-.55,.14-.23,.21-.49,.21-.77v-2.74c0-.28-.07-.54-.21-.77-.14-.23-.32-.41-.55-.55-.23-.14-.49-.21-.77-.21s-.54,.07-.77,.21-.42,.32-.55,.55c-.14,.23-.2,.49-.2,.77v2.74c0,.28,.07,.54,.2,.77,.14,.23,.32,.42,.55,.55s.49,.21,.77,.21Z"/></g><line class="c" x1="196.51" y1="130.42" x2="177.91" y2="97.6"/><line class="c" x1="104.07" y1="130.46" x2="122.69" y2="97.6"/></svg>