<?xml version="1.0" encoding="UTF-8"?><svg id="a" xmlns="http://www.w3.org/2000/svg" viewBox="0 0 469.31 242.94"><defs><style>.b{fill:#363a3f;}.c{fill:#5a94ff;}.d{stroke-dasharray:0 0 3.75 3.75;}.d,.e,.f,.g,.h{fill:none;}.d,.f,.g{stroke:#ff7358;stroke-width:1.19px;}.e{stroke:#363a3f;stroke-miterlimit:10;}.g{stroke-dasharray:0 0 3.56 3.56;}.h{stroke:#5a94ff;}</style></defs><g><line class="h" x1="340.96" y1="20.78" x2="309.85" y2="20.78"/><polygon class="c" points="310.87 17.29 304.82 20.78 310.87 24.27 310.87 17.29"/></g><g><line class="h" x1="273.33" y1="20.78" x2="242.22" y2="20.78"/><polygon class="c" points="243.24 17.29 237.2 20.78 243.24 24.27 243.24 17.29"/></g><g><line class="h" x1="273.33" y1="87.73" x2="242.22" y2="87.73"/><polygon class="c" points="243.24 84.24 237.2 87.73 243.24 91.22 243.24 84.24"/></g><g><line class="h" x1="205.7" y1="87.73" x2="174.59" y2="87.73"/><polygon class="c" points="175.61 84.24 169.57 87.73 175.61 91.22 175.61 84.24"/></g><g><line class="h" x1="205.7" y1="54.1" x2="173.63" y2="77.37"/><polygon class="c" points="172.41 73.94 169.57 80.32 176.51 79.59 172.41 73.94"/></g><g><line class="h" x1="70.45" y1="87.73" x2="38.38" y2="110.99"/><polygon class="c" points="37.16 107.57 34.32 113.94 41.26 113.22 37.16 107.57"/></g><g><line class="h" x1="205.7" y1="121.35" x2="173.63" y2="98.09"/><polygon class="c" points="176.51 95.86 169.57 95.14 172.41 101.51 176.51 95.86"/></g><g><line class="h" x1="138.08" y1="87.73" x2="106.97" y2="87.73"/><polygon class="c" points="107.99 84.24 101.94 87.73 107.99 91.22 107.99 84.24"/></g><g><line class="h" x1="138.08" y1="20.78" x2="104.46" y2="78.88"/><polygon class="c" points="101.95 76.25 101.94 83.23 107.99 79.74 101.95 76.25"/></g><g><line class="h" x1="138.08" y1="154.9" x2="104.46" y2="96.8"/><polygon class="c" points="107.99 95.93 101.94 92.45 101.95 99.43 107.99 95.93"/></g><g><line class="h" x1="70.45" y1="198.9" x2="36.83" y2="140.8"/><polygon class="c" points="40.36 139.94 34.32 136.45 34.32 143.43 40.36 139.94"/></g><g><line class="h" x1="205.7" y1="20.78" x2="174.59" y2="20.78"/><polygon class="c" points="175.61 17.29 169.57 20.78 175.61 24.27 175.61 17.29"/></g><g><line class="h" x1="340.96" y1="198.9" x2="309.85" y2="198.9"/><polygon class="c" points="310.87 195.41 304.82 198.9 310.87 202.39 310.87 195.41"/></g><g><line class="h" x1="408.58" y1="198.9" x2="377.47" y2="198.9"/><polygon class="c" points="378.49 195.41 372.45 198.9 378.49 202.39 378.49 195.41"/></g><g><line class="h" x1="273.33" y1="198.9" x2="242.22" y2="198.9"/><polygon class="c" points="243.24 195.41 237.2 198.9 243.24 202.39 243.24 195.41"/></g><g><line class="h" x1="205.7" y1="198.9" x2="174.59" y2="198.9"/><polygon class="c" points="175.61 195.41 169.57 198.9 175.61 202.39 175.61 195.41"/></g><g><line class="h" x1="205.7" y1="154.9" x2="174.59" y2="154.9"/><polygon class="c" points="175.61 151.41 169.57 154.9 175.61 158.39 175.61 151.41"/></g><g><line class="h" x1="138.08" y1="198.9" x2="106.97" y2="198.9"/><polygon class="c" points="107.99 195.41 101.94 198.9 107.99 202.39 107.99 195.41"/></g><g><path class="b" d="M379.1,11.93V4.73h.81l2.72,5.74,2.7-5.74h.82v7.2h-.84V6.68l-2.45,5.25h-.47l-2.45-5.25v5.25h-.84Z"/><path class="b" d="M389.09,12.08c-.4,0-.74-.07-1.01-.22s-.48-.34-.62-.59-.21-.51-.21-.8,.05-.53,.16-.74c.11-.21,.26-.38,.46-.52,.2-.14,.43-.25,.71-.33,.26-.07,.54-.13,.86-.18s.64-.1,.97-.14c.33-.04,.63-.08,.92-.12l-.32,.19c0-.48-.09-.83-.29-1.07-.2-.23-.55-.34-1.04-.34-.33,0-.61,.07-.86,.22-.25,.15-.42,.39-.52,.72l-.85-.25c.13-.47,.38-.84,.76-1.11,.37-.27,.86-.41,1.47-.41,.49,0,.91,.09,1.26,.26,.35,.17,.6,.44,.76,.79,.08,.17,.12,.35,.15,.54,.02,.19,.03,.4,.03,.61v3.34h-.79v-1.29l.18,.12c-.2,.44-.49,.77-.85,.99-.37,.22-.81,.33-1.33,.33Zm.13-.75c.32,0,.6-.06,.83-.17,.24-.12,.42-.27,.57-.46,.14-.19,.24-.39,.28-.62,.05-.17,.08-.35,.08-.56s0-.36,0-.47l.31,.13c-.29,.04-.58,.08-.86,.12-.28,.04-.54,.08-.79,.12-.25,.04-.47,.09-.67,.15-.15,.05-.28,.11-.41,.18-.13,.07-.23,.17-.31,.28s-.12,.26-.12,.43c0,.15,.04,.29,.11,.42,.08,.13,.19,.24,.35,.33,.16,.08,.37,.12,.62,.12Z"/><path class="b" d="M393.28,5.57v-.92h.89v.92h-.89Zm0,6.36V6.53h.89v5.4h-.89Z"/><path class="b" d="M395.66,11.93V6.53h.8v1.45h.1v3.96h-.9Zm3.85,0v-2.71c0-.26-.02-.5-.07-.74-.04-.24-.12-.45-.24-.64-.11-.19-.26-.34-.45-.45-.19-.11-.43-.17-.71-.17-.22,0-.43,.04-.61,.11-.18,.07-.34,.19-.47,.34s-.23,.35-.3,.58c-.07,.23-.11,.5-.11,.82l-.58-.18c0-.52,.09-.97,.28-1.35,.19-.38,.45-.66,.79-.87,.34-.2,.74-.3,1.21-.3,.35,0,.65,.05,.9,.17,.25,.11,.45,.26,.61,.44,.16,.18,.29,.38,.39,.61,.09,.22,.16,.45,.2,.68s.06,.45,.06,.66v2.99h-.9Z"/><path class="b" d="M405.99,12.08c-.55,0-1.01-.12-1.39-.37-.38-.25-.67-.58-.87-1.01-.2-.43-.3-.92-.31-1.47,0-.56,.11-1.06,.32-1.49s.5-.76,.88-1c.38-.24,.85-.36,1.39-.36,.57,0,1.06,.14,1.47,.42,.41,.28,.69,.66,.83,1.15l-.88,.27c-.11-.31-.3-.56-.55-.73-.25-.17-.55-.26-.88-.26-.37,0-.67,.09-.92,.26-.24,.17-.42,.41-.53,.71-.12,.3-.18,.65-.18,1.04,0,.6,.15,1.08,.42,1.45,.27,.37,.68,.55,1.21,.55,.35,0,.65-.08,.88-.24,.23-.16,.41-.4,.53-.7l.9,.23c-.19,.5-.48,.89-.88,1.16s-.88,.4-1.44,.4Z"/><path class="b" d="M409.32,11.93V4.73h.8v3.98h.1v3.22h-.9Zm3.85,0v-2.71c0-.26-.02-.5-.07-.74-.04-.24-.12-.45-.24-.64-.11-.19-.26-.34-.45-.45-.19-.11-.43-.17-.71-.17-.22,0-.43,.04-.61,.11-.18,.07-.34,.19-.47,.34s-.23,.35-.3,.58c-.07,.23-.11,.5-.11,.82l-.58-.18c0-.52,.09-.97,.28-1.35,.19-.38,.45-.66,.79-.87,.34-.2,.74-.3,1.21-.3,.35,0,.65,.05,.9,.17,.25,.11,.45,.26,.61,.44,.16,.18,.29,.38,.39,.61,.09,.22,.16,.45,.2,.68s.06,.45,.06,.66v2.99h-.9Z"/><path class="b" d="M416.9,12.08c-.4,0-.74-.07-1.01-.22s-.48-.34-.62-.59-.21-.51-.21-.8,.05-.53,.16-.74c.11-.21,.26-.38,.46-.52,.2-.14,.43-.25,.71-.33,.26-.07,.54-.13,.86-.18s.64-.1,.97-.14c.33-.04,.63-.08,.92-.12l-.32,.19c0-.48-.09-.83-.29-1.07-.2-.23-.55-.34-1.04-.34-.33,0-.61,.07-.86,.22-.25,.15-.42,.39-.52,.72l-.85-.25c.13-.47,.38-.84,.76-1.11,.37-.27,.86-.41,1.47-.41,.49,0,.91,.09,1.26,.26,.35,.17,.6,.44,.76,.79,.08,.17,.12,.35,.15,.54,.02,.19,.03,.4,.03,.61v3.34h-.79v-1.29l.18,.12c-.2,.44-.49,.77-.85,.99-.37,.22-.81,.33-1.33,.33Zm.13-.75c.32,0,.6-.06,.83-.17,.24-.12,.42-.27,.57-.46,.14-.19,.24-.39,.28-.62,.05-.17,.08-.35,.08-.56s0-.36,0-.47l.31,.13c-.29,.04-.58,.08-.86,.12-.28,.04-.54,.08-.79,.12-.25,.04-.47,.09-.67,.15-.15,.05-.28,.11-.41,.18-.13,.07-.23,.17-.31,.28s-.12,.26-.12,.43c0,.15,.04,.29,.11,.42,.08,.13,.19,.24,.35,.33,.16,.08,.37,.12,.62,.12Z"/><path class="b" d="M421.09,5.57v-.92h.89v.92h-.89Zm0,6.36V6.53h.89v5.4h-.89Z"/><path class="b" d="M423.48,11.93V6.53h.8v1.45h.1v3.96h-.9Zm3.85,0v-2.71c0-.26-.02-.5-.07-.74-.04-.24-.12-.45-.24-.64-.11-.19-.26-.34-.45-.45-.19-.11-.43-.17-.71-.17-.22,0-.43,.04-.61,.11-.18,.07-.34,.19-.47,.34s-.23,.35-.3,.58c-.07,.23-.11,.5-.11,.82l-.58-.18c0-.52,.09-.97,.28-1.35,.19-.38,.45-.66,.79-.87,.34-.2,.74-.3,1.21-.3,.35,0,.65,.05,.9,.17,.25,.11,.45,.26,.61,.44,.16,.18,.29,.38,.39,.61,.09,.22,.16,.45,.2,.68s.06,.45,.06,.66v2.99h-.9Z"/><path class="b" d="M380.63,24.08c-.4,0-.74-.07-1.01-.22s-.48-.34-.62-.59-.21-.51-.21-.8,.05-.53,.16-.74c.11-.21,.26-.38,.46-.52,.2-.14,.43-.25,.71-.33,.26-.07,.54-.13,.86-.18s.64-.1,.97-.14c.33-.04,.63-.08,.92-.12l-.32,.19c0-.48-.09-.83-.29-1.07-.2-.23-.55-.34-1.04-.34-.33,0-.61,.07-.86,.22-.25,.15-.42,.39-.52,.72l-.85-.25c.13-.47,.38-.84,.76-1.11,.37-.27,.86-.41,1.47-.41,.49,0,.91,.09,1.26,.26,.35,.17,.6,.44,.76,.79,.08,.17,.12,.35,.15,.54,.02,.19,.03,.4,.03,.61v3.34h-.79v-1.29l.18,.12c-.2,.44-.49,.77-.85,.99-.37,.22-.81,.33-1.33,.33Zm.13-.75c.32,0,.6-.06,.83-.17,.24-.12,.42-.27,.57-.46,.14-.19,.24-.39,.28-.62,.05-.17,.08-.35,.08-.56s0-.36,0-.47l.31,.13c-.29,.04-.58,.08-.86,.12-.28,.04-.54,.08-.79,.12-.25,.04-.47,.09-.67,.15-.15,.05-.28,.11-.41,.18-.13,.07-.23,.17-.31,.28s-.12,.26-.12,.43c0,.15,.04,.29,.11,.42,.08,.13,.19,.24,.35,.33,.16,.08,.37,.12,.62,.12Z"/><path class="b" d="M387,24.08c-.55,0-1.01-.12-1.39-.37-.38-.25-.67-.58-.87-1.01-.2-.43-.3-.92-.31-1.47,0-.56,.11-1.06,.32-1.49s.5-.76,.88-1c.38-.24,.85-.36,1.39-.36,.57,0,1.06,.14,1.47,.42,.41,.28,.69,.66,.83,1.15l-.88,.27c-.11-.31-.3-.56-.55-.73-.25-.17-.55-.26-.88-.26-.37,0-.67,.09-.92,.26-.24,.17-.42,.41-.53,.71-.12,.3-.18,.65-.18,1.04,0,.6,.15,1.08,.42,1.45,.27,.37,.68,.55,1.21,.55,.35,0,.65-.08,.88-.24,.23-.16,.41-.4,.53-.7l.9,.23c-.19,.5-.48,.89-.88,1.16s-.88,.4-1.44,.4Z"/><path class="b" d="M392.46,24.08c-.55,0-1.01-.12-1.39-.37-.38-.25-.67-.58-.87-1.01-.2-.43-.3-.92-.31-1.47,0-.56,.11-1.06,.32-1.49s.5-.76,.88-1c.38-.24,.85-.36,1.39-.36,.57,0,1.06,.14,1.47,.42,.41,.28,.69,.66,.83,1.15l-.88,.27c-.11-.31-.3-.56-.55-.73-.25-.17-.55-.26-.88-.26-.37,0-.67,.09-.92,.26-.24,.17-.42,.41-.53,.71-.12,.3-.18,.65-.18,1.04,0,.6,.15,1.08,.42,1.45,.27,.37,.68,.55,1.21,.55,.35,0,.65-.08,.88-.24,.23-.16,.41-.4,.53-.7l.9,.23c-.19,.5-.48,.89-.88,1.16s-.88,.4-1.44,.4Z"/><path class="b" d="M397.94,24.08c-.54,0-1-.12-1.39-.37-.39-.24-.69-.58-.9-1.01-.21-.43-.31-.92-.31-1.48s.11-1.06,.32-1.49c.21-.43,.52-.76,.91-1s.85-.36,1.38-.36,1,.12,1.39,.36c.39,.24,.69,.58,.9,1,.21,.43,.31,.92,.31,1.48s-.11,1.06-.32,1.49c-.21,.43-.51,.76-.9,1-.39,.24-.85,.36-1.39,.36Zm0-.85c.56,0,.98-.19,1.25-.56s.41-.86,.41-1.45-.14-1.1-.42-1.46c-.28-.36-.69-.54-1.25-.54-.38,0-.69,.08-.93,.25-.24,.17-.43,.41-.54,.71-.12,.3-.18,.65-.18,1.04,0,.61,.14,1.09,.42,1.46,.28,.37,.69,.55,1.24,.55Z"/><path class="b" d="M401.65,23.93v-5.4h.79v1.31l-.13-.17c.06-.17,.15-.32,.25-.46,.1-.14,.22-.26,.34-.35,.14-.11,.3-.2,.47-.26,.18-.06,.36-.1,.54-.11,.18-.01,.36,0,.52,.04v.83c-.19-.05-.39-.06-.62-.04-.22,.02-.43,.11-.62,.25-.17,.12-.31,.27-.4,.45s-.16,.37-.2,.57c-.04,.21-.06,.42-.06,.63v2.71h-.89Z"/><path class="b" d="M407.4,24.08c-.5,0-.94-.13-1.29-.38-.36-.25-.64-.59-.83-1.02s-.29-.92-.29-1.46,.1-1.03,.29-1.46,.47-.77,.83-1.02c.36-.25,.79-.37,1.29-.37s.94,.12,1.28,.37c.35,.25,.61,.58,.79,1.01,.18,.43,.27,.92,.27,1.46s-.09,1.02-.27,1.45c-.18,.43-.44,.77-.79,1.03s-.77,.38-1.28,.38Zm.11-.82c.36,0,.66-.09,.9-.26s.41-.42,.52-.72c.11-.31,.17-.66,.17-1.05s-.06-.75-.17-1.06c-.11-.3-.28-.54-.51-.71-.23-.17-.52-.26-.88-.26s-.67,.09-.91,.27-.42,.42-.53,.73-.17,.65-.17,1.03,.06,.73,.17,1.04c.12,.31,.29,.55,.53,.73,.23,.18,.53,.27,.88,.27Zm1.58,.67v-3.97h-.1v-3.23h.89v7.2h-.79Z"/><path class="b" d="M411.39,17.57v-.92h.89v.92h-.89Zm0,6.36v-5.4h.89v5.4h-.89Z"/><path class="b" d="M413.77,23.93v-5.4h.8v1.45h.1v3.96h-.9Zm3.85,0v-2.71c0-.26-.02-.5-.07-.74-.04-.24-.12-.45-.24-.64-.11-.19-.26-.34-.45-.45-.19-.11-.43-.17-.71-.17-.22,0-.43,.04-.61,.11-.18,.07-.34,.19-.47,.34s-.23,.35-.3,.58c-.07,.23-.11,.5-.11,.82l-.58-.18c0-.52,.09-.97,.28-1.35,.19-.38,.45-.66,.79-.87,.34-.2,.74-.3,1.21-.3,.35,0,.65,.05,.9,.17,.25,.11,.45,.26,.61,.44,.16,.18,.29,.38,.39,.61,.09,.22,.16,.45,.2,.68s.06,.45,.06,.66v2.99h-.9Z"/><path class="b" d="M421.89,24.08c-.5,0-.94-.13-1.29-.38-.36-.25-.64-.59-.83-1.02s-.29-.92-.29-1.46,.1-1.03,.29-1.46,.47-.77,.83-1.02c.36-.25,.79-.37,1.29-.37s.94,.12,1.28,.37c.35,.25,.61,.58,.79,1.01,.18,.43,.27,.92,.27,1.46s-.09,1.02-.27,1.45c-.18,.43-.44,.77-.79,1.03s-.77,.38-1.28,.38Zm.11-.82c.36,0,.66-.09,.9-.26s.41-.42,.52-.72c.11-.31,.17-.66,.17-1.05s-.06-.75-.17-1.06c-.11-.3-.28-.54-.51-.71-.23-.17-.52-.26-.88-.26s-.67,.09-.91,.27-.42,.42-.53,.73-.17,.65-.17,1.03,.06,.73,.17,1.04c.12,.31,.29,.55,.53,.73,.23,.18,.53,.27,.88,.27Zm1.58,.67v-3.97h-.1v-3.23h.89v7.2h-.79Z"/><path class="b" d="M425.88,17.57v-.92h.89v.92h-.89Zm0,6.36v-5.4h.89v5.4h-.89Z"/><path class="b" d="M428.26,23.93v-5.4h.8v1.45h.1v3.96h-.9Zm3.85,0v-2.71c0-.26-.02-.5-.07-.74-.04-.24-.12-.45-.24-.64-.11-.19-.26-.34-.45-.45-.19-.11-.43-.17-.71-.17-.22,0-.43,.04-.61,.11-.18,.07-.34,.19-.47,.34s-.23,.35-.3,.58c-.07,.23-.11,.5-.11,.82l-.58-.18c0-.52,.09-.97,.28-1.35,.19-.38,.45-.66,.79-.87,.34-.2,.74-.3,1.21-.3,.35,0,.65,.05,.9,.17,.25,.11,.45,.26,.61,.44,.16,.18,.29,.38,.39,.61,.09,.22,.16,.45,.2,.68s.06,.45,.06,.66v2.99h-.9Z"/><path class="b" d="M436.43,24.08c-.5,0-.94-.13-1.29-.38-.36-.25-.64-.59-.83-1.02s-.29-.92-.29-1.46,.1-1.03,.29-1.46,.47-.77,.83-1.02c.36-.25,.79-.37,1.29-.37s.94,.12,1.28,.37c.35,.25,.61,.58,.79,1.01,.18,.43,.27,.92,.27,1.46s-.09,1.02-.27,1.45c-.18,.43-.44,.77-.79,1.03s-.77,.38-1.28,.38Zm.06,2.4c-.28,0-.56-.04-.83-.13-.27-.09-.52-.22-.74-.39s-.41-.4-.56-.66l.82-.43c.13,.26,.32,.46,.57,.58s.5,.18,.76,.18c.34,0,.63-.06,.86-.19s.39-.31,.5-.56c.11-.25,.16-.55,.16-.92v-1.48h.1v-3.95h.79v5.44c0,.15,0,.29-.01,.42,0,.14-.03,.27-.05,.41-.07,.38-.21,.7-.42,.95-.21,.25-.47,.43-.8,.55-.33,.12-.7,.18-1.13,.18Zm.04-3.21c.36,0,.66-.09,.9-.26s.41-.42,.52-.72c.11-.31,.17-.66,.17-1.05s-.06-.75-.17-1.06c-.11-.3-.28-.54-.51-.71-.23-.17-.52-.26-.88-.26s-.67,.09-.91,.27-.42,.42-.53,.73-.17,.65-.17,1.03,.06,.73,.17,1.04c.12,.31,.29,.55,.53,.73,.23,.18,.53,.27,.88,.27Z"/><path class="b" d="M378.5,31.26v-.74h3.62v.74h-3.62Zm3.62,4.67c-.32,.06-.64,.09-.95,.08s-.59-.07-.83-.19c-.24-.12-.43-.29-.55-.54-.11-.21-.16-.43-.17-.65,0-.22-.01-.47-.01-.74v-4.86h.89v4.82c0,.22,0,.41,0,.57,0,.16,.04,.29,.1,.4,.12,.21,.31,.34,.57,.38,.26,.04,.58,.03,.95-.03v.76Z"/><path class="b" d="M385.29,36.08c-.54,0-1-.12-1.39-.37-.39-.24-.69-.58-.9-1.01-.21-.43-.31-.92-.31-1.48s.11-1.06,.32-1.49c.21-.43,.52-.76,.91-1s.85-.36,1.38-.36,1,.12,1.39,.36c.39,.24,.69,.58,.9,1,.21,.43,.31,.92,.31,1.48s-.11,1.06-.32,1.49c-.21,.43-.51,.76-.9,1-.39,.24-.85,.36-1.39,.36Zm0-.85c.56,0,.98-.19,1.25-.56s.41-.86,.41-1.45-.14-1.1-.42-1.46c-.28-.36-.69-.54-1.25-.54-.38,0-.69,.08-.93,.25-.24,.17-.43,.41-.54,.71-.12,.3-.18,.65-.18,1.04,0,.61,.14,1.09,.42,1.46,.28,.37,.69,.55,1.24,.55Z"/><path class="b" d="M391.24,30.8c-.17-.18-.26-.44-.26-.79v-1.28h.98v1.13h-.51c-.01,.13,0,.25,0,.37,.02,.11,.07,.2,.13,.26,.07,.06,.18,.09,.32,.08l.05,.42c-.31,.06-.55,0-.72-.18Z"/><path class="b" d="M393.52,35.93v-7.35h.89v7.35h-.89Z"/><path class="b" d="M398.21,36.08c-.54,0-1-.12-1.39-.37-.39-.24-.69-.58-.9-1.01-.21-.43-.31-.92-.31-1.48s.11-1.06,.32-1.49c.21-.43,.52-.76,.91-1s.85-.36,1.38-.36,1,.12,1.39,.36c.39,.24,.69,.58,.9,1,.21,.43,.31,.92,.31,1.48s-.11,1.06-.32,1.49c-.21,.43-.51,.76-.9,1-.39,.24-.85,.36-1.39,.36Zm0-.85c.56,0,.98-.19,1.25-.56s.41-.86,.41-1.45-.14-1.1-.42-1.46c-.28-.36-.69-.54-1.25-.54-.38,0-.69,.08-.93,.25-.24,.17-.43,.41-.54,.71-.12,.3-.18,.65-.18,1.04,0,.61,.14,1.09,.42,1.46,.28,.37,.69,.55,1.24,.55Z"/><path class="b" d="M401.91,35.93v-5.4h.8v1.45h.1v3.96h-.9Zm3.85,0v-2.71c0-.26-.02-.5-.07-.74-.04-.24-.12-.45-.24-.64-.11-.19-.26-.34-.45-.45-.19-.11-.43-.17-.71-.17-.22,0-.43,.04-.61,.11-.18,.07-.34,.19-.47,.34s-.23,.35-.3,.58c-.07,.23-.11,.5-.11,.82l-.58-.18c0-.52,.09-.97,.28-1.35,.19-.38,.45-.66,.79-.87,.34-.2,.74-.3,1.21-.3,.35,0,.65,.05,.9,.17,.25,.11,.45,.26,.61,.44,.16,.18,.29,.38,.39,.61,.09,.22,.16,.45,.2,.68s.06,.45,.06,.66v2.99h-.9Z"/><path class="b" d="M410.08,36.08c-.5,0-.94-.13-1.29-.38-.36-.25-.64-.59-.83-1.02s-.29-.92-.29-1.46,.1-1.03,.29-1.46,.47-.77,.83-1.02c.36-.25,.79-.37,1.29-.37s.94,.12,1.28,.37c.35,.25,.61,.58,.79,1.01,.18,.43,.27,.92,.27,1.46s-.09,1.02-.27,1.45c-.18,.43-.44,.77-.79,1.03s-.77,.38-1.28,.38Zm.06,2.4c-.28,0-.56-.04-.83-.13-.27-.09-.52-.22-.74-.39s-.41-.4-.56-.66l.82-.43c.13,.26,.32,.46,.57,.58s.5,.18,.76,.18c.34,0,.63-.06,.86-.19s.39-.31,.5-.56c.11-.25,.16-.55,.16-.92v-1.48h.1v-3.95h.79v5.44c0,.15,0,.29-.01,.42,0,.14-.03,.27-.05,.41-.07,.38-.21,.7-.42,.95-.21,.25-.47,.43-.8,.55-.33,.12-.7,.18-1.13,.18Zm.04-3.21c.36,0,.66-.09,.9-.26s.41-.42,.52-.72c.11-.31,.17-.66,.17-1.05s-.06-.75-.17-1.06c-.11-.3-.28-.54-.51-.71-.23-.17-.52-.26-.88-.26s-.67,.09-.91,.27-.42,.42-.53,.73-.17,.65-.17,1.03,.06,.73,.17,1.04c.12,.31,.29,.55,.53,.73,.23,.18,.53,.27,.88,.27Z"/><path class="b" d="M416.3,36.08c-.53,0-.99-.12-1.39-.35-.39-.24-.7-.56-.92-.99-.22-.42-.33-.91-.33-1.48s.11-1.1,.32-1.53,.52-.77,.91-1c.39-.24,.84-.35,1.37-.35s1.01,.12,1.39,.38,.67,.61,.86,1.07c.19,.46,.27,1.02,.25,1.66h-.9v-.32c0-.66-.14-1.16-.4-1.49-.26-.33-.65-.49-1.16-.49-.55,0-.97,.18-1.25,.53-.29,.35-.43,.86-.43,1.52s.14,1.13,.43,1.48c.29,.35,.69,.52,1.22,.52,.36,0,.67-.08,.93-.25,.26-.16,.47-.4,.62-.7l.86,.29c-.21,.48-.53,.85-.95,1.11-.42,.26-.89,.39-1.42,.39Zm-2-2.6v-.71h3.99v.71h-3.99Z"/><path class="b" d="M421.9,36.07c-.64,0-1.17-.14-1.58-.42-.41-.28-.66-.68-.76-1.18l.91-.15c.07,.29,.24,.53,.51,.7,.26,.17,.59,.26,.98,.26s.66-.08,.87-.23,.32-.36,.32-.62c0-.15-.04-.28-.11-.37-.07-.09-.21-.18-.43-.27-.22-.08-.55-.18-.99-.3-.48-.13-.85-.26-1.12-.39s-.47-.29-.58-.48c-.12-.18-.17-.4-.17-.65,0-.32,.09-.59,.26-.83,.17-.24,.42-.42,.73-.55,.31-.13,.67-.19,1.09-.19s.78,.06,1.1,.19c.32,.13,.58,.31,.78,.55s.32,.52,.35,.83l-.91,.17c-.04-.29-.18-.52-.42-.69-.24-.17-.54-.25-.91-.26-.35-.01-.63,.05-.85,.18-.22,.14-.33,.32-.33,.56,0,.13,.04,.24,.12,.33,.08,.09,.23,.18,.46,.26,.22,.08,.54,.18,.97,.29,.48,.12,.85,.25,1.13,.39,.27,.14,.47,.31,.59,.5,.12,.19,.18,.43,.18,.71,0,.52-.19,.93-.58,1.23-.38,.3-.91,.45-1.58,.45Z"/><path class="b" d="M424.57,31.26v-.74h3.62v.74h-3.62Zm3.62,4.67c-.32,.06-.64,.09-.95,.08s-.59-.07-.83-.19c-.24-.12-.43-.29-.55-.54-.11-.21-.16-.43-.17-.65,0-.22-.01-.47-.01-.74v-4.86h.89v4.82c0,.22,0,.41,0,.57,0,.16,.04,.29,.1,.4,.12,.21,.31,.34,.57,.38,.26,.04,.58,.03,.95-.03v.76Z"/><path class="b" d="M429.33,30.98l.05-.42c.14,0,.25-.02,.32-.08,.07-.06,.12-.15,.13-.26,.02-.11,.02-.23,0-.37h-.51v-1.13h.98v1.28c0,.35-.09,.61-.26,.79s-.41,.24-.72,.18Z"/><path class="b" d="M433.71,35.93v-5.4h.79v1.31l-.13-.17c.06-.17,.15-.32,.25-.46,.1-.14,.22-.26,.34-.35,.14-.11,.3-.2,.47-.26,.18-.06,.36-.1,.54-.11,.18-.01,.36,0,.52,.04v.83c-.19-.05-.39-.06-.62-.04-.22,.02-.43,.11-.62,.25-.17,.12-.31,.27-.4,.45s-.16,.37-.2,.57c-.04,.21-.06,.42-.06,.63v2.71h-.89Z"/><path class="b" d="M439.49,36.07c-.35,0-.64-.05-.89-.17-.25-.11-.45-.26-.62-.44-.16-.18-.29-.39-.38-.61-.09-.22-.16-.45-.2-.68s-.06-.45-.06-.66v-2.99h.9v2.71c0,.25,.02,.5,.07,.74,.05,.24,.12,.45,.24,.64,.11,.19,.26,.34,.45,.45,.19,.11,.42,.17,.71,.17,.22,0,.43-.04,.61-.12,.18-.08,.34-.19,.47-.34,.13-.15,.23-.34,.3-.58,.07-.23,.11-.5,.11-.81l.58,.18c0,.52-.09,.97-.28,1.34-.19,.38-.45,.67-.8,.87-.34,.2-.74,.3-1.21,.3Zm1.8-.14v-1.45h-.1v-3.96h.89v5.4h-.79Z"/><path class="b" d="M443.59,35.93v-7.35h.89v7.35h-.89Z"/><path class="b" d="M448.32,36.08c-.53,0-.99-.12-1.39-.35-.39-.24-.7-.56-.92-.99-.22-.42-.33-.91-.33-1.48s.11-1.1,.32-1.53,.52-.77,.91-1c.39-.24,.84-.35,1.37-.35s1.01,.12,1.39,.38,.67,.61,.86,1.07c.19,.46,.27,1.02,.25,1.66h-.9v-.32c0-.66-.14-1.16-.4-1.49-.26-.33-.65-.49-1.16-.49-.55,0-.97,.18-1.25,.53-.29,.35-.43,.86-.43,1.52s.14,1.13,.43,1.48c.29,.35,.69,.52,1.22,.52,.36,0,.67-.08,.93-.25,.26-.16,.47-.4,.62-.7l.86,.29c-.21,.48-.53,.85-.95,1.11-.42,.26-.89,.39-1.42,.39Zm-2-2.6v-.71h3.99v.71h-3.99Z"/></g><g><path class="b" d="M314.37,79.28v-7.2h.81l2.72,5.74,2.7-5.74h.82v7.2h-.84v-5.24l-2.45,5.25h-.47l-2.45-5.25v5.25h-.84Z"/><path class="b" d="M324.36,79.43c-.4,0-.74-.07-1.01-.22s-.48-.34-.62-.59-.21-.51-.21-.8,.05-.53,.16-.74c.11-.21,.26-.38,.46-.52,.2-.14,.43-.25,.71-.33,.26-.07,.54-.13,.86-.18s.64-.1,.97-.14c.33-.04,.63-.08,.92-.12l-.32,.19c0-.48-.09-.83-.29-1.07-.2-.23-.55-.34-1.04-.34-.33,0-.61,.07-.86,.22-.25,.15-.42,.39-.52,.72l-.85-.25c.13-.47,.38-.84,.76-1.11,.37-.27,.86-.41,1.47-.41,.49,0,.91,.09,1.26,.26,.35,.17,.6,.44,.76,.79,.08,.17,.12,.35,.15,.54,.02,.19,.03,.4,.03,.61v3.34h-.79v-1.29l.18,.12c-.2,.44-.49,.77-.85,.99-.37,.22-.81,.33-1.33,.33Zm.13-.75c.32,0,.6-.06,.83-.17,.24-.12,.42-.27,.57-.46,.14-.19,.24-.39,.28-.62,.05-.17,.08-.35,.08-.56s0-.36,0-.47l.31,.13c-.29,.04-.58,.08-.86,.12-.28,.04-.54,.08-.79,.12-.25,.04-.47,.09-.67,.15-.15,.05-.28,.11-.41,.18-.13,.07-.23,.17-.31,.28s-.12,.26-.12,.43c0,.15,.04,.29,.11,.42,.08,.13,.19,.24,.35,.33,.16,.08,.37,.12,.62,.12Z"/><path class="b" d="M328.55,72.92v-.92h.89v.92h-.89Zm0,6.36v-5.4h.89v5.4h-.89Z"/><path class="b" d="M330.93,79.28v-5.4h.8v1.45h.1v3.96h-.9Zm3.85,0v-2.71c0-.26-.02-.5-.07-.74-.04-.24-.12-.45-.24-.64-.11-.19-.26-.34-.45-.45-.19-.11-.43-.17-.71-.17-.22,0-.43,.04-.61,.11-.18,.07-.34,.19-.47,.34s-.23,.35-.3,.58c-.07,.23-.11,.5-.11,.82l-.58-.18c0-.52,.09-.97,.28-1.35,.19-.38,.45-.66,.79-.87,.34-.2,.74-.3,1.21-.3,.35,0,.65,.05,.9,.17,.25,.11,.45,.26,.61,.44,.16,.18,.29,.38,.39,.61,.09,.22,.16,.45,.2,.68s.06,.45,.06,.66v2.99h-.9Z"/><path class="b" d="M341.26,79.43c-.55,0-1.01-.12-1.39-.37-.38-.25-.67-.58-.87-1.01-.2-.43-.3-.92-.31-1.47,0-.56,.11-1.06,.32-1.49s.5-.76,.88-1c.38-.24,.85-.36,1.39-.36,.57,0,1.06,.14,1.47,.42,.41,.28,.69,.66,.83,1.15l-.88,.27c-.11-.31-.3-.56-.55-.73-.25-.17-.55-.26-.88-.26-.37,0-.67,.09-.92,.26-.24,.17-.42,.41-.53,.71-.12,.3-.18,.65-.18,1.04,0,.6,.15,1.08,.42,1.45,.27,.37,.68,.55,1.21,.55,.35,0,.65-.08,.88-.24,.23-.16,.41-.4,.53-.7l.9,.23c-.19,.5-.48,.89-.88,1.16s-.88,.4-1.44,.4Z"/><path class="b" d="M344.59,79.28v-7.2h.8v3.98h.1v3.22h-.9Zm3.85,0v-2.71c0-.26-.02-.5-.07-.74-.04-.24-.12-.45-.24-.64-.11-.19-.26-.34-.45-.45-.19-.11-.43-.17-.71-.17-.22,0-.43,.04-.61,.11-.18,.07-.34,.19-.47,.34s-.23,.35-.3,.58c-.07,.23-.11,.5-.11,.82l-.58-.18c0-.52,.09-.97,.28-1.35,.19-.38,.45-.66,.79-.87,.34-.2,.74-.3,1.21-.3,.35,0,.65,.05,.9,.17,.25,.11,.45,.26,.61,.44,.16,.18,.29,.38,.39,.61,.09,.22,.16,.45,.2,.68s.06,.45,.06,.66v2.99h-.9Z"/><path class="b" d="M352.17,79.43c-.4,0-.74-.07-1.01-.22s-.48-.34-.62-.59-.21-.51-.21-.8,.05-.53,.16-.74c.11-.21,.26-.38,.46-.52,.2-.14,.43-.25,.71-.33,.26-.07,.54-.13,.86-.18s.64-.1,.97-.14c.33-.04,.63-.08,.92-.12l-.32,.19c0-.48-.09-.83-.29-1.07-.2-.23-.55-.34-1.04-.34-.33,0-.61,.07-.86,.22-.25,.15-.42,.39-.52,.72l-.85-.25c.13-.47,.38-.84,.76-1.11,.37-.27,.86-.41,1.47-.41,.49,0,.91,.09,1.26,.26,.35,.17,.6,.44,.76,.79,.08,.17,.12,.35,.15,.54,.02,.19,.03,.4,.03,.61v3.34h-.79v-1.29l.18,.12c-.2,.44-.49,.77-.85,.99-.37,.22-.81,.33-1.33,.33Zm.13-.75c.32,0,.6-.06,.83-.17,.24-.12,.42-.27,.57-.46,.14-.19,.24-.39,.28-.62,.05-.17,.08-.35,.08-.56s0-.36,0-.47l.31,.13c-.29,.04-.58,.08-.86,.12-.28,.04-.54,.08-.79,.12-.25,.04-.47,.09-.67,.15-.15,.05-.28,.11-.41,.18-.13,.07-.23,.17-.31,.28s-.12,.26-.12,.43c0,.15,.04,.29,.11,.42,.08,.13,.19,.24,.35,.33,.16,.08,.37,.12,.62,.12Z"/><path class="b" d="M356.36,72.92v-.92h.89v.92h-.89Zm0,6.36v-5.4h.89v5.4h-.89Z"/><path class="b" d="M358.75,79.28v-5.4h.8v1.45h.1v3.96h-.9Zm3.85,0v-2.71c0-.26-.02-.5-.07-.74-.04-.24-.12-.45-.24-.64-.11-.19-.26-.34-.45-.45-.19-.11-.43-.17-.71-.17-.22,0-.43,.04-.61,.11-.18,.07-.34,.19-.47,.34s-.23,.35-.3,.58c-.07,.23-.11,.5-.11,.82l-.58-.18c0-.52,.09-.97,.28-1.35,.19-.38,.45-.66,.79-.87,.34-.2,.74-.3,1.21-.3,.35,0,.65,.05,.9,.17,.25,.11,.45,.26,.61,.44,.16,.18,.29,.38,.39,.61,.09,.22,.16,.45,.2,.68s.06,.45,.06,.66v2.99h-.9Z"/><path class="b" d="M315.9,91.43c-.4,0-.74-.07-1.01-.22s-.48-.34-.62-.59-.21-.51-.21-.8,.05-.53,.16-.74c.11-.21,.26-.38,.46-.52,.2-.14,.43-.25,.71-.33,.26-.07,.54-.13,.86-.18s.64-.1,.97-.14c.33-.04,.63-.08,.92-.12l-.32,.19c0-.48-.09-.83-.29-1.07-.2-.23-.55-.34-1.04-.34-.33,0-.61,.07-.86,.22-.25,.15-.42,.39-.52,.72l-.85-.25c.13-.47,.38-.84,.76-1.11,.37-.27,.86-.41,1.47-.41,.49,0,.91,.09,1.26,.26,.35,.17,.6,.44,.76,.79,.08,.17,.12,.35,.15,.54,.02,.19,.03,.4,.03,.61v3.34h-.79v-1.29l.18,.12c-.2,.44-.49,.77-.85,.99-.37,.22-.81,.33-1.33,.33Zm.13-.75c.32,0,.6-.06,.83-.17,.24-.12,.42-.27,.57-.46,.14-.19,.24-.39,.28-.62,.05-.17,.08-.35,.08-.56s0-.36,0-.47l.31,.13c-.29,.04-.58,.08-.86,.12-.28,.04-.54,.08-.79,.12-.25,.04-.47,.09-.67,.15-.15,.05-.28,.11-.41,.18-.13,.07-.23,.17-.31,.28s-.12,.26-.12,.43c0,.15,.04,.29,.11,.42,.08,.13,.19,.24,.35,.33,.16,.08,.37,.12,.62,.12Z"/><path class="b" d="M322.27,91.43c-.55,0-1.01-.12-1.39-.37-.38-.25-.67-.58-.87-1.01-.2-.43-.3-.92-.31-1.47,0-.56,.11-1.06,.32-1.49s.5-.76,.88-1c.38-.24,.85-.36,1.39-.36,.57,0,1.06,.14,1.47,.42,.41,.28,.69,.66,.83,1.15l-.88,.27c-.11-.31-.3-.56-.55-.73-.25-.17-.55-.26-.88-.26-.37,0-.67,.09-.92,.26-.24,.17-.42,.41-.53,.71-.12,.3-.18,.65-.18,1.04,0,.6,.15,1.08,.42,1.45,.27,.37,.68,.55,1.21,.55,.35,0,.65-.08,.88-.24,.23-.16,.41-.4,.53-.7l.9,.23c-.19,.5-.48,.89-.88,1.16s-.88,.4-1.44,.4Z"/><path class="b" d="M327.73,91.43c-.55,0-1.01-.12-1.39-.37-.38-.25-.67-.58-.87-1.01-.2-.43-.3-.92-.31-1.47,0-.56,.11-1.06,.32-1.49s.5-.76,.88-1c.38-.24,.85-.36,1.39-.36,.57,0,1.06,.14,1.47,.42,.41,.28,.69,.66,.83,1.15l-.88,.27c-.11-.31-.3-.56-.55-.73-.25-.17-.55-.26-.88-.26-.37,0-.67,.09-.92,.26-.24,.17-.42,.41-.53,.71-.12,.3-.18,.65-.18,1.04,0,.6,.15,1.08,.42,1.45,.27,.37,.68,.55,1.21,.55,.35,0,.65-.08,.88-.24,.23-.16,.41-.4,.53-.7l.9,.23c-.19,.5-.48,.89-.88,1.16s-.88,.4-1.44,.4Z"/><path class="b" d="M333.21,91.43c-.54,0-1-.12-1.39-.37-.39-.24-.69-.58-.9-1.01-.21-.43-.31-.92-.31-1.48s.11-1.06,.32-1.49c.21-.43,.52-.76,.91-1s.85-.36,1.38-.36,1,.12,1.39,.36c.39,.24,.69,.58,.9,1,.21,.43,.31,.92,.31,1.48s-.11,1.06-.32,1.49c-.21,.43-.51,.76-.9,1-.39,.24-.85,.36-1.39,.36Zm0-.85c.56,0,.98-.19,1.25-.56s.41-.86,.41-1.45-.14-1.1-.42-1.46c-.28-.36-.69-.54-1.25-.54-.38,0-.69,.08-.93,.25-.24,.17-.43,.41-.54,.71-.12,.3-.18,.65-.18,1.04,0,.61,.14,1.09,.42,1.46,.28,.37,.69,.55,1.24,.55Z"/><path class="b" d="M336.92,91.28v-5.4h.79v1.31l-.13-.17c.06-.17,.15-.32,.25-.46,.1-.14,.22-.26,.34-.35,.14-.11,.3-.2,.47-.26,.18-.06,.36-.1,.54-.11,.18-.01,.36,0,.52,.04v.83c-.19-.05-.39-.06-.62-.04-.22,.02-.43,.11-.62,.25-.17,.12-.31,.27-.4,.45s-.16,.37-.2,.57c-.04,.21-.06,.42-.06,.63v2.71h-.89Z"/><path class="b" d="M342.67,91.43c-.5,0-.94-.13-1.29-.38-.36-.25-.64-.59-.83-1.02s-.29-.92-.29-1.46,.1-1.03,.29-1.46,.47-.77,.83-1.02c.36-.25,.79-.37,1.29-.37s.94,.12,1.28,.37c.35,.25,.61,.58,.79,1.01,.18,.43,.27,.92,.27,1.46s-.09,1.02-.27,1.45c-.18,.43-.44,.77-.79,1.03s-.77,.38-1.28,.38Zm.11-.82c.36,0,.66-.09,.9-.26s.41-.42,.52-.72c.11-.31,.17-.66,.17-1.05s-.06-.75-.17-1.06c-.11-.3-.28-.54-.51-.71-.23-.17-.52-.26-.88-.26s-.67,.09-.91,.27-.42,.42-.53,.73-.17,.65-.17,1.03,.06,.73,.17,1.04c.12,.31,.29,.55,.53,.73,.23,.18,.53,.27,.88,.27Zm1.58,.67v-3.97h-.1v-3.23h.89v7.2h-.79Z"/><path class="b" d="M346.66,84.92v-.92h.89v.92h-.89Zm0,6.36v-5.4h.89v5.4h-.89Z"/><path class="b" d="M349.04,91.28v-5.4h.8v1.45h.1v3.96h-.9Zm3.85,0v-2.71c0-.26-.02-.5-.07-.74-.04-.24-.12-.45-.24-.64-.11-.19-.26-.34-.45-.45-.19-.11-.43-.17-.71-.17-.22,0-.43,.04-.61,.11-.18,.07-.34,.19-.47,.34s-.23,.35-.3,.58c-.07,.23-.11,.5-.11,.82l-.58-.18c0-.52,.09-.97,.28-1.35,.19-.38,.45-.66,.79-.87,.34-.2,.74-.3,1.21-.3,.35,0,.65,.05,.9,.17,.25,.11,.45,.26,.61,.44,.16,.18,.29,.38,.39,.61,.09,.22,.16,.45,.2,.68s.06,.45,.06,.66v2.99h-.9Z"/><path class="b" d="M357.16,91.43c-.5,0-.94-.13-1.29-.38-.36-.25-.64-.59-.83-1.02s-.29-.92-.29-1.46,.1-1.03,.29-1.46,.47-.77,.83-1.02c.36-.25,.79-.37,1.29-.37s.94,.12,1.28,.37c.35,.25,.61,.58,.79,1.01,.18,.43,.27,.92,.27,1.46s-.09,1.02-.27,1.45c-.18,.43-.44,.77-.79,1.03s-.77,.38-1.28,.38Zm.11-.82c.36,0,.66-.09,.9-.26s.41-.42,.52-.72c.11-.31,.17-.66,.17-1.05s-.06-.75-.17-1.06c-.11-.3-.28-.54-.51-.71-.23-.17-.52-.26-.88-.26s-.67,.09-.91,.27-.42,.42-.53,.73-.17,.65-.17,1.03,.06,.73,.17,1.04c.12,.31,.29,.55,.53,.73,.23,.18,.53,.27,.88,.27Zm1.58,.67v-3.97h-.1v-3.23h.89v7.2h-.79Z"/><path class="b" d="M361.15,84.92v-.92h.89v.92h-.89Zm0,6.36v-5.4h.89v5.4h-.89Z"/><path class="b" d="M363.53,91.28v-5.4h.8v1.45h.1v3.96h-.9Zm3.85,0v-2.71c0-.26-.02-.5-.07-.74-.04-.24-.12-.45-.24-.64-.11-.19-.26-.34-.45-.45-.19-.11-.43-.17-.71-.17-.22,0-.43,.04-.61,.11-.18,.07-.34,.19-.47,.34s-.23,.35-.3,.58c-.07,.23-.11,.5-.11,.82l-.58-.18c0-.52,.09-.97,.28-1.35,.19-.38,.45-.66,.79-.87,.34-.2,.74-.3,1.21-.3,.35,0,.65,.05,.9,.17,.25,.11,.45,.26,.61,.44,.16,.18,.29,.38,.39,.61,.09,.22,.16,.45,.2,.68s.06,.45,.06,.66v2.99h-.9Z"/><path class="b" d="M371.7,91.43c-.5,0-.94-.13-1.29-.38-.36-.25-.64-.59-.83-1.02s-.29-.92-.29-1.46,.1-1.03,.29-1.46,.47-.77,.83-1.02c.36-.25,.79-.37,1.29-.37s.94,.12,1.28,.37c.35,.25,.61,.58,.79,1.01,.18,.43,.27,.92,.27,1.46s-.09,1.02-.27,1.45c-.18,.43-.44,.77-.79,1.03s-.77,.38-1.28,.38Zm.06,2.4c-.28,0-.56-.04-.83-.13-.27-.09-.52-.22-.74-.39s-.41-.4-.56-.66l.82-.43c.13,.26,.32,.46,.57,.58s.5,.18,.76,.18c.34,0,.63-.06,.86-.19s.39-.31,.5-.56c.11-.25,.16-.55,.16-.92v-1.48h.1v-3.95h.79v5.44c0,.15,0,.29-.01,.42,0,.14-.03,.27-.05,.41-.07,.38-.21,.7-.42,.95-.21,.25-.47,.43-.8,.55-.33,.12-.7,.18-1.13,.18Zm.04-3.21c.36,0,.66-.09,.9-.26s.41-.42,.52-.72c.11-.31,.17-.66,.17-1.05s-.06-.75-.17-1.06c-.11-.3-.28-.54-.51-.71-.23-.17-.52-.26-.88-.26s-.67,.09-.91,.27-.42,.42-.53,.73-.17,.65-.17,1.03,.06,.73,.17,1.04c.12,.31,.29,.55,.53,.73,.23,.18,.53,.27,.88,.27Z"/><path class="b" d="M313.77,98.61v-.74h3.62v.74h-3.62Zm3.62,4.67c-.32,.06-.64,.09-.95,.08s-.59-.07-.83-.19c-.24-.12-.43-.29-.55-.54-.11-.21-.16-.43-.17-.65,0-.22-.01-.47-.01-.74v-4.86h.89v4.82c0,.22,0,.41,0,.57,0,.16,.04,.29,.1,.4,.12,.21,.31,.34,.57,.38,.26,.04,.58,.03,.95-.03v.76Z"/><path class="b" d="M320.56,103.43c-.54,0-1-.12-1.39-.37-.39-.24-.69-.58-.9-1.01-.21-.43-.31-.92-.31-1.48s.11-1.06,.32-1.49c.21-.43,.52-.76,.91-1s.85-.36,1.38-.36,1,.12,1.39,.36c.39,.24,.69,.58,.9,1,.21,.43,.31,.92,.31,1.48s-.11,1.06-.32,1.49c-.21,.43-.51,.76-.9,1-.39,.24-.85,.36-1.39,.36Zm0-.85c.56,0,.98-.19,1.25-.56s.41-.86,.41-1.45-.14-1.1-.42-1.46c-.28-.36-.69-.54-1.25-.54-.38,0-.69,.08-.93,.25-.24,.17-.43,.41-.54,.71-.12,.3-.18,.65-.18,1.04,0,.61,.14,1.09,.42,1.46,.28,.37,.69,.55,1.24,.55Z"/><path class="b" d="M329.18,103.43c-.49,0-.94-.09-1.35-.26-.41-.17-.76-.42-1.05-.75s-.52-.72-.68-1.18c-.16-.46-.24-.98-.24-1.56,0-.77,.14-1.43,.41-1.99,.27-.56,.66-.99,1.16-1.3,.5-.3,1.08-.46,1.75-.46,.81,0,1.46,.19,1.95,.56,.49,.38,.83,.89,1.02,1.54l-.9,.19c-.15-.44-.4-.79-.74-1.05-.34-.26-.77-.39-1.29-.39-.54,0-.98,.12-1.34,.36-.35,.24-.62,.58-.8,1.02-.18,.44-.27,.94-.27,1.52,0,.57,.08,1.08,.26,1.51,.18,.43,.45,.77,.81,1.02s.81,.37,1.34,.37c.46,0,.85-.08,1.17-.26s.56-.44,.74-.78c.17-.34,.28-.75,.31-1.22h-1.53v-.74h2.47c0,.07,.02,.15,.02,.24,0,.09,0,.15,0,.19,0,.66-.12,1.24-.37,1.76s-.61,.93-1.08,1.22-1.07,.45-1.77,.45Z"/><path class="b" d="M333.4,103.28v-7.2h.89v3.17h3.79v-3.17h.89v7.2h-.89v-3.18h-3.79v3.18h-.89Z"/><path class="b" d="M343.33,103.43c-.72,0-1.33-.16-1.83-.48-.5-.32-.88-.76-1.14-1.32-.26-.56-.39-1.22-.39-1.96s.13-1.39,.39-1.96,.64-1,1.14-1.32,1.11-.47,1.83-.47,1.33,.16,1.83,.47,.88,.76,1.14,1.32,.39,1.21,.39,1.96-.13,1.39-.39,1.96c-.26,.56-.64,1-1.14,1.32-.5,.32-1.11,.48-1.83,.48Zm0-.85c.54,0,.98-.12,1.34-.36,.36-.25,.63-.59,.8-1.02,.18-.44,.27-.94,.27-1.51s-.09-1.08-.27-1.52c-.18-.43-.45-.77-.8-1.01-.36-.24-.81-.37-1.34-.37-.54,0-.98,.12-1.34,.36-.35,.24-.62,.58-.8,1.02-.18,.44-.27,.94-.27,1.52,0,.57,.08,1.08,.26,1.51,.18,.43,.45,.77,.81,1.02s.81,.37,1.34,.37Z"/><path class="b" d="M350.25,103.43c-.51,0-.97-.09-1.38-.26-.41-.17-.75-.42-1.01-.74-.26-.32-.44-.7-.52-1.14l.92-.14c.12,.45,.36,.81,.73,1.06,.37,.25,.8,.38,1.3,.38,.32,0,.62-.05,.88-.15s.47-.25,.62-.44c.15-.19,.23-.42,.23-.67,0-.16-.03-.3-.08-.41-.05-.12-.13-.21-.22-.3-.09-.08-.2-.15-.32-.21-.12-.06-.25-.1-.38-.14l-1.83-.54c-.2-.06-.39-.14-.58-.23-.19-.09-.35-.21-.5-.35-.15-.14-.26-.3-.35-.5-.09-.19-.13-.43-.13-.69,0-.43,.11-.79,.33-1.09,.22-.3,.52-.53,.9-.69,.38-.16,.81-.24,1.29-.23,.48,0,.92,.09,1.3,.26,.38,.17,.7,.41,.95,.72s.42,.69,.51,1.12l-.95,.17c-.05-.29-.16-.55-.33-.76-.17-.21-.39-.38-.64-.49-.26-.12-.54-.17-.85-.18-.29,0-.56,.04-.79,.14-.24,.1-.42,.23-.56,.4-.14,.17-.21,.37-.21,.59s.06,.4,.19,.53c.13,.13,.28,.24,.47,.32s.37,.14,.54,.19l1.37,.4c.16,.04,.34,.1,.54,.18,.21,.08,.4,.18,.6,.32,.19,.14,.35,.32,.48,.55,.13,.23,.19,.52,.19,.86s-.07,.65-.21,.92c-.14,.27-.33,.5-.58,.68s-.53,.32-.86,.42c-.33,.09-.68,.14-1.05,.14Z"/><path class="b" d="M355.85,103.28v-6.36h-2.46v-.84h5.8v.84h-2.46v6.36h-.89Z"/></g><g><path class="b" d="M334.6,228.1l2.41-7.2h1.24l2.41,7.2h-.92l-2.25-6.68h.28l-2.24,6.68h-.92Zm1.16-1.68v-.83h3.74v.83h-3.74Z"/><path class="b" d="M340.96,223.43v-.74h3.62v.74h-3.62Zm3.62,4.67c-.32,.06-.64,.09-.95,.08s-.59-.07-.83-.19c-.24-.12-.43-.29-.55-.54-.11-.21-.16-.43-.17-.65,0-.22-.01-.47-.01-.74v-4.86h.89v4.82c0,.22,0,.41,0,.57,0,.16,.04,.29,.1,.4,.12,.21,.31,.34,.57,.38,.26,.04,.58,.03,.95-.03v.76Zm-.1-4.67v-.74h3.62v.74h-3.62Zm3.62,4.67c-.32,.06-.64,.09-.95,.08s-.59-.07-.83-.19-.43-.29-.56-.54c-.11-.21-.16-.43-.17-.65,0-.22-.01-.47-.01-.74v-4.86h.89v4.82c0,.22,0,.41,0,.57,0,.16,.04,.29,.1,.4,.12,.21,.31,.34,.57,.38,.26,.04,.58,.03,.95-.03v.76Z"/><path class="b" d="M350.72,228.25c-.4,0-.74-.07-1.01-.22s-.48-.34-.62-.59-.21-.51-.21-.8,.05-.53,.16-.74c.11-.21,.26-.38,.46-.52,.2-.14,.43-.25,.71-.33,.26-.07,.54-.13,.86-.18s.64-.1,.97-.14c.33-.04,.63-.08,.92-.12l-.32,.19c0-.48-.09-.83-.29-1.07-.2-.23-.55-.34-1.04-.34-.33,0-.61,.07-.86,.22-.25,.15-.42,.39-.52,.72l-.85-.25c.13-.47,.38-.84,.76-1.11,.37-.27,.86-.41,1.47-.41,.49,0,.91,.09,1.26,.26,.35,.17,.6,.44,.76,.79,.08,.17,.12,.35,.15,.54,.02,.19,.03,.4,.03,.61v3.34h-.79v-1.29l.18,.12c-.2,.44-.49,.77-.85,.99-.37,.22-.81,.33-1.33,.33Zm.13-.75c.32,0,.6-.06,.83-.17,.24-.12,.42-.27,.57-.46,.14-.19,.24-.39,.28-.62,.05-.17,.08-.35,.08-.56s0-.36,0-.47l.31,.13c-.29,.04-.58,.08-.86,.12-.28,.04-.54,.08-.79,.12-.25,.04-.47,.09-.67,.15-.15,.05-.28,.11-.41,.18-.13,.07-.23,.17-.31,.28s-.12,.26-.12,.43c0,.15,.04,.29,.11,.42,.08,.13,.19,.24,.35,.33,.16,.08,.37,.12,.62,.12Z"/><path class="b" d="M357.09,228.25c-.55,0-1.01-.12-1.39-.37-.38-.25-.67-.58-.87-1.01-.2-.43-.3-.92-.31-1.47,0-.56,.11-1.06,.32-1.49s.5-.76,.88-1c.38-.24,.85-.36,1.39-.36,.57,0,1.06,.14,1.47,.42,.41,.28,.69,.66,.83,1.15l-.88,.27c-.11-.31-.3-.56-.55-.73-.25-.17-.55-.26-.88-.26-.37,0-.67,.09-.92,.26-.24,.17-.42,.41-.53,.71-.12,.3-.18,.65-.18,1.04,0,.6,.15,1.08,.42,1.45,.27,.37,.68,.55,1.21,.55,.35,0,.65-.08,.88-.24,.23-.16,.41-.4,.53-.7l.9,.23c-.19,.5-.48,.89-.88,1.16s-.88,.4-1.44,.4Z"/><path class="b" d="M360.42,228.1v-7.2h.9v4.4l2.27-2.6h1.15l-2.38,2.7,2.67,2.7h-1.25l-2.46-2.6v2.6h-.9Z"/><path class="b" d="M367.76,228.25c-.53,0-.99-.12-1.39-.35-.39-.24-.7-.56-.92-.99-.22-.42-.33-.91-.33-1.48s.11-1.1,.32-1.53,.52-.77,.91-1c.39-.24,.84-.35,1.37-.35s1.01,.12,1.39,.38,.67,.61,.86,1.07c.19,.46,.27,1.02,.25,1.66h-.9v-.32c0-.66-.14-1.16-.4-1.49-.26-.33-.65-.49-1.16-.49-.55,0-.97,.18-1.25,.53-.29,.35-.43,.86-.43,1.52s.14,1.13,.43,1.48c.29,.35,.69,.52,1.22,.52,.36,0,.67-.08,.93-.25,.26-.16,.47-.4,.62-.7l.86,.29c-.21,.48-.53,.85-.95,1.11-.42,.26-.89,.39-1.42,.39Zm-2-2.6v-.71h3.99v.71h-3.99Z"/><path class="b" d="M371.33,228.1v-5.4h.79v1.31l-.13-.17c.06-.17,.15-.32,.25-.46,.1-.14,.22-.26,.34-.35,.14-.11,.3-.2,.47-.26,.18-.06,.36-.1,.54-.11,.18-.01,.36,0,.52,.04v.83c-.19-.05-.39-.06-.62-.04-.22,.02-.43,.11-.62,.25-.17,.12-.31,.27-.4,.45s-.16,.37-.2,.57c-.04,.21-.06,.42-.06,.63v2.71h-.89Z"/><path class="b" d="M376.9,228.24c-.64,0-1.17-.14-1.58-.42-.41-.28-.66-.68-.76-1.18l.91-.15c.07,.29,.24,.53,.51,.7,.26,.17,.59,.26,.98,.26s.66-.08,.87-.23,.32-.36,.32-.62c0-.15-.04-.28-.11-.37-.07-.09-.21-.18-.43-.27-.22-.08-.55-.18-.99-.3-.48-.13-.85-.26-1.12-.39s-.47-.29-.58-.48c-.12-.18-.17-.4-.17-.65,0-.32,.09-.59,.26-.83,.17-.24,.42-.42,.73-.55,.31-.13,.67-.19,1.09-.19s.78,.06,1.1,.19c.32,.13,.58,.31,.78,.55s.32,.52,.35,.83l-.91,.17c-.04-.29-.18-.52-.42-.69-.24-.17-.54-.25-.91-.26-.35-.01-.63,.05-.85,.18-.22,.14-.33,.32-.33,.56,0,.13,.04,.24,.12,.33,.08,.09,.23,.18,.46,.26,.22,.08,.54,.18,.97,.29,.48,.12,.85,.25,1.13,.39,.27,.14,.47,.31,.59,.5,.12,.19,.18,.43,.18,.71,0,.52-.19,.93-.58,1.23-.38,.3-.91,.45-1.58,.45Z"/><path class="b" d="M384.21,228.24c-.64,0-1.17-.14-1.58-.42-.41-.28-.66-.68-.76-1.18l.91-.15c.07,.29,.24,.53,.51,.7,.26,.17,.59,.26,.98,.26s.66-.08,.87-.23,.32-.36,.32-.62c0-.15-.04-.28-.11-.37-.07-.09-.21-.18-.43-.27-.22-.08-.55-.18-.99-.3-.48-.13-.85-.26-1.12-.39s-.47-.29-.58-.48c-.12-.18-.17-.4-.17-.65,0-.32,.09-.59,.26-.83,.17-.24,.42-.42,.73-.55,.31-.13,.67-.19,1.09-.19s.78,.06,1.1,.19c.32,.13,.58,.31,.78,.55s.32,.52,.35,.83l-.91,.17c-.04-.29-.18-.52-.42-.69-.24-.17-.54-.25-.91-.26-.35-.01-.63,.05-.85,.18-.22,.14-.33,.32-.33,.56,0,.13,.04,.24,.12,.33,.08,.09,.23,.18,.46,.26,.22,.08,.54,.18,.97,.29,.48,.12,.85,.25,1.13,.39,.27,.14,.47,.31,.59,.5,.12,.19,.18,.43,.18,.71,0,.52-.19,.93-.58,1.23-.38,.3-.91,.45-1.58,.45Z"/><path class="b" d="M389.81,228.25c-.53,0-.99-.12-1.39-.35-.39-.24-.7-.56-.92-.99-.22-.42-.33-.91-.33-1.48s.11-1.1,.32-1.53,.52-.77,.91-1c.39-.24,.84-.35,1.37-.35s1.01,.12,1.39,.38,.67,.61,.86,1.07c.19,.46,.27,1.02,.25,1.66h-.9v-.32c0-.66-.14-1.16-.4-1.49-.26-.33-.65-.49-1.16-.49-.55,0-.97,.18-1.25,.53-.29,.35-.43,.86-.43,1.52s.14,1.13,.43,1.48c.29,.35,.69,.52,1.22,.52,.36,0,.67-.08,.93-.25,.26-.16,.47-.4,.62-.7l.86,.29c-.21,.48-.53,.85-.95,1.11-.42,.26-.89,.39-1.42,.39Zm-2-2.6v-.71h3.99v.71h-3.99Z"/><path class="b" d="M395.65,228.25c-.55,0-1.01-.12-1.39-.37-.38-.25-.67-.58-.87-1.01-.2-.43-.3-.92-.31-1.47,0-.56,.11-1.06,.32-1.49s.5-.76,.88-1c.38-.24,.85-.36,1.39-.36,.57,0,1.06,.14,1.47,.42,.41,.28,.69,.66,.83,1.15l-.88,.27c-.11-.31-.3-.56-.55-.73-.25-.17-.55-.26-.88-.26-.37,0-.67,.09-.92,.26-.24,.17-.42,.41-.53,.71-.12,.3-.18,.65-.18,1.04,0,.6,.15,1.08,.42,1.45,.27,.37,.68,.55,1.21,.55,.35,0,.65-.08,.88-.24,.23-.16,.41-.4,.53-.7l.9,.23c-.19,.5-.48,.89-.88,1.16s-.88,.4-1.44,.4Z"/><path class="b" d="M398.99,228.1v-5.4h.79v1.31l-.13-.17c.06-.17,.15-.32,.25-.46,.1-.14,.22-.26,.34-.35,.14-.11,.3-.2,.47-.26,.18-.06,.36-.1,.54-.11,.18-.01,.36,0,.52,.04v.83c-.19-.05-.39-.06-.62-.04-.22,.02-.43,.11-.62,.25-.17,.12-.31,.27-.4,.45s-.16,.37-.2,.57c-.04,.21-.06,.42-.06,.63v2.71h-.89Z"/><path class="b" d="M404.97,228.25c-.53,0-.99-.12-1.39-.35-.39-.24-.7-.56-.92-.99-.22-.42-.33-.91-.33-1.48s.11-1.1,.32-1.53,.52-.77,.91-1c.39-.24,.84-.35,1.37-.35s1.01,.12,1.39,.38,.67,.61,.86,1.07c.19,.46,.27,1.02,.25,1.66h-.9v-.32c0-.66-.14-1.16-.4-1.49-.26-.33-.65-.49-1.16-.49-.55,0-.97,.18-1.25,.53-.29,.35-.43,.86-.43,1.52s.14,1.13,.43,1.48c.29,.35,.69,.52,1.22,.52,.36,0,.67-.08,.93-.25,.26-.16,.47-.4,.62-.7l.86,.29c-.21,.48-.53,.85-.95,1.11-.42,.26-.89,.39-1.42,.39Zm-2-2.6v-.71h3.99v.71h-3.99Z"/><path class="b" d="M407.93,223.43v-.74h3.62v.74h-3.62Zm3.62,4.67c-.32,.06-.64,.09-.95,.08s-.59-.07-.83-.19c-.24-.12-.43-.29-.55-.54-.11-.21-.16-.43-.17-.65,0-.22-.01-.47-.01-.74v-4.86h.89v4.82c0,.22,0,.41,0,.57,0,.16,.04,.29,.1,.4,.12,.21,.31,.34,.57,.38,.26,.04,.58,.03,.95-.03v.76Z"/><path class="b" d="M416.92,228.25c-.55,0-1.01-.12-1.39-.37-.38-.25-.67-.58-.87-1.01-.2-.43-.3-.92-.31-1.47,0-.56,.11-1.06,.32-1.49s.5-.76,.88-1c.38-.24,.85-.36,1.39-.36,.57,0,1.06,.14,1.47,.42,.41,.28,.69,.66,.83,1.15l-.88,.27c-.11-.31-.3-.56-.55-.73-.25-.17-.55-.26-.88-.26-.37,0-.67,.09-.92,.26-.24,.17-.42,.41-.53,.71-.12,.3-.18,.65-.18,1.04,0,.6,.15,1.08,.42,1.45,.27,.37,.68,.55,1.21,.55,.35,0,.65-.08,.88-.24,.23-.16,.41-.4,.53-.7l.9,.23c-.19,.5-.48,.89-.88,1.16s-.88,.4-1.44,.4Z"/><path class="b" d="M420.25,228.1v-7.2h.8v3.98h.1v3.22h-.9Zm3.85,0v-2.71c0-.26-.02-.5-.07-.74-.04-.24-.12-.45-.24-.64-.11-.19-.26-.34-.45-.45-.19-.11-.43-.17-.71-.17-.22,0-.43,.04-.61,.11-.18,.07-.34,.19-.47,.34s-.23,.35-.3,.58c-.07,.23-.11,.5-.11,.82l-.58-.18c0-.52,.09-.97,.28-1.35,.19-.38,.45-.66,.79-.87,.34-.2,.74-.3,1.21-.3,.35,0,.65,.05,.9,.17,.25,.11,.45,.26,.61,.44,.16,.18,.29,.38,.39,.61,.09,.22,.16,.45,.2,.68s.06,.45,.06,.66v2.99h-.9Z"/><path class="b" d="M427.84,228.25c-.4,0-.74-.07-1.01-.22s-.48-.34-.62-.59-.21-.51-.21-.8,.05-.53,.16-.74c.11-.21,.26-.38,.46-.52,.2-.14,.43-.25,.71-.33,.26-.07,.54-.13,.86-.18s.64-.1,.97-.14c.33-.04,.63-.08,.92-.12l-.32,.19c0-.48-.09-.83-.29-1.07-.2-.23-.55-.34-1.04-.34-.33,0-.61,.07-.86,.22-.25,.15-.42,.39-.52,.72l-.85-.25c.13-.47,.38-.84,.76-1.11,.37-.27,.86-.41,1.47-.41,.49,0,.91,.09,1.26,.26,.35,.17,.6,.44,.76,.79,.08,.17,.12,.35,.15,.54,.02,.19,.03,.4,.03,.61v3.34h-.79v-1.29l.18,.12c-.2,.44-.49,.77-.85,.99-.37,.22-.81,.33-1.33,.33Zm.13-.75c.32,0,.6-.06,.83-.17,.24-.12,.42-.27,.57-.46,.14-.19,.24-.39,.28-.62,.05-.17,.08-.35,.08-.56s0-.36,0-.47l.31,.13c-.29,.04-.58,.08-.86,.12-.28,.04-.54,.08-.79,.12-.25,.04-.47,.09-.67,.15-.15,.05-.28,.11-.41,.18-.13,.07-.23,.17-.31,.28s-.12,.26-.12,.43c0,.15,.04,.29,.11,.42,.08,.13,.19,.24,.35,.33,.16,.08,.37,.12,.62,.12Z"/><path class="b" d="M432.03,221.74v-.92h.89v.92h-.89Zm0,6.36v-5.4h.89v5.4h-.89Z"/><path class="b" d="M434.41,228.1v-5.4h.8v1.45h.1v3.96h-.9Zm3.85,0v-2.71c0-.26-.02-.5-.07-.74-.04-.24-.12-.45-.24-.64-.11-.19-.26-.34-.45-.45-.19-.11-.43-.17-.71-.17-.22,0-.43,.04-.61,.11-.18,.07-.34,.19-.47,.34s-.23,.35-.3,.58c-.07,.23-.11,.5-.11,.82l-.58-.18c0-.52,.09-.97,.28-1.35,.19-.38,.45-.66,.79-.87,.34-.2,.74-.3,1.21-.3,.35,0,.65,.05,.9,.17,.25,.11,.45,.26,.61,.44,.16,.18,.29,.38,.39,.61,.09,.22,.16,.45,.2,.68s.06,.45,.06,.66v2.99h-.9Z"/></g><g><polyline class="f" points="446.6 235.13 446.6 236.91 444.82 236.91"/><line class="g" x1="441.26" y1="236.91" x2="65.86" y2="236.91"/><polyline class="f" points="64.08 236.91 62.3 236.91 62.3 235.13"/><line class="d" x1="62.3" y1="231.38" x2="62.3" y2="180.75"/><polyline class="f" points="62.3 178.88 62.3 177.09 64.08 177.09"/><line class="g" x1="67.64" y1="177.09" x2="443.04" y2="177.09"/><polyline class="f" points="444.82 177.09 446.6 177.09 446.6 178.88"/><line class="d" x1="446.6" y1="182.63" x2="446.6" y2="233.26"/></g><g><g><path class="b" d="M215.02,204.71c-.56,0-1.09-.11-1.6-.33-.5-.22-.93-.53-1.3-.93-.37-.4-.63-.88-.79-1.42l1.82-.49c.13,.45,.37,.79,.72,1.04,.35,.24,.73,.36,1.15,.36,.37,0,.7-.09,.99-.26,.29-.17,.52-.41,.69-.7,.17-.29,.25-.62,.25-.99,0-.56-.18-1.02-.54-1.4-.36-.38-.82-.56-1.39-.56-.17,0-.34,.02-.5,.07s-.32,.11-.47,.2l-.86-1.49,3.78-3.24,.17,.45h-5.36v-1.78h6.9v1.78l-3.04,2.92-.02-.55c.68,.05,1.27,.24,1.75,.57,.48,.33,.85,.76,1.11,1.29,.26,.53,.39,1.1,.39,1.73,0,.71-.17,1.34-.52,1.91-.35,.56-.81,1.01-1.39,1.33-.58,.33-1.22,.49-1.93,.49Z"/><path class="b" d="M220.11,204.5l3.55-11.26h2.76l3.55,11.26h-1.94l-3.22-10.1h.42l-3.18,10.1h-1.94Zm1.98-2.44v-1.76h5.91v1.76h-5.91Z"/></g><rect class="e" x="205.7" y="183.97" width="29.87" height="29.87" rx="4.63" ry="4.63"/></g><g><g><path class="b" d="M215.32,160.79c-.56,0-1.09-.11-1.6-.33-.5-.22-.93-.53-1.3-.93-.37-.4-.63-.88-.79-1.42l1.82-.49c.13,.45,.37,.79,.72,1.04,.35,.24,.73,.36,1.15,.36,.37,0,.7-.09,.99-.26,.29-.17,.52-.41,.69-.7,.17-.29,.25-.62,.25-.99,0-.56-.18-1.02-.54-1.4-.36-.38-.82-.56-1.39-.56-.17,0-.34,.02-.5,.07s-.32,.11-.47,.2l-.86-1.49,3.78-3.24,.17,.45h-5.36v-1.78h6.9v1.78l-3.04,2.92-.02-.55c.68,.05,1.27,.24,1.75,.57,.48,.33,.85,.76,1.11,1.29,.26,.53,.39,1.1,.39,1.73,0,.71-.17,1.34-.52,1.91-.35,.56-.81,1.01-1.39,1.33-.58,.33-1.22,.49-1.93,.49Z"/><path class="b" d="M221.2,160.57v-11.26h4.46c.76,0,1.38,.15,1.87,.46,.49,.3,.85,.69,1.09,1.17,.24,.47,.36,.96,.36,1.47,0,.62-.15,1.15-.44,1.58-.29,.43-.69,.72-1.2,.88v-.39c.71,.16,1.25,.5,1.62,1.01,.37,.51,.55,1.09,.55,1.74s-.13,1.25-.38,1.75c-.26,.5-.63,.89-1.14,1.17-.5,.28-1.12,.42-1.87,.42h-4.92Zm1.91-6.76h2.53c.27,0,.51-.05,.73-.16,.21-.1,.38-.26,.51-.46,.12-.2,.19-.45,.19-.75,0-.39-.12-.72-.38-.98s-.6-.39-1.05-.39h-2.53v2.74Zm0,4.99h2.78c.33,0,.62-.07,.88-.2s.46-.32,.61-.56,.22-.53,.22-.86c0-.3-.07-.57-.2-.81-.13-.24-.32-.43-.57-.57s-.55-.21-.9-.21h-2.83v3.23Z"/></g><rect class="e" x="205.7" y="140.04" width="29.87" height="29.87" rx="4.63" ry="4.63"/></g><g><g><path class="b" d="M214.48,127.16c-.56,0-1.09-.11-1.6-.33-.5-.22-.93-.53-1.3-.93-.37-.4-.63-.88-.79-1.42l1.82-.49c.13,.45,.37,.79,.72,1.04,.35,.24,.73,.36,1.15,.36,.37,0,.7-.09,.99-.26,.29-.17,.52-.41,.69-.7,.17-.29,.25-.62,.25-.99,0-.56-.18-1.02-.54-1.4-.36-.38-.82-.56-1.39-.56-.17,0-.34,.02-.5,.07s-.32,.11-.47,.2l-.86-1.49,3.78-3.24,.17,.45h-5.36v-1.78h6.9v1.78l-3.04,2.92-.02-.55c.68,.05,1.27,.24,1.75,.57,.48,.33,.85,.76,1.11,1.29,.26,.53,.39,1.1,.39,1.73,0,.71-.17,1.34-.52,1.91-.35,.56-.81,1.01-1.39,1.33-.58,.33-1.22,.49-1.93,.49Z"/><path class="b" d="M225.12,127.18c-1.13,0-2.09-.25-2.89-.74-.8-.49-1.42-1.18-1.85-2.06s-.65-1.9-.65-3.07,.22-2.18,.65-3.07c.43-.88,1.05-1.57,1.85-2.06,.8-.49,1.77-.74,2.89-.74,1.3,0,2.38,.32,3.25,.97,.87,.65,1.47,1.52,1.82,2.62l-1.9,.52c-.22-.74-.59-1.31-1.12-1.72s-1.21-.62-2.05-.62c-.76,0-1.38,.17-1.89,.51-.5,.34-.88,.81-1.13,1.43-.25,.61-.38,1.33-.39,2.15,0,.82,.13,1.54,.38,2.15s.63,1.09,1.14,1.43c.51,.34,1.14,.51,1.89,.51,.84,0,1.52-.21,2.05-.63s.9-.99,1.12-1.72l1.9,.52c-.35,1.1-.96,1.97-1.82,2.62-.87,.65-1.95,.97-3.25,.97Z"/></g><rect class="e" x="205.7" y="106.42" width="29.87" height="29.87" rx="4.63" ry="4.63"/></g><g><g><path class="b" d="M214.78,93.54c-.56,0-1.09-.11-1.6-.33-.5-.22-.93-.53-1.3-.93-.37-.4-.63-.88-.79-1.42l1.82-.49c.13,.45,.37,.79,.72,1.04,.35,.24,.73,.36,1.15,.36,.37,0,.7-.09,.99-.26,.29-.17,.52-.41,.69-.7,.17-.29,.25-.62,.25-.99,0-.56-.18-1.02-.54-1.4-.36-.38-.82-.56-1.39-.56-.17,0-.34,.02-.5,.07s-.32,.11-.47,.2l-.86-1.49,3.78-3.24,.17,.45h-5.36v-1.78h6.9v1.78l-3.04,2.92-.02-.55c.68,.05,1.27,.24,1.75,.57,.48,.33,.85,.76,1.11,1.29,.26,.53,.39,1.1,.39,1.73,0,.71-.17,1.34-.52,1.91-.35,.56-.81,1.01-1.39,1.33-.58,.33-1.22,.49-1.93,.49Z"/><path class="b" d="M220.65,93.33v-11.26h3.59c.09,0,.28,0,.56,0,.28,0,.55,.02,.81,.05,.89,.12,1.65,.43,2.26,.95,.62,.52,1.09,1.18,1.4,1.98,.32,.8,.48,1.68,.48,2.63s-.16,1.83-.48,2.63c-.32,.8-.79,1.46-1.4,1.98-.62,.52-1.37,.84-2.26,.95-.25,.03-.52,.05-.8,.05-.28,0-.47,0-.56,0h-3.59Zm1.92-1.78h1.67c.16,0,.36,0,.6-.02,.24,0,.46-.03,.64-.07,.53-.1,.96-.34,1.3-.71,.33-.38,.58-.83,.74-1.37,.16-.54,.24-1.1,.24-1.69s-.08-1.18-.24-1.72c-.16-.54-.41-.99-.75-1.35-.34-.36-.76-.6-1.29-.7-.19-.04-.4-.07-.64-.07-.24,0-.44-.01-.6-.01h-1.67v7.71Z"/></g><rect class="e" x="205.7" y="72.79" width="29.87" height="29.87" rx="4.63" ry="4.63"/></g><g><g><path class="b" d="M215.68,59.91c-.56,0-1.09-.11-1.6-.33-.5-.22-.93-.53-1.3-.93-.37-.4-.63-.88-.79-1.42l1.82-.49c.13,.45,.37,.79,.72,1.04,.35,.24,.73,.36,1.15,.36,.37,0,.7-.09,.99-.26,.29-.17,.52-.41,.69-.7,.17-.29,.25-.62,.25-.99,0-.56-.18-1.02-.54-1.4-.36-.38-.82-.56-1.39-.56-.17,0-.34,.02-.5,.07s-.32,.11-.47,.2l-.86-1.49,3.78-3.24,.17,.45h-5.36v-1.78h6.9v1.78l-3.04,2.92-.02-.55c.68,.05,1.27,.24,1.75,.57,.48,.33,.85,.76,1.11,1.29,.26,.53,.39,1.1,.39,1.73,0,.71-.17,1.34-.52,1.91-.35,.56-.81,1.01-1.39,1.33-.58,.33-1.22,.49-1.93,.49Z"/><path class="b" d="M221.56,59.7v-11.26h7.27v1.77h-5.39v2.78h4.45v1.77h-4.45v3.18h5.39v1.77h-7.27Z"/></g><rect class="e" x="205.7" y="39.17" width="29.87" height="29.87" rx="4.63" ry="4.63"/></g><g><g><path class="b" d="M216.17,26.29c-.56,0-1.09-.11-1.6-.33-.5-.22-.93-.53-1.3-.93-.37-.4-.63-.88-.79-1.42l1.82-.49c.13,.45,.37,.79,.72,1.04,.35,.24,.73,.36,1.15,.36,.37,0,.7-.09,.99-.26,.29-.17,.52-.41,.69-.7,.17-.29,.25-.62,.25-.99,0-.56-.18-1.02-.54-1.4-.36-.38-.82-.56-1.39-.56-.17,0-.34,.02-.5,.07s-.32,.11-.47,.2l-.86-1.49,3.78-3.24,.17,.45h-5.36v-1.78h6.9v1.78l-3.04,2.92-.02-.55c.68,.05,1.27,.24,1.75,.57,.48,.33,.85,.76,1.11,1.29,.26,.53,.39,1.1,.39,1.73,0,.71-.17,1.34-.52,1.91-.35,.56-.81,1.01-1.39,1.33-.58,.33-1.22,.49-1.93,.49Z"/><path class="b" d="M222.04,26.08V14.82h6.78v1.88h-4.89v2.81h3.96v1.88h-3.96v4.69h-1.88Z"/></g><rect class="e" x="205.7" y="5.54" width="29.87" height="29.87" rx="4.63" ry="4.63"/></g><g><g><path class="b" d="M143.9,204.48v-1.64l4.82-4.29c.38-.33,.64-.65,.78-.95,.15-.3,.22-.58,.22-.86,0-.38-.08-.71-.24-1-.16-.29-.38-.53-.67-.7s-.61-.26-.98-.26c-.39,0-.74,.09-1.04,.27s-.53,.42-.7,.71c-.17,.3-.25,.62-.24,.96h-1.94c0-.75,.17-1.4,.5-1.96,.34-.56,.8-.99,1.39-1.3s1.28-.46,2.05-.46c.72,0,1.37,.16,1.94,.48,.57,.32,1.02,.76,1.35,1.33,.33,.57,.49,1.22,.49,1.95,0,.54-.07,.99-.22,1.35-.15,.37-.36,.7-.65,1.01-.29,.31-.65,.65-1.08,1.02l-3.42,3.03-.17-.47h5.54v1.78h-7.75Z"/><path class="b" d="M152.43,204.5l3.55-11.26h2.76l3.55,11.26h-1.94l-3.22-10.1h.42l-3.18,10.1h-1.94Zm1.98-2.44v-1.76h5.91v1.76h-5.91Z"/></g><rect class="e" x="138.08" y="183.97" width="29.87" height="29.87" rx="4.63" ry="4.63"/></g><g><g><path class="b" d="M144.05,160.56v-1.64l4.82-4.29c.38-.33,.64-.65,.78-.95,.15-.3,.22-.58,.22-.86,0-.38-.08-.71-.24-1-.16-.29-.38-.53-.67-.7s-.61-.26-.98-.26c-.39,0-.74,.09-1.04,.27s-.53,.42-.7,.71c-.17,.3-.25,.62-.24,.96h-1.94c0-.75,.17-1.4,.5-1.96,.34-.56,.8-.99,1.39-1.3s1.28-.46,2.05-.46c.72,0,1.37,.16,1.94,.48,.57,.32,1.02,.76,1.35,1.33,.33,.57,.49,1.22,.49,1.95,0,.54-.07,.99-.22,1.35-.15,.37-.36,.7-.65,1.01-.29,.31-.65,.65-1.08,1.02l-3.42,3.03-.17-.47h5.54v1.78h-7.75Z"/><path class="b" d="M153.68,160.57v-11.26h4.46c.76,0,1.38,.15,1.87,.46,.49,.3,.85,.69,1.09,1.17,.24,.47,.36,.96,.36,1.47,0,.62-.15,1.15-.44,1.58-.29,.43-.69,.72-1.2,.88v-.39c.71,.16,1.25,.5,1.62,1.01,.37,.51,.55,1.09,.55,1.74s-.13,1.25-.38,1.75c-.26,.5-.63,.89-1.14,1.17-.5,.28-1.12,.42-1.87,.42h-4.92Zm1.91-6.76h2.53c.27,0,.51-.05,.73-.16,.21-.1,.38-.26,.51-.46,.12-.2,.19-.45,.19-.75,0-.39-.12-.72-.38-.98s-.6-.39-1.05-.39h-2.53v2.74Zm0,4.99h2.78c.33,0,.62-.07,.88-.2s.46-.32,.61-.56,.22-.53,.22-.86c0-.3-.07-.57-.2-.81-.13-.24-.32-.43-.57-.57s-.55-.21-.9-.21h-2.83v3.23Z"/></g><rect class="e" x="138.08" y="140.04" width="29.87" height="29.87" rx="4.63" ry="4.63"/></g><g><g><path class="b" d="M143.21,93.31v-1.64l4.82-4.29c.38-.33,.64-.65,.78-.95,.15-.3,.22-.58,.22-.86,0-.38-.08-.71-.24-1-.16-.29-.38-.53-.67-.7s-.61-.26-.98-.26c-.39,0-.74,.09-1.04,.27s-.53,.42-.7,.71c-.17,.3-.25,.62-.24,.96h-1.94c0-.75,.17-1.4,.5-1.96,.34-.56,.8-.99,1.39-1.3s1.28-.46,2.05-.46c.72,0,1.37,.16,1.94,.48,.57,.32,1.02,.76,1.35,1.33,.33,.57,.49,1.22,.49,1.95,0,.54-.07,.99-.22,1.35-.15,.37-.36,.7-.65,1.01-.29,.31-.65,.65-1.08,1.02l-3.42,3.03-.17-.47h5.54v1.78h-7.75Z"/><path class="b" d="M157.6,93.56c-1.13,0-2.09-.25-2.89-.74-.8-.49-1.42-1.18-1.85-2.06s-.65-1.9-.65-3.07,.22-2.18,.65-3.07c.43-.88,1.05-1.57,1.85-2.06,.8-.49,1.77-.74,2.89-.74,1.3,0,2.38,.32,3.25,.97,.87,.65,1.47,1.52,1.82,2.62l-1.9,.52c-.22-.74-.59-1.31-1.12-1.72s-1.21-.62-2.05-.62c-.76,0-1.38,.17-1.89,.51-.5,.34-.88,.81-1.13,1.43-.25,.61-.38,1.33-.39,2.15,0,.82,.13,1.54,.38,2.15s.63,1.09,1.14,1.43c.51,.34,1.14,.51,1.89,.51,.84,0,1.52-.21,2.05-.63s.9-.99,1.12-1.72l1.9,.52c-.35,1.1-.96,1.97-1.82,2.62-.87,.65-1.95,.97-3.25,.97Z"/></g><rect class="e" x="138.08" y="72.79" width="29.87" height="29.87" rx="4.63" ry="4.63"/></g><g><g><path class="b" d="M143.51,26.06v-1.64l4.82-4.29c.38-.33,.64-.65,.78-.95,.15-.3,.22-.58,.22-.86,0-.38-.08-.71-.24-1-.16-.29-.38-.53-.67-.7s-.61-.26-.98-.26c-.39,0-.74,.09-1.04,.27s-.53,.42-.7,.71c-.17,.3-.25,.62-.24,.96h-1.94c0-.75,.17-1.4,.5-1.96,.34-.56,.8-.99,1.39-1.3s1.28-.46,2.05-.46c.72,0,1.37,.16,1.94,.48,.57,.32,1.02,.76,1.35,1.33,.33,.57,.49,1.22,.49,1.95,0,.54-.07,.99-.22,1.35-.15,.37-.36,.7-.65,1.01-.29,.31-.65,.65-1.08,1.02l-3.42,3.03-.17-.47h5.54v1.78h-7.75Z"/><path class="b" d="M153.14,26.08V14.82h3.59c.09,0,.28,0,.56,0,.28,0,.55,.02,.81,.05,.89,.12,1.65,.43,2.26,.95,.62,.52,1.09,1.18,1.4,1.98,.32,.8,.48,1.68,.48,2.63s-.16,1.83-.48,2.63c-.32,.8-.79,1.46-1.4,1.98-.62,.52-1.37,.84-2.26,.95-.25,.03-.52,.05-.8,.05-.28,0-.47,0-.56,0h-3.59Zm1.92-1.78h1.67c.16,0,.36,0,.6-.02,.24,0,.46-.03,.64-.07,.53-.1,.96-.34,1.3-.71,.33-.38,.58-.83,.74-1.37,.16-.54,.24-1.1,.24-1.69s-.08-1.18-.24-1.72c-.16-.54-.41-.99-.75-1.35-.34-.36-.76-.6-1.29-.7-.19-.04-.4-.07-.64-.07-.24,0-.44-.01-.6-.01h-1.67v7.71Z"/></g><rect class="e" x="138.08" y="5.54" width="29.87" height="29.87" rx="4.63" ry="4.63"/></g><g><g><path class="b" d="M79.62,204.5v-9.2l-2.11,1.29v-2.08l2.11-1.27h1.92v11.26h-1.92Z"/><path class="b" d="M83.73,204.5l3.55-11.26h2.76l3.55,11.26h-1.94l-3.22-10.1h.42l-3.18,10.1h-1.94Zm1.98-2.44v-1.76h5.91v1.76h-5.91Z"/></g><rect class="e" x="70.45" y="183.97" width="29.87" height="29.87" rx="4.63" ry="4.63"/></g><g><g><path class="b" d="M79.93,93.33v-9.2l-2.11,1.29v-2.08l2.11-1.27h1.92v11.26h-1.92Z"/><path class="b" d="M84.82,93.33v-11.26h4.46c.76,0,1.38,.15,1.87,.46,.49,.3,.85,.69,1.09,1.17,.24,.47,.36,.96,.36,1.47,0,.62-.15,1.15-.44,1.58-.29,.43-.69,.72-1.2,.88v-.39c.71,.16,1.25,.5,1.62,1.01,.37,.51,.55,1.09,.55,1.74s-.13,1.25-.38,1.75c-.26,.5-.63,.89-1.14,1.17-.5,.28-1.12,.42-1.87,.42h-4.92Zm1.91-6.76h2.53c.27,0,.51-.05,.73-.16,.21-.1,.38-.26,.51-.46,.12-.2,.19-.45,.19-.75,0-.39-.12-.72-.38-.98s-.6-.39-1.05-.39h-2.53v2.74Zm0,4.99h2.78c.33,0,.62-.07,.88-.2s.46-.32,.61-.56,.22-.53,.22-.86c0-.3-.07-.57-.2-.81-.13-.24-.32-.43-.57-.57s-.55-.21-.9-.21h-2.83v3.23Z"/></g><rect class="e" x="70.45" y="72.79" width="29.87" height="29.87" rx="4.63" ry="4.63"/></g><g><path class="b" d="M17.61,127.18c-.8,0-1.5-.17-2.11-.51-.61-.34-1.09-.82-1.43-1.43-.34-.61-.51-1.31-.51-2.11v-3.63c0-.8,.17-1.5,.51-2.11,.34-.61,.82-1.09,1.43-1.43,.61-.34,1.31-.51,2.11-.51s1.5,.17,2.11,.51c.61,.34,1.08,.82,1.43,1.43,.34,.61,.52,1.31,.52,2.11v3.63c0,.8-.17,1.5-.52,2.11-.34,.61-.82,1.08-1.43,1.43-.61,.34-1.31,.51-2.11,.51Zm0-1.79c.4,0,.76-.1,1.08-.29,.32-.19,.58-.45,.77-.77,.19-.32,.28-.68,.28-1.08v-3.9c0-.4-.09-.76-.28-1.08-.19-.32-.44-.58-.77-.77s-.68-.29-1.08-.29-.76,.09-1.08,.29c-.32,.19-.58,.45-.77,.77-.19,.32-.28,.68-.28,1.08v3.9c0,.4,.09,.75,.28,1.08,.19,.32,.44,.58,.77,.77,.32,.19,.68,.29,1.08,.29Z"/><rect class="e" x="2.82" y="106.42" width="29.87" height="29.87" rx="4.63" ry="4.63"/></g><g><g><path class="b" d="M350.66,26.31c-.57,0-1.11-.12-1.6-.36-.5-.24-.92-.56-1.28-.98-.36-.42-.61-.9-.77-1.45l1.81-.49c.07,.3,.21,.56,.4,.78,.2,.22,.42,.39,.69,.51,.26,.12,.54,.18,.82,.18,.36,0,.7-.09,1-.27,.3-.18,.54-.42,.72-.71,.18-.3,.27-.63,.27-1s-.09-.7-.27-1c-.18-.3-.42-.54-.72-.71-.3-.17-.63-.26-.99-.26-.43,0-.79,.08-1.08,.23-.28,.16-.5,.32-.65,.5l-1.61-.52,.34-5.96h6.12v1.77h-5.11l.7-.67-.25,4.14-.34-.42c.29-.27,.63-.46,1.02-.59s.76-.2,1.12-.2c.7,0,1.33,.16,1.87,.48s.97,.76,1.28,1.31c.31,.55,.46,1.18,.46,1.88s-.18,1.34-.55,1.91c-.37,.57-.85,1.03-1.44,1.36-.6,.34-1.25,.51-1.96,.51Z"/><path class="b" d="M356.49,26.08V14.82h4.46c.76,0,1.38,.15,1.87,.46,.49,.3,.85,.69,1.09,1.17,.24,.47,.36,.96,.36,1.47,0,.62-.15,1.15-.44,1.58-.29,.43-.69,.72-1.2,.88v-.39c.71,.16,1.25,.5,1.62,1.01,.37,.51,.55,1.09,.55,1.74s-.13,1.25-.38,1.75c-.26,.5-.63,.89-1.14,1.17-.5,.28-1.12,.42-1.87,.42h-4.92Zm1.91-6.76h2.53c.27,0,.51-.05,.73-.16,.21-.1,.38-.26,.51-.46,.12-.2,.19-.45,.19-.75,0-.39-.12-.72-.38-.98s-.6-.39-1.05-.39h-2.53v2.74Zm0,4.99h2.78c.33,0,.62-.07,.88-.2s.46-.32,.61-.56,.22-.53,.22-.86c0-.3-.07-.57-.2-.81-.13-.24-.32-.43-.57-.57s-.55-.21-.9-.21h-2.83v3.23Z"/></g><rect class="e" x="340.96" y="5.54" width="29.87" height="29.87" rx="4.63" ry="4.63"/></g><g><g><path class="b" d="M418.26,204.73c-.73,0-1.4-.17-1.98-.52-.59-.35-1.05-.83-1.4-1.44-.34-.61-.52-1.32-.52-2.12v-3.42c0-.86,.17-1.6,.51-2.23,.34-.63,.82-1.12,1.44-1.46,.62-.34,1.33-.52,2.15-.52,.57,0,1.11,.09,1.62,.29s.96,.49,1.36,.91l-1.36,1.32c-.2-.23-.44-.42-.72-.55s-.58-.2-.89-.2c-.44,0-.82,.1-1.15,.31-.33,.21-.58,.48-.76,.81-.18,.33-.27,.69-.27,1.07v1.87l-.34-.38c.32-.38,.71-.67,1.17-.88,.45-.21,.93-.32,1.42-.32,.71,0,1.33,.16,1.88,.48s.97,.76,1.28,1.31c.31,.56,.47,1.19,.47,1.9s-.18,1.34-.54,1.91c-.36,.57-.83,1.02-1.42,1.36-.59,.34-1.24,.5-1.95,.5Zm0-1.81c.37,0,.7-.09,1-.26,.3-.17,.54-.41,.72-.71s.27-.63,.27-1-.09-.7-.27-1c-.18-.3-.42-.54-.72-.72-.3-.18-.63-.27-1-.27s-.7,.09-1,.27c-.3,.18-.54,.42-.72,.72-.18,.3-.27,.64-.27,1s.09,.68,.26,.98,.41,.54,.71,.72c.3,.18,.63,.27,1,.27Z"/><path class="b" d="M423.3,204.5l3.55-11.26h2.76l3.55,11.26h-1.94l-3.22-10.1h.42l-3.18,10.1h-1.94Zm1.98-2.44v-1.76h5.91v1.76h-5.91Z"/></g><rect class="e" x="408.58" y="183.97" width="29.87" height="29.87" rx="4.63" ry="4.63"/></g><g><g><path class="b" d="M350.35,204.73c-.57,0-1.11-.12-1.6-.36-.5-.24-.92-.56-1.28-.98-.36-.42-.61-.9-.77-1.45l1.81-.49c.07,.3,.21,.56,.4,.78,.2,.22,.42,.39,.69,.51,.26,.12,.54,.18,.82,.18,.36,0,.7-.09,1-.27,.3-.18,.54-.42,.72-.71,.18-.3,.27-.63,.27-1s-.09-.7-.27-1c-.18-.3-.42-.54-.72-.71-.3-.17-.63-.26-.99-.26-.43,0-.79,.08-1.08,.23-.28,.16-.5,.32-.65,.5l-1.61-.52,.34-5.96h6.12v1.77h-5.11l.7-.67-.25,4.14-.34-.42c.29-.27,.63-.46,1.02-.59s.76-.2,1.12-.2c.7,0,1.33,.16,1.87,.48s.97,.76,1.28,1.31c.31,.55,.46,1.18,.46,1.88s-.18,1.34-.55,1.91c-.37,.57-.85,1.03-1.44,1.36-.6,.34-1.25,.51-1.96,.51Z"/><path class="b" d="M355.39,204.5l3.55-11.26h2.76l3.55,11.26h-1.94l-3.22-10.1h.42l-3.18,10.1h-1.94Zm1.98-2.44v-1.76h5.91v1.76h-5.91Z"/></g><rect class="e" x="340.96" y="183.97" width="29.87" height="29.87" rx="4.63" ry="4.63"/></g><g><g><path class="b" d="M283.98,204.5v-1.86h-4.99v-1.76l3.6-7.64h2.15l-3.6,7.64h2.84v-2.93h1.91v2.93h1.06v1.76h-1.06v1.86h-1.91Z"/><path class="b" d="M287.85,204.5l3.55-11.26h2.76l3.55,11.26h-1.94l-3.22-10.1h.42l-3.18,10.1h-1.94Zm1.98-2.44v-1.76h5.91v1.76h-5.91Z"/></g><rect class="e" x="273.33" y="183.97" width="29.87" height="29.87" rx="4.63" ry="4.63"/></g><g><g><path class="b" d="M283.35,26.08v-1.86h-4.99v-1.76l3.6-7.64h2.15l-3.6,7.64h2.84v-2.93h1.91v2.93h1.06v1.76h-1.06v1.86h-1.91Z"/><path class="b" d="M292.96,26.31c-1.13,0-2.09-.25-2.89-.74-.8-.49-1.42-1.18-1.85-2.06s-.65-1.9-.65-3.07,.22-2.18,.65-3.07c.43-.88,1.05-1.57,1.85-2.06,.8-.49,1.77-.74,2.89-.74,1.3,0,2.38,.32,3.25,.97,.87,.65,1.47,1.52,1.82,2.62l-1.9,.52c-.22-.74-.59-1.31-1.12-1.72s-1.21-.62-2.05-.62c-.76,0-1.38,.17-1.89,.51-.5,.34-.88,.81-1.13,1.43-.25,.61-.38,1.33-.39,2.15,0,.82,.13,1.54,.38,2.15s.63,1.09,1.14,1.43c.51,.34,1.14,.51,1.89,.51,.84,0,1.52-.21,2.05-.63s.9-.99,1.12-1.72l1.9,.52c-.35,1.1-.96,1.97-1.82,2.62-.87,.65-1.95,.97-3.25,.97Z"/></g><rect class="e" x="273.33" y="5.54" width="29.87" height="29.87" rx="4.63" ry="4.63"/></g><g><g><path class="b" d="M284.19,93.33v-1.86h-4.99v-1.76l3.6-7.64h2.15l-3.6,7.64h2.84v-2.93h1.91v2.93h1.06v1.76h-1.06v1.86h-1.91Z"/><path class="b" d="M289.03,93.33v-11.26h4.46c.76,0,1.38,.15,1.87,.46,.49,.3,.85,.69,1.09,1.17,.24,.47,.36,.96,.36,1.47,0,.62-.15,1.15-.44,1.58-.29,.43-.69,.72-1.2,.88v-.39c.71,.16,1.25,.5,1.62,1.01,.37,.51,.55,1.09,.55,1.74s-.13,1.25-.38,1.75c-.26,.5-.63,.89-1.14,1.17-.5,.28-1.12,.42-1.87,.42h-4.92Zm1.91-6.76h2.53c.27,0,.51-.05,.73-.16,.21-.1,.38-.26,.51-.46,.12-.2,.19-.45,.19-.75,0-.39-.12-.72-.38-.98s-.6-.39-1.05-.39h-2.53v2.74Zm0,4.99h2.78c.33,0,.62-.07,.88-.2s.46-.32,.61-.56,.22-.53,.22-.86c0-.3-.07-.57-.2-.81-.13-.24-.32-.43-.57-.57s-.55-.21-.9-.21h-2.83v3.23Z"/></g><rect class="e" x="273.33" y="72.79" width="29.87" height="29.87" rx="4.63" ry="4.63"/></g></svg>