<?xml version="1.0" encoding="UTF-8"?><svg id="Layer_1" xmlns="http://www.w3.org/2000/svg" viewBox="0 0 469.31 270.94"><defs><style>.cls-1,.cls-2{fill:#ff512f;}.cls-3{fill:#fff;}.cls-4,.cls-5{fill:#317aff;}.cls-6{fill:none;stroke:#91919d;stroke-width:.32px;}.cls-6,.cls-5,.cls-7,.cls-8,.cls-2,.cls-9,.cls-10,.cls-11{stroke-miterlimit:10;}.cls-5,.cls-7,.cls-8,.cls-2,.cls-9,.cls-10,.cls-11{stroke:#fff;}.cls-7{fill:#ff7458;}.cls-8{fill:#ff9782;}.cls-9{fill:#adcaff;}.cls-10{fill:#83afff;}.cls-11{fill:#5a95ff;}</style></defs><g><g><path class="cls-1" d="M258.19,61.71v-7.2h2.97c.07,0,.16,0,.27,0,.11,0,.21,.02,.3,.03,.42,.06,.76,.2,1.03,.42,.27,.21,.47,.48,.61,.81s.2,.69,.2,1.08-.07,.75-.2,1.08c-.13,.33-.34,.59-.61,.81-.27,.21-.61,.35-1.03,.42-.09,.01-.2,.02-.31,.03-.11,0-.2,.01-.27,.01h-1.77v2.51h-1.21Zm1.21-3.64h1.72c.07,0,.14,0,.22-.01,.08,0,.16-.02,.23-.04,.2-.05,.36-.14,.47-.26s.2-.27,.25-.43c.05-.16,.07-.32,.07-.47s-.02-.31-.07-.47c-.05-.16-.13-.31-.25-.43s-.27-.21-.47-.27c-.07-.02-.15-.03-.23-.04-.08,0-.16,0-.22,0h-1.72v2.43Z"/><path class="cls-1" d="M266.6,61.86c-.4,0-.73-.07-.99-.2-.26-.13-.47-.3-.62-.51-.15-.21-.27-.43-.34-.66-.07-.23-.12-.45-.14-.66-.02-.21-.03-.38-.03-.51v-3.02h1.22v2.6c0,.17,.01,.35,.04,.56,.02,.21,.08,.41,.16,.6,.08,.19,.21,.35,.38,.47s.4,.18,.68,.18c.15,0,.3-.02,.46-.07,.15-.05,.29-.14,.41-.26s.22-.29,.29-.5c.07-.21,.11-.48,.11-.81l.71,.3c0,.46-.09,.88-.27,1.25-.18,.37-.44,.67-.79,.89s-.77,.33-1.28,.33Zm1.77-.16v-1.67h-.15v-3.73h1.21v5.4h-1.06Z"/><path class="cls-1" d="M270.82,61.71v-7.2h1.21v3.41h-.15v3.79h-1.06Zm2.6,.15c-.53,0-.97-.12-1.33-.38s-.62-.59-.8-1.02-.27-.92-.27-1.45,.09-1.03,.27-1.46,.44-.77,.79-1.02c.35-.25,.78-.37,1.29-.37s.95,.12,1.33,.37c.38,.25,.67,.59,.87,1.02,.21,.43,.31,.92,.31,1.46s-.1,1.03-.3,1.46-.49,.77-.86,1.02-.8,.38-1.3,.38Zm-.18-1.08c.31,0,.57-.08,.77-.24,.2-.16,.35-.37,.45-.64,.1-.27,.15-.57,.15-.9s-.05-.62-.15-.89c-.1-.27-.25-.48-.46-.64s-.48-.24-.8-.24c-.31,0-.56,.07-.75,.22-.19,.15-.34,.35-.43,.62-.09,.27-.14,.57-.14,.93s.05,.66,.14,.92c.09,.27,.24,.47,.43,.62s.46,.22,.78,.22Z"/><path class="cls-1" d="M277.09,61.71v-7.35h1.21v7.35h-1.21Z"/><path class="cls-1" d="M279.9,55.49v-1.11h1.21v1.11h-1.21Zm0,6.22v-5.4h1.21v5.4h-1.21Z"/><path class="cls-1" d="M284.95,61.86c-.56,0-1.03-.12-1.42-.37s-.69-.59-.9-1.02c-.21-.43-.31-.92-.32-1.46,0-.55,.11-1.04,.33-1.47,.21-.43,.52-.76,.92-1.01,.4-.25,.87-.37,1.42-.37,.61,0,1.13,.15,1.56,.46,.43,.31,.7,.73,.83,1.26l-1.2,.33c-.09-.29-.25-.52-.46-.68-.22-.16-.46-.24-.74-.24-.31,0-.57,.07-.78,.22-.2,.15-.35,.35-.45,.61s-.15,.55-.15,.88c0,.51,.12,.93,.34,1.25,.23,.32,.57,.47,1.03,.47,.32,0,.57-.07,.76-.22,.18-.15,.32-.36,.42-.63l1.23,.28c-.17,.55-.46,.97-.88,1.27-.42,.3-.93,.44-1.53,.44Z"/><path class="cls-1" d="M292.89,63.61c-.39-.45-.72-.97-1-1.54-.28-.57-.49-1.17-.63-1.8-.14-.63-.21-1.25-.2-1.87-.01-.62,.06-1.24,.2-1.87,.14-.63,.35-1.23,.63-1.8,.28-.57,.61-1.08,1-1.54l.89,.66c-.4,.48-.72,.97-.96,1.46s-.41,1-.51,1.51c-.1,.51-.16,1.04-.16,1.57,0,.54,.06,1.06,.16,1.57,.11,.51,.28,1.01,.51,1.51s.55,.98,.96,1.46l-.89,.67Z"/><path class="cls-1" d="M297.02,61.86c-.37,0-.71-.08-1.03-.23-.32-.15-.59-.36-.82-.63s-.39-.58-.49-.93l1.16-.31c.05,.19,.13,.36,.26,.5,.12,.14,.27,.25,.44,.33,.17,.08,.34,.12,.52,.12,.23,0,.45-.06,.64-.17s.35-.27,.46-.46c.11-.19,.17-.4,.17-.64s-.06-.45-.17-.64c-.12-.19-.27-.34-.46-.46-.19-.11-.4-.17-.63-.17-.28,0-.51,.05-.69,.15-.18,.1-.32,.21-.42,.32l-1.03-.33,.22-3.81h3.91v1.13h-3.26l.45-.42-.16,2.65-.22-.27c.19-.17,.4-.3,.65-.38,.25-.08,.49-.12,.71-.12,.45,0,.85,.1,1.2,.31,.35,.21,.62,.48,.82,.84,.2,.35,.3,.75,.3,1.21s-.12,.86-.35,1.22c-.23,.37-.54,.66-.92,.87-.38,.22-.8,.33-1.25,.33Z"/><path class="cls-1" d="M302,61.71v-5.88l-1.35,.83v-1.33l1.35-.81h1.23v7.2h-1.23Z"/><path class="cls-1" d="M306.83,57.96c-.33,0-.63-.08-.91-.24-.27-.16-.49-.38-.65-.65-.16-.27-.24-.57-.24-.91s.08-.63,.25-.9c.17-.27,.39-.49,.66-.66,.27-.16,.57-.24,.89-.24s.63,.08,.9,.24,.49,.38,.65,.65c.16,.27,.25,.57,.25,.91s-.08,.64-.25,.91-.38,.49-.65,.65c-.27,.16-.57,.24-.9,.24Zm-.7,3.75l-.8-.8,6.4-6.4,.8,.81-6.41,6.39Zm.7-4.78c.14,0,.27-.04,.38-.1,.12-.07,.21-.16,.28-.28,.07-.12,.1-.25,.1-.38s-.04-.27-.1-.38c-.07-.12-.16-.21-.28-.28-.12-.07-.25-.11-.38-.11s-.27,.04-.39,.11c-.12,.07-.21,.16-.28,.28-.07,.12-.11,.24-.11,.38s.04,.27,.11,.38c.07,.12,.16,.21,.28,.28,.12,.07,.25,.1,.39,.1Zm4.21,4.93c-.33,0-.63-.08-.9-.24-.27-.16-.49-.38-.65-.65s-.25-.57-.25-.91,.08-.63,.25-.9c.17-.27,.39-.49,.66-.66s.57-.25,.89-.25,.63,.08,.9,.24c.27,.16,.49,.38,.65,.65,.16,.27,.24,.57,.24,.91s-.08,.64-.24,.91c-.16,.27-.38,.49-.65,.65-.27,.16-.58,.24-.9,.24Zm0-1.03c.14,0,.26-.04,.38-.11,.12-.07,.21-.16,.28-.28,.07-.12,.11-.25,.11-.39s-.04-.27-.11-.38c-.07-.12-.16-.21-.28-.28-.12-.07-.25-.1-.38-.1s-.27,.04-.39,.1c-.12,.07-.21,.16-.28,.28-.07,.12-.11,.25-.11,.38s.04,.27,.11,.39c.07,.12,.17,.21,.28,.28,.12,.07,.25,.11,.39,.11Z"/><path class="cls-1" d="M313.84,62.95c.4-.48,.72-.96,.96-1.46,.24-.5,.41-1,.51-1.51,.1-.51,.16-1.04,.16-1.57,0-.54-.06-1.06-.16-1.57s-.27-1.01-.51-1.51-.56-.98-.96-1.46l.89-.66c.39,.45,.72,.96,1,1.54,.28,.57,.49,1.17,.63,1.8,.14,.63,.21,1.25,.2,1.87,0,.62-.06,1.24-.2,1.87-.14,.63-.35,1.23-.63,1.8-.28,.57-.61,1.08-1,1.54l-.89-.67Z"/></g><g><path class="cls-3" d="M258.19,81.13v-7.2h2.78c.07,0,.15,0,.24,0,.09,0,.18,.02,.27,.03,.38,.06,.7,.19,.96,.39s.46,.46,.59,.77c.14,.31,.2,.65,.2,1.03s-.07,.71-.21,1.02c-.14,.31-.34,.57-.6,.77-.26,.21-.58,.34-.95,.39-.09,.01-.18,.02-.27,.03-.09,0-.17,0-.24,0h-2.05v2.74h-.73Zm.73-3.43h2.03c.06,0,.13,0,.21-.01,.08,0,.16-.02,.24-.04,.25-.05,.45-.15,.61-.3,.16-.15,.28-.33,.35-.54,.08-.21,.12-.42,.12-.64s-.04-.44-.12-.65-.2-.39-.35-.54c-.16-.15-.36-.25-.61-.3-.08-.02-.16-.03-.24-.03s-.15,0-.21,0h-2.03v3.06Z"/><path class="cls-3" d="M266.3,81.26c-.32,0-.61-.05-.85-.15-.24-.1-.45-.24-.62-.41-.17-.17-.3-.36-.41-.58-.1-.22-.18-.45-.22-.69s-.07-.49-.07-.73v-2.97h.74v2.76c0,.3,.03,.57,.08,.82,.06,.25,.15,.47,.27,.66s.29,.33,.49,.44,.44,.15,.72,.15c.26,0,.49-.04,.69-.13s.36-.22,.5-.39c.13-.17,.24-.37,.31-.61,.07-.24,.1-.51,.1-.82l.52,.11c0,.55-.1,1.02-.29,1.4s-.46,.66-.8,.85c-.34,.19-.73,.29-1.17,.29Zm1.82-.13v-1.33h-.08v-4.07h.74v5.4h-.66Z"/><path class="cls-3" d="M270.17,81.13v-7.2h.74v3.13h-.08v4.07h-.66Zm2.43,.15c-.5,0-.92-.13-1.26-.38-.34-.25-.6-.59-.78-1.03-.18-.43-.26-.92-.26-1.45s.09-1.03,.27-1.46c.18-.43,.44-.77,.79-1.01,.35-.25,.77-.37,1.28-.37s.92,.12,1.27,.38,.62,.59,.81,1.02c.19,.43,.28,.91,.28,1.45s-.09,1.03-.28,1.46c-.19,.43-.46,.77-.82,1.02s-.79,.38-1.29,.38Zm-.08-.69c.38,0,.69-.09,.94-.29,.25-.19,.44-.45,.56-.78s.19-.7,.19-1.11-.06-.77-.19-1.1c-.12-.33-.31-.58-.56-.78-.25-.19-.57-.29-.96-.29s-.69,.09-.94,.28-.43,.44-.56,.76c-.12,.32-.18,.7-.18,1.12s.06,.79,.18,1.12c.12,.33,.31,.59,.56,.77,.25,.19,.57,.28,.95,.28Z"/><path class="cls-3" d="M276.19,81.13v-7.35h.74v7.35h-.74Z"/><path class="cls-3" d="M278.53,74.7v-.83h.74v.83h-.74Zm0,6.42v-5.4h.74v5.4h-.74Z"/><path class="cls-3" d="M283,81.28c-.54,0-1-.12-1.38-.37-.38-.24-.66-.58-.86-1.01-.19-.43-.3-.92-.3-1.48,0-.57,.11-1.06,.31-1.49s.49-.76,.87-1c.38-.24,.83-.36,1.37-.36s1.02,.13,1.43,.4c.41,.27,.68,.63,.83,1.1l-.72,.23c-.13-.32-.33-.57-.6-.75-.28-.18-.59-.27-.94-.27-.4,0-.73,.09-.99,.27s-.45,.43-.58,.76c-.13,.32-.19,.7-.2,1.12,0,.65,.16,1.17,.45,1.56s.73,.59,1.31,.59c.37,0,.68-.08,.94-.25,.26-.17,.45-.41,.59-.74l.74,.22c-.2,.48-.49,.85-.88,1.1s-.85,.38-1.38,.38Z"/><path class="cls-3" d="M290.31,81.27c-.63,0-1.15-.14-1.56-.41-.41-.27-.66-.65-.75-1.14l.75-.12c.08,.31,.26,.55,.55,.73s.64,.27,1.06,.27,.73-.08,.97-.26c.24-.17,.36-.41,.36-.7,0-.17-.04-.3-.11-.41-.08-.1-.23-.2-.46-.29-.23-.09-.57-.2-1.03-.32-.49-.13-.87-.27-1.15-.4-.28-.13-.47-.29-.59-.46-.12-.18-.17-.39-.17-.64,0-.31,.09-.58,.26-.81,.17-.23,.41-.41,.72-.54s.66-.19,1.07-.19,.77,.07,1.09,.2c.32,.13,.58,.32,.78,.55,.2,.24,.31,.51,.35,.83l-.75,.13c-.05-.32-.21-.57-.47-.75-.26-.18-.6-.28-1.01-.29-.38,0-.7,.06-.94,.22-.24,.15-.36,.36-.36,.62,0,.14,.04,.27,.13,.37,.09,.1,.24,.2,.47,.29,.23,.09,.55,.19,.98,.29,.5,.13,.89,.26,1.17,.4,.28,.14,.49,.31,.61,.5,.12,.19,.18,.42,.18,.71,0,.51-.19,.91-.57,1.2-.38,.29-.9,.44-1.56,.44Z"/><path class="cls-3" d="M295.09,81.28c-.41,0-.75-.07-1.02-.22-.28-.15-.48-.34-.62-.58-.14-.24-.21-.51-.21-.79s.06-.54,.18-.75c.12-.21,.28-.38,.49-.51,.21-.13,.44-.24,.71-.3,.27-.07,.58-.13,.91-.18,.33-.05,.66-.1,.97-.13,.32-.04,.6-.08,.84-.11l-.26,.16c0-.53-.09-.93-.31-1.18s-.59-.39-1.13-.39c-.37,0-.68,.08-.94,.25-.25,.17-.43,.43-.54,.79l-.71-.21c.12-.48,.37-.86,.74-1.12,.37-.27,.86-.4,1.46-.4,.49,0,.91,.09,1.26,.28s.59,.45,.73,.8c.07,.16,.11,.33,.13,.52,.02,.19,.03,.39,.03,.59v3.36h-.66v-1.36l.19,.08c-.18,.46-.47,.82-.86,1.06s-.85,.37-1.39,.37Zm.08-.64c.34,0,.64-.06,.9-.18,.26-.12,.46-.29,.62-.51,.16-.21,.26-.46,.31-.73,.04-.17,.06-.36,.06-.57,0-.21,0-.36,0-.47l.28,.15c-.25,.03-.52,.07-.81,.1s-.58,.07-.86,.12c-.28,.04-.54,.09-.76,.16-.15,.04-.3,.1-.45,.18-.14,.08-.26,.18-.35,.31-.09,.13-.14,.29-.14,.48,0,.16,.04,.31,.12,.46,.08,.15,.2,.27,.38,.37,.17,.1,.41,.14,.7,.14Z"/><path class="cls-3" d="M299.2,81.13v-7.35h.74v7.35h-.74Z"/><path class="cls-3" d="M303.72,81.28c-.53,0-.98-.12-1.37-.35-.38-.23-.68-.56-.9-.98-.21-.42-.32-.92-.32-1.49s.1-1.1,.31-1.53,.51-.76,.89-1,.83-.35,1.35-.35,.99,.12,1.37,.37c.38,.25,.66,.6,.85,1.05s.28,1,.27,1.63h-.75v-.26c-.01-.7-.17-1.23-.45-1.58s-.71-.54-1.26-.54-1.02,.19-1.33,.57c-.31,.38-.46,.91-.46,1.61s.15,1.21,.46,1.58,.75,.56,1.31,.56c.39,0,.72-.09,1.01-.27,.29-.18,.52-.44,.68-.77l.68,.26c-.21,.47-.53,.83-.94,1.09-.42,.26-.88,.39-1.41,.39Zm-2.07-2.65v-.62h4.12v.62h-4.12Z"/></g><g><path class="cls-3" d="M258.19,100.55v-7.2h.74l3.96,5.9v-5.9h.74v7.2h-.74l-3.96-5.91v5.91h-.74Z"/><path class="cls-3" d="M267.29,100.7c-.54,0-1-.12-1.38-.37s-.67-.58-.88-1.01c-.2-.43-.3-.92-.3-1.48s.1-1.06,.31-1.49,.5-.76,.88-1,.84-.36,1.36-.36,1,.12,1.38,.36c.38,.24,.67,.58,.88,1,.2,.43,.3,.92,.3,1.48s-.1,1.06-.3,1.49c-.2,.43-.5,.76-.88,1-.38,.24-.84,.36-1.38,.36Zm0-.71c.6,0,1.05-.2,1.34-.6s.44-.92,.44-1.55-.15-1.17-.44-1.56c-.3-.39-.74-.58-1.34-.58-.4,0-.74,.09-1,.27s-.46,.43-.58,.75c-.13,.32-.19,.69-.19,1.11,0,.65,.15,1.17,.45,1.56s.74,.59,1.33,.59Z"/><path class="cls-3" d="M273.05,100.7c-.5,0-.93-.13-1.29-.38s-.63-.59-.82-1.02c-.19-.43-.28-.92-.28-1.46s.09-1.02,.28-1.45c.19-.43,.46-.77,.81-1.02s.78-.38,1.27-.38,.93,.12,1.28,.37c.35,.25,.61,.58,.79,1.01,.18,.43,.27,.92,.27,1.46s-.09,1.02-.26,1.45c-.18,.43-.44,.77-.78,1.03-.34,.25-.76,.38-1.26,.38Zm.08-.69c.38,0,.7-.09,.95-.28,.25-.19,.44-.44,.56-.77,.12-.33,.19-.7,.19-1.12s-.06-.8-.19-1.12c-.12-.33-.31-.58-.56-.76s-.56-.28-.94-.28-.71,.1-.96,.29c-.25,.19-.44,.45-.56,.78-.12,.33-.18,.69-.18,1.1s.06,.78,.19,1.11,.31,.59,.56,.78c.25,.19,.56,.29,.94,.29Zm1.7,.54v-4.07h-.08v-3.13h.74v7.2h-.66Z"/><path class="cls-3" d="M279.16,100.7c-.53,0-.98-.12-1.37-.35-.38-.23-.68-.56-.9-.98-.21-.42-.32-.92-.32-1.49s.1-1.1,.31-1.53,.51-.76,.89-1,.83-.35,1.35-.35,.99,.12,1.37,.37c.38,.25,.66,.6,.85,1.05s.28,1,.27,1.63h-.75v-.26c-.01-.7-.17-1.23-.45-1.58s-.71-.54-1.26-.54-1.02,.19-1.33,.57c-.31,.38-.46,.91-.46,1.61s.15,1.21,.46,1.58,.75,.56,1.31,.56c.39,0,.72-.09,1.01-.27,.29-.18,.52-.44,.68-.77l.68,.26c-.21,.47-.53,.83-.94,1.09-.42,.26-.88,.39-1.41,.39Zm-2.07-2.65v-.62h4.12v.62h-4.12Z"/><path class="cls-3" d="M284.72,100.55v-5.4h.66v1.3l-.13-.17c.06-.16,.14-.31,.23-.44,.1-.13,.2-.25,.32-.33,.14-.12,.3-.22,.49-.28,.19-.07,.38-.1,.57-.12s.36,0,.52,.04v.69c-.2-.05-.41-.06-.65-.04s-.45,.12-.64,.28c-.18,.14-.32,.31-.41,.5-.09,.2-.15,.4-.18,.62-.03,.22-.05,.43-.05,.65v2.7h-.73Z"/><path class="cls-3" d="M290.39,100.68c-.32,0-.61-.05-.85-.15-.24-.1-.45-.24-.62-.41-.17-.17-.3-.36-.41-.58-.1-.22-.18-.45-.22-.69s-.07-.49-.07-.73v-2.97h.74v2.76c0,.3,.03,.57,.08,.82,.06,.25,.15,.47,.27,.66s.29,.33,.49,.44,.44,.15,.72,.15c.26,0,.49-.04,.69-.13s.36-.22,.5-.39c.13-.17,.24-.37,.31-.61,.07-.24,.1-.51,.1-.82l.52,.11c0,.55-.1,1.02-.29,1.4s-.46,.66-.8,.85c-.34,.19-.73,.29-1.17,.29Zm1.82-.13v-1.33h-.08v-4.07h.74v5.4h-.66Z"/><path class="cls-3" d="M294.26,100.55v-5.4h.67v1.33h.07v4.07h-.74Zm3.9,0v-2.75c0-.3-.03-.58-.08-.83-.06-.25-.15-.47-.27-.66s-.29-.33-.48-.44-.44-.16-.72-.16c-.26,0-.49,.04-.69,.13s-.37,.22-.5,.39-.24,.37-.31,.61-.11,.51-.11,.82l-.52-.12c0-.55,.1-1.02,.29-1.39,.19-.38,.46-.66,.8-.86s.73-.29,1.17-.29c.32,0,.61,.05,.85,.15,.24,.1,.45,.23,.62,.4,.17,.17,.3,.36,.41,.58s.18,.45,.22,.7c.05,.25,.07,.49,.07,.73v2.97h-.74Z"/><path class="cls-3" d="M300.2,100.55v-5.4h.67v1.33h.07v4.07h-.74Zm3.9,0v-2.75c0-.3-.03-.58-.08-.83-.06-.25-.15-.47-.27-.66s-.29-.33-.48-.44-.44-.16-.72-.16c-.26,0-.49,.04-.69,.13s-.37,.22-.5,.39-.24,.37-.31,.61-.11,.51-.11,.82l-.52-.12c0-.55,.1-1.02,.29-1.39,.19-.38,.46-.66,.8-.86s.73-.29,1.17-.29c.32,0,.61,.05,.85,.15,.24,.1,.45,.23,.62,.4,.17,.17,.3,.36,.41,.58s.18,.45,.22,.7c.05,.25,.07,.49,.07,.73v2.97h-.74Z"/><path class="cls-3" d="M306.25,94.12v-.83h.74v.83h-.74Zm0,6.42v-5.4h.74v5.4h-.74Z"/><path class="cls-3" d="M308.48,100.55v-5.4h.67v1.33h.07v4.07h-.74Zm3.9,0v-2.75c0-.3-.03-.58-.08-.83-.06-.25-.15-.47-.27-.66s-.29-.33-.48-.44-.44-.16-.72-.16c-.26,0-.49,.04-.69,.13s-.37,.22-.5,.39-.24,.37-.31,.61-.11,.51-.11,.82l-.52-.12c0-.55,.1-1.02,.29-1.39,.19-.38,.46-.66,.8-.86s.73-.29,1.17-.29c.32,0,.61,.05,.85,.15,.24,.1,.45,.23,.62,.4,.17,.17,.3,.36,.41,.58s.18,.45,.22,.7c.05,.25,.07,.49,.07,.73v2.97h-.74Z"/><path class="cls-3" d="M316.52,100.7c-.5,0-.93-.13-1.29-.38s-.63-.59-.82-1.02c-.19-.43-.28-.92-.28-1.46s.09-1.02,.28-1.45c.19-.43,.46-.77,.81-1.02s.78-.38,1.27-.38,.93,.12,1.28,.37c.35,.25,.61,.58,.79,1.01,.18,.43,.27,.92,.27,1.46s-.09,1.02-.26,1.45c-.18,.43-.44,.77-.78,1.03-.34,.25-.76,.38-1.26,.38Zm.05,2.4c-.28,0-.55-.04-.82-.12-.27-.08-.52-.21-.74-.38-.23-.18-.42-.4-.57-.68l.67-.37c.15,.3,.36,.52,.63,.65s.55,.2,.83,.2c.39,0,.71-.07,.95-.22,.24-.14,.42-.36,.53-.64,.11-.28,.16-.64,.16-1.06v-1.44h.08v-3.88h.65v5.33c0,.15,0,.3-.01,.44,0,.14-.02,.28-.05,.42-.06,.4-.19,.73-.39,1-.2,.26-.46,.45-.78,.58-.32,.13-.7,.19-1.14,.19Zm.03-3.08c.38,0,.7-.09,.95-.28,.25-.19,.44-.44,.56-.77,.12-.33,.19-.7,.19-1.12s-.06-.8-.19-1.12c-.12-.33-.31-.58-.56-.76s-.56-.28-.94-.28-.71,.1-.96,.29c-.25,.19-.44,.45-.56,.78-.12,.33-.18,.69-.18,1.1s.06,.78,.19,1.11,.31,.59,.56,.78c.25,.19,.56,.29,.94,.29Z"/><path class="cls-3" d="M322.44,94.12v-.83h.74v.83h-.74Zm0,6.42v-5.4h.74v5.4h-.74Z"/><path class="cls-3" d="M324.67,100.55v-5.4h.67v1.33h.07v4.07h-.74Zm3.9,0v-2.75c0-.3-.03-.58-.08-.83-.06-.25-.15-.47-.27-.66s-.29-.33-.48-.44-.44-.16-.72-.16c-.26,0-.49,.04-.69,.13s-.37,.22-.5,.39-.24,.37-.31,.61-.11,.51-.11,.82l-.52-.12c0-.55,.1-1.02,.29-1.39,.19-.38,.46-.66,.8-.86s.73-.29,1.17-.29c.32,0,.61,.05,.85,.15,.24,.1,.45,.23,.62,.4,.17,.17,.3,.36,.41,.58s.18,.45,.22,.7c.05,.25,.07,.49,.07,.73v2.97h-.74Z"/><path class="cls-3" d="M332.86,100.7c-.54,0-1-.12-1.38-.37-.38-.24-.66-.58-.86-1.01-.19-.43-.3-.92-.3-1.48,0-.57,.11-1.06,.31-1.49s.49-.76,.87-1c.38-.24,.83-.36,1.37-.36s1.02,.13,1.43,.4c.41,.27,.68,.63,.83,1.1l-.72,.23c-.13-.32-.33-.57-.6-.75-.28-.18-.59-.27-.94-.27-.4,0-.73,.09-.99,.27s-.45,.43-.58,.76c-.13,.32-.19,.7-.2,1.12,0,.65,.16,1.17,.45,1.56s.73,.59,1.31,.59c.37,0,.68-.08,.94-.25,.26-.17,.45-.41,.59-.74l.74,.22c-.2,.48-.49,.85-.88,1.1s-.85,.38-1.38,.38Z"/><path class="cls-3" d="M338.29,100.7c-.53,0-.98-.12-1.37-.35-.38-.23-.68-.56-.9-.98-.21-.42-.32-.92-.32-1.49s.1-1.1,.31-1.53,.51-.76,.89-1,.83-.35,1.35-.35,.99,.12,1.37,.37c.38,.25,.66,.6,.85,1.05s.28,1,.27,1.63h-.75v-.26c-.01-.7-.17-1.23-.45-1.58s-.71-.54-1.26-.54-1.02,.19-1.33,.57c-.31,.38-.46,.91-.46,1.61s.15,1.21,.46,1.58,.75,.56,1.31,.56c.39,0,.72-.09,1.01-.27,.29-.18,.52-.44,.68-.77l.68,.26c-.21,.47-.53,.83-.94,1.09-.42,.26-.88,.39-1.41,.39Zm-2.07-2.65v-.62h4.12v.62h-4.12Z"/><path class="cls-3" d="M341.7,100.55v-5.4h.67v1.33h.07v4.07h-.74Zm3.9,0v-2.75c0-.3-.03-.58-.08-.83-.06-.25-.15-.47-.27-.66s-.29-.33-.48-.44-.44-.16-.72-.16c-.26,0-.49,.04-.69,.13s-.37,.22-.5,.39-.24,.37-.31,.61-.11,.51-.11,.82l-.52-.12c0-.55,.1-1.02,.29-1.39,.19-.38,.46-.66,.8-.86s.73-.29,1.17-.29c.32,0,.61,.05,.85,.15,.24,.1,.45,.23,.62,.4,.17,.17,.3,.36,.41,.58s.18,.45,.22,.7c.05,.25,.07,.49,.07,.73v2.97h-.74Z"/><path class="cls-3" d="M347.05,95.78v-.63h3.54v.63h-3.54Zm3.54,4.77c-.3,.06-.6,.09-.9,.08-.29-.01-.56-.08-.79-.19-.23-.11-.41-.29-.53-.53-.1-.2-.15-.4-.16-.61,0-.2-.01-.44-.01-.7v-4.95h.73v4.92c0,.23,0,.42,0,.57,0,.15,.04,.29,.1,.4,.12,.22,.31,.36,.57,.4,.26,.04,.58,.03,.97-.03v.64Z"/><path class="cls-3" d="M351.75,94.12v-.83h.74v.83h-.74Zm0,6.42v-5.4h.74v5.4h-.74Z"/><path class="cls-3" d="M355.45,100.55l-1.96-5.4h.75l1.59,4.44,1.58-4.44h.75l-1.96,5.4h-.76Z"/><path class="cls-3" d="M361.17,100.7c-.53,0-.98-.12-1.37-.35-.38-.23-.68-.56-.9-.98-.21-.42-.32-.92-.32-1.49s.1-1.1,.31-1.53,.51-.76,.89-1,.83-.35,1.35-.35,.99,.12,1.37,.37c.38,.25,.66,.6,.85,1.05s.28,1,.27,1.63h-.75v-.26c-.01-.7-.17-1.23-.45-1.58s-.71-.54-1.26-.54-1.02,.19-1.33,.57c-.31,.38-.46,.91-.46,1.61s.15,1.21,.46,1.58,.75,.56,1.31,.56c.39,0,.72-.09,1.01-.27,.29-.18,.52-.44,.68-.77l.68,.26c-.21,.47-.53,.83-.94,1.09-.42,.26-.88,.39-1.41,.39Zm-2.07-2.65v-.62h4.12v.62h-4.12Z"/><path class="cls-3" d="M366.74,100.69c-.63,0-1.15-.14-1.56-.41-.41-.27-.66-.65-.75-1.14l.75-.12c.08,.31,.26,.55,.55,.73s.64,.27,1.06,.27,.73-.08,.97-.26c.24-.17,.36-.41,.36-.7,0-.17-.04-.3-.11-.41-.08-.1-.23-.2-.46-.29-.23-.09-.57-.2-1.03-.32-.49-.13-.87-.27-1.15-.4-.28-.13-.47-.29-.59-.46-.12-.18-.17-.39-.17-.64,0-.31,.09-.58,.26-.81,.17-.23,.41-.41,.72-.54s.66-.19,1.07-.19,.77,.07,1.09,.2c.32,.13,.58,.32,.78,.55,.2,.24,.31,.51,.35,.83l-.75,.13c-.05-.32-.21-.57-.47-.75-.26-.18-.6-.28-1.01-.29-.38,0-.7,.06-.94,.22-.24,.15-.36,.36-.36,.62,0,.14,.04,.27,.13,.37,.09,.1,.24,.2,.47,.29,.23,.09,.55,.19,.98,.29,.5,.13,.89,.26,1.17,.4,.28,.14,.49,.31,.61,.5,.12,.19,.18,.42,.18,.71,0,.51-.19,.91-.57,1.2-.38,.29-.9,.44-1.56,.44Z"/></g><g><path class="cls-3" d="M258.19,119.96v-7.2h2.18c.08,0,.21,0,.39,0,.19,0,.36,.02,.53,.04,.55,.08,1,.28,1.37,.61,.37,.33,.64,.75,.83,1.26s.28,1.07,.28,1.69-.09,1.17-.28,1.68-.46,.93-.83,1.26c-.37,.33-.82,.53-1.37,.61-.17,.02-.34,.03-.53,.04-.19,0-.32,0-.39,0h-2.18Zm.76-.71h1.42c.14,0,.28,0,.44-.01,.16,0,.29-.02,.41-.05,.42-.07,.76-.24,1.02-.51,.26-.27,.45-.6,.57-1s.18-.84,.18-1.32-.06-.93-.18-1.33-.31-.74-.57-1c-.26-.26-.6-.43-1.01-.5-.11-.02-.25-.04-.41-.05-.16,0-.31-.01-.44-.01h-1.42v5.79Z"/><path class="cls-3" d="M267.19,120.11c-.53,0-.98-.12-1.37-.35-.38-.23-.68-.56-.9-.98-.21-.42-.32-.92-.32-1.49s.1-1.1,.31-1.53,.51-.76,.89-1,.83-.35,1.35-.35,.99,.12,1.37,.37c.38,.25,.66,.6,.85,1.05s.28,1,.27,1.63h-.75v-.26c-.01-.7-.17-1.23-.45-1.58s-.71-.54-1.26-.54-1.02,.19-1.33,.57c-.31,.38-.46,.91-.46,1.61s.15,1.21,.46,1.58,.75,.56,1.31,.56c.39,0,.72-.09,1.01-.27,.29-.18,.52-.44,.68-.77l.68,.26c-.21,.47-.53,.83-.94,1.09-.42,.26-.88,.39-1.41,.39Zm-2.07-2.65v-.62h4.12v.62h-4.12Z"/><path class="cls-3" d="M272.02,119.96l-1.96-5.4h.75l1.59,4.44,1.58-4.44h.75l-1.96,5.4h-.76Z"/><path class="cls-3" d="M277.73,120.11c-.53,0-.98-.12-1.37-.35-.38-.23-.68-.56-.9-.98-.21-.42-.32-.92-.32-1.49s.1-1.1,.31-1.53,.51-.76,.89-1,.83-.35,1.35-.35,.99,.12,1.37,.37c.38,.25,.66,.6,.85,1.05s.28,1,.27,1.63h-.75v-.26c-.01-.7-.17-1.23-.45-1.58s-.71-.54-1.26-.54-1.02,.19-1.33,.57c-.31,.38-.46,.91-.46,1.61s.15,1.21,.46,1.58,.75,.56,1.31,.56c.39,0,.72-.09,1.01-.27,.29-.18,.52-.44,.68-.77l.68,.26c-.21,.47-.53,.83-.94,1.09-.42,.26-.88,.39-1.41,.39Zm-2.07-2.65v-.62h4.12v.62h-4.12Z"/><path class="cls-3" d="M281.39,119.96v-7.35h.74v7.35h-.74Z"/><path class="cls-3" d="M285.88,120.11c-.54,0-1-.12-1.38-.37s-.67-.58-.88-1.01c-.2-.43-.3-.92-.3-1.48s.1-1.06,.31-1.49,.5-.76,.88-1,.84-.36,1.36-.36,1,.12,1.38,.36c.38,.24,.67,.58,.88,1,.2,.43,.3,.92,.3,1.48s-.1,1.06-.3,1.49c-.2,.43-.5,.76-.88,1-.38,.24-.84,.36-1.38,.36Zm0-.71c.6,0,1.05-.2,1.34-.6s.44-.92,.44-1.55-.15-1.17-.44-1.56c-.3-.39-.74-.58-1.34-.58-.4,0-.74,.09-1,.27s-.46,.43-.58,.75c-.13,.32-.19,.69-.19,1.11,0,.65,.15,1.17,.45,1.56s.74,.59,1.33,.59Z"/><path class="cls-3" d="M289.53,122.36v-7.8h.66v4.07h.08v3.74h-.74Zm2.43-2.25c-.5,0-.92-.13-1.26-.38-.34-.25-.6-.59-.78-1.03-.18-.43-.26-.92-.26-1.45s.09-1.03,.27-1.46c.18-.43,.44-.77,.79-1.01,.35-.25,.77-.37,1.28-.37s.92,.12,1.27,.38,.62,.59,.81,1.02c.19,.43,.28,.91,.28,1.45s-.09,1.03-.28,1.46c-.19,.43-.46,.77-.82,1.02s-.79,.38-1.29,.38Zm-.08-.69c.38,0,.69-.09,.94-.29,.25-.19,.44-.45,.56-.78s.19-.7,.19-1.11-.06-.77-.19-1.1c-.12-.33-.31-.58-.56-.78-.25-.19-.57-.29-.96-.29s-.69,.09-.94,.28-.43,.44-.56,.76c-.12,.32-.18,.7-.18,1.12s.06,.79,.18,1.12c.12,.33,.31,.59,.56,.77,.25,.19,.57,.28,.95,.28Z"/><path class="cls-3" d="M297.74,120.11c-.53,0-.98-.12-1.37-.35-.38-.23-.68-.56-.9-.98-.21-.42-.32-.92-.32-1.49s.1-1.1,.31-1.53,.51-.76,.89-1,.83-.35,1.35-.35,.99,.12,1.37,.37c.38,.25,.66,.6,.85,1.05s.28,1,.27,1.63h-.75v-.26c-.01-.7-.17-1.23-.45-1.58s-.71-.54-1.26-.54-1.02,.19-1.33,.57c-.31,.38-.46,.91-.46,1.61s.15,1.21,.46,1.58,.75,.56,1.31,.56c.39,0,.72-.09,1.01-.27,.29-.18,.52-.44,.68-.77l.68,.26c-.21,.47-.53,.83-.94,1.09-.42,.26-.88,.39-1.41,.39Zm-2.07-2.65v-.62h4.12v.62h-4.12Z"/><path class="cls-3" d="M301.3,119.96v-5.4h.66v1.3l-.13-.17c.06-.16,.14-.31,.23-.44,.1-.13,.2-.25,.32-.33,.14-.12,.3-.22,.49-.28,.19-.07,.38-.1,.57-.12s.36,0,.52,.04v.69c-.2-.05-.41-.06-.65-.04s-.45,.12-.64,.28c-.18,.14-.32,.31-.41,.5-.09,.2-.15,.4-.18,.62-.03,.22-.05,.43-.05,.65v2.7h-.73Z"/><path class="cls-3" d="M307.01,113.54v-.83h.74v.83h-.74Zm0,6.42v-5.4h.74v5.4h-.74Z"/><path class="cls-3" d="M309.24,119.96v-5.4h.67v1.33h.07v4.07h-.74Zm3.9,0v-2.75c0-.3-.03-.58-.08-.83-.06-.25-.15-.47-.27-.66s-.29-.33-.48-.44-.44-.16-.72-.16c-.26,0-.49,.04-.69,.13s-.37,.22-.5,.39-.24,.37-.31,.61-.11,.51-.11,.82l-.52-.12c0-.55,.1-1.02,.29-1.39,.19-.38,.46-.66,.8-.86s.73-.29,1.17-.29c.32,0,.61,.05,.85,.15,.24,.1,.45,.23,.62,.4,.17,.17,.3,.36,.41,.58s.18,.45,.22,.7c.05,.25,.07,.49,.07,.73v2.97h-.74Z"/><path class="cls-3" d="M317.42,120.11c-.54,0-1-.12-1.38-.37-.38-.24-.66-.58-.86-1.01-.19-.43-.3-.92-.3-1.48,0-.57,.11-1.06,.31-1.49s.49-.76,.87-1c.38-.24,.83-.36,1.37-.36s1.02,.13,1.43,.4c.41,.27,.68,.63,.83,1.1l-.72,.23c-.13-.32-.33-.57-.6-.75-.28-.18-.59-.27-.94-.27-.4,0-.73,.09-.99,.27s-.45,.43-.58,.76c-.13,.32-.19,.7-.2,1.12,0,.65,.16,1.17,.45,1.56s.73,.59,1.31,.59c.37,0,.68-.08,.94-.25,.26-.17,.45-.41,.59-.74l.74,.22c-.2,.48-.49,.85-.88,1.1s-.85,.38-1.38,.38Z"/><path class="cls-3" d="M322.85,120.11c-.53,0-.98-.12-1.37-.35-.38-.23-.68-.56-.9-.98-.21-.42-.32-.92-.32-1.49s.1-1.1,.31-1.53,.51-.76,.89-1,.83-.35,1.35-.35,.99,.12,1.37,.37c.38,.25,.66,.6,.85,1.05s.28,1,.27,1.63h-.75v-.26c-.01-.7-.17-1.23-.45-1.58s-.71-.54-1.26-.54-1.02,.19-1.33,.57c-.31,.38-.46,.91-.46,1.61s.15,1.21,.46,1.58,.75,.56,1.31,.56c.39,0,.72-.09,1.01-.27,.29-.18,.52-.44,.68-.77l.68,.26c-.21,.47-.53,.83-.94,1.09-.42,.26-.88,.39-1.41,.39Zm-2.07-2.65v-.62h4.12v.62h-4.12Z"/><path class="cls-3" d="M326.27,119.96v-5.4h.67v1.33h.07v4.07h-.74Zm3.9,0v-2.75c0-.3-.03-.58-.08-.83-.06-.25-.15-.47-.27-.66s-.29-.33-.48-.44-.44-.16-.72-.16c-.26,0-.49,.04-.69,.13s-.37,.22-.5,.39-.24,.37-.31,.61-.11,.51-.11,.82l-.52-.12c0-.55,.1-1.02,.29-1.39,.19-.38,.46-.66,.8-.86s.73-.29,1.17-.29c.32,0,.61,.05,.85,.15,.24,.1,.45,.23,.62,.4,.17,.17,.3,.36,.41,.58s.18,.45,.22,.7c.05,.25,.07,.49,.07,.73v2.97h-.74Z"/><path class="cls-3" d="M331.61,115.19v-.63h3.54v.63h-3.54Zm3.54,4.77c-.3,.06-.6,.09-.9,.08-.29-.01-.56-.08-.79-.19-.23-.11-.41-.29-.53-.53-.1-.2-.15-.4-.16-.61,0-.2-.01-.44-.01-.7v-4.95h.73v4.92c0,.23,0,.42,0,.57,0,.15,.04,.29,.1,.4,.12,.22,.31,.36,.57,.4,.26,.04,.58,.03,.97-.03v.64Z"/><path class="cls-3" d="M336.31,113.54v-.83h.74v.83h-.74Zm0,6.42v-5.4h.74v5.4h-.74Z"/><path class="cls-3" d="M340.01,119.96l-1.96-5.4h.75l1.59,4.44,1.58-4.44h.75l-1.96,5.4h-.76Z"/><path class="cls-3" d="M345.74,120.11c-.53,0-.98-.12-1.37-.35-.38-.23-.68-.56-.9-.98-.21-.42-.32-.92-.32-1.49s.1-1.1,.31-1.53,.51-.76,.89-1,.83-.35,1.35-.35,.99,.12,1.37,.37c.38,.25,.66,.6,.85,1.05s.28,1,.27,1.63h-.75v-.26c-.01-.7-.17-1.23-.45-1.58s-.71-.54-1.26-.54-1.02,.19-1.33,.57c-.31,.38-.46,.91-.46,1.61s.15,1.21,.46,1.58,.75,.56,1.31,.56c.39,0,.72-.09,1.01-.27,.29-.18,.52-.44,.68-.77l.68,.26c-.21,.47-.53,.83-.94,1.09-.42,.26-.88,.39-1.41,.39Zm-2.07-2.65v-.62h4.12v.62h-4.12Z"/><path class="cls-3" d="M351.31,120.11c-.63,0-1.15-.14-1.56-.41-.41-.27-.66-.65-.75-1.14l.75-.12c.08,.31,.26,.55,.55,.73s.64,.27,1.06,.27,.73-.08,.97-.26c.24-.17,.36-.41,.36-.7,0-.17-.04-.3-.11-.41-.08-.1-.23-.2-.46-.29-.23-.09-.57-.2-1.03-.32-.49-.13-.87-.27-1.15-.4-.28-.13-.47-.29-.59-.46-.12-.18-.17-.39-.17-.64,0-.31,.09-.58,.26-.81,.17-.23,.41-.41,.72-.54s.66-.19,1.07-.19,.77,.07,1.09,.2c.32,.13,.58,.32,.78,.55,.2,.24,.31,.51,.35,.83l-.75,.13c-.05-.32-.21-.57-.47-.75-.26-.18-.6-.28-1.01-.29-.38,0-.7,.06-.94,.22-.24,.15-.36,.36-.36,.62,0,.14,.04,.27,.13,.37,.09,.1,.24,.2,.47,.29,.23,.09,.55,.19,.98,.29,.5,.13,.89,.26,1.17,.4,.28,.14,.49,.31,.61,.5,.12,.19,.18,.42,.18,.71,0,.51-.19,.91-.57,1.2-.38,.29-.9,.44-1.56,.44Z"/></g><g><path class="cls-3" d="M408.56,81.14v-5.88l-1.35,.83v-1.33l1.35-.81h1.23v7.2h-1.23Z"/><path class="cls-3" d="M414.18,81.29c-.47,0-.89-.11-1.27-.33s-.67-.53-.89-.92c-.22-.39-.33-.84-.33-1.35v-2.19c0-.55,.11-1.02,.33-1.42,.22-.4,.53-.71,.92-.93,.4-.22,.85-.33,1.38-.33,.36,0,.71,.06,1.04,.18,.33,.12,.62,.32,.87,.58l-.87,.84c-.13-.15-.28-.27-.46-.35s-.37-.13-.57-.13c-.28,0-.53,.07-.74,.2s-.37,.3-.49,.52-.17,.44-.17,.68v1.2l-.22-.24c.21-.24,.46-.43,.75-.56,.29-.13,.59-.2,.91-.2,.45,0,.85,.1,1.2,.31s.62,.49,.82,.84c.2,.36,.3,.76,.3,1.21s-.11,.86-.34,1.22c-.23,.37-.53,.66-.91,.87-.38,.22-.79,.32-1.24,.32Zm0-1.16c.23,0,.45-.06,.64-.17,.19-.11,.35-.26,.46-.46,.11-.19,.17-.4,.17-.64s-.06-.45-.17-.64-.27-.35-.46-.46c-.19-.12-.4-.17-.64-.17s-.45,.06-.64,.17c-.19,.11-.35,.27-.46,.46s-.17,.41-.17,.64,.06,.44,.17,.63c.11,.19,.26,.34,.46,.46,.19,.12,.4,.17,.64,.17Z"/><path class="cls-3" d="M418.11,81.14v-1.24h1.23v1.24h-1.23Z"/><path class="cls-3" d="M423.53,81.29c-.51,0-.96-.11-1.35-.33-.39-.22-.69-.52-.91-.91-.22-.39-.33-.84-.33-1.35v-2.32c0-.51,.11-.96,.33-1.35,.22-.39,.52-.69,.91-.91,.39-.22,.84-.33,1.35-.33s.96,.11,1.35,.33c.39,.22,.69,.52,.91,.91,.22,.39,.33,.84,.33,1.35v2.32c0,.51-.11,.96-.33,1.35-.22,.39-.52,.69-.91,.91-.39,.22-.84,.33-1.35,.33Zm0-1.15c.25,0,.48-.06,.69-.18,.21-.12,.37-.29,.49-.49,.12-.2,.18-.43,.18-.69v-2.49c0-.26-.06-.49-.18-.69-.12-.2-.28-.37-.49-.49-.21-.12-.44-.18-.69-.18s-.48,.06-.69,.18c-.21,.12-.37,.29-.49,.49-.12,.21-.18,.44-.18,.69v2.49c0,.25,.06,.48,.18,.69,.12,.21,.28,.37,.49,.49,.21,.12,.44,.18,.69,.18Z"/><path class="cls-3" d="M430.11,81.29c-.51,0-.96-.11-1.35-.33-.39-.22-.69-.52-.91-.91-.22-.39-.33-.84-.33-1.35v-2.32c0-.51,.11-.96,.33-1.35,.22-.39,.52-.69,.91-.91,.39-.22,.84-.33,1.35-.33s.96,.11,1.35,.33c.39,.22,.69,.52,.91,.91,.22,.39,.33,.84,.33,1.35v2.32c0,.51-.11,.96-.33,1.35-.22,.39-.52,.69-.91,.91-.39,.22-.84,.33-1.35,.33Zm0-1.15c.25,0,.48-.06,.69-.18,.21-.12,.37-.29,.49-.49,.12-.2,.18-.43,.18-.69v-2.49c0-.26-.06-.49-.18-.69-.12-.2-.28-.37-.49-.49-.21-.12-.44-.18-.69-.18s-.48,.06-.69,.18c-.21,.12-.37,.29-.49,.49-.12,.21-.18,.44-.18,.69v2.49c0,.25,.06,.48,.18,.69,.12,.21,.28,.37,.49,.49,.21,.12,.44,.18,.69,.18Z"/><path class="cls-3" d="M435.8,77.39c-.33,0-.63-.08-.91-.24-.27-.16-.49-.38-.65-.65-.16-.27-.24-.57-.24-.91s.08-.63,.25-.9c.17-.27,.39-.49,.66-.66,.27-.16,.57-.24,.89-.24s.63,.08,.9,.24,.49,.38,.65,.65c.16,.27,.25,.57,.25,.91s-.08,.64-.25,.91-.38,.49-.65,.65c-.27,.16-.57,.24-.9,.24Zm-.7,3.75l-.8-.8,6.4-6.4,.8,.81-6.41,6.39Zm.7-4.78c.14,0,.27-.04,.38-.1,.12-.07,.21-.16,.28-.28,.07-.12,.1-.25,.1-.38s-.04-.27-.1-.38c-.07-.12-.16-.21-.28-.28-.12-.07-.25-.11-.38-.11s-.27,.04-.39,.11c-.12,.07-.21,.16-.28,.28-.07,.12-.11,.24-.11,.38s.04,.27,.11,.38c.07,.12,.16,.21,.28,.28,.12,.07,.25,.1,.39,.1Zm4.21,4.93c-.33,0-.63-.08-.9-.24-.27-.16-.49-.38-.65-.65s-.25-.57-.25-.91,.08-.63,.25-.9c.17-.27,.39-.49,.66-.66s.57-.25,.89-.25,.63,.08,.9,.24c.27,.16,.49,.38,.65,.65,.16,.27,.24,.57,.24,.91s-.08,.64-.24,.91c-.16,.27-.38,.49-.65,.65-.27,.16-.58,.24-.9,.24Zm0-1.03c.14,0,.26-.04,.38-.11,.12-.07,.21-.16,.28-.28,.07-.12,.11-.25,.11-.39s-.04-.27-.11-.38c-.07-.12-.16-.21-.28-.28-.12-.07-.25-.1-.38-.1s-.27,.04-.39,.1c-.12,.07-.21,.16-.28,.28-.07,.12-.11,.25-.11,.38s.04,.27,.11,.39c.07,.12,.17,.21,.28,.28,.12,.07,.25,.11,.39,.11Z"/></g><g><path class="cls-3" d="M407.56,100.69c-.36,0-.7-.07-1.02-.21-.32-.14-.6-.34-.83-.59-.23-.26-.4-.56-.51-.91l1.17-.31c.08,.29,.24,.51,.46,.66s.47,.23,.73,.23c.24,0,.45-.05,.63-.17s.33-.26,.44-.45,.16-.4,.16-.63c0-.36-.12-.66-.35-.89-.23-.24-.53-.36-.89-.36-.11,0-.22,.01-.32,.04-.11,.03-.21,.07-.3,.12l-.55-.95,2.42-2.07,.11,.29h-3.43v-1.13h4.42v1.14l-1.94,1.87v-.35c.43,.03,.8,.15,1.11,.37,.31,.21,.54,.49,.71,.82,.17,.34,.25,.71,.25,1.11,0,.45-.11,.86-.33,1.22-.22,.36-.52,.64-.89,.85-.37,.21-.78,.31-1.23,.31Z"/><path class="cls-3" d="M413.91,100.71c-.51,0-.96-.11-1.35-.33-.39-.22-.69-.52-.91-.91-.22-.39-.33-.84-.33-1.35v-2.32c0-.51,.11-.96,.33-1.35,.22-.39,.52-.69,.91-.91,.39-.22,.84-.33,1.35-.33s.96,.11,1.35,.33c.39,.22,.69,.52,.91,.91,.22,.39,.33,.84,.33,1.35v2.32c0,.51-.11,.96-.33,1.35-.22,.39-.52,.69-.91,.91-.39,.22-.84,.33-1.35,.33Zm0-1.15c.25,0,.48-.06,.69-.18,.21-.12,.37-.29,.49-.49,.12-.2,.18-.43,.18-.69v-2.49c0-.26-.06-.49-.18-.69-.12-.2-.28-.37-.49-.49-.21-.12-.44-.18-.69-.18s-.48,.06-.69,.18c-.21,.12-.37,.29-.49,.49-.12,.21-.18,.44-.18,.69v2.49c0,.25,.06,.48,.18,.69,.12,.21,.28,.37,.49,.49,.21,.12,.44,.18,.69,.18Z"/><path class="cls-3" d="M418.1,100.56v-1.24h1.23v1.24h-1.23Z"/><path class="cls-3" d="M423.52,100.71c-.51,0-.96-.11-1.35-.33-.39-.22-.69-.52-.91-.91-.22-.39-.33-.84-.33-1.35v-2.32c0-.51,.11-.96,.33-1.35,.22-.39,.52-.69,.91-.91,.39-.22,.84-.33,1.35-.33s.96,.11,1.35,.33c.39,.22,.69,.52,.91,.91,.22,.39,.33,.84,.33,1.35v2.32c0,.51-.11,.96-.33,1.35-.22,.39-.52,.69-.91,.91-.39,.22-.84,.33-1.35,.33Zm0-1.15c.25,0,.48-.06,.69-.18,.21-.12,.37-.29,.49-.49,.12-.2,.18-.43,.18-.69v-2.49c0-.26-.06-.49-.18-.69-.12-.2-.28-.37-.49-.49-.21-.12-.44-.18-.69-.18s-.48,.06-.69,.18c-.21,.12-.37,.29-.49,.49-.12,.21-.18,.44-.18,.69v2.49c0,.25,.06,.48,.18,.69,.12,.21,.28,.37,.49,.49,.21,.12,.44,.18,.69,.18Z"/><path class="cls-3" d="M430.1,100.71c-.51,0-.96-.11-1.35-.33-.39-.22-.69-.52-.91-.91-.22-.39-.33-.84-.33-1.35v-2.32c0-.51,.11-.96,.33-1.35,.22-.39,.52-.69,.91-.91,.39-.22,.84-.33,1.35-.33s.96,.11,1.35,.33c.39,.22,.69,.52,.91,.91,.22,.39,.33,.84,.33,1.35v2.32c0,.51-.11,.96-.33,1.35-.22,.39-.52,.69-.91,.91-.39,.22-.84,.33-1.35,.33Zm0-1.15c.25,0,.48-.06,.69-.18,.21-.12,.37-.29,.49-.49,.12-.2,.18-.43,.18-.69v-2.49c0-.26-.06-.49-.18-.69-.12-.2-.28-.37-.49-.49-.21-.12-.44-.18-.69-.18s-.48,.06-.69,.18c-.21,.12-.37,.29-.49,.49-.12,.21-.18,.44-.18,.69v2.49c0,.25,.06,.48,.18,.69,.12,.21,.28,.37,.49,.49,.21,.12,.44,.18,.69,.18Z"/><path class="cls-3" d="M435.79,96.81c-.33,0-.63-.08-.91-.24-.27-.16-.49-.38-.65-.65-.16-.27-.24-.57-.24-.91s.08-.63,.25-.9c.17-.27,.39-.49,.66-.66,.27-.16,.57-.24,.89-.24s.63,.08,.9,.24,.49,.38,.65,.65c.16,.27,.25,.57,.25,.91s-.08,.64-.25,.91-.38,.49-.65,.65c-.27,.16-.57,.24-.9,.24Zm-.7,3.75l-.8-.8,6.4-6.4,.8,.81-6.41,6.39Zm.7-4.78c.14,0,.27-.04,.38-.1,.12-.07,.21-.16,.28-.28,.07-.12,.1-.25,.1-.38s-.04-.27-.1-.38c-.07-.12-.16-.21-.28-.28-.12-.07-.25-.11-.38-.11s-.27,.04-.39,.11c-.12,.07-.21,.16-.28,.28-.07,.12-.11,.24-.11,.38s.04,.27,.11,.38c.07,.12,.16,.21,.28,.28,.12,.07,.25,.1,.39,.1Zm4.21,4.93c-.33,0-.63-.08-.9-.24-.27-.16-.49-.38-.65-.65s-.25-.57-.25-.91,.08-.63,.25-.9c.17-.27,.39-.49,.66-.66s.57-.25,.89-.25,.63,.08,.9,.24c.27,.16,.49,.38,.65,.65,.16,.27,.24,.57,.24,.91s-.08,.64-.24,.91c-.16,.27-.38,.49-.65,.65-.27,.16-.58,.24-.9,.24Zm0-1.03c.14,0,.26-.04,.38-.11,.12-.07,.21-.16,.28-.28,.07-.12,.11-.25,.11-.39s-.04-.27-.11-.38c-.07-.12-.16-.21-.28-.28-.12-.07-.25-.1-.38-.1s-.27,.04-.39,.1c-.12,.07-.21,.16-.28,.28-.07,.12-.11,.25-.11,.38s.04,.27,.11,.39c.07,.12,.17,.21,.28,.28,.12,.07,.25,.11,.39,.11Z"/></g><g><path class="cls-3" d="M414.21,120.12c-.37,0-.71-.08-1.03-.23-.32-.15-.59-.36-.82-.63s-.39-.58-.49-.93l1.16-.31c.05,.19,.13,.36,.26,.5,.12,.14,.27,.25,.44,.33,.17,.08,.34,.12,.52,.12,.23,0,.45-.06,.64-.17s.35-.27,.46-.46c.11-.19,.17-.4,.17-.64s-.06-.45-.17-.64c-.12-.19-.27-.34-.46-.46-.19-.11-.4-.17-.63-.17-.28,0-.51,.05-.69,.15-.18,.1-.32,.21-.42,.32l-1.03-.33,.22-3.81h3.91v1.13h-3.26l.45-.42-.16,2.65-.22-.27c.19-.17,.4-.3,.65-.38,.25-.08,.49-.12,.71-.12,.45,0,.85,.1,1.2,.31,.35,.21,.62,.48,.82,.84,.2,.35,.3,.75,.3,1.21s-.12,.86-.35,1.22c-.23,.37-.54,.66-.92,.87-.38,.22-.8,.33-1.25,.33Z"/><path class="cls-3" d="M418.14,119.97v-1.24h1.23v1.24h-1.23Z"/><path class="cls-3" d="M423.56,120.12c-.51,0-.96-.11-1.35-.33-.39-.22-.69-.52-.91-.91-.22-.39-.33-.84-.33-1.35v-2.32c0-.51,.11-.96,.33-1.35,.22-.39,.52-.69,.91-.91,.39-.22,.84-.33,1.35-.33s.96,.11,1.35,.33c.39,.22,.69,.52,.91,.91,.22,.39,.33,.84,.33,1.35v2.32c0,.51-.11,.96-.33,1.35-.22,.39-.52,.69-.91,.91-.39,.22-.84,.33-1.35,.33Zm0-1.15c.25,0,.48-.06,.69-.18,.21-.12,.37-.29,.49-.49,.12-.2,.18-.43,.18-.69v-2.49c0-.26-.06-.49-.18-.69-.12-.2-.28-.37-.49-.49-.21-.12-.44-.18-.69-.18s-.48,.06-.69,.18c-.21,.12-.37,.29-.49,.49-.12,.21-.18,.44-.18,.69v2.49c0,.25,.06,.48,.18,.69,.12,.21,.28,.37,.49,.49,.21,.12,.44,.18,.69,.18Z"/><path class="cls-3" d="M430.14,120.12c-.51,0-.96-.11-1.35-.33-.39-.22-.69-.52-.91-.91-.22-.39-.33-.84-.33-1.35v-2.32c0-.51,.11-.96,.33-1.35,.22-.39,.52-.69,.91-.91,.39-.22,.84-.33,1.35-.33s.96,.11,1.35,.33c.39,.22,.69,.52,.91,.91,.22,.39,.33,.84,.33,1.35v2.32c0,.51-.11,.96-.33,1.35-.22,.39-.52,.69-.91,.91-.39,.22-.84,.33-1.35,.33Zm0-1.15c.25,0,.48-.06,.69-.18,.21-.12,.37-.29,.49-.49,.12-.2,.18-.43,.18-.69v-2.49c0-.26-.06-.49-.18-.69-.12-.2-.28-.37-.49-.49-.21-.12-.44-.18-.69-.18s-.48,.06-.69,.18c-.21,.12-.37,.29-.49,.49-.12,.21-.18,.44-.18,.69v2.49c0,.25,.06,.48,.18,.69,.12,.21,.28,.37,.49,.49,.21,.12,.44,.18,.69,.18Z"/><path class="cls-3" d="M435.83,116.22c-.33,0-.63-.08-.91-.24-.27-.16-.49-.38-.65-.65-.16-.27-.24-.57-.24-.91s.08-.63,.25-.9c.17-.27,.39-.49,.66-.66,.27-.16,.57-.24,.89-.24s.63,.08,.9,.24,.49,.38,.65,.65c.16,.27,.25,.57,.25,.91s-.08,.64-.25,.91-.38,.49-.65,.65c-.27,.16-.57,.24-.9,.24Zm-.7,3.75l-.8-.8,6.4-6.4,.8,.81-6.41,6.39Zm.7-4.78c.14,0,.27-.04,.38-.1,.12-.07,.21-.16,.28-.28,.07-.12,.1-.25,.1-.38s-.04-.27-.1-.38c-.07-.12-.16-.21-.28-.28-.12-.07-.25-.11-.38-.11s-.27,.04-.39,.11c-.12,.07-.21,.16-.28,.28-.07,.12-.11,.24-.11,.38s.04,.27,.11,.38c.07,.12,.16,.21,.28,.28,.12,.07,.25,.1,.39,.1Zm4.21,4.93c-.33,0-.63-.08-.9-.24-.27-.16-.49-.38-.65-.65s-.25-.57-.25-.91,.08-.63,.25-.9c.17-.27,.39-.49,.66-.66s.57-.25,.89-.25,.63,.08,.9,.24c.27,.16,.49,.38,.65,.65,.16,.27,.24,.57,.24,.91s-.08,.64-.24,.91c-.16,.27-.38,.49-.65,.65-.27,.16-.58,.24-.9,.24Zm0-1.03c.14,0,.26-.04,.38-.11,.12-.07,.21-.16,.28-.28,.07-.12,.11-.25,.11-.39s-.04-.27-.11-.38c-.07-.12-.16-.21-.28-.28-.12-.07-.25-.1-.38-.1s-.27,.04-.39,.1c-.12,.07-.21,.16-.28,.28-.07,.12-.11,.25-.11,.38s.04,.27,.11,.39c.07,.12,.17,.21,.28,.28,.12,.07,.25,.11,.39,.11Z"/></g><line class="cls-6" x1="257.49" y1="67.95" x2="442.76" y2="67.95"/><line class="cls-6" x1="257.49" y1="87.33" x2="442.76" y2="87.33"/><line class="cls-6" x1="257.49" y1="106.71" x2="442.76" y2="106.71"/><g><path class="cls-4" d="M258.19,166.29v-7.2h2.97c.07,0,.16,0,.27,0,.11,0,.21,.02,.3,.03,.42,.06,.76,.2,1.03,.42,.27,.21,.47,.48,.61,.81s.2,.69,.2,1.08-.07,.75-.2,1.08c-.13,.33-.34,.59-.61,.81-.27,.21-.61,.35-1.03,.42-.09,.01-.2,.02-.31,.03-.11,0-.2,.01-.27,.01h-1.77v2.51h-1.21Zm1.21-3.64h1.72c.07,0,.14,0,.22-.01,.08,0,.16-.02,.23-.04,.2-.05,.36-.14,.47-.26s.2-.27,.25-.43c.05-.16,.07-.32,.07-.47s-.02-.31-.07-.47c-.05-.16-.13-.31-.25-.43s-.27-.21-.47-.27c-.07-.02-.15-.03-.23-.04-.08,0-.16,0-.22,0h-1.72v2.43Z"/><path class="cls-4" d="M264.58,166.29v-5.4h1.06v1.32l-.13-.17c.07-.18,.16-.34,.27-.49,.11-.15,.25-.27,.4-.37,.13-.09,.28-.16,.44-.21,.16-.05,.33-.08,.5-.1s.33,0,.5,.02v1.12c-.16-.05-.34-.06-.55-.04s-.4,.08-.56,.18c-.17,.09-.3,.2-.41,.34-.11,.14-.18,.3-.23,.48-.05,.18-.08,.37-.08,.58v2.75h-1.21Z"/><path class="cls-4" d="M268.67,160.07v-1.11h1.21v1.11h-1.21Zm0,6.22v-5.4h1.21v5.4h-1.21Z"/><path class="cls-4" d="M272.83,166.29l-1.96-5.4h1.21l1.36,3.92,1.36-3.92h1.21l-1.96,5.4h-1.21Z"/><path class="cls-4" d="M278.12,166.44c-.39,0-.72-.07-.99-.22-.27-.15-.47-.35-.61-.59s-.21-.52-.21-.82c0-.26,.04-.49,.13-.7,.09-.21,.22-.39,.4-.54,.18-.15,.41-.28,.7-.37,.22-.07,.47-.13,.76-.19s.61-.11,.95-.16c.34-.05,.7-.1,1.07-.16l-.43,.24c0-.37-.08-.65-.25-.82s-.46-.27-.86-.27c-.24,0-.48,.06-.71,.17s-.38,.31-.47,.58l-1.1-.34c.13-.46,.39-.82,.76-1.1,.38-.28,.88-.42,1.52-.42,.48,0,.9,.08,1.27,.23,.37,.16,.64,.41,.81,.77,.1,.19,.16,.38,.17,.58,.02,.2,.03,.42,.03,.65v3.32h-1.05v-1.17l.17,.19c-.24,.39-.53,.68-.85,.86s-.73,.27-1.22,.27Zm.24-.96c.27,0,.51-.05,.7-.15s.35-.21,.46-.35c.12-.14,.19-.27,.23-.4,.06-.15,.1-.33,.11-.53,0-.2,.01-.36,.01-.48l.37,.11c-.36,.06-.67,.11-.93,.15-.26,.04-.48,.08-.67,.12-.19,.04-.35,.08-.5,.13-.14,.05-.26,.11-.36,.17-.1,.07-.17,.14-.22,.23s-.08,.19-.08,.3c0,.13,.03,.25,.1,.35,.07,.1,.16,.18,.29,.24,.13,.06,.29,.09,.48,.09Z"/><path class="cls-4" d="M281.77,161.83v-.95h3.77v.95h-3.77Zm3.77,4.46c-.36,.07-.71,.1-1.05,.09-.34,0-.65-.07-.92-.19-.27-.12-.48-.31-.62-.56-.12-.23-.19-.47-.2-.71s0-.52,0-.83v-4.7h1.2v4.62c0,.22,0,.41,0,.57,0,.16,.04,.3,.1,.4,.12,.2,.31,.31,.58,.33s.56,0,.9-.04v1.01Z"/><path class="cls-4" d="M288.89,166.44c-.55,0-1.03-.12-1.44-.36s-.74-.56-.97-.99c-.23-.42-.35-.9-.35-1.45,0-.59,.11-1.1,.34-1.54,.23-.43,.54-.77,.94-1.01,.4-.24,.87-.36,1.4-.36,.56,0,1.04,.13,1.43,.39s.68,.63,.87,1.11c.19,.48,.26,1.04,.21,1.68h-1.19v-.44c0-.59-.11-1.02-.31-1.29-.2-.27-.52-.41-.96-.41-.49,0-.86,.15-1.1,.46-.24,.3-.36,.75-.36,1.34,0,.55,.12,.97,.36,1.27,.24,.3,.59,.45,1.05,.45,.3,0,.55-.07,.77-.2s.38-.32,.5-.57l1.19,.36c-.21,.49-.53,.86-.96,1.13-.43,.27-.91,.41-1.43,.41Zm-1.86-2.52v-.91h3.71v.91h-3.71Z"/><path class="cls-4" d="M296.98,168.19c-.39-.45-.72-.97-1-1.54-.28-.57-.49-1.17-.63-1.8-.14-.63-.21-1.25-.2-1.87-.01-.62,.06-1.24,.2-1.87,.14-.63,.35-1.23,.63-1.8,.28-.57,.61-1.08,1-1.54l.89,.66c-.4,.48-.72,.97-.96,1.46s-.41,1-.51,1.51c-.1,.51-.16,1.04-.16,1.57,0,.54,.06,1.06,.16,1.57,.11,.51,.28,1.01,.51,1.51s.55,.98,.96,1.46l-.89,.67Z"/><path class="cls-4" d="M301.97,166.29v-1.19h-3.19v-1.12l2.3-4.88h1.38l-2.3,4.88h1.82v-1.88h1.22v1.88h.67v1.12h-.67v1.19h-1.22Z"/><path class="cls-4" d="M307.15,158.95c.47,0,.89,.11,1.27,.33s.67,.53,.89,.92c.22,.39,.33,.84,.33,1.35v2.19c0,.55-.11,1.02-.33,1.42s-.53,.71-.92,.94c-.4,.22-.85,.33-1.38,.33-.36,0-.71-.06-1.03-.18-.33-.12-.62-.32-.87-.58l.87-.84c.13,.15,.28,.27,.46,.35,.18,.09,.37,.13,.57,.13,.28,0,.53-.07,.74-.2,.21-.13,.37-.3,.49-.52,.12-.21,.17-.44,.17-.68v-1.2l.22,.24c-.21,.24-.46,.43-.75,.56s-.59,.2-.91,.2c-.45,0-.85-.1-1.2-.31-.35-.21-.62-.49-.82-.84-.2-.35-.3-.76-.3-1.21s.11-.86,.34-1.22c.23-.37,.53-.66,.91-.87,.38-.21,.79-.32,1.25-.32Zm0,1.16c-.23,0-.45,.06-.64,.17s-.35,.26-.46,.46c-.12,.19-.17,.4-.17,.64s.06,.45,.17,.64,.27,.35,.46,.46c.19,.12,.4,.17,.64,.17s.45-.06,.64-.17,.35-.27,.46-.46,.17-.41,.17-.64-.06-.44-.17-.63c-.11-.19-.26-.34-.46-.46-.19-.12-.4-.17-.64-.17Z"/><path class="cls-4" d="M312.74,162.54c-.33,0-.63-.08-.91-.24-.27-.16-.49-.38-.65-.65-.16-.27-.24-.57-.24-.91s.08-.63,.25-.9c.17-.27,.39-.49,.66-.66,.27-.16,.57-.24,.89-.24s.63,.08,.9,.24,.49,.38,.65,.65c.16,.27,.25,.57,.25,.91s-.08,.64-.25,.91-.38,.49-.65,.65c-.27,.16-.57,.24-.9,.24Zm-.7,3.75l-.8-.8,6.4-6.4,.8,.81-6.41,6.39Zm.7-4.78c.14,0,.27-.04,.38-.1,.12-.07,.21-.16,.28-.28,.07-.12,.1-.25,.1-.38s-.04-.27-.1-.38c-.07-.12-.16-.21-.28-.28-.12-.07-.25-.11-.38-.11s-.27,.04-.39,.11c-.12,.07-.21,.16-.28,.28-.07,.12-.11,.24-.11,.38s.04,.27,.11,.38c.07,.12,.16,.21,.28,.28,.12,.07,.25,.1,.39,.1Zm4.21,4.93c-.33,0-.63-.08-.9-.24-.27-.16-.49-.38-.65-.65s-.25-.57-.25-.91,.08-.63,.25-.9c.17-.27,.39-.49,.66-.66s.57-.25,.89-.25,.63,.08,.9,.24c.27,.16,.49,.38,.65,.65,.16,.27,.24,.57,.24,.91s-.08,.64-.24,.91c-.16,.27-.38,.49-.65,.65-.27,.16-.58,.24-.9,.24Zm0-1.03c.14,0,.26-.04,.38-.11,.12-.07,.21-.16,.28-.28,.07-.12,.11-.25,.11-.39s-.04-.27-.11-.38c-.07-.12-.16-.21-.28-.28-.12-.07-.25-.1-.38-.1s-.27,.04-.39,.1c-.12,.07-.21,.16-.28,.28-.07,.12-.11,.25-.11,.38s.04,.27,.11,.39c.07,.12,.17,.21,.28,.28,.12,.07,.25,.11,.39,.11Z"/><path class="cls-4" d="M319.76,167.53c.4-.48,.72-.96,.96-1.46,.24-.5,.41-1,.51-1.51,.1-.51,.16-1.04,.16-1.57,0-.54-.06-1.06-.16-1.57s-.27-1.01-.51-1.51-.56-.98-.96-1.46l.89-.66c.39,.45,.72,.96,1,1.54,.28,.57,.49,1.17,.63,1.8,.14,.63,.21,1.25,.2,1.87,0,.62-.06,1.24-.2,1.87-.14,.63-.35,1.23-.63,1.8-.28,.57-.61,1.08-1,1.54l-.89-.67Z"/></g><g><path class="cls-3" d="M260.11,185.7v-6.5h-2.52v-.71h5.77v.71h-2.52v6.5h-.73Z"/><path class="cls-3" d="M265.64,185.85c-.53,0-.98-.12-1.37-.35-.38-.23-.68-.56-.9-.98-.21-.42-.32-.92-.32-1.49s.1-1.1,.31-1.53,.51-.76,.89-1,.83-.35,1.35-.35,.99,.12,1.37,.37c.38,.25,.66,.6,.85,1.05s.28,1,.27,1.63h-.75v-.26c-.01-.7-.17-1.23-.45-1.58s-.71-.54-1.26-.54-1.02,.19-1.33,.57c-.31,.38-.46,.91-.46,1.61s.15,1.21,.46,1.58,.75,.56,1.31,.56c.39,0,.72-.09,1.01-.27,.29-.18,.52-.44,.68-.77l.68,.26c-.21,.47-.53,.83-.94,1.09-.42,.26-.88,.39-1.41,.39Zm-2.07-2.65v-.62h4.12v.62h-4.12Z"/><path class="cls-3" d="M270.66,185.85c-.41,0-.75-.07-1.02-.22-.28-.15-.48-.34-.62-.58-.14-.24-.21-.51-.21-.79s.06-.54,.18-.75c.12-.21,.28-.38,.49-.51,.21-.13,.44-.24,.71-.3,.27-.07,.58-.13,.91-.18,.33-.05,.66-.1,.97-.13,.32-.04,.6-.08,.84-.11l-.26,.16c0-.53-.09-.93-.31-1.18s-.59-.39-1.13-.39c-.37,0-.68,.08-.94,.25-.25,.17-.43,.43-.54,.79l-.71-.21c.12-.48,.37-.86,.74-1.12,.37-.27,.86-.4,1.46-.4,.49,0,.91,.09,1.26,.28s.59,.45,.73,.8c.07,.16,.11,.33,.13,.52,.02,.19,.03,.39,.03,.59v3.36h-.66v-1.36l.19,.08c-.18,.46-.47,.82-.86,1.06s-.85,.37-1.39,.37Zm.08-.64c.34,0,.64-.06,.9-.18,.26-.12,.46-.29,.62-.51,.16-.21,.26-.46,.31-.73,.04-.17,.06-.36,.06-.57,0-.21,0-.36,0-.47l.28,.15c-.25,.03-.52,.07-.81,.1s-.58,.07-.86,.12c-.28,.04-.54,.09-.76,.16-.15,.04-.3,.1-.45,.18-.14,.08-.26,.18-.35,.31-.09,.13-.14,.29-.14,.48,0,.16,.04,.31,.12,.46,.08,.15,.2,.27,.38,.37,.17,.1,.41,.14,.7,.14Z"/><path class="cls-3" d="M274.66,185.7v-5.4h.66v1.33h.08v4.07h-.74Zm3.23,0v-3.5c0-.43-.11-.77-.34-1.02-.23-.25-.53-.37-.9-.37s-.67,.13-.9,.38c-.23,.26-.35,.59-.35,1.02l-.44-.24c0-.35,.08-.66,.25-.93,.16-.28,.39-.49,.67-.65s.6-.24,.96-.24,.65,.07,.92,.22c.27,.15,.48,.36,.63,.64,.15,.28,.23,.62,.23,1.02v3.67h-.73Zm3.21,0v-3.54c0-.42-.11-.74-.34-.98-.23-.24-.53-.36-.88-.36-.2,0-.4,.05-.59,.14-.19,.09-.35,.24-.48,.45s-.19,.48-.19,.81l-.44-.12c0-.39,.07-.72,.23-1.01,.16-.29,.38-.52,.67-.68,.29-.16,.61-.24,.97-.24,.54,0,.98,.17,1.3,.5,.33,.34,.49,.79,.49,1.36v3.68h-.74Z"/><path class="cls-3" d="M287.46,185.85c-.4,0-.77-.06-1.11-.17s-.63-.3-.86-.54c-.18-.19-.31-.41-.4-.65-.09-.24-.13-.49-.14-.76,0-.25,.03-.5,.11-.75,.08-.25,.2-.47,.36-.67,.1-.12,.21-.22,.33-.3,.12-.08,.25-.15,.38-.2-.25-.26-.44-.5-.57-.72s-.2-.49-.2-.82c0-.37,.09-.71,.28-1.02s.45-.54,.78-.68c.17-.08,.34-.13,.52-.16,.18-.03,.36-.05,.53-.05,.27,0,.53,.04,.79,.11,.26,.08,.48,.19,.67,.35,.12,.1,.23,.21,.32,.34,.09,.13,.17,.27,.22,.41l-.71,.21c-.07-.18-.19-.33-.35-.46-.13-.1-.27-.17-.44-.21s-.33-.06-.5-.06c-.28,0-.54,.05-.77,.17-.2,.1-.35,.24-.45,.42-.1,.18-.15,.38-.15,.62,0,.2,.03,.37,.1,.5,.07,.13,.16,.27,.29,.43,.07,.08,.16,.16,.25,.24s.18,.17,.28,.25l2.28,2.11c.01-.09,.02-.18,.02-.27,0-.09,0-.18,0-.26v-1.06s.69,0,.69,0v1.11c0,.26,0,.48-.03,.64-.02,.17-.05,.31-.08,.42l.93,.86-.48,.51-.79-.75c-.11,.14-.25,.27-.42,.38-.17,.11-.34,.2-.5,.27-.18,.08-.37,.13-.57,.16s-.4,.04-.61,.04Zm.01-.71c.19,0,.36-.01,.51-.04s.3-.07,.44-.15c.18-.09,.31-.18,.39-.26,.09-.08,.16-.15,.21-.22l-2.34-2.14c-.14,.04-.27,.1-.39,.18s-.23,.16-.31,.27c-.1,.12-.17,.26-.21,.42s-.07,.32-.07,.5c0,.18,.04,.35,.09,.51,.05,.15,.14,.29,.25,.41,.16,.18,.37,.32,.63,.4,.26,.08,.53,.12,.8,.12Z"/><path class="cls-3" d="M295.21,185.85c-.41,0-.75-.07-1.02-.22-.28-.15-.48-.34-.62-.58-.14-.24-.21-.51-.21-.79s.06-.54,.18-.75c.12-.21,.28-.38,.49-.51,.21-.13,.44-.24,.71-.3,.27-.07,.58-.13,.91-.18,.33-.05,.66-.1,.97-.13,.32-.04,.6-.08,.84-.11l-.26,.16c0-.53-.09-.93-.31-1.18s-.59-.39-1.13-.39c-.37,0-.68,.08-.94,.25-.25,.17-.43,.43-.54,.79l-.71-.21c.12-.48,.37-.86,.74-1.12,.37-.27,.86-.4,1.46-.4,.49,0,.91,.09,1.26,.28s.59,.45,.73,.8c.07,.16,.11,.33,.13,.52,.02,.19,.03,.39,.03,.59v3.36h-.66v-1.36l.19,.08c-.18,.46-.47,.82-.86,1.06s-.85,.37-1.39,.37Zm.08-.64c.34,0,.64-.06,.9-.18,.26-.12,.46-.29,.62-.51,.16-.21,.26-.46,.31-.73,.04-.17,.06-.36,.06-.57,0-.21,0-.36,0-.47l.28,.15c-.25,.03-.52,.07-.81,.1s-.58,.07-.86,.12c-.28,.04-.54,.09-.76,.16-.15,.04-.3,.1-.45,.18-.14,.08-.26,.18-.35,.31-.09,.13-.14,.29-.14,.48,0,.16,.04,.31,.12,.46,.08,.15,.2,.27,.38,.37,.17,.1,.41,.14,.7,.14Z"/><path class="cls-3" d="M301.31,185.85c-.5,0-.93-.13-1.29-.38s-.63-.59-.82-1.02c-.19-.43-.28-.92-.28-1.46s.09-1.02,.28-1.45c.19-.43,.46-.77,.81-1.02s.78-.38,1.27-.38,.93,.12,1.28,.37c.35,.25,.61,.58,.79,1.01,.18,.43,.27,.92,.27,1.46s-.09,1.02-.26,1.45c-.18,.43-.44,.77-.78,1.03-.34,.25-.76,.38-1.26,.38Zm.08-.69c.38,0,.7-.09,.95-.28,.25-.19,.44-.44,.56-.77,.12-.33,.19-.7,.19-1.12s-.06-.8-.19-1.12c-.12-.33-.31-.58-.56-.76s-.56-.28-.94-.28-.71,.1-.96,.29c-.25,.19-.44,.45-.56,.78-.12,.33-.18,.69-.18,1.1s.06,.78,.19,1.11,.31,.59,.56,.78c.25,.19,.56,.29,.94,.29Zm1.7,.54v-4.07h-.08v-3.13h.74v7.2h-.66Z"/><path class="cls-3" d="M306.6,185.7l-1.96-5.4h.75l1.59,4.44,1.58-4.44h.75l-1.96,5.4h-.76Z"/><path class="cls-3" d="M310.32,179.28v-.83h.74v.83h-.74Zm0,6.42v-5.4h.74v5.4h-.74Z"/><path class="cls-3" d="M314.57,185.85c-.63,0-1.15-.14-1.56-.41-.41-.27-.66-.65-.75-1.14l.75-.12c.08,.31,.26,.55,.55,.73s.64,.27,1.06,.27,.73-.08,.97-.26c.24-.17,.36-.41,.36-.7,0-.17-.04-.3-.11-.41-.08-.1-.23-.2-.46-.29-.23-.09-.57-.2-1.03-.32-.49-.13-.87-.27-1.15-.4-.28-.13-.47-.29-.59-.46-.12-.18-.17-.39-.17-.64,0-.31,.09-.58,.26-.81,.17-.23,.41-.41,.72-.54s.66-.19,1.07-.19,.77,.07,1.09,.2c.32,.13,.58,.32,.78,.55,.2,.24,.31,.51,.35,.83l-.75,.13c-.05-.32-.21-.57-.47-.75-.26-.18-.6-.28-1.01-.29-.38,0-.7,.06-.94,.22-.24,.15-.36,.36-.36,.62,0,.14,.04,.27,.13,.37,.09,.1,.24,.2,.47,.29,.23,.09,.55,.19,.98,.29,.5,.13,.89,.26,1.17,.4,.28,.14,.49,.31,.61,.5,.12,.19,.18,.42,.18,.71,0,.51-.19,.91-.57,1.2-.38,.29-.9,.44-1.56,.44Z"/><path class="cls-3" d="M320.06,185.85c-.54,0-1-.12-1.38-.37s-.67-.58-.88-1.01c-.2-.43-.3-.92-.3-1.48s.1-1.06,.31-1.49,.5-.76,.88-1,.84-.36,1.36-.36,1,.12,1.38,.36c.38,.24,.67,.58,.88,1,.2,.43,.3,.92,.3,1.48s-.1,1.06-.3,1.49c-.2,.43-.5,.76-.88,1-.38,.24-.84,.36-1.38,.36Zm0-.71c.6,0,1.05-.2,1.34-.6s.44-.92,.44-1.55-.15-1.17-.44-1.56c-.3-.39-.74-.58-1.34-.58-.4,0-.74,.09-1,.27s-.46,.43-.58,.75c-.13,.32-.19,.69-.19,1.11,0,.65,.15,1.17,.45,1.56s.74,.59,1.33,.59Z"/><path class="cls-3" d="M323.72,185.7v-5.4h.66v1.3l-.13-.17c.06-.16,.14-.31,.23-.44,.1-.13,.2-.25,.32-.33,.14-.12,.3-.22,.49-.28,.19-.07,.38-.1,.57-.12s.36,0,.52,.04v.69c-.2-.05-.41-.06-.65-.04s-.45,.12-.64,.28c-.18,.14-.32,.31-.41,.5-.09,.2-.15,.4-.18,.62-.03,.22-.05,.43-.05,.65v2.7h-.73Z"/><path class="cls-3" d="M329.17,185.85c-.63,0-1.15-.14-1.56-.41-.41-.27-.66-.65-.75-1.14l.75-.12c.08,.31,.26,.55,.55,.73s.64,.27,1.06,.27,.73-.08,.97-.26c.24-.17,.36-.41,.36-.7,0-.17-.04-.3-.11-.41-.08-.1-.23-.2-.46-.29-.23-.09-.57-.2-1.03-.32-.49-.13-.87-.27-1.15-.4-.28-.13-.47-.29-.59-.46-.12-.18-.17-.39-.17-.64,0-.31,.09-.58,.26-.81,.17-.23,.41-.41,.72-.54s.66-.19,1.07-.19,.77,.07,1.09,.2c.32,.13,.58,.32,.78,.55,.2,.24,.31,.51,.35,.83l-.75,.13c-.05-.32-.21-.57-.47-.75-.26-.18-.6-.28-1.01-.29-.38,0-.7,.06-.94,.22-.24,.15-.36,.36-.36,.62,0,.14,.04,.27,.13,.37,.09,.1,.24,.2,.47,.29,.23,.09,.55,.19,.98,.29,.5,.13,.89,.26,1.17,.4,.28,.14,.49,.31,.61,.5,.12,.19,.18,.42,.18,.71,0,.51-.19,.91-.57,1.2-.38,.29-.9,.44-1.56,.44Z"/></g><g><path class="cls-3" d="M260.69,205.27c-.5,0-.96-.08-1.36-.25-.4-.17-.73-.41-1-.72-.26-.31-.43-.68-.51-1.1l.75-.12c.12,.47,.37,.83,.76,1.1,.39,.26,.85,.4,1.39,.4,.35,0,.67-.06,.95-.17,.28-.11,.5-.27,.66-.48,.16-.21,.24-.45,.24-.73,0-.19-.03-.35-.1-.48-.07-.13-.16-.24-.27-.33-.11-.09-.23-.16-.36-.22-.13-.06-.26-.11-.38-.14l-1.82-.54c-.22-.06-.42-.14-.61-.24-.19-.1-.35-.22-.49-.35s-.25-.3-.32-.49c-.08-.19-.12-.4-.12-.64,0-.41,.11-.76,.32-1.05,.21-.3,.51-.53,.88-.69,.37-.16,.79-.24,1.27-.23,.48,0,.91,.08,1.29,.25,.38,.17,.69,.41,.94,.73,.25,.31,.41,.69,.49,1.12l-.77,.14c-.05-.31-.16-.58-.34-.81-.18-.23-.41-.41-.69-.53s-.58-.19-.92-.19c-.32,0-.61,.05-.86,.16-.25,.11-.45,.26-.6,.44-.15,.19-.22,.4-.22,.64s.07,.44,.2,.58c.13,.15,.3,.26,.5,.35,.2,.08,.39,.15,.58,.21l1.41,.42c.15,.04,.32,.1,.52,.17s.39,.18,.58,.32,.34,.32,.47,.54c.12,.22,.19,.51,.19,.85s-.07,.63-.2,.89c-.13,.26-.32,.49-.56,.67-.24,.18-.52,.32-.83,.41-.32,.09-.67,.14-1.04,.14Z"/><path class="cls-3" d="M266.64,205.27c-.53,0-.98-.12-1.37-.35-.38-.23-.68-.56-.9-.98-.21-.42-.32-.92-.32-1.49s.1-1.1,.31-1.53,.51-.76,.89-1,.83-.35,1.35-.35,.99,.12,1.37,.37c.38,.25,.66,.6,.85,1.05s.28,1,.27,1.63h-.75v-.26c-.01-.7-.17-1.23-.45-1.58s-.71-.54-1.26-.54-1.02,.19-1.33,.57c-.31,.38-.46,.91-.46,1.61s.15,1.21,.46,1.58,.75,.56,1.31,.56c.39,0,.72-.09,1.01-.27,.29-.18,.52-.44,.68-.77l.68,.26c-.21,.47-.53,.83-.94,1.09-.42,.26-.88,.39-1.41,.39Zm-2.07-2.65v-.62h4.12v.62h-4.12Z"/><path class="cls-3" d="M272.49,205.27c-.53,0-.98-.12-1.37-.35-.38-.23-.68-.56-.9-.98-.21-.42-.32-.92-.32-1.49s.1-1.1,.31-1.53,.51-.76,.89-1,.83-.35,1.35-.35,.99,.12,1.37,.37c.38,.25,.66,.6,.85,1.05s.28,1,.27,1.63h-.75v-.26c-.01-.7-.17-1.23-.45-1.58s-.71-.54-1.26-.54-1.02,.19-1.33,.57c-.31,.38-.46,.91-.46,1.61s.15,1.21,.46,1.58,.75,.56,1.31,.56c.39,0,.72-.09,1.01-.27,.29-.18,.52-.44,.68-.77l.68,.26c-.21,.47-.53,.83-.94,1.09-.42,.26-.88,.39-1.41,.39Zm-2.07-2.65v-.62h4.12v.62h-4.12Z"/><path class="cls-3" d="M278.14,205.27c-.5,0-.93-.13-1.29-.38s-.63-.59-.82-1.02c-.19-.43-.28-.92-.28-1.46s.09-1.02,.28-1.45c.19-.43,.46-.77,.81-1.02s.78-.38,1.27-.38,.93,.12,1.28,.37c.35,.25,.61,.58,.79,1.01,.18,.43,.27,.92,.27,1.46s-.09,1.02-.26,1.45c-.18,.43-.44,.77-.78,1.03-.34,.25-.76,.38-1.26,.38Zm.08-.69c.38,0,.7-.09,.95-.28,.25-.19,.44-.44,.56-.77,.12-.33,.19-.7,.19-1.12s-.06-.8-.19-1.12c-.12-.33-.31-.58-.56-.76s-.56-.28-.94-.28-.71,.1-.96,.29c-.25,.19-.44,.45-.56,.78-.12,.33-.18,.69-.18,1.1s.06,.78,.19,1.11,.31,.59,.56,.78c.25,.19,.56,.29,.94,.29Zm1.7,.54v-4.07h-.08v-3.13h.74v7.2h-.66Z"/><path class="cls-3" d="M283.97,205.12v-5.4h.66v1.3l-.13-.17c.06-.16,.14-.31,.23-.44,.1-.13,.2-.25,.32-.33,.14-.12,.3-.22,.49-.28,.19-.07,.38-.1,.57-.12s.36,0,.52,.04v.69c-.2-.05-.41-.06-.65-.04s-.45,.12-.64,.28c-.18,.14-.32,.31-.41,.5-.09,.2-.15,.4-.18,.62-.03,.22-.05,.43-.05,.65v2.7h-.73Z"/><path class="cls-3" d="M289.76,205.27c-.54,0-1-.12-1.38-.37s-.67-.58-.88-1.01c-.2-.43-.3-.92-.3-1.48s.1-1.06,.31-1.49,.5-.76,.88-1,.84-.36,1.36-.36,1,.12,1.38,.36c.38,.24,.67,.58,.88,1,.2,.43,.3,.92,.3,1.48s-.1,1.06-.3,1.49c-.2,.43-.5,.76-.88,1-.38,.24-.84,.36-1.38,.36Zm0-.71c.6,0,1.05-.2,1.34-.6s.44-.92,.44-1.55-.15-1.17-.44-1.56c-.3-.39-.74-.58-1.34-.58-.4,0-.74,.09-1,.27s-.46,.43-.58,.75c-.13,.32-.19,.69-.19,1.11,0,.65,.15,1.17,.45,1.56s.74,.59,1.33,.59Z"/><path class="cls-3" d="M295.49,205.26c-.32,0-.61-.05-.85-.15-.24-.1-.45-.24-.62-.41-.17-.17-.3-.36-.41-.58-.1-.22-.18-.45-.22-.69s-.07-.49-.07-.73v-2.97h.74v2.76c0,.3,.03,.57,.08,.82,.06,.25,.15,.47,.27,.66s.29,.33,.49,.44,.44,.15,.72,.15c.26,0,.49-.04,.69-.13s.36-.22,.5-.39c.13-.17,.24-.37,.31-.61,.07-.24,.1-.51,.1-.82l.52,.11c0,.55-.1,1.02-.29,1.4s-.46,.66-.8,.85c-.34,.19-.73,.29-1.17,.29Zm1.82-.13v-1.33h-.08v-4.07h.74v5.4h-.66Z"/><path class="cls-3" d="M299.36,205.12v-5.4h.67v1.33h.07v4.07h-.74Zm3.9,0v-2.75c0-.3-.03-.58-.08-.83-.06-.25-.15-.47-.27-.66s-.29-.33-.48-.44-.44-.16-.72-.16c-.26,0-.49,.04-.69,.13s-.37,.22-.5,.39-.24,.37-.31,.61-.11,.51-.11,.82l-.52-.12c0-.55,.1-1.02,.29-1.39,.19-.38,.46-.66,.8-.86s.73-.29,1.17-.29c.32,0,.61,.05,.85,.15,.24,.1,.45,.23,.62,.4,.17,.17,.3,.36,.41,.58s.18,.45,.22,.7c.05,.25,.07,.49,.07,.73v2.97h-.74Z"/><path class="cls-3" d="M307.37,205.27c-.5,0-.93-.13-1.29-.38s-.63-.59-.82-1.02c-.19-.43-.28-.92-.28-1.46s.09-1.02,.28-1.45c.19-.43,.46-.77,.81-1.02s.78-.38,1.27-.38,.93,.12,1.28,.37c.35,.25,.61,.58,.79,1.01,.18,.43,.27,.92,.27,1.46s-.09,1.02-.26,1.45c-.18,.43-.44,.77-.78,1.03-.34,.25-.76,.38-1.26,.38Zm.08-.69c.38,0,.7-.09,.95-.28,.25-.19,.44-.44,.56-.77,.12-.33,.19-.7,.19-1.12s-.06-.8-.19-1.12c-.12-.33-.31-.58-.56-.76s-.56-.28-.94-.28-.71,.1-.96,.29c-.25,.19-.44,.45-.56,.78-.12,.33-.18,.69-.18,1.1s.06,.78,.19,1.11,.31,.59,.56,.78c.25,.19,.56,.29,.94,.29Zm1.7,.54v-4.07h-.08v-3.13h.74v7.2h-.66Z"/></g><g><path class="cls-3" d="M258.19,224.54v-7.2h2.78c.07,0,.15,0,.24,0,.09,0,.18,.02,.27,.03,.38,.06,.7,.19,.96,.39s.46,.46,.59,.77c.14,.31,.2,.65,.2,1.03s-.07,.71-.21,1.02c-.14,.31-.34,.57-.6,.77-.26,.21-.58,.34-.95,.39-.09,.01-.18,.02-.27,.03-.09,0-.17,0-.24,0h-2.05v2.74h-.73Zm.73-3.43h2.03c.06,0,.13,0,.21-.01,.08,0,.16-.02,.24-.04,.25-.05,.45-.15,.61-.3,.16-.15,.28-.33,.35-.54,.08-.21,.12-.42,.12-.64s-.04-.44-.12-.65-.2-.39-.35-.54c-.16-.15-.36-.25-.61-.3-.08-.02-.16-.03-.24-.03s-.15,0-.21,0h-2.03v3.06Z"/><path class="cls-3" d="M264.23,224.54v-5.4h.66v1.3l-.13-.17c.06-.16,.14-.31,.23-.44,.1-.13,.2-.25,.32-.33,.14-.12,.3-.22,.49-.28,.19-.07,.38-.1,.57-.12s.36,0,.52,.04v.69c-.2-.05-.41-.06-.65-.04s-.45,.12-.64,.28c-.18,.14-.32,.31-.41,.5-.09,.2-.15,.4-.18,.62-.03,.22-.05,.43-.05,.65v2.7h-.73Z"/><path class="cls-3" d="M267.94,218.11v-.83h.74v.83h-.74Zm0,6.42v-5.4h.74v5.4h-.74Z"/><path class="cls-3" d="M271.63,224.54l-1.96-5.4h.75l1.59,4.44,1.58-4.44h.75l-1.96,5.4h-.76Z"/><path class="cls-3" d="M276.52,224.69c-.41,0-.75-.07-1.02-.22-.28-.15-.48-.34-.62-.58-.14-.24-.21-.51-.21-.79s.06-.54,.18-.75c.12-.21,.28-.38,.49-.51,.21-.13,.44-.24,.71-.3,.27-.07,.58-.13,.91-.18,.33-.05,.66-.1,.97-.13,.32-.04,.6-.08,.84-.11l-.26,.16c0-.53-.09-.93-.31-1.18s-.59-.39-1.13-.39c-.37,0-.68,.08-.94,.25-.25,.17-.43,.43-.54,.79l-.71-.21c.12-.48,.37-.86,.74-1.12,.37-.27,.86-.4,1.46-.4,.49,0,.91,.09,1.26,.28s.59,.45,.73,.8c.07,.16,.11,.33,.13,.52,.02,.19,.03,.39,.03,.59v3.36h-.66v-1.36l.19,.08c-.18,.46-.47,.82-.86,1.06s-.85,.37-1.39,.37Zm.08-.64c.34,0,.64-.06,.9-.18,.26-.12,.46-.29,.62-.51,.16-.21,.26-.46,.31-.73,.04-.17,.06-.36,.06-.57,0-.21,0-.36,0-.47l.28,.15c-.25,.03-.52,.07-.81,.1s-.58,.07-.86,.12c-.28,.04-.54,.09-.76,.16-.15,.04-.3,.1-.45,.18-.14,.08-.26,.18-.35,.31-.09,.13-.14,.29-.14,.48,0,.16,.04,.31,.12,.46,.08,.15,.2,.27,.38,.37,.17,.1,.41,.14,.7,.14Z"/><path class="cls-3" d="M279.93,219.77v-.63h3.54v.63h-3.54Zm3.54,4.77c-.3,.06-.6,.09-.9,.08-.29-.01-.56-.08-.79-.19-.23-.11-.41-.29-.53-.53-.1-.2-.15-.4-.16-.61,0-.2-.01-.44-.01-.7v-4.95h.73v4.92c0,.23,0,.42,0,.57,0,.15,.04,.29,.1,.4,.12,.22,.31,.36,.57,.4,.26,.04,.58,.03,.97-.03v.64Z"/><path class="cls-3" d="M286.63,224.69c-.53,0-.98-.12-1.37-.35-.38-.23-.68-.56-.9-.98-.21-.42-.32-.92-.32-1.49s.1-1.1,.31-1.53,.51-.76,.89-1,.83-.35,1.35-.35,.99,.12,1.37,.37c.38,.25,.66,.6,.85,1.05s.28,1,.27,1.63h-.75v-.26c-.01-.7-.17-1.23-.45-1.58s-.71-.54-1.26-.54-1.02,.19-1.33,.57c-.31,.38-.46,.91-.46,1.61s.15,1.21,.46,1.58,.75,.56,1.31,.56c.39,0,.72-.09,1.01-.27,.29-.18,.52-.44,.68-.77l.68,.26c-.21,.47-.53,.83-.94,1.09-.42,.26-.88,.39-1.41,.39Zm-2.07-2.65v-.62h4.12v.62h-4.12Z"/><path class="cls-3" d="M292.19,224.54v-5.4h.66v1.3l-.13-.17c.06-.16,.14-.31,.23-.44,.1-.13,.2-.25,.32-.33,.14-.12,.3-.22,.49-.28,.19-.07,.38-.1,.57-.12s.36,0,.52,.04v.69c-.2-.05-.41-.06-.65-.04s-.45,.12-.64,.28c-.18,.14-.32,.31-.41,.5-.09,.2-.15,.4-.18,.62-.03,.22-.05,.43-.05,.65v2.7h-.73Z"/><path class="cls-3" d="M297.96,224.69c-.54,0-1-.12-1.38-.37s-.67-.58-.88-1.01c-.2-.43-.3-.92-.3-1.48s.1-1.06,.31-1.49,.5-.76,.88-1,.84-.36,1.36-.36,1,.12,1.38,.36c.38,.24,.67,.58,.88,1,.2,.43,.3,.92,.3,1.48s-.1,1.06-.3,1.49c-.2,.43-.5,.76-.88,1-.38,.24-.84,.36-1.38,.36Zm0-.71c.6,0,1.05-.2,1.34-.6s.44-.92,.44-1.55-.15-1.17-.44-1.56c-.3-.39-.74-.58-1.34-.58-.4,0-.74,.09-1,.27s-.46,.43-.58,.75c-.13,.32-.19,.69-.19,1.11,0,.65,.15,1.17,.45,1.56s.74,.59,1.33,.59Z"/><path class="cls-3" d="M303.68,224.67c-.32,0-.61-.05-.85-.15-.24-.1-.45-.24-.62-.41-.17-.17-.3-.36-.41-.58-.1-.22-.18-.45-.22-.69s-.07-.49-.07-.73v-2.97h.74v2.76c0,.3,.03,.57,.08,.82,.06,.25,.15,.47,.27,.66s.29,.33,.49,.44,.44,.15,.72,.15c.26,0,.49-.04,.69-.13s.36-.22,.5-.39c.13-.17,.24-.37,.31-.61,.07-.24,.1-.51,.1-.82l.52,.11c0,.55-.1,1.02-.29,1.4s-.46,.66-.8,.85c-.34,.19-.73,.29-1.17,.29Zm1.82-.13v-1.33h-.08v-4.07h.74v5.4h-.66Z"/><path class="cls-3" d="M307.55,224.54v-5.4h.67v1.33h.07v4.07h-.74Zm3.9,0v-2.75c0-.3-.03-.58-.08-.83-.06-.25-.15-.47-.27-.66s-.29-.33-.48-.44-.44-.16-.72-.16c-.26,0-.49,.04-.69,.13s-.37,.22-.5,.39-.24,.37-.31,.61-.11,.51-.11,.82l-.52-.12c0-.55,.1-1.02,.29-1.39,.19-.38,.46-.66,.8-.86s.73-.29,1.17-.29c.32,0,.61,.05,.85,.15,.24,.1,.45,.23,.62,.4,.17,.17,.3,.36,.41,.58s.18,.45,.22,.7c.05,.25,.07,.49,.07,.73v2.97h-.74Z"/><path class="cls-3" d="M315.56,224.69c-.5,0-.93-.13-1.29-.38s-.63-.59-.82-1.02c-.19-.43-.28-.92-.28-1.46s.09-1.02,.28-1.45c.19-.43,.46-.77,.81-1.02s.78-.38,1.27-.38,.93,.12,1.28,.37c.35,.25,.61,.58,.79,1.01,.18,.43,.27,.92,.27,1.46s-.09,1.02-.26,1.45c-.18,.43-.44,.77-.78,1.03-.34,.25-.76,.38-1.26,.38Zm.08-.69c.38,0,.7-.09,.95-.28,.25-.19,.44-.44,.56-.77,.12-.33,.19-.7,.19-1.12s-.06-.8-.19-1.12c-.12-.33-.31-.58-.56-.76s-.56-.28-.94-.28-.71,.1-.96,.29c-.25,.19-.44,.45-.56,.78-.12,.33-.18,.69-.18,1.1s.06,.78,.19,1.11,.31,.59,.56,.78c.25,.19,.56,.29,.94,.29Zm1.7,.54v-4.07h-.08v-3.13h.74v7.2h-.66Z"/><path class="cls-3" d="M322.65,224.54v-6.38l-1.36,.81v-.82l1.36-.81h.75v7.2h-.75Z"/></g><g><path class="cls-3" d="M258.19,243.96v-7.2h2.78c.07,0,.15,0,.24,0,.09,0,.18,.02,.27,.03,.38,.06,.7,.19,.96,.39s.46,.46,.59,.77c.14,.31,.2,.65,.2,1.03s-.07,.71-.21,1.02c-.14,.31-.34,.57-.6,.77-.26,.21-.58,.34-.95,.39-.09,.01-.18,.02-.27,.03-.09,0-.17,0-.24,0h-2.05v2.74h-.73Zm.73-3.43h2.03c.06,0,.13,0,.21-.01,.08,0,.16-.02,.24-.04,.25-.05,.45-.15,.61-.3,.16-.15,.28-.33,.35-.54,.08-.21,.12-.42,.12-.64s-.04-.44-.12-.65-.2-.39-.35-.54c-.16-.15-.36-.25-.61-.3-.08-.02-.16-.03-.24-.03s-.15,0-.21,0h-2.03v3.06Z"/><path class="cls-3" d="M264.23,243.96v-5.4h.66v1.3l-.13-.17c.06-.16,.14-.31,.23-.44,.1-.13,.2-.25,.32-.33,.14-.12,.3-.22,.49-.28,.19-.07,.38-.1,.57-.12s.36,0,.52,.04v.69c-.2-.05-.41-.06-.65-.04s-.45,.12-.64,.28c-.18,.14-.32,.31-.41,.5-.09,.2-.15,.4-.18,.62-.03,.22-.05,.43-.05,.65v2.7h-.73Z"/><path class="cls-3" d="M267.94,237.53v-.83h.74v.83h-.74Zm0,6.42v-5.4h.74v5.4h-.74Z"/><path class="cls-3" d="M271.63,243.96l-1.96-5.4h.75l1.59,4.44,1.58-4.44h.75l-1.96,5.4h-.76Z"/><path class="cls-3" d="M276.52,244.11c-.41,0-.75-.07-1.02-.22-.28-.15-.48-.34-.62-.58-.14-.24-.21-.51-.21-.79s.06-.54,.18-.75c.12-.21,.28-.38,.49-.51,.21-.13,.44-.24,.71-.3,.27-.07,.58-.13,.91-.18,.33-.05,.66-.1,.97-.13,.32-.04,.6-.08,.84-.11l-.26,.16c0-.53-.09-.93-.31-1.18s-.59-.39-1.13-.39c-.37,0-.68,.08-.94,.25-.25,.17-.43,.43-.54,.79l-.71-.21c.12-.48,.37-.86,.74-1.12,.37-.27,.86-.4,1.46-.4,.49,0,.91,.09,1.26,.28s.59,.45,.73,.8c.07,.16,.11,.33,.13,.52,.02,.19,.03,.39,.03,.59v3.36h-.66v-1.36l.19,.08c-.18,.46-.47,.82-.86,1.06s-.85,.37-1.39,.37Zm.08-.64c.34,0,.64-.06,.9-.18,.26-.12,.46-.29,.62-.51,.16-.21,.26-.46,.31-.73,.04-.17,.06-.36,.06-.57,0-.21,0-.36,0-.47l.28,.15c-.25,.03-.52,.07-.81,.1s-.58,.07-.86,.12c-.28,.04-.54,.09-.76,.16-.15,.04-.3,.1-.45,.18-.14,.08-.26,.18-.35,.31-.09,.13-.14,.29-.14,.48,0,.16,.04,.31,.12,.46,.08,.15,.2,.27,.38,.37,.17,.1,.41,.14,.7,.14Z"/><path class="cls-3" d="M279.93,239.19v-.63h3.54v.63h-3.54Zm3.54,4.77c-.3,.06-.6,.09-.9,.08-.29-.01-.56-.08-.79-.19-.23-.11-.41-.29-.53-.53-.1-.2-.15-.4-.16-.61,0-.2-.01-.44-.01-.7v-4.95h.73v4.92c0,.23,0,.42,0,.57,0,.15,.04,.29,.1,.4,.12,.22,.31,.36,.57,.4,.26,.04,.58,.03,.97-.03v.64Z"/><path class="cls-3" d="M286.63,244.11c-.53,0-.98-.12-1.37-.35-.38-.23-.68-.56-.9-.98-.21-.42-.32-.92-.32-1.49s.1-1.1,.31-1.53,.51-.76,.89-1,.83-.35,1.35-.35,.99,.12,1.37,.37c.38,.25,.66,.6,.85,1.05s.28,1,.27,1.63h-.75v-.26c-.01-.7-.17-1.23-.45-1.58s-.71-.54-1.26-.54-1.02,.19-1.33,.57c-.31,.38-.46,.91-.46,1.61s.15,1.21,.46,1.58,.75,.56,1.31,.56c.39,0,.72-.09,1.01-.27,.29-.18,.52-.44,.68-.77l.68,.26c-.21,.47-.53,.83-.94,1.09-.42,.26-.88,.39-1.41,.39Zm-2.07-2.65v-.62h4.12v.62h-4.12Z"/><path class="cls-3" d="M292.19,243.96v-5.4h.66v1.3l-.13-.17c.06-.16,.14-.31,.23-.44,.1-.13,.2-.25,.32-.33,.14-.12,.3-.22,.49-.28,.19-.07,.38-.1,.57-.12s.36,0,.52,.04v.69c-.2-.05-.41-.06-.65-.04s-.45,.12-.64,.28c-.18,.14-.32,.31-.41,.5-.09,.2-.15,.4-.18,.62-.03,.22-.05,.43-.05,.65v2.7h-.73Z"/><path class="cls-3" d="M297.96,244.11c-.54,0-1-.12-1.38-.37s-.67-.58-.88-1.01c-.2-.43-.3-.92-.3-1.48s.1-1.06,.31-1.49,.5-.76,.88-1,.84-.36,1.36-.36,1,.12,1.38,.36c.38,.24,.67,.58,.88,1,.2,.43,.3,.92,.3,1.48s-.1,1.06-.3,1.49c-.2,.43-.5,.76-.88,1-.38,.24-.84,.36-1.38,.36Zm0-.71c.6,0,1.05-.2,1.34-.6s.44-.92,.44-1.55-.15-1.17-.44-1.56c-.3-.39-.74-.58-1.34-.58-.4,0-.74,.09-1,.27s-.46,.43-.58,.75c-.13,.32-.19,.69-.19,1.11,0,.65,.15,1.17,.45,1.56s.74,.59,1.33,.59Z"/><path class="cls-3" d="M303.68,244.09c-.32,0-.61-.05-.85-.15-.24-.1-.45-.24-.62-.41-.17-.17-.3-.36-.41-.58-.1-.22-.18-.45-.22-.69s-.07-.49-.07-.73v-2.97h.74v2.76c0,.3,.03,.57,.08,.82,.06,.25,.15,.47,.27,.66s.29,.33,.49,.44,.44,.15,.72,.15c.26,0,.49-.04,.69-.13s.36-.22,.5-.39c.13-.17,.24-.37,.31-.61,.07-.24,.1-.51,.1-.82l.52,.11c0,.55-.1,1.02-.29,1.4s-.46,.66-.8,.85c-.34,.19-.73,.29-1.17,.29Zm1.82-.13v-1.33h-.08v-4.07h.74v5.4h-.66Z"/><path class="cls-3" d="M307.55,243.96v-5.4h.67v1.33h.07v4.07h-.74Zm3.9,0v-2.75c0-.3-.03-.58-.08-.83-.06-.25-.15-.47-.27-.66s-.29-.33-.48-.44-.44-.16-.72-.16c-.26,0-.49,.04-.69,.13s-.37,.22-.5,.39-.24,.37-.31,.61-.11,.51-.11,.82l-.52-.12c0-.55,.1-1.02,.29-1.39,.19-.38,.46-.66,.8-.86s.73-.29,1.17-.29c.32,0,.61,.05,.85,.15,.24,.1,.45,.23,.62,.4,.17,.17,.3,.36,.41,.58s.18,.45,.22,.7c.05,.25,.07,.49,.07,.73v2.97h-.74Z"/><path class="cls-3" d="M315.56,244.11c-.5,0-.93-.13-1.29-.38s-.63-.59-.82-1.02c-.19-.43-.28-.92-.28-1.46s.09-1.02,.28-1.45c.19-.43,.46-.77,.81-1.02s.78-.38,1.27-.38,.93,.12,1.28,.37c.35,.25,.61,.58,.79,1.01,.18,.43,.27,.92,.27,1.46s-.09,1.02-.26,1.45c-.18,.43-.44,.77-.78,1.03-.34,.25-.76,.38-1.26,.38Zm.08-.69c.38,0,.7-.09,.95-.28,.25-.19,.44-.44,.56-.77,.12-.33,.19-.7,.19-1.12s-.06-.8-.19-1.12c-.12-.33-.31-.58-.56-.76s-.56-.28-.94-.28-.71,.1-.96,.29c-.25,.19-.44,.45-.56,.78-.12,.33-.18,.69-.18,1.1s.06,.78,.19,1.11,.31,.59,.56,.78c.25,.19,.56,.29,.94,.29Zm1.7,.54v-4.07h-.08v-3.13h.74v7.2h-.66Z"/><path class="cls-3" d="M321.19,243.95v-.67s3.26-2.94,3.26-2.94c.28-.25,.47-.49,.56-.72,.09-.23,.14-.47,.14-.72,0-.3-.07-.57-.21-.81-.14-.24-.33-.43-.57-.57-.24-.14-.5-.21-.79-.21s-.58,.07-.82,.22c-.24,.15-.43,.34-.57,.58-.14,.24-.21,.5-.2,.79h-.75c0-.44,.1-.83,.31-1.18,.21-.35,.49-.62,.84-.82,.35-.2,.75-.3,1.2-.3s.83,.1,1.18,.31c.35,.21,.62,.48,.83,.83,.2,.35,.3,.74,.3,1.16,0,.3-.04,.56-.11,.79-.07,.23-.18,.44-.33,.64-.15,.19-.34,.4-.58,.6l-2.89,2.61-.12-.3h4.03v.71h-4.7Z"/></g><g><path class="cls-3" d="M409.62,185.72v-5.88l-1.35,.83v-1.33l1.35-.81h1.23v7.2h-1.23Z"/><path class="cls-3" d="M414.89,185.87c-.37,0-.71-.08-1.03-.23-.32-.15-.59-.36-.82-.63s-.39-.58-.49-.93l1.16-.31c.05,.19,.13,.36,.26,.5,.12,.14,.27,.25,.44,.33,.17,.08,.34,.12,.52,.12,.23,0,.45-.06,.64-.17s.35-.27,.46-.46c.11-.19,.17-.4,.17-.64s-.06-.45-.17-.64c-.12-.19-.27-.34-.46-.46-.19-.11-.4-.17-.63-.17-.28,0-.51,.05-.69,.15-.18,.1-.32,.21-.42,.32l-1.03-.33,.22-3.81h3.91v1.13h-3.26l.45-.42-.16,2.65-.22-.27c.19-.17,.4-.3,.65-.38,.25-.08,.49-.12,.71-.12,.45,0,.85,.1,1.2,.31,.35,.21,.62,.48,.82,.84,.2,.35,.3,.75,.3,1.21s-.12,.86-.35,1.22c-.23,.37-.54,.66-.92,.87-.38,.22-.8,.33-1.25,.33Z"/><path class="cls-3" d="M418.62,185.72v-1.24h1.23v1.24h-1.23Z"/><path class="cls-3" d="M422.71,185.72v-5.88l-1.35,.83v-1.33l1.35-.81h1.23v7.2h-1.23Z"/><path class="cls-3" d="M428.83,185.72v-1.19h-3.19v-1.12l2.3-4.88h1.38l-2.3,4.88h1.82v-1.88h1.22v1.88h.67v1.12h-.67v1.19h-1.22Z"/><path class="cls-3" d="M433.62,181.97c-.33,0-.63-.08-.91-.24-.27-.16-.49-.38-.65-.65-.16-.27-.24-.57-.24-.91s.08-.63,.25-.9c.17-.27,.39-.49,.66-.66,.27-.16,.57-.24,.89-.24s.63,.08,.9,.24,.49,.38,.65,.65c.16,.27,.25,.57,.25,.91s-.08,.64-.25,.91-.38,.49-.65,.65c-.27,.16-.57,.24-.9,.24Zm-.7,3.75l-.8-.8,6.4-6.4,.8,.81-6.41,6.39Zm.7-4.78c.14,0,.27-.04,.38-.1,.12-.07,.21-.16,.28-.28,.07-.12,.1-.25,.1-.38s-.04-.27-.1-.38c-.07-.12-.16-.21-.28-.28-.12-.07-.25-.11-.38-.11s-.27,.04-.39,.11c-.12,.07-.21,.16-.28,.28-.07,.12-.11,.24-.11,.38s.04,.27,.11,.38c.07,.12,.16,.21,.28,.28,.12,.07,.25,.1,.39,.1Zm4.21,4.93c-.33,0-.63-.08-.9-.24-.27-.16-.49-.38-.65-.65s-.25-.57-.25-.91,.08-.63,.25-.9c.17-.27,.39-.49,.66-.66s.57-.25,.89-.25,.63,.08,.9,.24c.27,.16,.49,.38,.65,.65,.16,.27,.24,.57,.24,.91s-.08,.64-.24,.91c-.16,.27-.38,.49-.65,.65-.27,.16-.58,.24-.9,.24Zm0-1.03c.14,0,.26-.04,.38-.11,.12-.07,.21-.16,.28-.28,.07-.12,.11-.25,.11-.39s-.04-.27-.11-.38c-.07-.12-.16-.21-.28-.28-.12-.07-.25-.1-.38-.1s-.27,.04-.39,.1c-.12,.07-.21,.16-.28,.28-.07,.12-.11,.25-.11,.38s.04,.27,.11,.39c.07,.12,.17,.21,.28,.28,.12,.07,.25,.11,.39,.11Z"/></g><g><path class="cls-3" d="M405.99,205.13v-1.05l3.08-2.75c.24-.21,.41-.42,.5-.61,.09-.19,.14-.37,.14-.55,0-.24-.05-.45-.15-.64-.1-.19-.25-.34-.43-.45-.18-.11-.39-.17-.63-.17-.25,0-.47,.06-.66,.17-.19,.12-.34,.27-.45,.46-.11,.19-.16,.39-.15,.62h-1.24c0-.48,.11-.9,.32-1.25,.22-.36,.51-.63,.89-.83,.38-.2,.82-.29,1.31-.29,.46,0,.87,.1,1.24,.31,.37,.21,.65,.49,.86,.85s.32,.78,.32,1.25c0,.34-.05,.63-.14,.87-.09,.23-.23,.45-.42,.65-.18,.2-.41,.42-.69,.65l-2.18,1.94-.11-.3h3.54v1.13h-4.96Z"/><path class="cls-3" d="M413.39,205.14v-5.88l-1.35,.83v-1.33l1.35-.81h1.23v7.2h-1.23Z"/><path class="cls-3" d="M416.72,205.14v-1.24h1.23v1.24h-1.23Z"/><path class="cls-3" d="M422.55,205.14v-1.19h-3.19v-1.12l2.3-4.88h1.38l-2.3,4.88h1.82v-1.88h1.22v1.88h.67v1.12h-.67v1.19h-1.22Z"/><path class="cls-3" d="M426.01,205.14l2.48-6.06h-3.14v-1.14h4.43v1.14l-2.47,6.06h-1.3Z"/><path class="cls-3" d="M432.68,201.39c-.33,0-.63-.08-.91-.24-.27-.16-.49-.38-.65-.65-.16-.27-.24-.57-.24-.91s.08-.63,.25-.9c.17-.27,.39-.49,.66-.66,.27-.16,.57-.24,.89-.24s.63,.08,.9,.24,.49,.38,.65,.65c.16,.27,.25,.57,.25,.91s-.08,.64-.25,.91-.38,.49-.65,.65c-.27,.16-.57,.24-.9,.24Zm-.7,3.75l-.8-.8,6.4-6.4,.8,.81-6.41,6.39Zm.7-4.78c.14,0,.27-.04,.38-.1,.12-.07,.21-.16,.28-.28,.07-.12,.1-.25,.1-.38s-.04-.27-.1-.38c-.07-.12-.16-.21-.28-.28-.12-.07-.25-.11-.38-.11s-.27,.04-.39,.11c-.12,.07-.21,.16-.28,.28-.07,.12-.11,.24-.11,.38s.04,.27,.11,.38c.07,.12,.16,.21,.28,.28,.12,.07,.25,.1,.39,.1Zm4.21,4.93c-.33,0-.63-.08-.9-.24-.27-.16-.49-.38-.65-.65s-.25-.57-.25-.91,.08-.63,.25-.9c.17-.27,.39-.49,.66-.66s.57-.25,.89-.25,.63,.08,.9,.24c.27,.16,.49,.38,.65,.65,.16,.27,.24,.57,.24,.91s-.08,.64-.24,.91c-.16,.27-.38,.49-.65,.65-.27,.16-.58,.24-.9,.24Zm0-1.03c.14,0,.26-.04,.38-.11,.12-.07,.21-.16,.28-.28,.07-.12,.11-.25,.11-.39s-.04-.27-.11-.38c-.07-.12-.16-.21-.28-.28-.12-.07-.25-.1-.38-.1s-.27,.04-.39,.1c-.12,.07-.21,.16-.28,.28-.07,.12-.11,.25-.11,.38s.04,.27,.11,.39c.07,.12,.17,.21,.28,.28,.12,.07,.25,.11,.39,.11Z"/></g><g><path class="cls-3" d="M410.21,224.56v-5.88l-1.35,.83v-1.33l1.35-.81h1.23v7.2h-1.23Z"/><path class="cls-3" d="M415.93,224.71c-.51,0-.96-.11-1.35-.33-.39-.22-.69-.52-.91-.91-.22-.39-.33-.84-.33-1.35v-2.32c0-.51,.11-.96,.33-1.35,.22-.39,.52-.69,.91-.91,.39-.22,.84-.33,1.35-.33s.96,.11,1.35,.33c.39,.22,.69,.52,.91,.91,.22,.39,.33,.84,.33,1.35v2.32c0,.51-.11,.96-.33,1.35-.22,.39-.52,.69-.91,.91-.39,.22-.84,.33-1.35,.33Zm0-1.15c.25,0,.48-.06,.69-.18,.21-.12,.37-.29,.49-.49,.12-.2,.18-.43,.18-.69v-2.49c0-.26-.06-.49-.18-.69-.12-.2-.28-.37-.49-.49-.21-.12-.44-.18-.69-.18s-.48,.06-.69,.18c-.21,.12-.37,.29-.49,.49-.12,.21-.18,.44-.18,.69v2.49c0,.25,.06,.48,.18,.69,.12,.21,.28,.37,.49,.49,.21,.12,.44,.18,.69,.18Z"/><path class="cls-3" d="M420.12,224.56v-1.24h1.23v1.24h-1.23Z"/><path class="cls-3" d="M423.32,224.56l2.48-6.06h-3.14v-1.14h4.43v1.14l-2.47,6.06h-1.3Z"/><path class="cls-3" d="M430.35,224.69c-.36,0-.7-.07-1.02-.21-.32-.14-.6-.34-.83-.59-.23-.26-.4-.56-.51-.91l1.17-.31c.08,.29,.24,.51,.46,.66s.47,.23,.73,.23c.24,0,.45-.05,.63-.17s.33-.26,.44-.45,.16-.4,.16-.63c0-.36-.12-.66-.35-.89-.23-.24-.53-.36-.89-.36-.11,0-.22,.01-.32,.04-.11,.03-.21,.07-.3,.12l-.55-.95,2.42-2.07,.11,.29h-3.43v-1.13h4.42v1.14l-1.94,1.87v-.35c.43,.03,.8,.15,1.11,.37,.31,.21,.54,.49,.71,.82,.17,.34,.25,.71,.25,1.11,0,.45-.11,.86-.33,1.22-.22,.36-.52,.64-.89,.85-.37,.21-.78,.31-1.23,.31Z"/><path class="cls-3" d="M435.81,220.81c-.33,0-.63-.08-.91-.24-.27-.16-.49-.38-.65-.65-.16-.27-.24-.57-.24-.91s.08-.63,.25-.9c.17-.27,.39-.49,.66-.66,.27-.16,.57-.24,.89-.24s.63,.08,.9,.24,.49,.38,.65,.65c.16,.27,.25,.57,.25,.91s-.08,.64-.25,.91-.38,.49-.65,.65c-.27,.16-.57,.24-.9,.24Zm-.7,3.75l-.8-.8,6.4-6.4,.8,.81-6.41,6.39Zm.7-4.78c.14,0,.27-.04,.38-.1,.12-.07,.21-.16,.28-.28,.07-.12,.1-.25,.1-.38s-.04-.27-.1-.38c-.07-.12-.16-.21-.28-.28-.12-.07-.25-.11-.38-.11s-.27,.04-.39,.11c-.12,.07-.21,.16-.28,.28-.07,.12-.11,.24-.11,.38s.04,.27,.11,.38c.07,.12,.16,.21,.28,.28,.12,.07,.25,.1,.39,.1Zm4.21,4.93c-.33,0-.63-.08-.9-.24-.27-.16-.49-.38-.65-.65s-.25-.57-.25-.91,.08-.63,.25-.9c.17-.27,.39-.49,.66-.66s.57-.25,.89-.25,.63,.08,.9,.24c.27,.16,.49,.38,.65,.65,.16,.27,.24,.57,.24,.91s-.08,.64-.24,.91c-.16,.27-.38,.49-.65,.65-.27,.16-.58,.24-.9,.24Zm0-1.03c.14,0,.26-.04,.38-.11,.12-.07,.21-.16,.28-.28,.07-.12,.11-.25,.11-.39s-.04-.27-.11-.38c-.07-.12-.16-.21-.28-.28-.12-.07-.25-.1-.38-.1s-.27,.04-.39,.1c-.12,.07-.21,.16-.28,.28-.07,.12-.11,.25-.11,.38s.04,.27,.11,.39c.07,.12,.17,.21,.28,.28,.12,.07,.25,.11,.39,.11Z"/></g><g><path class="cls-3" d="M414.92,243.98v-5.88l-1.35,.83v-1.33l1.35-.81h1.23v7.2h-1.23Z"/><path class="cls-3" d="M418.25,243.98v-1.24h1.23v1.24h-1.23Z"/><path class="cls-3" d="M423.57,244.13c-.47,0-.89-.11-1.27-.33s-.67-.53-.89-.92c-.22-.39-.33-.84-.33-1.35v-2.19c0-.55,.11-1.02,.33-1.42,.22-.4,.53-.71,.92-.93,.4-.22,.85-.33,1.38-.33,.36,0,.71,.06,1.04,.18,.33,.12,.62,.32,.87,.58l-.87,.84c-.13-.15-.28-.27-.46-.35s-.37-.13-.57-.13c-.28,0-.53,.07-.74,.2s-.37,.3-.49,.52-.17,.44-.17,.68v1.2l-.22-.24c.21-.24,.46-.43,.75-.56,.29-.13,.59-.2,.91-.2,.45,0,.85,.1,1.2,.31s.62,.49,.82,.84c.2,.36,.3,.76,.3,1.21s-.11,.86-.34,1.22c-.23,.37-.53,.66-.91,.87-.38,.22-.79,.32-1.24,.32Zm0-1.16c.23,0,.45-.06,.64-.17,.19-.11,.35-.26,.46-.46,.11-.19,.17-.4,.17-.64s-.06-.45-.17-.64-.27-.35-.46-.46c-.19-.12-.4-.17-.64-.17s-.45,.06-.64,.17c-.19,.11-.35,.27-.46,.46s-.17,.41-.17,.64,.06,.44,.17,.63c.11,.19,.26,.34,.46,.46,.19,.12,.4,.17,.64,.17Z"/><path class="cls-3" d="M429.79,244.13c-.47,0-.89-.11-1.27-.33s-.67-.53-.89-.92c-.22-.39-.33-.84-.33-1.35v-2.19c0-.55,.11-1.02,.33-1.42,.22-.4,.53-.71,.92-.93,.4-.22,.85-.33,1.38-.33,.36,0,.71,.06,1.04,.18,.33,.12,.62,.32,.87,.58l-.87,.84c-.13-.15-.28-.27-.46-.35s-.37-.13-.57-.13c-.28,0-.53,.07-.74,.2s-.37,.3-.49,.52-.17,.44-.17,.68v1.2l-.22-.24c.21-.24,.46-.43,.75-.56,.29-.13,.59-.2,.91-.2,.45,0,.85,.1,1.2,.31s.62,.49,.82,.84c.2,.36,.3,.76,.3,1.21s-.11,.86-.34,1.22c-.23,.37-.53,.66-.91,.87-.38,.22-.79,.32-1.24,.32Zm0-1.16c.23,0,.45-.06,.64-.17,.19-.11,.35-.26,.46-.46,.11-.19,.17-.4,.17-.64s-.06-.45-.17-.64-.27-.35-.46-.46c-.19-.12-.4-.17-.64-.17s-.45,.06-.64,.17c-.19,.11-.35,.27-.46,.46s-.17,.41-.17,.64,.06,.44,.17,.63c.11,.19,.26,.34,.46,.46,.19,.12,.4,.17,.64,.17Z"/><path class="cls-3" d="M435.21,240.23c-.33,0-.63-.08-.91-.24-.27-.16-.49-.38-.65-.65-.16-.27-.24-.57-.24-.91s.08-.63,.25-.9c.17-.27,.39-.49,.66-.66,.27-.16,.57-.24,.89-.24s.63,.08,.9,.24,.49,.38,.65,.65c.16,.27,.25,.57,.25,.91s-.08,.64-.25,.91-.38,.49-.65,.65c-.27,.16-.57,.24-.9,.24Zm-.7,3.75l-.8-.8,6.4-6.4,.8,.81-6.41,6.39Zm.7-4.78c.14,0,.27-.04,.38-.1,.12-.07,.21-.16,.28-.28,.07-.12,.1-.25,.1-.38s-.04-.27-.1-.38c-.07-.12-.16-.21-.28-.28-.12-.07-.25-.11-.38-.11s-.27,.04-.39,.11c-.12,.07-.21,.16-.28,.28-.07,.12-.11,.24-.11,.38s.04,.27,.11,.38c.07,.12,.16,.21,.28,.28,.12,.07,.25,.1,.39,.1Zm4.21,4.93c-.33,0-.63-.08-.9-.24-.27-.16-.49-.38-.65-.65s-.25-.57-.25-.91,.08-.63,.25-.9c.17-.27,.39-.49,.66-.66s.57-.25,.89-.25,.63,.08,.9,.24c.27,.16,.49,.38,.65,.65,.16,.27,.24,.57,.24,.91s-.08,.64-.24,.91c-.16,.27-.38,.49-.65,.65-.27,.16-.58,.24-.9,.24Zm0-1.03c.14,0,.26-.04,.38-.11,.12-.07,.21-.16,.28-.28,.07-.12,.11-.25,.11-.39s-.04-.27-.11-.38c-.07-.12-.16-.21-.28-.28-.12-.07-.25-.1-.38-.1s-.27,.04-.39,.1c-.12,.07-.21,.16-.28,.28-.07,.12-.11,.25-.11,.38s.04,.27,.11,.39c.07,.12,.17,.21,.28,.28,.12,.07,.25,.11,.39,.11Z"/></g><line class="cls-6" x1="257.49" y1="191.94" x2="442.76" y2="191.94"/><line class="cls-6" x1="257.49" y1="172.53" x2="442.76" y2="172.53"/><line class="cls-6" x1="257.49" y1="211.36" x2="442.76" y2="211.36"/><line class="cls-6" x1="257.49" y1="230.77" x2="442.76" y2="230.77"/><g><path class="cls-3" d="M258.19,33.96v-7.2h1.08l2.49,5.1,2.49-5.1h1.08v7.2h-1.12v-4.62l-2.21,4.62h-.48l-2.21-4.62v4.62h-1.13Z"/><path class="cls-3" d="M266.84,27.74v-1.11h1.21v1.11h-1.21Zm0,6.22v-5.4h1.21v5.4h-1.21Z"/><path class="cls-3" d="M269.54,33.96v-5.4h1.07v1.68h.15v3.72h-1.22Zm3.74,0v-2.6c0-.17-.01-.36-.03-.57-.02-.21-.08-.41-.16-.6-.08-.19-.21-.35-.38-.47-.17-.12-.4-.18-.68-.18-.15,0-.3,.03-.46,.08-.15,.05-.29,.14-.41,.26-.12,.12-.22,.29-.29,.5-.07,.21-.11,.48-.11,.81l-.71-.3c0-.46,.09-.88,.27-1.25,.18-.37,.44-.67,.79-.89s.77-.33,1.28-.33c.4,0,.73,.07,.99,.2,.26,.13,.47,.3,.62,.51,.15,.21,.27,.43,.34,.66,.07,.23,.12,.45,.14,.66,.02,.21,.03,.38,.03,.51v3.01h-1.22Z"/><path class="cls-3" d="M275.9,27.74v-1.11h1.21v1.11h-1.21Zm0,6.22v-5.4h1.21v5.4h-1.21Z"/><path class="cls-3" d="M278.6,33.96v-5.4h1.06v1.68h.15v3.72h-1.21Zm3.25,0v-3.26c0-.38-.09-.67-.28-.88-.18-.21-.43-.32-.75-.32s-.55,.1-.74,.32c-.19,.21-.28,.48-.28,.82l-.54-.36c0-.35,.09-.67,.26-.95,.17-.28,.41-.5,.7-.66,.29-.16,.63-.24,.99-.24,.4,0,.74,.09,1.01,.26,.27,.17,.48,.41,.61,.7s.2,.63,.2,1v3.58h-1.2Zm3.24,0v-3.28c0-.37-.09-.66-.27-.87s-.43-.31-.75-.31c-.19,0-.37,.04-.52,.13-.15,.09-.27,.22-.36,.39s-.14,.38-.14,.61l-.53-.31c0-.37,.08-.7,.25-.99,.17-.28,.4-.51,.7-.67,.29-.16,.62-.24,.98-.24,.6,0,1.05,.18,1.37,.54s.48,.83,.48,1.41v3.58h-1.21Z"/><path class="cls-3" d="M289.11,34.11c-.39,0-.72-.07-.99-.22-.27-.15-.47-.35-.61-.59s-.21-.52-.21-.82c0-.26,.04-.49,.13-.7,.09-.21,.22-.39,.4-.54,.18-.15,.41-.28,.7-.37,.22-.07,.47-.13,.76-.19s.61-.11,.95-.16c.34-.05,.7-.1,1.07-.16l-.43,.24c0-.37-.08-.65-.25-.82s-.46-.27-.86-.27c-.24,0-.48,.06-.71,.17s-.38,.31-.47,.58l-1.1-.34c.13-.46,.39-.82,.76-1.1,.38-.28,.88-.42,1.52-.42,.48,0,.9,.08,1.27,.23,.37,.16,.64,.41,.81,.77,.1,.19,.16,.38,.17,.58,.02,.2,.03,.42,.03,.65v3.32h-1.05v-1.17l.17,.19c-.24,.39-.53,.68-.85,.86s-.73,.27-1.22,.27Zm.24-.96c.27,0,.51-.05,.7-.15s.35-.21,.46-.35c.12-.14,.19-.27,.23-.4,.06-.15,.1-.33,.11-.53,0-.2,.01-.36,.01-.48l.37,.11c-.36,.06-.67,.11-.93,.15-.26,.04-.48,.08-.67,.12-.19,.04-.35,.08-.5,.13-.14,.05-.26,.11-.36,.17-.1,.07-.17,.14-.22,.23s-.08,.19-.08,.3c0,.13,.03,.25,.1,.35,.07,.1,.16,.18,.29,.24,.13,.06,.29,.09,.48,.09Z"/><path class="cls-3" d="M297.7,34.11c-.56,0-1.03-.12-1.42-.37s-.69-.59-.9-1.02c-.21-.43-.31-.92-.32-1.46,0-.55,.11-1.04,.33-1.47,.21-.43,.52-.76,.92-1.01,.4-.25,.87-.37,1.42-.37,.61,0,1.13,.15,1.56,.46,.43,.31,.7,.73,.83,1.26l-1.2,.33c-.09-.29-.25-.52-.46-.68-.22-.16-.46-.24-.74-.24-.31,0-.57,.07-.78,.22-.2,.15-.35,.35-.45,.61s-.15,.55-.15,.88c0,.51,.12,.93,.34,1.25,.23,.32,.57,.47,1.03,.47,.32,0,.57-.07,.76-.22,.18-.15,.32-.36,.42-.63l1.23,.28c-.17,.55-.46,.97-.88,1.27-.42,.3-.93,.44-1.53,.44Z"/><path class="cls-3" d="M303.37,34.11c-.54,0-1.01-.12-1.42-.37s-.72-.58-.94-1.01c-.22-.43-.33-.92-.33-1.48s.11-1.06,.34-1.49c.23-.43,.54-.76,.94-1,.4-.24,.87-.36,1.4-.36s1.02,.12,1.42,.37c.4,.24,.72,.58,.94,1.01,.22,.43,.33,.92,.33,1.48s-.11,1.05-.34,1.48c-.22,.43-.54,.76-.94,1-.4,.24-.88,.36-1.42,.36Zm0-1.13c.48,0,.84-.16,1.07-.48s.35-.73,.35-1.24-.12-.94-.35-1.25c-.24-.31-.59-.47-1.07-.47-.32,0-.59,.07-.8,.22-.21,.14-.36,.35-.46,.6-.1,.26-.15,.56-.15,.9,0,.52,.12,.94,.36,1.25s.59,.47,1.05,.47Z"/><path class="cls-3" d="M307.26,27.74v-1.11h1.21v1.11h-1.21Zm0,6.22v-5.4h1.21v5.4h-1.21Z"/><path class="cls-3" d="M309.96,33.96v-5.4h1.07v1.68h.15v3.72h-1.22Zm3.74,0v-2.6c0-.17-.01-.36-.03-.57-.02-.21-.08-.41-.16-.6-.08-.19-.21-.35-.38-.47-.17-.12-.4-.18-.68-.18-.15,0-.3,.03-.46,.08-.15,.05-.29,.14-.41,.26-.12,.12-.22,.29-.29,.5-.07,.21-.11,.48-.11,.81l-.71-.3c0-.46,.09-.88,.27-1.25,.18-.37,.44-.67,.79-.89s.77-.33,1.28-.33c.4,0,.73,.07,.99,.2,.26,.13,.47,.3,.62,.51,.15,.21,.27,.43,.34,.66,.07,.23,.12,.45,.14,.66,.02,.21,.03,.38,.03,.51v3.01h-1.22Z"/><path class="cls-3" d="M319.73,34.11c-.39,0-.72-.07-.99-.22-.27-.15-.47-.35-.61-.59s-.21-.52-.21-.82c0-.26,.04-.49,.13-.7,.09-.21,.22-.39,.4-.54,.18-.15,.41-.28,.7-.37,.22-.07,.47-.13,.76-.19s.61-.11,.95-.16c.34-.05,.7-.1,1.07-.16l-.43,.24c0-.37-.08-.65-.25-.82s-.46-.27-.86-.27c-.24,0-.48,.06-.71,.17s-.38,.31-.47,.58l-1.1-.34c.13-.46,.39-.82,.76-1.1,.38-.28,.88-.42,1.52-.42,.48,0,.9,.08,1.27,.23,.37,.16,.64,.41,.81,.77,.1,.19,.16,.38,.17,.58,.02,.2,.03,.42,.03,.65v3.32h-1.05v-1.17l.17,.19c-.24,.39-.53,.68-.85,.86s-.73,.27-1.22,.27Zm.24-.96c.27,0,.51-.05,.7-.15s.35-.21,.46-.35c.12-.14,.19-.27,.23-.4,.06-.15,.1-.33,.11-.53,0-.2,.01-.36,.01-.48l.37,.11c-.36,.06-.67,.11-.93,.15-.26,.04-.48,.08-.67,.12-.19,.04-.35,.08-.5,.13-.14,.05-.26,.11-.36,.17-.1,.07-.17,.14-.22,.23s-.08,.19-.08,.3c0,.13,.03,.25,.1,.35,.07,.1,.16,.18,.29,.24,.13,.06,.29,.09,.48,.09Z"/><path class="cls-3" d="M324.08,33.96v-7.35h1.21v7.35h-1.21Z"/><path class="cls-3" d="M326.89,33.96v-7.35h1.21v7.35h-1.21Z"/><path class="cls-3" d="M331.98,34.11c-.54,0-1.01-.12-1.42-.37s-.72-.58-.94-1.01c-.22-.43-.33-.92-.33-1.48s.11-1.06,.34-1.49c.23-.43,.54-.76,.94-1,.4-.24,.87-.36,1.4-.36s1.02,.12,1.42,.37c.4,.24,.72,.58,.94,1.01,.22,.43,.33,.92,.33,1.48s-.11,1.05-.34,1.48c-.22,.43-.54,.76-.94,1-.4,.24-.88,.36-1.42,.36Zm0-1.13c.48,0,.84-.16,1.07-.48s.35-.73,.35-1.24-.12-.94-.35-1.25c-.24-.31-.59-.47-1.07-.47-.32,0-.59,.07-.8,.22-.21,.14-.36,.35-.46,.6-.1,.26-.15,.56-.15,.9,0,.52,.12,.94,.36,1.25s.59,.47,1.05,.47Z"/><path class="cls-3" d="M338.11,34.11c-.56,0-1.03-.12-1.42-.37s-.69-.59-.9-1.02c-.21-.43-.31-.92-.32-1.46,0-.55,.11-1.04,.33-1.47,.21-.43,.52-.76,.92-1.01,.4-.25,.87-.37,1.42-.37,.61,0,1.13,.15,1.56,.46,.43,.31,.7,.73,.83,1.26l-1.2,.33c-.09-.29-.25-.52-.46-.68-.22-.16-.46-.24-.74-.24-.31,0-.57,.07-.78,.22-.2,.15-.35,.35-.45,.61s-.15,.55-.15,.88c0,.51,.12,.93,.34,1.25,.23,.32,.57,.47,1.03,.47,.32,0,.57-.07,.76-.22,.18-.15,.32-.36,.42-.63l1.23,.28c-.17,.55-.46,.97-.88,1.27-.42,.3-.93,.44-1.53,.44Z"/><path class="cls-3" d="M342.98,34.11c-.39,0-.72-.07-.99-.22-.27-.15-.47-.35-.61-.59s-.21-.52-.21-.82c0-.26,.04-.49,.13-.7,.09-.21,.22-.39,.4-.54,.18-.15,.41-.28,.7-.37,.22-.07,.47-.13,.76-.19s.61-.11,.95-.16c.34-.05,.7-.1,1.07-.16l-.43,.24c0-.37-.08-.65-.25-.82s-.46-.27-.86-.27c-.24,0-.48,.06-.71,.17s-.38,.31-.47,.58l-1.1-.34c.13-.46,.39-.82,.76-1.1,.38-.28,.88-.42,1.52-.42,.48,0,.9,.08,1.27,.23,.37,.16,.64,.41,.81,.77,.1,.19,.16,.38,.17,.58,.02,.2,.03,.42,.03,.65v3.32h-1.05v-1.17l.17,.19c-.24,.39-.53,.68-.85,.86s-.73,.27-1.22,.27Zm.24-.96c.27,0,.51-.05,.7-.15s.35-.21,.46-.35c.12-.14,.19-.27,.23-.4,.06-.15,.1-.33,.11-.53,0-.2,.01-.36,.01-.48l.37,.11c-.36,.06-.67,.11-.93,.15-.26,.04-.48,.08-.67,.12-.19,.04-.35,.08-.5,.13-.14,.05-.26,.11-.36,.17-.1,.07-.17,.14-.22,.23s-.08,.19-.08,.3c0,.13,.03,.25,.1,.35,.07,.1,.16,.18,.29,.24,.13,.06,.29,.09,.48,.09Z"/><path class="cls-3" d="M346.62,29.5v-.95h3.77v.95h-3.77Zm3.77,4.46c-.36,.07-.71,.1-1.05,.09-.34,0-.65-.07-.92-.19-.27-.12-.48-.31-.62-.56-.12-.23-.19-.47-.2-.71s0-.52,0-.83v-4.7h1.2v4.62c0,.22,0,.41,0,.57,0,.16,.04,.3,.1,.4,.12,.2,.31,.31,.58,.33s.56,0,.9-.04v1.01Z"/><path class="cls-3" d="M351.65,27.74v-1.11h1.21v1.11h-1.21Zm0,6.22v-5.4h1.21v5.4h-1.21Z"/><path class="cls-3" d="M356.74,34.11c-.54,0-1.01-.12-1.42-.37s-.72-.58-.94-1.01c-.22-.43-.33-.92-.33-1.48s.11-1.06,.34-1.49c.23-.43,.54-.76,.94-1,.4-.24,.87-.36,1.4-.36s1.02,.12,1.42,.37c.4,.24,.72,.58,.94,1.01,.22,.43,.33,.92,.33,1.48s-.11,1.05-.34,1.48c-.22,.43-.54,.76-.94,1-.4,.24-.88,.36-1.42,.36Zm0-1.13c.48,0,.84-.16,1.07-.48s.35-.73,.35-1.24-.12-.94-.35-1.25c-.24-.31-.59-.47-1.07-.47-.32,0-.59,.07-.8,.22-.21,.14-.36,.35-.46,.6-.1,.26-.15,.56-.15,.9,0,.52,.12,.94,.36,1.25s.59,.47,1.05,.47Z"/><path class="cls-3" d="M360.53,33.96v-5.4h1.07v1.68h.15v3.72h-1.22Zm3.74,0v-2.6c0-.17-.01-.36-.03-.57-.02-.21-.08-.41-.16-.6-.08-.19-.21-.35-.38-.47-.17-.12-.4-.18-.68-.18-.15,0-.3,.03-.46,.08-.15,.05-.29,.14-.41,.26-.12,.12-.22,.29-.29,.5-.07,.21-.11,.48-.11,.81l-.71-.3c0-.46,.09-.88,.27-1.25,.18-.37,.44-.67,.79-.89s.77-.33,1.28-.33c.4,0,.73,.07,.99,.2,.26,.13,.47,.3,.62,.51,.15,.21,.27,.43,.34,.66,.07,.23,.12,.45,.14,.66,.02,.21,.03,.38,.03,.51v3.01h-1.22Z"/></g></g><path class="cls-2" d="M129.65,63.52c25.02,0,46.99,13.04,59.49,32.7l33.6-21.33c-20.23-31.87-55.35-51.18-93.1-51.18h0V63.52s0,0,0,0Z"/><path class="cls-7" d="M222.74,74.89l-33.6,21.33c6.94,10.91,10.96,23.87,10.96,37.76,0,32.86-22.5,60.47-52.94,68.26l9.9,38.54c11.21-2.88,21.89-7.5,31.66-13.7,51.42-32.63,66.65-100.77,34.02-152.19Z"/><path class="cls-8" d="M125.22,204.29l-2.5,39.74c11.55,.73,23.14-.37,34.35-3.25l-9.9-38.54c-5.6,1.43-11.47,2.2-17.52,2.2-1.49,0-2.96-.05-4.43-.14Z"/><path class="cls-5" d="M125.22,204.29c-23.39-1.45-43.69-14.31-55.4-33.09l-33.8,21.04c18.83,30.26,51.13,49.55,86.7,51.79h0s2.5-39.74,2.5-39.74Z"/><path class="cls-11" d="M59.19,133.98c0-19.63,8.03-37.38,20.98-50.16l-27.96-28.35C15.5,91.67,8.78,148.47,36.02,192.24l33.8-21.04c-6.74-10.8-10.63-23.56-10.63-37.23Z"/><path class="cls-10" d="M118.16,24.31h0c-24.88,2.6-48.14,13.59-65.95,31.16l27.96,28.35c11.09-10.94,25.78-18.23,42.14-19.92l-4.14-39.59Z"/><path class="cls-9" d="M129.64,63.52V23.71c-3.83,0-7.67,.2-11.48,.6l4.14,39.59c2.41-.25,4.86-.38,7.34-.38Z"/></svg>