<?xml version="1.0" encoding="UTF-8"?><svg id="Layer_1" xmlns="http://www.w3.org/2000/svg" viewBox="0 0 469.31 270.94"><defs><style>.cls-1,.cls-2{fill:#ff512f;}.cls-3{fill:#fff;}.cls-4,.cls-5{fill:#317aff;}.cls-6{fill:none;stroke:#91919d;stroke-width:.32px;}.cls-6,.cls-5,.cls-2,.cls-7,.cls-8,.cls-9,.cls-10,.cls-11,.cls-12{stroke-miterlimit:10;}.cls-5,.cls-2,.cls-7,.cls-8,.cls-9,.cls-10,.cls-11{stroke-width:1px;}.cls-5,.cls-2,.cls-7,.cls-8,.cls-9,.cls-10,.cls-11,.cls-12{stroke:#fff;}.cls-7{fill:#ff9782;}.cls-8{fill:#ff7458;}.cls-9{fill:#5a95ff;}.cls-10{fill:#83afff;}.cls-11{fill:#adcaff;}.cls-12{fill:#70ad47;}</style></defs><g><path class="cls-1" d="M258.19,61.71v-7.2h2.97c.07,0,.16,0,.27,0,.11,0,.21,.02,.3,.03,.42,.06,.76,.2,1.03,.42,.27,.21,.47,.48,.61,.81s.2,.69,.2,1.08-.07,.75-.2,1.08c-.13,.33-.34,.59-.61,.81-.27,.21-.61,.35-1.03,.42-.09,.01-.2,.02-.31,.03-.11,0-.2,.01-.27,.01h-1.77v2.51h-1.21Zm1.21-3.64h1.72c.07,0,.14,0,.22-.01,.08,0,.16-.02,.23-.04,.2-.05,.36-.14,.47-.26s.2-.27,.25-.43c.05-.16,.07-.32,.07-.47s-.02-.31-.07-.47c-.05-.16-.13-.31-.25-.43s-.27-.21-.47-.27c-.07-.02-.15-.03-.23-.04-.08,0-.16,0-.22,0h-1.72v2.43Z"/><path class="cls-1" d="M266.6,61.86c-.4,0-.73-.07-.99-.2-.26-.13-.47-.3-.62-.51-.15-.21-.27-.43-.34-.66-.07-.23-.12-.45-.14-.66-.02-.21-.03-.38-.03-.51v-3.02h1.22v2.6c0,.17,.01,.35,.04,.56,.02,.21,.08,.41,.16,.6,.08,.19,.21,.35,.38,.47s.4,.18,.68,.18c.15,0,.3-.02,.46-.07,.15-.05,.29-.14,.41-.26s.22-.29,.29-.5c.07-.21,.11-.48,.11-.81l.71,.3c0,.46-.09,.88-.27,1.25-.18,.37-.44,.67-.79,.89s-.77,.33-1.28,.33Zm1.77-.16v-1.67h-.15v-3.73h1.21v5.4h-1.06Z"/><path class="cls-1" d="M270.82,61.71v-7.2h1.21v3.41h-.15v3.79h-1.06Zm2.6,.15c-.53,0-.97-.12-1.33-.38s-.62-.59-.8-1.02-.27-.92-.27-1.45,.09-1.03,.27-1.46,.44-.77,.79-1.02c.35-.25,.78-.37,1.29-.37s.95,.12,1.33,.37c.38,.25,.67,.59,.87,1.02,.21,.43,.31,.92,.31,1.46s-.1,1.03-.3,1.46-.49,.77-.86,1.02-.8,.38-1.3,.38Zm-.18-1.08c.31,0,.57-.08,.77-.24,.2-.16,.35-.37,.45-.64,.1-.27,.15-.57,.15-.9s-.05-.62-.15-.89c-.1-.27-.25-.48-.46-.64s-.48-.24-.8-.24c-.31,0-.56,.07-.75,.22-.19,.15-.34,.35-.43,.62-.09,.27-.14,.57-.14,.93s.05,.66,.14,.92c.09,.27,.24,.47,.43,.62s.46,.22,.78,.22Z"/><path class="cls-1" d="M277.09,61.71v-7.35h1.21v7.35h-1.21Z"/><path class="cls-1" d="M279.9,55.49v-1.11h1.21v1.11h-1.21Zm0,6.22v-5.4h1.21v5.4h-1.21Z"/><path class="cls-1" d="M284.95,61.86c-.56,0-1.03-.12-1.42-.37s-.69-.59-.9-1.02c-.21-.43-.31-.92-.32-1.46,0-.55,.11-1.04,.33-1.47,.21-.43,.52-.76,.92-1.01,.4-.25,.87-.37,1.42-.37,.61,0,1.13,.15,1.56,.46,.43,.31,.7,.73,.83,1.26l-1.2,.33c-.09-.29-.25-.52-.46-.68-.22-.16-.46-.24-.74-.24-.31,0-.57,.07-.78,.22-.2,.15-.35,.35-.45,.61s-.15,.55-.15,.88c0,.51,.12,.93,.34,1.25,.23,.32,.57,.47,1.03,.47,.32,0,.57-.07,.76-.22,.18-.15,.32-.36,.42-.63l1.23,.28c-.17,.55-.46,.97-.88,1.27-.42,.3-.93,.44-1.53,.44Z"/><path class="cls-1" d="M291.87,61.86c-.39,0-.72-.07-.99-.22-.27-.15-.47-.35-.61-.59s-.21-.52-.21-.82c0-.26,.04-.49,.13-.7,.09-.21,.22-.39,.4-.54,.18-.15,.41-.28,.7-.37,.22-.07,.47-.13,.76-.19s.61-.11,.95-.16c.34-.05,.7-.1,1.07-.16l-.43,.24c0-.37-.08-.65-.25-.82s-.46-.27-.86-.27c-.24,0-.48,.06-.71,.17s-.38,.31-.47,.58l-1.1-.34c.13-.46,.39-.82,.76-1.1,.38-.28,.88-.42,1.52-.42,.48,0,.9,.08,1.27,.23,.37,.16,.64,.41,.81,.77,.1,.19,.16,.38,.17,.58,.02,.2,.03,.42,.03,.65v3.32h-1.05v-1.17l.17,.19c-.24,.39-.53,.68-.85,.86s-.73,.27-1.22,.27Zm.24-.96c.27,0,.51-.05,.7-.15s.35-.21,.46-.35c.12-.14,.19-.27,.23-.4,.06-.15,.1-.33,.11-.53,0-.2,.01-.36,.01-.48l.37,.11c-.36,.06-.67,.11-.93,.15-.26,.04-.48,.08-.67,.12-.19,.04-.35,.08-.5,.13-.14,.05-.26,.11-.36,.17-.1,.07-.17,.14-.22,.23s-.08,.19-.08,.3c0,.13,.03,.25,.1,.35,.07,.1,.16,.18,.29,.24,.13,.06,.29,.09,.48,.09Z"/><path class="cls-1" d="M296.22,61.71v-7.35h1.21v7.35h-1.21Z"/><path class="cls-1" d="M299.02,61.71v-7.35h1.21v7.35h-1.21Z"/><path class="cls-1" d="M304.11,61.86c-.54,0-1.01-.12-1.42-.37s-.72-.58-.94-1.01c-.22-.43-.33-.92-.33-1.48s.11-1.06,.34-1.49c.23-.43,.54-.76,.94-1,.4-.24,.87-.36,1.4-.36s1.02,.12,1.42,.37c.4,.24,.72,.58,.94,1.01,.22,.43,.33,.92,.33,1.48s-.11,1.05-.34,1.48c-.22,.43-.54,.76-.94,1-.4,.24-.88,.36-1.42,.36Zm0-1.13c.48,0,.84-.16,1.07-.48s.35-.73,.35-1.24-.12-.94-.35-1.25c-.24-.31-.59-.47-1.07-.47-.32,0-.59,.07-.8,.22-.21,.14-.36,.35-.46,.6-.1,.26-.15,.56-.15,.9,0,.52,.12,.94,.36,1.25s.59,.47,1.05,.47Z"/><path class="cls-1" d="M310.25,61.86c-.56,0-1.03-.12-1.42-.37s-.69-.59-.9-1.02c-.21-.43-.31-.92-.32-1.46,0-.55,.11-1.04,.33-1.47,.21-.43,.52-.76,.92-1.01,.4-.25,.87-.37,1.42-.37,.61,0,1.13,.15,1.56,.46,.43,.31,.7,.73,.83,1.26l-1.2,.33c-.09-.29-.25-.52-.46-.68-.22-.16-.46-.24-.74-.24-.31,0-.57,.07-.78,.22-.2,.15-.35,.35-.45,.61s-.15,.55-.15,.88c0,.51,.12,.93,.34,1.25,.23,.32,.57,.47,1.03,.47,.32,0,.57-.07,.76-.22,.18-.15,.32-.36,.42-.63l1.23,.28c-.17,.55-.46,.97-.88,1.27-.42,.3-.93,.44-1.53,.44Z"/><path class="cls-1" d="M315.17,61.86c-.39,0-.72-.07-.99-.22-.27-.15-.47-.35-.61-.59s-.21-.52-.21-.82c0-.26,.04-.49,.13-.7,.09-.21,.22-.39,.4-.54,.18-.15,.41-.28,.7-.37,.22-.07,.47-.13,.76-.19s.61-.11,.95-.16c.34-.05,.7-.1,1.07-.16l-.43,.24c0-.37-.08-.65-.25-.82s-.46-.27-.86-.27c-.24,0-.48,.06-.71,.17s-.38,.31-.47,.58l-1.1-.34c.13-.46,.39-.82,.76-1.1,.38-.28,.88-.42,1.52-.42,.48,0,.9,.08,1.27,.23,.37,.16,.64,.41,.81,.77,.1,.19,.16,.38,.17,.58,.02,.2,.03,.42,.03,.65v3.32h-1.05v-1.17l.17,.19c-.24,.39-.53,.68-.85,.86s-.73,.27-1.22,.27Zm.24-.96c.27,0,.51-.05,.7-.15s.35-.21,.46-.35c.12-.14,.19-.27,.23-.4,.06-.15,.1-.33,.11-.53,0-.2,.01-.36,.01-.48l.37,.11c-.36,.06-.67,.11-.93,.15-.26,.04-.48,.08-.67,.12-.19,.04-.35,.08-.5,.13-.14,.05-.26,.11-.36,.17-.1,.07-.17,.14-.22,.23s-.08,.19-.08,.3c0,.13,.03,.25,.1,.35,.07,.1,.16,.18,.29,.24,.13,.06,.29,.09,.48,.09Z"/><path class="cls-1" d="M318.82,57.25v-.95h3.77v.95h-3.77Zm3.77,4.46c-.36,.07-.71,.1-1.05,.09-.34,0-.65-.07-.92-.19-.27-.12-.48-.31-.62-.56-.12-.23-.19-.47-.2-.71s0-.52,0-.83v-4.7h1.2v4.62c0,.22,0,.41,0,.57,0,.16,.04,.3,.1,.4,.12,.2,.31,.31,.58,.33s.56,0,.9-.04v1.01Z"/><path class="cls-1" d="M323.85,55.49v-1.11h1.21v1.11h-1.21Zm0,6.22v-5.4h1.21v5.4h-1.21Z"/><path class="cls-1" d="M328.94,61.86c-.54,0-1.01-.12-1.42-.37s-.72-.58-.94-1.01c-.22-.43-.33-.92-.33-1.48s.11-1.06,.34-1.49c.23-.43,.54-.76,.94-1,.4-.24,.87-.36,1.4-.36s1.02,.12,1.42,.37c.4,.24,.72,.58,.94,1.01,.22,.43,.33,.92,.33,1.48s-.11,1.05-.34,1.48c-.22,.43-.54,.76-.94,1-.4,.24-.88,.36-1.42,.36Zm0-1.13c.48,0,.84-.16,1.07-.48s.35-.73,.35-1.24-.12-.94-.35-1.25c-.24-.31-.59-.47-1.07-.47-.32,0-.59,.07-.8,.22-.21,.14-.36,.35-.46,.6-.1,.26-.15,.56-.15,.9,0,.52,.12,.94,.36,1.25s.59,.47,1.05,.47Z"/><path class="cls-1" d="M332.73,61.71v-5.4h1.07v1.68h.15v3.72h-1.22Zm3.74,0v-2.6c0-.17-.01-.36-.03-.57-.02-.21-.08-.41-.16-.6-.08-.19-.21-.35-.38-.47-.17-.12-.4-.18-.68-.18-.15,0-.3,.03-.46,.08-.15,.05-.29,.14-.41,.26-.12,.12-.22,.29-.29,.5-.07,.21-.11,.48-.11,.81l-.71-.3c0-.46,.09-.88,.27-1.25,.18-.37,.44-.67,.79-.89s.77-.33,1.28-.33c.4,0,.73,.07,.99,.2,.26,.13,.47,.3,.62,.51,.15,.21,.27,.43,.34,.66,.07,.23,.12,.45,.14,.66,.02,.21,.03,.38,.03,.51v3.01h-1.22Z"/><path class="cls-1" d="M343.52,63.61c-.39-.45-.72-.97-1-1.54-.28-.57-.49-1.17-.63-1.8-.14-.63-.21-1.25-.2-1.87-.01-.62,.06-1.24,.2-1.87,.14-.63,.35-1.23,.63-1.8,.28-.57,.61-1.08,1-1.54l.89,.66c-.4,.48-.72,.97-.96,1.46s-.41,1-.51,1.51c-.1,.51-.16,1.04-.16,1.57,0,.54,.06,1.06,.16,1.57,.11,.51,.28,1.01,.51,1.51s.55,.98,.96,1.46l-.89,.67Z"/><path class="cls-1" d="M347.65,61.86c-.37,0-.71-.08-1.03-.23-.32-.15-.59-.36-.82-.63s-.39-.58-.49-.93l1.16-.31c.05,.19,.13,.36,.26,.5,.12,.14,.27,.25,.44,.33,.17,.08,.34,.12,.52,.12,.23,0,.45-.06,.64-.17s.35-.27,.46-.46c.11-.19,.17-.4,.17-.64s-.06-.45-.17-.64c-.12-.19-.27-.34-.46-.46-.19-.11-.4-.17-.63-.17-.28,0-.51,.05-.69,.15-.18,.1-.32,.21-.42,.32l-1.03-.33,.22-3.81h3.91v1.13h-3.26l.45-.42-.16,2.65-.22-.27c.19-.17,.4-.3,.65-.38,.25-.08,.49-.12,.71-.12,.45,0,.85,.1,1.2,.31,.35,.21,.62,.48,.82,.84,.2,.35,.3,.75,.3,1.21s-.12,.86-.35,1.22c-.23,.37-.54,.66-.92,.87-.38,.22-.8,.33-1.25,.33Z"/><path class="cls-1" d="M352.63,61.71v-5.88l-1.35,.83v-1.33l1.35-.81h1.23v7.2h-1.23Z"/><path class="cls-1" d="M357.46,57.96c-.33,0-.63-.08-.91-.24-.27-.16-.49-.38-.65-.65-.16-.27-.24-.57-.24-.91s.08-.63,.25-.9c.17-.27,.39-.49,.66-.66,.27-.16,.57-.24,.89-.24s.63,.08,.9,.24,.49,.38,.65,.65c.16,.27,.25,.57,.25,.91s-.08,.64-.25,.91-.38,.49-.65,.65c-.27,.16-.57,.24-.9,.24Zm-.7,3.75l-.8-.8,6.4-6.4,.8,.81-6.41,6.39Zm.7-4.78c.14,0,.27-.04,.38-.1,.12-.07,.21-.16,.28-.28,.07-.12,.1-.25,.1-.38s-.04-.27-.1-.38c-.07-.12-.16-.21-.28-.28-.12-.07-.25-.11-.38-.11s-.27,.04-.39,.11c-.12,.07-.21,.16-.28,.28-.07,.12-.11,.24-.11,.38s.04,.27,.11,.38c.07,.12,.16,.21,.28,.28,.12,.07,.25,.1,.39,.1Zm4.21,4.93c-.33,0-.63-.08-.9-.24-.27-.16-.49-.38-.65-.65s-.25-.57-.25-.91,.08-.63,.25-.9c.17-.27,.39-.49,.66-.66s.57-.25,.89-.25,.63,.08,.9,.24c.27,.16,.49,.38,.65,.65,.16,.27,.24,.57,.24,.91s-.08,.64-.24,.91c-.16,.27-.38,.49-.65,.65-.27,.16-.58,.24-.9,.24Zm0-1.03c.14,0,.26-.04,.38-.11,.12-.07,.21-.16,.28-.28,.07-.12,.11-.25,.11-.39s-.04-.27-.11-.38c-.07-.12-.16-.21-.28-.28-.12-.07-.25-.1-.38-.1s-.27,.04-.39,.1c-.12,.07-.21,.16-.28,.28-.07,.12-.11,.25-.11,.38s.04,.27,.11,.39c.07,.12,.17,.21,.28,.28,.12,.07,.25,.11,.39,.11Z"/><path class="cls-1" d="M365.36,63.61l-.89-.67c.4-.48,.72-.96,.96-1.46,.24-.5,.41-1,.51-1.51,.1-.51,.16-1.04,.16-1.57,0-.54-.06-1.06-.16-1.57s-.27-1.01-.51-1.51-.56-.98-.96-1.46l.89-.66c.39,.45,.72,.96,1,1.54,.28,.57,.49,1.17,.63,1.8,.14,.63,.21,1.25,.2,1.87,0,.62-.06,1.24-.2,1.87-.14,.63-.35,1.23-.63,1.8-.28,.57-.61,1.08-1,1.54Z"/></g><g><path class="cls-3" d="M258.19,81.13v-7.2h2.84c.07,0,.15,0,.25,0s.19,.02,.28,.03c.39,.06,.72,.19,.98,.4,.26,.21,.46,.47,.6,.78,.13,.32,.2,.66,.2,1.05s-.07,.73-.2,1.04c-.13,.32-.33,.58-.6,.79-.27,.21-.59,.34-.98,.4-.09,.01-.18,.02-.28,.03s-.18,0-.25,0h-1.96v2.66h-.89Zm.89-3.5h1.92c.06,0,.14,0,.22,0s.16-.02,.23-.04c.23-.05,.42-.15,.56-.29,.15-.14,.25-.31,.32-.5,.07-.19,.1-.39,.1-.59s-.03-.4-.1-.59c-.07-.19-.17-.36-.32-.5-.14-.14-.33-.24-.56-.29-.07-.02-.15-.03-.23-.04s-.15,0-.22,0h-1.92v2.85Z"/><path class="cls-3" d="M266.4,81.27c-.35,0-.64-.05-.89-.17-.25-.11-.45-.26-.62-.44-.16-.18-.29-.39-.38-.61-.09-.22-.16-.45-.2-.68s-.06-.45-.06-.66v-2.99h.9v2.71c0,.25,.02,.5,.07,.74,.05,.24,.12,.45,.24,.64,.11,.19,.26,.34,.45,.45,.19,.11,.42,.17,.71,.17,.22,0,.43-.04,.61-.12,.18-.08,.34-.19,.47-.34,.13-.15,.23-.34,.3-.58,.07-.23,.11-.5,.11-.81l.58,.18c0,.52-.09,.97-.28,1.34-.19,.38-.45,.67-.8,.87-.34,.2-.74,.3-1.21,.3Zm1.8-.14v-1.45h-.1v-3.96h.89v5.4h-.79Z"/><path class="cls-3" d="M270.39,81.13v-7.2h.89v3.23h-.1v3.97h-.79Zm2.48,.15c-.51,0-.93-.13-1.28-.38s-.61-.59-.79-1.03c-.18-.43-.27-.92-.27-1.45s.09-1.03,.27-1.46c.18-.43,.44-.77,.79-1.01,.35-.25,.78-.37,1.28-.37s.93,.12,1.29,.37c.36,.25,.64,.59,.83,1.02s.29,.92,.29,1.46-.1,1.03-.29,1.46-.47,.77-.83,1.02-.79,.38-1.3,.38Zm-.11-.82c.36,0,.65-.09,.88-.27,.23-.18,.41-.42,.53-.73,.12-.31,.17-.65,.17-1.04s-.06-.72-.17-1.03-.29-.55-.53-.73-.54-.27-.91-.27-.64,.09-.87,.26c-.23,.17-.4,.41-.51,.71-.11,.31-.17,.66-.17,1.06s.06,.74,.17,1.05c.11,.31,.28,.55,.52,.72s.53,.26,.9,.26Z"/><path class="cls-3" d="M276.49,81.13v-7.35h.89v7.35h-.89Z"/><path class="cls-3" d="M278.98,74.77v-.92h.89v.92h-.89Zm0,6.36v-5.4h.89v5.4h-.89Z"/><path class="cls-3" d="M283.65,81.28c-.55,0-1.01-.12-1.39-.37-.38-.25-.67-.58-.87-1.01-.2-.43-.3-.92-.31-1.47,0-.56,.11-1.06,.32-1.49s.5-.76,.88-1c.38-.24,.85-.36,1.39-.36,.57,0,1.06,.14,1.47,.42,.41,.28,.69,.66,.83,1.15l-.88,.27c-.11-.31-.3-.56-.55-.73-.25-.17-.55-.26-.88-.26-.37,0-.67,.09-.92,.26-.24,.17-.42,.41-.53,.71-.12,.3-.18,.65-.18,1.04,0,.6,.15,1.08,.42,1.45,.27,.37,.68,.55,1.21,.55,.35,0,.65-.08,.88-.24,.23-.16,.41-.4,.53-.7l.9,.23c-.19,.5-.48,.89-.88,1.16s-.88,.4-1.44,.4Z"/><path class="cls-3" d="M291.02,81.27c-.64,0-1.17-.14-1.58-.42-.41-.28-.66-.68-.76-1.18l.91-.15c.07,.29,.24,.53,.51,.7,.26,.17,.59,.26,.98,.26s.66-.08,.87-.23,.32-.36,.32-.62c0-.15-.04-.28-.11-.37-.07-.09-.21-.18-.43-.27-.22-.08-.55-.18-.99-.3-.48-.13-.85-.26-1.12-.39s-.47-.29-.58-.48c-.12-.18-.17-.4-.17-.65,0-.32,.09-.59,.26-.83,.17-.24,.42-.42,.73-.55,.31-.13,.67-.19,1.09-.19s.78,.06,1.1,.19c.32,.13,.58,.31,.78,.55s.32,.52,.35,.83l-.91,.17c-.04-.29-.18-.52-.42-.69-.24-.17-.54-.25-.91-.26-.35-.01-.63,.05-.85,.18-.22,.14-.33,.32-.33,.56,0,.13,.04,.24,.12,.33,.08,.09,.23,.18,.46,.26,.22,.08,.54,.18,.97,.29,.48,.12,.85,.25,1.13,.39,.27,.14,.47,.31,.59,.5,.12,.19,.18,.43,.18,.71,0,.52-.19,.93-.58,1.23-.38,.3-.91,.45-1.58,.45Z"/><path class="cls-3" d="M295.82,81.28c-.4,0-.74-.07-1.01-.22s-.48-.34-.62-.59-.21-.51-.21-.8,.05-.53,.16-.74c.11-.21,.26-.38,.46-.52,.2-.14,.43-.25,.71-.33,.26-.07,.54-.13,.86-.18s.64-.1,.97-.14c.33-.04,.63-.08,.92-.12l-.32,.19c0-.48-.09-.83-.29-1.07-.2-.23-.55-.34-1.04-.34-.33,0-.61,.07-.86,.22-.25,.15-.42,.39-.52,.72l-.85-.25c.13-.47,.38-.84,.76-1.11,.37-.27,.86-.41,1.47-.41,.49,0,.91,.09,1.26,.26,.35,.17,.6,.44,.76,.79,.08,.17,.12,.35,.15,.54,.02,.19,.03,.4,.03,.61v3.34h-.79v-1.29l.18,.12c-.2,.44-.49,.77-.85,.99-.37,.22-.81,.33-1.33,.33Zm.13-.75c.32,0,.6-.06,.83-.17,.24-.12,.42-.27,.57-.46,.14-.19,.24-.39,.28-.62,.05-.17,.08-.35,.08-.56s0-.36,0-.47l.31,.13c-.29,.04-.58,.08-.86,.12-.28,.04-.54,.08-.79,.12-.25,.04-.47,.09-.67,.15-.15,.05-.28,.11-.41,.18-.13,.07-.23,.17-.31,.28s-.12,.26-.12,.43c0,.15,.04,.29,.11,.42,.08,.13,.19,.24,.35,.33,.16,.08,.37,.12,.62,.12Z"/><path class="cls-3" d="M300.01,81.13v-7.35h.89v7.35h-.89Z"/><path class="cls-3" d="M304.74,81.28c-.53,0-.99-.12-1.39-.35-.39-.24-.7-.56-.92-.99-.22-.42-.33-.91-.33-1.48s.11-1.1,.32-1.53,.52-.77,.91-1c.39-.24,.84-.35,1.37-.35s1.01,.12,1.39,.38,.67,.61,.86,1.07c.19,.46,.27,1.02,.25,1.66h-.9v-.32c0-.66-.14-1.16-.4-1.49-.26-.33-.65-.49-1.16-.49-.55,0-.97,.18-1.25,.53-.29,.35-.43,.86-.43,1.52s.14,1.13,.43,1.48c.29,.35,.69,.52,1.22,.52,.36,0,.67-.08,.93-.25,.26-.16,.47-.4,.62-.7l.86,.29c-.21,.48-.53,.85-.95,1.11-.42,.26-.89,.39-1.42,.39Zm-2-2.6v-.71h3.99v.71h-3.99Z"/></g><g><path class="cls-3" d="M258.19,100.55v-7.2h.9l3.76,5.62v-5.62h.9v7.2h-.9l-3.76-5.63v5.63h-.9Z"/><path class="cls-3" d="M267.45,100.7c-.54,0-1-.12-1.39-.37-.39-.24-.69-.58-.9-1.01-.21-.43-.31-.92-.31-1.48s.11-1.06,.32-1.49c.21-.43,.52-.76,.91-1s.85-.36,1.38-.36,1,.12,1.39,.36c.39,.24,.69,.58,.9,1,.21,.43,.31,.92,.31,1.48s-.11,1.06-.32,1.49c-.21,.43-.51,.76-.9,1-.39,.24-.85,.36-1.39,.36Zm0-.85c.56,0,.98-.19,1.25-.56s.41-.86,.41-1.45-.14-1.1-.42-1.46c-.28-.36-.69-.54-1.25-.54-.38,0-.69,.08-.93,.25-.24,.17-.43,.41-.54,.71-.12,.3-.18,.65-.18,1.04,0,.61,.14,1.09,.42,1.46,.28,.37,.69,.55,1.24,.55Z"/><path class="cls-3" d="M273.27,100.7c-.5,0-.94-.13-1.29-.38-.36-.25-.64-.59-.83-1.02s-.29-.92-.29-1.46,.1-1.03,.29-1.46,.47-.77,.83-1.02c.36-.25,.79-.37,1.29-.37s.94,.12,1.28,.37c.35,.25,.61,.58,.79,1.01,.18,.43,.27,.92,.27,1.46s-.09,1.02-.27,1.45c-.18,.43-.44,.77-.79,1.03s-.77,.38-1.28,.38Zm.11-.82c.36,0,.66-.09,.9-.26s.41-.42,.52-.72c.11-.31,.17-.66,.17-1.05s-.06-.75-.17-1.06c-.11-.3-.28-.54-.51-.71-.23-.17-.52-.26-.88-.26s-.67,.09-.91,.27-.42,.42-.53,.73-.17,.65-.17,1.03,.06,.73,.17,1.04c.12,.31,.29,.55,.53,.73,.23,.18,.53,.27,.88,.27Zm1.58,.67v-3.97h-.1v-3.23h.89v7.2h-.79Z"/><path class="cls-3" d="M279.5,100.7c-.53,0-.99-.12-1.39-.35-.39-.24-.7-.56-.92-.99-.22-.42-.33-.91-.33-1.48s.11-1.1,.32-1.53,.52-.77,.91-1c.39-.24,.84-.35,1.37-.35s1.01,.12,1.39,.38,.67,.61,.86,1.07c.19,.46,.27,1.02,.25,1.66h-.9v-.32c0-.66-.14-1.16-.4-1.49-.26-.33-.65-.49-1.16-.49-.55,0-.97,.18-1.25,.53-.29,.35-.43,.86-.43,1.52s.14,1.13,.43,1.48c.29,.35,.69,.52,1.22,.52,.36,0,.67-.08,.93-.25,.26-.16,.47-.4,.62-.7l.86,.29c-.21,.48-.53,.85-.95,1.11-.42,.26-.89,.39-1.42,.39Zm-2-2.6v-.71h3.99v.71h-3.99Z"/><path class="cls-3" d="M285.16,94.19v-.92h.89v.92h-.89Zm0,6.36v-5.4h.89v5.4h-.89Z"/><path class="cls-3" d="M287.55,100.55v-5.4h.8v1.45h.1v3.96h-.9Zm3.85,0v-2.71c0-.26-.02-.5-.07-.74-.04-.24-.12-.45-.24-.64-.11-.19-.26-.34-.45-.45-.19-.11-.43-.17-.71-.17-.22,0-.43,.04-.61,.11-.18,.07-.34,.19-.47,.34s-.23,.35-.3,.58c-.07,.23-.11,.5-.11,.82l-.58-.18c0-.52,.09-.97,.28-1.35,.19-.38,.45-.66,.79-.87,.34-.2,.74-.3,1.21-.3,.35,0,.65,.05,.9,.17,.25,.11,.45,.26,.61,.44,.16,.18,.29,.38,.39,.61,.09,.22,.16,.45,.2,.68s.06,.45,.06,.66v2.99h-.9Z"/><path class="cls-3" d="M295.87,100.7c-.55,0-1.01-.12-1.39-.37-.38-.25-.67-.58-.87-1.01-.2-.43-.3-.92-.31-1.47,0-.56,.11-1.06,.32-1.49s.5-.76,.88-1c.38-.24,.85-.36,1.39-.36,.57,0,1.06,.14,1.47,.42,.41,.28,.69,.66,.83,1.15l-.88,.27c-.11-.31-.3-.56-.55-.73-.25-.17-.55-.26-.88-.26-.37,0-.67,.09-.92,.26-.24,.17-.42,.41-.53,.71-.12,.3-.18,.65-.18,1.04,0,.6,.15,1.08,.42,1.45,.27,.37,.68,.55,1.21,.55,.35,0,.65-.08,.88-.24,.23-.16,.41-.4,.53-.7l.9,.23c-.19,.5-.48,.89-.88,1.16s-.88,.4-1.44,.4Z"/><path class="cls-3" d="M301.4,100.7c-.53,0-.99-.12-1.39-.35-.39-.24-.7-.56-.92-.99-.22-.42-.33-.91-.33-1.48s.11-1.1,.32-1.53,.52-.77,.91-1c.39-.24,.84-.35,1.37-.35s1.01,.12,1.39,.38,.67,.61,.86,1.07c.19,.46,.27,1.02,.25,1.66h-.9v-.32c0-.66-.14-1.16-.4-1.49-.26-.33-.65-.49-1.16-.49-.55,0-.97,.18-1.25,.53-.29,.35-.43,.86-.43,1.52s.14,1.13,.43,1.48c.29,.35,.69,.52,1.22,.52,.36,0,.67-.08,.93-.25,.26-.16,.47-.4,.62-.7l.86,.29c-.21,.48-.53,.85-.95,1.11-.42,.26-.89,.39-1.42,.39Zm-2-2.6v-.71h3.99v.71h-3.99Z"/><path class="cls-3" d="M304.82,100.55v-5.4h.8v1.45h.1v3.96h-.9Zm3.85,0v-2.71c0-.26-.02-.5-.07-.74-.04-.24-.12-.45-.24-.64-.11-.19-.26-.34-.45-.45-.19-.11-.43-.17-.71-.17-.22,0-.43,.04-.61,.11-.18,.07-.34,.19-.47,.34s-.23,.35-.3,.58c-.07,.23-.11,.5-.11,.82l-.58-.18c0-.52,.09-.97,.28-1.35,.19-.38,.45-.66,.79-.87,.34-.2,.74-.3,1.21-.3,.35,0,.65,.05,.9,.17,.25,.11,.45,.26,.61,.44,.16,.18,.29,.38,.39,.61,.09,.22,.16,.45,.2,.68s.06,.45,.06,.66v2.99h-.9Z"/><path class="cls-3" d="M310.27,95.88v-.74h3.62v.74h-3.62Zm3.62,4.67c-.32,.06-.64,.09-.95,.08s-.59-.07-.83-.19c-.24-.12-.43-.29-.55-.54-.11-.21-.16-.43-.17-.65,0-.22-.01-.47-.01-.74v-4.86h.89v4.82c0,.22,0,.41,0,.57,0,.16,.04,.29,.1,.4,.12,.21,.31,.34,.57,.38,.26,.04,.58,.03,.95-.03v.76Z"/><path class="cls-3" d="M315.08,94.19v-.92h.89v.92h-.89Zm0,6.36v-5.4h.89v5.4h-.89Z"/><path class="cls-3" d="M318.93,100.55l-1.96-5.4h.9l1.52,4.27,1.51-4.27h.91l-1.96,5.4h-.91Z"/><path class="cls-3" d="M324.86,100.7c-.53,0-.99-.12-1.39-.35-.39-.24-.7-.56-.92-.99-.22-.42-.33-.91-.33-1.48s.11-1.1,.32-1.53,.52-.77,.91-1c.39-.24,.84-.35,1.37-.35s1.01,.12,1.39,.38,.67,.61,.86,1.07c.19,.46,.27,1.02,.25,1.66h-.9v-.32c0-.66-.14-1.16-.4-1.49-.26-.33-.65-.49-1.16-.49-.55,0-.97,.18-1.25,.53-.29,.35-.43,.86-.43,1.52s.14,1.13,.43,1.48c.29,.35,.69,.52,1.22,.52,.36,0,.67-.08,.93-.25,.26-.16,.47-.4,.62-.7l.86,.29c-.21,.48-.53,.85-.95,1.11-.42,.26-.89,.39-1.42,.39Zm-2-2.6v-.71h3.99v.71h-3.99Z"/><path class="cls-3" d="M330.47,100.69c-.64,0-1.17-.14-1.58-.42-.41-.28-.66-.68-.76-1.18l.91-.15c.07,.29,.24,.53,.51,.7,.26,.17,.59,.26,.98,.26s.66-.08,.87-.23,.32-.36,.32-.62c0-.15-.04-.28-.11-.37-.07-.09-.21-.18-.43-.27-.22-.08-.55-.18-.99-.3-.48-.13-.85-.26-1.12-.39s-.47-.29-.58-.48c-.12-.18-.17-.4-.17-.65,0-.32,.09-.59,.26-.83,.17-.24,.42-.42,.73-.55,.31-.13,.67-.19,1.09-.19s.78,.06,1.1,.19c.32,.13,.58,.31,.78,.55s.32,.52,.35,.83l-.91,.17c-.04-.29-.18-.52-.42-.69-.24-.17-.54-.25-.91-.26-.35-.01-.63,.05-.85,.18-.22,.14-.33,.32-.33,.56,0,.13,.04,.24,.12,.33,.08,.09,.23,.18,.46,.26,.22,.08,.54,.18,.97,.29,.48,.12,.85,.25,1.13,.39,.27,.14,.47,.31,.59,.5,.12,.19,.18,.43,.18,.71,0,.52-.19,.93-.58,1.23-.38,.3-.91,.45-1.58,.45Z"/></g><g><path class="cls-3" d="M258.29,119.96v-7.2h.89v6.36h3.34v.84h-4.23Z"/><path class="cls-3" d="M265.67,120.11c-.54,0-1-.12-1.39-.37-.39-.24-.69-.58-.9-1.01-.21-.43-.31-.92-.31-1.48s.11-1.06,.32-1.49c.21-.43,.52-.76,.91-1s.85-.36,1.38-.36,1,.12,1.39,.36c.39,.24,.69,.58,.9,1,.21,.43,.31,.92,.31,1.48s-.11,1.06-.32,1.49c-.21,.43-.51,.76-.9,1-.39,.24-.85,.36-1.39,.36Zm0-.85c.56,0,.98-.19,1.25-.56s.41-.86,.41-1.45-.14-1.1-.42-1.46c-.28-.36-.69-.54-1.25-.54-.38,0-.69,.08-.93,.25-.24,.17-.43,.41-.54,.71-.12,.3-.18,.65-.18,1.04,0,.61,.14,1.09,.42,1.46,.28,.37,.69,.55,1.24,.55Z"/><path class="cls-3" d="M270.13,122.36l1.04-2.84v.84s-2.34-5.8-2.34-5.8h.93l1.85,4.67h-.32l1.73-4.67h.91l-2.94,7.8h-.87Z"/><path class="cls-3" d="M276.29,120.11c-.4,0-.74-.07-1.01-.22s-.48-.34-.62-.59-.21-.51-.21-.8,.05-.53,.16-.74c.11-.21,.26-.38,.46-.52,.2-.14,.43-.25,.71-.33,.26-.07,.54-.13,.86-.18s.64-.1,.97-.14c.33-.04,.63-.08,.92-.12l-.32,.19c0-.48-.09-.83-.29-1.07-.2-.23-.55-.34-1.04-.34-.33,0-.61,.07-.86,.22-.25,.15-.42,.39-.52,.72l-.85-.25c.13-.47,.38-.84,.76-1.11,.37-.27,.86-.41,1.47-.41,.49,0,.91,.09,1.26,.26,.35,.17,.6,.44,.76,.79,.08,.17,.12,.35,.15,.54,.02,.19,.03,.4,.03,.61v3.34h-.79v-1.29l.18,.12c-.2,.44-.49,.77-.85,.99-.37,.22-.81,.33-1.33,.33Zm.13-.75c.32,0,.6-.06,.83-.17,.24-.12,.42-.27,.57-.46,.14-.19,.24-.39,.28-.62,.05-.17,.08-.35,.08-.56s0-.36,0-.47l.31,.13c-.29,.04-.58,.08-.86,.12-.28,.04-.54,.08-.79,.12-.25,.04-.47,.09-.67,.15-.15,.05-.28,.11-.41,.18-.13,.07-.23,.17-.31,.28s-.12,.26-.12,.43c0,.15,.04,.29,.11,.42,.08,.13,.19,.24,.35,.33,.16,.08,.37,.12,.62,.12Z"/><path class="cls-3" d="M280.48,119.96v-7.35h.89v7.35h-.89Z"/><path class="cls-3" d="M282.27,115.3v-.74h3.62v.74h-3.62Zm3.62,4.67c-.32,.06-.64,.09-.95,.08s-.59-.07-.83-.19c-.24-.12-.43-.29-.55-.54-.11-.21-.16-.43-.17-.65,0-.22-.01-.47-.01-.74v-4.86h.89v4.82c0,.22,0,.41,0,.57,0,.16,.04,.29,.1,.4,.12,.21,.31,.34,.57,.38,.26,.04,.58,.03,.95-.03v.76Z"/><path class="cls-3" d="M287.74,122.36l1.04-2.84v.84s-2.34-5.8-2.34-5.8h.93l1.85,4.67h-.32l1.73-4.67h.91l-2.94,7.8h-.87Z"/><path class="cls-3" d="M294.36,122.36v-7.8h.79v3.98h.1v3.83h-.89Zm2.48-2.25c-.51,0-.93-.13-1.28-.38s-.61-.59-.79-1.03c-.18-.43-.27-.92-.27-1.45s.09-1.03,.27-1.46c.18-.43,.44-.77,.79-1.01,.35-.25,.78-.37,1.28-.37s.93,.12,1.29,.37c.36,.25,.64,.59,.83,1.02s.29,.92,.29,1.46-.1,1.03-.29,1.46-.47,.77-.83,1.02-.79,.38-1.3,.38Zm-.11-.82c.36,0,.65-.09,.88-.27,.23-.18,.41-.42,.53-.73,.12-.31,.17-.65,.17-1.04s-.06-.72-.17-1.03-.29-.55-.53-.73-.54-.27-.91-.27-.64,.09-.87,.26c-.23,.17-.4,.41-.51,.71-.11,.31-.17,.66-.17,1.06s.06,.74,.17,1.05c.11,.31,.28,.55,.52,.72s.53,.26,.9,.26Z"/><path class="cls-3" d="M300.37,119.96v-5.4h.79v1.31l-.13-.17c.06-.17,.15-.32,.25-.46,.1-.14,.22-.26,.34-.35,.14-.11,.3-.2,.47-.26,.18-.06,.36-.1,.54-.11,.18-.01,.36,0,.52,.04v.83c-.19-.05-.39-.06-.62-.04-.22,.02-.43,.11-.62,.25-.17,.12-.31,.27-.4,.45s-.16,.37-.2,.57c-.04,.21-.06,.42-.06,.63v2.71h-.89Z"/><path class="cls-3" d="M306.4,120.11c-.54,0-1-.12-1.39-.37-.39-.24-.69-.58-.9-1.01-.21-.43-.31-.92-.31-1.48s.11-1.06,.32-1.49c.21-.43,.52-.76,.91-1s.85-.36,1.38-.36,1,.12,1.39,.36c.39,.24,.69,.58,.9,1,.21,.43,.31,.92,.31,1.48s-.11,1.06-.32,1.49c-.21,.43-.51,.76-.9,1-.39,.24-.85,.36-1.39,.36Zm0-.85c.56,0,.98-.19,1.25-.56s.41-.86,.41-1.45-.14-1.1-.42-1.46c-.28-.36-.69-.54-1.25-.54-.38,0-.69,.08-.93,.25-.24,.17-.43,.41-.54,.71-.12,.3-.18,.65-.18,1.04,0,.61,.14,1.09,.42,1.46,.28,.37,.69,.55,1.24,.55Z"/><path class="cls-3" d="M312.23,120.11c-.5,0-.94-.13-1.29-.38-.36-.25-.64-.59-.83-1.02s-.29-.92-.29-1.46,.1-1.03,.29-1.46,.47-.77,.83-1.02c.36-.25,.79-.37,1.29-.37s.94,.12,1.28,.37c.35,.25,.61,.58,.79,1.01,.18,.43,.27,.92,.27,1.46s-.09,1.02-.27,1.45c-.18,.43-.44,.77-.79,1.03s-.77,.38-1.28,.38Zm.06,2.4c-.28,0-.56-.04-.83-.13-.27-.09-.52-.22-.74-.39s-.41-.4-.56-.66l.82-.43c.13,.26,.32,.46,.57,.58s.5,.18,.76,.18c.34,0,.63-.06,.86-.19s.39-.31,.5-.56c.11-.25,.16-.55,.16-.92v-1.48h.1v-3.95h.79v5.44c0,.15,0,.29-.01,.42,0,.14-.03,.27-.05,.41-.07,.38-.21,.7-.42,.95-.21,.25-.47,.43-.8,.55-.33,.12-.7,.18-1.13,.18Zm.04-3.21c.36,0,.66-.09,.9-.26s.41-.42,.52-.72c.11-.31,.17-.66,.17-1.05s-.06-.75-.17-1.06c-.11-.3-.28-.54-.51-.71-.23-.17-.52-.26-.88-.26s-.67,.09-.91,.27-.42,.42-.53,.73-.17,.65-.17,1.03,.06,.73,.17,1.04c.12,.31,.29,.55,.53,.73,.23,.18,.53,.27,.88,.27Z"/><path class="cls-3" d="M316.11,119.96v-5.4h.79v1.31l-.13-.17c.06-.17,.15-.32,.25-.46,.1-.14,.22-.26,.34-.35,.14-.11,.3-.2,.47-.26,.18-.06,.36-.1,.54-.11,.18-.01,.36,0,.52,.04v.83c-.19-.05-.39-.06-.62-.04-.22,.02-.43,.11-.62,.25-.17,.12-.31,.27-.4,.45s-.16,.37-.2,.57c-.04,.21-.06,.42-.06,.63v2.71h-.89Z"/><path class="cls-3" d="M321.38,120.11c-.4,0-.74-.07-1.01-.22s-.48-.34-.62-.59-.21-.51-.21-.8,.05-.53,.16-.74c.11-.21,.26-.38,.46-.52,.2-.14,.43-.25,.71-.33,.26-.07,.54-.13,.86-.18s.64-.1,.97-.14c.33-.04,.63-.08,.92-.12l-.32,.19c0-.48-.09-.83-.29-1.07-.2-.23-.55-.34-1.04-.34-.33,0-.61,.07-.86,.22-.25,.15-.42,.39-.52,.72l-.85-.25c.13-.47,.38-.84,.76-1.11,.37-.27,.86-.41,1.47-.41,.49,0,.91,.09,1.26,.26,.35,.17,.6,.44,.76,.79,.08,.17,.12,.35,.15,.54,.02,.19,.03,.4,.03,.61v3.34h-.79v-1.29l.18,.12c-.2,.44-.49,.77-.85,.99-.37,.22-.81,.33-1.33,.33Zm.13-.75c.32,0,.6-.06,.83-.17,.24-.12,.42-.27,.57-.46,.14-.19,.24-.39,.28-.62,.05-.17,.08-.35,.08-.56s0-.36,0-.47l.31,.13c-.29,.04-.58,.08-.86,.12-.28,.04-.54,.08-.79,.12-.25,.04-.47,.09-.67,.15-.15,.05-.28,.11-.41,.18-.13,.07-.23,.17-.31,.28s-.12,.26-.12,.43c0,.15,.04,.29,.11,.42,.08,.13,.19,.24,.35,.33,.16,.08,.37,.12,.62,.12Z"/><path class="cls-3" d="M325.46,119.96v-5.4h.79v1.45h.1v3.96h-.89Zm3.23,0v-3.42c0-.41-.1-.74-.31-.97-.21-.24-.5-.35-.85-.35s-.63,.12-.85,.36-.33,.56-.33,.96l-.47-.28c0-.35,.08-.66,.25-.94,.17-.28,.39-.49,.68-.65,.29-.16,.61-.24,.98-.24s.68,.08,.95,.23c.27,.15,.48,.37,.62,.66,.15,.29,.22,.62,.22,1.02v3.63h-.89Zm3.23,0v-3.46c0-.4-.1-.72-.32-.95-.22-.23-.49-.34-.84-.34-.2,0-.39,.05-.57,.14-.18,.09-.33,.24-.44,.43-.11,.2-.17,.44-.17,.75l-.47-.19c0-.38,.07-.72,.24-1.01,.17-.29,.39-.51,.68-.67,.29-.16,.61-.24,.97-.24,.56,0,1.01,.17,1.33,.51,.32,.34,.48,.8,.48,1.38v3.65h-.89Z"/><path class="cls-3" d="M338.46,120.11c-.4,0-.77-.06-1.12-.18-.35-.12-.64-.3-.87-.55-.18-.2-.31-.42-.4-.66-.09-.24-.14-.5-.15-.77,0-.26,.04-.52,.12-.77,.08-.25,.2-.48,.37-.67,.09-.11,.18-.2,.29-.27s.22-.14,.33-.19c-.23-.25-.41-.48-.53-.7-.12-.22-.18-.48-.18-.78,0-.39,.1-.74,.3-1.06,.2-.32,.48-.55,.83-.69,.17-.07,.34-.12,.52-.15,.18-.03,.35-.04,.52-.04,.29,0,.56,.04,.83,.12,.27,.08,.5,.21,.69,.39,.13,.11,.24,.23,.33,.37,.09,.14,.16,.28,.21,.43l-.87,.23c-.06-.17-.17-.31-.31-.43-.12-.1-.25-.17-.41-.21-.15-.04-.31-.05-.47-.05-.26,0-.5,.05-.71,.15-.19,.09-.33,.22-.42,.38-.09,.16-.14,.35-.14,.57,0,.19,.03,.35,.1,.47,.07,.12,.16,.25,.27,.39,.07,.07,.15,.15,.24,.23,.09,.08,.18,.17,.27,.25l2.12,1.97c0-.08,.02-.17,.02-.25,0-.09,0-.17,0-.25v-1s.81,0,.81,0v1.17c0,.24,0,.44-.02,.61-.01,.17-.04,.3-.07,.42l.92,.84-.58,.62-.76-.72c-.13,.15-.29,.28-.46,.39-.18,.11-.36,.19-.54,.25-.17,.06-.35,.11-.53,.13s-.36,.04-.54,.04Zm.02-.86c.16,0,.31,0,.45-.03,.13-.02,.26-.06,.38-.11,.16-.08,.28-.15,.37-.22,.09-.07,.16-.13,.21-.19l-2.19-2.01c-.12,.04-.23,.09-.34,.16-.11,.07-.2,.15-.27,.24-.09,.11-.15,.23-.19,.38-.04,.14-.06,.29-.06,.46,0,.17,.03,.33,.08,.47,.05,.14,.13,.27,.22,.38,.15,.17,.35,.29,.6,.37s.5,.12,.74,.12Z"/><path class="cls-3" d="M346.81,120.11c-.5,0-.94-.13-1.29-.38-.36-.25-.64-.59-.83-1.02s-.29-.92-.29-1.46,.1-1.03,.29-1.46,.47-.77,.83-1.02c.36-.25,.79-.37,1.29-.37s.94,.12,1.28,.37c.35,.25,.61,.58,.79,1.01,.18,.43,.27,.92,.27,1.46s-.09,1.02-.27,1.45c-.18,.43-.44,.77-.79,1.03s-.77,.38-1.28,.38Zm.06,2.4c-.28,0-.56-.04-.83-.13-.27-.09-.52-.22-.74-.39s-.41-.4-.56-.66l.82-.43c.13,.26,.32,.46,.57,.58s.5,.18,.76,.18c.34,0,.63-.06,.86-.19s.39-.31,.5-.56c.11-.25,.16-.55,.16-.92v-1.48h.1v-3.95h.79v5.44c0,.15,0,.29-.01,.42,0,.14-.03,.27-.05,.41-.07,.38-.21,.7-.42,.95-.21,.25-.47,.43-.8,.55-.33,.12-.7,.18-1.13,.18Zm.04-3.21c.36,0,.66-.09,.9-.26s.41-.42,.52-.72c.11-.31,.17-.66,.17-1.05s-.06-.75-.17-1.06c-.11-.3-.28-.54-.51-.71-.23-.17-.52-.26-.88-.26s-.67,.09-.91,.27-.42,.42-.53,.73-.17,.65-.17,1.03,.06,.73,.17,1.04c.12,.31,.29,.55,.53,.73,.23,.18,.53,.27,.88,.27Z"/><path class="cls-3" d="M350.69,119.96v-5.4h.79v1.31l-.13-.17c.06-.17,.15-.32,.25-.46,.1-.14,.22-.26,.34-.35,.14-.11,.3-.2,.47-.26,.18-.06,.36-.1,.54-.11,.18-.01,.36,0,.52,.04v.83c-.19-.05-.39-.06-.62-.04-.22,.02-.43,.11-.62,.25-.17,.12-.31,.27-.4,.45s-.16,.37-.2,.57c-.04,.21-.06,.42-.06,.63v2.71h-.89Z"/><path class="cls-3" d="M355.96,120.11c-.4,0-.74-.07-1.01-.22s-.48-.34-.62-.59-.21-.51-.21-.8,.05-.53,.16-.74c.11-.21,.26-.38,.46-.52,.2-.14,.43-.25,.71-.33,.26-.07,.54-.13,.86-.18s.64-.1,.97-.14c.33-.04,.63-.08,.92-.12l-.32,.19c0-.48-.09-.83-.29-1.07-.2-.23-.55-.34-1.04-.34-.33,0-.61,.07-.86,.22-.25,.15-.42,.39-.52,.72l-.85-.25c.13-.47,.38-.84,.76-1.11,.37-.27,.86-.41,1.47-.41,.49,0,.91,.09,1.26,.26,.35,.17,.6,.44,.76,.79,.08,.17,.12,.35,.15,.54,.02,.19,.03,.4,.03,.61v3.34h-.79v-1.29l.18,.12c-.2,.44-.49,.77-.85,.99-.37,.22-.81,.33-1.33,.33Zm.13-.75c.32,0,.6-.06,.83-.17,.24-.12,.42-.27,.57-.46,.14-.19,.24-.39,.28-.62,.05-.17,.08-.35,.08-.56s0-.36,0-.47l.31,.13c-.29,.04-.58,.08-.86,.12-.28,.04-.54,.08-.79,.12-.25,.04-.47,.09-.67,.15-.15,.05-.28,.11-.41,.18-.13,.07-.23,.17-.31,.28s-.12,.26-.12,.43c0,.15,.04,.29,.11,.42,.08,.13,.19,.24,.35,.33,.16,.08,.37,.12,.62,.12Z"/><path class="cls-3" d="M360.04,119.96v-5.4h.8v1.45h.1v3.96h-.9Zm3.85,0v-2.71c0-.26-.02-.5-.07-.74-.04-.24-.12-.45-.24-.64-.11-.19-.26-.34-.45-.45-.19-.11-.43-.17-.71-.17-.22,0-.43,.04-.61,.11-.18,.07-.34,.19-.47,.34s-.23,.35-.3,.58c-.07,.23-.11,.5-.11,.82l-.58-.18c0-.52,.09-.97,.28-1.35,.19-.38,.45-.66,.79-.87,.34-.2,.74-.3,1.21-.3,.35,0,.65,.05,.9,.17,.25,.11,.45,.26,.61,.44,.16,.18,.29,.38,.39,.61,.09,.22,.16,.45,.2,.68s.06,.45,.06,.66v2.99h-.9Z"/><path class="cls-3" d="M365.49,115.3v-.74h3.62v.74h-3.62Zm3.62,4.67c-.32,.06-.64,.09-.95,.08s-.59-.07-.83-.19c-.24-.12-.43-.29-.55-.54-.11-.21-.16-.43-.17-.65,0-.22-.01-.47-.01-.74v-4.86h.89v4.82c0,.22,0,.41,0,.57,0,.16,.04,.29,.1,.4,.12,.21,.31,.34,.57,.38,.26,.04,.58,.03,.95-.03v.76Z"/><path class="cls-3" d="M372.25,120.11c-.64,0-1.17-.14-1.58-.42-.41-.28-.66-.68-.76-1.18l.91-.15c.07,.29,.24,.53,.51,.7,.26,.17,.59,.26,.98,.26s.66-.08,.87-.23,.32-.36,.32-.62c0-.15-.04-.28-.11-.37-.07-.09-.21-.18-.43-.27-.22-.08-.55-.18-.99-.3-.48-.13-.85-.26-1.12-.39s-.47-.29-.58-.48c-.12-.18-.17-.4-.17-.65,0-.32,.09-.59,.26-.83,.17-.24,.42-.42,.73-.55,.31-.13,.67-.19,1.09-.19s.78,.06,1.1,.19c.32,.13,.58,.31,.78,.55s.32,.52,.35,.83l-.91,.17c-.04-.29-.18-.52-.42-.69-.24-.17-.54-.25-.91-.26-.35-.01-.63,.05-.85,.18-.22,.14-.33,.32-.33,.56,0,.13,.04,.24,.12,.33,.08,.09,.23,.18,.46,.26,.22,.08,.54,.18,.97,.29,.48,.12,.85,.25,1.13,.39,.27,.14,.47,.31,.59,.5,.12,.19,.18,.43,.18,.71,0,.52-.19,.93-.58,1.23-.38,.3-.91,.45-1.58,.45Z"/></g><g><path class="cls-3" d="M408.92,81.14v-5.88l-1.35,.83v-1.33l1.35-.81h1.23v7.2h-1.23Z"/><path class="cls-3" d="M414.54,81.29c-.47,0-.89-.11-1.27-.33s-.67-.53-.89-.92c-.22-.39-.33-.84-.33-1.35v-2.19c0-.55,.11-1.02,.33-1.42,.22-.4,.53-.71,.92-.93,.4-.22,.85-.33,1.38-.33,.36,0,.71,.06,1.04,.18,.33,.12,.62,.32,.87,.58l-.87,.84c-.13-.15-.28-.27-.46-.35s-.37-.13-.57-.13c-.28,0-.53,.07-.74,.2s-.37,.3-.49,.52-.17,.44-.17,.68v1.2l-.22-.24c.21-.24,.46-.43,.75-.56,.29-.13,.59-.2,.91-.2,.45,0,.85,.1,1.2,.31s.62,.49,.82,.84c.2,.36,.3,.76,.3,1.21s-.11,.86-.34,1.22c-.23,.37-.53,.66-.91,.87-.38,.22-.79,.32-1.24,.32Zm0-1.16c.23,0,.45-.06,.64-.17,.19-.11,.35-.26,.46-.46,.11-.19,.17-.4,.17-.64s-.06-.45-.17-.64-.27-.35-.46-.46c-.19-.12-.4-.17-.64-.17s-.45,.06-.64,.17c-.19,.11-.35,.27-.46,.46s-.17,.41-.17,.64,.06,.44,.17,.63c.11,.19,.26,.34,.46,.46,.19,.12,.4,.17,.64,.17Z"/><path class="cls-3" d="M418.46,81.14v-1.24h1.23v1.24h-1.23Z"/><path class="cls-3" d="M423.89,81.29c-.51,0-.96-.11-1.35-.33-.39-.22-.69-.52-.91-.91-.22-.39-.33-.84-.33-1.35v-2.32c0-.51,.11-.96,.33-1.35,.22-.39,.52-.69,.91-.91,.39-.22,.84-.33,1.35-.33s.96,.11,1.35,.33c.39,.22,.69,.52,.91,.91,.22,.39,.33,.84,.33,1.35v2.32c0,.51-.11,.96-.33,1.35-.22,.39-.52,.69-.91,.91-.39,.22-.84,.33-1.35,.33Zm0-1.15c.25,0,.48-.06,.69-.18,.21-.12,.37-.29,.49-.49,.12-.2,.18-.43,.18-.69v-2.49c0-.26-.06-.49-.18-.69-.12-.2-.28-.37-.49-.49-.21-.12-.44-.18-.69-.18s-.48,.06-.69,.18c-.21,.12-.37,.29-.49,.49-.12,.21-.18,.44-.18,.69v2.49c0,.25,.06,.48,.18,.69,.12,.21,.28,.37,.49,.49,.21,.12,.44,.18,.69,.18Z"/><path class="cls-3" d="M430.47,81.29c-.51,0-.96-.11-1.35-.33-.39-.22-.69-.52-.91-.91-.22-.39-.33-.84-.33-1.35v-2.32c0-.51,.11-.96,.33-1.35,.22-.39,.52-.69,.91-.91,.39-.22,.84-.33,1.35-.33s.96,.11,1.35,.33c.39,.22,.69,.52,.91,.91,.22,.39,.33,.84,.33,1.35v2.32c0,.51-.11,.96-.33,1.35-.22,.39-.52,.69-.91,.91-.39,.22-.84,.33-1.35,.33Zm0-1.15c.25,0,.48-.06,.69-.18,.21-.12,.37-.29,.49-.49,.12-.2,.18-.43,.18-.69v-2.49c0-.26-.06-.49-.18-.69-.12-.2-.28-.37-.49-.49-.21-.12-.44-.18-.69-.18s-.48,.06-.69,.18c-.21,.12-.37,.29-.49,.49-.12,.21-.18,.44-.18,.69v2.49c0,.25,.06,.48,.18,.69,.12,.21,.28,.37,.49,.49,.21,.12,.44,.18,.69,.18Z"/><path class="cls-3" d="M436.16,77.39c-.33,0-.63-.08-.91-.24-.27-.16-.49-.38-.65-.65-.16-.27-.24-.57-.24-.91s.08-.63,.25-.9c.17-.27,.39-.49,.66-.66,.27-.16,.57-.24,.89-.24s.63,.08,.9,.24,.49,.38,.65,.65c.16,.27,.25,.57,.25,.91s-.08,.64-.25,.91-.38,.49-.65,.65c-.27,.16-.57,.24-.9,.24Zm-.7,3.75l-.8-.8,6.4-6.4,.8,.81-6.41,6.39Zm.7-4.78c.14,0,.27-.04,.38-.1,.12-.07,.21-.16,.28-.28,.07-.12,.1-.25,.1-.38s-.04-.27-.1-.38c-.07-.12-.16-.21-.28-.28-.12-.07-.25-.11-.38-.11s-.27,.04-.39,.11c-.12,.07-.21,.16-.28,.28-.07,.12-.11,.24-.11,.38s.04,.27,.11,.38c.07,.12,.16,.21,.28,.28,.12,.07,.25,.1,.39,.1Zm4.21,4.93c-.33,0-.63-.08-.9-.24-.27-.16-.49-.38-.65-.65s-.25-.57-.25-.91,.08-.63,.25-.9c.17-.27,.39-.49,.66-.66s.57-.25,.89-.25,.63,.08,.9,.24c.27,.16,.49,.38,.65,.65,.16,.27,.24,.57,.24,.91s-.08,.64-.24,.91c-.16,.27-.38,.49-.65,.65-.27,.16-.58,.24-.9,.24Zm0-1.03c.14,0,.26-.04,.38-.11,.12-.07,.21-.16,.28-.28,.07-.12,.11-.25,.11-.39s-.04-.27-.11-.38c-.07-.12-.16-.21-.28-.28-.12-.07-.25-.1-.38-.1s-.27,.04-.39,.1c-.12,.07-.21,.16-.28,.28-.07,.12-.11,.25-.11,.38s.04,.27,.11,.39c.07,.12,.17,.21,.28,.28,.12,.07,.25,.11,.39,.11Z"/></g><g><path class="cls-3" d="M409.18,100.56v-5.88l-1.35,.83v-1.33l1.35-.81h1.23v7.2h-1.23Z"/><path class="cls-3" d="M412.11,100.55v-1.05l3.08-2.75c.24-.21,.41-.42,.5-.61,.09-.19,.14-.37,.14-.55,0-.24-.05-.45-.15-.64-.1-.19-.25-.34-.43-.45-.18-.11-.39-.17-.63-.17-.25,0-.47,.06-.66,.17-.19,.12-.34,.27-.45,.46-.11,.19-.16,.39-.15,.62h-1.24c0-.48,.11-.9,.32-1.25,.22-.36,.51-.63,.89-.83,.38-.2,.82-.29,1.31-.29,.46,0,.87,.1,1.24,.31,.37,.21,.65,.49,.86,.85s.32,.78,.32,1.25c0,.34-.05,.63-.14,.87-.09,.23-.23,.45-.42,.65-.18,.2-.41,.42-.69,.65l-2.18,1.94-.11-.3h3.54v1.13h-4.96Z"/><path class="cls-3" d="M418.46,100.56v-1.24h1.23v1.24h-1.23Z"/><path class="cls-3" d="M423.89,100.71c-.51,0-.96-.11-1.35-.33-.39-.22-.69-.52-.91-.91-.22-.39-.33-.84-.33-1.35v-2.32c0-.51,.11-.96,.33-1.35,.22-.39,.52-.69,.91-.91,.39-.22,.84-.33,1.35-.33s.96,.11,1.35,.33c.39,.22,.69,.52,.91,.91,.22,.39,.33,.84,.33,1.35v2.32c0,.51-.11,.96-.33,1.35-.22,.39-.52,.69-.91,.91-.39,.22-.84,.33-1.35,.33Zm0-1.15c.25,0,.48-.06,.69-.18,.21-.12,.37-.29,.49-.49,.12-.2,.18-.43,.18-.69v-2.49c0-.26-.06-.49-.18-.69-.12-.2-.28-.37-.49-.49-.21-.12-.44-.18-.69-.18s-.48,.06-.69,.18c-.21,.12-.37,.29-.49,.49-.12,.21-.18,.44-.18,.69v2.49c0,.25,.06,.48,.18,.69,.12,.21,.28,.37,.49,.49,.21,.12,.44,.18,.69,.18Z"/><path class="cls-3" d="M430.47,100.71c-.51,0-.96-.11-1.35-.33-.39-.22-.69-.52-.91-.91-.22-.39-.33-.84-.33-1.35v-2.32c0-.51,.11-.96,.33-1.35,.22-.39,.52-.69,.91-.91,.39-.22,.84-.33,1.35-.33s.96,.11,1.35,.33c.39,.22,.69,.52,.91,.91,.22,.39,.33,.84,.33,1.35v2.32c0,.51-.11,.96-.33,1.35-.22,.39-.52,.69-.91,.91-.39,.22-.84,.33-1.35,.33Zm0-1.15c.25,0,.48-.06,.69-.18,.21-.12,.37-.29,.49-.49,.12-.2,.18-.43,.18-.69v-2.49c0-.26-.06-.49-.18-.69-.12-.2-.28-.37-.49-.49-.21-.12-.44-.18-.69-.18s-.48,.06-.69,.18c-.21,.12-.37,.29-.49,.49-.12,.21-.18,.44-.18,.69v2.49c0,.25,.06,.48,.18,.69,.12,.21,.28,.37,.49,.49,.21,.12,.44,.18,.69,.18Z"/><path class="cls-3" d="M436.16,96.81c-.33,0-.63-.08-.91-.24-.27-.16-.49-.38-.65-.65-.16-.27-.24-.57-.24-.91s.08-.63,.25-.9c.17-.27,.39-.49,.66-.66,.27-.16,.57-.24,.89-.24s.63,.08,.9,.24,.49,.38,.65,.65c.16,.27,.25,.57,.25,.91s-.08,.64-.25,.91-.38,.49-.65,.65c-.27,.16-.57,.24-.9,.24Zm-.7,3.75l-.8-.8,6.4-6.4,.8,.81-6.41,6.39Zm.7-4.78c.14,0,.27-.04,.38-.1,.12-.07,.21-.16,.28-.28,.07-.12,.1-.25,.1-.38s-.04-.27-.1-.38c-.07-.12-.16-.21-.28-.28-.12-.07-.25-.11-.38-.11s-.27,.04-.39,.11c-.12,.07-.21,.16-.28,.28-.07,.12-.11,.24-.11,.38s.04,.27,.11,.38c.07,.12,.16,.21,.28,.28,.12,.07,.25,.1,.39,.1Zm4.21,4.93c-.33,0-.63-.08-.9-.24-.27-.16-.49-.38-.65-.65s-.25-.57-.25-.91,.08-.63,.25-.9c.17-.27,.39-.49,.66-.66s.57-.25,.89-.25,.63,.08,.9,.24c.27,.16,.49,.38,.65,.65,.16,.27,.24,.57,.24,.91s-.08,.64-.24,.91c-.16,.27-.38,.49-.65,.65-.27,.16-.58,.24-.9,.24Zm0-1.03c.14,0,.26-.04,.38-.11,.12-.07,.21-.16,.28-.28,.07-.12,.11-.25,.11-.39s-.04-.27-.11-.38c-.07-.12-.16-.21-.28-.28-.12-.07-.25-.1-.38-.1s-.27,.04-.39,.1c-.12,.07-.21,.16-.28,.28-.07,.12-.11,.25-.11,.38s.04,.27,.11,.39c.07,.12,.17,.21,.28,.28,.12,.07,.25,.11,.39,.11Z"/></g><g><path class="cls-3" d="M406.29,119.96v-1.05l3.08-2.75c.24-.21,.41-.42,.5-.61,.09-.19,.14-.37,.14-.55,0-.24-.05-.45-.15-.64-.1-.19-.25-.34-.43-.45-.18-.11-.39-.17-.63-.17-.25,0-.47,.06-.66,.17-.19,.12-.34,.27-.45,.46-.11,.19-.16,.39-.15,.62h-1.24c0-.48,.11-.9,.32-1.25,.22-.36,.51-.63,.89-.83,.38-.2,.82-.29,1.31-.29,.46,0,.87,.1,1.24,.31,.37,.21,.65,.49,.86,.85s.32,.78,.32,1.25c0,.34-.05,.63-.14,.87-.09,.23-.23,.45-.42,.65-.18,.2-.41,.42-.69,.65l-2.18,1.94-.11-.3h3.54v1.13h-4.96Z"/><path class="cls-3" d="M414.51,120.11c-.36,0-.7-.07-1.02-.21-.32-.14-.6-.34-.83-.59-.23-.26-.4-.56-.51-.91l1.17-.31c.08,.29,.24,.51,.46,.66s.47,.23,.73,.23c.24,0,.45-.05,.63-.17s.33-.26,.44-.45,.16-.4,.16-.63c0-.36-.12-.66-.35-.89-.23-.24-.53-.36-.89-.36-.11,0-.22,.01-.32,.04-.11,.03-.21,.07-.3,.12l-.55-.95,2.42-2.07,.11,.29h-3.43v-1.13h4.42v1.14l-1.94,1.87v-.35c.43,.03,.8,.15,1.11,.37,.31,.21,.54,.49,.71,.82,.17,.34,.25,.71,.25,1.11,0,.45-.11,.86-.33,1.22-.22,.36-.52,.64-.89,.85-.37,.21-.78,.31-1.23,.31Z"/><path class="cls-3" d="M418.46,119.97v-1.24h1.23v1.24h-1.23Z"/><path class="cls-3" d="M423.89,120.12c-.51,0-.96-.11-1.35-.33-.39-.22-.69-.52-.91-.91-.22-.39-.33-.84-.33-1.35v-2.32c0-.51,.11-.96,.33-1.35,.22-.39,.52-.69,.91-.91,.39-.22,.84-.33,1.35-.33s.96,.11,1.35,.33c.39,.22,.69,.52,.91,.91,.22,.39,.33,.84,.33,1.35v2.32c0,.51-.11,.96-.33,1.35-.22,.39-.52,.69-.91,.91-.39,.22-.84,.33-1.35,.33Zm0-1.15c.25,0,.48-.06,.69-.18,.21-.12,.37-.29,.49-.49,.12-.2,.18-.43,.18-.69v-2.49c0-.26-.06-.49-.18-.69-.12-.2-.28-.37-.49-.49-.21-.12-.44-.18-.69-.18s-.48,.06-.69,.18c-.21,.12-.37,.29-.49,.49-.12,.21-.18,.44-.18,.69v2.49c0,.25,.06,.48,.18,.69,.12,.21,.28,.37,.49,.49,.21,.12,.44,.18,.69,.18Z"/><path class="cls-3" d="M430.47,120.12c-.51,0-.96-.11-1.35-.33-.39-.22-.69-.52-.91-.91-.22-.39-.33-.84-.33-1.35v-2.32c0-.51,.11-.96,.33-1.35,.22-.39,.52-.69,.91-.91,.39-.22,.84-.33,1.35-.33s.96,.11,1.35,.33c.39,.22,.69,.52,.91,.91,.22,.39,.33,.84,.33,1.35v2.32c0,.51-.11,.96-.33,1.35-.22,.39-.52,.69-.91,.91-.39,.22-.84,.33-1.35,.33Zm0-1.15c.25,0,.48-.06,.69-.18,.21-.12,.37-.29,.49-.49,.12-.2,.18-.43,.18-.69v-2.49c0-.26-.06-.49-.18-.69-.12-.2-.28-.37-.49-.49-.21-.12-.44-.18-.69-.18s-.48,.06-.69,.18c-.21,.12-.37,.29-.49,.49-.12,.21-.18,.44-.18,.69v2.49c0,.25,.06,.48,.18,.69,.12,.21,.28,.37,.49,.49,.21,.12,.44,.18,.69,.18Z"/><path class="cls-3" d="M436.16,116.22c-.33,0-.63-.08-.91-.24-.27-.16-.49-.38-.65-.65-.16-.27-.24-.57-.24-.91s.08-.63,.25-.9c.17-.27,.39-.49,.66-.66,.27-.16,.57-.24,.89-.24s.63,.08,.9,.24,.49,.38,.65,.65c.16,.27,.25,.57,.25,.91s-.08,.64-.25,.91-.38,.49-.65,.65c-.27,.16-.57,.24-.9,.24Zm-.7,3.75l-.8-.8,6.4-6.4,.8,.81-6.41,6.39Zm.7-4.78c.14,0,.27-.04,.38-.1,.12-.07,.21-.16,.28-.28,.07-.12,.1-.25,.1-.38s-.04-.27-.1-.38c-.07-.12-.16-.21-.28-.28-.12-.07-.25-.11-.38-.11s-.27,.04-.39,.11c-.12,.07-.21,.16-.28,.28-.07,.12-.11,.24-.11,.38s.04,.27,.11,.38c.07,.12,.16,.21,.28,.28,.12,.07,.25,.1,.39,.1Zm4.21,4.93c-.33,0-.63-.08-.9-.24-.27-.16-.49-.38-.65-.65s-.25-.57-.25-.91,.08-.63,.25-.9c.17-.27,.39-.49,.66-.66s.57-.25,.89-.25,.63,.08,.9,.24c.27,.16,.49,.38,.65,.65,.16,.27,.24,.57,.24,.91s-.08,.64-.24,.91c-.16,.27-.38,.49-.65,.65-.27,.16-.58,.24-.9,.24Zm0-1.03c.14,0,.26-.04,.38-.11,.12-.07,.21-.16,.28-.28,.07-.12,.11-.25,.11-.39s-.04-.27-.11-.38c-.07-.12-.16-.21-.28-.28-.12-.07-.25-.1-.38-.1s-.27,.04-.39,.1c-.12,.07-.21,.16-.28,.28-.07,.12-.11,.25-.11,.38s.04,.27,.11,.39c.07,.12,.17,.21,.28,.28,.12,.07,.25,.11,.39,.11Z"/></g><line class="cls-6" x1="257.49" y1="67.95" x2="442.76" y2="67.95"/><line class="cls-6" x1="257.49" y1="87.33" x2="442.76" y2="87.33"/><line class="cls-6" x1="257.49" y1="106.71" x2="442.76" y2="106.71"/><g><path class="cls-4" d="M258.19,166.29v-7.2h2.97c.07,0,.16,0,.27,0,.11,0,.21,.02,.3,.03,.42,.06,.76,.2,1.03,.42,.27,.21,.47,.48,.61,.81s.2,.69,.2,1.08-.07,.75-.2,1.08c-.13,.33-.34,.59-.61,.81-.27,.21-.61,.35-1.03,.42-.09,.01-.2,.02-.31,.03-.11,0-.2,.01-.27,.01h-1.77v2.51h-1.21Zm1.21-3.64h1.72c.07,0,.14,0,.22-.01,.08,0,.16-.02,.23-.04,.2-.05,.36-.14,.47-.26s.2-.27,.25-.43c.05-.16,.07-.32,.07-.47s-.02-.31-.07-.47c-.05-.16-.13-.31-.25-.43s-.27-.21-.47-.27c-.07-.02-.15-.03-.23-.04-.08,0-.16,0-.22,0h-1.72v2.43Z"/><path class="cls-4" d="M264.58,166.29v-5.4h1.06v1.32l-.13-.17c.07-.18,.16-.34,.27-.49,.11-.15,.25-.27,.4-.37,.13-.09,.28-.16,.44-.21,.16-.05,.33-.08,.5-.1s.33,0,.5,.02v1.12c-.16-.05-.34-.06-.55-.04s-.4,.08-.56,.18c-.17,.09-.3,.2-.41,.34-.11,.14-.18,.3-.23,.48-.05,.18-.08,.37-.08,.58v2.75h-1.21Z"/><path class="cls-4" d="M268.67,160.07v-1.11h1.21v1.11h-1.21Zm0,6.22v-5.4h1.21v5.4h-1.21Z"/><path class="cls-4" d="M272.83,166.29l-1.96-5.4h1.21l1.36,3.92,1.36-3.92h1.21l-1.96,5.4h-1.21Z"/><path class="cls-4" d="M278.41,166.44c-.39,0-.72-.07-.99-.22-.27-.15-.47-.35-.61-.59s-.21-.52-.21-.82c0-.26,.04-.49,.13-.7,.09-.21,.22-.39,.4-.54,.18-.15,.41-.28,.7-.37,.22-.07,.47-.13,.76-.19s.61-.11,.95-.16c.34-.05,.7-.1,1.07-.16l-.43,.24c0-.37-.08-.65-.25-.82s-.46-.27-.86-.27c-.24,0-.48,.06-.71,.17s-.38,.31-.47,.58l-1.1-.34c.13-.46,.39-.82,.76-1.1,.38-.28,.88-.42,1.52-.42,.48,0,.9,.08,1.27,.23,.37,.16,.64,.41,.81,.77,.1,.19,.16,.38,.17,.58,.02,.2,.03,.42,.03,.65v3.32h-1.05v-1.17l.17,.19c-.24,.39-.53,.68-.85,.86s-.73,.27-1.22,.27Zm.24-.96c.27,0,.51-.05,.7-.15s.35-.21,.46-.35c.12-.14,.19-.27,.23-.4,.06-.15,.1-.33,.11-.53,0-.2,.01-.36,.01-.48l.37,.11c-.36,.06-.67,.11-.93,.15-.26,.04-.48,.08-.67,.12-.19,.04-.35,.08-.5,.13-.14,.05-.26,.11-.36,.17-.1,.07-.17,.14-.22,.23s-.08,.19-.08,.3c0,.13,.03,.25,.1,.35,.07,.1,.16,.18,.29,.24,.13,.06,.29,.09,.48,.09Z"/><path class="cls-4" d="M282.06,161.83v-.95h3.77v.95h-3.77Zm3.77,4.46c-.36,.07-.71,.1-1.05,.09-.34,0-.65-.07-.92-.19-.27-.12-.48-.31-.62-.56-.12-.23-.19-.47-.2-.71s0-.52,0-.83v-4.7h1.2v4.62c0,.22,0,.41,0,.57,0,.16,.04,.3,.1,.4,.12,.2,.31,.31,.58,.33s.56,0,.9-.04v1.01Z"/><path class="cls-4" d="M289.45,166.44c-.55,0-1.03-.12-1.44-.36s-.74-.56-.97-.99c-.23-.42-.35-.9-.35-1.45,0-.59,.11-1.1,.34-1.54,.23-.43,.54-.77,.94-1.01,.4-.24,.87-.36,1.4-.36,.56,0,1.04,.13,1.43,.39s.68,.63,.87,1.11c.19,.48,.26,1.04,.21,1.68h-1.19v-.44c0-.59-.11-1.02-.31-1.29-.2-.27-.52-.41-.96-.41-.49,0-.86,.15-1.1,.46-.24,.3-.36,.75-.36,1.34,0,.55,.12,.97,.36,1.27,.24,.3,.59,.45,1.05,.45,.3,0,.55-.07,.77-.2s.38-.32,.5-.57l1.19,.36c-.21,.49-.53,.86-.96,1.13-.43,.27-.91,.41-1.43,.41Zm-1.86-2.52v-.91h3.71v.91h-3.71Z"/><path class="cls-4" d="M296.52,166.44c-.39,0-.72-.07-.99-.22-.27-.15-.47-.35-.61-.59s-.21-.52-.21-.82c0-.26,.04-.49,.13-.7,.09-.21,.22-.39,.4-.54,.18-.15,.41-.28,.7-.37,.22-.07,.47-.13,.76-.19s.61-.11,.95-.16c.34-.05,.7-.1,1.07-.16l-.43,.24c0-.37-.08-.65-.25-.82s-.46-.27-.86-.27c-.24,0-.48,.06-.71,.17s-.38,.31-.47,.58l-1.1-.34c.13-.46,.39-.82,.76-1.1,.38-.28,.88-.42,1.52-.42,.48,0,.9,.08,1.27,.23,.37,.16,.64,.41,.81,.77,.1,.19,.16,.38,.17,.58,.02,.2,.03,.42,.03,.65v3.32h-1.05v-1.17l.17,.19c-.24,.39-.53,.68-.85,.86s-.73,.27-1.22,.27Zm.24-.96c.27,0,.51-.05,.7-.15s.35-.21,.46-.35c.12-.14,.19-.27,.23-.4,.06-.15,.1-.33,.11-.53,0-.2,.01-.36,.01-.48l.37,.11c-.36,.06-.67,.11-.93,.15-.26,.04-.48,.08-.67,.12-.19,.04-.35,.08-.5,.13-.14,.05-.26,.11-.36,.17-.1,.07-.17,.14-.22,.23s-.08,.19-.08,.3c0,.13,.03,.25,.1,.35,.07,.1,.16,.18,.29,.24,.13,.06,.29,.09,.48,.09Z"/><path class="cls-4" d="M300.87,166.29v-7.35h1.21v7.35h-1.21Z"/><path class="cls-4" d="M303.68,166.29v-7.35h1.21v7.35h-1.21Z"/><path class="cls-4" d="M308.77,166.44c-.54,0-1.01-.12-1.42-.37s-.72-.58-.94-1.01c-.22-.43-.33-.92-.33-1.48s.11-1.06,.34-1.49c.23-.43,.54-.76,.94-1,.4-.24,.87-.36,1.4-.36s1.02,.12,1.42,.37c.4,.24,.72,.58,.94,1.01,.22,.43,.33,.92,.33,1.48s-.11,1.05-.34,1.48c-.22,.43-.54,.76-.94,1-.4,.24-.88,.36-1.42,.36Zm0-1.13c.48,0,.84-.16,1.07-.48s.35-.73,.35-1.24-.12-.94-.35-1.25c-.24-.31-.59-.47-1.07-.47-.32,0-.59,.07-.8,.22-.21,.14-.36,.35-.46,.6-.1,.26-.15,.56-.15,.9,0,.52,.12,.94,.36,1.25s.59,.47,1.05,.47Z"/><path class="cls-4" d="M314.91,166.44c-.56,0-1.03-.12-1.42-.37s-.69-.59-.9-1.02c-.21-.43-.31-.92-.32-1.46,0-.55,.11-1.04,.33-1.47,.21-.43,.52-.76,.92-1.01,.4-.25,.87-.37,1.42-.37,.61,0,1.13,.15,1.56,.46,.43,.31,.7,.73,.83,1.26l-1.2,.33c-.09-.29-.25-.52-.46-.68-.22-.16-.46-.24-.74-.24-.31,0-.57,.07-.78,.22-.2,.15-.35,.35-.45,.61s-.15,.55-.15,.88c0,.51,.12,.93,.34,1.25,.23,.32,.57,.47,1.03,.47,.32,0,.57-.07,.76-.22,.18-.15,.32-.36,.42-.63l1.23,.28c-.17,.55-.46,.97-.88,1.27-.42,.3-.93,.44-1.53,.44Z"/><path class="cls-4" d="M319.83,166.44c-.39,0-.72-.07-.99-.22-.27-.15-.47-.35-.61-.59s-.21-.52-.21-.82c0-.26,.04-.49,.13-.7,.09-.21,.22-.39,.4-.54,.18-.15,.41-.28,.7-.37,.22-.07,.47-.13,.76-.19s.61-.11,.95-.16c.34-.05,.7-.1,1.07-.16l-.43,.24c0-.37-.08-.65-.25-.82s-.46-.27-.86-.27c-.24,0-.48,.06-.71,.17s-.38,.31-.47,.58l-1.1-.34c.13-.46,.39-.82,.76-1.1,.38-.28,.88-.42,1.52-.42,.48,0,.9,.08,1.27,.23,.37,.16,.64,.41,.81,.77,.1,.19,.16,.38,.17,.58,.02,.2,.03,.42,.03,.65v3.32h-1.05v-1.17l.17,.19c-.24,.39-.53,.68-.85,.86s-.73,.27-1.22,.27Zm.24-.96c.27,0,.51-.05,.7-.15s.35-.21,.46-.35c.12-.14,.19-.27,.23-.4,.06-.15,.1-.33,.11-.53,0-.2,.01-.36,.01-.48l.37,.11c-.36,.06-.67,.11-.93,.15-.26,.04-.48,.08-.67,.12-.19,.04-.35,.08-.5,.13-.14,.05-.26,.11-.36,.17-.1,.07-.17,.14-.22,.23s-.08,.19-.08,.3c0,.13,.03,.25,.1,.35,.07,.1,.16,.18,.29,.24,.13,.06,.29,.09,.48,.09Z"/><path class="cls-4" d="M323.48,161.83v-.95h3.77v.95h-3.77Zm3.77,4.46c-.36,.07-.71,.1-1.05,.09-.34,0-.65-.07-.92-.19-.27-.12-.48-.31-.62-.56-.12-.23-.19-.47-.2-.71s0-.52,0-.83v-4.7h1.2v4.62c0,.22,0,.41,0,.57,0,.16,.04,.3,.1,.4,.12,.2,.31,.31,.58,.33s.56,0,.9-.04v1.01Z"/><path class="cls-4" d="M328.51,160.07v-1.11h1.21v1.11h-1.21Zm0,6.22v-5.4h1.21v5.4h-1.21Z"/><path class="cls-4" d="M333.6,166.44c-.54,0-1.01-.12-1.42-.37s-.72-.58-.94-1.01c-.22-.43-.33-.92-.33-1.48s.11-1.06,.34-1.49c.23-.43,.54-.76,.94-1,.4-.24,.87-.36,1.4-.36s1.02,.12,1.42,.37c.4,.24,.72,.58,.94,1.01,.22,.43,.33,.92,.33,1.48s-.11,1.05-.34,1.48c-.22,.43-.54,.76-.94,1-.4,.24-.88,.36-1.42,.36Zm0-1.13c.48,0,.84-.16,1.07-.48s.35-.73,.35-1.24-.12-.94-.35-1.25c-.24-.31-.59-.47-1.07-.47-.32,0-.59,.07-.8,.22-.21,.14-.36,.35-.46,.6-.1,.26-.15,.56-.15,.9,0,.52,.12,.94,.36,1.25s.59,.47,1.05,.47Z"/><path class="cls-4" d="M337.38,166.29v-5.4h1.07v1.68h.15v3.72h-1.22Zm3.74,0v-2.6c0-.17-.01-.36-.03-.57-.02-.21-.08-.41-.16-.6-.08-.19-.21-.35-.38-.47-.17-.12-.4-.18-.68-.18-.15,0-.3,.03-.46,.08-.15,.05-.29,.14-.41,.26-.12,.12-.22,.29-.29,.5-.07,.21-.11,.48-.11,.81l-.71-.3c0-.46,.09-.88,.27-1.25,.18-.37,.44-.67,.79-.89s.77-.33,1.28-.33c.4,0,.73,.07,.99,.2,.26,.13,.47,.3,.62,.51,.15,.21,.27,.43,.34,.66,.07,.23,.12,.45,.14,.66,.02,.21,.03,.38,.03,.51v3.01h-1.22Z"/><path class="cls-4" d="M348.18,168.19c-.39-.45-.72-.97-1-1.54-.28-.57-.49-1.17-.63-1.8-.14-.63-.21-1.25-.2-1.87-.01-.62,.06-1.24,.2-1.87,.14-.63,.35-1.23,.63-1.8,.28-.57,.61-1.08,1-1.54l.89,.66c-.4,.48-.72,.97-.96,1.46s-.41,1-.51,1.51c-.1,.51-.16,1.04-.16,1.57,0,.54,.06,1.06,.16,1.57,.11,.51,.28,1.01,.51,1.51s.55,.98,.96,1.46l-.89,.67Z"/><path class="cls-4" d="M353.17,166.29v-1.19h-3.19v-1.12l2.3-4.88h1.38l-2.3,4.88h1.82v-1.88h1.22v1.88h.67v1.12h-.67v1.19h-1.22Z"/><path class="cls-4" d="M358.35,158.95c.47,0,.89,.11,1.27,.33s.67,.53,.89,.92c.22,.39,.33,.84,.33,1.35v2.2c0,.54-.11,1.02-.33,1.42-.22,.4-.52,.72-.92,.94-.39,.22-.85,.33-1.38,.33-.36,0-.71-.06-1.03-.19s-.61-.32-.87-.58l.87-.84c.13,.15,.29,.27,.47,.35s.37,.13,.57,.13c.28,0,.53-.07,.74-.2s.37-.3,.49-.51c.12-.21,.17-.44,.17-.68v-1.2l.21,.24c-.2,.24-.45,.43-.74,.56s-.59,.2-.92,.2c-.45,0-.85-.1-1.2-.31s-.62-.49-.82-.84c-.2-.35-.3-.76-.3-1.21s.11-.86,.34-1.22,.53-.66,.91-.87c.38-.21,.79-.32,1.24-.32Zm0,1.15c-.23,0-.45,.06-.64,.17s-.35,.27-.46,.46-.17,.4-.17,.64,.06,.45,.17,.64c.11,.19,.26,.35,.46,.46,.19,.11,.4,.17,.64,.17s.45-.06,.64-.17,.35-.27,.46-.46c.12-.19,.17-.41,.17-.64s-.06-.44-.17-.63c-.11-.19-.27-.35-.46-.46-.19-.12-.4-.18-.64-.18Z"/><path class="cls-4" d="M363.94,162.54c-.33,0-.63-.08-.91-.24-.27-.16-.49-.38-.65-.65-.16-.27-.24-.57-.24-.91s.08-.63,.25-.9c.17-.27,.39-.49,.66-.66,.27-.16,.57-.24,.89-.24s.63,.08,.9,.24,.49,.38,.65,.65c.16,.27,.25,.57,.25,.91s-.08,.64-.25,.91-.38,.49-.65,.65c-.27,.16-.57,.24-.9,.24Zm-.7,3.75l-.8-.8,6.4-6.4,.8,.81-6.41,6.39Zm.7-4.78c.14,0,.27-.04,.38-.1,.12-.07,.21-.16,.28-.28,.07-.12,.1-.25,.1-.38s-.04-.27-.1-.38c-.07-.12-.16-.21-.28-.28-.12-.07-.25-.11-.38-.11s-.27,.04-.39,.11c-.12,.07-.21,.16-.28,.28-.07,.12-.11,.24-.11,.38s.04,.27,.11,.38c.07,.12,.16,.21,.28,.28,.12,.07,.25,.1,.39,.1Zm4.21,4.93c-.33,0-.63-.08-.9-.24-.27-.16-.49-.38-.65-.65s-.25-.57-.25-.91,.08-.63,.25-.9c.17-.27,.39-.49,.66-.66s.57-.25,.89-.25,.63,.08,.9,.24c.27,.16,.49,.38,.65,.65,.16,.27,.24,.57,.24,.91s-.08,.64-.24,.91c-.16,.27-.38,.49-.65,.65-.27,.16-.58,.24-.9,.24Zm0-1.03c.14,0,.26-.04,.38-.11,.12-.07,.21-.16,.28-.28,.07-.12,.11-.25,.11-.39s-.04-.27-.11-.38c-.07-.12-.16-.21-.28-.28-.12-.07-.25-.1-.38-.1s-.27,.04-.39,.1c-.12,.07-.21,.16-.28,.28-.07,.12-.11,.25-.11,.38s.04,.27,.11,.39c.07,.12,.17,.21,.28,.28,.12,.07,.25,.11,.39,.11Z"/><path class="cls-4" d="M371.84,168.19l-.89-.67c.4-.48,.72-.96,.96-1.46,.24-.5,.41-1,.51-1.51,.1-.51,.16-1.04,.16-1.57,0-.54-.06-1.06-.16-1.57s-.27-1.01-.51-1.51-.56-.98-.96-1.46l.89-.66c.39,.45,.72,.96,1,1.54,.28,.57,.49,1.17,.63,1.8,.14,.63,.21,1.25,.2,1.87,0,.62-.06,1.24-.2,1.87-.14,.63-.35,1.23-.63,1.8-.28,.57-.61,1.08-1,1.54Z"/></g><g><path class="cls-3" d="M260.05,185.7v-6.36h-2.46v-.84h5.8v.84h-2.46v6.36h-.89Z"/><path class="cls-3" d="M265.73,185.85c-.53,0-.99-.12-1.39-.35-.39-.24-.7-.56-.92-.99-.22-.42-.33-.91-.33-1.48s.11-1.1,.32-1.53,.52-.77,.91-1c.39-.24,.84-.35,1.37-.35s1.01,.12,1.39,.38,.67,.61,.86,1.07c.19,.46,.27,1.02,.25,1.66h-.9v-.32c0-.66-.14-1.16-.4-1.49-.26-.33-.65-.49-1.16-.49-.55,0-.97,.18-1.25,.53-.29,.35-.43,.86-.43,1.52s.14,1.13,.43,1.48c.29,.35,.69,.52,1.22,.52,.36,0,.67-.08,.93-.25,.26-.16,.47-.4,.62-.7l.86,.29c-.21,.48-.53,.85-.95,1.11-.42,.26-.89,.39-1.42,.39Zm-2-2.6v-.71h3.99v.71h-3.99Z"/><path class="cls-3" d="M270.74,185.85c-.4,0-.74-.07-1.01-.22s-.48-.34-.62-.59-.21-.51-.21-.8,.05-.53,.16-.74c.11-.21,.26-.38,.46-.52,.2-.14,.43-.25,.71-.33,.26-.07,.54-.13,.86-.18s.64-.1,.97-.14c.33-.04,.63-.08,.92-.12l-.32,.19c0-.48-.09-.83-.29-1.07-.2-.23-.55-.34-1.04-.34-.33,0-.61,.07-.86,.22-.25,.15-.42,.39-.52,.72l-.85-.25c.13-.47,.38-.84,.76-1.11,.37-.27,.86-.41,1.47-.41,.49,0,.91,.09,1.26,.26,.35,.17,.6,.44,.76,.79,.08,.17,.12,.35,.15,.54,.02,.19,.03,.4,.03,.61v3.34h-.79v-1.29l.18,.12c-.2,.44-.49,.77-.85,.99-.37,.22-.81,.33-1.33,.33Zm.13-.75c.32,0,.6-.06,.83-.17,.24-.12,.42-.27,.57-.46,.14-.19,.24-.39,.28-.62,.05-.17,.08-.35,.08-.56s0-.36,0-.47l.31,.13c-.29,.04-.58,.08-.86,.12-.28,.04-.54,.08-.79,.12-.25,.04-.47,.09-.67,.15-.15,.05-.28,.11-.41,.18-.13,.07-.23,.17-.31,.28s-.12,.26-.12,.43c0,.15,.04,.29,.11,.42,.08,.13,.19,.24,.35,.33,.16,.08,.37,.12,.62,.12Z"/><path class="cls-3" d="M274.83,185.7v-5.4h.79v1.45h.1v3.96h-.89Zm3.23,0v-3.42c0-.41-.1-.74-.31-.97-.21-.24-.5-.35-.85-.35s-.63,.12-.85,.36-.33,.56-.33,.96l-.47-.28c0-.35,.08-.66,.25-.94,.17-.28,.39-.49,.68-.65,.29-.16,.61-.24,.98-.24s.68,.08,.95,.23c.27,.15,.48,.37,.62,.66,.15,.29,.22,.62,.22,1.02v3.63h-.89Zm3.23,0v-3.46c0-.4-.1-.72-.32-.95-.22-.23-.49-.34-.84-.34-.2,0-.39,.05-.57,.14-.18,.09-.33,.24-.44,.43-.11,.2-.17,.44-.17,.75l-.47-.19c0-.38,.07-.72,.24-1.01,.17-.29,.39-.51,.68-.67,.29-.16,.61-.24,.97-.24,.56,0,1.01,.17,1.33,.51,.32,.34,.48,.8,.48,1.38v3.65h-.89Z"/><path class="cls-3" d="M287.82,185.85c-.4,0-.77-.06-1.12-.18-.35-.12-.64-.3-.87-.55-.18-.2-.31-.42-.4-.66-.09-.24-.14-.5-.15-.77,0-.26,.04-.52,.12-.77,.08-.25,.2-.48,.37-.67,.09-.11,.18-.2,.29-.27s.22-.14,.33-.19c-.23-.25-.41-.48-.53-.7-.12-.22-.18-.48-.18-.78,0-.39,.1-.74,.3-1.06,.2-.32,.48-.55,.83-.69,.17-.07,.34-.12,.52-.15,.18-.03,.35-.04,.52-.04,.29,0,.56,.04,.83,.12,.27,.08,.5,.21,.69,.39,.13,.11,.24,.23,.33,.37,.09,.14,.16,.28,.21,.43l-.87,.23c-.06-.17-.17-.31-.31-.43-.12-.1-.25-.17-.41-.21-.15-.04-.31-.05-.47-.05-.26,0-.5,.05-.71,.15-.19,.09-.33,.22-.42,.38-.09,.16-.14,.35-.14,.57,0,.19,.03,.35,.1,.47,.07,.12,.16,.25,.27,.39,.07,.07,.15,.15,.24,.23,.09,.08,.18,.17,.27,.25l2.12,1.97c0-.08,.02-.17,.02-.25,0-.09,0-.17,0-.25v-1s.81,0,.81,0v1.17c0,.24,0,.44-.02,.61-.01,.17-.04,.3-.07,.42l.92,.84-.58,.62-.76-.72c-.13,.15-.29,.28-.46,.39-.18,.11-.36,.19-.54,.25-.17,.06-.35,.11-.53,.13s-.36,.04-.54,.04Zm.02-.86c.16,0,.31,0,.45-.03,.13-.02,.26-.06,.38-.11,.16-.08,.28-.15,.37-.22,.09-.07,.16-.13,.21-.19l-2.19-2.01c-.12,.04-.23,.09-.34,.16-.11,.07-.2,.15-.27,.24-.09,.11-.15,.23-.19,.38-.04,.14-.06,.29-.06,.46,0,.17,.03,.33,.08,.47,.05,.14,.13,.27,.22,.38,.15,.17,.35,.29,.6,.37s.5,.12,.74,.12Z"/><path class="cls-3" d="M295.59,185.85c-.4,0-.74-.07-1.01-.22s-.48-.34-.62-.59-.21-.51-.21-.8,.05-.53,.16-.74c.11-.21,.26-.38,.46-.52,.2-.14,.43-.25,.71-.33,.26-.07,.54-.13,.86-.18s.64-.1,.97-.14c.33-.04,.63-.08,.92-.12l-.32,.19c0-.48-.09-.83-.29-1.07-.2-.23-.55-.34-1.04-.34-.33,0-.61,.07-.86,.22-.25,.15-.42,.39-.52,.72l-.85-.25c.13-.47,.38-.84,.76-1.11,.37-.27,.86-.41,1.47-.41,.49,0,.91,.09,1.26,.26,.35,.17,.6,.44,.76,.79,.08,.17,.12,.35,.15,.54,.02,.19,.03,.4,.03,.61v3.34h-.79v-1.29l.18,.12c-.2,.44-.49,.77-.85,.99-.37,.22-.81,.33-1.33,.33Zm.13-.75c.32,0,.6-.06,.83-.17,.24-.12,.42-.27,.57-.46,.14-.19,.24-.39,.28-.62,.05-.17,.08-.35,.08-.56s0-.36,0-.47l.31,.13c-.29,.04-.58,.08-.86,.12-.28,.04-.54,.08-.79,.12-.25,.04-.47,.09-.67,.15-.15,.05-.28,.11-.41,.18-.13,.07-.23,.17-.31,.28s-.12,.26-.12,.43c0,.15,.04,.29,.11,.42,.08,.13,.19,.24,.35,.33,.16,.08,.37,.12,.62,.12Z"/><path class="cls-3" d="M301.8,185.85c-.5,0-.94-.13-1.29-.38-.36-.25-.64-.59-.83-1.02s-.29-.92-.29-1.46,.1-1.03,.29-1.46,.47-.77,.83-1.02c.36-.25,.79-.37,1.29-.37s.94,.12,1.28,.37c.35,.25,.61,.58,.79,1.01,.18,.43,.27,.92,.27,1.46s-.09,1.02-.27,1.45c-.18,.43-.44,.77-.79,1.03s-.77,.38-1.28,.38Zm.11-.82c.36,0,.66-.09,.9-.26s.41-.42,.52-.72c.11-.31,.17-.66,.17-1.05s-.06-.75-.17-1.06c-.11-.3-.28-.54-.51-.71-.23-.17-.52-.26-.88-.26s-.67,.09-.91,.27-.42,.42-.53,.73-.17,.65-.17,1.03,.06,.73,.17,1.04c.12,.31,.29,.55,.53,.73,.23,.18,.53,.27,.88,.27Zm1.58,.67v-3.97h-.1v-3.23h.89v7.2h-.79Z"/><path class="cls-3" d="M307.14,185.7l-1.96-5.4h.9l1.52,4.27,1.51-4.27h.91l-1.96,5.4h-.91Z"/><path class="cls-3" d="M311.01,179.35v-.92h.89v.92h-.89Zm0,6.36v-5.4h.89v5.4h-.89Z"/><path class="cls-3" d="M315.44,185.85c-.64,0-1.17-.14-1.58-.42-.41-.28-.66-.68-.76-1.18l.91-.15c.07,.29,.24,.53,.51,.7,.26,.17,.59,.26,.98,.26s.66-.08,.87-.23,.32-.36,.32-.62c0-.15-.04-.28-.11-.37-.07-.09-.21-.18-.43-.27-.22-.08-.55-.18-.99-.3-.48-.13-.85-.26-1.12-.39s-.47-.29-.58-.48c-.12-.18-.17-.4-.17-.65,0-.32,.09-.59,.26-.83,.17-.24,.42-.42,.73-.55,.31-.13,.67-.19,1.09-.19s.78,.06,1.1,.19c.32,.13,.58,.31,.78,.55s.32,.52,.35,.83l-.91,.17c-.04-.29-.18-.52-.42-.69-.24-.17-.54-.25-.91-.26-.35-.01-.63,.05-.85,.18-.22,.14-.33,.32-.33,.56,0,.13,.04,.24,.12,.33,.08,.09,.23,.18,.46,.26,.22,.08,.54,.18,.97,.29,.48,.12,.85,.25,1.13,.39,.27,.14,.47,.31,.59,.5,.12,.19,.18,.43,.18,.71,0,.52-.19,.93-.58,1.23-.38,.3-.91,.45-1.58,.45Z"/><path class="cls-3" d="M321.01,185.85c-.54,0-1-.12-1.39-.37-.39-.24-.69-.58-.9-1.01-.21-.43-.31-.92-.31-1.48s.11-1.06,.32-1.49c.21-.43,.52-.76,.91-1s.85-.36,1.38-.36,1,.12,1.39,.36c.39,.24,.69,.58,.9,1,.21,.43,.31,.92,.31,1.48s-.11,1.06-.32,1.49c-.21,.43-.51,.76-.9,1-.39,.24-.85,.36-1.39,.36Zm0-.85c.56,0,.98-.19,1.25-.56s.41-.86,.41-1.45-.14-1.1-.42-1.46c-.28-.36-.69-.54-1.25-.54-.38,0-.69,.08-.93,.25-.24,.17-.43,.41-.54,.71-.12,.3-.18,.65-.18,1.04,0,.61,.14,1.09,.42,1.46,.28,.37,.69,.55,1.24,.55Z"/><path class="cls-3" d="M324.71,185.7v-5.4h.79v1.31l-.13-.17c.06-.17,.15-.32,.25-.46,.1-.14,.22-.26,.34-.35,.14-.11,.3-.2,.47-.26,.18-.06,.36-.1,.54-.11,.18-.01,.36,0,.52,.04v.83c-.19-.05-.39-.06-.62-.04-.22,.02-.43,.11-.62,.25-.17,.12-.31,.27-.4,.45s-.16,.37-.2,.57c-.04,.21-.06,.42-.06,.63v2.71h-.89Z"/><path class="cls-3" d="M330.32,185.85c-.64,0-1.17-.14-1.58-.42-.41-.28-.66-.68-.76-1.18l.91-.15c.07,.29,.24,.53,.51,.7,.26,.17,.59,.26,.98,.26s.66-.08,.87-.23,.32-.36,.32-.62c0-.15-.04-.28-.11-.37-.07-.09-.21-.18-.43-.27-.22-.08-.55-.18-.99-.3-.48-.13-.85-.26-1.12-.39s-.47-.29-.58-.48c-.12-.18-.17-.4-.17-.65,0-.32,.09-.59,.26-.83,.17-.24,.42-.42,.73-.55,.31-.13,.67-.19,1.09-.19s.78,.06,1.1,.19c.32,.13,.58,.31,.78,.55s.32,.52,.35,.83l-.91,.17c-.04-.29-.18-.52-.42-.69-.24-.17-.54-.25-.91-.26-.35-.01-.63,.05-.85,.18-.22,.14-.33,.32-.33,.56,0,.13,.04,.24,.12,.33,.08,.09,.23,.18,.46,.26,.22,.08,.54,.18,.97,.29,.48,.12,.85,.25,1.13,.39,.27,.14,.47,.31,.59,.5,.12,.19,.18,.43,.18,.71,0,.52-.19,.93-.58,1.23-.38,.3-.91,.45-1.58,.45Z"/></g><g><path class="cls-3" d="M258.19,205.12v-7.2h2.84c.07,0,.15,0,.25,0s.19,.02,.28,.03c.39,.06,.72,.19,.98,.4,.26,.21,.46,.47,.6,.78,.13,.32,.2,.66,.2,1.05s-.07,.73-.2,1.04c-.13,.32-.33,.58-.6,.79-.27,.21-.59,.34-.98,.4-.09,.01-.18,.02-.28,.03s-.18,0-.25,0h-1.96v2.66h-.89Zm.89-3.5h1.92c.06,0,.14,0,.22,0s.16-.02,.23-.04c.23-.05,.42-.15,.56-.29,.15-.14,.25-.31,.32-.5,.07-.19,.1-.39,.1-.59s-.03-.4-.1-.59c-.07-.19-.17-.36-.32-.5-.14-.14-.33-.24-.56-.29-.07-.02-.15-.03-.23-.04s-.15,0-.22,0h-1.92v2.85Z"/><path class="cls-3" d="M264.35,205.12v-5.4h.79v1.31l-.13-.17c.06-.17,.15-.32,.25-.46,.1-.14,.22-.26,.34-.35,.14-.11,.3-.2,.47-.26,.18-.06,.36-.1,.54-.11,.18-.01,.36,0,.52,.04v.83c-.19-.05-.39-.06-.62-.04-.22,.02-.43,.11-.62,.25-.17,.12-.31,.27-.4,.45s-.16,.37-.2,.57c-.04,.21-.06,.42-.06,.63v2.71h-.89Z"/><path class="cls-3" d="M268.18,198.77v-.92h.89v.92h-.89Zm0,6.36v-5.4h.89v5.4h-.89Z"/><path class="cls-3" d="M272.03,205.12l-1.96-5.4h.9l1.52,4.27,1.51-4.27h.91l-1.96,5.4h-.91Z"/><path class="cls-3" d="M277.06,205.27c-.4,0-.74-.07-1.01-.22s-.48-.34-.62-.59-.21-.51-.21-.8,.05-.53,.16-.74c.11-.21,.26-.38,.46-.52,.2-.14,.43-.25,.71-.33,.26-.07,.54-.13,.86-.18s.64-.1,.97-.14c.33-.04,.63-.08,.92-.12l-.32,.19c0-.48-.09-.83-.29-1.07-.2-.23-.55-.34-1.04-.34-.33,0-.61,.07-.86,.22-.25,.15-.42,.39-.52,.72l-.85-.25c.13-.47,.38-.84,.76-1.11,.37-.27,.86-.41,1.47-.41,.49,0,.91,.09,1.26,.26,.35,.17,.6,.44,.76,.79,.08,.17,.12,.35,.15,.54,.02,.19,.03,.4,.03,.61v3.34h-.79v-1.29l.18,.12c-.2,.44-.49,.77-.85,.99-.37,.22-.81,.33-1.33,.33Zm.13-.75c.32,0,.6-.06,.83-.17,.24-.12,.42-.27,.57-.46,.14-.19,.24-.39,.28-.62,.05-.17,.08-.35,.08-.56s0-.36,0-.47l.31,.13c-.29,.04-.58,.08-.86,.12-.28,.04-.54,.08-.79,.12-.25,.04-.47,.09-.67,.15-.15,.05-.28,.11-.41,.18-.13,.07-.23,.17-.31,.28s-.12,.26-.12,.43c0,.15,.04,.29,.11,.42,.08,.13,.19,.24,.35,.33,.16,.08,.37,.12,.62,.12Z"/><path class="cls-3" d="M280.55,200.46v-.74h3.62v.74h-3.62Zm3.62,4.67c-.32,.06-.64,.09-.95,.08s-.59-.07-.83-.19c-.24-.12-.43-.29-.55-.54-.11-.21-.16-.43-.17-.65,0-.22-.01-.47-.01-.74v-4.86h.89v4.82c0,.22,0,.41,0,.57,0,.16,.04,.29,.1,.4,.12,.21,.31,.34,.57,.38,.26,.04,.58,.03,.95-.03v.76Z"/><path class="cls-3" d="M287.41,205.27c-.53,0-.99-.12-1.39-.35-.39-.24-.7-.56-.92-.99-.22-.42-.33-.91-.33-1.48s.11-1.1,.32-1.53,.52-.77,.91-1c.39-.24,.84-.35,1.37-.35s1.01,.12,1.39,.38,.67,.61,.86,1.07c.19,.46,.27,1.02,.25,1.66h-.9v-.32c0-.66-.14-1.16-.4-1.49-.26-.33-.65-.49-1.16-.49-.55,0-.97,.18-1.25,.53-.29,.35-.43,.86-.43,1.52s.14,1.13,.43,1.48c.29,.35,.69,.52,1.22,.52,.36,0,.67-.08,.93-.25,.26-.16,.47-.4,.62-.7l.86,.29c-.21,.48-.53,.85-.95,1.11-.42,.26-.89,.39-1.42,.39Zm-2-2.6v-.71h3.99v.71h-3.99Z"/><path class="cls-3" d="M295.02,205.27c-.64,0-1.17-.14-1.58-.42-.41-.28-.66-.68-.76-1.18l.91-.15c.07,.29,.24,.53,.51,.7,.26,.17,.59,.26,.98,.26s.66-.08,.87-.23,.32-.36,.32-.62c0-.15-.04-.28-.11-.37-.07-.09-.21-.18-.43-.27-.22-.08-.55-.18-.99-.3-.48-.13-.85-.26-1.12-.39s-.47-.29-.58-.48c-.12-.18-.17-.4-.17-.65,0-.32,.09-.59,.26-.83,.17-.24,.42-.42,.73-.55,.31-.13,.67-.19,1.09-.19s.78,.06,1.1,.19c.32,.13,.58,.31,.78,.55s.32,.52,.35,.83l-.91,.17c-.04-.29-.18-.52-.42-.69-.24-.17-.54-.25-.91-.26-.35-.01-.63,.05-.85,.18-.22,.14-.33,.32-.33,.56,0,.13,.04,.24,.12,.33,.08,.09,.23,.18,.46,.26,.22,.08,.54,.18,.97,.29,.48,.12,.85,.25,1.13,.39,.27,.14,.47,.31,.59,.5,.12,.19,.18,.43,.18,.71,0,.52-.19,.93-.58,1.23-.38,.3-.91,.45-1.58,.45Z"/><path class="cls-3" d="M300.53,205.27c-.53,0-.99-.12-1.39-.35-.39-.24-.7-.56-.92-.99-.22-.42-.33-.91-.33-1.48s.11-1.1,.32-1.53,.52-.77,.91-1c.39-.24,.84-.35,1.37-.35s1.01,.12,1.39,.38,.67,.61,.86,1.07c.19,.46,.27,1.02,.25,1.66h-.9v-.32c0-.66-.14-1.16-.4-1.49-.26-.33-.65-.49-1.16-.49-.55,0-.97,.18-1.25,.53-.29,.35-.43,.86-.43,1.52s.14,1.13,.43,1.48c.29,.35,.69,.52,1.22,.52,.36,0,.67-.08,.93-.25,.26-.16,.47-.4,.62-.7l.86,.29c-.21,.48-.53,.85-.95,1.11-.42,.26-.89,.39-1.42,.39Zm-2-2.6v-.71h3.99v.71h-3.99Z"/><path class="cls-3" d="M306.35,205.27c-.53,0-.99-.12-1.39-.35-.39-.24-.7-.56-.92-.99-.22-.42-.33-.91-.33-1.48s.11-1.1,.32-1.53,.52-.77,.91-1c.39-.24,.84-.35,1.37-.35s1.01,.12,1.39,.38,.67,.61,.86,1.07c.19,.46,.27,1.02,.25,1.66h-.9v-.32c0-.66-.14-1.16-.4-1.49-.26-.33-.65-.49-1.16-.49-.55,0-.97,.18-1.25,.53-.29,.35-.43,.86-.43,1.52s.14,1.13,.43,1.48c.29,.35,.69,.52,1.22,.52,.36,0,.67-.08,.93-.25,.26-.16,.47-.4,.62-.7l.86,.29c-.21,.48-.53,.85-.95,1.11-.42,.26-.89,.39-1.42,.39Zm-2-2.6v-.71h3.99v.71h-3.99Z"/><path class="cls-3" d="M311.94,205.27c-.5,0-.94-.13-1.29-.38-.36-.25-.64-.59-.83-1.02s-.29-.92-.29-1.46,.1-1.03,.29-1.46,.47-.77,.83-1.02c.36-.25,.79-.37,1.29-.37s.94,.12,1.28,.37c.35,.25,.61,.58,.79,1.01,.18,.43,.27,.92,.27,1.46s-.09,1.02-.27,1.45c-.18,.43-.44,.77-.79,1.03s-.77,.38-1.28,.38Zm.11-.82c.36,0,.66-.09,.9-.26s.41-.42,.52-.72c.11-.31,.17-.66,.17-1.05s-.06-.75-.17-1.06c-.11-.3-.28-.54-.51-.71-.23-.17-.52-.26-.88-.26s-.67,.09-.91,.27-.42,.42-.53,.73-.17,.65-.17,1.03,.06,.73,.17,1.04c.12,.31,.29,.55,.53,.73,.23,.18,.53,.27,.88,.27Zm1.58,.67v-3.97h-.1v-3.23h.89v7.2h-.79Z"/></g><g><path class="cls-3" d="M260.75,224.69c-.51,0-.97-.09-1.38-.26-.41-.17-.75-.42-1.01-.74-.26-.32-.44-.7-.52-1.14l.92-.14c.12,.45,.36,.81,.73,1.06,.37,.25,.8,.38,1.3,.38,.32,0,.62-.05,.88-.15s.47-.25,.62-.44c.15-.19,.23-.42,.23-.67,0-.16-.03-.3-.08-.41-.05-.12-.13-.21-.22-.3-.09-.08-.2-.15-.32-.21-.12-.06-.25-.1-.38-.14l-1.83-.54c-.2-.06-.39-.14-.58-.23-.19-.09-.35-.21-.5-.35-.15-.14-.26-.3-.35-.5-.09-.19-.13-.43-.13-.69,0-.43,.11-.79,.33-1.09,.22-.3,.52-.53,.9-.69,.38-.16,.81-.24,1.29-.23,.48,0,.92,.09,1.3,.26,.38,.17,.7,.41,.95,.72s.42,.69,.51,1.12l-.95,.17c-.05-.29-.16-.55-.33-.76-.17-.21-.39-.38-.64-.49-.26-.12-.54-.17-.85-.18-.29,0-.56,.04-.79,.14-.24,.1-.42,.23-.56,.4-.14,.17-.21,.37-.21,.59s.06,.4,.19,.53c.13,.13,.28,.24,.47,.32s.37,.14,.54,.19l1.37,.4c.16,.04,.34,.1,.54,.18,.21,.08,.4,.18,.6,.32,.19,.14,.35,.32,.48,.55,.13,.23,.19,.52,.19,.86s-.07,.65-.21,.92c-.14,.27-.33,.5-.58,.68s-.53,.32-.86,.42c-.33,.09-.68,.14-1.05,.14Z"/><path class="cls-3" d="M266.83,224.69c-.53,0-.99-.12-1.39-.35-.39-.24-.7-.56-.92-.99-.22-.42-.33-.91-.33-1.48s.11-1.1,.32-1.53,.52-.77,.91-1c.39-.24,.84-.35,1.37-.35s1.01,.12,1.39,.38,.67,.61,.86,1.07c.19,.46,.27,1.02,.25,1.66h-.9v-.32c0-.66-.14-1.16-.4-1.49-.26-.33-.65-.49-1.16-.49-.55,0-.97,.18-1.25,.53-.29,.35-.43,.86-.43,1.52s.14,1.13,.43,1.48c.29,.35,.69,.52,1.22,.52,.36,0,.67-.08,.93-.25,.26-.16,.47-.4,.62-.7l.86,.29c-.21,.48-.53,.85-.95,1.11-.42,.26-.89,.39-1.42,.39Zm-2-2.6v-.71h3.99v.71h-3.99Z"/><path class="cls-3" d="M272.65,224.69c-.53,0-.99-.12-1.39-.35-.39-.24-.7-.56-.92-.99-.22-.42-.33-.91-.33-1.48s.11-1.1,.32-1.53,.52-.77,.91-1c.39-.24,.84-.35,1.37-.35s1.01,.12,1.39,.38,.67,.61,.86,1.07c.19,.46,.27,1.02,.25,1.66h-.9v-.32c0-.66-.14-1.16-.4-1.49-.26-.33-.65-.49-1.16-.49-.55,0-.97,.18-1.25,.53-.29,.35-.43,.86-.43,1.52s.14,1.13,.43,1.48c.29,.35,.69,.52,1.22,.52,.36,0,.67-.08,.93-.25,.26-.16,.47-.4,.62-.7l.86,.29c-.21,.48-.53,.85-.95,1.11-.42,.26-.89,.39-1.42,.39Zm-2-2.6v-.71h3.99v.71h-3.99Z"/><path class="cls-3" d="M278.24,224.69c-.5,0-.94-.13-1.29-.38-.36-.25-.64-.59-.83-1.02s-.29-.92-.29-1.46,.1-1.03,.29-1.46,.47-.77,.83-1.02c.36-.25,.79-.37,1.29-.37s.94,.12,1.28,.37c.35,.25,.61,.58,.79,1.01,.18,.43,.27,.92,.27,1.46s-.09,1.02-.27,1.45c-.18,.43-.44,.77-.79,1.03s-.77,.38-1.28,.38Zm.11-.82c.36,0,.66-.09,.9-.26s.41-.42,.52-.72c.11-.31,.17-.66,.17-1.05s-.06-.75-.17-1.06c-.11-.3-.28-.54-.51-.71-.23-.17-.52-.26-.88-.26s-.67,.09-.91,.27-.42,.42-.53,.73-.17,.65-.17,1.03,.06,.73,.17,1.04c.12,.31,.29,.55,.53,.73,.23,.18,.53,.27,.88,.27Zm1.58,.67v-3.97h-.1v-3.23h.89v7.2h-.79Z"/></g><g><path class="cls-3" d="M258.19,243.96v-7.2h2.84c.07,0,.15,0,.25,0s.19,.02,.28,.03c.39,.06,.72,.19,.98,.4,.26,.21,.46,.47,.6,.78,.13,.32,.2,.66,.2,1.05s-.07,.73-.2,1.04c-.13,.32-.33,.58-.6,.79-.27,.21-.59,.34-.98,.4-.09,.01-.18,.02-.28,.03s-.18,0-.25,0h-1.96v2.66h-.89Zm.89-3.5h1.92c.06,0,.14,0,.22,0s.16-.02,.23-.04c.23-.05,.42-.15,.56-.29,.15-.14,.25-.31,.32-.5,.07-.19,.1-.39,.1-.59s-.03-.4-.1-.59c-.07-.19-.17-.36-.32-.5-.14-.14-.33-.24-.56-.29-.07-.02-.15-.03-.23-.04s-.15,0-.22,0h-1.92v2.85Z"/><path class="cls-3" d="M264.35,243.96v-5.4h.79v1.31l-.13-.17c.06-.17,.15-.32,.25-.46,.1-.14,.22-.26,.34-.35,.14-.11,.3-.2,.47-.26,.18-.06,.36-.1,.54-.11,.18-.01,.36,0,.52,.04v.83c-.19-.05-.39-.06-.62-.04-.22,.02-.43,.11-.62,.25-.17,.12-.31,.27-.4,.45s-.16,.37-.2,.57c-.04,.21-.06,.42-.06,.63v2.71h-.89Z"/><path class="cls-3" d="M268.18,237.6v-.92h.89v.92h-.89Zm0,6.36v-5.4h.89v5.4h-.89Z"/><path class="cls-3" d="M272.03,243.96l-1.96-5.4h.9l1.52,4.27,1.51-4.27h.91l-1.96,5.4h-.91Z"/><path class="cls-3" d="M277.06,244.11c-.4,0-.74-.07-1.01-.22s-.48-.34-.62-.59-.21-.51-.21-.8,.05-.53,.16-.74c.11-.21,.26-.38,.46-.52,.2-.14,.43-.25,.71-.33,.26-.07,.54-.13,.86-.18s.64-.1,.97-.14c.33-.04,.63-.08,.92-.12l-.32,.19c0-.48-.09-.83-.29-1.07-.2-.23-.55-.34-1.04-.34-.33,0-.61,.07-.86,.22-.25,.15-.42,.39-.52,.72l-.85-.25c.13-.47,.38-.84,.76-1.11,.37-.27,.86-.41,1.47-.41,.49,0,.91,.09,1.26,.26,.35,.17,.6,.44,.76,.79,.08,.17,.12,.35,.15,.54,.02,.19,.03,.4,.03,.61v3.34h-.79v-1.29l.18,.12c-.2,.44-.49,.77-.85,.99-.37,.22-.81,.33-1.33,.33Zm.13-.75c.32,0,.6-.06,.83-.17,.24-.12,.42-.27,.57-.46,.14-.19,.24-.39,.28-.62,.05-.17,.08-.35,.08-.56s0-.36,0-.47l.31,.13c-.29,.04-.58,.08-.86,.12-.28,.04-.54,.08-.79,.12-.25,.04-.47,.09-.67,.15-.15,.05-.28,.11-.41,.18-.13,.07-.23,.17-.31,.28s-.12,.26-.12,.43c0,.15,.04,.29,.11,.42,.08,.13,.19,.24,.35,.33,.16,.08,.37,.12,.62,.12Z"/><path class="cls-3" d="M280.55,239.29v-.74h3.62v.74h-3.62Zm3.62,4.67c-.32,.06-.64,.09-.95,.08s-.59-.07-.83-.19c-.24-.12-.43-.29-.55-.54-.11-.21-.16-.43-.17-.65,0-.22-.01-.47-.01-.74v-4.86h.89v4.82c0,.22,0,.41,0,.57,0,.16,.04,.29,.1,.4,.12,.21,.31,.34,.57,.38,.26,.04,.58,.03,.95-.03v.76Z"/><path class="cls-3" d="M287.41,244.11c-.53,0-.99-.12-1.39-.35-.39-.24-.7-.56-.92-.99-.22-.42-.33-.91-.33-1.48s.11-1.1,.32-1.53,.52-.77,.91-1c.39-.24,.84-.35,1.37-.35s1.01,.12,1.39,.38,.67,.61,.86,1.07c.19,.46,.27,1.02,.25,1.66h-.9v-.32c0-.66-.14-1.16-.4-1.49-.26-.33-.65-.49-1.16-.49-.55,0-.97,.18-1.25,.53-.29,.35-.43,.86-.43,1.52s.14,1.13,.43,1.48c.29,.35,.69,.52,1.22,.52,.36,0,.67-.08,.93-.25,.26-.16,.47-.4,.62-.7l.86,.29c-.21,.48-.53,.85-.95,1.11-.42,.26-.89,.39-1.42,.39Zm-2-2.6v-.71h3.99v.71h-3.99Z"/><path class="cls-3" d="M292.98,243.96v-5.4h.79v1.31l-.13-.17c.06-.17,.15-.32,.25-.46,.1-.14,.22-.26,.34-.35,.14-.11,.3-.2,.47-.26,.18-.06,.36-.1,.54-.11,.18-.01,.36,0,.52,.04v.83c-.19-.05-.39-.06-.62-.04-.22,.02-.43,.11-.62,.25-.17,.12-.31,.27-.4,.45s-.16,.37-.2,.57c-.04,.21-.06,.42-.06,.63v2.71h-.89Z"/><path class="cls-3" d="M298.92,244.11c-.54,0-1-.12-1.39-.37-.39-.24-.69-.58-.9-1.01-.21-.43-.31-.92-.31-1.48s.11-1.06,.32-1.49c.21-.43,.52-.76,.91-1s.85-.36,1.38-.36,1,.12,1.39,.36c.39,.24,.69,.58,.9,1,.21,.43,.31,.92,.31,1.48s-.11,1.06-.32,1.49c-.21,.43-.51,.76-.9,1-.39,.24-.85,.36-1.39,.36Zm0-.85c.56,0,.98-.19,1.25-.56s.41-.86,.41-1.45-.14-1.1-.42-1.46c-.28-.36-.69-.54-1.25-.54-.38,0-.69,.08-.93,.25-.24,.17-.43,.41-.54,.71-.12,.3-.18,.65-.18,1.04,0,.61,.14,1.09,.42,1.46,.28,.37,.69,.55,1.24,.55Z"/><path class="cls-3" d="M304.59,244.1c-.35,0-.64-.05-.89-.17-.25-.11-.45-.26-.62-.44-.16-.18-.29-.39-.38-.61-.09-.22-.16-.45-.2-.68s-.06-.45-.06-.66v-2.99h.9v2.71c0,.25,.02,.5,.07,.74,.05,.24,.12,.45,.24,.64,.11,.19,.26,.34,.45,.45,.19,.11,.42,.17,.71,.17,.22,0,.43-.04,.61-.12,.18-.08,.34-.19,.47-.34,.13-.15,.23-.34,.3-.58,.07-.23,.11-.5,.11-.81l.58,.18c0,.52-.09,.97-.28,1.34-.19,.38-.45,.67-.8,.87-.34,.2-.74,.3-1.21,.3Zm1.8-.14v-1.45h-.1v-3.96h.89v5.4h-.79Z"/><path class="cls-3" d="M308.49,243.96v-5.4h.8v1.45h.1v3.96h-.9Zm3.85,0v-2.71c0-.26-.02-.5-.07-.74-.04-.24-.12-.45-.24-.64-.11-.19-.26-.34-.45-.45-.19-.11-.43-.17-.71-.17-.22,0-.43,.04-.61,.11-.18,.07-.34,.19-.47,.34s-.23,.35-.3,.58c-.07,.23-.11,.5-.11,.82l-.58-.18c0-.52,.09-.97,.28-1.35,.19-.38,.45-.66,.79-.87,.34-.2,.74-.3,1.21-.3,.35,0,.65,.05,.9,.17,.25,.11,.45,.26,.61,.44,.16,.18,.29,.38,.39,.61,.09,.22,.16,.45,.2,.68s.06,.45,.06,.66v2.99h-.9Z"/><path class="cls-3" d="M316.57,244.11c-.5,0-.94-.13-1.29-.38-.36-.25-.64-.59-.83-1.02s-.29-.92-.29-1.46,.1-1.03,.29-1.46,.47-.77,.83-1.02c.36-.25,.79-.37,1.29-.37s.94,.12,1.28,.37c.35,.25,.61,.58,.79,1.01,.18,.43,.27,.92,.27,1.46s-.09,1.02-.27,1.45c-.18,.43-.44,.77-.79,1.03s-.77,.38-1.28,.38Zm.11-.82c.36,0,.66-.09,.9-.26s.41-.42,.52-.72c.11-.31,.17-.66,.17-1.05s-.06-.75-.17-1.06c-.11-.3-.28-.54-.51-.71-.23-.17-.52-.26-.88-.26s-.67,.09-.91,.27-.42,.42-.53,.73-.17,.65-.17,1.03,.06,.73,.17,1.04c.12,.31,.29,.55,.53,.73,.23,.18,.53,.27,.88,.27Zm1.58,.67v-3.97h-.1v-3.23h.89v7.2h-.79Z"/><path class="cls-3" d="M322.4,244.1c-.64,0-1.17-.14-1.58-.42-.41-.28-.66-.68-.76-1.18l.91-.15c.07,.29,.24,.53,.51,.7,.26,.17,.59,.26,.98,.26s.66-.08,.87-.23,.32-.36,.32-.62c0-.15-.04-.28-.11-.37-.07-.09-.21-.18-.43-.27-.22-.08-.55-.18-.99-.3-.48-.13-.85-.26-1.12-.39s-.47-.29-.58-.48c-.12-.18-.17-.4-.17-.65,0-.32,.09-.59,.26-.83,.17-.24,.42-.42,.73-.55,.31-.13,.67-.19,1.09-.19s.78,.06,1.1,.19c.32,.13,.58,.31,.78,.55s.32,.52,.35,.83l-.91,.17c-.04-.29-.18-.52-.42-.69-.24-.17-.54-.25-.91-.26-.35-.01-.63,.05-.85,.18-.22,.14-.33,.32-.33,.56,0,.13,.04,.24,.12,.33,.08,.09,.23,.18,.46,.26,.22,.08,.54,.18,.97,.29,.48,.12,.85,.25,1.13,.39,.27,.14,.47,.31,.59,.5,.12,.19,.18,.43,.18,.71,0,.52-.19,.93-.58,1.23-.38,.3-.91,.45-1.58,.45Z"/></g><g><path class="cls-3" d="M410.71,185.72v-5.88l-1.35,.83v-1.33l1.35-.81h1.23v7.2h-1.23Z"/><path class="cls-3" d="M415.97,185.87c-.37,0-.71-.08-1.03-.23-.32-.15-.59-.36-.82-.63s-.39-.58-.49-.93l1.16-.31c.05,.19,.13,.36,.26,.5,.12,.14,.27,.25,.44,.33,.17,.08,.34,.12,.52,.12,.23,0,.45-.06,.64-.17s.35-.27,.46-.46c.11-.19,.17-.4,.17-.64s-.06-.45-.17-.64c-.12-.19-.27-.34-.46-.46-.19-.11-.4-.17-.63-.17-.28,0-.51,.05-.69,.15-.18,.1-.32,.21-.42,.32l-1.03-.33,.22-3.81h3.91v1.13h-3.26l.45-.42-.16,2.65-.22-.27c.19-.17,.4-.3,.65-.38,.25-.08,.49-.12,.71-.12,.45,0,.85,.1,1.2,.31,.35,.21,.62,.48,.82,.84,.2,.35,.3,.75,.3,1.21s-.12,.86-.35,1.22c-.23,.37-.54,.66-.92,.87-.38,.22-.8,.33-1.25,.33Z"/><path class="cls-3" d="M419.71,185.72v-1.24h1.23v1.24h-1.23Z"/><path class="cls-3" d="M422.91,185.72l2.48-6.06h-3.14v-1.14h4.43v1.14l-2.47,6.06h-1.3Z"/><path class="cls-3" d="M430.47,185.87c-.51,0-.96-.11-1.35-.33-.39-.22-.69-.52-.91-.91-.22-.39-.33-.84-.33-1.35v-2.32c0-.51,.11-.96,.33-1.35,.22-.39,.52-.69,.91-.91,.39-.22,.84-.33,1.35-.33s.96,.11,1.35,.33c.39,.22,.69,.52,.91,.91,.22,.39,.33,.84,.33,1.35v2.32c0,.51-.11,.96-.33,1.35-.22,.39-.52,.69-.91,.91-.39,.22-.84,.33-1.35,.33Zm0-1.15c.25,0,.48-.06,.69-.18,.21-.12,.37-.29,.49-.49,.12-.2,.18-.43,.18-.69v-2.49c0-.26-.06-.49-.18-.69-.12-.2-.28-.37-.49-.49-.21-.12-.44-.18-.69-.18s-.48,.06-.69,.18c-.21,.12-.37,.29-.49,.49-.12,.21-.18,.44-.18,.69v2.49c0,.25,.06,.48,.18,.69,.12,.21,.28,.37,.49,.49,.21,.12,.44,.18,.69,.18Z"/><path class="cls-3" d="M436.16,181.97c-.33,0-.63-.08-.91-.24-.27-.16-.49-.38-.65-.65-.16-.27-.24-.57-.24-.91s.08-.63,.25-.9c.17-.27,.39-.49,.66-.66,.27-.16,.57-.24,.89-.24s.63,.08,.9,.24,.49,.38,.65,.65c.16,.27,.25,.57,.25,.91s-.08,.64-.25,.91-.38,.49-.65,.65c-.27,.16-.57,.24-.9,.24Zm-.7,3.75l-.8-.8,6.4-6.4,.8,.81-6.41,6.39Zm.7-4.78c.14,0,.27-.04,.38-.1,.12-.07,.21-.16,.28-.28,.07-.12,.1-.25,.1-.38s-.04-.27-.1-.38c-.07-.12-.16-.21-.28-.28-.12-.07-.25-.11-.38-.11s-.27,.04-.39,.11c-.12,.07-.21,.16-.28,.28-.07,.12-.11,.24-.11,.38s.04,.27,.11,.38c.07,.12,.16,.21,.28,.28,.12,.07,.25,.1,.39,.1Zm4.21,4.93c-.33,0-.63-.08-.9-.24-.27-.16-.49-.38-.65-.65s-.25-.57-.25-.91,.08-.63,.25-.9c.17-.27,.39-.49,.66-.66s.57-.25,.89-.25,.63,.08,.9,.24c.27,.16,.49,.38,.65,.65,.16,.27,.24,.57,.24,.91s-.08,.64-.24,.91c-.16,.27-.38,.49-.65,.65-.27,.16-.58,.24-.9,.24Zm0-1.03c.14,0,.26-.04,.38-.11,.12-.07,.21-.16,.28-.28,.07-.12,.11-.25,.11-.39s-.04-.27-.11-.38c-.07-.12-.16-.21-.28-.28-.12-.07-.25-.1-.38-.1s-.27,.04-.39,.1c-.12,.07-.21,.16-.28,.28-.07,.12-.11,.25-.11,.38s.04,.27,.11,.39c.07,.12,.17,.21,.28,.28,.12,.07,.25,.11,.39,.11Z"/></g><g><path class="cls-3" d="M414.15,205.14l2.48-6.06h-3.14v-1.14h4.43v1.14l-2.47,6.06h-1.3Z"/><path class="cls-3" d="M419.32,205.14v-1.24h1.23v1.24h-1.23Z"/><path class="cls-3" d="M425.15,205.14v-1.19h-3.19v-1.12l2.3-4.88h1.38l-2.3,4.88h1.82v-1.88h1.22v1.88h.67v1.12h-.67v1.19h-1.22Z"/><path class="cls-3" d="M430.57,197.8c.47,0,.89,.11,1.27,.33s.67,.53,.89,.92c.22,.39,.33,.84,.33,1.35v2.2c0,.54-.11,1.02-.33,1.42-.22,.4-.52,.72-.92,.94-.39,.22-.85,.33-1.38,.33-.36,0-.71-.06-1.03-.19s-.61-.32-.87-.58l.87-.84c.13,.15,.29,.27,.47,.35s.37,.13,.57,.13c.28,0,.53-.07,.74-.2s.37-.3,.49-.51c.12-.21,.17-.44,.17-.68v-1.2l.21,.24c-.2,.24-.45,.43-.74,.56s-.59,.2-.92,.2c-.45,0-.85-.1-1.2-.31s-.62-.49-.82-.84c-.2-.35-.3-.76-.3-1.21s.11-.86,.34-1.22,.53-.66,.91-.87c.38-.21,.79-.32,1.24-.32Zm0,1.15c-.23,0-.45,.06-.64,.17s-.35,.27-.46,.46-.17,.4-.17,.64,.06,.45,.17,.64c.11,.19,.26,.35,.46,.46,.19,.11,.4,.17,.64,.17s.45-.06,.64-.17,.35-.27,.46-.46c.12-.19,.17-.41,.17-.64s-.06-.44-.17-.63c-.11-.19-.27-.35-.46-.46-.19-.12-.4-.18-.64-.18Z"/><path class="cls-3" d="M436.16,201.39c-.33,0-.63-.08-.91-.24-.27-.16-.49-.38-.65-.65-.16-.27-.24-.57-.24-.91s.08-.63,.25-.9c.17-.27,.39-.49,.66-.66,.27-.16,.57-.24,.89-.24s.63,.08,.9,.24,.49,.38,.65,.65c.16,.27,.25,.57,.25,.91s-.08,.64-.25,.91-.38,.49-.65,.65c-.27,.16-.57,.24-.9,.24Zm-.7,3.75l-.8-.8,6.4-6.4,.8,.81-6.41,6.39Zm.7-4.78c.14,0,.27-.04,.38-.1,.12-.07,.21-.16,.28-.28,.07-.12,.1-.25,.1-.38s-.04-.27-.1-.38c-.07-.12-.16-.21-.28-.28-.12-.07-.25-.11-.38-.11s-.27,.04-.39,.11c-.12,.07-.21,.16-.28,.28-.07,.12-.11,.24-.11,.38s.04,.27,.11,.38c.07,.12,.16,.21,.28,.28,.12,.07,.25,.1,.39,.1Zm4.21,4.93c-.33,0-.63-.08-.9-.24-.27-.16-.49-.38-.65-.65s-.25-.57-.25-.91,.08-.63,.25-.9c.17-.27,.39-.49,.66-.66s.57-.25,.89-.25,.63,.08,.9,.24c.27,.16,.49,.38,.65,.65,.16,.27,.24,.57,.24,.91s-.08,.64-.24,.91c-.16,.27-.38,.49-.65,.65-.27,.16-.58,.24-.9,.24Zm0-1.03c.14,0,.26-.04,.38-.11,.12-.07,.21-.16,.28-.28,.07-.12,.11-.25,.11-.39s-.04-.27-.11-.38c-.07-.12-.16-.21-.28-.28-.12-.07-.25-.1-.38-.1s-.27,.04-.39,.1c-.12,.07-.21,.16-.28,.28-.07,.12-.11,.25-.11,.38s.04,.27,.11,.39c.07,.12,.17,.21,.28,.28,.12,.07,.25,.11,.39,.11Z"/></g><g><path class="cls-3" d="M409.81,224.56v-5.88l-1.35,.83v-1.33l1.35-.81h1.23v7.2h-1.23Z"/><path class="cls-3" d="M415.93,224.56v-1.19h-3.19v-1.12l2.3-4.88h1.38l-2.3,4.88h1.82v-1.88h1.22v1.88h.67v1.12h-.67v1.19h-1.22Z"/><path class="cls-3" d="M419.23,224.56v-1.24h1.23v1.24h-1.23Z"/><path class="cls-3" d="M424.65,224.71c-.51,0-.96-.11-1.35-.33-.39-.22-.69-.52-.91-.91-.22-.39-.33-.84-.33-1.35v-2.32c0-.51,.11-.96,.33-1.35,.22-.39,.52-.69,.91-.91,.39-.22,.84-.33,1.35-.33s.96,.11,1.35,.33c.39,.22,.69,.52,.91,.91,.22,.39,.33,.84,.33,1.35v2.32c0,.51-.11,.96-.33,1.35-.22,.39-.52,.69-.91,.91-.39,.22-.84,.33-1.35,.33Zm0-1.15c.25,0,.48-.06,.69-.18,.21-.12,.37-.29,.49-.49,.12-.2,.18-.43,.18-.69v-2.49c0-.26-.06-.49-.18-.69-.12-.2-.28-.37-.49-.49-.21-.12-.44-.18-.69-.18s-.48,.06-.69,.18c-.21,.12-.37,.29-.49,.49-.12,.21-.18,.44-.18,.69v2.49c0,.25,.06,.48,.18,.69,.12,.21,.28,.37,.49,.49,.21,.12,.44,.18,.69,.18Z"/><path class="cls-3" d="M430.7,224.69c-.36,0-.7-.07-1.02-.21-.32-.14-.6-.34-.83-.59-.23-.26-.4-.56-.51-.91l1.17-.31c.08,.29,.24,.51,.46,.66s.47,.23,.73,.23c.24,0,.45-.05,.63-.17s.33-.26,.44-.45,.16-.4,.16-.63c0-.36-.12-.66-.35-.89-.23-.24-.53-.36-.89-.36-.11,0-.22,.01-.32,.04-.11,.03-.21,.07-.3,.12l-.55-.95,2.42-2.07,.11,.29h-3.43v-1.13h4.42v1.14l-1.94,1.87v-.35c.43,.03,.8,.15,1.11,.37,.31,.21,.54,.49,.71,.82,.17,.34,.25,.71,.25,1.11,0,.45-.11,.86-.33,1.22-.22,.36-.52,.64-.89,.85-.37,.21-.78,.31-1.23,.31Z"/><path class="cls-3" d="M436.16,220.81c-.33,0-.63-.08-.91-.24-.27-.16-.49-.38-.65-.65-.16-.27-.24-.57-.24-.91s.08-.63,.25-.9c.17-.27,.39-.49,.66-.66,.27-.16,.57-.24,.89-.24s.63,.08,.9,.24,.49,.38,.65,.65c.16,.27,.25,.57,.25,.91s-.08,.64-.25,.91-.38,.49-.65,.65c-.27,.16-.57,.24-.9,.24Zm-.7,3.75l-.8-.8,6.4-6.4,.8,.81-6.41,6.39Zm.7-4.78c.14,0,.27-.04,.38-.1,.12-.07,.21-.16,.28-.28,.07-.12,.1-.25,.1-.38s-.04-.27-.1-.38c-.07-.12-.16-.21-.28-.28-.12-.07-.25-.11-.38-.11s-.27,.04-.39,.11c-.12,.07-.21,.16-.28,.28-.07,.12-.11,.24-.11,.38s.04,.27,.11,.38c.07,.12,.16,.21,.28,.28,.12,.07,.25,.1,.39,.1Zm4.21,4.93c-.33,0-.63-.08-.9-.24-.27-.16-.49-.38-.65-.65s-.25-.57-.25-.91,.08-.63,.25-.9c.17-.27,.39-.49,.66-.66s.57-.25,.89-.25,.63,.08,.9,.24c.27,.16,.49,.38,.65,.65,.16,.27,.24,.57,.24,.91s-.08,.64-.24,.91c-.16,.27-.38,.49-.65,.65-.27,.16-.58,.24-.9,.24Zm0-1.03c.14,0,.26-.04,.38-.11,.12-.07,.21-.16,.28-.28,.07-.12,.11-.25,.11-.39s-.04-.27-.11-.38c-.07-.12-.16-.21-.28-.28-.12-.07-.25-.1-.38-.1s-.27,.04-.39,.1c-.12,.07-.21,.16-.28,.28-.07,.12-.11,.25-.11,.38s.04,.27,.11,.39c.07,.12,.17,.21,.28,.28,.12,.07,.25,.11,.39,.11Z"/></g><g><path class="cls-3" d="M412.45,243.98v-5.88l-1.35,.83v-1.33l1.35-.81h1.23v7.2h-1.23Z"/><path class="cls-3" d="M416.83,243.98v-5.88l-1.35,.83v-1.33l1.35-.81h1.23v7.2h-1.23Z"/><path class="cls-3" d="M420.16,243.98v-1.24h1.23v1.24h-1.23Z"/><path class="cls-3" d="M423.36,243.98l2.48-6.06h-3.14v-1.14h4.43v1.14l-2.47,6.06h-1.3Z"/><path class="cls-3" d="M430.69,244.13c-.48,0-.9-.1-1.27-.29s-.66-.46-.87-.81c-.21-.34-.32-.74-.32-1.18,0-.4,.09-.76,.28-1.11,.18-.34,.45-.61,.8-.81l-.02,.38c-.28-.21-.49-.45-.64-.73-.15-.27-.23-.58-.23-.93,0-.41,.1-.77,.29-1.07,.2-.3,.46-.54,.8-.71,.34-.17,.73-.25,1.17-.25s.84,.08,1.18,.25c.34,.17,.61,.4,.8,.71,.2,.3,.29,.66,.29,1.07,0,.34-.07,.65-.22,.93-.14,.27-.36,.52-.66,.74v-.39c.34,.2,.61,.47,.79,.81,.19,.34,.28,.71,.28,1.11,0,.44-.11,.84-.32,1.18-.21,.34-.5,.61-.88,.81-.37,.19-.8,.29-1.28,.29Zm0-1.14c.35,0,.64-.1,.86-.29,.22-.19,.33-.48,.33-.85s-.11-.66-.33-.85-.51-.29-.87-.29-.64,.1-.85,.29-.33,.48-.33,.85,.11,.66,.33,.85,.5,.29,.85,.29Zm0-3.43c.3,0,.54-.07,.72-.22,.19-.15,.28-.37,.28-.68s-.09-.53-.28-.68c-.18-.15-.43-.22-.72-.22s-.53,.07-.72,.22c-.19,.15-.28,.37-.28,.68s.09,.53,.28,.68c.18,.15,.42,.22,.72,.22Z"/><path class="cls-3" d="M436.16,240.23c-.33,0-.63-.08-.91-.24-.27-.16-.49-.38-.65-.65-.16-.27-.24-.57-.24-.91s.08-.63,.25-.9c.17-.27,.39-.49,.66-.66,.27-.16,.57-.24,.89-.24s.63,.08,.9,.24,.49,.38,.65,.65c.16,.27,.25,.57,.25,.91s-.08,.64-.25,.91-.38,.49-.65,.65c-.27,.16-.57,.24-.9,.24Zm-.7,3.75l-.8-.8,6.4-6.4,.8,.81-6.41,6.39Zm.7-4.78c.14,0,.27-.04,.38-.1,.12-.07,.21-.16,.28-.28,.07-.12,.1-.25,.1-.38s-.04-.27-.1-.38c-.07-.12-.16-.21-.28-.28-.12-.07-.25-.11-.38-.11s-.27,.04-.39,.11c-.12,.07-.21,.16-.28,.28-.07,.12-.11,.24-.11,.38s.04,.27,.11,.38c.07,.12,.16,.21,.28,.28,.12,.07,.25,.1,.39,.1Zm4.21,4.93c-.33,0-.63-.08-.9-.24-.27-.16-.49-.38-.65-.65s-.25-.57-.25-.91,.08-.63,.25-.9c.17-.27,.39-.49,.66-.66s.57-.25,.89-.25,.63,.08,.9,.24c.27,.16,.49,.38,.65,.65,.16,.27,.24,.57,.24,.91s-.08,.64-.24,.91c-.16,.27-.38,.49-.65,.65-.27,.16-.58,.24-.9,.24Zm0-1.03c.14,0,.26-.04,.38-.11,.12-.07,.21-.16,.28-.28,.07-.12,.11-.25,.11-.39s-.04-.27-.11-.38c-.07-.12-.16-.21-.28-.28-.12-.07-.25-.1-.38-.1s-.27,.04-.39,.1c-.12,.07-.21,.16-.28,.28-.07,.12-.11,.25-.11,.38s.04,.27,.11,.39c.07,.12,.17,.21,.28,.28,.12,.07,.25,.11,.39,.11Z"/></g><line class="cls-6" x1="257.49" y1="191.94" x2="442.76" y2="191.94"/><line class="cls-6" x1="257.49" y1="172.53" x2="442.76" y2="172.53"/><line class="cls-6" x1="257.49" y1="211.36" x2="442.76" y2="211.36"/><line class="cls-6" x1="257.49" y1="230.77" x2="442.76" y2="230.77"/><g><path class="cls-3" d="M257.69,33.96l2.27-7.2h1.77l2.27,7.2h-1.24l-2.06-6.46h.27l-2.03,6.46h-1.24Zm1.26-1.56v-1.12h3.78v1.12h-3.78Z"/><path class="cls-3" d="M265,33.96v-7.35h1.21v7.35h-1.21Z"/><path class="cls-3" d="M267.8,33.96v-7.35h1.21v7.35h-1.21Z"/><path class="cls-3" d="M272.89,34.11c-.54,0-1.01-.12-1.42-.37s-.72-.58-.94-1.01c-.22-.43-.33-.92-.33-1.48s.11-1.06,.34-1.49c.23-.43,.54-.76,.94-1,.4-.24,.87-.36,1.4-.36s1.02,.12,1.42,.37c.4,.24,.72,.58,.94,1.01,.22,.43,.33,.92,.33,1.48s-.11,1.05-.34,1.48c-.22,.43-.54,.76-.94,1-.4,.24-.88,.36-1.42,.36Zm0-1.13c.48,0,.84-.16,1.07-.48s.35-.73,.35-1.24-.12-.94-.35-1.25c-.24-.31-.59-.47-1.07-.47-.32,0-.59,.07-.8,.22-.21,.14-.36,.35-.46,.6-.1,.26-.15,.56-.15,.9,0,.52,.12,.94,.36,1.25s.59,.47,1.05,.47Z"/><path class="cls-3" d="M279.03,34.11c-.56,0-1.03-.12-1.42-.37s-.69-.59-.9-1.02c-.21-.43-.31-.92-.32-1.46,0-.55,.11-1.04,.33-1.47,.21-.43,.52-.76,.92-1.01,.4-.25,.87-.37,1.42-.37,.61,0,1.13,.15,1.56,.46,.43,.31,.7,.73,.83,1.26l-1.2,.33c-.09-.29-.25-.52-.46-.68-.22-.16-.46-.24-.74-.24-.31,0-.57,.07-.78,.22-.2,.15-.35,.35-.45,.61s-.15,.55-.15,.88c0,.51,.12,.93,.34,1.25,.23,.32,.57,.47,1.03,.47,.32,0,.57-.07,.76-.22,.18-.15,.32-.36,.42-.63l1.23,.28c-.17,.55-.46,.97-.88,1.27-.42,.3-.93,.44-1.53,.44Z"/><path class="cls-3" d="M283.95,34.11c-.39,0-.72-.07-.99-.22-.27-.15-.47-.35-.61-.59s-.21-.52-.21-.82c0-.26,.04-.49,.13-.7,.09-.21,.22-.39,.4-.54,.18-.15,.41-.28,.7-.37,.22-.07,.47-.13,.76-.19s.61-.11,.95-.16c.34-.05,.7-.1,1.07-.16l-.43,.24c0-.37-.08-.65-.25-.82s-.46-.27-.86-.27c-.24,0-.48,.06-.71,.17s-.38,.31-.47,.58l-1.1-.34c.13-.46,.39-.82,.76-1.1,.38-.28,.88-.42,1.52-.42,.48,0,.9,.08,1.27,.23,.37,.16,.64,.41,.81,.77,.1,.19,.16,.38,.17,.58,.02,.2,.03,.42,.03,.65v3.32h-1.05v-1.17l.17,.19c-.24,.39-.53,.68-.85,.86s-.73,.27-1.22,.27Zm.24-.96c.27,0,.51-.05,.7-.15s.35-.21,.46-.35c.12-.14,.19-.27,.23-.4,.06-.15,.1-.33,.11-.53,0-.2,.01-.36,.01-.48l.37,.11c-.36,.06-.67,.11-.93,.15-.26,.04-.48,.08-.67,.12-.19,.04-.35,.08-.5,.13-.14,.05-.26,.11-.36,.17-.1,.07-.17,.14-.22,.23s-.08,.19-.08,.3c0,.13,.03,.25,.1,.35,.07,.1,.16,.18,.29,.24,.13,.06,.29,.09,.48,.09Z"/><path class="cls-3" d="M287.6,29.5v-.95h3.77v.95h-3.77Zm3.77,4.46c-.36,.07-.71,.1-1.05,.09-.34,0-.65-.07-.92-.19-.27-.12-.48-.31-.62-.56-.12-.23-.19-.47-.2-.71s0-.52,0-.83v-4.7h1.2v4.62c0,.22,0,.41,0,.57,0,.16,.04,.3,.1,.4,.12,.2,.31,.31,.58,.33s.56,0,.9-.04v1.01Z"/><path class="cls-3" d="M292.63,27.74v-1.11h1.21v1.11h-1.21Zm0,6.22v-5.4h1.21v5.4h-1.21Z"/><path class="cls-3" d="M297.72,34.11c-.54,0-1.01-.12-1.42-.37s-.72-.58-.94-1.01c-.22-.43-.33-.92-.33-1.48s.11-1.06,.34-1.49c.23-.43,.54-.76,.94-1,.4-.24,.87-.36,1.4-.36s1.02,.12,1.42,.37c.4,.24,.72,.58,.94,1.01,.22,.43,.33,.92,.33,1.48s-.11,1.05-.34,1.48c-.22,.43-.54,.76-.94,1-.4,.24-.88,.36-1.42,.36Zm0-1.13c.48,0,.84-.16,1.07-.48s.35-.73,.35-1.24-.12-.94-.35-1.25c-.24-.31-.59-.47-1.07-.47-.32,0-.59,.07-.8,.22-.21,.14-.36,.35-.46,.6-.1,.26-.15,.56-.15,.9,0,.52,.12,.94,.36,1.25s.59,.47,1.05,.47Z"/><path class="cls-3" d="M301.51,33.96v-5.4h1.07v1.68h.15v3.72h-1.22Zm3.74,0v-2.6c0-.17-.01-.36-.03-.57-.02-.21-.08-.41-.16-.6-.08-.19-.21-.35-.38-.47-.17-.12-.4-.18-.68-.18-.15,0-.3,.03-.46,.08-.15,.05-.29,.14-.41,.26-.12,.12-.22,.29-.29,.5-.07,.21-.11,.48-.11,.81l-.71-.3c0-.46,.09-.88,.27-1.25,.18-.37,.44-.67,.79-.89s.77-.33,1.28-.33c.4,0,.73,.07,.99,.2,.26,.13,.47,.3,.62,.51,.15,.21,.27,.43,.34,.66,.07,.23,.12,.45,.14,.66,.02,.21,.03,.38,.03,.51v3.01h-1.22Z"/><path class="cls-3" d="M312.16,34.11c-.54,0-1.01-.12-1.42-.37s-.72-.58-.94-1.01c-.22-.43-.33-.92-.33-1.48s.11-1.06,.34-1.49c.23-.43,.54-.76,.94-1,.4-.24,.87-.36,1.4-.36s1.02,.12,1.42,.37c.4,.24,.72,.58,.94,1.01,.22,.43,.33,.92,.33,1.48s-.11,1.05-.34,1.48c-.22,.43-.54,.76-.94,1-.4,.24-.88,.36-1.42,.36Zm0-1.13c.48,0,.84-.16,1.07-.48s.35-.73,.35-1.24-.12-.94-.35-1.25c-.24-.31-.59-.47-1.07-.47-.32,0-.59,.07-.8,.22-.21,.14-.36,.35-.46,.6-.1,.26-.15,.56-.15,.9,0,.52,.12,.94,.36,1.25s.59,.47,1.05,.47Z"/><path class="cls-3" d="M317.41,33.96l-1.96-5.4h1.21l1.36,3.92,1.36-3.92h1.21l-1.96,5.4h-1.21Z"/><path class="cls-3" d="M323.94,34.11c-.55,0-1.03-.12-1.44-.36s-.74-.56-.97-.99c-.23-.42-.35-.9-.35-1.45,0-.59,.11-1.1,.34-1.54,.23-.43,.54-.77,.94-1.01,.4-.24,.87-.36,1.4-.36,.56,0,1.04,.13,1.43,.39s.68,.63,.87,1.11c.19,.48,.26,1.04,.21,1.68h-1.19v-.44c0-.59-.11-1.02-.31-1.29-.2-.27-.52-.41-.96-.41-.49,0-.86,.15-1.1,.46-.24,.3-.36,.75-.36,1.34,0,.55,.12,.97,.36,1.27,.24,.3,.59,.45,1.05,.45,.3,0,.55-.07,.77-.2s.38-.32,.5-.57l1.19,.36c-.21,.49-.53,.86-.96,1.13-.43,.27-.91,.41-1.43,.41Zm-1.86-2.52v-.91h3.71v.91h-3.71Z"/><path class="cls-3" d="M327.5,33.96v-5.4h1.06v1.32l-.13-.17c.07-.18,.16-.34,.27-.49,.11-.15,.25-.27,.4-.37,.13-.09,.28-.16,.44-.21,.16-.05,.33-.08,.5-.1s.33,0,.5,.02v1.12c-.16-.05-.34-.06-.55-.04s-.4,.08-.56,.18c-.17,.09-.3,.2-.41,.34-.11,.14-.18,.3-.23,.48-.05,.18-.08,.37-.08,.58v2.75h-1.21Z"/><path class="cls-3" d="M332.95,33.96l-1.96-5.4h1.21l1.36,3.92,1.36-3.92h1.21l-1.96,5.4h-1.21Z"/><path class="cls-3" d="M337.12,27.74v-1.11h1.21v1.11h-1.21Zm0,6.22v-5.4h1.21v5.4h-1.21Z"/><path class="cls-3" d="M342.28,34.11c-.55,0-1.03-.12-1.44-.36s-.74-.56-.97-.99c-.23-.42-.35-.9-.35-1.45,0-.59,.11-1.1,.34-1.54,.23-.43,.54-.77,.94-1.01,.4-.24,.87-.36,1.4-.36,.56,0,1.04,.13,1.43,.39s.68,.63,.87,1.11c.19,.48,.26,1.04,.21,1.68h-1.19v-.44c0-.59-.11-1.02-.31-1.29-.2-.27-.52-.41-.96-.41-.49,0-.86,.15-1.1,.46-.24,.3-.36,.75-.36,1.34,0,.55,.12,.97,.36,1.27,.24,.3,.59,.45,1.05,.45,.3,0,.55-.07,.77-.2s.38-.32,.5-.57l1.19,.36c-.21,.49-.53,.86-.96,1.13-.43,.27-.91,.41-1.43,.41Zm-1.86-2.52v-.91h3.71v.91h-3.71Z"/><path class="cls-3" d="M346.99,33.96l-1.65-5.41h1.18s1.05,3.48,1.05,3.48l1.07-3.47h1.01l1.07,3.47,1.06-3.47h1.18l-1.65,5.4h-.94l-1.23-3.71-1.22,3.71h-.94Z"/></g><g><path class="cls-2" d="M129.64,63.56c25.01,0,46.97,13.04,59.46,32.68l33.64-21.35c-20.23-31.87-55.35-51.18-93.1-51.18V63.56h0Z"/><path class="cls-8" d="M200.06,133.97c0,4.51-.43,8.92-1.24,13.2l39.14,7.47c5.26-27.55-.18-56.07-15.21-79.74l-33.64,21.35c6.94,10.91,10.96,23.85,10.96,37.73Z"/><path class="cls-7" d="M129.64,204.39c-1.49,0-2.96-.05-4.42-.14l-2.5,39.77c55.44,3.49,104.83-34.82,115.24-89.39l-39.14-7.47c-6.18,32.58-34.8,57.22-69.18,57.22Z"/><path class="cls-5" d="M68.57,169.06l-34.54,19.85c18.44,32.09,51.75,52.79,88.68,55.12l2.5-39.77c-24.25-1.5-45.18-15.27-56.64-35.19Z"/><path class="cls-9" d="M19.52,139.58h0s0,0,0,0c.88,17.36,5.86,34.26,14.51,49.32l34.54-19.85c-5.39-9.36-8.69-20.07-9.26-31.5l-39.8,2.03Z"/><path class="cls-10" d="M59.22,133.97c0-20.59,8.84-39.12,22.93-51.99l-26.88-29.42c-24.32,22.21-37.43,54.13-35.76,87.03l39.8-2.03c-.06-1.19-.09-2.38-.09-3.58Z"/><polygon class="cls-12" points="59.31 137.55 59.31 137.55 19.52 139.58 19.52 139.58 59.31 137.55"/><path class="cls-11" d="M129.64,23.71c-27.52,0-54.04,10.29-74.36,28.85l26.88,29.42c12.52-11.44,29.19-18.42,47.49-18.42V23.71Z"/></g></svg>