<?xml version="1.0" encoding="UTF-8"?><svg id="a" xmlns="http://www.w3.org/2000/svg" viewBox="0 0 452.44 171.03"><defs><style>.b{fill:#fff;}</style></defs><g><path class="b" d="M16.42,22.73c-.59,0-1.13-.1-1.62-.31-.49-.21-.91-.51-1.26-.9-.35-.39-.62-.86-.81-1.42-.19-.55-.29-1.18-.29-1.88,0-.92,.16-1.72,.49-2.39s.79-1.19,1.39-1.56c.6-.37,1.3-.55,2.1-.55,.97,0,1.75,.23,2.34,.68,.59,.45,1,1.06,1.22,1.84l-1.08,.22c-.18-.52-.48-.94-.89-1.25-.41-.31-.93-.47-1.54-.47-.64,0-1.18,.14-1.61,.43s-.75,.7-.96,1.22c-.22,.52-.33,1.13-.33,1.82,0,.69,.1,1.29,.32,1.81,.21,.52,.54,.93,.97,1.22s.97,.44,1.61,.45c.55,0,1.02-.1,1.4-.32s.67-.53,.88-.94,.33-.9,.38-1.47h-1.84v-.88h2.96c.01,.08,.02,.18,.02,.29,0,.11,0,.19,0,.23,0,.79-.15,1.49-.44,2.11-.29,.62-.73,1.11-1.3,1.47-.57,.36-1.28,.53-2.13,.53Z"/><path class="b" d="M23.34,22.73c-.48,0-.89-.09-1.21-.27s-.57-.41-.74-.71-.25-.61-.25-.96,.07-.63,.19-.88c.13-.25,.31-.46,.55-.62,.24-.17,.52-.3,.85-.39,.31-.08,.65-.16,1.04-.22,.38-.06,.77-.12,1.16-.17s.76-.1,1.1-.15l-.38,.22c.01-.58-.1-1-.34-1.28s-.66-.41-1.25-.41c-.39,0-.73,.09-1.03,.27-.29,.18-.5,.47-.62,.87l-1.01-.31c.16-.57,.46-1.01,.91-1.34,.45-.32,1.04-.49,1.77-.49,.59,0,1.09,.11,1.51,.32s.72,.53,.91,.95c.09,.2,.15,.42,.17,.65,.02,.23,.04,.48,.04,.74v4.01h-.95v-1.55l.22,.14c-.24,.52-.58,.92-1.02,1.19-.44,.27-.97,.4-1.6,.4Zm.16-.89c.38,0,.72-.07,1-.21,.28-.14,.51-.32,.68-.55,.17-.23,.28-.47,.34-.74,.06-.2,.09-.42,.1-.67s0-.43,0-.57l.37,.16c-.35,.05-.69,.09-1.03,.14s-.65,.09-.95,.14c-.3,.05-.57,.11-.81,.18-.18,.06-.34,.13-.49,.22-.15,.09-.28,.2-.37,.34-.09,.14-.14,.31-.14,.51,0,.18,.04,.34,.13,.5,.09,.16,.23,.29,.42,.39,.19,.1,.44,.15,.75,.15Z"/><path class="b" d="M28.24,22.55v-6.48h.95v1.73h.12v4.75h-1.07Zm3.88,0v-4.1c0-.5-.12-.89-.38-1.17-.26-.28-.6-.42-1.02-.42s-.76,.14-1.02,.43c-.26,.29-.39,.67-.39,1.15l-.56-.34c0-.42,.1-.8,.3-1.13s.47-.59,.82-.78c.34-.19,.73-.29,1.17-.29s.82,.09,1.14,.28c.32,.18,.57,.45,.75,.79s.26,.75,.26,1.22v4.36h-1.07Zm3.87,0v-4.15c0-.48-.12-.86-.38-1.14-.26-.27-.59-.41-1.01-.41-.24,0-.47,.06-.68,.17-.22,.11-.39,.28-.53,.52-.14,.23-.2,.53-.2,.9l-.56-.23c0-.46,.09-.86,.28-1.21,.2-.35,.47-.62,.81-.81,.34-.19,.73-.29,1.16-.29,.68,0,1.21,.21,1.6,.62,.39,.41,.58,.96,.58,1.65v4.38h-1.07Z"/><path class="b" d="M38.74,14.93v-1.1h1.07v1.1h-1.07Zm0,7.63v-6.48h1.07v6.48h-1.07Z"/><path class="b" d="M41.61,22.55v-6.48h.96v1.73h.12v4.75h-1.08Zm4.62,0v-3.25c0-.31-.03-.6-.08-.89-.05-.28-.15-.54-.28-.77-.13-.23-.31-.4-.54-.54-.23-.13-.51-.2-.86-.2-.27,0-.51,.04-.73,.13-.22,.09-.4,.23-.56,.41s-.28,.42-.36,.69c-.09,.28-.13,.6-.13,.98l-.7-.22c0-.63,.11-1.17,.34-1.62,.23-.45,.54-.8,.95-1.04s.89-.36,1.45-.36c.42,0,.78,.07,1.07,.2,.3,.13,.54,.31,.74,.53,.2,.22,.35,.46,.46,.73,.11,.27,.19,.54,.24,.82s.07,.54,.07,.79v3.58h-1.08Z"/><path class="b" d="M51.41,22.73c-.6,0-1.12-.15-1.55-.45-.43-.3-.77-.71-1-1.23s-.35-1.1-.35-1.75,.12-1.23,.35-1.75c.23-.52,.57-.92,1-1.22s.95-.45,1.55-.45,1.13,.15,1.54,.44,.73,.7,.95,1.22c.21,.52,.32,1.1,.32,1.75s-.11,1.23-.32,1.74c-.21,.52-.53,.93-.95,1.23-.42,.3-.93,.45-1.54,.45Zm.08,2.88c-.34,0-.67-.05-1-.16-.32-.1-.62-.26-.89-.47s-.5-.47-.67-.79l.98-.52c.16,.32,.39,.55,.68,.69,.29,.14,.6,.22,.91,.22,.41,0,.75-.08,1.03-.23,.27-.15,.47-.37,.6-.67,.13-.3,.19-.66,.19-1.1v-1.77h.13v-4.74h.95v6.52c0,.18,0,.35-.01,.51-.01,.16-.03,.33-.06,.49-.08,.46-.25,.84-.5,1.14-.25,.3-.57,.52-.96,.67-.39,.15-.85,.22-1.36,.22Zm.05-3.86c.44,0,.79-.11,1.07-.32,.28-.21,.49-.5,.62-.87,.13-.37,.2-.79,.2-1.26s-.07-.9-.2-1.27c-.13-.37-.34-.65-.62-.86-.28-.21-.63-.31-1.05-.31s-.8,.11-1.09,.32c-.29,.22-.5,.51-.64,.88-.14,.37-.21,.78-.21,1.24s.07,.88,.21,1.25c.14,.37,.35,.66,.63,.88,.28,.22,.63,.32,1.06,.32Z"/></g><path class="b" d="M132.65,2c3.31,0,6,2.69,6,6v62.21c0,3.31-2.69,6-6,6H8c-3.31,0-6-2.69-6-6V8C2,4.69,4.69,2,8,2h124.65M132.65,0H8C3.58,0,0,3.58,0,8v62.21C0,74.63,3.58,78.21,8,78.21h124.65c4.42,0,8-3.58,8-8V8C140.65,3.58,137.07,0,132.65,0h0Z"/><g><path class="b" d="M171.88,22.73c-.61,0-1.16-.1-1.65-.31-.49-.21-.89-.5-1.21-.89-.32-.39-.53-.84-.62-1.37l1.1-.17c.14,.54,.43,.97,.87,1.28,.44,.31,.96,.46,1.56,.46,.39,0,.74-.06,1.05-.18,.31-.12,.56-.3,.75-.53s.28-.5,.28-.81c0-.19-.03-.36-.1-.5-.07-.14-.16-.26-.27-.35-.11-.1-.24-.18-.39-.25-.14-.07-.29-.12-.45-.17l-2.2-.65c-.24-.07-.47-.16-.7-.27-.22-.11-.42-.25-.6-.41s-.32-.37-.42-.6c-.1-.23-.16-.51-.16-.83,0-.51,.13-.95,.4-1.31,.27-.36,.63-.64,1.08-.83,.46-.19,.97-.29,1.54-.28,.58,0,1.1,.11,1.56,.31s.84,.49,1.14,.87c.3,.38,.51,.83,.61,1.35l-1.13,.2c-.06-.35-.19-.66-.4-.91-.21-.25-.46-.45-.77-.59s-.65-.21-1.01-.21c-.35,0-.67,.05-.95,.17-.29,.12-.51,.28-.68,.48-.17,.21-.25,.44-.25,.71s.08,.48,.23,.64c.15,.16,.34,.29,.56,.38s.44,.17,.65,.23l1.64,.47c.19,.05,.41,.12,.65,.22s.48,.22,.72,.39c.23,.17,.42,.39,.58,.66,.15,.27,.23,.62,.23,1.04s-.08,.79-.25,1.11-.4,.59-.69,.81c-.3,.22-.64,.38-1.03,.5s-.81,.17-1.26,.17Z"/><path class="b" d="M179.14,22.73c-.64,0-1.2-.15-1.67-.44s-.83-.7-1.08-1.21c-.25-.52-.38-1.11-.38-1.78s.13-1.28,.38-1.79c.26-.51,.62-.91,1.09-1.2,.47-.29,1.02-.43,1.65-.43s1.21,.15,1.67,.44c.47,.29,.83,.69,1.08,1.21,.25,.51,.38,1.1,.38,1.77s-.13,1.27-.38,1.79-.61,.92-1.08,1.21c-.47,.29-1.02,.43-1.67,.43Zm0-1.01c.67,0,1.17-.22,1.5-.67s.49-1.03,.49-1.74-.17-1.31-.5-1.75c-.33-.43-.83-.65-1.49-.65-.45,0-.82,.1-1.12,.31s-.51,.49-.65,.85c-.14,.36-.22,.78-.22,1.25,0,.73,.17,1.31,.5,1.75,.34,.44,.83,.66,1.48,.66Z"/><path class="b" d="M186.31,22.73c-.66,0-1.21-.15-1.67-.44s-.81-.7-1.05-1.21c-.24-.52-.36-1.1-.37-1.76,0-.68,.13-1.27,.38-1.79,.25-.51,.6-.92,1.06-1.2,.46-.29,1.01-.43,1.66-.43,.68,0,1.27,.17,1.77,.5s.82,.8,.99,1.38l-1.05,.32c-.14-.38-.36-.67-.66-.88-.31-.21-.66-.31-1.05-.31-.44,0-.81,.1-1.1,.31-.29,.21-.5,.49-.64,.85-.14,.36-.21,.78-.22,1.25,0,.72,.17,1.3,.5,1.74,.33,.44,.81,.66,1.46,.66,.42,0,.78-.1,1.06-.29,.28-.19,.49-.47,.64-.84l1.08,.28c-.22,.6-.57,1.07-1.05,1.39-.48,.32-1.05,.48-1.72,.48Z"/><path class="b" d="M190.27,14.93v-1.1h1.07v1.1h-1.07Zm0,7.63v-6.48h1.07v6.48h-1.07Z"/><path class="b" d="M194.98,22.73c-.48,0-.89-.09-1.21-.27s-.57-.41-.74-.71-.25-.61-.25-.96,.07-.63,.19-.88c.13-.25,.31-.46,.55-.62,.24-.17,.52-.3,.85-.39,.31-.08,.65-.16,1.04-.22,.38-.06,.77-.12,1.16-.17s.76-.1,1.1-.15l-.38,.22c.01-.58-.1-1-.34-1.28s-.66-.41-1.25-.41c-.39,0-.73,.09-1.03,.27-.29,.18-.5,.47-.62,.87l-1.01-.31c.16-.57,.46-1.01,.91-1.34,.45-.32,1.04-.49,1.77-.49,.59,0,1.09,.11,1.51,.32s.72,.53,.91,.95c.09,.2,.15,.42,.17,.65,.02,.23,.04,.48,.04,.74v4.01h-.95v-1.55l.22,.14c-.24,.52-.58,.92-1.02,1.19-.44,.27-.97,.4-1.6,.4Zm.16-.89c.38,0,.72-.07,1-.21,.28-.14,.51-.32,.68-.55,.17-.23,.28-.47,.34-.74,.06-.2,.09-.42,.1-.67s0-.43,0-.57l.37,.16c-.35,.05-.69,.09-1.03,.14s-.65,.09-.95,.14c-.3,.05-.57,.11-.81,.18-.18,.06-.34,.13-.49,.22-.15,.09-.28,.2-.37,.34-.09,.14-.14,.31-.14,.51,0,.18,.04,.34,.13,.5,.09,.16,.23,.29,.42,.39,.19,.1,.44,.15,.75,.15Z"/><path class="b" d="M200,22.55V13.73h1.07v8.82h-1.07Z"/></g><g><path class="b" d="M168.81,36.95v-6.48h.95v1.73h.12v4.75h-1.07Zm3.88,0v-4.1c0-.5-.12-.89-.38-1.17-.26-.28-.6-.42-1.02-.42s-.76,.14-1.02,.43c-.26,.29-.39,.67-.39,1.15l-.56-.34c0-.42,.1-.8,.3-1.13,.2-.33,.47-.59,.82-.78,.34-.19,.73-.29,1.17-.29s.82,.09,1.14,.28c.32,.18,.57,.45,.75,.79s.26,.75,.26,1.22v4.36h-1.07Zm3.87,0v-4.15c0-.48-.12-.86-.38-1.14-.26-.27-.59-.41-1-.41-.24,0-.47,.06-.68,.17-.22,.11-.39,.28-.53,.52-.14,.23-.2,.53-.2,.9l-.56-.23c0-.46,.09-.86,.28-1.21,.2-.35,.47-.62,.81-.81,.34-.19,.73-.29,1.16-.29,.68,0,1.21,.21,1.6,.62,.39,.41,.58,.96,.58,1.65v4.38h-1.07Z"/><path class="b" d="M181.96,37.13c-.64,0-1.19-.14-1.67-.42-.47-.28-.84-.68-1.11-1.18s-.4-1.1-.4-1.77,.13-1.32,.39-1.84c.26-.52,.62-.92,1.09-1.2,.47-.28,1.01-.42,1.64-.42s1.21,.15,1.67,.45c.46,.3,.8,.73,1.03,1.28,.23,.56,.33,1.22,.3,1.99h-1.08v-.38c-.01-.8-.17-1.39-.49-1.79-.31-.39-.78-.59-1.39-.59-.66,0-1.16,.21-1.51,.64-.34,.42-.52,1.03-.52,1.82s.17,1.36,.52,1.78c.34,.42,.83,.63,1.47,.63,.43,0,.8-.1,1.12-.29s.56-.48,.74-.85l1.03,.35c-.25,.57-.63,1.02-1.14,1.33-.51,.31-1.07,.47-1.7,.47Zm-2.39-3.12v-.86h4.79v.86h-4.79Z"/><path class="b" d="M188.68,37.13c-.77,0-1.41-.17-1.9-.51s-.8-.81-.91-1.42l1.09-.17c.09,.35,.29,.63,.61,.84s.71,.31,1.18,.31,.79-.09,1.04-.28c.25-.18,.38-.43,.38-.75,0-.18-.04-.33-.12-.45s-.26-.22-.52-.32c-.26-.1-.66-.22-1.19-.36-.57-.15-1.02-.31-1.35-.47s-.56-.35-.7-.57c-.14-.22-.21-.48-.21-.79,0-.38,.1-.71,.31-1s.5-.51,.87-.66,.81-.23,1.3-.23,.93,.08,1.32,.23c.39,.16,.7,.38,.94,.66,.24,.29,.38,.62,.42,1l-1.09,.2c-.05-.35-.22-.62-.5-.82-.28-.2-.65-.31-1.09-.32-.42-.02-.76,.06-1.02,.22-.26,.16-.39,.39-.39,.67,0,.16,.05,.29,.15,.4,.1,.11,.28,.22,.55,.32,.27,.1,.65,.21,1.16,.34,.57,.14,1.02,.3,1.35,.47s.56,.37,.71,.6c.14,.23,.21,.51,.21,.85,0,.62-.23,1.12-.69,1.47-.46,.36-1.09,.54-1.9,.54Z"/><path class="b" d="M195.05,37.13c-.77,0-1.41-.17-1.9-.51-.49-.34-.8-.81-.91-1.42l1.09-.17c.09,.35,.29,.63,.61,.84,.32,.21,.71,.31,1.18,.31s.79-.09,1.04-.28c.25-.18,.38-.43,.38-.75,0-.18-.04-.33-.13-.45s-.26-.22-.52-.32c-.26-.1-.66-.22-1.18-.36-.57-.15-1.02-.31-1.35-.47-.33-.16-.56-.35-.7-.57-.14-.22-.21-.48-.21-.79,0-.38,.1-.71,.31-1,.21-.29,.5-.51,.87-.66,.38-.16,.81-.23,1.3-.23s.93,.08,1.32,.23c.39,.16,.7,.38,.94,.66s.38,.62,.42,1l-1.09,.2c-.05-.35-.22-.62-.5-.82-.28-.2-.64-.31-1.09-.32-.42-.02-.76,.06-1.02,.22-.26,.16-.39,.39-.39,.67,0,.16,.05,.29,.15,.4,.1,.11,.28,.22,.55,.32,.27,.1,.65,.21,1.16,.34,.57,.14,1.02,.3,1.35,.47s.57,.37,.71,.6c.14,.23,.21,.51,.21,.85,0,.62-.23,1.12-.69,1.47-.46,.36-1.09,.54-1.9,.54Z"/><path class="b" d="M200.81,37.13c-.48,0-.89-.09-1.22-.27-.33-.18-.57-.41-.74-.71s-.25-.61-.25-.96,.07-.63,.2-.88c.13-.25,.31-.46,.55-.62s.52-.3,.85-.39c.31-.08,.65-.16,1.04-.22,.38-.06,.77-.12,1.16-.17,.39-.05,.76-.1,1.1-.15l-.38,.22c.01-.58-.1-1-.34-1.28-.24-.28-.66-.41-1.25-.41-.39,0-.73,.09-1.03,.27-.29,.18-.5,.47-.62,.87l-1.01-.31c.16-.57,.46-1.01,.91-1.34,.45-.32,1.04-.49,1.77-.49,.59,0,1.09,.11,1.52,.32s.72,.53,.91,.95c.09,.2,.15,.42,.17,.65,.02,.23,.04,.48,.04,.74v4.01h-.95v-1.55l.22,.14c-.24,.52-.58,.92-1.02,1.19-.44,.27-.97,.4-1.6,.4Zm.16-.89c.38,0,.72-.07,1-.21,.28-.14,.51-.32,.68-.55,.17-.23,.28-.47,.34-.74,.06-.2,.09-.42,.1-.67s0-.43,0-.57l.37,.16c-.35,.05-.69,.09-1.03,.14s-.65,.09-.95,.14c-.3,.05-.57,.11-.81,.18-.18,.06-.34,.13-.49,.22-.15,.09-.28,.2-.37,.34-.09,.14-.14,.31-.14,.51,0,.18,.04,.34,.13,.5s.23,.29,.42,.39c.19,.1,.44,.15,.75,.15Z"/><path class="b" d="M208.26,37.13c-.6,0-1.12-.15-1.55-.45-.43-.3-.76-.71-1-1.23s-.35-1.1-.35-1.75,.12-1.23,.35-1.75c.23-.52,.57-.92,1-1.22s.95-.45,1.55-.45,1.13,.15,1.54,.44,.73,.7,.95,1.22,.32,1.1,.32,1.75-.11,1.23-.32,1.74-.53,.93-.95,1.23c-.42,.3-.93,.45-1.54,.45Zm.08,2.88c-.34,0-.67-.05-1-.16-.32-.1-.62-.26-.89-.47s-.5-.47-.68-.79l.98-.52c.16,.32,.39,.55,.68,.69,.29,.14,.6,.22,.91,.22,.41,0,.75-.08,1.03-.23,.27-.15,.47-.37,.6-.67,.13-.3,.19-.66,.19-1.1v-1.77h.13v-4.74h.95v6.52c0,.18,0,.35-.02,.51s-.03,.33-.06,.49c-.08,.46-.25,.84-.5,1.14s-.57,.52-.96,.67c-.39,.15-.85,.22-1.36,.22Zm.05-3.86c.44,0,.79-.11,1.07-.32s.49-.5,.62-.87c.13-.37,.2-.79,.2-1.26s-.07-.9-.2-1.27c-.13-.37-.34-.65-.61-.86-.28-.21-.63-.31-1.05-.31s-.8,.11-1.09,.32c-.29,.22-.5,.51-.64,.88-.14,.37-.21,.78-.21,1.24s.07,.88,.21,1.25,.35,.66,.63,.88,.63,.32,1.06,.32Z"/><path class="b" d="M213.04,29.33v-1.1h1.07v1.1h-1.07Zm0,7.63v-6.48h1.07v6.48h-1.07Z"/><path class="b" d="M215.9,36.95v-6.48h.96v1.73h.12v4.75h-1.08Zm4.62,0v-3.25c0-.31-.03-.6-.08-.89s-.15-.54-.28-.77c-.13-.23-.31-.4-.54-.54-.23-.13-.51-.2-.85-.2-.27,0-.51,.04-.73,.13s-.41,.23-.56,.41c-.16,.18-.28,.42-.36,.69-.09,.28-.13,.6-.13,.98l-.7-.22c0-.63,.11-1.17,.34-1.62s.54-.8,.95-1.04,.89-.36,1.45-.36c.42,0,.78,.07,1.07,.2,.29,.13,.54,.31,.74,.53,.2,.22,.35,.46,.46,.73,.11,.27,.19,.54,.24,.82s.07,.54,.07,.79v3.58h-1.08Z"/><path class="b" d="M225.7,37.13c-.6,0-1.12-.15-1.55-.45-.43-.3-.76-.71-1-1.23s-.35-1.1-.35-1.75,.12-1.23,.35-1.75c.23-.52,.57-.92,1-1.22s.95-.45,1.55-.45,1.13,.15,1.54,.44,.73,.7,.95,1.22,.32,1.1,.32,1.75-.11,1.23-.32,1.74-.53,.93-.95,1.23c-.42,.3-.93,.45-1.54,.45Zm.08,2.88c-.34,0-.67-.05-1-.16-.32-.1-.62-.26-.89-.47s-.5-.47-.68-.79l.98-.52c.16,.32,.39,.55,.68,.69,.29,.14,.6,.22,.91,.22,.41,0,.75-.08,1.03-.23,.27-.15,.47-.37,.6-.67,.13-.3,.19-.66,.19-1.1v-1.77h.13v-4.74h.95v6.52c0,.18,0,.35-.02,.51s-.03,.33-.06,.49c-.08,.46-.25,.84-.5,1.14s-.57,.52-.96,.67c-.39,.15-.85,.22-1.36,.22Zm.05-3.86c.44,0,.79-.11,1.07-.32s.49-.5,.62-.87c.13-.37,.2-.79,.2-1.26s-.07-.9-.2-1.27c-.13-.37-.34-.65-.61-.86-.28-.21-.63-.31-1.05-.31s-.8,.11-1.09,.32c-.29,.22-.5,.51-.64,.88-.14,.37-.21,.78-.21,1.24s.07,.88,.21,1.25,.35,.66,.63,.88,.63,.32,1.06,.32Z"/></g><path class="b" d="M288.54,2c3.31,0,6,2.69,6,6v62.21c0,3.31-2.69,6-6,6h-124.65c-3.31,0-6-2.69-6-6V8c0-3.31,2.69-6,6-6h124.65M288.54,0h-124.65C159.47,0,155.89,3.58,155.89,8v62.21c0,4.42,3.58,8,8,8h124.65c4.42,0,8-3.58,8-8V8C296.54,3.58,292.96,0,288.54,0h0Z"/><g><path class="b" d="M168.82,115.36v-8.64h2.66c.09,0,.24,0,.46,0s.43,.02,.63,.05c.67,.09,1.23,.33,1.68,.73,.45,.4,.79,.9,1.02,1.52,.23,.61,.34,1.29,.34,2.02s-.11,1.41-.34,2.02-.57,1.12-1.02,1.51c-.45,.4-1.01,.64-1.68,.73-.2,.02-.41,.04-.63,.04-.22,0-.38,0-.46,0h-2.66Zm1.1-1.02h1.57c.15,0,.32,0,.51-.02,.19,0,.35-.03,.49-.05,.47-.09,.85-.29,1.15-.59,.29-.31,.51-.69,.64-1.15s.2-.96,.2-1.49-.07-1.05-.21-1.51-.35-.84-.64-1.15c-.29-.3-.67-.5-1.14-.58-.14-.03-.31-.05-.5-.05-.19,0-.36-.01-.5-.01h-1.57v6.6Z"/><path class="b" d="M179.8,115.54c-.64,0-1.19-.14-1.67-.42-.47-.28-.84-.68-1.11-1.18s-.4-1.1-.4-1.77,.13-1.32,.39-1.84c.26-.52,.62-.92,1.09-1.2,.47-.28,1.01-.42,1.64-.42s1.21,.15,1.67,.45c.46,.3,.8,.73,1.03,1.28,.23,.56,.33,1.22,.3,1.99h-1.08v-.38c-.01-.8-.17-1.39-.49-1.79-.31-.39-.78-.59-1.39-.59-.66,0-1.16,.21-1.51,.64-.34,.42-.52,1.03-.52,1.82s.17,1.36,.52,1.78c.34,.42,.83,.63,1.47,.63,.43,0,.8-.1,1.12-.29s.56-.48,.74-.85l1.03,.35c-.25,.57-.63,1.02-1.14,1.33-.51,.31-1.07,.47-1.7,.47Zm-2.39-3.12v-.86h4.79v.86h-4.79Z"/><path class="b" d="M183.59,109.77v-.88h3.87v.88h-3.87Zm1.1,5.6v-6.83c0-.17,0-.34,.02-.51,.02-.17,.05-.34,.11-.51,.06-.17,.15-.32,.28-.46,.15-.16,.31-.28,.49-.35s.36-.11,.54-.13,.36-.02,.52-.02h.82v.89h-.76c-.32,0-.55,.08-.71,.23-.16,.15-.23,.39-.23,.7v7h-1.07Zm4.03-7.63v-1.1h1.07v1.1h-1.07Zm0,7.63v-6.48h1.07v6.48h-1.07Z"/></g><path class="b" d="M288.54,94.81c3.31,0,6,2.69,6,6v62.21c0,3.31-2.69,6-6,6h-124.65c-3.31,0-6-2.69-6-6v-62.21c0-3.31,2.69-6,6-6h124.65m0-2h-124.65c-4.42,0-8,3.58-8,8v62.21c0,4.42,3.58,8,8,8h124.65c4.42,0,8-3.58,8-8v-62.21c0-4.42-3.58-8-8-8h0Z"/><g><path class="b" d="M326.55,115.36l-2.5-8.64h1.12l1.92,6.83,1.91-6.83h1.12l1.92,6.83,1.91-6.83h1.12l-2.5,8.64h-1.07l-1.94-6.77-1.95,6.77h-1.07Z"/><path class="b" d="M337.41,115.54c-.48,0-.89-.09-1.21-.27s-.57-.41-.74-.71-.25-.61-.25-.96,.06-.63,.2-.88c.13-.25,.31-.46,.55-.62s.52-.3,.85-.39c.31-.08,.65-.16,1.04-.22,.38-.06,.77-.12,1.16-.17,.39-.05,.76-.1,1.1-.15l-.38,.22c.01-.58-.1-1-.35-1.28s-.66-.41-1.25-.41c-.39,0-.73,.09-1.03,.27-.29,.18-.5,.47-.62,.87l-1.01-.31c.16-.57,.46-1.01,.91-1.34,.45-.32,1.04-.49,1.77-.49,.59,0,1.09,.11,1.52,.32s.72,.53,.91,.95c.09,.2,.15,.42,.17,.65,.02,.23,.04,.48,.04,.74v4.01h-.95v-1.55l.22,.14c-.24,.52-.59,.92-1.02,1.19-.44,.27-.97,.4-1.6,.4Zm.16-.89c.38,0,.72-.07,1-.21,.28-.14,.51-.32,.68-.55,.17-.23,.28-.47,.34-.74,.06-.2,.09-.42,.1-.67s0-.43,0-.57l.37,.16c-.35,.05-.69,.09-1.03,.14s-.65,.09-.95,.14c-.3,.05-.57,.11-.81,.18-.18,.06-.34,.13-.5,.22-.15,.09-.28,.2-.37,.34-.09,.14-.14,.31-.14,.51,0,.18,.04,.34,.13,.5s.23,.29,.42,.39c.19,.1,.44,.15,.75,.15Z"/><path class="b" d="M342.44,115.36v-8.82h1.07v8.82h-1.07Z"/><path class="b" d="M345.43,115.36v-8.82h1.07v8.82h-1.07Z"/><path class="b" d="M351.1,115.54c-.64,0-1.19-.14-1.66-.42-.47-.28-.84-.68-1.11-1.18s-.4-1.1-.4-1.77,.13-1.32,.39-1.84c.26-.52,.62-.92,1.09-1.2,.47-.28,1.01-.42,1.64-.42s1.21,.15,1.67,.45c.46,.3,.8,.73,1.03,1.28,.23,.56,.33,1.22,.3,1.99h-1.08v-.38c-.01-.8-.17-1.39-.48-1.79-.31-.39-.78-.59-1.39-.59-.66,0-1.16,.21-1.51,.64-.34,.42-.52,1.03-.52,1.82s.17,1.36,.52,1.78,.83,.63,1.47,.63c.43,0,.8-.1,1.12-.29s.56-.48,.74-.85l1.03,.35c-.25,.57-.63,1.02-1.14,1.33-.51,.31-1.07,.47-1.7,.47Zm-2.39-3.12v-.86h4.79v.86h-4.79Z"/><path class="b" d="M354.66,109.77v-.88h4.34v.88h-4.34Zm4.34,5.6c-.38,.08-.76,.11-1.14,.09-.38-.01-.71-.09-1-.23-.29-.14-.51-.35-.67-.65-.13-.26-.2-.51-.21-.78,0-.26-.02-.56-.02-.89v-5.83h1.07v5.78c0,.26,0,.49,0,.68,0,.19,.05,.35,.12,.49,.14,.26,.37,.41,.69,.45,.31,.04,.69,.03,1.14-.04v.92Z"/></g><path class="b" d="M444.44,94.81c3.31,0,6,2.69,6,6v62.21c0,3.31-2.69,6-6,6h-124.65c-3.31,0-6-2.69-6-6v-62.21c0-3.31,2.69-6,6-6h124.65m0-2h-124.65c-4.42,0-8,3.58-8,8v62.21c0,4.42,3.58,8,8,8h124.65c4.42,0,8-3.58,8-8v-62.21c0-4.42-3.58-8-8-8h0Z"/><g><path class="b" d="M324.83,22.55V13.91h1.07v8.64h-1.07Z"/><path class="b" d="M330.24,22.73c-.6,0-1.12-.15-1.55-.45-.43-.3-.76-.71-1-1.23s-.35-1.1-.35-1.75,.12-1.23,.35-1.75c.23-.52,.57-.92,1-1.22s.95-.45,1.55-.45,1.12,.15,1.54,.44,.73,.7,.95,1.22c.21,.52,.32,1.1,.32,1.75s-.11,1.23-.32,1.74c-.21,.52-.53,.93-.95,1.23-.42,.3-.93,.45-1.54,.45Zm.13-.98c.44,0,.79-.11,1.07-.32,.28-.21,.49-.5,.62-.87,.13-.37,.2-.79,.2-1.26s-.07-.9-.2-1.27c-.13-.37-.34-.65-.62-.86-.28-.21-.62-.31-1.05-.31s-.8,.11-1.09,.32c-.29,.22-.5,.51-.63,.88-.14,.37-.21,.78-.21,1.24s.07,.88,.21,1.25,.35,.66,.63,.88c.28,.22,.63,.32,1.06,.32Zm1.9,.8v-4.77h-.12v-3.87h1.07v8.64h-.96Z"/><path class="b" d="M337.71,22.73c-.64,0-1.19-.14-1.67-.42s-.84-.68-1.11-1.18-.39-1.1-.39-1.77,.13-1.32,.39-1.84c.26-.52,.62-.92,1.09-1.2,.46-.28,1.01-.42,1.64-.42s1.21,.15,1.66,.45c.46,.3,.8,.73,1.03,1.28,.23,.56,.33,1.22,.3,1.99h-1.08v-.38c-.01-.8-.17-1.39-.49-1.79-.31-.39-.78-.59-1.39-.59-.66,0-1.16,.21-1.51,.64-.34,.42-.52,1.03-.52,1.82s.17,1.36,.52,1.78,.83,.63,1.47,.63c.43,0,.8-.1,1.12-.29,.32-.2,.56-.48,.74-.85l1.03,.35c-.25,.57-.63,1.02-1.14,1.33-.51,.31-1.07,.47-1.7,.47Zm-2.39-3.12v-.86h4.79v.86h-4.79Z"/><path class="b" d="M341.81,22.55v-6.48h.96v1.73h.12v4.75h-1.08Zm4.62,0v-3.25c0-.31-.03-.6-.08-.89-.05-.28-.15-.54-.28-.77-.13-.23-.31-.4-.54-.54-.23-.13-.51-.2-.86-.2-.27,0-.51,.04-.73,.13-.22,.09-.41,.23-.56,.41-.16,.18-.28,.42-.36,.69-.09,.28-.13,.6-.13,.98l-.7-.22c0-.63,.11-1.17,.34-1.62s.54-.8,.95-1.04,.89-.36,1.45-.36c.42,0,.78,.07,1.07,.2,.3,.13,.54,.31,.74,.53s.35,.46,.46,.73c.11,.27,.19,.54,.24,.82,.04,.28,.07,.54,.07,.79v3.58h-1.08Z"/><path class="b" d="M348.35,16.95v-.88h4.34v.88h-4.34Zm4.34,5.6c-.38,.08-.76,.11-1.14,.09-.37-.01-.71-.09-1-.23-.29-.14-.52-.35-.67-.65-.13-.26-.2-.51-.21-.78,0-.26-.02-.56-.02-.89v-5.83h1.07v5.78c0,.26,0,.49,0,.68,0,.19,.05,.35,.12,.49,.14,.26,.37,.41,.69,.45s.69,.03,1.14-.04v.92Z"/><path class="b" d="M354.13,14.93v-1.1h1.07v1.1h-1.07Zm0,7.63v-6.48h1.07v6.48h-1.07Z"/><path class="b" d="M356.28,16.95v-.88h4.34v.88h-4.34Zm4.34,5.6c-.38,.08-.76,.11-1.14,.09-.38-.01-.71-.09-1-.23-.29-.14-.51-.35-.67-.65-.13-.26-.2-.51-.21-.78,0-.26-.02-.56-.02-.89v-5.83h1.07v5.78c0,.26,0,.49,0,.68,0,.19,.05,.35,.12,.49,.14,.26,.37,.41,.69,.45,.31,.04,.69,.03,1.14-.04v.92Z"/><path class="b" d="M362.67,25.43l1.25-3.41,.02,1.01-2.83-6.96h1.12l2.22,5.6h-.38l2.08-5.6h1.09l-3.53,9.36h-1.04Z"/></g><path class="b" d="M444.44,2c3.31,0,6,2.69,6,6v62.21c0,3.31-2.69,6-6,6h-124.65c-3.31,0-6-2.69-6-6V8c0-3.31,2.69-6,6-6h124.65M444.44,0h-124.65C315.36,0,311.78,3.58,311.78,8v62.21c0,4.42,3.58,8,8,8h124.65c4.42,0,8-3.58,8-8V8C452.44,3.58,448.85,0,444.44,0h0Z"/><g><path class="b" d="M12.93,115.36v-8.64h5.46v1.01h-4.39v2.71h3.67v1.01h-3.67v2.89h4.39v1.01h-5.46Z"/><path class="b" d="M19.11,115.36l2.48-3.28-2.42-3.2h1.27l1.78,2.38,1.76-2.38h1.27l-2.42,3.2,2.48,3.28h-1.28l-1.81-2.45-1.82,2.45h-1.28Z"/><path class="b" d="M28.75,115.54c-.66,0-1.21-.15-1.67-.44-.46-.29-.81-.7-1.05-1.21-.24-.52-.36-1.1-.37-1.76,0-.68,.13-1.27,.38-1.79,.25-.51,.6-.92,1.06-1.2,.46-.29,1.01-.43,1.66-.43,.68,0,1.27,.17,1.77,.5,.49,.34,.82,.8,.99,1.38l-1.06,.32c-.14-.38-.36-.67-.66-.88s-.66-.31-1.05-.31c-.44,0-.81,.1-1.1,.31-.29,.21-.5,.49-.64,.85-.14,.36-.21,.78-.22,1.25,0,.72,.18,1.3,.5,1.74,.33,.44,.81,.66,1.46,.66,.42,0,.78-.1,1.06-.29s.49-.47,.64-.84l1.08,.28c-.22,.6-.57,1.07-1.05,1.39-.48,.32-1.05,.48-1.72,.48Z"/><path class="b" d="M32.74,115.36v-8.64h.96v4.77h.12v3.87h-1.08Zm4.62,0v-3.25c0-.31-.03-.6-.08-.89-.05-.28-.15-.54-.28-.77-.13-.23-.31-.4-.54-.54-.23-.13-.51-.2-.86-.2-.27,0-.51,.04-.73,.13-.22,.09-.41,.23-.56,.41-.16,.18-.28,.42-.36,.69-.09,.28-.13,.6-.13,.98l-.7-.22c0-.63,.11-1.17,.34-1.62,.23-.45,.54-.8,.95-1.04s.89-.36,1.45-.36c.42,0,.78,.07,1.07,.2s.54,.31,.74,.53c.2,.22,.35,.46,.46,.73,.11,.27,.19,.54,.24,.82,.04,.28,.07,.54,.07,.79v3.58h-1.08Z"/><path class="b" d="M41.85,115.54c-.48,0-.89-.09-1.21-.27s-.57-.41-.74-.71-.25-.61-.25-.96,.07-.63,.19-.88c.13-.25,.31-.46,.55-.62,.24-.17,.52-.3,.85-.39,.31-.08,.65-.16,1.04-.22,.38-.06,.77-.12,1.16-.17s.76-.1,1.1-.15l-.38,.22c.01-.58-.1-1-.34-1.28s-.66-.41-1.25-.41c-.39,0-.73,.09-1.03,.27-.29,.18-.5,.47-.62,.87l-1.01-.31c.16-.57,.46-1.01,.91-1.34,.45-.32,1.04-.49,1.77-.49,.59,0,1.09,.11,1.51,.32s.72,.53,.91,.95c.09,.2,.15,.42,.17,.65,.02,.23,.04,.48,.04,.74v4.01h-.95v-1.55l.22,.14c-.24,.52-.58,.92-1.02,1.19-.44,.27-.97,.4-1.6,.4Zm.16-.89c.38,0,.72-.07,1-.21,.28-.14,.51-.32,.68-.55,.17-.23,.28-.47,.34-.74,.06-.2,.09-.42,.1-.67s0-.43,0-.57l.37,.16c-.35,.05-.69,.09-1.03,.14s-.65,.09-.95,.14c-.3,.05-.57,.11-.81,.18-.18,.06-.34,.13-.49,.22-.15,.09-.28,.2-.37,.34-.09,.14-.14,.31-.14,.51,0,.18,.04,.34,.13,.5,.09,.16,.23,.29,.42,.39,.19,.1,.44,.15,.75,.15Z"/><path class="b" d="M46.75,115.36v-6.48h.96v1.73h.12v4.75h-1.08Zm4.62,0v-3.25c0-.31-.03-.6-.08-.89-.05-.28-.15-.54-.28-.77-.13-.23-.31-.4-.54-.54-.23-.13-.51-.2-.86-.2-.27,0-.51,.04-.73,.13-.22,.09-.41,.23-.56,.41-.16,.18-.28,.42-.36,.69-.09,.28-.13,.6-.13,.98l-.7-.22c0-.63,.11-1.17,.34-1.62,.23-.45,.54-.8,.95-1.04s.89-.36,1.45-.36c.42,0,.78,.07,1.07,.2s.54,.31,.74,.53c.2,.22,.35,.46,.46,.73,.11,.27,.19,.54,.24,.82,.04,.28,.07,.54,.07,.79v3.58h-1.08Z"/><path class="b" d="M56.55,115.54c-.6,0-1.12-.15-1.55-.45-.43-.3-.77-.71-1-1.23-.23-.52-.35-1.1-.35-1.75s.12-1.23,.35-1.75c.23-.52,.57-.92,1-1.22,.43-.3,.95-.45,1.55-.45s1.13,.15,1.54,.44,.73,.7,.95,1.22c.21,.52,.32,1.1,.32,1.75s-.11,1.23-.32,1.74c-.21,.52-.53,.93-.95,1.23-.42,.3-.93,.45-1.54,.45Zm.08,2.88c-.34,0-.67-.05-1-.16-.32-.1-.62-.26-.89-.47-.27-.21-.49-.47-.67-.79l.98-.52c.16,.32,.39,.55,.68,.69,.29,.14,.6,.22,.91,.22,.41,0,.75-.08,1.03-.23,.27-.15,.47-.37,.6-.67s.19-.66,.19-1.1v-1.77h.13v-4.74h.95v6.52c0,.18,0,.35-.01,.51-.01,.16-.03,.33-.06,.49-.08,.46-.25,.84-.5,1.14s-.57,.52-.96,.67c-.39,.15-.85,.22-1.36,.22Zm.05-3.86c.44,0,.79-.11,1.07-.32,.28-.21,.49-.5,.62-.87,.13-.37,.2-.79,.2-1.26s-.07-.9-.2-1.27c-.13-.37-.34-.65-.62-.86-.28-.21-.63-.31-1.05-.31s-.8,.11-1.09,.32c-.29,.22-.5,.51-.64,.88-.14,.37-.21,.78-.21,1.24s.07,.88,.21,1.25c.14,.37,.35,.66,.63,.88,.28,.22,.63,.32,1.06,.32Z"/><path class="b" d="M64.02,115.54c-.64,0-1.19-.14-1.67-.42-.47-.28-.84-.68-1.11-1.18s-.4-1.1-.4-1.77,.13-1.32,.39-1.84c.26-.52,.62-.92,1.09-1.2,.47-.28,1.01-.42,1.64-.42s1.21,.15,1.67,.45c.46,.3,.8,.73,1.03,1.28,.23,.56,.33,1.22,.3,1.99h-1.08v-.38c-.01-.8-.17-1.39-.49-1.79-.31-.39-.78-.59-1.39-.59-.66,0-1.16,.21-1.51,.64-.34,.42-.52,1.03-.52,1.82s.17,1.36,.52,1.78c.34,.42,.83,.63,1.47,.63,.43,0,.8-.1,1.12-.29s.56-.48,.74-.85l1.03,.35c-.25,.57-.63,1.02-1.14,1.33-.51,.31-1.07,.47-1.7,.47Zm-2.39-3.12v-.86h4.79v.86h-4.79Z"/></g><path class="b" d="M132.65,94.81c3.31,0,6,2.69,6,6v62.21c0,3.31-2.69,6-6,6H8c-3.31,0-6-2.69-6-6v-62.21c0-3.31,2.69-6,6-6h124.65m0-2H8C3.58,92.81,0,96.39,0,100.81v62.21C0,167.44,3.58,171.03,8,171.03h124.65c4.42,0,8-3.58,8-8v-62.21c0-4.42-3.58-8-8-8h0Z"/></svg>