<?xml version="1.0" encoding="UTF-8"?><svg id="a" xmlns="http://www.w3.org/2000/svg" viewBox="0 0 469.31 502.65"><defs><style>.b{fill:#fff;}.c{fill:#ff7358;}.d{fill:#5a94ff;}.e{fill:none;stroke:#fff;stroke-miterlimit:10;}</style></defs><g><path class="c" d="M14.23,16.87l2.89-8.64h1.49l2.89,8.64h-1.11l-2.71-8.02h.34l-2.68,8.02h-1.11Zm1.39-2.02v-1h4.49v1h-4.49Z"/><path class="c" d="M22.58,16.87v-6.48h.95v1.73h.12v4.75h-1.07Zm3.88,0v-4.1c0-.5-.12-.89-.38-1.17-.26-.28-.6-.42-1.02-.42s-.76,.14-1.02,.43-.39,.67-.39,1.15l-.56-.34c0-.42,.1-.8,.3-1.13,.2-.33,.47-.59,.82-.78,.34-.19,.73-.29,1.17-.29s.82,.09,1.14,.28c.32,.18,.57,.45,.75,.79,.18,.34,.26,.75,.26,1.22v4.36h-1.07Zm3.87,0v-4.15c0-.48-.12-.86-.38-1.14-.26-.27-.59-.41-1-.41-.24,0-.47,.06-.68,.17-.22,.11-.39,.28-.53,.52-.14,.23-.2,.53-.2,.9l-.56-.23c0-.46,.09-.86,.29-1.21,.2-.35,.47-.62,.81-.81,.34-.19,.73-.29,1.16-.29,.68,0,1.21,.21,1.6,.62s.58,.96,.58,1.65v4.38h-1.07Z"/><path class="c" d="M32.96,16.87V8.23h1.07v3.87h-.12v4.77h-.95Zm2.98,.18c-.61,0-1.12-.15-1.54-.45-.42-.3-.73-.71-.95-1.23s-.32-1.1-.32-1.74,.11-1.24,.32-1.75,.53-.92,.95-1.22,.93-.44,1.54-.44,1.12,.15,1.55,.45c.43,.3,.77,.71,1,1.22,.23,.52,.35,1.1,.35,1.75s-.12,1.23-.35,1.75c-.23,.52-.57,.92-1,1.23-.43,.3-.95,.45-1.56,.45Zm-.13-.98c.43,0,.78-.11,1.06-.32s.49-.51,.63-.88,.21-.79,.21-1.25-.07-.87-.21-1.24c-.14-.37-.35-.66-.64-.88-.29-.22-.65-.32-1.09-.32s-.77,.1-1.04,.31c-.28,.21-.48,.49-.62,.86-.14,.37-.2,.79-.2,1.27s.07,.89,.2,1.26c.13,.37,.34,.66,.62,.87,.28,.21,.64,.32,1.07,.32Z"/><path class="c" d="M42.01,17.05c-.48,0-.89-.09-1.21-.27s-.57-.41-.74-.71-.25-.61-.25-.96,.06-.63,.19-.88,.31-.46,.55-.62c.24-.17,.52-.3,.85-.39,.31-.08,.65-.16,1.04-.22,.38-.06,.77-.12,1.16-.17,.39-.05,.76-.1,1.1-.15l-.38,.22c.01-.58-.1-1-.35-1.28s-.66-.41-1.25-.41c-.39,0-.73,.09-1.03,.27-.29,.18-.5,.47-.62,.87l-1.01-.31c.16-.57,.46-1.01,.91-1.34s1.04-.49,1.77-.49c.59,0,1.09,.11,1.51,.32s.72,.53,.91,.95c.09,.2,.15,.42,.17,.65,.02,.23,.04,.48,.04,.74v4.01h-.95v-1.55l.22,.14c-.24,.52-.58,.92-1.02,1.19-.44,.27-.97,.4-1.6,.4Zm.16-.89c.38,0,.72-.07,1-.21s.51-.32,.68-.55c.17-.23,.28-.47,.34-.74,.06-.2,.09-.42,.1-.67s0-.43,0-.57l.37,.16c-.35,.05-.69,.09-1.03,.14-.34,.04-.65,.09-.95,.14-.3,.05-.57,.11-.81,.18-.18,.06-.34,.13-.5,.22-.15,.09-.28,.2-.37,.34-.09,.14-.14,.31-.14,.51,0,.18,.04,.34,.13,.5s.23,.29,.42,.39c.19,.1,.44,.15,.75,.15Z"/><path class="c" d="M49.36,17.04c-.77,0-1.41-.17-1.9-.51s-.8-.81-.91-1.42l1.09-.17c.09,.35,.29,.63,.61,.84,.32,.21,.71,.31,1.18,.31s.79-.09,1.04-.28c.25-.18,.38-.43,.38-.75,0-.18-.04-.33-.13-.45s-.26-.22-.52-.32c-.26-.1-.66-.22-1.18-.36-.57-.15-1.02-.31-1.35-.47s-.56-.35-.7-.57c-.14-.22-.21-.48-.21-.79,0-.38,.1-.71,.31-1s.5-.51,.87-.66,.81-.23,1.3-.23,.93,.08,1.32,.23,.7,.38,.94,.66c.24,.29,.38,.62,.42,1l-1.09,.2c-.05-.35-.22-.62-.5-.82-.28-.2-.64-.31-1.09-.32-.42-.02-.76,.06-1.02,.22-.26,.16-.39,.39-.39,.67,0,.16,.05,.29,.15,.4,.1,.11,.28,.22,.55,.32,.27,.1,.65,.21,1.16,.34,.57,.14,1.02,.3,1.35,.47s.57,.37,.71,.6c.14,.23,.21,.51,.21,.85,0,.62-.23,1.12-.69,1.47-.46,.36-1.09,.54-1.9,.54Z"/><path class="c" d="M55.73,17.04c-.77,0-1.41-.17-1.9-.51s-.8-.81-.91-1.42l1.09-.17c.09,.35,.29,.63,.61,.84,.32,.21,.71,.31,1.18,.31s.79-.09,1.04-.28c.25-.18,.38-.43,.38-.75,0-.18-.04-.33-.13-.45s-.26-.22-.52-.32c-.26-.1-.66-.22-1.18-.36-.57-.15-1.02-.31-1.35-.47s-.56-.35-.7-.57c-.14-.22-.21-.48-.21-.79,0-.38,.1-.71,.31-1s.5-.51,.87-.66,.81-.23,1.3-.23,.93,.08,1.32,.23,.7,.38,.94,.66c.24,.29,.38,.62,.42,1l-1.09,.2c-.05-.35-.22-.62-.5-.82-.28-.2-.64-.31-1.09-.32-.42-.02-.76,.06-1.02,.22-.26,.16-.39,.39-.39,.67,0,.16,.05,.29,.15,.4,.1,.11,.28,.22,.55,.32,.27,.1,.65,.21,1.16,.34,.57,.14,1.02,.3,1.35,.47s.57,.37,.71,.6c.14,.23,.21,.51,.21,.85,0,.62-.23,1.12-.69,1.47-.46,.36-1.09,.54-1.9,.54Z"/><path class="c" d="M61.49,17.05c-.48,0-.89-.09-1.21-.27s-.57-.41-.74-.71-.25-.61-.25-.96,.06-.63,.19-.88,.31-.46,.55-.62c.24-.17,.52-.3,.85-.39,.31-.08,.65-.16,1.04-.22,.38-.06,.77-.12,1.16-.17,.39-.05,.76-.1,1.1-.15l-.38,.22c.01-.58-.1-1-.35-1.28s-.66-.41-1.25-.41c-.39,0-.73,.09-1.03,.27-.29,.18-.5,.47-.62,.87l-1.01-.31c.16-.57,.46-1.01,.91-1.34s1.04-.49,1.77-.49c.59,0,1.09,.11,1.51,.32s.72,.53,.91,.95c.09,.2,.15,.42,.17,.65,.02,.23,.04,.48,.04,.74v4.01h-.95v-1.55l.22,.14c-.24,.52-.58,.92-1.02,1.19-.44,.27-.97,.4-1.6,.4Zm.16-.89c.38,0,.72-.07,1-.21s.51-.32,.68-.55c.17-.23,.28-.47,.34-.74,.06-.2,.09-.42,.1-.67s0-.43,0-.57l.37,.16c-.35,.05-.69,.09-1.03,.14-.34,.04-.65,.09-.95,.14-.3,.05-.57,.11-.81,.18-.18,.06-.34,.13-.5,.22-.15,.09-.28,.2-.37,.34-.09,.14-.14,.31-.14,.51,0,.18,.04,.34,.13,.5s.23,.29,.42,.39c.19,.1,.44,.15,.75,.15Z"/><path class="c" d="M68.94,17.05c-.6,0-1.12-.15-1.55-.45-.43-.3-.76-.71-1-1.23s-.35-1.1-.35-1.75,.12-1.23,.35-1.75c.23-.52,.57-.92,1-1.22s.95-.45,1.55-.45,1.13,.15,1.54,.44,.73,.7,.95,1.22,.32,1.1,.32,1.75-.11,1.23-.32,1.74-.53,.93-.95,1.23c-.42,.3-.93,.45-1.54,.45Zm.13-.98c.44,0,.79-.11,1.07-.32s.49-.5,.62-.87c.13-.37,.2-.79,.2-1.26s-.07-.9-.2-1.27c-.13-.37-.34-.65-.62-.86-.28-.21-.63-.31-1.05-.31s-.8,.11-1.09,.32c-.29,.22-.5,.51-.64,.88-.14,.37-.21,.78-.21,1.24s.07,.88,.21,1.25c.14,.37,.35,.66,.63,.88s.63,.32,1.06,.32Zm1.9,.8v-4.77h-.12v-3.87h1.07v8.64h-.95Z"/><path class="c" d="M76.36,17.05c-.64,0-1.2-.15-1.67-.44-.47-.29-.82-.7-1.08-1.21-.25-.52-.38-1.11-.38-1.78s.13-1.28,.38-1.79c.26-.51,.62-.91,1.09-1.2,.47-.29,1.02-.43,1.65-.43s1.21,.15,1.67,.44c.47,.29,.83,.69,1.08,1.21,.25,.51,.38,1.1,.38,1.77s-.13,1.27-.38,1.79-.61,.92-1.08,1.21c-.47,.29-1.02,.43-1.67,.43Zm0-1.01c.67,0,1.17-.22,1.5-.67s.49-1.03,.49-1.74-.17-1.31-.5-1.75c-.33-.43-.83-.65-1.49-.65-.45,0-.82,.1-1.12,.31s-.51,.49-.65,.85c-.14,.36-.22,.78-.22,1.25,0,.73,.17,1.31,.5,1.75,.34,.44,.83,.66,1.48,.66Z"/><path class="c" d="M80.81,16.87v-6.48h.95v1.57l-.16-.2c.08-.2,.17-.38,.3-.55s.26-.31,.41-.41c.17-.14,.36-.24,.57-.31,.21-.07,.43-.11,.65-.13,.22-.01,.43,0,.62,.04v1c-.22-.06-.47-.08-.74-.05-.27,.03-.52,.13-.74,.29-.21,.15-.37,.33-.48,.54-.11,.21-.19,.44-.24,.69-.04,.25-.07,.5-.07,.75v3.25h-1.07Z"/><path class="c" d="M87.69,16.87V8.23h3.41c.08,0,.18,0,.3,0s.23,.02,.34,.04c.47,.07,.86,.23,1.18,.48,.32,.25,.56,.56,.72,.94s.24,.8,.24,1.26c0,.67-.17,1.25-.52,1.74-.35,.49-.86,.8-1.53,.92l-.41,.07h-2.66v3.19h-1.07Zm1.07-4.21h2.31c.08,0,.16,0,.26-.01,.1,0,.19-.02,.28-.04,.28-.06,.5-.18,.67-.35,.17-.17,.3-.37,.38-.6,.08-.23,.12-.46,.12-.71s-.04-.47-.12-.71c-.08-.23-.21-.43-.38-.6-.17-.17-.4-.29-.67-.35-.09-.02-.18-.04-.28-.04-.1,0-.18,0-.26,0h-2.31v3.42Zm4.07,4.21l-1.7-3.52,1.06-.32,1.87,3.84h-1.22Z"/><path class="c" d="M97.22,17.05c-.48,0-.89-.09-1.21-.27s-.57-.41-.74-.71-.25-.61-.25-.96,.06-.63,.19-.88,.31-.46,.55-.62c.24-.17,.52-.3,.85-.39,.31-.08,.65-.16,1.04-.22,.38-.06,.77-.12,1.16-.17,.39-.05,.76-.1,1.1-.15l-.38,.22c.01-.58-.1-1-.35-1.28s-.66-.41-1.25-.41c-.39,0-.73,.09-1.03,.27-.29,.18-.5,.47-.62,.87l-1.01-.31c.16-.57,.46-1.01,.91-1.34s1.04-.49,1.77-.49c.59,0,1.09,.11,1.51,.32s.72,.53,.91,.95c.09,.2,.15,.42,.17,.65,.02,.23,.04,.48,.04,.74v4.01h-.95v-1.55l.22,.14c-.24,.52-.58,.92-1.02,1.19-.44,.27-.97,.4-1.6,.4Zm.16-.89c.38,0,.72-.07,1-.21s.51-.32,.68-.55c.17-.23,.28-.47,.34-.74,.06-.2,.09-.42,.1-.67s0-.43,0-.57l.37,.16c-.35,.05-.69,.09-1.03,.14-.34,.04-.65,.09-.95,.14-.3,.05-.57,.11-.81,.18-.18,.06-.34,.13-.5,.22-.15,.09-.28,.2-.37,.34-.09,.14-.14,.31-.14,.51,0,.18,.04,.34,.13,.5s.23,.29,.42,.39c.19,.1,.44,.15,.75,.15Z"/><path class="c" d="M102.12,16.87v-6.48h.96v1.73h.12v4.75h-1.08Zm4.62,0v-3.25c0-.31-.03-.6-.08-.89s-.15-.54-.28-.77c-.13-.23-.31-.4-.54-.54-.23-.13-.51-.2-.85-.2-.27,0-.51,.04-.73,.13s-.41,.23-.56,.41c-.16,.18-.28,.42-.36,.69-.09,.28-.13,.6-.13,.98l-.7-.22c0-.63,.11-1.17,.34-1.62,.23-.45,.54-.8,.95-1.04s.89-.36,1.45-.36c.42,0,.78,.07,1.07,.2s.54,.31,.74,.53c.2,.22,.35,.46,.46,.73,.11,.27,.19,.54,.24,.82s.07,.54,.07,.79v3.58h-1.08Z"/><path class="c" d="M109.37,16.87V8.23h1.09v5.28l2.72-3.12h1.39l-2.86,3.24,3.2,3.24h-1.49l-2.95-3.12v3.12h-1.09Z"/></g><g><path class="c" d="M254.95,16.87l2.97-4.37-2.89-4.27h1.3l2.24,3.37,2.23-3.37h1.31l-2.89,4.27,2.96,4.37h-1.3l-2.31-3.47-2.31,3.47h-1.31Z"/><path class="c" d="M263.14,16.87V8.23h3.41c.08,0,.18,0,.3,0s.23,.02,.34,.04c.47,.07,.86,.23,1.18,.48,.32,.25,.56,.56,.72,.94s.24,.8,.24,1.26-.08,.87-.24,1.25-.4,.69-.72,.94c-.32,.25-.71,.41-1.17,.48-.11,.02-.22,.03-.34,.04s-.22,.01-.3,.01h-2.35v3.19h-1.07Zm1.07-4.21h2.31c.08,0,.16,0,.26-.01,.1,0,.19-.02,.28-.04,.28-.06,.5-.18,.67-.35,.17-.17,.3-.37,.38-.6,.08-.23,.12-.46,.12-.71s-.04-.47-.12-.71c-.08-.23-.21-.43-.38-.6-.17-.17-.4-.29-.67-.35-.09-.02-.18-.04-.28-.04-.1,0-.18,0-.26,0h-2.31v3.42Z"/><path class="c" d="M272.83,16.87V8.23h1.07v7.63h4.01v1.01h-5.08Z"/><path class="c" d="M281.74,17.05c-.64,0-1.19-.14-1.67-.42-.47-.28-.84-.68-1.11-1.18s-.4-1.1-.4-1.77,.13-1.32,.39-1.84c.26-.52,.62-.92,1.09-1.2,.47-.28,1.01-.42,1.64-.42s1.21,.15,1.67,.45,.8,.73,1.03,1.28c.23,.56,.33,1.22,.3,1.99h-1.08v-.38c-.01-.8-.17-1.39-.49-1.79-.31-.39-.78-.59-1.39-.59-.66,0-1.16,.21-1.51,.64-.34,.42-.52,1.03-.52,1.82s.17,1.36,.52,1.78,.83,.63,1.47,.63c.43,0,.8-.1,1.12-.29,.32-.2,.56-.48,.74-.85l1.03,.35c-.25,.57-.63,1.02-1.14,1.33-.51,.31-1.07,.47-1.7,.47Zm-2.39-3.12v-.86h4.79v.86h-4.79Z"/><path class="c" d="M287.77,16.87l-2.35-6.48h1.08l1.82,5.12,1.81-5.12h1.09l-2.35,6.48h-1.09Z"/><path class="c" d="M295.1,17.05c-.64,0-1.19-.14-1.67-.42-.47-.28-.84-.68-1.11-1.18s-.4-1.1-.4-1.77,.13-1.32,.39-1.84c.26-.52,.62-.92,1.09-1.2,.47-.28,1.01-.42,1.64-.42s1.21,.15,1.67,.45,.8,.73,1.03,1.28c.23,.56,.33,1.22,.3,1.99h-1.08v-.38c-.01-.8-.17-1.39-.49-1.79-.31-.39-.78-.59-1.39-.59-.66,0-1.16,.21-1.51,.64-.34,.42-.52,1.03-.52,1.82s.17,1.36,.52,1.78,.83,.63,1.47,.63c.43,0,.8-.1,1.12-.29,.32-.2,.56-.48,.74-.85l1.03,.35c-.25,.57-.63,1.02-1.14,1.33-.51,.31-1.07,.47-1.7,.47Zm-2.39-3.12v-.86h4.79v.86h-4.79Z"/><path class="c" d="M299.5,16.87V8.05h1.07v8.82h-1.07Z"/></g><g><path class="c" d="M371.18,16.87l2.97-4.37-2.89-4.27h1.3l2.24,3.37,2.23-3.37h1.31l-2.89,4.27,2.96,4.37h-1.3l-2.31-3.47-2.31,3.47h-1.31Z"/><path class="c" d="M379.37,16.87V8.23h3.41c.08,0,.18,0,.3,0s.23,.02,.34,.04c.47,.07,.86,.23,1.18,.48,.32,.25,.56,.56,.72,.94s.24,.8,.24,1.26-.08,.87-.24,1.25-.4,.69-.72,.94c-.32,.25-.71,.41-1.17,.48-.11,.02-.22,.03-.34,.04s-.22,.01-.3,.01h-2.35v3.19h-1.07Zm1.07-4.21h2.31c.08,0,.16,0,.26-.01,.1,0,.19-.02,.28-.04,.28-.06,.5-.18,.67-.35,.17-.17,.3-.37,.38-.6,.08-.23,.12-.46,.12-.71s-.04-.47-.12-.71c-.08-.23-.21-.43-.38-.6-.17-.17-.4-.29-.67-.35-.09-.02-.18-.04-.28-.04-.1,0-.18,0-.26,0h-2.31v3.42Z"/><path class="c" d="M388.94,16.87V8.23h3.41c.08,0,.18,0,.3,0s.23,.02,.34,.04c.47,.07,.86,.23,1.18,.48,.32,.25,.56,.56,.72,.94s.24,.8,.24,1.26-.08,.87-.24,1.25-.4,.69-.72,.94c-.32,.25-.71,.41-1.17,.48-.11,.02-.22,.03-.34,.04s-.22,.01-.3,.01h-2.35v3.19h-1.07Zm1.07-4.21h2.31c.08,0,.16,0,.26-.01,.1,0,.19-.02,.28-.04,.28-.06,.5-.18,.67-.35,.17-.17,.3-.37,.38-.6,.08-.23,.12-.46,.12-.71s-.04-.47-.12-.71c-.08-.23-.21-.43-.38-.6-.17-.17-.4-.29-.67-.35-.09-.02-.18-.04-.28-.04-.1,0-.18,0-.26,0h-2.31v3.42Z"/><path class="c" d="M399.08,17.05c-.64,0-1.2-.15-1.67-.44-.47-.29-.82-.7-1.08-1.21-.25-.52-.38-1.11-.38-1.78s.13-1.28,.38-1.79c.26-.51,.62-.91,1.09-1.2,.47-.29,1.02-.43,1.65-.43s1.21,.15,1.67,.44c.47,.29,.83,.69,1.08,1.21,.25,.51,.38,1.1,.38,1.77s-.13,1.27-.38,1.79-.61,.92-1.08,1.21c-.47,.29-1.02,.43-1.67,.43Zm0-1.01c.67,0,1.17-.22,1.5-.67s.49-1.03,.49-1.74-.17-1.31-.5-1.75c-.33-.43-.83-.65-1.49-.65-.45,0-.82,.1-1.12,.31s-.51,.49-.65,.85c-.14,.36-.22,.78-.22,1.25,0,.73,.17,1.31,.5,1.75,.34,.44,.83,.66,1.48,.66Z"/><path class="c" d="M403.65,9.24v-1.1h1.07v1.1h-1.07Zm0,7.63v-6.48h1.07v6.48h-1.07Z"/><path class="c" d="M406.51,16.87v-6.48h.96v1.73h.12v4.75h-1.08Zm4.62,0v-3.25c0-.31-.03-.6-.08-.89s-.15-.54-.28-.77c-.13-.23-.31-.4-.54-.54-.23-.13-.51-.2-.85-.2-.27,0-.51,.04-.73,.13s-.41,.23-.56,.41c-.16,.18-.28,.42-.36,.69-.09,.28-.13,.6-.13,.98l-.7-.22c0-.63,.11-1.17,.34-1.62,.23-.45,.54-.8,.95-1.04s.89-.36,1.45-.36c.42,0,.78,.07,1.07,.2s.54,.31,.74,.53c.2,.22,.35,.46,.46,.73,.11,.27,.19,.54,.24,.82s.07,.54,.07,.79v3.58h-1.08Z"/><path class="c" d="M413.05,11.27v-.88h4.34v.88h-4.34Zm4.34,5.6c-.38,.08-.76,.11-1.14,.09-.37-.01-.71-.09-1-.23-.29-.14-.51-.35-.67-.65-.13-.26-.2-.51-.21-.78,0-.26-.02-.56-.02-.89v-5.83h1.07v5.78c0,.26,0,.49,0,.68,0,.19,.05,.35,.12,.49,.14,.26,.37,.41,.69,.45,.31,.04,.69,.03,1.14-.04v.92Z"/><path class="c" d="M421.16,17.04c-.77,0-1.41-.17-1.9-.51s-.8-.81-.91-1.42l1.09-.17c.09,.35,.29,.63,.61,.84,.32,.21,.71,.31,1.18,.31s.79-.09,1.04-.28c.25-.18,.38-.43,.38-.75,0-.18-.04-.33-.13-.45s-.26-.22-.52-.32c-.26-.1-.66-.22-1.18-.36-.57-.15-1.02-.31-1.35-.47s-.56-.35-.7-.57c-.14-.22-.21-.48-.21-.79,0-.38,.1-.71,.31-1s.5-.51,.87-.66,.81-.23,1.3-.23,.93,.08,1.32,.23,.7,.38,.94,.66c.24,.29,.38,.62,.42,1l-1.09,.2c-.05-.35-.22-.62-.5-.82-.28-.2-.64-.31-1.09-.32-.42-.02-.76,.06-1.02,.22-.26,.16-.39,.39-.39,.67,0,.16,.05,.29,.15,.4,.1,.11,.28,.22,.55,.32,.27,.1,.65,.21,1.16,.34,.57,.14,1.02,.3,1.35,.47s.57,.37,.71,.6c.14,.23,.21,.51,.21,.85,0,.62-.23,1.12-.69,1.47-.46,.36-1.09,.54-1.9,.54Z"/></g><g><path class="d" d="M14.83,53.95v-8.64h.97l3.26,6.88,3.25-6.88h.98v8.63h-1.01v-6.29l-2.93,6.29h-.57l-2.93-6.29v6.29h-1.01Z"/><path class="d" d="M25.1,46.32v-1.1h1.07v1.1h-1.07Zm0,7.63v-6.48h1.07v6.48h-1.07Z"/><path class="d" d="M27.96,53.95v-6.48h.96v1.73h.12v4.75h-1.08Zm4.62,0v-3.25c0-.31-.03-.6-.08-.89s-.15-.54-.28-.77c-.13-.23-.31-.4-.54-.54-.23-.13-.51-.2-.85-.2-.27,0-.51,.04-.73,.13s-.41,.23-.56,.41c-.16,.18-.28,.42-.36,.69-.09,.28-.13,.6-.13,.98l-.7-.22c0-.63,.11-1.17,.34-1.62,.23-.45,.54-.8,.95-1.04s.89-.36,1.45-.36c.42,0,.78,.07,1.07,.2s.54,.31,.74,.53c.2,.22,.35,.46,.46,.73,.11,.27,.19,.54,.24,.82s.07,.54,.07,.79v3.58h-1.08Z"/><path class="d" d="M35.34,46.32v-1.1h1.07v1.1h-1.07Zm0,7.63v-6.48h1.07v6.48h-1.07Z"/><path class="d" d="M40.75,54.13c-.6,0-1.12-.15-1.55-.45-.43-.3-.76-.71-1-1.23s-.35-1.1-.35-1.75,.12-1.23,.35-1.75c.23-.52,.57-.92,1-1.22s.95-.45,1.55-.45,1.13,.15,1.54,.44,.73,.7,.95,1.22,.32,1.1,.32,1.75-.11,1.23-.32,1.74-.53,.93-.95,1.23c-.42,.3-.93,.45-1.54,.45Zm.13-.98c.44,0,.79-.11,1.07-.32s.49-.5,.62-.87c.13-.37,.2-.79,.2-1.26s-.07-.9-.2-1.27c-.13-.37-.34-.65-.62-.86-.28-.21-.63-.31-1.05-.31s-.8,.11-1.09,.32c-.29,.22-.5,.51-.64,.88-.14,.37-.21,.78-.21,1.24s.07,.88,.21,1.25c.14,.37,.35,.66,.63,.88s.63,.32,1.06,.32Zm1.9,.8v-4.77h-.12v-3.87h1.07v8.64h-.95Z"/><path class="d" d="M48.22,54.13c-.64,0-1.19-.14-1.67-.42-.47-.28-.84-.68-1.11-1.18s-.4-1.1-.4-1.77,.13-1.32,.39-1.84c.26-.52,.62-.92,1.09-1.2,.47-.28,1.01-.42,1.64-.42s1.21,.15,1.67,.45,.8,.73,1.03,1.28c.23,.56,.33,1.22,.3,1.99h-1.08v-.38c-.01-.8-.17-1.39-.49-1.79-.31-.39-.78-.59-1.39-.59-.66,0-1.16,.21-1.51,.64-.34,.42-.52,1.03-.52,1.82s.17,1.36,.52,1.78,.83,.63,1.47,.63c.43,0,.8-.1,1.12-.29,.32-.2,.56-.48,.74-.85l1.03,.35c-.25,.57-.63,1.02-1.14,1.33-.51,.31-1.07,.47-1.7,.47Zm-2.39-3.12v-.86h4.79v.86h-4.79Z"/><path class="d" d="M52.49,53.95v-8.64h1.07v3.87h-.12v4.77h-.95Zm2.98,.18c-.61,0-1.12-.15-1.54-.45-.42-.3-.73-.71-.95-1.23s-.32-1.1-.32-1.74,.11-1.24,.32-1.75,.53-.92,.95-1.22,.93-.44,1.54-.44,1.12,.15,1.55,.45c.43,.3,.77,.71,1,1.22,.23,.52,.35,1.1,.35,1.75s-.12,1.23-.35,1.75c-.23,.52-.57,.92-1,1.23-.43,.3-.95,.45-1.56,.45Zm-.13-.98c.43,0,.78-.11,1.06-.32s.49-.51,.63-.88,.21-.79,.21-1.25-.07-.87-.21-1.24c-.14-.37-.35-.66-.64-.88-.29-.22-.65-.32-1.09-.32s-.77,.1-1.04,.31c-.28,.21-.48,.49-.62,.86-.14,.37-.2,.79-.2,1.27s.07,.89,.2,1.26c.13,.37,.34,.66,.62,.87,.28,.21,.64,.32,1.07,.32Z"/><path class="d" d="M62.16,54.12c-.42,0-.77-.07-1.07-.2-.3-.13-.54-.31-.74-.53-.2-.22-.35-.46-.46-.73-.11-.27-.19-.54-.24-.82-.05-.28-.07-.54-.07-.79v-3.58h1.08v3.25c0,.3,.03,.6,.08,.88,.06,.28,.15,.54,.29,.77s.31,.41,.54,.54,.51,.2,.85,.2c.27,0,.51-.05,.73-.14,.22-.09,.41-.23,.56-.41,.16-.18,.28-.41,.36-.69s.13-.61,.13-.98l.7,.22c0,.62-.11,1.16-.34,1.61-.23,.45-.54,.8-.95,1.04-.41,.24-.89,.36-1.45,.36Zm2.16-.17v-1.73h-.12v-4.75h1.07v6.48h-.95Z"/><path class="d" d="M66.23,48.35v-.88h4.34v.88h-4.34Zm4.34,5.6c-.38,.08-.76,.11-1.14,.09-.37-.01-.71-.09-1-.23-.29-.14-.51-.35-.67-.65-.13-.26-.2-.51-.21-.78,0-.26-.02-.56-.02-.89v-5.83h1.07v5.78c0,.26,0,.49,0,.68,0,.19,.05,.35,.12,.49,.14,.26,.37,.41,.69,.45,.31,.04,.69,.03,1.14-.04v.92Z"/><path class="d" d="M73.73,54.13c-.48,0-.89-.09-1.21-.27s-.57-.41-.74-.71-.25-.61-.25-.96,.06-.63,.19-.88,.31-.46,.55-.62c.24-.17,.52-.3,.85-.39,.31-.08,.65-.16,1.04-.22,.38-.06,.77-.12,1.16-.17,.39-.05,.76-.1,1.1-.15l-.38,.22c.01-.58-.1-1-.35-1.28s-.66-.41-1.25-.41c-.39,0-.73,.09-1.03,.27-.29,.18-.5,.47-.62,.87l-1.01-.31c.16-.57,.46-1.01,.91-1.34s1.04-.49,1.77-.49c.59,0,1.09,.11,1.51,.32s.72,.53,.91,.95c.09,.2,.15,.42,.17,.65,.02,.23,.04,.48,.04,.74v4.01h-.95v-1.55l.22,.14c-.24,.52-.58,.92-1.02,1.19-.44,.27-.97,.4-1.6,.4Zm.16-.89c.38,0,.72-.07,1-.21s.51-.32,.68-.55c.17-.23,.28-.47,.34-.74,.06-.2,.09-.42,.1-.67s0-.43,0-.57l.37,.16c-.35,.05-.69,.09-1.03,.14-.34,.04-.65,.09-.95,.14-.3,.05-.57,.11-.81,.18-.18,.06-.34,.13-.5,.22-.15,.09-.28,.2-.37,.34-.09,.14-.14,.31-.14,.51,0,.18,.04,.34,.13,.5s.23,.29,.42,.39c.19,.1,.44,.15,.75,.15Z"/><path class="d" d="M78.64,53.95v-6.48h.96v1.73h.12v4.75h-1.08Zm4.62,0v-3.25c0-.31-.03-.6-.08-.89s-.15-.54-.28-.77c-.13-.23-.31-.4-.54-.54-.23-.13-.51-.2-.85-.2-.27,0-.51,.04-.73,.13s-.41,.23-.56,.41c-.16,.18-.28,.42-.36,.69-.09,.28-.13,.6-.13,.98l-.7-.22c0-.63,.11-1.17,.34-1.62,.23-.45,.54-.8,.95-1.04s.89-.36,1.45-.36c.42,0,.78,.07,1.07,.2s.54,.31,.74,.53c.2,.22,.35,.46,.46,.73,.11,.27,.19,.54,.24,.82s.07,.54,.07,.79v3.58h-1.08Z"/><path class="d" d="M85.18,48.35v-.88h4.34v.88h-4.34Zm4.34,5.6c-.38,.08-.76,.11-1.14,.09-.37-.01-.71-.09-1-.23-.29-.14-.51-.35-.67-.65-.13-.26-.2-.51-.21-.78,0-.26-.02-.56-.02-.89v-5.83h1.07v5.78c0,.26,0,.49,0,.68,0,.19,.05,.35,.12,.49,.14,.26,.37,.41,.69,.45,.31,.04,.69,.03,1.14-.04v.92Z"/></g><path class="b" d="M257.18,42.03v-7.46l-1.63,.98v-1.19l1.63-.97h1.09v8.64h-1.09Z"/><path class="b" d="M374.81,42.21c-.56,0-1.06-.13-1.5-.38-.44-.25-.78-.6-1.04-1.04-.25-.44-.38-.94-.38-1.5v-3.17c0-.56,.13-1.06,.38-1.5,.25-.44,.6-.79,1.04-1.04,.44-.25,.94-.38,1.5-.38s1.06,.13,1.5,.38c.44,.25,.79,.6,1.04,1.04,.25,.44,.38,.94,.38,1.5v3.17c0,.56-.13,1.06-.38,1.5-.25,.44-.6,.78-1.04,1.04-.44,.25-.94,.38-1.5,.38Zm0-1.03c.34,0,.65-.08,.92-.25,.28-.16,.5-.38,.66-.66s.25-.58,.25-.92v-3.29c0-.34-.08-.65-.25-.92-.16-.28-.38-.5-.66-.66-.28-.16-.58-.25-.92-.25s-.64,.08-.92,.25-.5,.38-.66,.66c-.16,.28-.25,.58-.25,.92v3.29c0,.34,.08,.64,.25,.92s.38,.5,.66,.66,.58,.25,.92,.25Z"/><path class="b" d="M255.43,67.18v-.96l3.84-3.45c.32-.29,.53-.56,.64-.82,.11-.26,.17-.52,.17-.79,0-.33-.08-.63-.23-.9-.15-.27-.36-.48-.62-.64-.26-.16-.56-.23-.89-.23s-.65,.08-.92,.24c-.27,.16-.48,.38-.63,.64-.15,.27-.23,.56-.22,.88h-1.09c0-.54,.13-1.02,.38-1.44,.25-.42,.6-.75,1.03-.98,.43-.24,.93-.36,1.48-.36s1.02,.12,1.44,.37,.76,.58,1,1,.37,.9,.37,1.43c0,.38-.05,.7-.14,.98s-.24,.53-.44,.76c-.2,.23-.44,.48-.74,.75l-3.19,2.86-.14-.36h4.64v1.02h-5.74Z"/><g><path class="b" d="M374.27,67.36c-.43,0-.83-.08-1.19-.24-.37-.16-.68-.38-.95-.67-.27-.29-.46-.63-.58-1.04l1.03-.29c.13,.4,.35,.7,.66,.91s.65,.31,1.04,.31c.35,0,.66-.09,.92-.24,.26-.15,.46-.37,.6-.63,.14-.27,.21-.58,.21-.93,0-.54-.16-.97-.48-1.3-.32-.33-.74-.5-1.26-.5-.14,0-.3,.02-.45,.06-.16,.04-.31,.1-.44,.17l-.52-.85,3.2-2.9,.14,.36h-4.3v-1.02h5.09v1.03l-2.73,2.62v-.38c.56-.04,1.06,.05,1.49,.28,.43,.23,.76,.55,1,.98s.36,.91,.36,1.46-.12,1.04-.37,1.46c-.25,.42-.58,.76-1.01,1-.42,.24-.9,.36-1.44,.36Z"/><path class="b" d="M381.56,67.37c-.56,0-1.06-.13-1.5-.38-.44-.25-.78-.6-1.04-1.04-.25-.44-.38-.94-.38-1.5v-3.17c0-.56,.13-1.06,.38-1.5,.25-.44,.6-.79,1.04-1.04,.44-.25,.94-.38,1.5-.38s1.06,.13,1.5,.38c.44,.25,.79,.6,1.04,1.04,.25,.44,.38,.94,.38,1.5v3.17c0,.56-.13,1.06-.38,1.5-.25,.44-.6,.78-1.04,1.04-.44,.25-.94,.38-1.5,.38Zm0-1.03c.34,0,.65-.08,.92-.25,.28-.16,.5-.38,.66-.66s.25-.58,.25-.92v-3.29c0-.34-.08-.65-.25-.92-.16-.28-.38-.5-.66-.66-.28-.16-.58-.25-.92-.25s-.64,.08-.92,.25-.5,.38-.66,.66c-.16,.28-.25,.58-.25,.92v3.29c0,.34,.08,.64,.25,.92s.38,.5,.66,.66,.58,.25,.92,.25Z"/><path class="b" d="M389.08,67.37c-.56,0-1.06-.13-1.5-.38-.44-.25-.78-.6-1.04-1.04-.25-.44-.38-.94-.38-1.5v-3.17c0-.56,.13-1.06,.38-1.5,.25-.44,.6-.79,1.04-1.04,.44-.25,.94-.38,1.5-.38s1.06,.13,1.5,.38c.44,.25,.79,.6,1.04,1.04,.25,.44,.38,.94,.38,1.5v3.17c0,.56-.13,1.06-.38,1.5-.25,.44-.6,.78-1.04,1.04-.44,.25-.94,.38-1.5,.38Zm0-1.03c.34,0,.65-.08,.92-.25,.28-.16,.5-.38,.66-.66s.25-.58,.25-.92v-3.29c0-.34-.08-.65-.25-.92-.16-.28-.38-.5-.66-.66-.28-.16-.58-.25-.92-.25s-.64,.08-.92,.25-.5,.38-.66,.66c-.16,.28-.25,.58-.25,.92v3.29c0,.34,.08,.64,.25,.92s.38,.5,.66,.66,.58,.25,.92,.25Z"/></g><g><path class="d" d="M14.83,116.26v-8.64h.97l3.26,6.88,3.25-6.88h.98v8.63h-1.01v-6.29l-2.93,6.29h-.57l-2.93-6.29v6.29h-1.01Z"/><path class="d" d="M25.1,108.63v-1.1h1.07v1.1h-1.07Zm0,7.63v-6.48h1.07v6.48h-1.07Z"/><path class="d" d="M27.96,116.26v-6.48h.96v1.73h.12v4.75h-1.08Zm4.62,0v-3.25c0-.31-.03-.6-.08-.89s-.15-.54-.28-.77c-.13-.23-.31-.4-.54-.54-.23-.13-.51-.2-.85-.2-.27,0-.51,.04-.73,.13s-.41,.23-.56,.41c-.16,.18-.28,.42-.36,.69-.09,.28-.13,.6-.13,.98l-.7-.22c0-.63,.11-1.17,.34-1.62,.23-.45,.54-.8,.95-1.04s.89-.36,1.45-.36c.42,0,.78,.07,1.07,.2s.54,.31,.74,.53c.2,.22,.35,.46,.46,.73,.11,.27,.19,.54,.24,.82s.07,.54,.07,.79v3.58h-1.08Z"/><path class="d" d="M35.34,108.63v-1.1h1.07v1.1h-1.07Zm0,7.63v-6.48h1.07v6.48h-1.07Z"/><path class="d" d="M38.2,116.26v-6.48h.95v1.73h.12v4.75h-1.07Zm3.88,0v-4.1c0-.5-.12-.89-.38-1.17-.26-.28-.6-.42-1.02-.42s-.76,.14-1.02,.43-.39,.67-.39,1.15l-.56-.34c0-.42,.1-.8,.3-1.13,.2-.33,.47-.59,.82-.78,.34-.19,.73-.29,1.17-.29s.82,.09,1.14,.28c.32,.18,.57,.45,.75,.79,.18,.34,.26,.75,.26,1.22v4.36h-1.07Zm3.87,0v-4.15c0-.48-.12-.86-.38-1.14-.26-.27-.59-.41-1-.41-.24,0-.47,.06-.68,.17-.22,.11-.39,.28-.53,.52-.14,.23-.2,.53-.2,.9l-.56-.23c0-.46,.09-.86,.29-1.21,.2-.35,.47-.62,.81-.81,.34-.19,.73-.29,1.16-.29,.68,0,1.21,.21,1.6,.62s.58,.96,.58,1.65v4.38h-1.07Z"/><path class="d" d="M50.43,116.44c-.48,0-.89-.09-1.21-.27s-.57-.41-.74-.71-.25-.61-.25-.96,.06-.63,.19-.88,.31-.46,.55-.62c.24-.17,.52-.3,.85-.39,.31-.08,.65-.16,1.04-.22,.38-.06,.77-.12,1.16-.17,.39-.05,.76-.1,1.1-.15l-.38,.22c.01-.58-.1-1-.35-1.28s-.66-.41-1.25-.41c-.39,0-.73,.09-1.03,.27-.29,.18-.5,.47-.62,.87l-1.01-.31c.16-.57,.46-1.01,.91-1.34s1.04-.49,1.77-.49c.59,0,1.09,.11,1.51,.32s.72,.53,.91,.95c.09,.2,.15,.42,.17,.65,.02,.23,.04,.48,.04,.74v4.01h-.95v-1.55l.22,.14c-.24,.52-.58,.92-1.02,1.19-.44,.27-.97,.4-1.6,.4Zm.16-.89c.38,0,.72-.07,1-.21s.51-.32,.68-.55c.17-.23,.28-.47,.34-.74,.06-.2,.09-.42,.1-.67s0-.43,0-.57l.37,.16c-.35,.05-.69,.09-1.03,.14-.34,.04-.65,.09-.95,.14-.3,.05-.57,.11-.81,.18-.18,.06-.34,.13-.5,.22-.15,.09-.28,.2-.37,.34-.09,.14-.14,.31-.14,.51,0,.18,.04,.34,.13,.5s.23,.29,.42,.39c.19,.1,.44,.15,.75,.15Z"/><path class="d" d="M55.46,116.26v-8.82h1.07v8.82h-1.07Z"/><path class="d" d="M58.45,108.63v-1.1h1.07v1.1h-1.07Zm0,7.63v-6.48h1.07v6.48h-1.07Z"/><path class="d" d="M63.76,116.43c-.77,0-1.41-.17-1.9-.51s-.8-.81-.91-1.42l1.09-.17c.09,.35,.29,.63,.61,.84,.32,.21,.71,.31,1.18,.31s.79-.09,1.04-.28c.25-.18,.38-.43,.38-.75,0-.18-.04-.33-.13-.45s-.26-.22-.52-.32c-.26-.1-.66-.22-1.18-.36-.57-.15-1.02-.31-1.35-.47s-.56-.35-.7-.57c-.14-.22-.21-.48-.21-.79,0-.38,.1-.71,.31-1s.5-.51,.87-.66,.81-.23,1.3-.23,.93,.08,1.32,.23,.7,.38,.94,.66c.24,.29,.38,.62,.42,1l-1.09,.2c-.05-.35-.22-.62-.5-.82-.28-.2-.64-.31-1.09-.32-.42-.02-.76,.06-1.02,.22-.26,.16-.39,.39-.39,.67,0,.16,.05,.29,.15,.4,.1,.11,.28,.22,.55,.32,.27,.1,.65,.21,1.16,.34,.57,.14,1.02,.3,1.35,.47s.57,.37,.71,.6c.14,.23,.21,.51,.21,.85,0,.62-.23,1.12-.69,1.47-.46,.36-1.09,.54-1.9,.54Z"/><path class="d" d="M66.96,110.66v-.88h4.34v.88h-4.34Zm4.34,5.6c-.38,.08-.76,.11-1.14,.09-.37-.01-.71-.09-1-.23-.29-.14-.51-.35-.67-.65-.13-.26-.2-.51-.21-.78,0-.26-.02-.56-.02-.89v-5.83h1.07v5.78c0,.26,0,.49,0,.68,0,.19,.05,.35,.12,.49,.14,.26,.37,.41,.69,.45,.31,.04,.69,.03,1.14-.04v.92Z"/></g><path class="b" d="M258.04,92.52c-.43,0-.83-.08-1.19-.24-.37-.16-.68-.38-.95-.67-.27-.29-.46-.63-.58-1.04l1.03-.29c.13,.4,.35,.7,.66,.91s.65,.31,1.04,.31c.35,0,.66-.09,.92-.24,.26-.15,.46-.37,.6-.63,.14-.27,.21-.58,.21-.93,0-.54-.16-.97-.48-1.3-.32-.33-.74-.5-1.26-.5-.14,0-.3,.02-.45,.06-.16,.04-.31,.1-.44,.17l-.52-.85,3.2-2.9,.14,.36h-4.3v-1.02h5.09v1.03l-2.73,2.62v-.38c.56-.04,1.06,.05,1.49,.28,.43,.23,.76,.55,1,.98s.36,.91,.36,1.46-.12,1.04-.37,1.46c-.25,.42-.58,.76-1.01,1-.42,.24-.9,.36-1.44,.36Z"/><g><path class="b" d="M374.6,92.53c-.55,0-1.04-.11-1.46-.33-.42-.22-.76-.53-1-.93-.24-.4-.36-.86-.36-1.39s.12-.98,.37-1.4,.62-.74,1.11-.96l-.02,.39c-.4-.2-.71-.47-.93-.83-.22-.36-.32-.75-.32-1.19,0-.49,.11-.91,.34-1.26,.22-.35,.53-.62,.92-.82,.39-.19,.84-.29,1.35-.29s.96,.1,1.35,.29c.39,.19,.7,.46,.92,.82,.22,.35,.34,.77,.34,1.26,0,.44-.1,.83-.31,1.18-.2,.35-.52,.63-.94,.84l-.02-.38c.5,.22,.87,.53,1.12,.95s.38,.88,.38,1.4-.12,.99-.36,1.39c-.24,.4-.58,.71-1,.93-.43,.22-.92,.33-1.47,.33Zm0-1.02c.5,0,.91-.14,1.23-.42,.31-.28,.47-.68,.47-1.21s-.16-.94-.46-1.21c-.31-.28-.72-.42-1.23-.42s-.92,.14-1.23,.42c-.31,.28-.47,.68-.47,1.21s.16,.93,.47,1.21c.31,.28,.72,.42,1.22,.42Zm0-4.28c.44,0,.8-.11,1.07-.33,.27-.22,.41-.55,.41-1s-.14-.78-.41-1c-.27-.22-.63-.33-1.07-.33s-.79,.11-1.07,.33c-.27,.22-.41,.55-.41,1s.14,.78,.41,1c.27,.22,.63,.33,1.07,.33Z"/><path class="b" d="M381.91,92.53c-.56,0-1.06-.13-1.5-.38-.44-.25-.78-.6-1.04-1.04-.25-.44-.38-.94-.38-1.5v-3.17c0-.56,.13-1.06,.38-1.5,.25-.44,.6-.79,1.04-1.04,.44-.25,.94-.38,1.5-.38s1.06,.13,1.5,.38c.44,.25,.79,.6,1.04,1.04,.25,.44,.38,.94,.38,1.5v3.17c0,.56-.13,1.06-.38,1.5-.25,.44-.6,.78-1.04,1.04-.44,.25-.94,.38-1.5,.38Zm0-1.03c.34,0,.65-.08,.92-.25,.28-.16,.5-.38,.66-.66s.25-.58,.25-.92v-3.29c0-.34-.08-.65-.25-.92-.16-.28-.38-.5-.66-.66-.28-.16-.58-.25-.92-.25s-.64,.08-.92,.25-.5,.38-.66,.66c-.16,.28-.25,.58-.25,.92v3.29c0,.34,.08,.64,.25,.92s.38,.5,.66,.66,.58,.25,.92,.25Z"/><path class="b" d="M389.42,92.53c-.56,0-1.06-.13-1.5-.38-.44-.25-.78-.6-1.04-1.04-.25-.44-.38-.94-.38-1.5v-3.17c0-.56,.13-1.06,.38-1.5,.25-.44,.6-.79,1.04-1.04,.44-.25,.94-.38,1.5-.38s1.06,.13,1.5,.38c.44,.25,.79,.6,1.04,1.04,.25,.44,.38,.94,.38,1.5v3.17c0,.56-.13,1.06-.38,1.5-.25,.44-.6,.78-1.04,1.04-.44,.25-.94,.38-1.5,.38Zm0-1.03c.34,0,.65-.08,.92-.25,.28-.16,.5-.38,.66-.66s.25-.58,.25-.92v-3.29c0-.34-.08-.65-.25-.92-.16-.28-.38-.5-.66-.66-.28-.16-.58-.25-.92-.25s-.64,.08-.92,.25-.5,.38-.66,.66c-.16,.28-.25,.58-.25,.92v3.29c0,.34,.08,.64,.25,.92s.38,.5,.66,.66,.58,.25,.92,.25Z"/></g><path class="b" d="M259.41,117.51v-1.59h-3.97v-1.01l2.85-6.04h1.21l-2.85,6.04h2.76v-2.43h1.08v2.43h.9v1.01h-.9v1.59h-1.08Z"/><g><path class="b" d="M373.4,117.51v-7.46l-1.63,.98v-1.19l1.63-.97h1.09v8.64h-1.09Z"/><path class="b" d="M379.33,117.69c-.44,0-.86-.09-1.24-.28-.38-.18-.71-.44-.98-.76-.27-.32-.46-.69-.58-1.11l1.03-.28c.07,.28,.2,.53,.38,.74,.18,.21,.4,.37,.65,.48,.25,.11,.5,.17,.77,.17,.35,0,.67-.08,.95-.25s.5-.4,.67-.68,.25-.59,.25-.93-.08-.66-.25-.95-.4-.5-.68-.67c-.28-.16-.59-.25-.93-.25-.38,0-.71,.08-.97,.24-.27,.16-.48,.35-.64,.58l-.95-.36,.26-4.52h4.64v1.01h-4.12l.47-.44-.22,3.62-.23-.31c.24-.26,.53-.45,.86-.59,.33-.14,.67-.21,1.02-.21,.54,0,1.02,.12,1.44,.38,.42,.25,.76,.59,1.01,1.02s.37,.91,.37,1.45-.14,1.02-.41,1.46c-.27,.44-.63,.79-1.08,1.05s-.94,.39-1.48,.39Z"/><path class="b" d="M386.65,117.69c-.56,0-1.06-.13-1.5-.38-.44-.25-.78-.6-1.04-1.04-.25-.44-.38-.94-.38-1.5v-3.17c0-.56,.13-1.06,.38-1.5,.25-.44,.6-.79,1.04-1.04,.44-.25,.94-.38,1.5-.38s1.06,.13,1.5,.38c.44,.25,.79,.6,1.04,1.04,.25,.44,.38,.94,.38,1.5v3.17c0,.56-.13,1.06-.38,1.5-.25,.44-.6,.78-1.04,1.04-.44,.25-.94,.38-1.5,.38Zm0-1.03c.34,0,.65-.08,.92-.25,.28-.16,.5-.38,.66-.66s.25-.58,.25-.92v-3.29c0-.34-.08-.65-.25-.92-.16-.28-.38-.5-.66-.66-.28-.16-.58-.25-.92-.25s-.64,.08-.92,.25-.5,.38-.66,.66c-.16,.28-.25,.58-.25,.92v3.29c0,.34,.08,.64,.25,.92s.38,.5,.66,.66,.58,.25,.92,.25Z"/><path class="b" d="M394.16,117.69c-.56,0-1.06-.13-1.5-.38-.44-.25-.78-.6-1.04-1.04-.25-.44-.38-.94-.38-1.5v-3.17c0-.56,.13-1.06,.38-1.5,.25-.44,.6-.79,1.04-1.04,.44-.25,.94-.38,1.5-.38s1.06,.13,1.5,.38c.44,.25,.79,.6,1.04,1.04,.25,.44,.38,.94,.38,1.5v3.17c0,.56-.13,1.06-.38,1.5-.25,.44-.6,.78-1.04,1.04-.44,.25-.94,.38-1.5,.38Zm0-1.03c.34,0,.65-.08,.92-.25,.28-.16,.5-.38,.66-.66s.25-.58,.25-.92v-3.29c0-.34-.08-.65-.25-.92-.16-.28-.38-.5-.66-.66-.28-.16-.58-.25-.92-.25s-.64,.08-.92,.25-.5,.38-.66,.66c-.16,.28-.25,.58-.25,.92v3.29c0,.34,.08,.64,.25,.92s.38,.5,.66,.66,.58,.25,.92,.25Z"/></g><path class="b" d="M258.23,142.86c-.44,0-.86-.09-1.24-.28-.38-.18-.71-.44-.98-.76-.27-.32-.46-.69-.58-1.11l1.03-.28c.07,.28,.2,.53,.38,.74,.18,.21,.4,.37,.65,.48,.25,.11,.5,.17,.77,.17,.35,0,.67-.08,.95-.25s.5-.4,.67-.68,.25-.59,.25-.93-.08-.66-.25-.95-.4-.5-.68-.67c-.28-.16-.59-.25-.93-.25-.38,0-.71,.08-.97,.24-.27,.16-.48,.35-.64,.58l-.95-.36,.26-4.52h4.64v1.01h-4.12l.47-.44-.22,3.62-.23-.31c.24-.26,.53-.45,.86-.59,.33-.14,.67-.21,1.02-.21,.54,0,1.02,.12,1.44,.38,.42,.25,.76,.59,1.01,1.02s.37,.91,.37,1.45-.14,1.02-.41,1.46c-.27,.44-.63,.79-1.08,1.05s-.94,.39-1.48,.39Z"/><g><path class="b" d="M371.66,142.67v-.96l3.84-3.45c.32-.29,.53-.56,.64-.82,.11-.26,.17-.52,.17-.79,0-.33-.08-.63-.23-.9-.15-.27-.36-.48-.62-.64-.26-.16-.56-.23-.89-.23s-.65,.08-.92,.24c-.27,.16-.48,.38-.63,.64-.15,.27-.23,.56-.22,.88h-1.09c0-.54,.13-1.02,.38-1.44,.25-.42,.6-.75,1.03-.98,.43-.24,.93-.36,1.48-.36s1.02,.12,1.44,.37,.76,.58,1,1,.37,.9,.37,1.43c0,.38-.05,.7-.14,.98s-.24,.53-.44,.76c-.2,.23-.44,.48-.74,.75l-3.19,2.86-.14-.36h4.64v1.02h-5.74Z"/><path class="b" d="M382.57,142.68v-1.59h-3.97v-1.01l2.85-6.04h1.21l-2.85,6.04h2.76v-2.43h1.08v2.43h.9v1.01h-.9v1.59h-1.08Z"/><path class="b" d="M388.91,142.86c-.56,0-1.06-.13-1.5-.38-.44-.25-.78-.6-1.04-1.04-.25-.44-.38-.94-.38-1.5v-3.17c0-.56,.13-1.06,.38-1.5,.25-.44,.6-.79,1.04-1.04,.44-.25,.94-.38,1.5-.38s1.06,.13,1.5,.38c.44,.25,.79,.6,1.04,1.04,.25,.44,.38,.94,.38,1.5v3.17c0,.56-.13,1.06-.38,1.5-.25,.44-.6,.78-1.04,1.04-.44,.25-.94,.38-1.5,.38Zm0-1.03c.34,0,.65-.08,.92-.25,.28-.16,.5-.38,.66-.66s.25-.58,.25-.92v-3.29c0-.34-.08-.65-.25-.92-.16-.28-.38-.5-.66-.66-.28-.16-.58-.25-.92-.25s-.64,.08-.92,.25-.5,.38-.66,.66c-.16,.28-.25,.58-.25,.92v3.29c0,.34,.08,.64,.25,.92s.38,.5,.66,.66,.58,.25,.92,.25Z"/><path class="b" d="M396.42,142.86c-.56,0-1.06-.13-1.5-.38-.44-.25-.78-.6-1.04-1.04-.25-.44-.38-.94-.38-1.5v-3.17c0-.56,.13-1.06,.38-1.5,.25-.44,.6-.79,1.04-1.04,.44-.25,.94-.38,1.5-.38s1.06,.13,1.5,.38c.44,.25,.79,.6,1.04,1.04,.25,.44,.38,.94,.38,1.5v3.17c0,.56-.13,1.06-.38,1.5-.25,.44-.6,.78-1.04,1.04-.44,.25-.94,.38-1.5,.38Zm0-1.03c.34,0,.65-.08,.92-.25,.28-.16,.5-.38,.66-.66s.25-.58,.25-.92v-3.29c0-.34-.08-.65-.25-.92-.16-.28-.38-.5-.66-.66-.28-.16-.58-.25-.92-.25s-.64,.08-.92,.25-.5,.38-.66,.66c-.16,.28-.25,.58-.25,.92v3.29c0,.34,.08,.64,.25,.92s.38,.5,.66,.66,.58,.25,.92,.25Z"/></g><g><path class="d" d="M14.83,230.09v-8.64h.97l3.26,6.88,3.25-6.88h.98v8.63h-1.01v-6.29l-2.93,6.29h-.57l-2.93-6.29v6.29h-1.01Z"/><path class="d" d="M26.82,230.27c-.48,0-.89-.09-1.21-.27s-.57-.41-.74-.71-.25-.61-.25-.96,.06-.63,.19-.88,.31-.46,.55-.62c.24-.17,.52-.3,.85-.39,.31-.08,.65-.16,1.04-.22,.38-.06,.77-.12,1.16-.17,.39-.05,.76-.1,1.1-.15l-.38,.22c.01-.58-.1-1-.35-1.28s-.66-.41-1.25-.41c-.39,0-.73,.09-1.03,.27-.29,.18-.5,.47-.62,.87l-1.01-.31c.16-.57,.46-1.01,.91-1.34s1.04-.49,1.77-.49c.59,0,1.09,.11,1.51,.32s.72,.53,.91,.95c.09,.2,.15,.42,.17,.65,.02,.23,.04,.48,.04,.74v4.01h-.95v-1.55l.22,.14c-.24,.52-.58,.92-1.02,1.19-.44,.27-.97,.4-1.6,.4Zm.16-.89c.38,0,.72-.07,1-.21s.51-.32,.68-.55c.17-.23,.28-.47,.34-.74,.06-.2,.09-.42,.1-.67s0-.43,0-.57l.37,.16c-.35,.05-.69,.09-1.03,.14-.34,.04-.65,.09-.95,.14-.3,.05-.57,.11-.81,.18-.18,.06-.34,.13-.5,.22-.15,.09-.28,.2-.37,.34-.09,.14-.14,.31-.14,.51,0,.18,.04,.34,.13,.5s.23,.29,.42,.39c.19,.1,.44,.15,.75,.15Z"/><path class="d" d="M31.01,230.09l2.48-3.28-2.42-3.2h1.27l1.78,2.38,1.76-2.38h1.27l-2.42,3.2,2.48,3.28h-1.28l-1.81-2.45-1.82,2.45h-1.28Z"/><path class="d" d="M38.28,222.46v-1.1h1.07v1.1h-1.07Zm0,7.63v-6.48h1.07v6.48h-1.07Z"/><path class="d" d="M41.14,230.09v-6.48h.95v1.73h.12v4.75h-1.07Zm3.88,0v-4.1c0-.5-.12-.89-.38-1.17-.26-.28-.6-.42-1.02-.42s-.76,.14-1.02,.43-.39,.67-.39,1.15l-.56-.34c0-.42,.1-.8,.3-1.13,.2-.33,.47-.59,.82-.78,.34-.19,.73-.29,1.17-.29s.82,.09,1.14,.28c.32,.18,.57,.45,.75,.79,.18,.34,.26,.75,.26,1.22v4.36h-1.07Zm3.87,0v-4.15c0-.48-.12-.86-.38-1.14-.26-.27-.59-.41-1-.41-.24,0-.47,.06-.68,.17-.22,.11-.39,.28-.53,.52-.14,.23-.2,.53-.2,.9l-.56-.23c0-.46,.09-.86,.29-1.21,.2-.35,.47-.62,.81-.81,.34-.19,.73-.29,1.16-.29,.68,0,1.21,.21,1.6,.62s.58,.96,.58,1.65v4.38h-1.07Z"/><path class="d" d="M53.37,230.27c-.48,0-.89-.09-1.21-.27s-.57-.41-.74-.71-.25-.61-.25-.96,.06-.63,.19-.88,.31-.46,.55-.62c.24-.17,.52-.3,.85-.39,.31-.08,.65-.16,1.04-.22,.38-.06,.77-.12,1.16-.17,.39-.05,.76-.1,1.1-.15l-.38,.22c.01-.58-.1-1-.35-1.28s-.66-.41-1.25-.41c-.39,0-.73,.09-1.03,.27-.29,.18-.5,.47-.62,.87l-1.01-.31c.16-.57,.46-1.01,.91-1.34s1.04-.49,1.77-.49c.59,0,1.09,.11,1.51,.32s.72,.53,.91,.95c.09,.2,.15,.42,.17,.65,.02,.23,.04,.48,.04,.74v4.01h-.95v-1.55l.22,.14c-.24,.52-.58,.92-1.02,1.19-.44,.27-.97,.4-1.6,.4Zm.16-.89c.38,0,.72-.07,1-.21s.51-.32,.68-.55c.17-.23,.28-.47,.34-.74,.06-.2,.09-.42,.1-.67s0-.43,0-.57l.37,.16c-.35,.05-.69,.09-1.03,.14-.34,.04-.65,.09-.95,.14-.3,.05-.57,.11-.81,.18-.18,.06-.34,.13-.5,.22-.15,.09-.28,.2-.37,.34-.09,.14-.14,.31-.14,.51,0,.18,.04,.34,.13,.5s.23,.29,.42,.39c.19,.1,.44,.15,.75,.15Z"/><path class="d" d="M58.4,230.09v-8.82h1.07v8.82h-1.07Z"/><path class="d" d="M61.39,222.46v-1.1h1.07v1.1h-1.07Zm0,7.63v-6.48h1.07v6.48h-1.07Z"/><path class="d" d="M66.7,230.26c-.77,0-1.41-.17-1.9-.51s-.8-.81-.91-1.42l1.09-.17c.09,.35,.29,.63,.61,.84,.32,.21,.71,.31,1.18,.31s.79-.09,1.04-.28c.25-.18,.38-.43,.38-.75,0-.18-.04-.33-.13-.45s-.26-.22-.52-.32c-.26-.1-.66-.22-1.18-.36-.57-.15-1.02-.31-1.35-.47s-.56-.35-.7-.57c-.14-.22-.21-.48-.21-.79,0-.38,.1-.71,.31-1s.5-.51,.87-.66,.81-.23,1.3-.23,.93,.08,1.32,.23,.7,.38,.94,.66c.24,.29,.38,.62,.42,1l-1.09,.2c-.05-.35-.22-.62-.5-.82-.28-.2-.64-.31-1.09-.32-.42-.02-.76,.06-1.02,.22-.26,.16-.39,.39-.39,.67,0,.16,.05,.29,.15,.4,.1,.11,.28,.22,.55,.32,.27,.1,.65,.21,1.16,.34,.57,.14,1.02,.3,1.35,.47s.57,.37,.71,.6c.14,.23,.21,.51,.21,.85,0,.62-.23,1.12-.69,1.47-.46,.36-1.09,.54-1.9,.54Z"/><path class="d" d="M69.9,224.49v-.88h4.34v.88h-4.34Zm4.34,5.6c-.38,.08-.76,.11-1.14,.09-.37-.01-.71-.09-1-.23-.29-.14-.51-.35-.67-.65-.13-.26-.2-.51-.21-.78,0-.26-.02-.56-.02-.89v-5.83h1.07v5.78c0,.26,0,.49,0,.68,0,.19,.05,.35,.12,.49,.14,.26,.37,.41,.69,.45,.31,.04,.69,.03,1.14-.04v.92Z"/></g><path class="b" d="M258.62,168.02c-.55,0-1.04-.13-1.49-.4-.45-.26-.8-.62-1.06-1.08-.26-.46-.39-.98-.39-1.55v-2.87c0-.6,.13-1.14,.39-1.61,.26-.47,.62-.83,1.08-1.09,.46-.26,.98-.39,1.57-.39,.48,0,.92,.1,1.33,.29,.41,.19,.75,.47,1.04,.84l-.8,.71c-.17-.25-.4-.45-.67-.6-.28-.15-.57-.22-.89-.22-.38,0-.72,.09-1.01,.27-.29,.18-.53,.42-.69,.72s-.25,.62-.25,.96v1.73l-.23-.26c.25-.36,.57-.65,.96-.86,.39-.22,.81-.32,1.26-.32,.54,0,1.02,.13,1.44,.38,.43,.25,.76,.59,1.01,1.02s.37,.91,.37,1.45-.13,1.02-.4,1.46c-.27,.44-.62,.78-1.07,1.04s-.94,.39-1.47,.39Zm0-1.03c.34,0,.66-.08,.94-.25,.28-.17,.51-.39,.68-.67,.17-.28,.25-.59,.25-.94s-.08-.66-.25-.94c-.17-.28-.39-.51-.67-.67-.28-.17-.6-.25-.94-.25s-.66,.08-.94,.25c-.28,.17-.51,.39-.67,.67-.17,.28-.25,.6-.25,.94s.08,.65,.25,.93c.17,.28,.39,.51,.67,.68,.28,.17,.6,.25,.94,.25Z"/><g><path class="b" d="M374.27,168.01c-.43,0-.83-.08-1.19-.24-.37-.16-.68-.38-.95-.67-.27-.29-.46-.63-.58-1.04l1.03-.29c.13,.4,.35,.7,.66,.91s.65,.31,1.04,.31c.35,0,.66-.09,.92-.24,.26-.15,.46-.37,.6-.63,.14-.27,.21-.58,.21-.93,0-.54-.16-.97-.48-1.3-.32-.33-.74-.5-1.26-.5-.14,0-.3,.02-.45,.06-.16,.04-.31,.1-.44,.17l-.52-.85,3.2-2.9,.14,.36h-4.3v-1.02h5.09v1.03l-2.73,2.62v-.38c.56-.04,1.06,.05,1.49,.28,.43,.23,.76,.55,1,.98s.36,.91,.36,1.46-.12,1.04-.37,1.46c-.25,.42-.58,.76-1.01,1-.42,.24-.9,.36-1.44,.36Z"/><path class="b" d="M381.21,168.02c-.44,0-.86-.09-1.24-.28-.38-.18-.71-.44-.98-.76-.27-.32-.46-.69-.58-1.11l1.03-.28c.07,.28,.2,.53,.38,.74,.18,.21,.4,.37,.65,.48,.25,.11,.5,.17,.77,.17,.35,0,.67-.08,.95-.25s.5-.4,.67-.68,.25-.59,.25-.93-.08-.66-.25-.95-.4-.5-.68-.67c-.28-.16-.59-.25-.93-.25-.38,0-.71,.08-.97,.24-.27,.16-.48,.35-.64,.58l-.95-.36,.26-4.52h4.64v1.01h-4.12l.47-.44-.22,3.62-.23-.31c.24-.26,.53-.45,.86-.59,.33-.14,.67-.21,1.02-.21,.54,0,1.02,.12,1.44,.38,.42,.25,.76,.59,1.01,1.02s.37,.91,.37,1.45-.14,1.02-.41,1.46c-.27,.44-.63,.79-1.08,1.05s-.94,.39-1.48,.39Z"/><path class="b" d="M388.53,168.02c-.56,0-1.06-.13-1.5-.38-.44-.25-.78-.6-1.04-1.04-.25-.44-.38-.94-.38-1.5v-3.17c0-.56,.13-1.06,.38-1.5,.25-.44,.6-.79,1.04-1.04,.44-.25,.94-.38,1.5-.38s1.06,.13,1.5,.38c.44,.25,.79,.6,1.04,1.04,.25,.44,.38,.94,.38,1.5v3.17c0,.56-.13,1.06-.38,1.5-.25,.44-.6,.78-1.04,1.04-.44,.25-.94,.38-1.5,.38Zm0-1.03c.34,0,.65-.08,.92-.25,.28-.16,.5-.38,.66-.66s.25-.58,.25-.92v-3.29c0-.34-.08-.65-.25-.92-.16-.28-.38-.5-.66-.66-.28-.16-.58-.25-.92-.25s-.64,.08-.92,.25-.5,.38-.66,.66c-.16,.28-.25,.58-.25,.92v3.29c0,.34,.08,.64,.25,.92s.38,.5,.66,.66,.58,.25,.92,.25Z"/><path class="b" d="M396.04,168.02c-.56,0-1.06-.13-1.5-.38-.44-.25-.78-.6-1.04-1.04-.25-.44-.38-.94-.38-1.5v-3.17c0-.56,.13-1.06,.38-1.5,.25-.44,.6-.79,1.04-1.04,.44-.25,.94-.38,1.5-.38s1.06,.13,1.5,.38c.44,.25,.79,.6,1.04,1.04,.25,.44,.38,.94,.38,1.5v3.17c0,.56-.13,1.06-.38,1.5-.25,.44-.6,.78-1.04,1.04-.44,.25-.94,.38-1.5,.38Zm0-1.03c.34,0,.65-.08,.92-.25,.28-.16,.5-.38,.66-.66s.25-.58,.25-.92v-3.29c0-.34-.08-.65-.25-.92-.16-.28-.38-.5-.66-.66-.28-.16-.58-.25-.92-.25s-.64,.08-.92,.25-.5,.38-.66,.66c-.16,.28-.25,.58-.25,.92v3.29c0,.34,.08,.64,.25,.92s.38,.5,.66,.66,.58,.25,.92,.25Z"/></g><path class="b" d="M256.13,193l3.11-7.61h-3.92v-1.03h5.07v1.03l-3.1,7.61h-1.15Z"/><g><path class="b" d="M375.63,193v-1.59h-3.97v-1.01l2.85-6.04h1.21l-2.85,6.04h2.76v-2.43h1.08v2.43h.9v1.01h-.9v1.59h-1.08Z"/><path class="b" d="M381.75,193.18c-.55,0-1.04-.11-1.46-.33-.42-.22-.76-.53-1-.93-.24-.4-.36-.86-.36-1.39s.12-.98,.37-1.4,.62-.74,1.11-.96l-.02,.39c-.4-.2-.71-.47-.93-.83-.22-.36-.32-.75-.32-1.19,0-.49,.11-.91,.34-1.26,.22-.35,.53-.62,.92-.82,.39-.19,.84-.29,1.35-.29s.96,.1,1.35,.29c.39,.19,.7,.46,.92,.82,.22,.35,.34,.77,.34,1.26,0,.44-.1,.83-.31,1.18-.2,.35-.52,.63-.94,.84l-.02-.38c.5,.22,.87,.53,1.12,.95s.38,.88,.38,1.4-.12,.99-.36,1.39c-.24,.4-.58,.71-1,.93-.43,.22-.92,.33-1.47,.33Zm0-1.02c.5,0,.91-.14,1.23-.42,.31-.28,.47-.68,.47-1.21s-.16-.94-.46-1.21c-.31-.28-.72-.42-1.23-.42s-.92,.14-1.23,.42c-.31,.28-.47,.68-.47,1.21s.16,.93,.47,1.21c.31,.28,.72,.42,1.22,.42Zm0-4.28c.44,0,.8-.11,1.07-.33,.27-.22,.41-.55,.41-1s-.14-.78-.41-1c-.27-.22-.63-.33-1.07-.33s-.79,.11-1.07,.33c-.27,.22-.41,.55-.41,1s.14,.78,.41,1c.27,.22,.63,.33,1.07,.33Z"/><path class="b" d="M389.06,193.18c-.56,0-1.06-.13-1.5-.38-.44-.25-.78-.6-1.04-1.04-.25-.44-.38-.94-.38-1.5v-3.17c0-.56,.13-1.06,.38-1.5,.25-.44,.6-.79,1.04-1.04,.44-.25,.94-.38,1.5-.38s1.06,.13,1.5,.38c.44,.25,.79,.6,1.04,1.04,.25,.44,.38,.94,.38,1.5v3.17c0,.56-.13,1.06-.38,1.5-.25,.44-.6,.78-1.04,1.04-.44,.25-.94,.38-1.5,.38Zm0-1.03c.34,0,.65-.08,.92-.25,.28-.16,.5-.38,.66-.66s.25-.58,.25-.92v-3.29c0-.34-.08-.65-.25-.92-.16-.28-.38-.5-.66-.66-.28-.16-.58-.25-.92-.25s-.64,.08-.92,.25-.5,.38-.66,.66c-.16,.28-.25,.58-.25,.92v3.29c0,.34,.08,.64,.25,.92s.38,.5,.66,.66,.58,.25,.92,.25Z"/><path class="b" d="M396.57,193.18c-.56,0-1.06-.13-1.5-.38-.44-.25-.78-.6-1.04-1.04-.25-.44-.38-.94-.38-1.5v-3.17c0-.56,.13-1.06,.38-1.5,.25-.44,.6-.79,1.04-1.04,.44-.25,.94-.38,1.5-.38s1.06,.13,1.5,.38c.44,.25,.79,.6,1.04,1.04,.25,.44,.38,.94,.38,1.5v3.17c0,.56-.13,1.06-.38,1.5-.25,.44-.6,.78-1.04,1.04-.44,.25-.94,.38-1.5,.38Zm0-1.03c.34,0,.65-.08,.92-.25,.28-.16,.5-.38,.66-.66s.25-.58,.25-.92v-3.29c0-.34-.08-.65-.25-.92-.16-.28-.38-.5-.66-.66-.28-.16-.58-.25-.92-.25s-.64,.08-.92,.25-.5,.38-.66,.66c-.16,.28-.25,.58-.25,.92v3.29c0,.34,.08,.64,.25,.92s.38,.5,.66,.66,.58,.25,.92,.25Z"/></g><path class="b" d="M258.37,218.35c-.55,0-1.04-.11-1.46-.33-.42-.22-.76-.53-1-.93-.24-.4-.36-.86-.36-1.39s.12-.98,.37-1.4,.62-.74,1.11-.96l-.02,.39c-.4-.2-.71-.47-.93-.83-.22-.36-.32-.75-.32-1.19,0-.49,.11-.91,.34-1.26,.22-.35,.53-.62,.92-.82,.39-.19,.84-.29,1.35-.29s.96,.1,1.35,.29c.39,.19,.7,.46,.92,.82,.22,.35,.34,.77,.34,1.26,0,.44-.1,.83-.31,1.18-.2,.35-.52,.63-.94,.84l-.02-.38c.5,.22,.87,.53,1.12,.95s.38,.88,.38,1.4-.12,.99-.36,1.39c-.24,.4-.58,.71-1,.93-.43,.22-.92,.33-1.47,.33Zm0-1.02c.5,0,.91-.14,1.23-.42,.31-.28,.47-.68,.47-1.21s-.16-.94-.46-1.21c-.31-.28-.72-.42-1.23-.42s-.92,.14-1.23,.42c-.31,.28-.47,.68-.47,1.21s.16,.93,.47,1.21c.31,.28,.72,.42,1.22,.42Zm0-4.28c.44,0,.8-.11,1.07-.33,.27-.22,.41-.55,.41-1s-.14-.78-.41-1c-.27-.22-.63-.33-1.07-.33s-.79,.11-1.07,.33c-.27,.22-.41,.55-.41,1s.14,.78,.41,1c.27,.22,.63,.33,1.07,.33Z"/><g><path class="b" d="M374.84,218.35c-.55,0-1.04-.13-1.49-.4-.45-.26-.8-.62-1.06-1.08-.26-.46-.39-.98-.39-1.55v-2.87c0-.6,.13-1.14,.39-1.61,.26-.47,.62-.83,1.08-1.09,.46-.26,.98-.39,1.57-.39,.48,0,.92,.1,1.33,.29,.41,.19,.75,.47,1.04,.84l-.8,.71c-.17-.25-.4-.45-.67-.6-.28-.15-.57-.22-.89-.22-.38,0-.72,.09-1.01,.27-.29,.18-.53,.42-.69,.72s-.25,.62-.25,.96v1.73l-.23-.26c.25-.36,.57-.65,.96-.86,.39-.22,.81-.32,1.26-.32,.54,0,1.02,.13,1.44,.38,.43,.25,.76,.59,1.01,1.02s.37,.91,.37,1.45-.13,1.02-.4,1.46c-.27,.44-.62,.78-1.07,1.04s-.94,.39-1.47,.39Zm0-1.03c.34,0,.66-.08,.94-.25,.28-.17,.51-.39,.68-.67,.17-.28,.25-.59,.25-.94s-.08-.66-.25-.94c-.17-.28-.39-.51-.67-.67-.28-.17-.6-.25-.94-.25s-.66,.08-.94,.25c-.28,.17-.51,.39-.67,.67-.17,.28-.25,.6-.25,.94s.08,.65,.25,.93c.17,.28,.39,.51,.67,.68,.28,.17,.6,.25,.94,.25Z"/><path class="b" d="M381.72,218.33c-.43,0-.83-.08-1.19-.24-.37-.16-.68-.38-.95-.67-.27-.29-.46-.63-.58-1.04l1.03-.29c.13,.4,.35,.7,.66,.91s.65,.31,1.04,.31c.35,0,.66-.09,.92-.24,.26-.15,.46-.37,.6-.63,.14-.27,.21-.58,.21-.93,0-.54-.16-.97-.48-1.3-.32-.33-.74-.5-1.26-.5-.14,0-.3,.02-.45,.06-.16,.04-.31,.1-.44,.17l-.52-.85,3.2-2.9,.14,.36h-4.3v-1.02h5.09v1.03l-2.73,2.62v-.38c.56-.04,1.06,.05,1.49,.28,.43,.23,.76,.55,1,.98s.36,.91,.36,1.46-.12,1.04-.37,1.46c-.25,.42-.58,.76-1.01,1-.42,.24-.9,.36-1.44,.36Z"/><path class="b" d="M389.02,218.35c-.56,0-1.06-.13-1.5-.38-.44-.25-.78-.6-1.04-1.04-.25-.44-.38-.94-.38-1.5v-3.17c0-.56,.13-1.06,.38-1.5,.25-.44,.6-.79,1.04-1.04,.44-.25,.94-.38,1.5-.38s1.06,.13,1.5,.38c.44,.25,.79,.6,1.04,1.04,.25,.44,.38,.94,.38,1.5v3.17c0,.56-.13,1.06-.38,1.5-.25,.44-.6,.78-1.04,1.04-.44,.25-.94,.38-1.5,.38Zm0-1.03c.34,0,.65-.08,.92-.25,.28-.16,.5-.38,.66-.66s.25-.58,.25-.92v-3.29c0-.34-.08-.65-.25-.92-.16-.28-.38-.5-.66-.66-.28-.16-.58-.25-.92-.25s-.64,.08-.92,.25-.5,.38-.66,.66c-.16,.28-.25,.58-.25,.92v3.29c0,.34,.08,.64,.25,.92s.38,.5,.66,.66,.58,.25,.92,.25Z"/><path class="b" d="M396.53,218.35c-.56,0-1.06-.13-1.5-.38-.44-.25-.78-.6-1.04-1.04-.25-.44-.38-.94-.38-1.5v-3.17c0-.56,.13-1.06,.38-1.5,.25-.44,.6-.79,1.04-1.04,.44-.25,.94-.38,1.5-.38s1.06,.13,1.5,.38c.44,.25,.79,.6,1.04,1.04,.25,.44,.38,.94,.38,1.5v3.17c0,.56-.13,1.06-.38,1.5-.25,.44-.6,.78-1.04,1.04-.44,.25-.94,.38-1.5,.38Zm0-1.03c.34,0,.65-.08,.92-.25,.28-.16,.5-.38,.66-.66s.25-.58,.25-.92v-3.29c0-.34-.08-.65-.25-.92-.16-.28-.38-.5-.66-.66-.28-.16-.58-.25-.92-.25s-.64,.08-.92,.25-.5,.38-.66,.66c-.16,.28-.25,.58-.25,.92v3.29c0,.34,.08,.64,.25,.92s.38,.5,.66,.66,.58,.25,.92,.25Z"/></g><path class="b" d="M258.5,234.51c.55,0,1.04,.13,1.49,.4,.45,.26,.8,.62,1.06,1.08s.39,.97,.39,1.55v2.87c0,.6-.13,1.14-.39,1.61s-.62,.83-1.08,1.09-.98,.39-1.57,.39c-.48,0-.92-.1-1.33-.29-.41-.19-.75-.47-1.04-.84l.8-.71c.17,.25,.4,.45,.67,.6,.28,.15,.57,.22,.89,.22,.38,0,.72-.09,1.01-.27,.29-.18,.53-.42,.69-.72s.25-.62,.25-.96v-1.73l.23,.26c-.25,.36-.57,.65-.96,.86-.39,.22-.81,.32-1.26,.32-.54,0-1.02-.13-1.44-.38-.43-.25-.76-.59-1.01-1.02-.25-.43-.37-.91-.37-1.45s.13-1.02,.4-1.46c.27-.44,.62-.78,1.07-1.04,.45-.26,.94-.39,1.47-.39Zm0,1.03c-.34,0-.66,.08-.94,.25s-.51,.39-.67,.67c-.17,.28-.25,.6-.25,.94s.08,.66,.25,.94c.17,.28,.39,.51,.67,.68,.28,.17,.6,.25,.94,.25s.66-.08,.94-.25c.28-.17,.51-.39,.68-.68,.17-.28,.25-.6,.25-.94s-.08-.65-.25-.93c-.17-.28-.39-.51-.67-.67-.28-.17-.6-.25-.94-.25Z"/><g><path class="b" d="M374.6,243.51c-.55,0-1.04-.11-1.46-.33-.42-.22-.76-.53-1-.93-.24-.4-.36-.86-.36-1.39s.12-.98,.37-1.4,.62-.74,1.11-.96l-.02,.39c-.4-.2-.71-.47-.93-.83-.22-.36-.32-.75-.32-1.19,0-.49,.11-.91,.34-1.26,.22-.35,.53-.62,.92-.82,.39-.19,.84-.29,1.35-.29s.96,.1,1.35,.29c.39,.19,.7,.46,.92,.82,.22,.35,.34,.77,.34,1.26,0,.44-.1,.83-.31,1.18-.2,.35-.52,.63-.94,.84l-.02-.38c.5,.22,.87,.53,1.12,.95s.38,.88,.38,1.4-.12,.99-.36,1.39c-.24,.4-.58,.71-1,.93-.43,.22-.92,.33-1.47,.33Zm0-1.02c.5,0,.91-.14,1.23-.42,.31-.28,.47-.68,.47-1.21s-.16-.94-.46-1.21c-.31-.28-.72-.42-1.23-.42s-.92,.14-1.23,.42c-.31,.28-.47,.68-.47,1.21s.16,.93,.47,1.21c.31,.28,.72,.42,1.22,.42Zm0-4.28c.44,0,.8-.11,1.07-.33,.27-.22,.41-.55,.41-1s-.14-.78-.41-1c-.27-.22-.63-.33-1.07-.33s-.79,.11-1.07,.33c-.27,.22-.41,.55-.41,1s.14,.78,.41,1c.27,.22,.63,.33,1.07,.33Z"/><path class="b" d="M381.91,243.51c-.56,0-1.06-.13-1.5-.38-.44-.25-.78-.6-1.04-1.04-.25-.44-.38-.94-.38-1.5v-3.17c0-.56,.13-1.06,.38-1.5,.25-.44,.6-.79,1.04-1.04,.44-.25,.94-.38,1.5-.38s1.06,.13,1.5,.38c.44,.25,.79,.6,1.04,1.04,.25,.44,.38,.94,.38,1.5v3.17c0,.56-.13,1.06-.38,1.5-.25,.44-.6,.78-1.04,1.04-.44,.25-.94,.38-1.5,.38Zm0-1.03c.34,0,.65-.08,.92-.25,.28-.16,.5-.38,.66-.66s.25-.58,.25-.92v-3.29c0-.34-.08-.65-.25-.92-.16-.28-.38-.5-.66-.66-.28-.16-.58-.25-.92-.25s-.64,.08-.92,.25-.5,.38-.66,.66c-.16,.28-.25,.58-.25,.92v3.29c0,.34,.08,.64,.25,.92s.38,.5,.66,.66,.58,.25,.92,.25Z"/><path class="b" d="M389.42,243.51c-.56,0-1.06-.13-1.5-.38-.44-.25-.78-.6-1.04-1.04-.25-.44-.38-.94-.38-1.5v-3.17c0-.56,.13-1.06,.38-1.5,.25-.44,.6-.79,1.04-1.04,.44-.25,.94-.38,1.5-.38s1.06,.13,1.5,.38c.44,.25,.79,.6,1.04,1.04,.25,.44,.38,.94,.38,1.5v3.17c0,.56-.13,1.06-.38,1.5-.25,.44-.6,.78-1.04,1.04-.44,.25-.94,.38-1.5,.38Zm0-1.03c.34,0,.65-.08,.92-.25,.28-.16,.5-.38,.66-.66s.25-.58,.25-.92v-3.29c0-.34-.08-.65-.25-.92-.16-.28-.38-.5-.66-.66-.28-.16-.58-.25-.92-.25s-.64,.08-.92,.25-.5,.38-.66,.66c-.16,.28-.25,.58-.25,.92v3.29c0,.34,.08,.64,.25,.92s.38,.5,.66,.66,.58,.25,.92,.25Z"/><path class="b" d="M396.93,243.51c-.56,0-1.06-.13-1.5-.38-.44-.25-.78-.6-1.04-1.04-.25-.44-.38-.94-.38-1.5v-3.17c0-.56,.13-1.06,.38-1.5,.25-.44,.6-.79,1.04-1.04,.44-.25,.94-.38,1.5-.38s1.06,.13,1.5,.38c.44,.25,.79,.6,1.04,1.04,.25,.44,.38,.94,.38,1.5v3.17c0,.56-.13,1.06-.38,1.5-.25,.44-.6,.78-1.04,1.04-.44,.25-.94,.38-1.5,.38Zm0-1.03c.34,0,.65-.08,.92-.25,.28-.16,.5-.38,.66-.66s.25-.58,.25-.92v-3.29c0-.34-.08-.65-.25-.92-.16-.28-.38-.5-.66-.66-.28-.16-.58-.25-.92-.25s-.64,.08-.92,.25-.5,.38-.66,.66c-.16,.28-.25,.58-.25,.92v3.29c0,.34,.08,.64,.25,.92s.38,.5,.66,.66,.58,.25,.92,.25Z"/></g><g><path class="b" d="M257.18,268.49v-7.46l-1.63,.98v-1.19l1.63-.97h1.09v8.64h-1.09Z"/><path class="b" d="M263.46,268.67c-.56,0-1.06-.13-1.5-.38-.44-.25-.78-.6-1.04-1.04-.25-.44-.38-.94-.38-1.5v-3.17c0-.56,.13-1.06,.38-1.5,.25-.44,.6-.79,1.04-1.04,.44-.25,.94-.38,1.5-.38s1.06,.13,1.5,.38c.44,.25,.79,.6,1.04,1.04,.25,.44,.38,.94,.38,1.5v3.17c0,.56-.13,1.06-.38,1.5-.25,.44-.6,.78-1.04,1.04-.44,.25-.94,.38-1.5,.38Zm0-1.03c.34,0,.65-.08,.92-.25,.28-.16,.5-.38,.66-.66s.25-.58,.25-.92v-3.29c0-.34-.08-.65-.25-.92-.16-.28-.38-.5-.66-.66-.28-.16-.58-.25-.92-.25s-.64,.08-.92,.25-.5,.38-.66,.66c-.16,.28-.25,.58-.25,.92v3.29c0,.34,.08,.64,.25,.92s.38,.5,.66,.66,.58,.25,.92,.25Z"/></g><g><path class="b" d="M374.72,259.68c.55,0,1.04,.13,1.49,.4,.45,.26,.8,.62,1.06,1.08s.39,.97,.39,1.55v2.87c0,.6-.13,1.14-.39,1.61s-.62,.83-1.08,1.09-.98,.39-1.57,.39c-.48,0-.92-.1-1.33-.29-.41-.19-.75-.47-1.04-.84l.8-.71c.17,.25,.4,.45,.67,.6,.28,.15,.57,.22,.89,.22,.38,0,.72-.09,1.01-.27,.29-.18,.53-.42,.69-.72s.25-.62,.25-.96v-1.73l.23,.26c-.25,.36-.57,.65-.96,.86-.39,.22-.81,.32-1.26,.32-.54,0-1.02-.13-1.44-.38-.43-.25-.76-.59-1.01-1.02-.25-.43-.37-.91-.37-1.45s.13-1.02,.4-1.46c.27-.44,.62-.78,1.07-1.04,.45-.26,.94-.39,1.47-.39Zm0,1.03c-.34,0-.66,.08-.94,.25s-.51,.39-.67,.67c-.17,.28-.25,.6-.25,.94s.08,.66,.25,.94c.17,.28,.39,.51,.67,.68,.28,.17,.6,.25,.94,.25s.66-.08,.94-.25c.28-.17,.51-.39,.68-.68,.17-.28,.25-.6,.25-.94s-.08-.65-.25-.93c-.17-.28-.39-.51-.67-.67-.28-.17-.6-.25-.94-.25Z"/><path class="b" d="M382.18,259.68c.55,0,1.04,.13,1.49,.4,.45,.26,.8,.62,1.06,1.08s.39,.97,.39,1.55v2.87c0,.6-.13,1.14-.39,1.61s-.62,.83-1.08,1.09-.98,.39-1.57,.39c-.48,0-.92-.1-1.33-.29-.41-.19-.75-.47-1.04-.84l.8-.71c.17,.25,.4,.45,.67,.6,.28,.15,.57,.22,.89,.22,.38,0,.72-.09,1.01-.27,.29-.18,.53-.42,.69-.72s.25-.62,.25-.96v-1.73l.23,.26c-.25,.36-.57,.65-.96,.86-.39,.22-.81,.32-1.26,.32-.54,0-1.02-.13-1.44-.38-.43-.25-.76-.59-1.01-1.02-.25-.43-.37-.91-.37-1.45s.13-1.02,.4-1.46c.27-.44,.62-.78,1.07-1.04,.45-.26,.94-.39,1.47-.39Zm0,1.03c-.34,0-.66,.08-.94,.25s-.51,.39-.67,.67c-.17,.28-.25,.6-.25,.94s.08,.66,.25,.94c.17,.28,.39,.51,.67,.68,.28,.17,.6,.25,.94,.25s.66-.08,.94-.25c.28-.17,.51-.39,.68-.68,.17-.28,.25-.6,.25-.94s-.08-.65-.25-.93c-.17-.28-.39-.51-.67-.67-.28-.17-.6-.25-.94-.25Z"/><path class="b" d="M389.72,268.67c-.56,0-1.06-.13-1.5-.38-.44-.25-.78-.6-1.04-1.04-.25-.44-.38-.94-.38-1.5v-3.17c0-.56,.13-1.06,.38-1.5,.25-.44,.6-.79,1.04-1.04,.44-.25,.94-.38,1.5-.38s1.06,.13,1.5,.38c.44,.25,.79,.6,1.04,1.04,.25,.44,.38,.94,.38,1.5v3.17c0,.56-.13,1.06-.38,1.5-.25,.44-.6,.78-1.04,1.04-.44,.25-.94,.38-1.5,.38Zm0-1.03c.34,0,.65-.08,.92-.25,.28-.16,.5-.38,.66-.66s.25-.58,.25-.92v-3.29c0-.34-.08-.65-.25-.92-.16-.28-.38-.5-.66-.66-.28-.16-.58-.25-.92-.25s-.64,.08-.92,.25-.5,.38-.66,.66c-.16,.28-.25,.58-.25,.92v3.29c0,.34,.08,.64,.25,.92s.38,.5,.66,.66,.58,.25,.92,.25Z"/><path class="b" d="M397.23,268.67c-.56,0-1.06-.13-1.5-.38-.44-.25-.78-.6-1.04-1.04-.25-.44-.38-.94-.38-1.5v-3.17c0-.56,.13-1.06,.38-1.5,.25-.44,.6-.79,1.04-1.04,.44-.25,.94-.38,1.5-.38s1.06,.13,1.5,.38c.44,.25,.79,.6,1.04,1.04,.25,.44,.38,.94,.38,1.5v3.17c0,.56-.13,1.06-.38,1.5-.25,.44-.6,.78-1.04,1.04-.44,.25-.94,.38-1.5,.38Zm0-1.03c.34,0,.65-.08,.92-.25,.28-.16,.5-.38,.66-.66s.25-.58,.25-.92v-3.29c0-.34-.08-.65-.25-.92-.16-.28-.38-.5-.66-.66-.28-.16-.58-.25-.92-.25s-.64,.08-.92,.25-.5,.38-.66,.66c-.16,.28-.25,.58-.25,.92v3.29c0,.34,.08,.64,.25,.92s.38,.5,.66,.66,.58,.25,.92,.25Z"/></g><g><path class="b" d="M257.18,293.65v-7.46l-1.63,.98v-1.19l1.63-.97h1.09v8.64h-1.09Z"/><path class="b" d="M262.05,293.65v-7.46l-1.63,.98v-1.19l1.63-.97h1.09v8.64h-1.09Z"/></g><g><path class="b" d="M373.4,293.65v-7.46l-1.63,.98v-1.19l1.63-.97h1.09v8.64h-1.09Z"/><path class="b" d="M376.53,293.65v-.96l3.84-3.45c.32-.29,.53-.56,.64-.82,.11-.26,.17-.52,.17-.79,0-.33-.08-.63-.23-.9-.15-.27-.36-.48-.62-.64-.26-.16-.56-.23-.89-.23s-.65,.08-.92,.24c-.27,.16-.48,.38-.63,.64-.15,.27-.23,.56-.22,.88h-1.09c0-.54,.13-1.02,.38-1.44,.25-.42,.6-.75,1.03-.98,.43-.24,.93-.36,1.48-.36s1.02,.12,1.44,.37,.76,.58,1,1,.37,.9,.37,1.43c0,.38-.05,.7-.14,.98s-.24,.53-.44,.76c-.2,.23-.44,.48-.74,.75l-3.19,2.86-.14-.36h4.64v1.02h-5.74Z"/><path class="b" d="M386.63,293.83c-.56,0-1.06-.13-1.5-.38-.44-.25-.78-.6-1.04-1.04-.25-.44-.38-.94-.38-1.5v-3.17c0-.56,.13-1.06,.38-1.5,.25-.44,.6-.79,1.04-1.04,.44-.25,.94-.38,1.5-.38s1.06,.13,1.5,.38c.44,.25,.79,.6,1.04,1.04,.25,.44,.38,.94,.38,1.5v3.17c0,.56-.13,1.06-.38,1.5-.25,.44-.6,.78-1.04,1.04-.44,.25-.94,.38-1.5,.38Zm0-1.03c.34,0,.65-.08,.92-.25,.28-.16,.5-.38,.66-.66s.25-.58,.25-.92v-3.29c0-.34-.08-.65-.25-.92-.16-.28-.38-.5-.66-.66-.28-.16-.58-.25-.92-.25s-.64,.08-.92,.25-.5,.38-.66,.66c-.16,.28-.25,.58-.25,.92v3.29c0,.34,.08,.64,.25,.92s.38,.5,.66,.66,.58,.25,.92,.25Z"/><path class="b" d="M394.14,293.83c-.56,0-1.06-.13-1.5-.38-.44-.25-.78-.6-1.04-1.04-.25-.44-.38-.94-.38-1.5v-3.17c0-.56,.13-1.06,.38-1.5,.25-.44,.6-.79,1.04-1.04,.44-.25,.94-.38,1.5-.38s1.06,.13,1.5,.38c.44,.25,.79,.6,1.04,1.04,.25,.44,.38,.94,.38,1.5v3.17c0,.56-.13,1.06-.38,1.5-.25,.44-.6,.78-1.04,1.04-.44,.25-.94,.38-1.5,.38Zm0-1.03c.34,0,.65-.08,.92-.25,.28-.16,.5-.38,.66-.66s.25-.58,.25-.92v-3.29c0-.34-.08-.65-.25-.92-.16-.28-.38-.5-.66-.66-.28-.16-.58-.25-.92-.25s-.64,.08-.92,.25-.5,.38-.66,.66c-.16,.28-.25,.58-.25,.92v3.29c0,.34,.08,.64,.25,.92s.38,.5,.66,.66,.58,.25,.92,.25Z"/><path class="b" d="M401.65,293.83c-.56,0-1.06-.13-1.5-.38-.44-.25-.78-.6-1.04-1.04-.25-.44-.38-.94-.38-1.5v-3.17c0-.56,.13-1.06,.38-1.5,.25-.44,.6-.79,1.04-1.04,.44-.25,.94-.38,1.5-.38s1.06,.13,1.5,.38c.44,.25,.79,.6,1.04,1.04,.25,.44,.38,.94,.38,1.5v3.17c0,.56-.13,1.06-.38,1.5-.25,.44-.6,.78-1.04,1.04-.44,.25-.94,.38-1.5,.38Zm0-1.03c.34,0,.65-.08,.92-.25,.28-.16,.5-.38,.66-.66s.25-.58,.25-.92v-3.29c0-.34-.08-.65-.25-.92-.16-.28-.38-.5-.66-.66-.28-.16-.58-.25-.92-.25s-.64,.08-.92,.25-.5,.38-.66,.66c-.16,.28-.25,.58-.25,.92v3.29c0,.34,.08,.64,.25,.92s.38,.5,.66,.66,.58,.25,.92,.25Z"/></g><g><path class="d" d="M14.83,393.04v-8.64h.97l3.26,6.88,3.25-6.88h.98v8.63h-1.01v-6.29l-2.93,6.29h-.57l-2.93-6.29v6.29h-1.01Z"/><path class="d" d="M25.1,385.41v-1.1h1.07v1.1h-1.07Zm0,7.63v-6.48h1.07v6.48h-1.07Z"/><path class="d" d="M27.96,393.04v-6.48h.96v1.73h.12v4.75h-1.08Zm4.62,0v-3.25c0-.31-.03-.6-.08-.89s-.15-.54-.28-.77c-.13-.23-.31-.4-.54-.54-.23-.13-.51-.2-.85-.2-.27,0-.51,.04-.73,.13s-.41,.23-.56,.41c-.16,.18-.28,.42-.36,.69-.09,.28-.13,.6-.13,.98l-.7-.22c0-.63,.11-1.17,.34-1.62,.23-.45,.54-.8,.95-1.04s.89-.36,1.45-.36c.42,0,.78,.07,1.07,.2s.54,.31,.74,.53c.2,.22,.35,.46,.46,.73,.11,.27,.19,.54,.24,.82s.07,.54,.07,.79v3.58h-1.08Z"/><path class="d" d="M35.34,385.41v-1.1h1.07v1.1h-1.07Zm0,7.63v-6.48h1.07v6.48h-1.07Z"/><path class="d" d="M38.2,393.04v-6.48h.95v1.73h.12v4.75h-1.07Zm3.88,0v-4.1c0-.5-.12-.89-.38-1.17-.26-.28-.6-.42-1.02-.42s-.76,.14-1.02,.43-.39,.67-.39,1.15l-.56-.34c0-.42,.1-.8,.3-1.13,.2-.33,.47-.59,.82-.78,.34-.19,.73-.29,1.17-.29s.82,.09,1.14,.28c.32,.18,.57,.45,.75,.79,.18,.34,.26,.75,.26,1.22v4.36h-1.07Zm3.87,0v-4.15c0-.48-.12-.86-.38-1.14-.26-.27-.59-.41-1-.41-.24,0-.47,.06-.68,.17-.22,.11-.39,.28-.53,.52-.14,.23-.2,.53-.2,.9l-.56-.23c0-.46,.09-.86,.29-1.21,.2-.35,.47-.62,.81-.81,.34-.19,.73-.29,1.16-.29,.68,0,1.21,.21,1.6,.62s.58,.96,.58,1.65v4.38h-1.07Z"/><path class="d" d="M50.43,393.22c-.48,0-.89-.09-1.21-.27s-.57-.41-.74-.71-.25-.61-.25-.96,.06-.63,.19-.88,.31-.46,.55-.62c.24-.17,.52-.3,.85-.39,.31-.08,.65-.16,1.04-.22,.38-.06,.77-.12,1.16-.17,.39-.05,.76-.1,1.1-.15l-.38,.22c.01-.58-.1-1-.35-1.28s-.66-.41-1.25-.41c-.39,0-.73,.09-1.03,.27-.29,.18-.5,.47-.62,.87l-1.01-.31c.16-.57,.46-1.01,.91-1.34s1.04-.49,1.77-.49c.59,0,1.09,.11,1.51,.32s.72,.53,.91,.95c.09,.2,.15,.42,.17,.65,.02,.23,.04,.48,.04,.74v4.01h-.95v-1.55l.22,.14c-.24,.52-.58,.92-1.02,1.19-.44,.27-.97,.4-1.6,.4Zm.16-.89c.38,0,.72-.07,1-.21s.51-.32,.68-.55c.17-.23,.28-.47,.34-.74,.06-.2,.09-.42,.1-.67s0-.43,0-.57l.37,.16c-.35,.05-.69,.09-1.03,.14-.34,.04-.65,.09-.95,.14-.3,.05-.57,.11-.81,.18-.18,.06-.34,.13-.5,.22-.15,.09-.28,.2-.37,.34-.09,.14-.14,.31-.14,.51,0,.18,.04,.34,.13,.5s.23,.29,.42,.39c.19,.1,.44,.15,.75,.15Z"/><path class="d" d="M56.48,393.04l2.89-8.64h1.49l2.89,8.64h-1.11l-2.71-8.02h.34l-2.68,8.02h-1.11Zm1.39-2.02v-1h4.49v1h-4.49Z"/><path class="d" d="M64.82,393.04v-6.48h.95v1.73h.12v4.75h-1.07Zm3.88,0v-4.1c0-.5-.12-.89-.38-1.17-.26-.28-.6-.42-1.02-.42s-.76,.14-1.02,.43-.39,.67-.39,1.15l-.56-.34c0-.42,.1-.8,.3-1.13,.2-.33,.47-.59,.82-.78,.34-.19,.73-.29,1.17-.29s.82,.09,1.14,.28c.32,.18,.57,.45,.75,.79,.18,.34,.26,.75,.26,1.22v4.36h-1.07Zm3.87,0v-4.15c0-.48-.12-.86-.38-1.14-.26-.27-.59-.41-1-.41-.24,0-.47,.06-.68,.17-.22,.11-.39,.28-.53,.52-.14,.23-.2,.53-.2,.9l-.56-.23c0-.46,.09-.86,.29-1.21,.2-.35,.47-.62,.81-.81,.34-.19,.73-.29,1.16-.29,.68,0,1.21,.21,1.6,.62s.58,.96,.58,1.65v4.38h-1.07Z"/><path class="d" d="M75.2,393.04v-8.64h1.07v3.87h-.12v4.77h-.95Zm2.98,.18c-.61,0-1.12-.15-1.54-.45-.42-.3-.73-.71-.95-1.23s-.32-1.1-.32-1.74,.11-1.24,.32-1.75,.53-.92,.95-1.22,.93-.44,1.54-.44,1.12,.15,1.55,.45c.43,.3,.77,.71,1,1.22,.23,.52,.35,1.1,.35,1.75s-.12,1.23-.35,1.75c-.23,.52-.57,.92-1,1.23-.43,.3-.95,.45-1.56,.45Zm-.13-.98c.43,0,.78-.11,1.06-.32s.49-.51,.63-.88,.21-.79,.21-1.25-.07-.87-.21-1.24c-.14-.37-.35-.66-.64-.88-.29-.22-.65-.32-1.09-.32s-.77,.1-1.04,.31c-.28,.21-.48,.49-.62,.86-.14,.37-.2,.79-.2,1.27s.07,.89,.2,1.26c.13,.37,.34,.66,.62,.87,.28,.21,.64,.32,1.07,.32Z"/><path class="d" d="M84.25,393.22c-.48,0-.89-.09-1.21-.27s-.57-.41-.74-.71-.25-.61-.25-.96,.06-.63,.19-.88,.31-.46,.55-.62c.24-.17,.52-.3,.85-.39,.31-.08,.65-.16,1.04-.22,.38-.06,.77-.12,1.16-.17,.39-.05,.76-.1,1.1-.15l-.38,.22c.01-.58-.1-1-.35-1.28s-.66-.41-1.25-.41c-.39,0-.73,.09-1.03,.27-.29,.18-.5,.47-.62,.87l-1.01-.31c.16-.57,.46-1.01,.91-1.34s1.04-.49,1.77-.49c.59,0,1.09,.11,1.51,.32s.72,.53,.91,.95c.09,.2,.15,.42,.17,.65,.02,.23,.04,.48,.04,.74v4.01h-.95v-1.55l.22,.14c-.24,.52-.58,.92-1.02,1.19-.44,.27-.97,.4-1.6,.4Zm.16-.89c.38,0,.72-.07,1-.21s.51-.32,.68-.55c.17-.23,.28-.47,.34-.74,.06-.2,.09-.42,.1-.67s0-.43,0-.57l.37,.16c-.35,.05-.69,.09-1.03,.14-.34,.04-.65,.09-.95,.14-.3,.05-.57,.11-.81,.18-.18,.06-.34,.13-.5,.22-.15,.09-.28,.2-.37,.34-.09,.14-.14,.31-.14,.51,0,.18,.04,.34,.13,.5s.23,.29,.42,.39c.19,.1,.44,.15,.75,.15Z"/><path class="d" d="M91.61,393.21c-.77,0-1.41-.17-1.9-.51s-.8-.81-.91-1.42l1.09-.17c.09,.35,.29,.63,.61,.84,.32,.21,.71,.31,1.18,.31s.79-.09,1.04-.28c.25-.18,.38-.43,.38-.75,0-.18-.04-.33-.13-.45s-.26-.22-.52-.32c-.26-.1-.66-.22-1.18-.36-.57-.15-1.02-.31-1.35-.47s-.56-.35-.7-.57c-.14-.22-.21-.48-.21-.79,0-.38,.1-.71,.31-1s.5-.51,.87-.66,.81-.23,1.3-.23,.93,.08,1.32,.23,.7,.38,.94,.66c.24,.29,.38,.62,.42,1l-1.09,.2c-.05-.35-.22-.62-.5-.82-.28-.2-.64-.31-1.09-.32-.42-.02-.76,.06-1.02,.22-.26,.16-.39,.39-.39,.67,0,.16,.05,.29,.15,.4,.1,.11,.28,.22,.55,.32,.27,.1,.65,.21,1.16,.34,.57,.14,1.02,.3,1.35,.47s.57,.37,.71,.6c.14,.23,.21,.51,.21,.85,0,.62-.23,1.12-.69,1.47-.46,.36-1.09,.54-1.9,.54Z"/><path class="d" d="M97.97,393.21c-.77,0-1.41-.17-1.9-.51s-.8-.81-.91-1.42l1.09-.17c.09,.35,.29,.63,.61,.84,.32,.21,.71,.31,1.18,.31s.79-.09,1.04-.28c.25-.18,.38-.43,.38-.75,0-.18-.04-.33-.13-.45s-.26-.22-.52-.32c-.26-.1-.66-.22-1.18-.36-.57-.15-1.02-.31-1.35-.47s-.56-.35-.7-.57c-.14-.22-.21-.48-.21-.79,0-.38,.1-.71,.31-1s.5-.51,.87-.66,.81-.23,1.3-.23,.93,.08,1.32,.23,.7,.38,.94,.66c.24,.29,.38,.62,.42,1l-1.09,.2c-.05-.35-.22-.62-.5-.82-.28-.2-.64-.31-1.09-.32-.42-.02-.76,.06-1.02,.22-.26,.16-.39,.39-.39,.67,0,.16,.05,.29,.15,.4,.1,.11,.28,.22,.55,.32,.27,.1,.65,.21,1.16,.34,.57,.14,1.02,.3,1.35,.47s.57,.37,.71,.6c.14,.23,.21,.51,.21,.85,0,.62-.23,1.12-.69,1.47-.46,.36-1.09,.54-1.9,.54Z"/><path class="d" d="M103.73,393.22c-.48,0-.89-.09-1.21-.27s-.57-.41-.74-.71-.25-.61-.25-.96,.06-.63,.19-.88,.31-.46,.55-.62c.24-.17,.52-.3,.85-.39,.31-.08,.65-.16,1.04-.22,.38-.06,.77-.12,1.16-.17,.39-.05,.76-.1,1.1-.15l-.38,.22c.01-.58-.1-1-.35-1.28s-.66-.41-1.25-.41c-.39,0-.73,.09-1.03,.27-.29,.18-.5,.47-.62,.87l-1.01-.31c.16-.57,.46-1.01,.91-1.34s1.04-.49,1.77-.49c.59,0,1.09,.11,1.51,.32s.72,.53,.91,.95c.09,.2,.15,.42,.17,.65,.02,.23,.04,.48,.04,.74v4.01h-.95v-1.55l.22,.14c-.24,.52-.58,.92-1.02,1.19-.44,.27-.97,.4-1.6,.4Zm.16-.89c.38,0,.72-.07,1-.21s.51-.32,.68-.55c.17-.23,.28-.47,.34-.74,.06-.2,.09-.42,.1-.67s0-.43,0-.57l.37,.16c-.35,.05-.69,.09-1.03,.14-.34,.04-.65,.09-.95,.14-.3,.05-.57,.11-.81,.18-.18,.06-.34,.13-.5,.22-.15,.09-.28,.2-.37,.34-.09,.14-.14,.31-.14,.51,0,.18,.04,.34,.13,.5s.23,.29,.42,.39c.19,.1,.44,.15,.75,.15Z"/><path class="d" d="M111.19,393.22c-.6,0-1.12-.15-1.55-.45-.43-.3-.76-.71-1-1.23s-.35-1.1-.35-1.75,.12-1.23,.35-1.75c.23-.52,.57-.92,1-1.22s.95-.45,1.55-.45,1.13,.15,1.54,.44,.73,.7,.95,1.22,.32,1.1,.32,1.75-.11,1.23-.32,1.74-.53,.93-.95,1.23c-.42,.3-.93,.45-1.54,.45Zm.13-.98c.44,0,.79-.11,1.07-.32s.49-.5,.62-.87c.13-.37,.2-.79,.2-1.26s-.07-.9-.2-1.27c-.13-.37-.34-.65-.62-.86-.28-.21-.63-.31-1.05-.31s-.8,.11-1.09,.32c-.29,.22-.5,.51-.64,.88-.14,.37-.21,.78-.21,1.24s.07,.88,.21,1.25c.14,.37,.35,.66,.63,.88s.63,.32,1.06,.32Zm1.9,.8v-4.77h-.12v-3.87h1.07v8.64h-.95Z"/><path class="d" d="M118.61,393.22c-.64,0-1.2-.15-1.67-.44-.47-.29-.82-.7-1.08-1.21-.25-.52-.38-1.11-.38-1.78s.13-1.28,.38-1.79c.26-.51,.62-.91,1.09-1.2,.47-.29,1.02-.43,1.65-.43s1.21,.15,1.67,.44c.47,.29,.83,.69,1.08,1.21,.25,.51,.38,1.1,.38,1.77s-.13,1.27-.38,1.79-.61,.92-1.08,1.21c-.47,.29-1.02,.43-1.67,.43Zm0-1.01c.67,0,1.17-.22,1.5-.67s.49-1.03,.49-1.74-.17-1.31-.5-1.75c-.33-.43-.83-.65-1.49-.65-.45,0-.82,.1-1.12,.31s-.51,.49-.65,.85c-.14,.36-.22,.78-.22,1.25,0,.73,.17,1.31,.5,1.75,.34,.44,.83,.66,1.48,.66Z"/><path class="d" d="M123.05,393.04v-6.48h.95v1.57l-.16-.2c.08-.2,.17-.38,.3-.55s.26-.31,.41-.41c.17-.14,.36-.24,.57-.31,.21-.07,.43-.11,.65-.13,.22-.01,.43,0,.62,.04v1c-.22-.06-.47-.08-.74-.05-.27,.03-.52,.13-.74,.29-.21,.15-.37,.33-.48,.54-.11,.21-.19,.44-.24,.69-.04,.25-.07,.5-.07,.75v3.25h-1.07Z"/></g><g><path class="b" d="M257.18,318.81v-7.46l-1.63,.98v-1.19l1.63-.97h1.09v8.64h-1.09Z"/><path class="b" d="M260.31,318.81v-.96l3.84-3.45c.32-.29,.53-.56,.64-.82,.11-.26,.17-.52,.17-.79,0-.33-.08-.63-.23-.9-.15-.27-.36-.48-.62-.64-.26-.16-.56-.23-.89-.23s-.65,.08-.92,.24c-.27,.16-.48,.38-.63,.64-.15,.27-.23,.56-.22,.88h-1.09c0-.54,.13-1.02,.38-1.44,.25-.42,.6-.75,1.03-.98,.43-.24,.93-.36,1.48-.36s1.02,.12,1.44,.37,.76,.58,1,1,.37,.9,.37,1.43c0,.38-.05,.7-.14,.98s-.24,.53-.44,.76c-.2,.23-.44,.48-.74,.75l-3.19,2.86-.14-.36h4.64v1.02h-5.74Z"/></g><g><path class="b" d="M373.4,318.81v-7.46l-1.63,.98v-1.19l1.63-.97h1.09v8.64h-1.09Z"/><path class="b" d="M380.5,318.81v-1.59h-3.97v-1.01l2.85-6.04h1.21l-2.85,6.04h2.76v-2.43h1.08v2.43h.9v1.01h-.9v1.59h-1.08Z"/><path class="b" d="M386.29,318.98c-.43,0-.83-.08-1.19-.24-.37-.16-.68-.38-.95-.67-.27-.29-.46-.63-.58-1.04l1.03-.29c.13,.4,.35,.7,.66,.91s.65,.31,1.04,.31c.35,0,.66-.09,.92-.24,.26-.15,.46-.37,.6-.63,.14-.27,.21-.58,.21-.93,0-.54-.16-.97-.48-1.3-.32-.33-.74-.5-1.26-.5-.14,0-.3,.02-.45,.06-.16,.04-.31,.1-.44,.17l-.52-.85,3.2-2.9,.14,.36h-4.3v-1.02h5.09v1.03l-2.73,2.62v-.38c.56-.04,1.06,.05,1.49,.28,.43,.23,.76,.55,1,.98s.36,.91,.36,1.46-.12,1.04-.37,1.46c-.25,.42-.58,.76-1.01,1-.42,.24-.9,.36-1.44,.36Z"/><path class="b" d="M393.59,318.99c-.56,0-1.06-.13-1.5-.38-.44-.25-.78-.6-1.04-1.04-.25-.44-.38-.94-.38-1.5v-3.17c0-.56,.13-1.06,.38-1.5,.25-.44,.6-.79,1.04-1.04,.44-.25,.94-.38,1.5-.38s1.06,.13,1.5,.38c.44,.25,.79,.6,1.04,1.04,.25,.44,.38,.94,.38,1.5v3.17c0,.56-.13,1.06-.38,1.5-.25,.44-.6,.78-1.04,1.04-.44,.25-.94,.38-1.5,.38Zm0-1.03c.34,0,.65-.08,.92-.25,.28-.16,.5-.38,.66-.66s.25-.58,.25-.92v-3.29c0-.34-.08-.65-.25-.92-.16-.28-.38-.5-.66-.66-.28-.16-.58-.25-.92-.25s-.64,.08-.92,.25-.5,.38-.66,.66c-.16,.28-.25,.58-.25,.92v3.29c0,.34,.08,.64,.25,.92s.38,.5,.66,.66,.58,.25,.92,.25Z"/><path class="b" d="M401.1,318.99c-.56,0-1.06-.13-1.5-.38-.44-.25-.78-.6-1.04-1.04-.25-.44-.38-.94-.38-1.5v-3.17c0-.56,.13-1.06,.38-1.5,.25-.44,.6-.79,1.04-1.04,.44-.25,.94-.38,1.5-.38s1.06,.13,1.5,.38c.44,.25,.79,.6,1.04,1.04,.25,.44,.38,.94,.38,1.5v3.17c0,.56-.13,1.06-.38,1.5-.25,.44-.6,.78-1.04,1.04-.44,.25-.94,.38-1.5,.38Zm0-1.03c.34,0,.65-.08,.92-.25,.28-.16,.5-.38,.66-.66s.25-.58,.25-.92v-3.29c0-.34-.08-.65-.25-.92-.16-.28-.38-.5-.66-.66-.28-.16-.58-.25-.92-.25s-.64,.08-.92,.25-.5,.38-.66,.66c-.16,.28-.25,.58-.25,.92v3.29c0,.34,.08,.64,.25,.92s.38,.5,.66,.66,.58,.25,.92,.25Z"/></g><g><path class="b" d="M257.18,343.98v-7.46l-1.63,.98v-1.19l1.63-.97h1.09v8.64h-1.09Z"/><path class="b" d="M262.92,344.15c-.43,0-.83-.08-1.19-.24-.37-.16-.68-.38-.95-.67-.27-.29-.46-.63-.58-1.04l1.03-.29c.13,.4,.35,.7,.66,.91s.65,.31,1.04,.31c.35,0,.66-.09,.92-.24,.26-.15,.46-.37,.6-.63,.14-.27,.21-.58,.21-.93,0-.54-.16-.97-.48-1.3-.32-.33-.74-.5-1.26-.5-.14,0-.3,.02-.45,.06-.16,.04-.31,.1-.44,.17l-.52-.85,3.2-2.9,.14,.36h-4.3v-1.02h5.09v1.03l-2.73,2.62v-.38c.56-.04,1.06,.05,1.49,.28,.43,.23,.76,.55,1,.98s.36,.91,.36,1.46-.12,1.04-.37,1.46c-.25,.42-.58,.76-1.01,1-.42,.24-.9,.36-1.44,.36Z"/></g><g><path class="b" d="M373.4,343.98v-7.46l-1.63,.98v-1.19l1.63-.97h1.09v8.64h-1.09Z"/><path class="b" d="M379.72,344.16c-.55,0-1.04-.13-1.49-.4-.45-.26-.8-.62-1.06-1.08-.26-.46-.39-.98-.39-1.55v-2.87c0-.6,.13-1.14,.39-1.61,.26-.47,.62-.83,1.08-1.09,.46-.26,.98-.39,1.57-.39,.48,0,.92,.1,1.33,.29,.41,.19,.75,.47,1.04,.84l-.8,.71c-.17-.25-.4-.45-.67-.6-.28-.15-.57-.22-.89-.22-.38,0-.72,.09-1.01,.27-.29,.18-.53,.42-.69,.72s-.25,.62-.25,.96v1.73l-.23-.26c.25-.36,.57-.65,.96-.86,.39-.22,.81-.32,1.26-.32,.54,0,1.02,.13,1.44,.38,.43,.25,.76,.59,1.01,1.02s.37,.91,.37,1.45-.13,1.02-.4,1.46c-.27,.44-.62,.78-1.07,1.04s-.94,.39-1.47,.39Zm0-1.03c.34,0,.66-.08,.94-.25,.28-.17,.51-.39,.68-.67,.17-.28,.25-.59,.25-.94s-.08-.66-.25-.94c-.17-.28-.39-.51-.67-.67-.28-.17-.6-.25-.94-.25s-.66,.08-.94,.25c-.28,.17-.51,.39-.67,.67-.17,.28-.25,.6-.25,.94s.08,.65,.25,.93c.17,.28,.39,.51,.67,.68,.28,.17,.6,.25,.94,.25Z"/><path class="b" d="M386.92,344.16c-.55,0-1.04-.11-1.46-.33-.42-.22-.76-.53-1-.93-.24-.4-.36-.86-.36-1.39s.12-.98,.37-1.4,.62-.74,1.11-.96l-.02,.39c-.4-.2-.71-.47-.93-.83-.22-.36-.32-.75-.32-1.19,0-.49,.11-.91,.34-1.26,.22-.35,.53-.62,.92-.82,.39-.19,.84-.29,1.35-.29s.96,.1,1.35,.29c.39,.19,.7,.46,.92,.82,.22,.35,.34,.77,.34,1.26,0,.44-.1,.83-.31,1.18-.2,.35-.52,.63-.94,.84l-.02-.38c.5,.22,.87,.53,1.12,.95s.38,.88,.38,1.4-.12,.99-.36,1.39c-.24,.4-.58,.71-1,.93-.43,.22-.92,.33-1.47,.33Zm0-1.02c.5,0,.91-.14,1.23-.42,.31-.28,.47-.68,.47-1.21s-.16-.94-.46-1.21c-.31-.28-.72-.42-1.23-.42s-.92,.14-1.23,.42c-.31,.28-.47,.68-.47,1.21s.16,.93,.47,1.21c.31,.28,.72,.42,1.22,.42Zm0-4.28c.44,0,.8-.11,1.07-.33,.27-.22,.41-.55,.41-1s-.14-.78-.41-1c-.27-.22-.63-.33-1.07-.33s-.79,.11-1.07,.33c-.27,.22-.41,.55-.41,1s.14,.78,.41,1c.27,.22,.63,.33,1.07,.33Z"/><path class="b" d="M394.23,344.16c-.56,0-1.06-.13-1.5-.38-.44-.25-.78-.6-1.04-1.04-.25-.44-.38-.94-.38-1.5v-3.17c0-.56,.13-1.06,.38-1.5,.25-.44,.6-.79,1.04-1.04,.44-.25,.94-.38,1.5-.38s1.06,.13,1.5,.38c.44,.25,.79,.6,1.04,1.04,.25,.44,.38,.94,.38,1.5v3.17c0,.56-.13,1.06-.38,1.5-.25,.44-.6,.78-1.04,1.04-.44,.25-.94,.38-1.5,.38Zm0-1.03c.34,0,.65-.08,.92-.25,.28-.16,.5-.38,.66-.66s.25-.58,.25-.92v-3.29c0-.34-.08-.65-.25-.92-.16-.28-.38-.5-.66-.66-.28-.16-.58-.25-.92-.25s-.64,.08-.92,.25-.5,.38-.66,.66c-.16,.28-.25,.58-.25,.92v3.29c0,.34,.08,.64,.25,.92s.38,.5,.66,.66,.58,.25,.92,.25Z"/><path class="b" d="M401.74,344.16c-.56,0-1.06-.13-1.5-.38-.44-.25-.78-.6-1.04-1.04-.25-.44-.38-.94-.38-1.5v-3.17c0-.56,.13-1.06,.38-1.5,.25-.44,.6-.79,1.04-1.04,.44-.25,.94-.38,1.5-.38s1.06,.13,1.5,.38c.44,.25,.79,.6,1.04,1.04,.25,.44,.38,.94,.38,1.5v3.17c0,.56-.13,1.06-.38,1.5-.25,.44-.6,.78-1.04,1.04-.44,.25-.94,.38-1.5,.38Zm0-1.03c.34,0,.65-.08,.92-.25,.28-.16,.5-.38,.66-.66s.25-.58,.25-.92v-3.29c0-.34-.08-.65-.25-.92-.16-.28-.38-.5-.66-.66-.28-.16-.58-.25-.92-.25s-.64,.08-.92,.25-.5,.38-.66,.66c-.16,.28-.25,.58-.25,.92v3.29c0,.34,.08,.64,.25,.92s.38,.5,.66,.66,.58,.25,.92,.25Z"/></g><g><path class="b" d="M257.18,369.14v-7.46l-1.63,.98v-1.19l1.63-.97h1.09v8.64h-1.09Z"/><path class="b" d="M264.28,369.14v-1.59h-3.97v-1.01l2.85-6.04h1.21l-2.85,6.04h2.76v-2.43h1.08v2.43h.9v1.01h-.9v1.59h-1.08Z"/></g><g><path class="b" d="M373.4,369.14v-7.46l-1.63,.98v-1.19l1.63-.97h1.09v8.64h-1.09Z"/><path class="b" d="M379.6,360.32c.55,0,1.04,.13,1.49,.4,.45,.26,.8,.62,1.06,1.08s.39,.97,.39,1.55v2.87c0,.6-.13,1.14-.39,1.61s-.62,.83-1.08,1.09-.98,.39-1.57,.39c-.48,0-.92-.1-1.33-.29-.41-.19-.75-.47-1.04-.84l.8-.71c.17,.25,.4,.45,.67,.6,.28,.15,.57,.22,.89,.22,.38,0,.72-.09,1.01-.27,.29-.18,.53-.42,.69-.72s.25-.62,.25-.96v-1.73l.23,.26c-.25,.36-.57,.65-.96,.86-.39,.22-.81,.32-1.26,.32-.54,0-1.02-.13-1.44-.38-.43-.25-.76-.59-1.01-1.02-.25-.43-.37-.91-.37-1.45s.13-1.02,.4-1.46c.27-.44,.62-.78,1.07-1.04,.45-.26,.94-.39,1.47-.39Zm0,1.03c-.34,0-.66,.08-.94,.25s-.51,.39-.67,.67c-.17,.28-.25,.6-.25,.94s.08,.66,.25,.94c.17,.28,.39,.51,.67,.68,.28,.17,.6,.25,.94,.25s.66-.08,.94-.25c.28-.17,.51-.39,.68-.68,.17-.28,.25-.6,.25-.94s-.08-.65-.25-.93c-.17-.28-.39-.51-.67-.67-.28-.17-.6-.25-.94-.25Z"/><path class="b" d="M386.78,369.32c-.44,0-.86-.09-1.24-.28-.38-.18-.71-.44-.98-.76-.27-.32-.46-.69-.58-1.11l1.03-.28c.07,.28,.2,.53,.38,.74,.18,.21,.4,.37,.65,.48,.25,.11,.5,.17,.77,.17,.35,0,.67-.08,.95-.25s.5-.4,.67-.68,.25-.59,.25-.93-.08-.66-.25-.95-.4-.5-.68-.67c-.28-.16-.59-.25-.93-.25-.38,0-.71,.08-.97,.24-.27,.16-.48,.35-.64,.58l-.95-.36,.26-4.52h4.64v1.01h-4.12l.47-.44-.22,3.62-.23-.31c.24-.26,.53-.45,.86-.59,.33-.14,.67-.21,1.02-.21,.54,0,1.02,.12,1.44,.38,.42,.25,.76,.59,1.01,1.02s.37,.91,.37,1.45-.14,1.02-.41,1.46c-.27,.44-.63,.79-1.08,1.05s-.94,.39-1.48,.39Z"/><path class="b" d="M394.1,369.32c-.56,0-1.06-.13-1.5-.38-.44-.25-.78-.6-1.04-1.04-.25-.44-.38-.94-.38-1.5v-3.17c0-.56,.13-1.06,.38-1.5,.25-.44,.6-.79,1.04-1.04,.44-.25,.94-.38,1.5-.38s1.06,.13,1.5,.38c.44,.25,.79,.6,1.04,1.04,.25,.44,.38,.94,.38,1.5v3.17c0,.56-.13,1.06-.38,1.5-.25,.44-.6,.78-1.04,1.04-.44,.25-.94,.38-1.5,.38Zm0-1.03c.34,0,.65-.08,.92-.25,.28-.16,.5-.38,.66-.66s.25-.58,.25-.92v-3.29c0-.34-.08-.65-.25-.92-.16-.28-.38-.5-.66-.66-.28-.16-.58-.25-.92-.25s-.64,.08-.92,.25-.5,.38-.66,.66c-.16,.28-.25,.58-.25,.92v3.29c0,.34,.08,.64,.25,.92s.38,.5,.66,.66,.58,.25,.92,.25Z"/><path class="b" d="M401.62,369.32c-.56,0-1.06-.13-1.5-.38-.44-.25-.78-.6-1.04-1.04-.25-.44-.38-.94-.38-1.5v-3.17c0-.56,.13-1.06,.38-1.5,.25-.44,.6-.79,1.04-1.04,.44-.25,.94-.38,1.5-.38s1.06,.13,1.5,.38c.44,.25,.79,.6,1.04,1.04,.25,.44,.38,.94,.38,1.5v3.17c0,.56-.13,1.06-.38,1.5-.25,.44-.6,.78-1.04,1.04-.44,.25-.94,.38-1.5,.38Zm0-1.03c.34,0,.65-.08,.92-.25,.28-.16,.5-.38,.66-.66s.25-.58,.25-.92v-3.29c0-.34-.08-.65-.25-.92-.16-.28-.38-.5-.66-.66-.28-.16-.58-.25-.92-.25s-.64,.08-.92,.25-.5,.38-.66,.66c-.16,.28-.25,.58-.25,.92v3.29c0,.34,.08,.64,.25,.92s.38,.5,.66,.66,.58,.25,.92,.25Z"/></g><g><path class="b" d="M257.18,394.3v-7.46l-1.63,.98v-1.19l1.63-.97h1.09v8.64h-1.09Z"/><path class="b" d="M263.1,394.48c-.44,0-.86-.09-1.24-.28-.38-.18-.71-.44-.98-.76-.27-.32-.46-.69-.58-1.11l1.03-.28c.07,.28,.2,.53,.38,.74,.18,.21,.4,.37,.65,.48,.25,.11,.5,.17,.77,.17,.35,0,.67-.08,.95-.25s.5-.4,.67-.68,.25-.59,.25-.93-.08-.66-.25-.95-.4-.5-.68-.67c-.28-.16-.59-.25-.93-.25-.38,0-.71,.08-.97,.24-.27,.16-.48,.35-.64,.58l-.95-.36,.26-4.52h4.64v1.01h-4.12l.47-.44-.22,3.62-.23-.31c.24-.26,.53-.45,.86-.59,.33-.14,.67-.21,1.02-.21,.54,0,1.02,.12,1.44,.38,.42,.25,.76,.59,1.01,1.02s.37,.91,.37,1.45-.14,1.02-.41,1.46c-.27,.44-.63,.79-1.08,1.05s-.94,.39-1.48,.39Z"/></g><g><path class="b" d="M371.66,394.3v-.96l3.84-3.45c.32-.29,.53-.56,.64-.82,.11-.26,.17-.52,.17-.79,0-.33-.08-.63-.23-.9-.15-.27-.36-.48-.62-.64-.26-.16-.56-.23-.89-.23s-.65,.08-.92,.24c-.27,.16-.48,.38-.63,.64-.15,.27-.23,.56-.22,.88h-1.09c0-.54,.13-1.02,.38-1.44,.25-.42,.6-.75,1.03-.98,.43-.24,.93-.36,1.48-.36s1.02,.12,1.44,.37,.76,.58,1,1,.37,.9,.37,1.43c0,.38-.05,.7-.14,.98s-.24,.53-.44,.76c-.2,.23-.44,.48-.74,.75l-3.19,2.86-.14-.36h4.64v1.02h-5.74Z"/><path class="b" d="M378.6,394.3v-.96l3.84-3.45c.32-.29,.53-.56,.64-.82,.11-.26,.17-.52,.17-.79,0-.33-.08-.63-.23-.9-.15-.27-.36-.48-.62-.64-.26-.16-.56-.23-.89-.23s-.65,.08-.92,.24c-.27,.16-.48,.38-.63,.64-.15,.27-.23,.56-.22,.88h-1.09c0-.54,.13-1.02,.38-1.44,.25-.42,.6-.75,1.03-.98,.43-.24,.93-.36,1.48-.36s1.02,.12,1.44,.37,.76,.58,1,1,.37,.9,.37,1.43c0,.38-.05,.7-.14,.98s-.24,.53-.44,.76c-.2,.23-.44,.48-.74,.75l-3.19,2.86-.14-.36h4.64v1.02h-5.74Z"/><path class="b" d="M389.51,394.3v-1.59h-3.97v-1.01l2.85-6.04h1.21l-2.85,6.04h2.76v-2.43h1.08v2.43h.9v1.01h-.9v1.59h-1.08Z"/><path class="b" d="M395.85,394.48c-.56,0-1.06-.13-1.5-.38-.44-.25-.78-.6-1.04-1.04-.25-.44-.38-.94-.38-1.5v-3.17c0-.56,.13-1.06,.38-1.5,.25-.44,.6-.79,1.04-1.04,.44-.25,.94-.38,1.5-.38s1.06,.13,1.5,.38c.44,.25,.79,.6,1.04,1.04,.25,.44,.38,.94,.38,1.5v3.17c0,.56-.13,1.06-.38,1.5-.25,.44-.6,.78-1.04,1.04-.44,.25-.94,.38-1.5,.38Zm0-1.03c.34,0,.65-.08,.92-.25,.28-.16,.5-.38,.66-.66s.25-.58,.25-.92v-3.29c0-.34-.08-.65-.25-.92-.16-.28-.38-.5-.66-.66-.28-.16-.58-.25-.92-.25s-.64,.08-.92,.25-.5,.38-.66,.66c-.16,.28-.25,.58-.25,.92v3.29c0,.34,.08,.64,.25,.92s.38,.5,.66,.66,.58,.25,.92,.25Z"/><path class="b" d="M403.36,394.48c-.56,0-1.06-.13-1.5-.38-.44-.25-.78-.6-1.04-1.04-.25-.44-.38-.94-.38-1.5v-3.17c0-.56,.13-1.06,.38-1.5,.25-.44,.6-.79,1.04-1.04,.44-.25,.94-.38,1.5-.38s1.06,.13,1.5,.38c.44,.25,.79,.6,1.04,1.04,.25,.44,.38,.94,.38,1.5v3.17c0,.56-.13,1.06-.38,1.5-.25,.44-.6,.78-1.04,1.04-.44,.25-.94,.38-1.5,.38Zm0-1.03c.34,0,.65-.08,.92-.25,.28-.16,.5-.38,.66-.66s.25-.58,.25-.92v-3.29c0-.34-.08-.65-.25-.92-.16-.28-.38-.5-.66-.66-.28-.16-.58-.25-.92-.25s-.64,.08-.92,.25-.5,.38-.66,.66c-.16,.28-.25,.58-.25,.92v3.29c0,.34,.08,.64,.25,.92s.38,.5,.66,.66,.58,.25,.92,.25Z"/></g><g><path class="b" d="M257.18,419.46v-7.46l-1.63,.98v-1.19l1.63-.97h1.09v8.64h-1.09Z"/><path class="b" d="M263.49,419.64c-.55,0-1.04-.13-1.49-.4-.45-.26-.8-.62-1.06-1.08-.26-.46-.39-.98-.39-1.55v-2.87c0-.6,.13-1.14,.39-1.61,.26-.47,.62-.83,1.08-1.09,.46-.26,.98-.39,1.57-.39,.48,0,.92,.1,1.33,.29,.41,.19,.75,.47,1.04,.84l-.8,.71c-.17-.25-.4-.45-.67-.6-.28-.15-.57-.22-.89-.22-.38,0-.72,.09-1.01,.27-.29,.18-.53,.42-.69,.72s-.25,.62-.25,.96v1.73l-.23-.26c.25-.36,.57-.65,.96-.86,.39-.22,.81-.32,1.26-.32,.54,0,1.02,.13,1.44,.38,.43,.25,.76,.59,1.01,1.02s.37,.91,.37,1.45-.13,1.02-.4,1.46c-.27,.44-.62,.78-1.07,1.04s-.94,.39-1.47,.39Zm0-1.03c.34,0,.66-.08,.94-.25,.28-.17,.51-.39,.68-.67,.17-.28,.25-.59,.25-.94s-.08-.66-.25-.94c-.17-.28-.39-.51-.67-.67-.28-.17-.6-.25-.94-.25s-.66,.08-.94,.25c-.28,.17-.51,.39-.67,.67-.17,.28-.25,.6-.25,.94s.08,.65,.25,.93c.17,.28,.39,.51,.67,.68,.28,.17,.6,.25,.94,.25Z"/></g><g><path class="b" d="M371.66,419.46v-.96l3.84-3.45c.32-.29,.53-.56,.64-.82,.11-.26,.17-.52,.17-.79,0-.33-.08-.63-.23-.9-.15-.27-.36-.48-.62-.64-.26-.16-.56-.23-.89-.23s-.65,.08-.92,.24c-.27,.16-.48,.38-.63,.64-.15,.27-.23,.56-.22,.88h-1.09c0-.54,.13-1.02,.38-1.44,.25-.42,.6-.75,1.03-.98,.43-.24,.93-.36,1.48-.36s1.02,.12,1.44,.37,.76,.58,1,1,.37,.9,.37,1.43c0,.38-.05,.7-.14,.98s-.24,.53-.44,.76c-.2,.23-.44,.48-.74,.75l-3.19,2.86-.14-.36h4.64v1.02h-5.74Z"/><path class="b" d="M381.4,419.64c-.44,0-.86-.09-1.24-.28-.38-.18-.71-.44-.98-.76-.27-.32-.46-.69-.58-1.11l1.03-.28c.07,.28,.2,.53,.38,.74,.18,.21,.4,.37,.65,.48,.25,.11,.5,.17,.77,.17,.35,0,.67-.08,.95-.25s.5-.4,.67-.68,.25-.59,.25-.93-.08-.66-.25-.95-.4-.5-.68-.67c-.28-.16-.59-.25-.93-.25-.38,0-.71,.08-.97,.24-.27,.16-.48,.35-.64,.58l-.95-.36,.26-4.52h4.64v1.01h-4.12l.47-.44-.22,3.62-.23-.31c.24-.26,.53-.45,.86-.59,.33-.14,.67-.21,1.02-.21,.54,0,1.02,.12,1.44,.38,.42,.25,.76,.59,1.01,1.02s.37,.91,.37,1.45-.14,1.02-.41,1.46c-.27,.44-.63,.79-1.08,1.05s-.94,.39-1.48,.39Z"/><path class="b" d="M388.36,419.64c-.44,0-.86-.09-1.24-.28-.38-.18-.71-.44-.98-.76-.27-.32-.46-.69-.58-1.11l1.03-.28c.07,.28,.2,.53,.38,.74,.18,.21,.4,.37,.65,.48,.25,.11,.5,.17,.77,.17,.35,0,.67-.08,.95-.25s.5-.4,.67-.68,.25-.59,.25-.93-.08-.66-.25-.95-.4-.5-.68-.67c-.28-.16-.59-.25-.93-.25-.38,0-.71,.08-.97,.24-.27,.16-.48,.35-.64,.58l-.95-.36,.26-4.52h4.64v1.01h-4.12l.47-.44-.22,3.62-.23-.31c.24-.26,.53-.45,.86-.59,.33-.14,.67-.21,1.02-.21,.54,0,1.02,.12,1.44,.38,.42,.25,.76,.59,1.01,1.02s.37,.91,.37,1.45-.14,1.02-.41,1.46c-.27,.44-.63,.79-1.08,1.05s-.94,.39-1.48,.39Z"/><path class="b" d="M395.69,419.64c-.56,0-1.06-.13-1.5-.38-.44-.25-.78-.6-1.04-1.04-.25-.44-.38-.94-.38-1.5v-3.17c0-.56,.13-1.06,.38-1.5,.25-.44,.6-.79,1.04-1.04,.44-.25,.94-.38,1.5-.38s1.06,.13,1.5,.38c.44,.25,.79,.6,1.04,1.04,.25,.44,.38,.94,.38,1.5v3.17c0,.56-.13,1.06-.38,1.5-.25,.44-.6,.78-1.04,1.04-.44,.25-.94,.38-1.5,.38Zm0-1.03c.34,0,.65-.08,.92-.25,.28-.16,.5-.38,.66-.66s.25-.58,.25-.92v-3.29c0-.34-.08-.65-.25-.92-.16-.28-.38-.5-.66-.66-.28-.16-.58-.25-.92-.25s-.64,.08-.92,.25-.5,.38-.66,.66c-.16,.28-.25,.58-.25,.92v3.29c0,.34,.08,.64,.25,.92s.38,.5,.66,.66,.58,.25,.92,.25Z"/><path class="b" d="M403.2,419.64c-.56,0-1.06-.13-1.5-.38-.44-.25-.78-.6-1.04-1.04-.25-.44-.38-.94-.38-1.5v-3.17c0-.56,.13-1.06,.38-1.5,.25-.44,.6-.79,1.04-1.04,.44-.25,.94-.38,1.5-.38s1.06,.13,1.5,.38c.44,.25,.79,.6,1.04,1.04,.25,.44,.38,.94,.38,1.5v3.17c0,.56-.13,1.06-.38,1.5-.25,.44-.6,.78-1.04,1.04-.44,.25-.94,.38-1.5,.38Zm0-1.03c.34,0,.65-.08,.92-.25,.28-.16,.5-.38,.66-.66s.25-.58,.25-.92v-3.29c0-.34-.08-.65-.25-.92-.16-.28-.38-.5-.66-.66-.28-.16-.58-.25-.92-.25s-.64,.08-.92,.25-.5,.38-.66,.66c-.16,.28-.25,.58-.25,.92v3.29c0,.34,.08,.64,.25,.92s.38,.5,.66,.66,.58,.25,.92,.25Z"/></g><g><path class="b" d="M257.18,444.63v-7.46l-1.63,.98v-1.19l1.63-.97h1.09v8.64h-1.09Z"/><path class="b" d="M261,444.63l3.11-7.61h-3.92v-1.03h5.07v1.03l-3.1,7.61h-1.15Z"/></g><g><path class="b" d="M371.66,444.62v-.96l3.84-3.45c.32-.29,.53-.56,.64-.82,.11-.26,.17-.52,.17-.79,0-.33-.08-.63-.23-.9-.15-.27-.36-.48-.62-.64-.26-.16-.56-.23-.89-.23s-.65,.08-.92,.24c-.27,.16-.48,.38-.63,.64-.15,.27-.23,.56-.22,.88h-1.09c0-.54,.13-1.02,.38-1.44,.25-.42,.6-.75,1.03-.98,.43-.24,.93-.36,1.48-.36s1.02,.12,1.44,.37,.76,.58,1,1,.37,.9,.37,1.43c0,.38-.05,.7-.14,.98s-.24,.53-.44,.76c-.2,.23-.44,.48-.74,.75l-3.19,2.86-.14-.36h4.64v1.02h-5.74Z"/><path class="b" d="M381.54,444.81c-.55,0-1.04-.11-1.46-.33-.42-.22-.76-.53-1-.93-.24-.4-.36-.86-.36-1.39s.12-.98,.37-1.4,.62-.74,1.11-.96l-.02,.39c-.4-.2-.71-.47-.93-.83-.22-.36-.32-.75-.32-1.19,0-.49,.11-.91,.34-1.26,.22-.35,.53-.62,.92-.82,.39-.19,.84-.29,1.35-.29s.96,.1,1.35,.29c.39,.19,.7,.46,.92,.82,.22,.35,.34,.77,.34,1.26,0,.44-.1,.83-.31,1.18-.2,.35-.52,.63-.94,.84l-.02-.38c.5,.22,.87,.53,1.12,.95s.38,.88,.38,1.4-.12,.99-.36,1.39c-.24,.4-.58,.71-1,.93-.43,.22-.92,.33-1.47,.33Zm0-1.02c.5,0,.91-.14,1.23-.42,.31-.28,.47-.68,.47-1.21s-.16-.94-.46-1.21c-.31-.28-.72-.42-1.23-.42s-.92,.14-1.23,.42c-.31,.28-.47,.68-.47,1.21s.16,.93,.47,1.21c.31,.28,.72,.42,1.22,.42Zm0-4.28c.44,0,.8-.11,1.07-.33,.27-.22,.41-.55,.41-1s-.14-.78-.41-1c-.27-.22-.63-.33-1.07-.33s-.79,.11-1.07,.33c-.27,.22-.41,.55-.41,1s.14,.78,.41,1c.27,.22,.63,.33,1.07,.33Z"/><path class="b" d="M388.63,444.81c-.55,0-1.04-.11-1.46-.33-.42-.22-.76-.53-1-.93-.24-.4-.36-.86-.36-1.39s.12-.98,.37-1.4,.62-.74,1.11-.96l-.02,.39c-.4-.2-.71-.47-.93-.83-.22-.36-.32-.75-.32-1.19,0-.49,.11-.91,.34-1.26,.22-.35,.53-.62,.92-.82,.39-.19,.84-.29,1.35-.29s.96,.1,1.35,.29c.39,.19,.7,.46,.92,.82,.22,.35,.34,.77,.34,1.26,0,.44-.1,.83-.31,1.18-.2,.35-.52,.63-.94,.84l-.02-.38c.5,.22,.87,.53,1.12,.95s.38,.88,.38,1.4-.12,.99-.36,1.39c-.24,.4-.58,.71-1,.93-.43,.22-.92,.33-1.47,.33Zm0-1.02c.5,0,.91-.14,1.23-.42,.31-.28,.47-.68,.47-1.21s-.16-.94-.46-1.21c-.31-.28-.72-.42-1.23-.42s-.92,.14-1.23,.42c-.31,.28-.47,.68-.47,1.21s.16,.93,.47,1.21c.31,.28,.72,.42,1.22,.42Zm0-4.28c.44,0,.8-.11,1.07-.33,.27-.22,.41-.55,.41-1s-.14-.78-.41-1c-.27-.22-.63-.33-1.07-.33s-.79,.11-1.07,.33c-.27,.22-.41,.55-.41,1s.14,.78,.41,1c.27,.22,.63,.33,1.07,.33Z"/><path class="b" d="M395.94,444.81c-.56,0-1.06-.13-1.5-.38-.44-.25-.78-.6-1.04-1.04-.25-.44-.38-.94-.38-1.5v-3.17c0-.56,.13-1.06,.38-1.5,.25-.44,.6-.79,1.04-1.04,.44-.25,.94-.38,1.5-.38s1.06,.13,1.5,.38c.44,.25,.79,.6,1.04,1.04,.25,.44,.38,.94,.38,1.5v3.17c0,.56-.13,1.06-.38,1.5-.25,.44-.6,.78-1.04,1.04-.44,.25-.94,.38-1.5,.38Zm0-1.03c.34,0,.65-.08,.92-.25,.28-.16,.5-.38,.66-.66s.25-.58,.25-.92v-3.29c0-.34-.08-.65-.25-.92-.16-.28-.38-.5-.66-.66-.28-.16-.58-.25-.92-.25s-.64,.08-.92,.25-.5,.38-.66,.66c-.16,.28-.25,.58-.25,.92v3.29c0,.34,.08,.64,.25,.92s.38,.5,.66,.66,.58,.25,.92,.25Z"/><path class="b" d="M403.45,444.81c-.56,0-1.06-.13-1.5-.38-.44-.25-.78-.6-1.04-1.04-.25-.44-.38-.94-.38-1.5v-3.17c0-.56,.13-1.06,.38-1.5,.25-.44,.6-.79,1.04-1.04,.44-.25,.94-.38,1.5-.38s1.06,.13,1.5,.38c.44,.25,.79,.6,1.04,1.04,.25,.44,.38,.94,.38,1.5v3.17c0,.56-.13,1.06-.38,1.5-.25,.44-.6,.78-1.04,1.04-.44,.25-.94,.38-1.5,.38Zm0-1.03c.34,0,.65-.08,.92-.25,.28-.16,.5-.38,.66-.66s.25-.58,.25-.92v-3.29c0-.34-.08-.65-.25-.92-.16-.28-.38-.5-.66-.66-.28-.16-.58-.25-.92-.25s-.64,.08-.92,.25-.5,.38-.66,.66c-.16,.28-.25,.58-.25,.92v3.29c0,.34,.08,.64,.25,.92s.38,.5,.66,.66,.58,.25,.92,.25Z"/></g><g><path class="b" d="M257.18,469.79v-7.46l-1.63,.98v-1.19l1.63-.97h1.09v8.64h-1.09Z"/><path class="b" d="M263.25,469.97c-.55,0-1.04-.11-1.46-.33-.42-.22-.76-.53-1-.93-.24-.4-.36-.86-.36-1.39s.12-.98,.37-1.4,.62-.74,1.11-.96l-.02,.39c-.4-.2-.71-.47-.93-.83-.22-.36-.32-.75-.32-1.19,0-.49,.11-.91,.34-1.26,.22-.35,.53-.62,.92-.82,.39-.19,.84-.29,1.35-.29s.96,.1,1.35,.29c.39,.19,.7,.46,.92,.82,.22,.35,.34,.77,.34,1.26,0,.44-.1,.83-.31,1.18-.2,.35-.52,.63-.94,.84l-.02-.38c.5,.22,.87,.53,1.12,.95s.38,.88,.38,1.4-.12,.99-.36,1.39c-.24,.4-.58,.71-1,.93-.43,.22-.92,.33-1.47,.33Zm0-1.02c.5,0,.91-.14,1.23-.42,.31-.28,.47-.68,.47-1.21s-.16-.94-.46-1.21c-.31-.28-.72-.42-1.23-.42s-.92,.14-1.23,.42c-.31,.28-.47,.68-.47,1.21s.16,.93,.47,1.21c.31,.28,.72,.42,1.22,.42Zm0-4.28c.44,0,.8-.11,1.07-.33,.27-.22,.41-.55,.41-1s-.14-.78-.41-1c-.27-.22-.63-.33-1.07-.33s-.79,.11-1.07,.33c-.27,.22-.41,.55-.41,1s.14,.78,.41,1c.27,.22,.63,.33,1.07,.33Z"/></g><g><path class="b" d="M374.27,469.96c-.43,0-.83-.08-1.19-.24-.37-.16-.68-.38-.95-.67-.27-.29-.46-.63-.58-1.04l1.03-.29c.13,.4,.35,.7,.66,.91s.65,.31,1.04,.31c.35,0,.66-.09,.92-.24,.26-.15,.46-.37,.6-.63,.14-.27,.21-.58,.21-.93,0-.54-.16-.97-.48-1.3-.32-.33-.74-.5-1.26-.5-.14,0-.3,.02-.45,.06-.16,.04-.31,.1-.44,.17l-.52-.85,3.2-2.9,.14,.36h-4.3v-1.02h5.09v1.03l-2.73,2.62v-.38c.56-.04,1.06,.05,1.49,.28,.43,.23,.76,.55,1,.98s.36,.91,.36,1.46-.12,1.04-.37,1.46c-.25,.42-.58,.76-1.01,1-.42,.24-.9,.36-1.44,.36Z"/><path class="b" d="M378.41,469.78v-.96l3.84-3.45c.32-.29,.53-.56,.64-.82,.11-.26,.17-.52,.17-.79,0-.33-.08-.63-.23-.9-.15-.27-.36-.48-.62-.64-.26-.16-.56-.23-.89-.23s-.65,.08-.92,.24c-.27,.16-.48,.38-.63,.64-.15,.27-.23,.56-.22,.88h-1.09c0-.54,.13-1.02,.38-1.44,.25-.42,.6-.75,1.03-.98,.43-.24,.93-.36,1.48-.36s1.02,.12,1.44,.37,.76,.58,1,1,.37,.9,.37,1.43c0,.38-.05,.7-.14,.98s-.24,.53-.44,.76c-.2,.23-.44,.48-.74,.75l-3.19,2.86-.14-.36h4.64v1.02h-5.74Z"/><path class="b" d="M387.96,469.96c-.43,0-.83-.08-1.19-.24-.37-.16-.68-.38-.95-.67-.27-.29-.46-.63-.58-1.04l1.03-.29c.13,.4,.35,.7,.66,.91s.65,.31,1.04,.31c.35,0,.66-.09,.92-.24,.26-.15,.46-.37,.6-.63,.14-.27,.21-.58,.21-.93,0-.54-.16-.97-.48-1.3-.32-.33-.74-.5-1.26-.5-.14,0-.3,.02-.45,.06-.16,.04-.31,.1-.44,.17l-.52-.85,3.2-2.9,.14,.36h-4.3v-1.02h5.09v1.03l-2.73,2.62v-.38c.56-.04,1.06,.05,1.49,.28,.43,.23,.76,.55,1,.98s.36,.91,.36,1.46-.12,1.04-.37,1.46c-.25,.42-.58,.76-1.01,1-.42,.24-.9,.36-1.44,.36Z"/><path class="b" d="M395.26,469.97c-.56,0-1.06-.13-1.5-.38-.44-.25-.78-.6-1.04-1.04-.25-.44-.38-.94-.38-1.5v-3.17c0-.56,.13-1.06,.38-1.5,.25-.44,.6-.79,1.04-1.04,.44-.25,.94-.38,1.5-.38s1.06,.13,1.5,.38c.44,.25,.79,.6,1.04,1.04,.25,.44,.38,.94,.38,1.5v3.17c0,.56-.13,1.06-.38,1.5-.25,.44-.6,.78-1.04,1.04-.44,.25-.94,.38-1.5,.38Zm0-1.03c.34,0,.65-.08,.92-.25,.28-.16,.5-.38,.66-.66s.25-.58,.25-.92v-3.29c0-.34-.08-.65-.25-.92-.16-.28-.38-.5-.66-.66-.28-.16-.58-.25-.92-.25s-.64,.08-.92,.25-.5,.38-.66,.66c-.16,.28-.25,.58-.25,.92v3.29c0,.34,.08,.64,.25,.92s.38,.5,.66,.66,.58,.25,.92,.25Z"/><path class="b" d="M402.77,469.97c-.56,0-1.06-.13-1.5-.38-.44-.25-.78-.6-1.04-1.04-.25-.44-.38-.94-.38-1.5v-3.17c0-.56,.13-1.06,.38-1.5,.25-.44,.6-.79,1.04-1.04,.44-.25,.94-.38,1.5-.38s1.06,.13,1.5,.38c.44,.25,.79,.6,1.04,1.04,.25,.44,.38,.94,.38,1.5v3.17c0,.56-.13,1.06-.38,1.5-.25,.44-.6,.78-1.04,1.04-.44,.25-.94,.38-1.5,.38Zm0-1.03c.34,0,.65-.08,.92-.25,.28-.16,.5-.38,.66-.66s.25-.58,.25-.92v-3.29c0-.34-.08-.65-.25-.92-.16-.28-.38-.5-.66-.66-.28-.16-.58-.25-.92-.25s-.64,.08-.92,.25-.5,.38-.66,.66c-.16,.28-.25,.58-.25,.92v3.29c0,.34,.08,.64,.25,.92s.38,.5,.66,.66,.58,.25,.92,.25Z"/></g><g><path class="d" d="M14.83,494.95v-8.64h.97l3.26,6.88,3.25-6.88h.98v8.63h-1.01v-6.29l-2.93,6.29h-.57l-2.93-6.29v6.29h-1.01Z"/><path class="d" d="M25.1,487.32v-1.1h1.07v1.1h-1.07Zm0,7.63v-6.48h1.07v6.48h-1.07Z"/><path class="d" d="M27.96,494.95v-6.48h.96v1.73h.12v4.75h-1.08Zm4.62,0v-3.25c0-.31-.03-.6-.08-.89s-.15-.54-.28-.77c-.13-.23-.31-.4-.54-.54-.23-.13-.51-.2-.85-.2-.27,0-.51,.04-.73,.13s-.41,.23-.56,.41c-.16,.18-.28,.42-.36,.69-.09,.28-.13,.6-.13,.98l-.7-.22c0-.63,.11-1.17,.34-1.62,.23-.45,.54-.8,.95-1.04s.89-.36,1.45-.36c.42,0,.78,.07,1.07,.2s.54,.31,.74,.53c.2,.22,.35,.46,.46,.73,.11,.27,.19,.54,.24,.82s.07,.54,.07,.79v3.58h-1.08Z"/><path class="d" d="M35.34,487.32v-1.1h1.07v1.1h-1.07Zm0,7.63v-6.48h1.07v6.48h-1.07Z"/><path class="d" d="M38.2,494.95v-6.48h.95v1.73h.12v4.75h-1.07Zm3.88,0v-4.1c0-.5-.12-.89-.38-1.17-.26-.28-.6-.42-1.02-.42s-.76,.14-1.02,.43-.39,.67-.39,1.15l-.56-.34c0-.42,.1-.8,.3-1.13,.2-.33,.47-.59,.82-.78,.34-.19,.73-.29,1.17-.29s.82,.09,1.14,.28c.32,.18,.57,.45,.75,.79,.18,.34,.26,.75,.26,1.22v4.36h-1.07Zm3.87,0v-4.15c0-.48-.12-.86-.38-1.14-.26-.27-.59-.41-1-.41-.24,0-.47,.06-.68,.17-.22,.11-.39,.28-.53,.52-.14,.23-.2,.53-.2,.9l-.56-.23c0-.46,.09-.86,.29-1.21,.2-.35,.47-.62,.81-.81,.34-.19,.73-.29,1.16-.29,.68,0,1.21,.21,1.6,.62s.58,.96,.58,1.65v4.38h-1.07Z"/><path class="d" d="M50.43,495.13c-.48,0-.89-.09-1.21-.27s-.57-.41-.74-.71-.25-.61-.25-.96,.06-.63,.19-.88,.31-.46,.55-.62c.24-.17,.52-.3,.85-.39,.31-.08,.65-.16,1.04-.22,.38-.06,.77-.12,1.16-.17,.39-.05,.76-.1,1.1-.15l-.38,.22c.01-.58-.1-1-.35-1.28s-.66-.41-1.25-.41c-.39,0-.73,.09-1.03,.27-.29,.18-.5,.47-.62,.87l-1.01-.31c.16-.57,.46-1.01,.91-1.34s1.04-.49,1.77-.49c.59,0,1.09,.11,1.51,.32s.72,.53,.91,.95c.09,.2,.15,.42,.17,.65,.02,.23,.04,.48,.04,.74v4.01h-.95v-1.55l.22,.14c-.24,.52-.58,.92-1.02,1.19-.44,.27-.97,.4-1.6,.4Zm.16-.89c.38,0,.72-.07,1-.21s.51-.32,.68-.55c.17-.23,.28-.47,.34-.74,.06-.2,.09-.42,.1-.67s0-.43,0-.57l.37,.16c-.35,.05-.69,.09-1.03,.14-.34,.04-.65,.09-.95,.14-.3,.05-.57,.11-.81,.18-.18,.06-.34,.13-.5,.22-.15,.09-.28,.2-.37,.34-.09,.14-.14,.31-.14,.51,0,.18,.04,.34,.13,.5s.23,.29,.42,.39c.19,.1,.44,.15,.75,.15Z"/><path class="d" d="M61.24,495.13c-.59,0-1.13-.1-1.62-.31s-.91-.51-1.26-.9c-.35-.39-.62-.86-.81-1.42-.19-.55-.28-1.18-.28-1.88,0-.92,.16-1.72,.49-2.39,.33-.67,.79-1.19,1.39-1.56,.6-.37,1.3-.55,2.1-.55,.97,0,1.75,.23,2.34,.68,.59,.45,1,1.06,1.22,1.84l-1.08,.22c-.18-.52-.48-.94-.89-1.25-.41-.31-.93-.47-1.54-.47-.64,0-1.18,.14-1.6,.43s-.75,.7-.96,1.22c-.22,.52-.33,1.13-.33,1.82,0,.69,.1,1.29,.32,1.81,.22,.52,.54,.93,.97,1.22,.43,.29,.97,.44,1.61,.45,.56,0,1.02-.1,1.4-.32s.67-.53,.88-.94,.33-.9,.38-1.47h-1.84v-.88h2.96c.01,.08,.02,.18,.02,.29,0,.11,0,.19,0,.23,0,.79-.15,1.49-.44,2.11s-.73,1.11-1.3,1.47c-.57,.36-1.28,.53-2.13,.53Z"/><path class="d" d="M66.31,494.95v-6.48h.95v1.57l-.16-.2c.08-.2,.17-.38,.3-.55s.26-.31,.41-.41c.17-.14,.36-.24,.57-.31,.21-.07,.43-.11,.65-.13,.22-.01,.43,0,.62,.04v1c-.22-.06-.47-.08-.74-.05-.27,.03-.52,.13-.74,.29-.21,.15-.37,.33-.48,.54-.11,.21-.19,.44-.24,.69-.04,.25-.07,.5-.07,.75v3.25h-1.07Z"/><path class="d" d="M72.63,495.13c-.48,0-.89-.09-1.21-.27s-.57-.41-.74-.71-.25-.61-.25-.96,.06-.63,.19-.88,.31-.46,.55-.62c.24-.17,.52-.3,.85-.39,.31-.08,.65-.16,1.04-.22,.38-.06,.77-.12,1.16-.17,.39-.05,.76-.1,1.1-.15l-.38,.22c.01-.58-.1-1-.35-1.28s-.66-.41-1.25-.41c-.39,0-.73,.09-1.03,.27-.29,.18-.5,.47-.62,.87l-1.01-.31c.16-.57,.46-1.01,.91-1.34s1.04-.49,1.77-.49c.59,0,1.09,.11,1.51,.32s.72,.53,.91,.95c.09,.2,.15,.42,.17,.65,.02,.23,.04,.48,.04,.74v4.01h-.95v-1.55l.22,.14c-.24,.52-.58,.92-1.02,1.19-.44,.27-.97,.4-1.6,.4Zm.16-.89c.38,0,.72-.07,1-.21s.51-.32,.68-.55c.17-.23,.28-.47,.34-.74,.06-.2,.09-.42,.1-.67s0-.43,0-.57l.37,.16c-.35,.05-.69,.09-1.03,.14-.34,.04-.65,.09-.95,.14-.3,.05-.57,.11-.81,.18-.18,.06-.34,.13-.5,.22-.15,.09-.28,.2-.37,.34-.09,.14-.14,.31-.14,.51,0,.18,.04,.34,.13,.5s.23,.29,.42,.39c.19,.1,.44,.15,.75,.15Z"/><path class="d" d="M77.53,494.95v-6.48h.96v1.73h.12v4.75h-1.08Zm4.62,0v-3.25c0-.31-.03-.6-.08-.89s-.15-.54-.28-.77c-.13-.23-.31-.4-.54-.54-.23-.13-.51-.2-.85-.2-.27,0-.51,.04-.73,.13s-.41,.23-.56,.41c-.16,.18-.28,.42-.36,.69-.09,.28-.13,.6-.13,.98l-.7-.22c0-.63,.11-1.17,.34-1.62,.23-.45,.54-.8,.95-1.04s.89-.36,1.45-.36c.42,0,.78,.07,1.07,.2s.54,.31,.74,.53c.2,.22,.35,.46,.46,.73,.11,.27,.19,.54,.24,.82s.07,.54,.07,.79v3.58h-1.08Z"/><path class="d" d="M87.34,495.13c-.6,0-1.12-.15-1.55-.45-.43-.3-.76-.71-1-1.23s-.35-1.1-.35-1.75,.12-1.23,.35-1.75c.23-.52,.57-.92,1-1.22s.95-.45,1.55-.45,1.13,.15,1.54,.44,.73,.7,.95,1.22,.32,1.1,.32,1.75-.11,1.23-.32,1.74-.53,.93-.95,1.23c-.42,.3-.93,.45-1.54,.45Zm.13-.98c.44,0,.79-.11,1.07-.32s.49-.5,.62-.87c.13-.37,.2-.79,.2-1.26s-.07-.9-.2-1.27c-.13-.37-.34-.65-.62-.86-.28-.21-.63-.31-1.05-.31s-.8,.11-1.09,.32c-.29,.22-.5,.51-.64,.88-.14,.37-.21,.78-.21,1.24s.07,.88,.21,1.25c.14,.37,.35,.66,.63,.88s.63,.32,1.06,.32Zm1.9,.8v-4.77h-.12v-3.87h1.07v8.64h-.95Z"/><path class="d" d="M93.14,494.95l2.89-8.64h1.49l2.89,8.64h-1.11l-2.71-8.02h.34l-2.68,8.02h-1.11Zm1.39-2.02v-1h4.49v1h-4.49Z"/><path class="d" d="M101.48,494.95v-6.48h.95v1.73h.12v4.75h-1.07Zm3.88,0v-4.1c0-.5-.12-.89-.38-1.17-.26-.28-.6-.42-1.02-.42s-.76,.14-1.02,.43-.39,.67-.39,1.15l-.56-.34c0-.42,.1-.8,.3-1.13,.2-.33,.47-.59,.82-.78,.34-.19,.73-.29,1.17-.29s.82,.09,1.14,.28c.32,.18,.57,.45,.75,.79,.18,.34,.26,.75,.26,1.22v4.36h-1.07Zm3.87,0v-4.15c0-.48-.12-.86-.38-1.14-.26-.27-.59-.41-1-.41-.24,0-.47,.06-.68,.17-.22,.11-.39,.28-.53,.52-.14,.23-.2,.53-.2,.9l-.56-.23c0-.46,.09-.86,.29-1.21,.2-.35,.47-.62,.81-.81,.34-.19,.73-.29,1.16-.29,.68,0,1.21,.21,1.6,.62s.58,.96,.58,1.65v4.38h-1.07Z"/><path class="d" d="M111.86,494.95v-8.64h1.07v3.87h-.12v4.77h-.95Zm2.98,.18c-.61,0-1.12-.15-1.54-.45-.42-.3-.73-.71-.95-1.23s-.32-1.1-.32-1.74,.11-1.24,.32-1.75,.53-.92,.95-1.22,.93-.44,1.54-.44,1.12,.15,1.55,.45c.43,.3,.77,.71,1,1.22,.23,.52,.35,1.1,.35,1.75s-.12,1.23-.35,1.75c-.23,.52-.57,.92-1,1.23-.43,.3-.95,.45-1.56,.45Zm-.13-.98c.43,0,.78-.11,1.06-.32s.49-.51,.63-.88,.21-.79,.21-1.25-.07-.87-.21-1.24c-.14-.37-.35-.66-.64-.88-.29-.22-.65-.32-1.09-.32s-.77,.1-1.04,.31c-.28,.21-.48,.49-.62,.86-.14,.37-.2,.79-.2,1.27s.07,.89,.2,1.26c.13,.37,.34,.66,.62,.87,.28,.21,.64,.32,1.07,.32Z"/><path class="d" d="M120.91,495.13c-.48,0-.89-.09-1.21-.27s-.57-.41-.74-.71-.25-.61-.25-.96,.06-.63,.19-.88,.31-.46,.55-.62c.24-.17,.52-.3,.85-.39,.31-.08,.65-.16,1.04-.22,.38-.06,.77-.12,1.16-.17,.39-.05,.76-.1,1.1-.15l-.38,.22c.01-.58-.1-1-.35-1.28s-.66-.41-1.25-.41c-.39,0-.73,.09-1.03,.27-.29,.18-.5,.47-.62,.87l-1.01-.31c.16-.57,.46-1.01,.91-1.34s1.04-.49,1.77-.49c.59,0,1.09,.11,1.51,.32s.72,.53,.91,.95c.09,.2,.15,.42,.17,.65,.02,.23,.04,.48,.04,.74v4.01h-.95v-1.55l.22,.14c-.24,.52-.58,.92-1.02,1.19-.44,.27-.97,.4-1.6,.4Zm.16-.89c.38,0,.72-.07,1-.21s.51-.32,.68-.55c.17-.23,.28-.47,.34-.74,.06-.2,.09-.42,.1-.67s0-.43,0-.57l.37,.16c-.35,.05-.69,.09-1.03,.14-.34,.04-.65,.09-.95,.14-.3,.05-.57,.11-.81,.18-.18,.06-.34,.13-.5,.22-.15,.09-.28,.2-.37,.34-.09,.14-.14,.31-.14,.51,0,.18,.04,.34,.13,.5s.23,.29,.42,.39c.19,.1,.44,.15,.75,.15Z"/><path class="d" d="M128.27,495.12c-.77,0-1.41-.17-1.9-.51s-.8-.81-.91-1.42l1.09-.17c.09,.35,.29,.63,.61,.84,.32,.21,.71,.31,1.18,.31s.79-.09,1.04-.28c.25-.18,.38-.43,.38-.75,0-.18-.04-.33-.13-.45s-.26-.22-.52-.32c-.26-.1-.66-.22-1.18-.36-.57-.15-1.02-.31-1.35-.47s-.56-.35-.7-.57c-.14-.22-.21-.48-.21-.79,0-.38,.1-.71,.31-1s.5-.51,.87-.66,.81-.23,1.3-.23,.93,.08,1.32,.23,.7,.38,.94,.66c.24,.29,.38,.62,.42,1l-1.09,.2c-.05-.35-.22-.62-.5-.82-.28-.2-.64-.31-1.09-.32-.42-.02-.76,.06-1.02,.22-.26,.16-.39,.39-.39,.67,0,.16,.05,.29,.15,.4,.1,.11,.28,.22,.55,.32,.27,.1,.65,.21,1.16,.34,.57,.14,1.02,.3,1.35,.47s.57,.37,.71,.6c.14,.23,.21,.51,.21,.85,0,.62-.23,1.12-.69,1.47-.46,.36-1.09,.54-1.9,.54Z"/><path class="d" d="M134.64,495.12c-.77,0-1.41-.17-1.9-.51s-.8-.81-.91-1.42l1.09-.17c.09,.35,.29,.63,.61,.84,.32,.21,.71,.31,1.18,.31s.79-.09,1.04-.28c.25-.18,.38-.43,.38-.75,0-.18-.04-.33-.13-.45s-.26-.22-.52-.32c-.26-.1-.66-.22-1.18-.36-.57-.15-1.02-.31-1.35-.47s-.56-.35-.7-.57c-.14-.22-.21-.48-.21-.79,0-.38,.1-.71,.31-1s.5-.51,.87-.66,.81-.23,1.3-.23,.93,.08,1.32,.23,.7,.38,.94,.66c.24,.29,.38,.62,.42,1l-1.09,.2c-.05-.35-.22-.62-.5-.82-.28-.2-.64-.31-1.09-.32-.42-.02-.76,.06-1.02,.22-.26,.16-.39,.39-.39,.67,0,.16,.05,.29,.15,.4,.1,.11,.28,.22,.55,.32,.27,.1,.65,.21,1.16,.34,.57,.14,1.02,.3,1.35,.47s.57,.37,.71,.6c.14,.23,.21,.51,.21,.85,0,.62-.23,1.12-.69,1.47-.46,.36-1.09,.54-1.9,.54Z"/><path class="d" d="M140.39,495.13c-.48,0-.89-.09-1.21-.27s-.57-.41-.74-.71-.25-.61-.25-.96,.06-.63,.19-.88,.31-.46,.55-.62c.24-.17,.52-.3,.85-.39,.31-.08,.65-.16,1.04-.22,.38-.06,.77-.12,1.16-.17,.39-.05,.76-.1,1.1-.15l-.38,.22c.01-.58-.1-1-.35-1.28s-.66-.41-1.25-.41c-.39,0-.73,.09-1.03,.27-.29,.18-.5,.47-.62,.87l-1.01-.31c.16-.57,.46-1.01,.91-1.34s1.04-.49,1.77-.49c.59,0,1.09,.11,1.51,.32s.72,.53,.91,.95c.09,.2,.15,.42,.17,.65,.02,.23,.04,.48,.04,.74v4.01h-.95v-1.55l.22,.14c-.24,.52-.58,.92-1.02,1.19-.44,.27-.97,.4-1.6,.4Zm.16-.89c.38,0,.72-.07,1-.21s.51-.32,.68-.55c.17-.23,.28-.47,.34-.74,.06-.2,.09-.42,.1-.67s0-.43,0-.57l.37,.16c-.35,.05-.69,.09-1.03,.14-.34,.04-.65,.09-.95,.14-.3,.05-.57,.11-.81,.18-.18,.06-.34,.13-.5,.22-.15,.09-.28,.2-.37,.34-.09,.14-.14,.31-.14,.51,0,.18,.04,.34,.13,.5s.23,.29,.42,.39c.19,.1,.44,.15,.75,.15Z"/><path class="d" d="M147.85,495.13c-.6,0-1.12-.15-1.55-.45-.43-.3-.76-.71-1-1.23s-.35-1.1-.35-1.75,.12-1.23,.35-1.75c.23-.52,.57-.92,1-1.22s.95-.45,1.55-.45,1.13,.15,1.54,.44,.73,.7,.95,1.22,.32,1.1,.32,1.75-.11,1.23-.32,1.74-.53,.93-.95,1.23c-.42,.3-.93,.45-1.54,.45Zm.13-.98c.44,0,.79-.11,1.07-.32s.49-.5,.62-.87c.13-.37,.2-.79,.2-1.26s-.07-.9-.2-1.27c-.13-.37-.34-.65-.62-.86-.28-.21-.63-.31-1.05-.31s-.8,.11-1.09,.32c-.29,.22-.5,.51-.64,.88-.14,.37-.21,.78-.21,1.24s.07,.88,.21,1.25c.14,.37,.35,.66,.63,.88s.63,.32,1.06,.32Zm1.9,.8v-4.77h-.12v-3.87h1.07v8.64h-.95Z"/><path class="d" d="M155.27,495.13c-.64,0-1.2-.15-1.67-.44-.47-.29-.82-.7-1.08-1.21-.25-.52-.38-1.11-.38-1.78s.13-1.28,.38-1.79c.26-.51,.62-.91,1.09-1.2,.47-.29,1.02-.43,1.65-.43s1.21,.15,1.67,.44c.47,.29,.83,.69,1.08,1.21,.25,.51,.38,1.1,.38,1.77s-.13,1.27-.38,1.79-.61,.92-1.08,1.21c-.47,.29-1.02,.43-1.67,.43Zm0-1.01c.67,0,1.17-.22,1.5-.67s.49-1.03,.49-1.74-.17-1.31-.5-1.75c-.33-.43-.83-.65-1.49-.65-.45,0-.82,.1-1.12,.31s-.51,.49-.65,.85c-.14,.36-.22,.78-.22,1.25,0,.73,.17,1.31,.5,1.75,.34,.44,.83,.66,1.48,.66Z"/><path class="d" d="M159.72,494.95v-6.48h.95v1.57l-.16-.2c.08-.2,.17-.38,.3-.55s.26-.31,.41-.41c.17-.14,.36-.24,.57-.31,.21-.07,.43-.11,.65-.13,.22-.01,.43,0,.62,.04v1c-.22-.06-.47-.08-.74-.05-.27,.03-.52,.13-.74,.29-.21,.15-.37,.33-.48,.54-.11,.21-.19,.44-.24,.69-.04,.25-.07,.5-.07,.75v3.25h-1.07Z"/></g><g><path class="b" d="M257.18,494.95v-7.46l-1.63,.98v-1.19l1.63-.97h1.09v8.64h-1.09Z"/><path class="b" d="M263.37,486.14c.55,0,1.04,.13,1.49,.4,.45,.26,.8,.62,1.06,1.08s.39,.97,.39,1.55v2.87c0,.6-.13,1.14-.39,1.61s-.62,.83-1.08,1.09-.98,.39-1.57,.39c-.48,0-.92-.1-1.33-.29-.41-.19-.75-.47-1.04-.84l.8-.71c.17,.25,.4,.45,.67,.6,.28,.15,.57,.22,.89,.22,.38,0,.72-.09,1.01-.27,.29-.18,.53-.42,.69-.72s.25-.62,.25-.96v-1.73l.23,.26c-.25,.36-.57,.65-.96,.86-.39,.22-.81,.32-1.26,.32-.54,0-1.02-.13-1.44-.38-.43-.25-.76-.59-1.01-1.02-.25-.43-.37-.91-.37-1.45s.13-1.02,.4-1.46c.27-.44,.62-.78,1.07-1.04,.45-.26,.94-.39,1.47-.39Zm0,1.03c-.34,0-.66,.08-.94,.25s-.51,.39-.67,.67c-.17,.28-.25,.6-.25,.94s.08,.66,.25,.94c.17,.28,.39,.51,.67,.68,.28,.17,.6,.25,.94,.25s.66-.08,.94-.25c.28-.17,.51-.39,.68-.68,.17-.28,.25-.6,.25-.94s-.08-.65-.25-.93c-.17-.28-.39-.51-.67-.67-.28-.17-.6-.25-.94-.25Z"/></g><g><path class="b" d="M374.27,495.12c-.43,0-.83-.08-1.19-.24-.37-.16-.68-.38-.95-.67-.27-.29-.46-.63-.58-1.04l1.03-.29c.13,.4,.35,.7,.66,.91s.65,.31,1.04,.31c.35,0,.66-.09,.92-.24,.26-.15,.46-.37,.6-.63,.14-.27,.21-.58,.21-.93,0-.54-.16-.97-.48-1.3-.32-.33-.74-.5-1.26-.5-.14,0-.3,.02-.45,.06-.16,.04-.31,.1-.44,.17l-.52-.85,3.2-2.9,.14,.36h-4.3v-1.02h5.09v1.03l-2.73,2.62v-.38c.56-.04,1.06,.05,1.49,.28,.43,.23,.76,.55,1,.98s.36,.91,.36,1.46-.12,1.04-.37,1.46c-.25,.42-.58,.76-1.01,1-.42,.24-.9,.36-1.44,.36Z"/><path class="b" d="M381.59,495.13c-.55,0-1.04-.13-1.49-.4-.45-.26-.8-.62-1.06-1.08-.26-.46-.39-.98-.39-1.55v-2.87c0-.6,.13-1.14,.39-1.61,.26-.47,.62-.83,1.08-1.09,.46-.26,.98-.39,1.57-.39,.48,0,.92,.1,1.33,.29,.41,.19,.75,.47,1.04,.84l-.8,.71c-.17-.25-.4-.45-.67-.6-.28-.15-.57-.22-.89-.22-.38,0-.72,.09-1.01,.27-.29,.18-.53,.42-.69,.72s-.25,.62-.25,.96v1.73l-.23-.26c.25-.36,.57-.65,.96-.86,.39-.22,.81-.32,1.26-.32,.54,0,1.02,.13,1.44,.38,.43,.25,.76,.59,1.01,1.02s.37,.91,.37,1.45-.13,1.02-.4,1.46c-.27,.44-.62,.78-1.07,1.04s-.94,.39-1.47,.39Zm0-1.03c.34,0,.66-.08,.94-.25,.28-.17,.51-.39,.68-.67,.17-.28,.25-.59,.25-.94s-.08-.66-.25-.94c-.17-.28-.39-.51-.67-.67-.28-.17-.6-.25-.94-.25s-.66,.08-.94,.25c-.28,.17-.51,.39-.67,.67-.17,.28-.25,.6-.25,.94s.08,.65,.25,.93c.17,.28,.39,.51,.67,.68,.28,.17,.6,.25,.94,.25Z"/><path class="b" d="M389.02,495.13c-.56,0-1.06-.13-1.5-.38-.44-.25-.78-.6-1.04-1.04-.25-.44-.38-.94-.38-1.5v-3.17c0-.56,.13-1.06,.38-1.5,.25-.44,.6-.79,1.04-1.04,.44-.25,.94-.38,1.5-.38s1.06,.13,1.5,.38c.44,.25,.79,.6,1.04,1.04,.25,.44,.38,.94,.38,1.5v3.17c0,.56-.13,1.06-.38,1.5-.25,.44-.6,.78-1.04,1.04-.44,.25-.94,.38-1.5,.38Zm0-1.03c.34,0,.65-.08,.92-.25,.28-.16,.5-.38,.66-.66s.25-.58,.25-.92v-3.29c0-.34-.08-.65-.25-.92-.16-.28-.38-.5-.66-.66-.28-.16-.58-.25-.92-.25s-.64,.08-.92,.25-.5,.38-.66,.66c-.16,.28-.25,.58-.25,.92v3.29c0,.34,.08,.64,.25,.92s.38,.5,.66,.66,.58,.25,.92,.25Z"/><path class="b" d="M396.53,495.13c-.56,0-1.06-.13-1.5-.38-.44-.25-.78-.6-1.04-1.04-.25-.44-.38-.94-.38-1.5v-3.17c0-.56,.13-1.06,.38-1.5,.25-.44,.6-.79,1.04-1.04,.44-.25,.94-.38,1.5-.38s1.06,.13,1.5,.38c.44,.25,.79,.6,1.04,1.04,.25,.44,.38,.94,.38,1.5v3.17c0,.56-.13,1.06-.38,1.5-.25,.44-.6,.78-1.04,1.04-.44,.25-.94,.38-1.5,.38Zm0-1.03c.34,0,.65-.08,.92-.25,.28-.16,.5-.38,.66-.66s.25-.58,.25-.92v-3.29c0-.34-.08-.65-.25-.92-.16-.28-.38-.5-.66-.66-.28-.16-.58-.25-.92-.25s-.64,.08-.92,.25-.5,.38-.66,.66c-.16,.28-.25,.58-.25,.92v3.29c0,.34,.08,.64,.25,.92s.38,.5,.66,.66,.58,.25,.92,.25Z"/><path class="b" d="M404.04,495.13c-.56,0-1.06-.13-1.5-.38-.44-.25-.78-.6-1.04-1.04-.25-.44-.38-.94-.38-1.5v-3.17c0-.56,.13-1.06,.38-1.5,.25-.44,.6-.79,1.04-1.04,.44-.25,.94-.38,1.5-.38s1.06,.13,1.5,.38c.44,.25,.79,.6,1.04,1.04,.25,.44,.38,.94,.38,1.5v3.17c0,.56-.13,1.06-.38,1.5-.25,.44-.6,.78-1.04,1.04-.44,.25-.94,.38-1.5,.38Zm0-1.03c.34,0,.65-.08,.92-.25,.28-.16,.5-.38,.66-.66s.25-.58,.25-.92v-3.29c0-.34-.08-.65-.25-.92-.16-.28-.38-.5-.66-.66-.28-.16-.58-.25-.92-.25s-.64,.08-.92,.25-.5,.38-.66,.66c-.16,.28-.25,.58-.25,.92v3.29c0,.34,.08,.64,.25,.92s.38,.5,.66,.66,.58,.25,.92,.25Z"/></g><g><line class="e" x1="469.31" y1="452.92" x2="226.08" y2="452.92"/><line class="e" x1="469.31" y1="427.76" x2="226.08" y2="427.76"/><line class="e" x1="469.31" y1="402.6" x2="226.08" y2="402.6"/><line class="e" x1="469.31" y1="377.44" x2="226.08" y2="377.44"/><line class="e" x1="469.31" y1="352.27" x2="226.08" y2="352.27"/><line class="e" x1="469.31" y1="327.11" x2="226.08" y2="327.11"/><line class="e" x1="469.31" y1="276.79" x2="226.08" y2="276.79"/><line class="e" x1="469.31" y1="251.62" x2="226.08" y2="251.62"/><line class="e" x1="469.31" y1="226.46" x2="226.08" y2="226.46"/><line class="e" x1="469.31" y1="201.3" x2="226.08" y2="201.3"/><line class="e" x1="469.31" y1="176.14" x2="226.08" y2="176.14"/><line class="e" x1="469.31" y1="125.81" x2="226.08" y2="125.81"/><line class="e" x1="469.31" y1="100.65" x2="226.08" y2="100.65"/><line class="e" x1="469.31" y1="50.32" x2="226.08" y2="50.32"/><line class="e" x1="347.7" x2="347.7" y2="502.65"/><line class="e" x1="226.08" x2="226.08" y2="502.65"/><line class="e" x1="469.31" y1="478.09" y2="478.09"/><line class="e" x1="469.31" y1="301.95" y2="301.95"/><line class="e" x1="469.31" y1="150.97" y2="150.97"/><line class="e" x1="469.31" y1="25.16" y2="25.16"/><path class="b" d="M468.31,1V501.65H1V1H468.31M469.31,0H0V502.65H469.31V0h0Z"/><line class="e" x1="469.31" y1="75.49" y2="75.49"/></g></svg>