<?xml version="1.0" encoding="UTF-8"?><svg id="a" xmlns="http://www.w3.org/2000/svg" viewBox="0 0 469.31 210"><defs><style>.b,.c,.d{fill:none;}.c{stroke:#5a94ff;stroke-width:3px;}.c,.e,.f,.g,.d{stroke-miterlimit:10;}.h{fill:#363a3f;}.e{fill:#ff7358;}.e,.f,.g{stroke:#363a3f;}.f{fill:#ffb229;}.g{fill:#5a94ff;}.d{stroke:#d3d3d8;}</style></defs><circle class="f" cx="326.82" cy="130.83" r="10.47"/><g><line class="d" x1="283.17" y1="16.22" x2="176.63" y2="75.41"/><line class="d" x1="283.17" y1="75.41" x2="229.9" y2="75.41"/><line class="d" x1="229.9" y1="16.22" x2="229.9" y2="75.41"/><line class="d" x1="229.9" y1="16.22" x2="176.63" y2="134.59"/><line class="d" x1="16.83" y1="75.41" x2="70.1" y2="16.22"/><line class="d" x1="70.1" y1="75.41" x2="16.83" y2="75.41"/><line class="d" x1="283.17" y1="193.78" x2="229.9" y2="134.59"/><line class="d" x1="283.17" y1="75.41" x2="283.17" y2="16.22"/><line class="d" x1="123.37" y1="16.22" x2="123.37" y2="75.41"/><line class="d" x1="123.37" y1="75.41" x2="123.37" y2="134.59"/><line class="d" x1="70.1" y1="134.59" x2="70.1" y2="193.78"/><line class="d" x1="16.83" y1="16.22" x2="70.1" y2="16.22"/><line class="d" x1="16.83" y1="16.22" x2="70.1" y2="134.59"/><line class="d" x1="70.1" y1="75.41" x2="16.83" y2="134.59"/><line class="d" x1="70.1" y1="75.41" x2="123.37" y2="134.59"/><line class="d" x1="16.83" y1="134.59" x2="70.1" y2="193.78"/><line class="d" x1="16.83" y1="193.78" x2="123.37" y2="134.59"/><line class="d" x1="70.1" y1="16.22" x2="123.37" y2="75.41"/><line class="d" x1="123.37" y1="16.22" x2="70.1" y2="75.41"/><line class="d" x1="229.9" y1="193.78" x2="229.9" y2="75.41"/><line class="d" x1="229.9" y1="193.78" x2="176.63" y2="193.78"/><line class="d" x1="283.17" y1="134.59" x2="176.63" y2="75.41"/><line class="d" x1="176.63" y1="75.41" x2="123.37" y2="75.41"/><line class="d" x1="176.63" y1="134.59" x2="176.63" y2="75.41"/><line class="d" x1="194.39" y1="16.22" x2="176.63" y2="16.22"/><line class="d" x1="194.39" y1="16.22" x2="229.9" y2="16.22"/><line class="d" x1="229.9" y1="134.59" x2="176.63" y2="134.59"/><line class="d" x1="123.37" y1="193.78" x2="176.63" y2="16.22"/><line class="d" x1="70.1" y1="193.78" x2="176.63" y2="134.59"/><line class="d" x1="16.83" y1="134.59" x2="176.63" y2="75.41"/><line class="d" x1="16.83" y1="75.41" x2="176.63" y2="134.59"/><line class="d" x1="283.17" y1="193.78" x2="229.9" y2="75.41"/><line class="d" x1="123.37" y1="193.78" x2="70.1" y2="134.59"/><line class="d" x1="123.37" y1="16.22" x2="229.9" y2="75.41"/><line class="d" x1="16.83" y1="193.78" x2="70.1" y2="16.22"/><line class="d" x1="176.63" y1="16.22" x2="229.9" y2="193.78"/></g><line class="c" x1="229.9" y1="193.78" x2="283.17" y2="134.59"/><line class="c" x1="176.63" y1="193.78" x2="229.9" y2="134.59"/><line class="c" x1="283.17" y1="134.59" x2="229.9" y2="134.59"/><line class="c" x1="123.37" y1="75.41" x2="176.63" y2="193.78"/><g><circle class="e" cx="16.83" cy="16.22" r="10.47"/><circle class="e" cx="70.1" cy="75.41" r="10.47"/><circle class="e" cx="70.1" cy="134.59" r="10.47"/><circle class="e" cx="70.1" cy="193.78" r="10.47"/><circle class="e" cx="16.83" cy="75.41" r="10.47"/><circle class="e" cx="16.83" cy="134.59" r="10.47"/><circle class="e" cx="16.83" cy="193.78" r="10.47"/><circle class="e" cx="70.1" cy="16.22" r="10.47"/><circle class="e" cx="123.37" cy="16.22" r="10.47"/><circle class="f" cx="123.37" cy="75.41" r="10.47"/><circle class="e" cx="123.37" cy="134.59" r="10.47"/><circle class="e" cx="123.37" cy="193.78" r="10.47"/><circle class="e" cx="176.63" cy="16.22" r="10.47"/><circle class="e" cx="176.63" cy="75.41" r="10.47"/><circle class="e" cx="176.63" cy="134.59" r="10.47"/><circle class="g" cx="176.63" cy="193.78" r="10.47"/><circle class="e" cx="229.9" cy="16.22" r="10.47"/><circle class="e" cx="229.9" cy="75.41" r="10.47"/><circle class="g" cx="229.9" cy="134.59" r="10.47"/><circle class="f" cx="229.9" cy="193.78" r="10.47"/><circle class="e" cx="283.17" cy="16.22" r="10.47"/><circle class="e" cx="283.17" cy="75.41" r="10.47"/><circle class="g" cx="283.17" cy="134.59" r="10.47"/><circle class="e" cx="283.17" cy="193.78" r="10.47"/></g><g><g><path class="h" d="M121.45,78.88c-.55,0-1.03-.11-1.45-.33-.42-.22-.74-.54-.97-.94-.23-.4-.35-.88-.35-1.42v-4.25h1.31v4.24c0,.22,.04,.43,.11,.61,.08,.18,.18,.34,.31,.47,.13,.13,.29,.23,.47,.3,.18,.07,.37,.11,.57,.11s.4-.04,.58-.11c.18-.07,.33-.18,.47-.31,.13-.13,.24-.29,.31-.47,.07-.18,.11-.38,.11-.61v-4.25h1.31v4.26c0,.55-.12,1.02-.35,1.42-.23,.4-.56,.72-.97,.94-.42,.22-.9,.33-1.45,.33Z"/><path class="h" d="M126.73,78.74v-5.41l-1.28,.79v-1.42l1.28-.77h1.32v6.81h-1.32Z"/></g><circle class="b" cx="123.37" cy="75.41" r="10.47"/></g><g><g><path class="h" d="M226.89,197.4c-.55,0-1.03-.11-1.45-.33-.42-.22-.74-.54-.97-.94-.23-.4-.35-.88-.35-1.42v-4.25h1.31v4.24c0,.22,.04,.43,.11,.61,.08,.18,.18,.34,.31,.47,.13,.13,.29,.23,.47,.3,.18,.07,.37,.11,.57,.11s.4-.04,.58-.11c.18-.07,.33-.18,.47-.31,.13-.13,.24-.29,.31-.47,.07-.18,.11-.38,.11-.61v-4.25h1.31v4.26c0,.55-.12,1.02-.35,1.42-.23,.4-.56,.72-.97,.94-.42,.22-.9,.33-1.45,.33Z"/><path class="h" d="M230.79,197.25v-1.12l2.86-2.54c.21-.19,.37-.37,.45-.53,.09-.17,.13-.32,.13-.47,0-.21-.04-.39-.13-.56-.09-.16-.21-.29-.36-.38-.15-.09-.34-.14-.54-.14s-.41,.05-.57,.15c-.17,.1-.29,.23-.39,.39-.09,.16-.13,.34-.13,.53h-1.33c0-.47,.1-.87,.31-1.21s.49-.6,.86-.79c.37-.19,.79-.28,1.28-.28,.45,0,.84,.1,1.2,.29,.35,.19,.63,.46,.83,.81s.3,.75,.3,1.21c0,.34-.05,.62-.14,.84-.09,.22-.24,.43-.42,.62-.19,.19-.41,.4-.69,.64l-1.85,1.62-.1-.28h3.2v1.21h-4.77Z"/></g><circle class="b" cx="229.84" cy="193.85" r="10.47"/></g><path class="h" d="M299,1V209H1V1H299M300,0H0V210H300V0h0Z"/><circle class="e" cx="326.82" cy="193.78" r="10.47"/><circle class="f" cx="326.82" cy="162.34" r="10.47"/><circle class="g" cx="326.82" cy="99.32" r="10.47"/><g><path class="h" d="M345.84,102.95v-7.2h2.84c.07,0,.15,0,.25,0,.1,0,.19,.02,.28,.03,.39,.06,.72,.19,.98,.4,.26,.21,.46,.47,.6,.78,.13,.31,.2,.66,.2,1.05s-.07,.73-.2,1.04-.33,.58-.6,.79-.59,.34-.98,.4c-.09,.01-.18,.02-.28,.03-.1,0-.18,0-.25,0h-1.96v2.66h-.89Zm.89-3.5h1.93c.06,0,.13,0,.22-.01,.08,0,.16-.02,.23-.03,.23-.05,.42-.15,.56-.29,.15-.14,.25-.31,.32-.5s.1-.39,.1-.59-.03-.4-.1-.59-.17-.36-.32-.5c-.14-.14-.33-.24-.56-.29-.07-.02-.15-.03-.23-.04s-.15,0-.22,0h-1.93v2.85Z"/><path class="h" d="M353.33,103.1c-.4,0-.74-.07-1.01-.22s-.48-.34-.62-.59-.21-.51-.21-.8,.05-.53,.16-.74c.11-.21,.26-.38,.46-.52,.2-.14,.43-.25,.71-.33,.26-.07,.54-.13,.86-.18s.64-.1,.97-.14c.33-.04,.63-.08,.92-.12l-.32,.18c0-.48-.09-.83-.29-1.06-.2-.23-.55-.35-1.04-.35-.33,0-.61,.07-.86,.22s-.42,.39-.52,.72l-.85-.25c.13-.47,.38-.84,.76-1.12,.37-.27,.87-.4,1.47-.4,.49,0,.91,.09,1.26,.26,.35,.18,.6,.44,.76,.79,.08,.17,.12,.35,.15,.54,.02,.2,.03,.4,.03,.61v3.34h-.79v-1.29l.18,.12c-.2,.44-.49,.77-.85,.99-.37,.22-.81,.34-1.33,.34Zm.13-.75c.32,0,.6-.06,.83-.17s.42-.27,.57-.46c.14-.19,.24-.39,.28-.62,.05-.17,.08-.35,.08-.56,0-.21,0-.36,0-.47l.31,.13c-.29,.04-.58,.08-.86,.12-.28,.04-.54,.08-.79,.12-.25,.04-.47,.09-.68,.15-.15,.05-.28,.11-.41,.18s-.23,.17-.31,.28-.12,.26-.12,.43c0,.15,.04,.29,.11,.42,.07,.13,.19,.24,.35,.32,.16,.08,.37,.12,.62,.12Z"/><path class="h" d="M357.87,105.35l1.04-2.84,.02,.84-2.36-5.8h.93l1.85,4.67h-.32l1.73-4.67h.9l-2.94,7.8h-.87Z"/><path class="h" d="M362.49,102.95v-5.4h.79v1.45h.1v3.96h-.89Zm3.23,0v-3.42c0-.41-.1-.74-.31-.97-.21-.24-.5-.35-.85-.35s-.63,.12-.85,.36c-.22,.24-.33,.56-.33,.95l-.47-.28c0-.35,.08-.66,.25-.94,.17-.28,.39-.49,.68-.65s.61-.24,.97-.24,.68,.08,.95,.23c.27,.15,.48,.37,.62,.66,.15,.28,.22,.62,.22,1.02v3.63h-.89Zm3.23,0v-3.46c0-.4-.1-.72-.32-.95-.21-.23-.49-.34-.84-.34-.2,0-.39,.05-.57,.14-.18,.09-.33,.23-.44,.43s-.17,.44-.17,.75l-.47-.19c0-.38,.07-.72,.24-1.01,.17-.29,.39-.51,.68-.67,.29-.16,.61-.24,.97-.24,.56,0,1.01,.17,1.33,.51,.32,.34,.48,.8,.48,1.38v3.65h-.89Z"/><path class="h" d="M373.44,103.1c-.53,0-.99-.12-1.39-.35-.39-.23-.7-.56-.92-.98-.22-.42-.33-.91-.33-1.48s.11-1.1,.32-1.53,.52-.77,.91-1c.39-.24,.84-.35,1.37-.35s1.01,.12,1.39,.38c.38,.25,.67,.61,.86,1.07,.19,.46,.28,1.02,.25,1.66h-.9v-.32c0-.66-.14-1.16-.4-1.49s-.65-.49-1.16-.49c-.55,0-.97,.18-1.25,.53-.29,.35-.43,.86-.43,1.52s.14,1.13,.43,1.48c.29,.35,.69,.53,1.22,.53,.36,0,.67-.08,.93-.25s.47-.4,.62-.71l.86,.29c-.21,.48-.53,.85-.95,1.11-.42,.26-.89,.39-1.42,.39Zm-1.99-2.6v-.71h3.99v.71h-3.99Z"/><path class="h" d="M376.85,102.95v-5.4h.8v1.45h.1v3.96h-.9Zm3.85,0v-2.71c0-.26-.02-.5-.07-.74s-.12-.45-.24-.64c-.11-.19-.26-.34-.45-.45s-.43-.17-.71-.17c-.22,0-.43,.04-.61,.11s-.34,.19-.47,.34c-.13,.15-.23,.35-.3,.58-.07,.23-.11,.5-.11,.82l-.59-.18c0-.52,.1-.97,.28-1.35s.45-.66,.79-.86c.34-.2,.74-.3,1.21-.3,.35,0,.65,.05,.9,.17,.25,.11,.45,.26,.61,.44,.16,.18,.29,.38,.39,.61,.09,.23,.16,.45,.2,.69,.04,.23,.06,.45,.06,.66v2.99h-.9Z"/><path class="h" d="M382.3,98.28v-.74h3.62v.74h-3.62Zm3.62,4.67c-.32,.06-.63,.09-.95,.08-.31-.01-.59-.07-.83-.19s-.43-.29-.55-.54c-.11-.21-.16-.43-.17-.65,0-.22-.01-.47-.01-.74v-4.86h.89v4.82c0,.22,0,.41,0,.56,0,.16,.04,.29,.1,.41,.12,.21,.31,.34,.57,.38,.26,.04,.58,.03,.95-.03v.77Z"/><path class="h" d="M391.97,103.1c-.72,0-1.32-.16-1.82-.48s-.88-.76-1.14-1.32-.39-1.21-.39-1.96,.13-1.39,.39-1.96c.26-.56,.64-1,1.14-1.32s1.11-.48,1.82-.48c.83,0,1.52,.21,2.06,.64,.54,.42,.91,.99,1.11,1.71l-.9,.24c-.15-.54-.41-.96-.79-1.27-.38-.31-.87-.46-1.48-.46-.54,0-.98,.12-1.34,.37-.36,.24-.62,.58-.8,1.02-.18,.44-.27,.94-.28,1.52,0,.57,.09,1.08,.27,1.51,.18,.44,.45,.78,.81,1.02,.36,.25,.81,.37,1.34,.37,.61,0,1.1-.16,1.48-.47s.64-.73,.79-1.27l.9,.24c-.2,.71-.57,1.28-1.11,1.71-.54,.42-1.22,.64-2.06,.64Z"/><path class="h" d="M396.24,102.95v-7.2h.8v3.97h.1v3.23h-.9Zm3.85,0v-2.71c0-.26-.02-.5-.07-.74s-.12-.45-.23-.64-.26-.34-.45-.45c-.19-.11-.43-.17-.71-.17-.22,0-.43,.04-.61,.11s-.34,.19-.47,.34c-.13,.15-.23,.35-.3,.58-.07,.23-.11,.5-.11,.82l-.58-.18c0-.52,.09-.97,.28-1.35,.19-.38,.45-.66,.79-.86,.34-.2,.74-.3,1.21-.3,.35,0,.65,.05,.89,.17,.25,.11,.45,.26,.62,.44s.29,.38,.38,.61c.09,.23,.16,.45,.2,.69,.04,.23,.06,.45,.06,.66v2.99h-.9Z"/><path class="h" d="M403.82,103.1c-.4,0-.74-.07-1.01-.22s-.48-.34-.62-.59-.21-.51-.21-.8,.05-.53,.16-.74c.11-.21,.26-.38,.46-.52s.43-.25,.71-.33c.26-.07,.54-.13,.86-.18s.64-.1,.97-.14,.63-.08,.91-.12l-.32,.18c0-.48-.09-.83-.29-1.06-.2-.23-.55-.35-1.04-.35-.33,0-.61,.07-.86,.22-.25,.15-.42,.39-.52,.72l-.85-.25c.13-.47,.38-.84,.76-1.12,.37-.27,.86-.4,1.47-.4,.49,0,.91,.09,1.26,.26,.35,.18,.6,.44,.76,.79,.08,.17,.12,.35,.14,.54,.02,.2,.03,.4,.03,.61v3.34h-.79v-1.29l.19,.12c-.2,.44-.49,.77-.85,.99-.37,.22-.81,.34-1.33,.34Zm.13-.75c.32,0,.6-.06,.83-.17,.24-.12,.43-.27,.57-.46s.24-.39,.28-.62c.05-.17,.08-.35,.08-.56,0-.21,0-.36,0-.47l.31,.13c-.29,.04-.57,.08-.86,.12-.28,.04-.54,.08-.79,.12-.25,.04-.47,.09-.67,.15-.15,.05-.29,.11-.41,.18-.13,.07-.23,.17-.31,.28s-.12,.26-.12,.43c0,.15,.04,.29,.11,.42,.08,.13,.19,.24,.35,.32,.16,.08,.37,.12,.62,.12Z"/><path class="h" d="M407.91,102.95v-5.4h.8v1.45h.1v3.96h-.9Zm3.85,0v-2.71c0-.26-.02-.5-.07-.74s-.12-.45-.23-.64-.26-.34-.45-.45c-.19-.11-.43-.17-.71-.17-.22,0-.43,.04-.61,.11s-.34,.19-.47,.34c-.13,.15-.23,.35-.3,.58-.07,.23-.11,.5-.11,.82l-.58-.18c0-.52,.09-.97,.28-1.35,.19-.38,.45-.66,.79-.86,.34-.2,.74-.3,1.21-.3,.35,0,.65,.05,.89,.17,.25,.11,.45,.26,.62,.44s.29,.38,.38,.61c.09,.23,.16,.45,.2,.69,.04,.23,.06,.45,.06,.66v2.99h-.9Z"/><path class="h" d="M413.96,102.95v-5.4h.8v1.45h.1v3.96h-.9Zm3.85,0v-2.71c0-.26-.02-.5-.07-.74s-.12-.45-.23-.64-.26-.34-.45-.45c-.19-.11-.43-.17-.71-.17-.22,0-.43,.04-.61,.11s-.34,.19-.47,.34c-.13,.15-.23,.35-.3,.58-.07,.23-.11,.5-.11,.82l-.58-.18c0-.52,.09-.97,.28-1.35,.19-.38,.45-.66,.79-.86,.34-.2,.74-.3,1.21-.3,.35,0,.65,.05,.89,.17,.25,.11,.45,.26,.62,.44s.29,.38,.38,.61c.09,.23,.16,.45,.2,.69,.04,.23,.06,.45,.06,.66v2.99h-.9Z"/><path class="h" d="M422.29,103.1c-.53,0-.99-.12-1.39-.35-.39-.23-.7-.56-.92-.98s-.33-.91-.33-1.48,.11-1.1,.32-1.53,.52-.77,.91-1c.39-.24,.84-.35,1.37-.35s1.01,.12,1.39,.38c.38,.25,.67,.61,.86,1.07,.19,.46,.27,1.02,.25,1.66h-.9v-.32c0-.66-.14-1.16-.4-1.49-.26-.33-.65-.49-1.16-.49-.55,0-.97,.18-1.26,.53-.29,.35-.43,.86-.43,1.52s.14,1.13,.43,1.48c.29,.35,.7,.53,1.22,.53,.36,0,.67-.08,.93-.25,.26-.16,.47-.4,.62-.71l.86,.29c-.21,.48-.53,.85-.95,1.11-.42,.26-.89,.39-1.42,.39Zm-2-2.6v-.71h3.99v.71h-3.99Z"/><path class="h" d="M425.96,102.95v-7.35h.89v7.35h-.89Z"/></g><g><path class="h" d="M348.68,134.54c-.56,0-1.05-.12-1.47-.34-.43-.23-.76-.55-1-.97s-.36-.9-.36-1.46v-4.57h.9v4.49c0,.34,.06,.64,.17,.89,.12,.25,.27,.46,.46,.63s.4,.29,.63,.37c.23,.08,.46,.12,.68,.12s.46-.04,.69-.12c.23-.08,.44-.21,.63-.37,.19-.17,.34-.37,.45-.63,.11-.25,.17-.55,.17-.89v-4.5h.9v4.58c0,.56-.12,1.04-.36,1.46-.24,.42-.58,.74-1,.97-.43,.23-.92,.34-1.47,.34Z"/><path class="h" d="M354.96,134.53c-.64,0-1.17-.14-1.58-.42s-.66-.68-.76-1.18l.91-.14c.07,.29,.24,.53,.51,.7,.26,.17,.59,.26,.98,.26s.66-.08,.87-.23c.21-.15,.31-.36,.31-.62,0-.15-.04-.28-.11-.37-.07-.1-.21-.18-.43-.27-.22-.08-.55-.18-.99-.3-.48-.13-.85-.26-1.12-.4s-.47-.29-.58-.47c-.12-.18-.18-.4-.18-.66,0-.32,.09-.59,.26-.83,.17-.24,.42-.42,.73-.55,.31-.13,.67-.2,1.09-.2s.78,.07,1.1,.2c.32,.13,.58,.31,.78,.55,.2,.24,.32,.52,.35,.83l-.91,.17c-.04-.29-.18-.52-.42-.69-.23-.17-.54-.25-.91-.26-.35-.01-.63,.05-.85,.19s-.33,.32-.33,.55c0,.13,.04,.24,.12,.33s.23,.18,.46,.26c.22,.08,.54,.18,.97,.29,.48,.12,.85,.25,1.13,.39,.27,.14,.47,.31,.59,.5,.12,.19,.18,.43,.18,.71,0,.52-.19,.93-.57,1.23-.38,.3-.91,.45-1.59,.45Z"/><path class="h" d="M360.56,134.54c-.53,0-.99-.12-1.39-.35-.39-.24-.7-.56-.92-.99s-.33-.91-.33-1.48,.11-1.1,.32-1.53,.52-.76,.91-1,.84-.35,1.37-.35,1.01,.12,1.39,.38c.38,.25,.67,.61,.86,1.07,.19,.46,.27,1.01,.25,1.65h-.9v-.32c0-.66-.14-1.16-.4-1.49-.26-.33-.65-.49-1.16-.49-.55,0-.97,.18-1.26,.53s-.43,.86-.43,1.52,.14,1.13,.43,1.48,.7,.53,1.22,.53c.36,0,.67-.08,.93-.25,.26-.16,.47-.4,.62-.71l.86,.29c-.21,.48-.53,.85-.95,1.11-.42,.26-.89,.39-1.42,.39Zm-2-2.6v-.71h3.99v.71h-3.99Z"/><path class="h" d="M364.13,134.39v-5.4h.79v1.3l-.13-.17c.06-.17,.14-.32,.25-.46,.1-.14,.22-.25,.34-.34,.14-.11,.3-.2,.47-.26,.18-.06,.36-.1,.54-.11,.18-.01,.36,0,.52,.04v.83c-.19-.05-.39-.06-.62-.04-.22,.02-.43,.1-.62,.25-.17,.12-.31,.27-.4,.45-.1,.18-.16,.37-.2,.57-.04,.21-.06,.41-.06,.63v2.71h-.89Z"/><path class="h" d="M371.12,134.39v-6.21l-1.36,.82v-1l1.36-.81h.91v7.2h-.91Z"/></g><g><path class="h" d="M345.84,197.41v-7.2h.81l2.72,5.74,2.71-5.74h.82v7.2h-.85v-5.24l-2.45,5.25h-.47l-2.45-5.25v5.25h-.84Z"/><path class="h" d="M354.39,191.05v-.92h.89v.92h-.89Zm0,6.36v-5.4h.89v5.4h-.89Z"/><path class="h" d="M356.78,197.41v-5.4h.8v1.45h.1v3.96h-.9Zm3.85,0v-2.71c0-.26-.02-.5-.07-.74s-.12-.45-.24-.64c-.11-.19-.26-.34-.45-.45s-.43-.17-.71-.17c-.22,0-.43,.04-.61,.11s-.34,.19-.47,.34c-.13,.15-.23,.35-.3,.58s-.11,.5-.11,.82l-.59-.18c0-.52,.1-.97,.28-1.35s.45-.66,.79-.87c.34-.2,.74-.3,1.21-.3,.35,0,.65,.06,.9,.17,.25,.11,.45,.26,.61,.44,.16,.18,.29,.38,.39,.61,.09,.22,.16,.45,.2,.69,.04,.23,.06,.45,.06,.66v2.99h-.9Z"/><path class="h" d="M362.93,191.05v-.92h.89v.92h-.89Zm0,6.36v-5.4h.89v5.4h-.89Z"/><path class="h" d="M365.31,197.41v-5.4h.79v1.45h.1v3.96h-.89Zm3.23,0v-3.42c0-.41-.1-.74-.31-.97-.21-.24-.5-.35-.85-.35s-.63,.12-.85,.36c-.22,.24-.33,.56-.33,.95l-.47-.28c0-.35,.08-.66,.25-.94,.17-.28,.39-.49,.68-.65s.61-.24,.97-.24,.68,.08,.95,.23c.27,.15,.48,.37,.62,.66,.15,.28,.22,.62,.22,1.02v3.63h-.89Zm3.23,0v-3.46c0-.4-.1-.72-.32-.95-.21-.23-.49-.34-.84-.34-.2,0-.39,.05-.57,.14-.18,.09-.33,.23-.44,.43s-.17,.44-.17,.75l-.47-.19c0-.38,.07-.72,.24-1.01,.17-.29,.39-.51,.68-.67s.61-.24,.97-.24c.56,0,1.01,.17,1.33,.51,.32,.34,.48,.8,.48,1.38v3.65h-.89Z"/><path class="h" d="M375.51,197.56c-.4,0-.74-.07-1.01-.22s-.48-.34-.62-.59c-.14-.24-.21-.51-.21-.8s.05-.53,.16-.74c.11-.21,.26-.38,.46-.52,.2-.14,.43-.25,.71-.33,.26-.07,.54-.13,.86-.18,.32-.05,.64-.1,.97-.14,.33-.04,.63-.08,.92-.12l-.32,.19c0-.48-.09-.83-.29-1.06-.2-.23-.55-.35-1.04-.35-.33,0-.61,.07-.86,.22s-.42,.39-.52,.72l-.85-.25c.13-.47,.38-.84,.76-1.12s.87-.41,1.47-.41c.49,0,.91,.09,1.26,.26s.6,.44,.76,.79c.08,.17,.12,.35,.15,.54,.02,.2,.03,.4,.03,.61v3.34h-.79v-1.29l.18,.12c-.2,.44-.49,.77-.85,.99s-.81,.34-1.33,.34Zm.13-.75c.32,0,.6-.06,.83-.17s.42-.27,.57-.46c.14-.19,.24-.39,.28-.62,.05-.17,.08-.35,.08-.56,0-.21,0-.36,0-.47l.31,.14c-.29,.04-.58,.08-.86,.11-.28,.04-.54,.08-.79,.12s-.47,.09-.68,.15c-.15,.05-.28,.11-.41,.18-.13,.07-.23,.17-.31,.28s-.12,.26-.12,.43c0,.15,.04,.29,.11,.42,.07,.13,.19,.24,.35,.32,.16,.08,.37,.12,.62,.12Z"/><path class="h" d="M381.6,197.41v-7.2h.9l3.76,5.62v-5.62h.9v7.2h-.9l-3.76-5.63v5.63h-.9Z"/><path class="h" d="M390.85,197.56c-.54,0-1-.12-1.39-.37-.39-.24-.69-.58-.9-1.01-.21-.43-.31-.92-.31-1.48s.11-1.06,.32-1.49,.52-.76,.9-1c.39-.24,.85-.36,1.38-.36s1.01,.12,1.39,.36c.39,.24,.69,.58,.9,1,.21,.43,.31,.92,.31,1.48s-.11,1.06-.31,1.49c-.21,.43-.51,.76-.9,1s-.85,.36-1.39,.36Zm0-.85c.56,0,.98-.19,1.25-.56s.41-.86,.41-1.45-.14-1.1-.41-1.46c-.28-.36-.69-.54-1.25-.54-.38,0-.69,.08-.93,.25-.24,.17-.43,.41-.54,.71-.12,.3-.18,.65-.18,1.04,0,.61,.14,1.09,.42,1.46,.28,.37,.69,.55,1.23,.55Z"/><path class="h" d="M396.68,197.56c-.5,0-.94-.13-1.29-.38-.36-.25-.64-.59-.83-1.02-.2-.43-.29-.92-.29-1.46s.1-1.03,.29-1.46,.47-.77,.83-1.02c.36-.25,.79-.37,1.29-.37s.94,.12,1.29,.37c.35,.25,.61,.58,.79,1.01,.18,.43,.27,.92,.27,1.46s-.09,1.02-.27,1.45-.44,.77-.79,1.02c-.35,.25-.77,.38-1.28,.38Zm.11-.82c.36,0,.66-.09,.89-.26,.23-.18,.41-.42,.52-.72,.11-.31,.17-.66,.17-1.05s-.06-.75-.17-1.06c-.11-.3-.28-.54-.51-.71-.23-.17-.52-.26-.88-.26s-.67,.09-.91,.27c-.24,.18-.41,.42-.53,.73s-.17,.65-.17,1.03,.06,.73,.18,1.04,.29,.55,.53,.73,.53,.27,.88,.27Zm1.58,.67v-3.98h-.1v-3.23h.89v7.2h-.79Z"/><path class="h" d="M402.9,197.56c-.53,0-.99-.12-1.39-.35-.39-.23-.7-.56-.92-.98s-.33-.91-.33-1.48,.11-1.1,.32-1.53,.52-.77,.91-1c.39-.24,.84-.35,1.37-.35s1.01,.12,1.39,.38c.38,.25,.67,.61,.86,1.07s.27,1.02,.25,1.65h-.9v-.32c0-.66-.14-1.16-.4-1.49-.26-.33-.65-.49-1.16-.49-.55,0-.97,.18-1.26,.53s-.43,.86-.43,1.52,.14,1.13,.43,1.48,.7,.53,1.22,.53c.36,0,.67-.08,.93-.25,.26-.16,.47-.4,.62-.71l.86,.29c-.21,.48-.53,.85-.95,1.11-.42,.26-.89,.39-1.42,.39Zm-2-2.6v-.71h3.99v.71h-3.99Z"/><path class="h" d="M408.51,197.55c-.64,0-1.17-.14-1.58-.42-.41-.28-.66-.68-.76-1.18l.91-.14c.07,.29,.24,.53,.51,.7s.59,.26,.98,.26c.37,0,.66-.08,.87-.23,.21-.15,.32-.36,.32-.62,0-.15-.04-.28-.11-.37s-.21-.18-.43-.27c-.22-.08-.55-.18-.99-.3-.48-.13-.85-.26-1.12-.39s-.47-.29-.59-.48-.17-.4-.17-.66c0-.32,.09-.59,.26-.83,.17-.24,.42-.42,.73-.55,.31-.13,.67-.2,1.09-.2s.78,.07,1.1,.2c.32,.13,.58,.31,.78,.55,.2,.24,.32,.52,.35,.83l-.91,.17c-.04-.29-.18-.52-.42-.68-.24-.17-.54-.26-.91-.27-.35-.01-.63,.05-.85,.19-.22,.14-.33,.32-.33,.55,0,.13,.04,.24,.12,.33,.08,.09,.23,.18,.46,.26,.22,.08,.54,.18,.97,.29,.48,.12,.85,.25,1.13,.39,.28,.14,.47,.31,.59,.5s.18,.43,.18,.71c0,.52-.19,.93-.58,1.23s-.91,.45-1.58,.45Z"/></g><g><g><path class="h" d="M323.87,165.89c-.55,0-1.03-.11-1.45-.33-.42-.22-.74-.54-.97-.94-.23-.4-.35-.88-.35-1.42v-4.25h1.31v4.24c0,.22,.04,.43,.11,.61,.08,.18,.18,.34,.31,.47,.13,.13,.29,.23,.47,.3,.18,.07,.37,.11,.57,.11s.4-.04,.58-.11c.18-.07,.33-.18,.47-.31,.13-.13,.24-.29,.31-.47,.07-.18,.11-.38,.11-.61v-4.25h1.31v4.26c0,.55-.12,1.02-.35,1.42-.23,.4-.56,.72-.97,.94-.42,.22-.9,.33-1.45,.33Z"/><path class="h" d="M327.78,165.74v-1.12l2.86-2.54c.21-.19,.37-.37,.45-.53,.09-.17,.13-.32,.13-.47,0-.21-.04-.39-.13-.56-.09-.16-.21-.29-.36-.38-.15-.09-.34-.14-.54-.14s-.41,.05-.57,.15c-.17,.1-.29,.23-.39,.39-.09,.16-.13,.34-.13,.53h-1.33c0-.47,.1-.87,.31-1.21s.49-.6,.86-.79c.37-.19,.79-.28,1.28-.28,.45,0,.84,.1,1.2,.29,.35,.19,.63,.46,.83,.81s.3,.75,.3,1.21c0,.34-.05,.62-.14,.84-.09,.22-.24,.43-.42,.62-.19,.19-.41,.4-.69,.64l-1.85,1.62-.1-.28h3.2v1.21h-4.77Z"/></g><circle class="b" cx="326.82" cy="162.34" r="10.47"/></g><g><circle class="b" cx="326.82" cy="130.83" r="10.47"/><g><path class="h" d="M324.91,134.31c-.55,0-1.03-.11-1.45-.33-.42-.22-.74-.54-.97-.94-.23-.4-.35-.88-.35-1.42v-4.25h1.31v4.24c0,.22,.04,.43,.11,.61,.08,.18,.18,.34,.31,.47,.13,.13,.29,.23,.47,.3,.18,.07,.37,.11,.57,.11s.4-.04,.58-.11c.18-.07,.33-.18,.47-.31,.13-.13,.24-.29,.31-.47,.07-.18,.11-.38,.11-.61v-4.25h1.31v4.26c0,.55-.12,1.02-.35,1.42-.23,.4-.56,.72-.97,.94-.42,.22-.9,.33-1.45,.33Z"/><path class="h" d="M330.19,134.17v-5.41l-1.28,.79v-1.42l1.28-.77h1.32v6.81h-1.32Z"/></g></g><g><path class="h" d="M348.68,165.98c-.56,0-1.05-.12-1.47-.35-.43-.23-.76-.55-1-.97s-.36-.9-.36-1.46v-4.57h.9v4.5c0,.34,.06,.64,.17,.89s.27,.46,.46,.63c.19,.17,.4,.29,.63,.37,.23,.08,.46,.12,.68,.12s.46-.04,.69-.12c.23-.08,.44-.21,.63-.37,.19-.17,.34-.37,.45-.63,.11-.25,.17-.55,.17-.88v-4.5h.9v4.58c0,.56-.12,1.04-.36,1.46s-.58,.74-1,.97c-.43,.23-.92,.35-1.47,.35Z"/><path class="h" d="M354.96,165.97c-.64,0-1.17-.14-1.58-.42-.41-.28-.66-.68-.76-1.18l.91-.15c.07,.29,.24,.53,.51,.7,.26,.17,.59,.26,.98,.26s.66-.08,.87-.23c.21-.15,.31-.36,.31-.62,0-.15-.04-.28-.11-.37s-.21-.18-.43-.27c-.22-.08-.55-.18-.99-.3-.48-.13-.85-.26-1.12-.39s-.47-.29-.58-.48c-.12-.18-.18-.4-.18-.66,0-.32,.09-.59,.26-.83s.42-.42,.73-.55c.31-.13,.67-.19,1.09-.19s.78,.06,1.1,.19c.32,.13,.58,.31,.78,.55,.2,.24,.32,.52,.35,.83l-.91,.17c-.04-.29-.18-.52-.42-.68s-.54-.25-.91-.26c-.35-.01-.63,.05-.85,.18s-.33,.32-.33,.55c0,.13,.04,.24,.12,.33,.08,.09,.23,.18,.46,.27,.22,.08,.54,.18,.97,.29,.48,.12,.85,.25,1.13,.39,.27,.14,.47,.31,.59,.5,.12,.19,.18,.43,.18,.71,0,.52-.19,.93-.57,1.23-.38,.3-.91,.45-1.59,.45Z"/><path class="h" d="M360.56,165.98c-.53,0-.99-.12-1.39-.35-.39-.23-.7-.56-.92-.98s-.33-.91-.33-1.48,.11-1.1,.32-1.53,.52-.77,.91-1c.39-.24,.84-.35,1.37-.35s1.01,.12,1.39,.38c.38,.25,.67,.61,.86,1.07,.19,.46,.27,1.02,.25,1.66h-.9v-.32c0-.66-.14-1.16-.4-1.49-.26-.33-.65-.49-1.16-.49-.55,0-.97,.18-1.26,.53-.29,.35-.43,.86-.43,1.52s.14,1.13,.43,1.48c.29,.35,.7,.53,1.22,.53,.36,0,.67-.08,.93-.25,.26-.16,.47-.4,.62-.71l.86,.29c-.21,.48-.53,.85-.95,1.11-.42,.26-.89,.39-1.42,.39Zm-2-2.6v-.71h3.99v.71h-3.99Z"/><path class="h" d="M364.13,165.83v-5.4h.79v1.3l-.13-.17c.06-.17,.14-.32,.25-.46,.1-.14,.22-.25,.34-.34,.14-.11,.3-.2,.47-.26,.18-.06,.36-.1,.54-.11,.18-.01,.36,0,.52,.04v.83c-.19-.05-.39-.06-.62-.04-.22,.02-.43,.11-.62,.25-.17,.12-.31,.27-.4,.45-.1,.18-.16,.37-.2,.57-.04,.21-.06,.41-.06,.63v2.71h-.89Z"/><path class="h" d="M369.66,165.82v-.8l3.2-2.88c.27-.24,.45-.47,.54-.68,.09-.22,.14-.44,.14-.66,0-.28-.06-.53-.19-.75-.12-.22-.3-.4-.52-.53-.22-.13-.47-.19-.74-.19s-.54,.07-.76,.2c-.22,.13-.4,.31-.53,.54-.13,.22-.19,.47-.19,.73h-.91c0-.45,.1-.85,.31-1.2,.21-.35,.5-.62,.86-.82s.77-.3,1.23-.3,.85,.1,1.2,.31c.35,.21,.63,.48,.84,.83s.31,.75,.31,1.19c0,.31-.04,.58-.12,.82-.08,.23-.2,.44-.36,.64-.16,.19-.37,.4-.62,.62l-2.65,2.38-.12-.3h3.87v.85h-4.79Z"/></g></svg>