<?xml version="1.0" encoding="UTF-8"?><svg id="a" xmlns="http://www.w3.org/2000/svg" viewBox="0 0 469.31 210"><defs><style>.b,.c,.d,.e{fill:none;}.c,.f,.g,.h,.d{stroke:#363a3f;}.c,.f,.g,.h,.e{stroke-miterlimit:10;}.c,.d{stroke-width:3px;}.i{fill:#91919d;}.j{fill:#363a3f;}.f{fill:#ffb229;}.g{fill:#b573a5;}.h{fill:#6db79b;}.d{stroke-dasharray:0 0 5 9;stroke-miterlimit:3;}.e{stroke:#91919d;stroke-width:.98px;}</style></defs><line class="c" x1="123.37" y1="134.59" x2="16.83" y2="75.41"/><line class="c" x1="123.37" y1="134.59" x2="16.83" y2="193.78"/><g><line class="e" x1="91.38" y1="141.91" x2="60.08" y2="159.3"/><polygon class="i" points="60.27 157.25 55.54 161.82 61.92 160.23 60.27 157.25"/></g><g><line class="e" x1="100.24" y1="157.86" x2="68.94" y2="175.25"/><polygon class="i" points="69.12 173.2 64.4 177.76 70.78 176.17 69.12 173.2"/></g><g><line class="e" x1="98.48" y1="110.34" x2="67.18" y2="92.95"/><polygon class="i" points="69.02 92.02 62.64 90.43 67.37 95 69.02 92.02"/></g><g><line class="e" x1="89.62" y1="126.28" x2="58.32" y2="108.89"/><polygon class="i" points="60.16 107.97 53.79 106.37 58.51 110.94 60.16 107.97"/></g><g><line class="e" x1="145.62" y1="107.36" x2="160.31" y2="74.71"/><polygon class="i" points="161.39 76.46 162.44 69.98 158.29 75.07 161.39 76.46"/></g><g><line class="e" x1="128.99" y1="99.88" x2="143.68" y2="67.22"/><polygon class="i" points="144.76 68.98 145.81 62.49 141.66 67.58 144.76 68.98"/></g><g><line class="e" x1="37.78" y1="65.76" x2="61.73" y2="39.14"/><polygon class="i" points="62.22 41.14 65.2 35.29 59.69 38.87 62.22 41.14"/></g><g><line class="e" x1="24.23" y1="53.56" x2="48.18" y2="26.94"/><polygon class="i" points="48.67 28.94 51.65 23.09 46.14 26.67 48.67 28.94"/></g><g><line class="e" x1="208.85" y1="25.34" x2="244.66" y2="25.34"/><polygon class="i" points="243.5 27.04 249.84 25.34 243.5 23.64 243.5 27.04"/></g><g><line class="e" x1="208.85" y1="7.1" x2="244.66" y2="7.1"/><polygon class="i" points="243.5 8.8 249.84 7.1 243.5 5.4 243.5 8.8"/></g><g><line class="e" x1="234.7" y1="94.37" x2="258.66" y2="120.99"/><polygon class="i" points="256.62 121.26 262.13 124.84 259.14 118.99 256.62 121.26"/></g><g><line class="e" x1="248.26" y1="82.17" x2="272.21" y2="108.79"/><polygon class="i" points="270.17 109.06 275.68 112.64 272.7 106.79 270.17 109.06"/></g><g><line class="e" x1="96.95" y1="202.9" x2="132.76" y2="202.9"/><polygon class="i" points="131.6 204.6 137.94 202.9 131.6 201.2 131.6 204.6"/></g><g><line class="e" x1="96.95" y1="184.66" x2="132.76" y2="184.66"/><polygon class="i" points="131.6 186.36 137.94 184.66 131.6 182.96 131.6 186.36"/></g><g><line class="e" x1="163.67" y1="122.63" x2="194.97" y2="105.24"/><polygon class="i" points="194.78 107.3 199.5 102.73 193.13 104.32 194.78 107.3"/></g><g><line class="e" x1="154.81" y1="106.69" x2="186.11" y2="89.3"/><polygon class="i" points="185.92 91.35 190.65 86.79 184.27 88.38 185.92 91.35"/></g><line class="c" x1="123.37" y1="134.59" x2="176.63" y2="16.22"/><line class="c" x1="123.37" y1="134.59" x2="229.9" y2="75.41"/><line class="d" x1="229.9" y1="75.41" x2="283.17" y2="134.59"/><line class="d" x1="16.83" y1="193.78" x2="176.63" y2="193.78"/><line class="d" x1="16.83" y1="75.41" x2="70.1" y2="16.22"/><line class="d" x1="176.63" y1="16.22" x2="283.17" y2="16.22"/><g><circle class="b" cx="16.83" cy="16.22" r="10.47"/><circle class="b" cx="70.1" cy="75.41" r="10.47"/><circle class="b" cx="70.1" cy="134.59" r="10.47"/><circle class="b" cx="70.1" cy="193.78" r="10.47"/><circle class="h" cx="16.83" cy="75.41" r="10.47"/><circle class="b" cx="16.83" cy="134.59" r="10.47"/><circle class="h" cx="16.83" cy="193.78" r="10.47"/><circle class="g" cx="70.1" cy="16.22" r="10.47"/><circle class="b" cx="123.37" cy="16.22" r="10.47"/><circle class="b" cx="123.37" cy="75.41" r="10.47"/><circle class="f" cx="123.37" cy="134.59" r="10.47"/><circle class="b" cx="123.37" cy="193.78" r="10.47"/><circle class="h" cx="176.63" cy="16.22" r="10.47"/><circle class="b" cx="176.63" cy="75.41" r="10.47"/><circle class="b" cx="176.63" cy="134.59" r="10.47"/><circle class="g" cx="176.63" cy="193.78" r="10.47"/><circle class="b" cx="229.9" cy="16.22" r="10.47"/><circle class="h" cx="229.9" cy="75.41" r="10.47"/><circle class="b" cx="229.9" cy="134.59" r="10.47"/><circle class="b" cx="229.9" cy="193.78" r="10.47"/><circle class="g" cx="283.17" cy="16.22" r="10.47"/><circle class="b" cx="283.17" cy="75.41" r="10.47"/><circle class="g" cx="283.17" cy="134.59" r="10.47"/><circle class="b" cx="283.17" cy="193.78" r="10.47"/></g><g><path class="j" d="M176.62,19.63v-5.41l-1.28,.79v-1.42l1.28-.77h1.32v6.81h-1.32Z"/><circle class="b" cx="176.63" cy="16.22" r="10.47"/></g><g><path class="j" d="M16.81,78.81v-5.41l-1.28,.79v-1.42l1.28-.77h1.32v6.81h-1.32Z"/><circle class="b" cx="16.83" cy="75.41" r="10.47"/></g><g><path class="j" d="M16.81,197.19v-5.41l-1.28,.79v-1.42l1.28-.77h1.32v6.81h-1.32Z"/><circle class="b" cx="16.83" cy="193.78" r="10.47"/></g><g><path class="j" d="M229.88,78.81v-5.41l-1.28,.79v-1.42l1.28-.77h1.32v6.81h-1.32Z"/><circle class="b" cx="229.9" cy="75.41" r="10.47"/></g><g><path class="j" d="M280.79,19.69v-1.12l2.86-2.54c.21-.19,.37-.37,.45-.53,.09-.17,.13-.32,.13-.47,0-.21-.04-.39-.13-.56-.09-.16-.21-.29-.36-.38-.15-.09-.34-.14-.54-.14s-.41,.05-.57,.15c-.17,.1-.29,.23-.39,.39-.09,.16-.13,.34-.13,.53h-1.33c0-.47,.1-.87,.31-1.21s.49-.6,.86-.79c.37-.19,.79-.28,1.28-.28,.45,0,.84,.1,1.2,.29,.35,.19,.63,.46,.83,.81s.3,.75,.3,1.21c0,.34-.05,.62-.14,.84-.09,.22-.24,.43-.42,.62-.19,.19-.41,.4-.69,.64l-1.85,1.62-.1-.28h3.2v1.21h-4.77Z"/><circle class="b" cx="283.17" cy="16.22" r="10.47"/></g><g><path class="j" d="M280.79,138.07v-1.12l2.86-2.54c.21-.19,.37-.37,.45-.53,.09-.17,.13-.32,.13-.47,0-.21-.04-.39-.13-.56-.09-.16-.21-.29-.36-.38-.15-.09-.34-.14-.54-.14s-.41,.05-.57,.15c-.17,.1-.29,.23-.39,.39-.09,.16-.13,.34-.13,.53h-1.33c0-.47,.1-.87,.31-1.21s.49-.6,.86-.79c.37-.19,.79-.28,1.28-.28,.45,0,.84,.1,1.2,.29,.35,.19,.63,.46,.83,.81s.3,.75,.3,1.21c0,.34-.05,.62-.14,.84-.09,.22-.24,.43-.42,.62-.19,.19-.41,.4-.69,.64l-1.85,1.62-.1-.28h3.2v1.21h-4.77Z"/><circle class="b" cx="283.17" cy="134.59" r="10.47"/></g><g><path class="j" d="M174.25,197.25v-1.12l2.86-2.54c.21-.19,.37-.37,.45-.53,.09-.17,.13-.32,.13-.47,0-.21-.04-.39-.13-.56-.09-.16-.21-.29-.36-.38-.15-.09-.34-.14-.54-.14s-.41,.05-.57,.15c-.17,.1-.29,.23-.39,.39-.09,.16-.13,.34-.13,.53h-1.33c0-.47,.1-.87,.31-1.21s.49-.6,.86-.79c.37-.19,.79-.28,1.28-.28,.45,0,.84,.1,1.2,.29,.35,.19,.63,.46,.83,.81s.3,.75,.3,1.21c0,.34-.05,.62-.14,.84-.09,.22-.24,.43-.42,.62-.19,.19-.41,.4-.69,.64l-1.85,1.62-.1-.28h3.2v1.21h-4.77Z"/><circle class="b" cx="176.63" cy="193.78" r="10.47"/></g><g><path class="j" d="M67.71,19.69v-1.12l2.86-2.54c.21-.19,.37-.37,.45-.53,.09-.17,.13-.32,.13-.47,0-.21-.04-.39-.13-.56-.09-.16-.21-.29-.36-.38-.15-.09-.34-.14-.54-.14s-.41,.05-.57,.15c-.17,.1-.29,.23-.39,.39-.09,.16-.13,.34-.13,.53h-1.33c0-.47,.1-.87,.31-1.21s.49-.6,.86-.79c.37-.19,.79-.28,1.28-.28,.45,0,.84,.1,1.2,.29,.35,.19,.63,.46,.83,.81s.3,.75,.3,1.21c0,.34-.05,.62-.14,.84-.09,.22-.24,.43-.42,.62-.19,.19-.41,.4-.69,.64l-1.85,1.62-.1-.28h3.2v1.21h-4.77Z"/><circle class="b" cx="70.1" cy="16.22" r="10.47"/></g><circle class="b" cx="123.37" cy="134.59" r="10.47"/><g><circle class="b" cx="123.37" cy="134.59" r="10.47"/><g><path class="j" d="M121.45,138.07c-.55,0-1.03-.11-1.45-.33-.42-.22-.74-.54-.97-.94-.23-.4-.35-.88-.35-1.42v-4.25h1.31v4.24c0,.22,.04,.43,.11,.61,.08,.18,.18,.34,.31,.47,.13,.13,.29,.23,.47,.3,.18,.07,.37,.11,.57,.11s.4-.04,.58-.11c.18-.07,.33-.18,.47-.31,.13-.13,.24-.29,.31-.47,.07-.18,.11-.38,.11-.61v-4.25h1.31v4.26c0,.55-.12,1.02-.35,1.42-.23,.4-.56,.72-.97,.94-.42,.22-.9,.33-1.45,.33Z"/><path class="j" d="M126.73,137.93v-5.41l-1.28,.79v-1.42l1.28-.77h1.32v6.81h-1.32Z"/></g></g><path class="j" d="M299,1V209H1V1H299M300,0H0V210H300V0h0Z"/><path class="j" d="M299,1V209H1V1H299M300,0H0V210H300V0h0Z"/><circle class="g" cx="326.82" cy="193.78" r="10.47"/><g><path class="j" d="M324.44,197.25v-1.12l2.86-2.54c.21-.19,.37-.37,.45-.53,.09-.17,.13-.32,.13-.47,0-.21-.04-.39-.13-.56-.09-.16-.21-.29-.36-.38-.15-.09-.34-.14-.54-.14s-.41,.05-.57,.15c-.17,.1-.29,.23-.39,.39-.09,.16-.13,.34-.13,.53h-1.33c0-.47,.1-.87,.31-1.21s.49-.6,.86-.79c.37-.19,.79-.28,1.28-.28,.45,0,.84,.1,1.2,.29,.35,.19,.63,.46,.83,.81s.3,.75,.3,1.21c0,.34-.05,.62-.14,.84-.09,.22-.24,.43-.42,.62-.19,.19-.41,.4-.69,.64l-1.85,1.62-.1-.28h3.2v1.21h-4.77Z"/><circle class="b" cx="326.82" cy="193.78" r="10.47"/></g><circle class="h" cx="326.82" cy="162.34" r="10.47"/><circle class="f" cx="326.82" cy="130.9" r="10.47"/><g><path class="j" d="M326.8,165.75v-5.41l-1.28,.79v-1.42l1.28-.77h1.32v6.81h-1.32Z"/><circle class="b" cx="326.82" cy="162.34" r="10.47"/></g><g><circle class="b" cx="326.82" cy="130.9" r="10.47"/><g><path class="j" d="M324.91,134.38c-.55,0-1.03-.11-1.45-.33-.42-.22-.74-.54-.97-.94-.23-.4-.35-.88-.35-1.42v-4.25h1.31v4.24c0,.22,.04,.43,.11,.61,.08,.18,.18,.34,.31,.47,.13,.13,.29,.23,.47,.3,.18,.07,.37,.11,.57,.11s.4-.04,.58-.11c.18-.07,.33-.18,.47-.31,.13-.13,.24-.29,.31-.47,.07-.18,.11-.38,.11-.61v-4.25h1.31v4.26c0,.55-.12,1.02-.35,1.42-.23,.4-.56,.72-.97,.94-.42,.22-.9,.33-1.45,.33Z"/><path class="j" d="M330.19,134.24v-5.41l-1.28,.79v-1.42l1.28-.77h1.32v6.81h-1.32Z"/></g></g><g><path class="j" d="M348.68,134.68c-.56,0-1.05-.12-1.47-.35-.43-.23-.76-.55-1-.97s-.36-.9-.36-1.46v-4.57h.9v4.5c0,.34,.06,.64,.17,.89s.27,.46,.46,.63c.19,.17,.4,.29,.63,.37,.23,.08,.46,.12,.68,.12s.46-.04,.69-.12c.23-.08,.44-.21,.63-.37,.19-.17,.34-.37,.45-.63,.11-.25,.17-.55,.17-.88v-4.5h.9v4.58c0,.56-.12,1.04-.36,1.46s-.58,.74-1,.97c-.43,.23-.92,.35-1.47,.35Z"/><path class="j" d="M354.96,134.67c-.64,0-1.17-.14-1.58-.42-.41-.28-.66-.68-.76-1.18l.91-.15c.07,.29,.24,.53,.51,.7,.26,.17,.59,.26,.98,.26s.66-.08,.87-.23c.21-.15,.31-.36,.31-.62,0-.15-.04-.28-.11-.37s-.21-.18-.43-.27c-.22-.08-.55-.18-.99-.3-.48-.13-.85-.26-1.12-.39s-.47-.29-.58-.48c-.12-.18-.18-.4-.18-.66,0-.32,.09-.59,.26-.83s.42-.42,.73-.55c.31-.13,.67-.19,1.09-.19s.78,.06,1.1,.19c.32,.13,.58,.31,.78,.55,.2,.24,.32,.52,.35,.83l-.91,.17c-.04-.29-.18-.52-.42-.68s-.54-.25-.91-.26c-.35-.01-.63,.05-.85,.18s-.33,.32-.33,.55c0,.13,.04,.24,.12,.33,.08,.09,.23,.18,.46,.27,.22,.08,.54,.18,.97,.29,.48,.12,.85,.25,1.13,.39,.27,.14,.47,.31,.59,.5,.12,.19,.18,.43,.18,.71,0,.52-.19,.93-.57,1.23-.38,.3-.91,.45-1.59,.45Z"/><path class="j" d="M360.56,134.68c-.53,0-.99-.12-1.39-.35-.39-.23-.7-.56-.92-.98s-.33-.91-.33-1.48,.11-1.1,.32-1.53,.52-.77,.91-1c.39-.24,.84-.35,1.37-.35s1.01,.12,1.39,.38c.38,.25,.67,.61,.86,1.07,.19,.46,.27,1.02,.25,1.66h-.9v-.32c0-.66-.14-1.16-.4-1.49-.26-.33-.65-.49-1.16-.49-.55,0-.97,.18-1.26,.53-.29,.35-.43,.86-.43,1.52s.14,1.13,.43,1.48c.29,.35,.7,.53,1.22,.53,.36,0,.67-.08,.93-.25,.26-.16,.47-.4,.62-.71l.86,.29c-.21,.48-.53,.85-.95,1.11-.42,.26-.89,.39-1.42,.39Zm-2-2.6v-.71h3.99v.71h-3.99Z"/><path class="j" d="M364.13,134.53v-5.4h.79v1.3l-.13-.17c.06-.17,.14-.32,.25-.46,.1-.14,.22-.25,.34-.34,.14-.11,.3-.2,.47-.26,.18-.06,.36-.1,.54-.11,.18-.01,.36,0,.52,.04v.83c-.19-.05-.39-.06-.62-.04-.22,.02-.43,.11-.62,.25-.17,.12-.31,.27-.4,.45-.1,.18-.16,.37-.2,.57-.04,.21-.06,.41-.06,.63v2.71h-.89Z"/><path class="j" d="M371.12,134.53v-6.21l-1.36,.82v-1l1.36-.81h.91v7.2h-.91Z"/><path class="j" d="M377.96,134.67c-.64,0-1.17-.14-1.58-.42-.41-.28-.66-.68-.76-1.18l.91-.15c.07,.29,.24,.53,.51,.7,.26,.17,.59,.26,.98,.26,.37,0,.66-.08,.87-.23,.21-.15,.32-.36,.32-.62,0-.15-.04-.28-.11-.37s-.21-.18-.43-.27c-.22-.08-.55-.18-.99-.3-.48-.13-.85-.26-1.12-.39s-.47-.29-.59-.48c-.12-.18-.17-.4-.17-.66,0-.32,.09-.59,.26-.83,.17-.24,.42-.42,.73-.55,.31-.13,.67-.19,1.09-.19s.78,.06,1.1,.19c.32,.13,.58,.31,.78,.55,.2,.24,.32,.52,.35,.83l-.91,.17c-.04-.29-.18-.52-.42-.68-.24-.17-.54-.25-.91-.26-.35-.01-.63,.05-.85,.18-.22,.14-.33,.32-.33,.55,0,.13,.04,.24,.12,.33,.08,.09,.23,.18,.46,.27,.22,.08,.54,.18,.97,.29,.48,.12,.85,.25,1.13,.39s.47,.31,.59,.5c.12,.19,.18,.43,.18,.71,0,.52-.19,.93-.58,1.23-.38,.3-.91,.45-1.58,.45Z"/><path class="j" d="M383.57,134.68c-.53,0-.99-.12-1.39-.35-.39-.23-.7-.56-.92-.98-.22-.42-.33-.91-.33-1.48s.11-1.1,.32-1.53,.52-.77,.91-1c.39-.24,.84-.35,1.37-.35s1.01,.12,1.39,.38c.38,.25,.67,.61,.86,1.07,.19,.46,.28,1.02,.25,1.66h-.9v-.32c0-.66-.14-1.16-.4-1.49s-.65-.49-1.16-.49c-.55,0-.97,.18-1.25,.53-.29,.35-.43,.86-.43,1.52s.14,1.13,.43,1.48c.29,.35,.69,.53,1.22,.53,.36,0,.67-.08,.93-.25s.47-.4,.62-.71l.86,.29c-.21,.48-.53,.85-.95,1.11-.42,.26-.89,.39-1.42,.39Zm-1.99-2.6v-.71h3.99v.71h-3.99Z"/><path class="j" d="M386.98,134.53v-5.4h.8v1.45h.1v3.96h-.9Zm3.85,0v-2.71c0-.26-.02-.5-.07-.74s-.12-.45-.24-.64c-.11-.19-.26-.34-.45-.45s-.43-.17-.71-.17c-.22,0-.43,.04-.61,.11s-.34,.19-.47,.34c-.13,.15-.23,.35-.3,.58-.07,.23-.11,.5-.11,.82l-.59-.18c0-.52,.1-.97,.28-1.35s.45-.66,.79-.86c.34-.2,.74-.3,1.21-.3,.35,0,.65,.05,.9,.17,.25,.11,.45,.26,.61,.44,.16,.18,.29,.38,.39,.61,.09,.23,.16,.45,.2,.69,.04,.23,.06,.45,.06,.66v2.99h-.9Z"/><path class="j" d="M395.1,134.68c-.5,0-.94-.13-1.29-.38-.36-.25-.64-.59-.83-1.02-.2-.43-.29-.92-.29-1.46s.1-1.03,.29-1.46,.47-.77,.83-1.02c.36-.25,.79-.37,1.29-.37s.94,.12,1.29,.37c.35,.25,.61,.58,.79,1.02,.18,.43,.27,.92,.27,1.46s-.09,1.02-.27,1.45-.44,.77-.79,1.03c-.35,.25-.77,.38-1.28,.38Zm.11-.82c.36,0,.66-.09,.89-.26,.23-.17,.41-.42,.52-.72,.11-.31,.17-.66,.17-1.05s-.06-.75-.17-1.06-.28-.54-.51-.71c-.23-.17-.52-.26-.88-.26s-.67,.09-.91,.27c-.24,.18-.41,.42-.53,.73s-.17,.65-.17,1.03,.06,.73,.18,1.04c.12,.31,.29,.55,.53,.73,.23,.18,.53,.27,.88,.27Zm1.58,.67v-3.98h-.1v-3.22h.89v7.2h-.79Z"/><path class="j" d="M399.08,128.17v-.92h.89v.92h-.89Zm0,6.36v-5.4h.89v5.4h-.89Z"/><path class="j" d="M401.47,134.53v-5.4h.8v1.45h.1v3.96h-.9Zm3.85,0v-2.71c0-.26-.02-.5-.07-.74s-.12-.45-.24-.64c-.11-.19-.26-.34-.45-.45s-.43-.17-.71-.17c-.22,0-.43,.04-.61,.11s-.34,.19-.47,.34c-.13,.15-.23,.35-.3,.58-.07,.23-.11,.5-.11,.82l-.59-.18c0-.52,.1-.97,.28-1.35s.45-.66,.79-.86c.34-.2,.74-.3,1.21-.3,.35,0,.65,.05,.9,.17,.25,.11,.45,.26,.61,.44,.16,.18,.29,.38,.39,.61,.09,.23,.16,.45,.2,.69,.04,.23,.06,.45,.06,.66v2.99h-.9Z"/><path class="j" d="M409.64,134.68c-.5,0-.94-.13-1.29-.38s-.64-.59-.83-1.02c-.2-.43-.29-.92-.29-1.46s.1-1.03,.29-1.46,.47-.77,.83-1.02,.79-.37,1.29-.37,.94,.12,1.28,.37c.35,.25,.61,.58,.79,1.02,.18,.43,.27,.92,.27,1.46s-.09,1.02-.27,1.45c-.18,.43-.44,.77-.79,1.03-.35,.25-.77,.38-1.28,.38Zm.06,2.4c-.28,0-.56-.04-.83-.13-.27-.09-.52-.22-.74-.39s-.41-.4-.56-.66l.82-.43c.13,.26,.32,.46,.57,.58,.25,.12,.5,.18,.76,.18,.34,0,.63-.06,.86-.19s.39-.31,.5-.56c.11-.25,.16-.55,.16-.92v-1.48h.1v-3.95h.79v5.44c0,.15,0,.29-.01,.42,0,.14-.03,.27-.05,.41-.07,.38-.21,.7-.42,.95s-.47,.43-.8,.55c-.33,.12-.7,.18-1.13,.18Zm.04-3.21c.36,0,.66-.09,.9-.26,.23-.17,.4-.42,.52-.72,.11-.31,.17-.66,.17-1.05s-.05-.75-.17-1.06c-.11-.3-.28-.54-.51-.71s-.52-.26-.88-.26-.67,.09-.91,.27c-.24,.18-.42,.42-.53,.73s-.17,.65-.17,1.03,.06,.73,.17,1.04c.12,.31,.29,.55,.53,.73,.23,.18,.53,.27,.88,.27Z"/><path class="j" d="M415.51,134.53v-5.4h.79v1.45h.1v3.96h-.89Zm3.23,0v-3.42c0-.41-.1-.74-.31-.97-.21-.24-.5-.35-.85-.35s-.63,.12-.85,.36c-.22,.24-.33,.56-.33,.95l-.47-.28c0-.35,.08-.66,.25-.94,.17-.28,.39-.49,.68-.65s.61-.24,.97-.24,.68,.08,.95,.23c.27,.15,.48,.37,.62,.66,.15,.28,.22,.62,.22,1.02v3.63h-.89Zm3.23,0v-3.46c0-.4-.1-.72-.32-.95-.21-.23-.49-.34-.84-.34-.2,0-.39,.05-.57,.14-.18,.09-.33,.23-.44,.43s-.17,.44-.17,.75l-.47-.19c0-.38,.07-.72,.24-1.01,.17-.29,.39-.51,.68-.67,.29-.16,.61-.24,.97-.24,.56,0,1.01,.17,1.33,.51,.32,.34,.48,.8,.48,1.38v3.65h-.89Z"/><path class="j" d="M426.46,134.68c-.53,0-.99-.12-1.39-.35-.39-.23-.7-.56-.92-.98s-.33-.91-.33-1.48,.11-1.1,.32-1.53,.52-.77,.91-1c.39-.24,.84-.35,1.37-.35s1.01,.12,1.39,.38c.38,.25,.67,.61,.86,1.07,.19,.46,.27,1.02,.25,1.66h-.9v-.32c0-.66-.14-1.16-.4-1.49-.26-.33-.65-.49-1.16-.49-.55,0-.97,.18-1.26,.53-.29,.35-.43,.86-.43,1.52s.14,1.13,.43,1.48c.29,.35,.7,.53,1.22,.53,.36,0,.67-.08,.93-.25,.26-.16,.47-.4,.62-.71l.86,.29c-.21,.48-.53,.85-.95,1.11-.42,.26-.89,.39-1.42,.39Zm-2-2.6v-.71h3.99v.71h-3.99Z"/><path class="j" d="M432.06,134.67c-.64,0-1.17-.14-1.58-.42-.41-.28-.66-.68-.76-1.18l.91-.15c.07,.29,.24,.53,.51,.7,.26,.17,.59,.26,.98,.26,.37,0,.66-.08,.87-.23,.21-.15,.32-.36,.32-.62,0-.15-.04-.28-.11-.37s-.21-.18-.43-.27c-.22-.08-.55-.18-.99-.3-.48-.13-.85-.26-1.12-.39s-.47-.29-.59-.48c-.12-.18-.17-.4-.17-.66,0-.32,.09-.59,.26-.83,.17-.24,.42-.42,.73-.55,.31-.13,.67-.19,1.09-.19s.78,.06,1.1,.19c.32,.13,.58,.31,.78,.55,.2,.24,.32,.52,.35,.83l-.91,.17c-.04-.29-.18-.52-.42-.68-.24-.17-.54-.25-.91-.26-.35-.01-.63,.05-.85,.18-.22,.14-.33,.32-.33,.55,0,.13,.04,.24,.12,.33,.08,.09,.23,.18,.46,.27,.22,.08,.54,.18,.97,.29,.48,.12,.85,.25,1.13,.39s.47,.31,.59,.5c.12,.19,.18,.43,.18,.71,0,.52-.19,.93-.58,1.23-.38,.3-.91,.45-1.58,.45Z"/><path class="j" d="M437.37,134.67c-.64,0-1.17-.14-1.58-.42-.41-.28-.66-.68-.76-1.18l.91-.15c.07,.29,.24,.53,.51,.7,.26,.17,.59,.26,.98,.26,.37,0,.66-.08,.87-.23,.21-.15,.32-.36,.32-.62,0-.15-.04-.28-.11-.37s-.21-.18-.43-.27c-.22-.08-.55-.18-.99-.3-.48-.13-.85-.26-1.12-.39s-.47-.29-.59-.48c-.12-.18-.17-.4-.17-.66,0-.32,.09-.59,.26-.83,.17-.24,.42-.42,.73-.55,.31-.13,.67-.19,1.09-.19s.78,.06,1.1,.19c.32,.13,.58,.31,.78,.55,.2,.24,.32,.52,.35,.83l-.91,.17c-.04-.29-.18-.52-.42-.68-.24-.17-.54-.25-.91-.26-.35-.01-.63,.05-.85,.18-.22,.14-.33,.32-.33,.55,0,.13,.04,.24,.12,.33,.08,.09,.23,.18,.46,.27,.22,.08,.54,.18,.97,.29,.48,.12,.85,.25,1.13,.39s.47,.31,.59,.5c.12,.19,.18,.43,.18,.71,0,.52-.19,.93-.58,1.23-.38,.3-.91,.45-1.58,.45Z"/><path class="j" d="M442.17,134.68c-.4,0-.74-.07-1.01-.22s-.48-.34-.62-.59-.21-.51-.21-.8,.05-.53,.16-.74c.11-.21,.26-.38,.46-.52s.43-.25,.71-.33c.26-.07,.54-.13,.86-.18s.64-.1,.97-.14,.63-.08,.91-.12l-.32,.18c0-.48-.09-.83-.29-1.06-.2-.23-.55-.35-1.04-.35-.33,0-.61,.07-.86,.22-.25,.15-.42,.39-.52,.72l-.85-.25c.13-.47,.38-.84,.76-1.12,.37-.27,.86-.4,1.47-.4,.49,0,.91,.09,1.26,.26,.35,.18,.6,.44,.76,.79,.08,.17,.12,.35,.14,.54,.02,.2,.03,.4,.03,.61v3.34h-.79v-1.29l.19,.12c-.2,.44-.49,.77-.85,.99-.37,.22-.81,.34-1.33,.34Zm.13-.75c.32,0,.6-.06,.83-.17,.24-.12,.43-.27,.57-.46s.24-.39,.28-.62c.05-.17,.08-.35,.08-.56,0-.21,0-.36,0-.47l.31,.13c-.29,.04-.57,.08-.86,.12-.28,.04-.54,.08-.79,.12-.25,.04-.47,.09-.67,.15-.15,.05-.29,.11-.41,.18-.13,.07-.23,.17-.31,.28s-.12,.26-.12,.43c0,.15,.04,.29,.11,.42,.08,.13,.19,.24,.35,.32,.16,.08,.37,.12,.62,.12Z"/><path class="j" d="M448.38,134.68c-.5,0-.94-.13-1.29-.38-.36-.25-.64-.59-.83-1.02-.2-.43-.29-.92-.29-1.46s.1-1.03,.29-1.46,.47-.77,.83-1.02c.36-.25,.79-.37,1.29-.37s.94,.12,1.29,.37c.35,.25,.61,.58,.79,1.02,.18,.43,.27,.92,.27,1.46s-.09,1.02-.27,1.45-.44,.77-.79,1.03c-.35,.25-.77,.38-1.28,.38Zm.06,2.4c-.28,0-.56-.04-.83-.13s-.52-.22-.74-.39-.41-.4-.56-.66l.81-.43c.13,.26,.32,.46,.57,.58,.24,.12,.5,.18,.76,.18,.34,0,.63-.06,.86-.19s.39-.31,.5-.56c.11-.25,.16-.55,.16-.92v-1.48h.11v-3.95h.79v5.44c0,.15,0,.29-.01,.42s-.03,.27-.05,.41c-.07,.38-.21,.7-.41,.95-.21,.25-.47,.43-.8,.55-.33,.12-.71,.18-1.13,.18Zm.04-3.21c.36,0,.66-.09,.89-.26,.23-.17,.41-.42,.52-.72,.11-.31,.17-.66,.17-1.05s-.06-.75-.17-1.06-.28-.54-.51-.71c-.23-.17-.52-.26-.88-.26s-.67,.09-.91,.27c-.24,.18-.41,.42-.53,.73s-.17,.65-.17,1.03,.06,.73,.18,1.04c.12,.31,.29,.55,.53,.73,.23,.18,.53,.27,.88,.27Z"/><path class="j" d="M454.6,134.68c-.53,0-.99-.12-1.39-.35-.39-.23-.7-.56-.92-.98-.22-.42-.33-.91-.33-1.48s.11-1.1,.32-1.53,.52-.77,.91-1c.39-.24,.84-.35,1.37-.35s1.01,.12,1.39,.38c.38,.25,.67,.61,.86,1.07,.19,.46,.28,1.02,.25,1.66h-.9v-.32c0-.66-.14-1.16-.4-1.49s-.65-.49-1.16-.49c-.55,0-.97,.18-1.25,.53-.29,.35-.43,.86-.43,1.52s.14,1.13,.43,1.48c.29,.35,.69,.53,1.22,.53,.36,0,.67-.08,.93-.25s.47-.4,.62-.71l.86,.29c-.21,.48-.53,.85-.95,1.11-.42,.26-.89,.39-1.42,.39Zm-1.99-2.6v-.71h3.99v.71h-3.99Z"/><path class="j" d="M460.2,134.67c-.64,0-1.17-.14-1.58-.42-.41-.28-.66-.68-.76-1.18l.91-.15c.07,.29,.24,.53,.51,.7,.26,.17,.59,.26,.98,.26s.66-.08,.87-.23c.21-.15,.31-.36,.31-.62,0-.15-.04-.28-.11-.37s-.21-.18-.43-.27c-.22-.08-.55-.18-.99-.3-.48-.13-.85-.26-1.12-.39s-.47-.29-.58-.48c-.12-.18-.18-.4-.18-.66,0-.32,.09-.59,.26-.83s.42-.42,.73-.55c.31-.13,.67-.19,1.09-.19s.78,.06,1.1,.19c.32,.13,.58,.31,.78,.55,.2,.24,.32,.52,.35,.83l-.91,.17c-.04-.29-.18-.52-.42-.68s-.54-.25-.91-.26c-.35-.01-.63,.05-.85,.18s-.33,.32-.33,.55c0,.13,.04,.24,.12,.33,.08,.09,.23,.18,.46,.27,.22,.08,.54,.18,.97,.29,.48,.12,.85,.25,1.13,.39,.27,.14,.47,.31,.59,.5,.12,.19,.18,.43,.18,.71,0,.52-.19,.93-.57,1.23-.38,.3-.91,.45-1.59,.45Z"/></g><g><path class="j" d="M347.09,165.97v-6.21l-1.36,.82v-1l1.36-.81h.91v7.2h-.91Z"/><path class="j" d="M351.94,166.11c-.64,0-1.17-.14-1.58-.42-.41-.28-.66-.68-.76-1.18l.91-.14c.07,.29,.24,.53,.51,.7s.59,.26,.98,.26c.37,0,.66-.08,.87-.23,.21-.15,.32-.36,.32-.62,0-.15-.04-.28-.11-.37s-.21-.18-.43-.27c-.22-.08-.55-.18-.99-.3-.48-.13-.85-.26-1.12-.39s-.47-.29-.59-.48-.17-.4-.17-.66c0-.32,.09-.59,.26-.83,.17-.24,.42-.42,.73-.55,.31-.13,.67-.2,1.09-.2s.78,.07,1.1,.2c.32,.13,.58,.31,.78,.55,.2,.24,.32,.52,.35,.83l-.91,.17c-.04-.29-.18-.52-.42-.68-.24-.17-.54-.26-.91-.27-.35-.01-.63,.05-.85,.19-.22,.14-.33,.32-.33,.55,0,.13,.04,.24,.12,.33,.08,.09,.23,.18,.46,.26,.22,.08,.54,.18,.97,.29,.48,.12,.85,.25,1.13,.39,.28,.14,.47,.31,.59,.5s.18,.43,.18,.71c0,.52-.19,.93-.58,1.23s-.91,.45-1.58,.45Z"/><path class="j" d="M354.6,161.3v-.73h3.62v.73h-3.62Zm3.62,4.67c-.32,.06-.64,.09-.95,.08-.31-.01-.59-.07-.83-.19-.24-.12-.43-.29-.55-.54-.11-.21-.16-.43-.17-.65s-.01-.47-.01-.74v-4.86h.89v4.82c0,.22,0,.41,0,.56,0,.16,.04,.29,.1,.41,.12,.21,.31,.34,.57,.38s.58,.03,.95-.03v.77Z"/><path class="j" d="M363.44,166.12c-.5,0-.94-.13-1.29-.38-.36-.25-.64-.59-.83-1.02-.2-.43-.29-.92-.29-1.46s.1-1.03,.29-1.46,.47-.77,.83-1.02c.36-.25,.79-.37,1.29-.37s.94,.12,1.29,.37c.35,.25,.61,.58,.79,1.01,.18,.43,.27,.92,.27,1.46s-.09,1.02-.27,1.45-.44,.77-.79,1.02c-.35,.25-.77,.38-1.28,.38Zm.11-.82c.36,0,.66-.09,.89-.26,.23-.18,.41-.42,.52-.72,.11-.31,.17-.66,.17-1.05s-.06-.75-.17-1.06c-.11-.3-.28-.54-.51-.71-.23-.17-.52-.26-.88-.26s-.67,.09-.91,.27c-.24,.18-.41,.42-.53,.73s-.17,.65-.17,1.03,.06,.73,.18,1.04,.29,.55,.53,.73,.53,.27,.88,.27Zm1.58,.67v-3.98h-.1v-3.23h.89v7.2h-.79Z"/><path class="j" d="M369.66,166.12c-.53,0-.99-.12-1.39-.35-.39-.23-.7-.56-.92-.98s-.33-.91-.33-1.48,.11-1.1,.32-1.53,.52-.77,.91-1c.39-.24,.84-.35,1.37-.35s1.01,.12,1.39,.38c.38,.25,.67,.61,.86,1.07s.27,1.02,.25,1.65h-.9v-.32c0-.66-.14-1.16-.4-1.49-.26-.33-.65-.49-1.16-.49-.55,0-.97,.18-1.26,.53s-.43,.86-.43,1.52,.14,1.13,.43,1.48,.7,.53,1.22,.53c.36,0,.67-.08,.93-.25,.26-.16,.47-.4,.62-.71l.86,.29c-.21,.48-.53,.85-.95,1.11-.42,.26-.89,.39-1.42,.39Zm-2-2.6v-.71h3.99v.71h-3.99Z"/><path class="j" d="M375.35,166.12c-.5,0-.94-.13-1.29-.38-.36-.25-.64-.59-.83-1.02-.2-.43-.29-.92-.29-1.46s.1-1.03,.29-1.46,.47-.77,.83-1.02c.36-.25,.79-.37,1.29-.37s.94,.12,1.29,.37c.35,.25,.61,.58,.79,1.01,.18,.43,.27,.92,.27,1.46s-.09,1.02-.27,1.45-.44,.77-.79,1.02c-.35,.25-.77,.38-1.28,.38Zm.06,2.4c-.28,0-.56-.04-.83-.13-.27-.09-.52-.22-.74-.39-.22-.18-.41-.4-.56-.66l.81-.43c.13,.26,.32,.46,.57,.58,.24,.12,.5,.18,.76,.18,.34,0,.63-.06,.86-.19s.39-.31,.5-.56c.11-.25,.16-.55,.16-.92v-1.48h.11v-3.95h.79v5.44c0,.15,0,.29-.01,.42s-.03,.27-.05,.41c-.07,.38-.21,.7-.41,.95-.21,.25-.47,.43-.8,.55s-.71,.18-1.13,.18Zm.04-3.21c.36,0,.66-.09,.89-.26,.23-.18,.41-.42,.52-.72,.11-.31,.17-.66,.17-1.05s-.06-.75-.17-1.06c-.11-.3-.28-.54-.51-.71-.23-.17-.52-.26-.88-.26s-.67,.09-.91,.27c-.24,.18-.41,.42-.53,.73s-.17,.65-.17,1.03,.06,.73,.18,1.04,.29,.55,.53,.73,.53,.27,.88,.27Z"/><path class="j" d="M379.23,165.97v-5.4h.79v1.3l-.13-.17c.06-.17,.14-.32,.25-.46s.22-.25,.34-.34c.14-.11,.3-.2,.47-.26,.18-.06,.36-.1,.54-.11,.18-.01,.36,0,.52,.04v.83c-.19-.05-.39-.06-.62-.04-.22,.02-.43,.11-.62,.25-.17,.12-.31,.27-.4,.45-.1,.18-.16,.37-.2,.57-.04,.21-.06,.41-.06,.63v2.71h-.89Z"/><path class="j" d="M385.21,166.12c-.53,0-.99-.12-1.39-.35-.39-.23-.7-.56-.92-.98s-.33-.91-.33-1.48,.11-1.1,.32-1.53,.52-.77,.91-1c.39-.24,.84-.35,1.37-.35s1.01,.12,1.39,.38c.38,.25,.67,.61,.86,1.07s.27,1.02,.25,1.65h-.9v-.32c0-.66-.14-1.16-.4-1.49-.26-.33-.65-.49-1.16-.49-.55,0-.97,.18-1.26,.53s-.43,.86-.43,1.52,.14,1.13,.43,1.48,.7,.53,1.22,.53c.36,0,.67-.08,.93-.25,.26-.16,.47-.4,.62-.71l.86,.29c-.21,.48-.53,.85-.95,1.11-.42,.26-.89,.39-1.42,.39Zm-2-2.6v-.71h3.99v.71h-3.99Z"/><path class="j" d="M391.11,166.12c-.53,0-.99-.12-1.39-.35s-.7-.56-.92-.98c-.22-.42-.33-.91-.33-1.48s.11-1.1,.32-1.53,.52-.77,.91-1c.39-.24,.84-.35,1.37-.35s1.01,.12,1.39,.38c.38,.25,.67,.61,.86,1.07,.19,.46,.28,1.02,.25,1.65h-.9v-.32c0-.66-.14-1.16-.4-1.49s-.65-.49-1.16-.49c-.55,0-.97,.18-1.25,.53-.29,.35-.43,.86-.43,1.52s.14,1.13,.43,1.48c.29,.35,.69,.53,1.22,.53,.36,0,.67-.08,.93-.25s.47-.4,.62-.71l.86,.29c-.21,.48-.53,.85-.95,1.11-.42,.26-.89,.39-1.42,.39Zm-1.99-2.6v-.71h3.99v.71h-3.99Z"/><path class="j" d="M398.95,166.12c-.54,0-1.01-.12-1.39-.37-.38-.25-.67-.58-.87-1.01-.2-.43-.3-.92-.31-1.47,0-.56,.11-1.06,.32-1.49,.21-.43,.5-.76,.88-1,.38-.24,.85-.36,1.39-.36,.57,0,1.06,.14,1.47,.42,.41,.28,.69,.66,.83,1.15l-.88,.27c-.11-.31-.3-.56-.55-.73-.26-.17-.55-.26-.88-.26-.37,0-.67,.09-.91,.26-.24,.17-.42,.41-.54,.71-.12,.3-.18,.65-.18,1.04,0,.6,.15,1.08,.42,1.45,.27,.37,.68,.55,1.21,.55,.35,0,.65-.08,.88-.24,.23-.16,.41-.4,.53-.7l.9,.24c-.19,.5-.48,.89-.88,1.16-.4,.27-.88,.4-1.44,.4Z"/><path class="j" d="M404.44,166.12c-.54,0-1-.12-1.39-.37-.39-.24-.69-.58-.9-1.01-.21-.43-.31-.92-.31-1.48s.11-1.06,.32-1.49c.21-.43,.52-.76,.91-1,.39-.24,.85-.36,1.38-.36s1,.12,1.39,.36c.39,.24,.69,.58,.9,1,.21,.43,.31,.92,.31,1.48s-.11,1.06-.32,1.49c-.21,.43-.51,.76-.9,1-.39,.24-.85,.36-1.39,.36Zm0-.85c.56,0,.98-.19,1.25-.56s.41-.86,.41-1.45-.14-1.1-.42-1.46c-.28-.36-.69-.54-1.24-.54-.38,0-.69,.08-.93,.25-.24,.17-.43,.41-.54,.71-.12,.3-.18,.65-.18,1.04,0,.61,.14,1.09,.42,1.46,.28,.37,.69,.55,1.24,.55Z"/><path class="j" d="M408.13,165.97v-5.4h.8v1.45h.1v3.96h-.9Zm3.85,0v-2.71c0-.26-.02-.5-.07-.74s-.12-.45-.24-.64c-.11-.19-.26-.34-.45-.45s-.43-.17-.71-.17c-.22,0-.43,.04-.61,.11s-.34,.19-.47,.34c-.13,.15-.23,.35-.3,.58s-.11,.5-.11,.82l-.59-.18c0-.52,.1-.97,.28-1.35s.45-.66,.79-.87c.34-.2,.74-.3,1.21-.3,.35,0,.65,.06,.9,.17,.25,.11,.45,.26,.61,.44,.16,.18,.29,.38,.39,.61,.09,.22,.16,.45,.2,.69,.04,.23,.06,.45,.06,.66v2.99h-.9Z"/><path class="j" d="M414.18,165.97v-5.4h.8v1.45h.1v3.96h-.9Zm3.85,0v-2.71c0-.26-.02-.5-.07-.74s-.12-.45-.24-.64c-.11-.19-.26-.34-.45-.45s-.43-.17-.71-.17c-.22,0-.43,.04-.61,.11s-.34,.19-.47,.34c-.13,.15-.23,.35-.3,.58s-.11,.5-.11,.82l-.59-.18c0-.52,.1-.97,.28-1.35s.45-.66,.79-.87c.34-.2,.74-.3,1.21-.3,.35,0,.65,.06,.9,.17,.25,.11,.45,.26,.61,.44,.16,.18,.29,.38,.39,.61,.09,.22,.16,.45,.2,.69,.04,.23,.06,.45,.06,.66v2.99h-.9Z"/><path class="j" d="M422.52,166.12c-.53,0-.99-.12-1.39-.35s-.7-.56-.92-.98c-.22-.42-.33-.91-.33-1.48s.11-1.1,.32-1.53,.52-.77,.91-1c.39-.24,.84-.35,1.37-.35s1.01,.12,1.39,.38c.38,.25,.67,.61,.86,1.07,.19,.46,.28,1.02,.25,1.65h-.9v-.32c0-.66-.14-1.16-.4-1.49s-.65-.49-1.16-.49c-.55,0-.97,.18-1.25,.53-.29,.35-.43,.86-.43,1.52s.14,1.13,.43,1.48c.29,.35,.69,.53,1.22,.53,.36,0,.67-.08,.93-.25s.47-.4,.62-.71l.86,.29c-.21,.48-.53,.85-.95,1.11-.42,.26-.89,.39-1.42,.39Zm-1.99-2.6v-.71h3.99v.71h-3.99Z"/><path class="j" d="M428.36,166.12c-.54,0-1.01-.12-1.39-.37-.38-.25-.67-.58-.87-1.01-.2-.43-.3-.92-.31-1.47,0-.56,.11-1.06,.32-1.49,.21-.43,.5-.76,.88-1,.38-.24,.85-.36,1.39-.36,.57,0,1.06,.14,1.47,.42,.41,.28,.69,.66,.83,1.15l-.88,.27c-.11-.31-.3-.56-.55-.73-.26-.17-.55-.26-.88-.26-.37,0-.67,.09-.91,.26-.24,.17-.42,.41-.54,.71-.12,.3-.18,.65-.18,1.04,0,.6,.15,1.08,.42,1.45,.27,.37,.68,.55,1.21,.55,.35,0,.65-.08,.88-.24,.23-.16,.41-.4,.53-.7l.9,.24c-.19,.5-.48,.89-.88,1.16-.4,.27-.88,.4-1.44,.4Z"/><path class="j" d="M431.1,161.3v-.73h3.62v.73h-3.62Zm3.62,4.67c-.32,.06-.64,.09-.95,.08-.31-.01-.59-.07-.83-.19-.24-.12-.43-.29-.55-.54-.11-.21-.16-.43-.17-.65s-.01-.47-.01-.74v-4.86h.89v4.82c0,.22,0,.41,0,.56,0,.16,.04,.29,.1,.41,.12,.21,.31,.34,.57,.38s.58,.03,.95-.03v.77Z"/><path class="j" d="M435.91,159.61v-.92h.89v.92h-.89Zm0,6.36v-5.4h.89v5.4h-.89Z"/><path class="j" d="M440.6,166.12c-.54,0-1-.12-1.39-.37-.39-.24-.69-.58-.9-1.01-.21-.43-.31-.92-.31-1.48s.11-1.06,.32-1.49c.21-.43,.52-.76,.91-1,.39-.24,.85-.36,1.38-.36s1,.12,1.39,.36c.39,.24,.69,.58,.9,1,.21,.43,.31,.92,.31,1.48s-.11,1.06-.32,1.49c-.21,.43-.51,.76-.9,1-.39,.24-.85,.36-1.39,.36Zm0-.85c.56,0,.98-.19,1.25-.56s.41-.86,.41-1.45-.14-1.1-.42-1.46c-.28-.36-.69-.54-1.24-.54-.38,0-.69,.08-.93,.25-.24,.17-.43,.41-.54,.71-.12,.3-.18,.65-.18,1.04,0,.61,.14,1.09,.42,1.46,.28,.37,.69,.55,1.24,.55Z"/><path class="j" d="M444.3,165.97v-5.4h.8v1.45h.1v3.96h-.9Zm3.85,0v-2.71c0-.26-.02-.5-.07-.74s-.12-.45-.24-.64c-.11-.19-.26-.34-.45-.45s-.43-.17-.71-.17c-.22,0-.43,.04-.61,.11s-.34,.19-.47,.34c-.13,.15-.23,.35-.3,.58s-.11,.5-.11,.82l-.59-.18c0-.52,.1-.97,.28-1.35s.45-.66,.79-.87c.34-.2,.74-.3,1.21-.3,.35,0,.65,.06,.9,.17,.25,.11,.45,.26,.61,.44,.16,.18,.29,.38,.39,.61,.09,.22,.16,.45,.2,.69,.04,.23,.06,.45,.06,.66v2.99h-.9Z"/><path class="j" d="M452.39,166.11c-.64,0-1.17-.14-1.58-.42-.41-.28-.66-.68-.76-1.18l.91-.14c.07,.29,.24,.53,.51,.7,.26,.17,.59,.26,.98,.26s.66-.08,.87-.23c.21-.15,.31-.36,.31-.62,0-.15-.04-.28-.11-.37s-.21-.18-.43-.27-.55-.18-.99-.3c-.48-.13-.85-.26-1.12-.39s-.47-.29-.58-.48c-.12-.18-.18-.4-.18-.66,0-.32,.09-.59,.26-.83s.42-.42,.73-.55c.31-.13,.67-.2,1.09-.2s.78,.07,1.1,.2c.32,.13,.58,.31,.78,.55,.2,.24,.32,.52,.35,.83l-.91,.17c-.04-.29-.18-.52-.42-.68-.23-.17-.54-.26-.91-.27-.35-.01-.63,.05-.85,.19s-.33,.32-.33,.55c0,.13,.04,.24,.12,.33,.08,.09,.23,.18,.46,.26,.22,.08,.54,.18,.97,.29,.48,.12,.85,.25,1.13,.39,.27,.14,.47,.31,.59,.5,.12,.19,.18,.43,.18,.71,0,.52-.19,.93-.57,1.23-.38,.3-.91,.45-1.59,.45Z"/></g><g><path class="j" d="M345.64,197.4v-.8l3.2-2.88c.27-.24,.45-.47,.54-.68s.14-.44,.14-.66c0-.28-.06-.53-.19-.75-.13-.22-.3-.4-.52-.53s-.47-.2-.74-.2-.54,.07-.77,.2c-.22,.13-.4,.31-.53,.54s-.19,.47-.19,.73h-.91c0-.45,.11-.85,.31-1.2,.21-.35,.5-.62,.86-.82,.36-.2,.77-.3,1.23-.3s.85,.1,1.2,.31,.63,.48,.84,.83,.31,.75,.31,1.19c0,.31-.04,.58-.12,.81-.08,.23-.2,.44-.36,.64-.16,.2-.37,.4-.61,.62l-2.66,2.38-.12-.3h3.87v.85h-4.79Z"/><path class="j" d="M351.62,197.41v-5.4h.8v1.44h.1v3.96h-.9Zm3.85,0v-2.71c0-.26-.02-.5-.07-.74-.04-.24-.12-.45-.24-.64-.11-.19-.26-.34-.45-.45-.19-.11-.43-.17-.71-.17-.22,0-.43,.04-.61,.11s-.34,.19-.47,.34c-.13,.15-.23,.35-.3,.58s-.11,.5-.11,.82l-.59-.18c0-.52,.1-.97,.28-1.35s.45-.66,.79-.87c.34-.2,.74-.3,1.21-.3,.35,0,.65,.06,.9,.17,.25,.11,.45,.26,.61,.44,.16,.18,.29,.38,.39,.61,.09,.22,.16,.45,.2,.68,.04,.23,.06,.45,.06,.66v2.98h-.9Z"/><path class="j" d="M359.74,197.56c-.5,0-.94-.13-1.29-.38-.36-.25-.64-.59-.83-1.02-.2-.43-.29-.92-.29-1.46s.1-1.02,.29-1.46c.2-.43,.47-.77,.83-1.02,.36-.25,.79-.37,1.29-.37s.94,.12,1.29,.37c.35,.25,.61,.58,.79,1.01,.18,.43,.27,.92,.27,1.46s-.09,1.02-.27,1.45-.44,.77-.79,1.02c-.35,.25-.77,.38-1.28,.38Zm.11-.82c.36,0,.66-.09,.89-.26,.23-.17,.41-.42,.52-.72s.17-.66,.17-1.05-.06-.75-.17-1.06c-.11-.3-.28-.54-.51-.71-.23-.17-.52-.26-.88-.26s-.67,.09-.91,.27-.41,.42-.53,.73-.17,.65-.17,1.03,.06,.73,.18,1.04c.12,.31,.29,.55,.53,.73,.23,.18,.53,.27,.88,.27Zm1.58,.67v-3.97h-.1v-3.23h.89v7.2h-.79Z"/><path class="j" d="M367.74,197.56c-.5,0-.94-.13-1.29-.38-.36-.25-.64-.59-.83-1.02-.2-.43-.29-.92-.29-1.46s.1-1.02,.29-1.46c.2-.43,.47-.77,.83-1.02,.36-.25,.79-.37,1.29-.37s.94,.12,1.28,.37c.35,.25,.61,.58,.79,1.01,.18,.43,.27,.92,.27,1.46s-.09,1.02-.27,1.45c-.18,.43-.44,.77-.79,1.02-.35,.25-.77,.38-1.28,.38Zm.11-.82c.36,0,.66-.09,.9-.26,.23-.17,.4-.42,.52-.72,.11-.31,.17-.66,.17-1.05s-.05-.75-.17-1.06c-.11-.3-.28-.54-.51-.71-.23-.17-.52-.26-.88-.26s-.67,.09-.91,.27-.42,.42-.53,.73-.17,.65-.17,1.03,.06,.73,.17,1.04c.12,.31,.29,.55,.53,.73,.23,.18,.53,.27,.88,.27Zm1.58,.67v-3.97h-.1v-3.23h.89v7.2h-.79Z"/><path class="j" d="M373.97,197.56c-.53,0-.99-.12-1.39-.35-.39-.24-.7-.56-.92-.99-.22-.42-.33-.91-.33-1.48s.11-1.1,.32-1.53,.52-.76,.91-1c.39-.24,.84-.35,1.37-.35s1.01,.12,1.39,.38c.38,.25,.67,.61,.86,1.07,.19,.46,.28,1.01,.25,1.65h-.9v-.32c0-.66-.14-1.16-.4-1.49-.26-.33-.65-.49-1.16-.49-.55,0-.97,.18-1.25,.53-.29,.35-.43,.86-.43,1.52s.14,1.13,.43,1.48c.29,.35,.69,.53,1.22,.53,.36,0,.67-.08,.93-.25,.26-.16,.47-.4,.62-.71l.86,.29c-.21,.48-.53,.85-.95,1.11s-.89,.39-1.42,.39Zm-1.99-2.6v-.71h3.99v.71h-3.99Z"/><path class="j" d="M379.65,197.56c-.5,0-.94-.13-1.29-.38-.36-.25-.64-.59-.83-1.02-.2-.43-.29-.92-.29-1.46s.1-1.02,.29-1.46c.2-.43,.47-.77,.83-1.02,.36-.25,.79-.37,1.29-.37s.94,.12,1.28,.37c.35,.25,.61,.58,.79,1.01,.18,.43,.27,.92,.27,1.46s-.09,1.02-.27,1.45c-.18,.43-.44,.77-.79,1.02-.35,.25-.77,.38-1.28,.38Zm.06,2.4c-.28,0-.56-.04-.83-.13-.27-.09-.52-.22-.74-.39s-.41-.4-.56-.66l.82-.43c.13,.26,.32,.46,.57,.58,.25,.12,.5,.18,.76,.18,.34,0,.63-.06,.86-.19s.39-.31,.5-.56c.11-.25,.16-.55,.16-.92v-1.48h.1v-3.95h.79v5.43c0,.15,0,.29-.01,.42,0,.14-.03,.27-.05,.41-.07,.38-.21,.7-.42,.95s-.47,.43-.8,.55c-.33,.12-.7,.18-1.13,.18Zm.04-3.21c.36,0,.66-.09,.9-.26,.23-.17,.4-.42,.52-.72,.11-.31,.17-.66,.17-1.05s-.05-.75-.17-1.06c-.11-.3-.28-.54-.51-.71-.23-.17-.52-.26-.88-.26s-.67,.09-.91,.27-.42,.42-.53,.73-.17,.65-.17,1.03,.06,.73,.17,1.04c.12,.31,.29,.55,.53,.73,.23,.18,.53,.27,.88,.27Z"/><path class="j" d="M383.54,197.41v-5.4h.79v1.3l-.13-.17c.06-.17,.15-.32,.25-.46,.1-.14,.21-.25,.34-.34,.14-.11,.3-.2,.47-.26,.18-.06,.36-.1,.54-.11s.36,0,.52,.04v.83c-.19-.05-.39-.06-.62-.04-.22,.02-.43,.1-.62,.25-.17,.12-.31,.27-.4,.45-.09,.18-.16,.37-.2,.57s-.05,.41-.05,.63v2.71h-.89Z"/><path class="j" d="M389.51,197.56c-.53,0-.99-.12-1.39-.35-.39-.24-.7-.56-.92-.99-.22-.42-.33-.91-.33-1.48s.11-1.1,.32-1.53,.52-.76,.91-1c.39-.24,.84-.35,1.37-.35s1.01,.12,1.39,.38c.38,.25,.67,.61,.86,1.07,.19,.46,.28,1.01,.25,1.65h-.9v-.32c0-.66-.14-1.16-.4-1.49-.26-.33-.65-.49-1.16-.49-.55,0-.97,.18-1.25,.53-.29,.35-.43,.86-.43,1.52s.14,1.13,.43,1.48c.29,.35,.69,.53,1.22,.53,.36,0,.67-.08,.93-.25,.26-.16,.47-.4,.62-.71l.86,.29c-.21,.48-.53,.85-.95,1.11s-.89,.39-1.42,.39Zm-1.99-2.6v-.71h3.99v.71h-3.99Z"/><path class="j" d="M395.42,197.56c-.53,0-.99-.12-1.39-.35-.39-.24-.7-.56-.92-.99s-.33-.91-.33-1.48,.11-1.1,.32-1.53,.52-.76,.91-1,.84-.35,1.37-.35,1.01,.12,1.39,.38c.38,.25,.67,.61,.86,1.07,.19,.46,.27,1.01,.25,1.65h-.9v-.32c0-.66-.14-1.16-.4-1.49-.26-.33-.65-.49-1.16-.49-.55,0-.97,.18-1.26,.53s-.43,.86-.43,1.52,.14,1.13,.43,1.48,.7,.53,1.22,.53c.36,0,.67-.08,.93-.25,.26-.16,.47-.4,.62-.71l.86,.29c-.21,.48-.53,.85-.95,1.11-.42,.26-.89,.39-1.42,.39Zm-2-2.6v-.71h3.99v.71h-3.99Z"/><path class="j" d="M403.26,197.56c-.55,0-1.01-.12-1.39-.37-.38-.25-.67-.58-.87-1.01-.2-.43-.3-.92-.31-1.47,0-.56,.11-1.06,.32-1.49,.21-.43,.5-.76,.88-1,.38-.24,.85-.36,1.38-.36,.57,0,1.06,.14,1.47,.42s.69,.66,.83,1.15l-.88,.26c-.11-.31-.3-.56-.55-.73-.25-.17-.55-.26-.88-.26-.37,0-.68,.09-.92,.26-.24,.17-.42,.41-.53,.71-.12,.3-.18,.65-.18,1.04,0,.6,.15,1.08,.42,1.45s.68,.55,1.21,.55c.35,0,.65-.08,.88-.24,.23-.16,.41-.4,.53-.7l.9,.24c-.19,.5-.48,.89-.88,1.15s-.88,.4-1.44,.4Z"/><path class="j" d="M408.74,197.56c-.54,0-1-.12-1.39-.37s-.69-.58-.9-1.01c-.21-.43-.31-.92-.31-1.48s.11-1.06,.32-1.49,.52-.76,.9-1c.39-.24,.85-.36,1.38-.36s1.01,.12,1.39,.36c.39,.24,.69,.58,.9,1,.21,.43,.31,.92,.31,1.48s-.11,1.06-.31,1.49c-.21,.43-.51,.76-.9,1-.39,.24-.85,.36-1.39,.36Zm0-.84c.56,0,.98-.19,1.25-.56s.41-.86,.41-1.45-.14-1.1-.41-1.46c-.28-.36-.69-.54-1.25-.54-.38,0-.69,.08-.93,.25-.24,.17-.43,.41-.54,.71-.12,.3-.18,.65-.18,1.04,0,.61,.14,1.09,.42,1.46,.28,.37,.69,.55,1.23,.55Z"/><path class="j" d="M412.44,197.41v-5.4h.8v1.44h.1v3.96h-.9Zm3.85,0v-2.71c0-.26-.02-.5-.07-.74-.04-.24-.12-.45-.23-.64s-.26-.34-.45-.45c-.19-.11-.43-.17-.71-.17-.22,0-.43,.04-.61,.11s-.34,.19-.47,.34c-.13,.15-.23,.35-.3,.58-.07,.23-.11,.5-.11,.82l-.58-.18c0-.52,.09-.97,.28-1.35,.19-.38,.45-.66,.79-.87,.34-.2,.74-.3,1.21-.3,.35,0,.65,.06,.89,.17,.25,.11,.45,.26,.62,.44s.29,.38,.38,.61c.09,.22,.16,.45,.2,.68,.04,.23,.06,.45,.06,.66v2.98h-.9Z"/><path class="j" d="M418.49,197.41v-5.4h.8v1.44h.1v3.96h-.9Zm3.85,0v-2.71c0-.26-.02-.5-.07-.74-.04-.24-.12-.45-.23-.64s-.26-.34-.45-.45c-.19-.11-.43-.17-.71-.17-.22,0-.43,.04-.61,.11s-.34,.19-.47,.34c-.13,.15-.23,.35-.3,.58-.07,.23-.11,.5-.11,.82l-.58-.18c0-.52,.09-.97,.28-1.35,.19-.38,.45-.66,.79-.87,.34-.2,.74-.3,1.21-.3,.35,0,.65,.06,.89,.17,.25,.11,.45,.26,.62,.44s.29,.38,.38,.61c.09,.22,.16,.45,.2,.68,.04,.23,.06,.45,.06,.66v2.98h-.9Z"/><path class="j" d="M426.83,197.56c-.53,0-.99-.12-1.39-.35-.39-.24-.7-.56-.92-.99s-.33-.91-.33-1.48,.11-1.1,.32-1.53,.52-.76,.91-1,.84-.35,1.37-.35,1.01,.12,1.39,.38c.38,.25,.67,.61,.86,1.07,.19,.46,.27,1.01,.25,1.65h-.9v-.32c0-.66-.14-1.16-.4-1.49-.26-.33-.65-.49-1.16-.49-.55,0-.97,.18-1.26,.53s-.43,.86-.43,1.52,.14,1.13,.43,1.48,.7,.53,1.22,.53c.36,0,.67-.08,.93-.25,.26-.16,.47-.4,.62-.71l.86,.29c-.21,.48-.53,.85-.95,1.11-.42,.26-.89,.39-1.42,.39Zm-2-2.6v-.71h3.99v.71h-3.99Z"/><path class="j" d="M432.67,197.56c-.55,0-1.01-.12-1.39-.37-.38-.25-.67-.58-.87-1.01-.2-.43-.3-.92-.31-1.47,0-.56,.11-1.06,.32-1.49,.21-.43,.5-.76,.88-1,.38-.24,.85-.36,1.38-.36,.57,0,1.06,.14,1.47,.42s.69,.66,.83,1.15l-.88,.26c-.11-.31-.3-.56-.55-.73-.25-.17-.55-.26-.88-.26-.37,0-.68,.09-.92,.26-.24,.17-.42,.41-.53,.71-.12,.3-.18,.65-.18,1.04,0,.6,.15,1.08,.42,1.45s.68,.55,1.21,.55c.35,0,.65-.08,.88-.24,.23-.16,.41-.4,.53-.7l.9,.24c-.19,.5-.48,.89-.88,1.15s-.88,.4-1.44,.4Z"/><path class="j" d="M435.4,192.74v-.73h3.62v.73h-3.62Zm3.62,4.67c-.32,.06-.63,.09-.95,.08-.31-.01-.59-.07-.83-.19s-.43-.29-.55-.54c-.11-.21-.16-.43-.17-.65,0-.22-.01-.47-.01-.74v-4.86h.89v4.82c0,.22,0,.41,0,.57,0,.16,.04,.29,.1,.41,.12,.21,.31,.34,.57,.38,.26,.04,.58,.03,.95-.03v.76Z"/><path class="j" d="M440.22,191.05v-.92h.89v.92h-.89Zm0,6.35v-5.4h.89v5.4h-.89Z"/><path class="j" d="M444.91,197.56c-.54,0-1-.12-1.39-.37s-.69-.58-.9-1.01c-.21-.43-.31-.92-.31-1.48s.11-1.06,.32-1.49,.52-.76,.9-1c.39-.24,.85-.36,1.38-.36s1.01,.12,1.39,.36c.39,.24,.69,.58,.9,1,.21,.43,.31,.92,.31,1.48s-.11,1.06-.31,1.49c-.21,.43-.51,.76-.9,1-.39,.24-.85,.36-1.39,.36Zm0-.84c.56,0,.98-.19,1.25-.56s.41-.86,.41-1.45-.14-1.1-.41-1.46c-.28-.36-.69-.54-1.25-.54-.38,0-.69,.08-.93,.25-.24,.17-.43,.41-.54,.71-.12,.3-.18,.65-.18,1.04,0,.61,.14,1.09,.42,1.46,.28,.37,.69,.55,1.23,.55Z"/><path class="j" d="M448.61,197.41v-5.4h.8v1.44h.1v3.96h-.9Zm3.85,0v-2.71c0-.26-.02-.5-.07-.74-.04-.24-.12-.45-.23-.64s-.26-.34-.45-.45c-.19-.11-.43-.17-.71-.17-.22,0-.43,.04-.61,.11s-.34,.19-.47,.34c-.13,.15-.23,.35-.3,.58-.07,.23-.11,.5-.11,.82l-.58-.18c0-.52,.09-.97,.28-1.35,.19-.38,.45-.66,.79-.87,.34-.2,.74-.3,1.21-.3,.35,0,.65,.06,.89,.17,.25,.11,.45,.26,.62,.44s.29,.38,.38,.61c.09,.22,.16,.45,.2,.68,.04,.23,.06,.45,.06,.66v2.98h-.9Z"/><path class="j" d="M456.7,197.55c-.64,0-1.17-.14-1.58-.42-.41-.28-.66-.68-.76-1.18l.91-.14c.07,.29,.24,.53,.51,.7s.59,.26,.98,.26c.37,0,.66-.08,.87-.23,.21-.15,.32-.36,.32-.62,0-.15-.04-.28-.11-.37-.07-.1-.21-.18-.43-.27-.22-.08-.55-.18-.99-.3-.48-.13-.85-.26-1.12-.4s-.47-.29-.59-.47c-.12-.18-.17-.4-.17-.66,0-.32,.09-.59,.26-.83,.17-.24,.42-.42,.73-.55,.31-.13,.67-.2,1.09-.2s.78,.07,1.1,.2c.32,.13,.58,.31,.78,.55,.2,.24,.32,.52,.35,.83l-.91,.17c-.04-.29-.18-.52-.42-.69-.24-.17-.54-.25-.91-.26-.35-.01-.63,.05-.85,.19-.22,.14-.33,.32-.33,.55,0,.13,.04,.24,.12,.33,.08,.09,.23,.18,.46,.26,.22,.08,.54,.18,.97,.29,.48,.12,.85,.25,1.13,.39s.47,.31,.59,.5,.18,.43,.18,.71c0,.52-.19,.93-.58,1.23-.38,.3-.91,.45-1.58,.45Z"/></g></svg>