<?xml version="1.0" encoding="UTF-8"?><svg id="a" xmlns="http://www.w3.org/2000/svg" viewBox="0 0 469.31 210"><defs><style>.b{fill:#363a3f;}.c{fill:#ff7358;stroke:#363a3f;}.c,.d{stroke-miterlimit:10;}.d{fill:none;stroke:#d3d3d8;}</style></defs><line class="d" x1="283.17" y1="16.22" x2="176.63" y2="75.41"/><line class="d" x1="283.17" y1="75.41" x2="229.9" y2="75.41"/><line class="d" x1="229.9" y1="16.22" x2="229.9" y2="75.41"/><line class="d" x1="229.9" y1="16.22" x2="176.63" y2="134.59"/><line class="d" x1="16.83" y1="75.41" x2="70.1" y2="16.22"/><line class="d" x1="70.1" y1="75.41" x2="16.83" y2="75.41"/><line class="d" x1="123.37" y1="75.41" x2="176.63" y2="193.78"/><line class="d" x1="283.17" y1="193.78" x2="229.9" y2="134.59"/><line class="d" x1="283.17" y1="75.41" x2="283.17" y2="16.22"/><line class="d" x1="123.37" y1="16.22" x2="123.37" y2="75.41"/><line class="d" x1="123.37" y1="75.41" x2="123.37" y2="134.59"/><line class="d" x1="70.1" y1="134.59" x2="70.1" y2="193.78"/><line class="d" x1="16.83" y1="16.22" x2="70.1" y2="16.22"/><line class="d" x1="16.83" y1="16.22" x2="70.1" y2="134.59"/><line class="d" x1="70.1" y1="75.41" x2="16.83" y2="134.59"/><line class="d" x1="70.1" y1="75.41" x2="123.37" y2="134.59"/><line class="d" x1="16.83" y1="134.59" x2="70.1" y2="193.78"/><line class="d" x1="16.83" y1="193.78" x2="123.37" y2="134.59"/><line class="d" x1="70.1" y1="16.22" x2="123.37" y2="75.41"/><line class="d" x1="123.37" y1="16.22" x2="70.1" y2="75.41"/><line class="d" x1="229.9" y1="193.78" x2="229.9" y2="75.41"/><line class="d" x1="229.9" y1="193.78" x2="176.63" y2="193.78"/><line class="d" x1="229.9" y1="193.78" x2="283.17" y2="134.59"/><line class="d" x1="283.17" y1="134.59" x2="176.63" y2="75.41"/><line class="d" x1="176.63" y1="75.41" x2="123.37" y2="75.41"/><line class="d" x1="176.63" y1="134.59" x2="176.63" y2="75.41"/><line class="d" x1="194.39" y1="16.22" x2="176.63" y2="16.22"/><line class="d" x1="194.39" y1="16.22" x2="229.9" y2="16.22"/><line class="d" x1="229.9" y1="134.59" x2="176.63" y2="134.59"/><line class="d" x1="123.37" y1="193.78" x2="176.63" y2="16.22"/><line class="d" x1="70.1" y1="193.78" x2="176.63" y2="134.59"/><line class="d" x1="176.63" y1="193.78" x2="229.9" y2="134.59"/><line class="d" x1="16.83" y1="134.59" x2="176.63" y2="75.41"/><line class="d" x1="16.83" y1="75.41" x2="176.63" y2="134.59"/><line class="d" x1="283.17" y1="193.78" x2="229.9" y2="75.41"/><line class="d" x1="123.37" y1="193.78" x2="70.1" y2="134.59"/><line class="d" x1="123.37" y1="16.22" x2="229.9" y2="75.41"/><line class="d" x1="16.83" y1="193.78" x2="70.1" y2="16.22"/><line class="d" x1="176.63" y1="16.22" x2="229.9" y2="193.78"/><g><circle class="c" cx="16.83" cy="16.22" r="10.47"/><circle class="c" cx="70.1" cy="75.41" r="10.47"/><circle class="c" cx="70.1" cy="134.59" r="10.47"/><circle class="c" cx="70.1" cy="193.78" r="10.47"/><circle class="c" cx="16.83" cy="75.41" r="10.47"/><circle class="c" cx="16.83" cy="134.59" r="10.47"/><circle class="c" cx="16.83" cy="193.78" r="10.47"/><circle class="c" cx="70.1" cy="16.22" r="10.47"/><circle class="c" cx="123.37" cy="16.22" r="10.47"/><circle class="c" cx="123.37" cy="75.41" r="10.47"/><circle class="c" cx="123.37" cy="134.59" r="10.47"/><circle class="c" cx="123.37" cy="193.78" r="10.47"/><circle class="c" cx="176.63" cy="16.22" r="10.47"/><circle class="c" cx="176.63" cy="75.41" r="10.47"/><circle class="c" cx="176.63" cy="134.59" r="10.47"/><circle class="c" cx="176.63" cy="193.78" r="10.47"/><circle class="c" cx="229.9" cy="16.22" r="10.47"/><circle class="c" cx="229.9" cy="75.41" r="10.47"/><circle class="c" cx="229.9" cy="134.59" r="10.47"/><circle class="c" cx="229.9" cy="193.78" r="10.47"/><circle class="c" cx="283.17" cy="16.22" r="10.47"/><circle class="c" cx="283.17" cy="75.41" r="10.47"/><circle class="c" cx="283.17" cy="134.59" r="10.47"/><circle class="c" cx="283.17" cy="193.78" r="10.47"/></g><path class="b" d="M299,1V209H1V1H299M300,0H0V210H300V0h0Z"/><circle class="c" cx="326.82" cy="193.78" r="10.47"/><g><path class="b" d="M345.84,197.41v-7.2h.81l2.72,5.74,2.71-5.74h.82v7.2h-.85v-5.24l-2.45,5.25h-.47l-2.45-5.25v5.25h-.84Z"/><path class="b" d="M354.39,191.05v-.92h.89v.92h-.89Zm0,6.35v-5.4h.89v5.4h-.89Z"/><path class="b" d="M356.78,197.41v-5.4h.8v1.44h.1v3.96h-.9Zm3.85,0v-2.71c0-.26-.02-.5-.07-.74-.04-.24-.12-.45-.24-.64-.11-.19-.26-.34-.45-.45-.19-.11-.43-.17-.71-.17-.22,0-.43,.04-.61,.11s-.34,.19-.47,.34c-.13,.15-.23,.35-.3,.58s-.11,.5-.11,.82l-.59-.18c0-.52,.1-.97,.28-1.35s.45-.66,.79-.87c.34-.2,.74-.3,1.21-.3,.35,0,.65,.06,.9,.17,.25,.11,.45,.26,.61,.44,.16,.18,.29,.38,.39,.61,.09,.22,.16,.45,.2,.68,.04,.23,.06,.45,.06,.66v2.98h-.9Z"/><path class="b" d="M362.93,191.05v-.92h.89v.92h-.89Zm0,6.35v-5.4h.89v5.4h-.89Z"/><path class="b" d="M365.31,197.41v-5.4h.79v1.44h.1v3.96h-.89Zm3.23,0v-3.42c0-.41-.1-.74-.31-.97-.21-.23-.5-.35-.85-.35s-.63,.12-.85,.36-.33,.56-.33,.96l-.47-.28c0-.35,.08-.66,.25-.94,.17-.28,.39-.49,.68-.65,.29-.16,.61-.24,.97-.24s.68,.08,.95,.23c.27,.15,.48,.37,.62,.66,.15,.29,.22,.62,.22,1.02v3.63h-.89Zm3.23,0v-3.46c0-.4-.1-.72-.32-.95s-.49-.34-.84-.34c-.2,0-.39,.05-.57,.14-.18,.09-.33,.24-.44,.43-.11,.2-.17,.44-.17,.75l-.47-.19c0-.38,.07-.72,.24-1.01,.17-.29,.39-.51,.68-.67s.61-.24,.97-.24c.56,0,1.01,.17,1.33,.51,.32,.34,.48,.8,.48,1.38v3.65h-.89Z"/><path class="b" d="M375.51,197.56c-.4,0-.74-.07-1.01-.22s-.48-.34-.62-.59c-.14-.24-.21-.51-.21-.8s.05-.53,.16-.74c.11-.21,.26-.38,.46-.52,.2-.14,.43-.25,.71-.33,.26-.07,.54-.13,.86-.18s.64-.1,.97-.14c.33-.04,.63-.08,.92-.12l-.32,.19c0-.48-.09-.83-.29-1.07-.2-.23-.55-.34-1.04-.34-.33,0-.61,.07-.86,.22s-.42,.39-.52,.72l-.85-.25c.13-.47,.38-.85,.76-1.12,.37-.27,.87-.41,1.47-.41,.49,0,.91,.09,1.26,.26s.6,.44,.76,.79c.08,.17,.12,.35,.15,.54,.02,.2,.03,.4,.03,.61v3.34h-.79v-1.29l.18,.12c-.2,.44-.49,.77-.85,.99-.37,.22-.81,.33-1.33,.33Zm.13-.75c.32,0,.6-.06,.83-.17,.23-.11,.42-.27,.57-.46,.14-.19,.24-.39,.28-.62,.05-.17,.08-.35,.08-.56,0-.21,0-.36,0-.47l.31,.14c-.29,.04-.58,.08-.86,.11-.28,.04-.54,.08-.79,.12-.25,.04-.47,.09-.68,.15-.15,.05-.28,.11-.41,.18s-.23,.17-.31,.28c-.08,.12-.12,.26-.12,.43,0,.15,.04,.29,.11,.42,.07,.13,.19,.24,.35,.33s.37,.12,.62,.12Z"/><path class="b" d="M381.6,197.41v-7.2h.9l3.76,5.62v-5.62h.9v7.2h-.9l-3.76-5.63v5.63h-.9Z"/><path class="b" d="M390.85,197.56c-.54,0-1-.12-1.39-.37s-.69-.58-.9-1.01c-.21-.43-.31-.92-.31-1.48s.11-1.06,.32-1.49,.52-.76,.9-1c.39-.24,.85-.36,1.38-.36s1.01,.12,1.39,.36c.39,.24,.69,.58,.9,1,.21,.43,.31,.92,.31,1.48s-.11,1.06-.31,1.49c-.21,.43-.51,.76-.9,1-.39,.24-.85,.36-1.39,.36Zm0-.84c.56,0,.98-.19,1.25-.56s.41-.86,.41-1.45-.14-1.1-.41-1.46c-.28-.36-.69-.54-1.25-.54-.38,0-.69,.08-.93,.25-.24,.17-.43,.41-.54,.71-.12,.3-.18,.65-.18,1.04,0,.61,.14,1.09,.42,1.46,.28,.37,.69,.55,1.23,.55Z"/><path class="b" d="M396.68,197.56c-.5,0-.94-.13-1.29-.38-.36-.25-.64-.59-.83-1.02-.2-.43-.29-.92-.29-1.46s.1-1.02,.29-1.46c.2-.43,.47-.77,.83-1.02,.36-.25,.79-.37,1.29-.37s.94,.12,1.29,.37c.35,.25,.61,.58,.79,1.01,.18,.43,.27,.92,.27,1.46s-.09,1.02-.27,1.45-.44,.77-.79,1.02c-.35,.25-.77,.38-1.28,.38Zm.11-.82c.36,0,.66-.09,.89-.26,.23-.17,.41-.42,.52-.72s.17-.66,.17-1.05-.06-.75-.17-1.06c-.11-.3-.28-.54-.51-.71-.23-.17-.52-.26-.88-.26s-.67,.09-.91,.27-.41,.42-.53,.73-.17,.65-.17,1.03,.06,.73,.18,1.04c.12,.31,.29,.55,.53,.73,.23,.18,.53,.27,.88,.27Zm1.58,.67v-3.97h-.1v-3.23h.89v7.2h-.79Z"/><path class="b" d="M402.9,197.56c-.53,0-.99-.12-1.39-.35-.39-.24-.7-.56-.92-.99s-.33-.91-.33-1.48,.11-1.1,.32-1.53,.52-.76,.91-1,.84-.35,1.37-.35,1.01,.12,1.39,.38c.38,.25,.67,.61,.86,1.07,.19,.46,.27,1.01,.25,1.65h-.9v-.32c0-.66-.14-1.16-.4-1.49-.26-.33-.65-.49-1.16-.49-.55,0-.97,.18-1.26,.53s-.43,.86-.43,1.52,.14,1.13,.43,1.48,.7,.53,1.22,.53c.36,0,.67-.08,.93-.25,.26-.16,.47-.4,.62-.71l.86,.29c-.21,.48-.53,.85-.95,1.11-.42,.26-.89,.39-1.42,.39Zm-2-2.6v-.71h3.99v.71h-3.99Z"/><path class="b" d="M408.51,197.55c-.64,0-1.17-.14-1.58-.42-.41-.28-.66-.68-.76-1.18l.91-.14c.07,.29,.24,.53,.51,.7s.59,.26,.98,.26c.37,0,.66-.08,.87-.23,.21-.15,.32-.36,.32-.62,0-.15-.04-.28-.11-.37-.07-.1-.21-.18-.43-.27-.22-.08-.55-.18-.99-.3-.48-.13-.85-.26-1.12-.4s-.47-.29-.59-.47c-.12-.18-.17-.4-.17-.66,0-.32,.09-.59,.26-.83,.17-.24,.42-.42,.73-.55,.31-.13,.67-.2,1.09-.2s.78,.07,1.1,.2c.32,.13,.58,.31,.78,.55,.2,.24,.32,.52,.35,.83l-.91,.17c-.04-.29-.18-.52-.42-.69-.24-.17-.54-.25-.91-.26-.35-.01-.63,.05-.85,.19-.22,.14-.33,.32-.33,.55,0,.13,.04,.24,.12,.33,.08,.09,.23,.18,.46,.26,.22,.08,.54,.18,.97,.29,.48,.12,.85,.25,1.13,.39s.47,.31,.59,.5,.18,.43,.18,.71c0,.52-.19,.93-.58,1.23-.38,.3-.91,.45-1.58,.45Z"/></g></svg>