<?xml version="1.0" encoding="utf-8"?>
<!-- Generator: Adobe Illustrator 26.1.0, SVG Export Plug-In . SVG Version: 6.00 Build 0)  -->
<svg version="1.1" id="a" xmlns="http://www.w3.org/2000/svg" xmlns:xlink="http://www.w3.org/1999/xlink" x="0px" y="0px"
	 viewBox="0 0 2012.4 1104" style="enable-background:new 0 0 2012.4 1104;" xml:space="preserve">
<style type="text/css">
	.st0{fill:none;stroke:#E9E9EB;stroke-width:2;stroke-linejoin:round;}
	.st1{fill:none;stroke:#317AFF;stroke-width:4.4;stroke-linecap:round;stroke-linejoin:round;}
	.st2{enable-background:new    ;}
	.st3{fill:#363A3F;}
	.st4{fill:#317AFF;}
</style>
<polyline class="st0" points="1969,1015.7 132.4,1015.7 132.4,83.3 "/>
<path class="st0" d="M132.4,83.3H1969 M132.4,177.1H1969 M132.4,269.3H1969 M132.4,363.7H1969 M132.4,455.9H1969 M132.4,550.3H1969
	 M132.4,642.5H1969 M132.4,736.9H1969 M132.4,829.1H1969 M132.4,921.3H1969"/>
<path class="st0" d="M1969,83.3v932.2 M1910.1,83.3v932.2 M1849.8,83.3v932.2 M1791.6,83.3v932.2 M1731.3,83.3v932.2 M1673.1,83.3
	v932.2 M1612.8,83.3v932.2 M1554.6,83.3v932.2 M1494.3,83.3v932.2 M1436.1,83.3v932.2 M1375.8,83.3v932.2 M1317.6,83.3v932.2
	 M1257.2,83.3v932.2 M1199.1,83.3v932.2 M1138.7,83.3v932.2 M1080.5,83.3v932.2 M1020.2,83.3v932.2 M962,83.3v932.2 M901.7,83.3
	v932.2 M843.5,83.3v932.2 M783.2,83.3v932.2 M725,83.3v932.2 M664.7,83.3v932.2 M606.5,83.3v932.2 M546.2,83.3v932.2 M488,83.3
	v932.2 M427.6,83.3v932.2 M369.4,83.3v932.2 M309.1,83.3v932.2 M250.9,83.3v932.2 M190.6,83.3v932.2"/>
<polyline class="st1" points="132.4,83.3 190.6,550.3 250.9,781.9 309.1,898.8 369.4,957.2 427.6,986.5 488,1000 546.1,1009 
	606.5,1011.2 664.7,1013.5 725,1015.7 783.2,1015.7 843.5,1015.7 901.7,1015.7 962,1015.7 1020.2,1015.7 1080.5,1015.7 
	1138.7,1015.7 1199,1015.7 1257.2,1015.7 1317.6,1015.7 1375.7,1015.7 1436.1,1015.7 1494.2,1015.7 1554.6,1015.5 1612.8,1015.5 
	1673.1,1015.5 1731.3,1015.5 1791.6,1015.5 1849.8,1015.5 1910.1,1015.5 1969,1015.5 "/>
<g class="st2">
	<path class="st3" d="M89.8,1016.1v-1.8h6.3v1.8H89.8z"/>
</g>
<g class="st2">
	<path class="st3" d="M69,929.2c-1,0-1.9-0.2-2.7-0.7c-0.8-0.5-1.4-1.1-1.9-1.9s-0.7-1.7-0.7-2.7v-5.2c0-1,0.2-1.9,0.7-2.7
		c0.5-0.8,1.1-1.4,1.9-1.9c0.8-0.5,1.7-0.7,2.7-0.7c1,0,1.9,0.2,2.7,0.7c0.8,0.5,1.4,1.1,1.9,1.9c0.5,0.8,0.7,1.7,0.7,2.7v5.2
		c0,1-0.2,1.9-0.7,2.7s-1.1,1.4-1.9,1.9C71,929,70.1,929.2,69,929.2z M69,927.1c0.6,0,1.1-0.1,1.5-0.4s0.8-0.6,1.1-1.1
		c0.3-0.5,0.4-1,0.4-1.5v-5.5c0-0.6-0.1-1.1-0.4-1.5c-0.3-0.5-0.6-0.8-1.1-1.1s-1-0.4-1.5-0.4c-0.6,0-1.1,0.1-1.5,0.4
		s-0.8,0.6-1.1,1.1s-0.4,1-0.4,1.5v5.5c0,0.6,0.1,1.1,0.4,1.5s0.6,0.8,1.1,1.1S68.5,927.1,69,927.1z"/>
	<path class="st3" d="M78.7,928.9v-2.3H81v2.3H78.7z"/>
	<path class="st3" d="M85.5,928.9v-12.7l-2.9,1.7v-2.5l2.9-1.7h2.2v15.2H85.5z"/>
	<path class="st3" d="M98.1,929.2c-1,0-1.9-0.2-2.7-0.7c-0.8-0.5-1.4-1.1-1.9-1.9s-0.7-1.7-0.7-2.7v-5.2c0-1,0.2-1.9,0.7-2.7
		c0.5-0.8,1.1-1.4,1.9-1.9c0.8-0.5,1.7-0.7,2.7-0.7c1,0,1.9,0.2,2.7,0.7c0.8,0.5,1.4,1.1,1.9,1.9c0.5,0.8,0.7,1.7,0.7,2.7v5.2
		c0,1-0.2,1.9-0.7,2.7s-1.1,1.4-1.9,1.9C100.1,929,99.2,929.2,98.1,929.2z M98.1,927.1c0.6,0,1.1-0.1,1.5-0.4s0.8-0.6,1.1-1.1
		c0.3-0.5,0.4-1,0.4-1.5v-5.5c0-0.6-0.1-1.1-0.4-1.5c-0.3-0.5-0.6-0.8-1.1-1.1s-1-0.4-1.5-0.4c-0.6,0-1.1,0.1-1.5,0.4
		s-0.8,0.6-1.1,1.1s-0.4,1-0.4,1.5v5.5c0,0.6,0.1,1.1,0.4,1.5s0.6,0.8,1.1,1.1S97.6,927.1,98.1,927.1z"/>
</g>
<g class="st2">
	<path class="st3" d="M69,837.3c-1,0-1.9-0.2-2.7-0.7c-0.8-0.5-1.4-1.1-1.9-1.9s-0.7-1.7-0.7-2.7v-5.2c0-1,0.2-1.9,0.7-2.7
		c0.5-0.8,1.1-1.4,1.9-1.9c0.8-0.5,1.7-0.7,2.7-0.7c1,0,1.9,0.2,2.7,0.7c0.8,0.5,1.4,1.1,1.9,1.9c0.5,0.8,0.7,1.7,0.7,2.7v5.2
		c0,1-0.2,1.9-0.7,2.7s-1.1,1.4-1.9,1.9C71,837,70.1,837.3,69,837.3z M69,835.1c0.6,0,1.1-0.1,1.5-0.4s0.8-0.6,1.1-1.1
		c0.3-0.5,0.4-1,0.4-1.5v-5.5c0-0.6-0.1-1.1-0.4-1.5c-0.3-0.5-0.6-0.8-1.1-1.1s-1-0.4-1.5-0.4c-0.6,0-1.1,0.1-1.5,0.4
		s-0.8,0.6-1.1,1.1s-0.4,1-0.4,1.5v5.5c0,0.6,0.1,1.1,0.4,1.5s0.6,0.8,1.1,1.1S68.5,835.1,69,835.1z"/>
	<path class="st3" d="M78.7,836.9v-2.3H81v2.3H78.7z"/>
	<path class="st3" d="M85,836.9l0-2l6.6-5.9c0.5-0.5,0.9-0.9,1.1-1.3s0.3-0.9,0.3-1.3c0-0.5-0.1-1-0.4-1.5s-0.6-0.8-1-1
		s-0.9-0.4-1.5-0.4c-0.6,0-1.1,0.1-1.5,0.4c-0.4,0.3-0.8,0.6-1,1c-0.2,0.4-0.4,0.9-0.4,1.4H85c0-1,0.2-1.8,0.7-2.6
		c0.4-0.7,1.1-1.3,1.8-1.7c0.8-0.4,1.7-0.6,2.7-0.6c1,0,1.8,0.2,2.6,0.6c0.8,0.4,1.4,1,1.8,1.8c0.4,0.8,0.7,1.6,0.7,2.6
		c0,0.7-0.1,1.3-0.3,1.8c-0.2,0.5-0.5,0.9-0.8,1.3c-0.4,0.4-0.8,0.9-1.4,1.3l-5.1,4.6l-0.2-0.6h7.8v2.1H85z"/>
	<path class="st3" d="M104.1,837.3c-1,0-1.9-0.2-2.7-0.7c-0.8-0.5-1.4-1.1-1.9-1.9s-0.7-1.7-0.7-2.7v-5.2c0-1,0.2-1.9,0.7-2.7
		c0.5-0.8,1.1-1.4,1.9-1.9c0.8-0.5,1.7-0.7,2.7-0.7c1,0,1.9,0.2,2.7,0.7c0.8,0.5,1.4,1.1,1.9,1.9c0.5,0.8,0.7,1.7,0.7,2.7v5.2
		c0,1-0.2,1.9-0.7,2.7s-1.1,1.4-1.9,1.9C106.1,837,105.2,837.3,104.1,837.3z M104.1,835.1c0.6,0,1.1-0.1,1.5-0.4s0.8-0.6,1.1-1.1
		c0.3-0.5,0.4-1,0.4-1.5v-5.5c0-0.6-0.1-1.1-0.4-1.5c-0.3-0.5-0.6-0.8-1.1-1.1s-1-0.4-1.5-0.4c-0.6,0-1.1,0.1-1.5,0.4
		s-0.8,0.6-1.1,1.1s-0.4,1-0.4,1.5v5.5c0,0.6,0.1,1.1,0.4,1.5s0.6,0.8,1.1,1.1S103.6,835.1,104.1,835.1z"/>
</g>
<g class="st2">
	<path class="st3" d="M69,746.3c-1,0-1.9-0.2-2.7-0.7c-0.8-0.5-1.4-1.1-1.9-1.9s-0.7-1.7-0.7-2.7v-5.2c0-1,0.2-1.9,0.7-2.7
		c0.5-0.8,1.1-1.4,1.9-1.9c0.8-0.5,1.7-0.7,2.7-0.7c1,0,1.9,0.2,2.7,0.7c0.8,0.5,1.4,1.1,1.9,1.9c0.5,0.8,0.7,1.7,0.7,2.7v5.2
		c0,1-0.2,1.9-0.7,2.7s-1.1,1.4-1.9,1.9C71,746,70.1,746.3,69,746.3z M69,744.2c0.6,0,1.1-0.1,1.5-0.4s0.8-0.6,1.1-1.1
		c0.3-0.5,0.4-1,0.4-1.5v-5.5c0-0.6-0.1-1.1-0.4-1.5c-0.3-0.5-0.6-0.8-1.1-1.1s-1-0.4-1.5-0.4c-0.6,0-1.1,0.1-1.5,0.4
		s-0.8,0.6-1.1,1.1s-0.4,1-0.4,1.5v5.5c0,0.6,0.1,1.1,0.4,1.5s0.6,0.8,1.1,1.1S68.5,744.2,69,744.2z"/>
	<path class="st3" d="M78.7,746v-2.3H81v2.3H78.7z"/>
	<path class="st3" d="M89.7,746.2c-0.8,0-1.5-0.1-2.1-0.4c-0.7-0.3-1.2-0.7-1.7-1.2c-0.5-0.5-0.8-1.1-1-1.9l2.1-0.6
		c0.2,0.7,0.6,1.2,1.1,1.5c0.5,0.3,1.1,0.5,1.7,0.5c0.6,0,1-0.1,1.5-0.4s0.8-0.6,1-1c0.2-0.4,0.4-0.9,0.4-1.5c0-0.8-0.3-1.5-0.8-2.1
		c-0.5-0.5-1.2-0.8-2-0.8c-0.2,0-0.5,0-0.7,0.1c-0.2,0.1-0.5,0.2-0.7,0.3l-1-1.7l5.4-4.7l0.2,0.6h-7.4v-2.1h9.1v2.1l-4.4,4.3l0-0.7
		c1,0,1.8,0.2,2.5,0.6s1.2,1,1.6,1.7c0.4,0.7,0.6,1.5,0.6,2.4c0,1-0.2,1.8-0.7,2.6s-1.1,1.3-1.8,1.8C91.5,746,90.6,746.2,89.7,746.2
		z"/>
	<path class="st3" d="M103.8,746.3c-1,0-1.9-0.2-2.7-0.7c-0.8-0.5-1.4-1.1-1.9-1.9s-0.7-1.7-0.7-2.7v-5.2c0-1,0.2-1.9,0.7-2.7
		c0.5-0.8,1.1-1.4,1.9-1.9c0.8-0.5,1.7-0.7,2.7-0.7c1,0,1.9,0.2,2.7,0.7c0.8,0.5,1.4,1.1,1.9,1.9c0.5,0.8,0.7,1.7,0.7,2.7v5.2
		c0,1-0.2,1.9-0.7,2.7s-1.1,1.4-1.9,1.9C105.8,746,104.8,746.3,103.8,746.3z M103.8,744.2c0.6,0,1.1-0.1,1.5-0.4s0.8-0.6,1.1-1.1
		c0.3-0.5,0.4-1,0.4-1.5v-5.5c0-0.6-0.1-1.1-0.4-1.5c-0.3-0.5-0.6-0.8-1.1-1.1s-1-0.4-1.5-0.4c-0.6,0-1.1,0.1-1.5,0.4
		s-0.8,0.6-1.1,1.1s-0.4,1-0.4,1.5v5.5c0,0.6,0.1,1.1,0.4,1.5s0.6,0.8,1.1,1.1S103.2,744.2,103.8,744.2z"/>
</g>
<g class="st2">
	<path class="st3" d="M69,650c-1,0-1.9-0.2-2.7-0.7c-0.8-0.5-1.4-1.1-1.9-1.9s-0.7-1.7-0.7-2.7v-5.2c0-1,0.2-1.9,0.7-2.7
		c0.5-0.8,1.1-1.4,1.9-1.9c0.8-0.5,1.7-0.7,2.7-0.7c1,0,1.9,0.2,2.7,0.7c0.8,0.5,1.4,1.1,1.9,1.9c0.5,0.8,0.7,1.7,0.7,2.7v5.2
		c0,1-0.2,1.9-0.7,2.7s-1.1,1.4-1.9,1.9C71,649.7,70.1,650,69,650z M69,647.8c0.6,0,1.1-0.1,1.5-0.4s0.8-0.6,1.1-1.1
		c0.3-0.5,0.4-1,0.4-1.5v-5.5c0-0.6-0.1-1.1-0.4-1.5c-0.3-0.5-0.6-0.8-1.1-1.1s-1-0.4-1.5-0.4c-0.6,0-1.1,0.1-1.5,0.4
		s-0.8,0.6-1.1,1.1s-0.4,1-0.4,1.5v5.5c0,0.6,0.1,1.1,0.4,1.5s0.6,0.8,1.1,1.1S68.5,647.8,69,647.8z"/>
	<path class="st3" d="M78.7,649.6v-2.3H81v2.3H78.7z"/>
	<path class="st3" d="M91.8,649.6V647H85v-2.1l4.9-10.4h2.5l-4.9,10.4h4.3v-4.1h2.2v4.1h1.5v2.1h-1.5v2.6H91.8z"/>
	<path class="st3" d="M104.5,650c-1,0-1.9-0.2-2.7-0.7c-0.8-0.5-1.4-1.1-1.9-1.9s-0.7-1.7-0.7-2.7v-5.2c0-1,0.2-1.9,0.7-2.7
		c0.5-0.8,1.1-1.4,1.9-1.9c0.8-0.5,1.7-0.7,2.7-0.7c1,0,1.9,0.2,2.7,0.7c0.8,0.5,1.4,1.1,1.9,1.9c0.5,0.8,0.7,1.7,0.7,2.7v5.2
		c0,1-0.2,1.9-0.7,2.7s-1.1,1.4-1.9,1.9C106.4,649.7,105.5,650,104.5,650z M104.5,647.8c0.6,0,1.1-0.1,1.5-0.4s0.8-0.6,1.1-1.1
		c0.3-0.5,0.4-1,0.4-1.5v-5.5c0-0.6-0.1-1.1-0.4-1.5c-0.3-0.5-0.6-0.8-1.1-1.1s-1-0.4-1.5-0.4c-0.6,0-1.1,0.1-1.5,0.4
		s-0.8,0.6-1.1,1.1s-0.4,1-0.4,1.5v5.5c0,0.6,0.1,1.1,0.4,1.5s0.6,0.8,1.1,1.1S103.9,647.8,104.5,647.8z"/>
</g>
<g class="st2">
	<path class="st3" d="M69,557.9c-1,0-1.9-0.2-2.7-0.7c-0.8-0.5-1.4-1.1-1.9-1.9s-0.7-1.7-0.7-2.7v-5.2c0-1,0.2-1.9,0.7-2.7
		c0.5-0.8,1.1-1.4,1.9-1.9c0.8-0.5,1.7-0.7,2.7-0.7c1,0,1.9,0.2,2.7,0.7c0.8,0.5,1.4,1.1,1.9,1.9c0.5,0.8,0.7,1.7,0.7,2.7v5.2
		c0,1-0.2,1.9-0.7,2.7s-1.1,1.4-1.9,1.9C71,557.7,70.1,557.9,69,557.9z M69,555.8c0.6,0,1.1-0.1,1.5-0.4s0.8-0.6,1.1-1.1
		c0.3-0.5,0.4-1,0.4-1.5v-5.5c0-0.6-0.1-1.1-0.4-1.5c-0.3-0.5-0.6-0.8-1.1-1.1s-1-0.4-1.5-0.4c-0.6,0-1.1,0.1-1.5,0.4
		s-0.8,0.6-1.1,1.1s-0.4,1-0.4,1.5v5.5c0,0.6,0.1,1.1,0.4,1.5s0.6,0.8,1.1,1.1S68.5,555.8,69,555.8z"/>
	<path class="st3" d="M78.7,557.6v-2.3H81v2.3H78.7z"/>
	<path class="st3" d="M89.9,557.9c-0.8,0-1.5-0.2-2.2-0.5c-0.7-0.3-1.2-0.8-1.7-1.3s-0.8-1.2-1-2l2.1-0.6c0.1,0.4,0.3,0.8,0.6,1.2
		s0.6,0.6,1,0.8c0.4,0.2,0.8,0.3,1.2,0.3c0.6,0,1.1-0.1,1.5-0.4c0.5-0.3,0.8-0.6,1.1-1.1c0.3-0.4,0.4-0.9,0.4-1.5
		c0-0.6-0.1-1.1-0.4-1.5c-0.3-0.4-0.6-0.8-1.1-1.1c-0.5-0.3-1-0.4-1.5-0.4c-0.6,0-1.1,0.1-1.6,0.4c-0.4,0.2-0.8,0.5-1,0.9l-1.9-0.7
		l0.5-8h8.2v2.1h-7.1l0.9-0.8l-0.4,6l-0.4-0.6c0.4-0.4,0.9-0.7,1.4-0.9s1.1-0.3,1.7-0.3c0.9,0,1.8,0.2,2.5,0.7
		c0.7,0.4,1.3,1,1.8,1.8s0.6,1.6,0.6,2.5c0,0.9-0.2,1.8-0.7,2.6c-0.5,0.8-1.1,1.4-1.9,1.8C91.7,557.7,90.9,557.9,89.9,557.9z"/>
	<path class="st3" d="M104.1,557.9c-1,0-1.9-0.2-2.7-0.7c-0.8-0.5-1.4-1.1-1.9-1.9s-0.7-1.7-0.7-2.7v-5.2c0-1,0.2-1.9,0.7-2.7
		c0.5-0.8,1.1-1.4,1.9-1.9c0.8-0.5,1.7-0.7,2.7-0.7c1,0,1.9,0.2,2.7,0.7c0.8,0.5,1.4,1.1,1.9,1.9c0.5,0.8,0.7,1.7,0.7,2.7v5.2
		c0,1-0.2,1.9-0.7,2.7s-1.1,1.4-1.9,1.9C106,557.7,105.1,557.9,104.1,557.9z M104.1,555.8c0.6,0,1.1-0.1,1.5-0.4s0.8-0.6,1.1-1.1
		c0.3-0.5,0.4-1,0.4-1.5v-5.5c0-0.6-0.1-1.1-0.4-1.5c-0.3-0.5-0.6-0.8-1.1-1.1s-1-0.4-1.5-0.4c-0.6,0-1.1,0.1-1.5,0.4
		s-0.8,0.6-1.1,1.1s-0.4,1-0.4,1.5v5.5c0,0.6,0.1,1.1,0.4,1.5s0.6,0.8,1.1,1.1S103.5,555.8,104.1,555.8z"/>
</g>
<g class="st2">
	<path class="st3" d="M69,463.6c-1,0-1.9-0.2-2.7-0.7c-0.8-0.5-1.4-1.1-1.9-1.9s-0.7-1.7-0.7-2.7v-5.2c0-1,0.2-1.9,0.7-2.7
		c0.5-0.8,1.1-1.4,1.9-1.9c0.8-0.5,1.7-0.7,2.7-0.7c1,0,1.9,0.2,2.7,0.7c0.8,0.5,1.4,1.1,1.9,1.9c0.5,0.8,0.7,1.7,0.7,2.7v5.2
		c0,1-0.2,1.9-0.7,2.7s-1.1,1.4-1.9,1.9C71,463.4,70.1,463.6,69,463.6z M69,461.5c0.6,0,1.1-0.1,1.5-0.4s0.8-0.6,1.1-1.1
		c0.3-0.5,0.4-1,0.4-1.5v-5.5c0-0.6-0.1-1.1-0.4-1.5c-0.3-0.5-0.6-0.8-1.1-1.1s-1-0.4-1.5-0.4c-0.6,0-1.1,0.1-1.5,0.4
		s-0.8,0.6-1.1,1.1s-0.4,1-0.4,1.5v5.5c0,0.6,0.1,1.1,0.4,1.5s0.6,0.8,1.1,1.1S68.5,461.5,69,461.5z"/>
	<path class="st3" d="M78.7,463.3V461H81v2.3H78.7z"/>
	<path class="st3" d="M90.6,463.6c-1,0-1.9-0.2-2.7-0.7s-1.4-1.1-1.9-1.9c-0.5-0.8-0.7-1.7-0.7-2.8v-4.8c0-1.1,0.2-2.1,0.7-2.9
		c0.5-0.8,1.1-1.5,1.9-1.9c0.8-0.5,1.8-0.7,2.8-0.7c0.8,0,1.6,0.2,2.3,0.5c0.7,0.3,1.3,0.8,1.8,1.3l-1.6,1.5
		c-0.3-0.4-0.6-0.7-1.1-0.9c-0.4-0.2-0.9-0.3-1.4-0.3c-0.6,0-1.2,0.1-1.7,0.4c-0.5,0.3-0.9,0.7-1.1,1.2c-0.3,0.5-0.4,1-0.4,1.6v2.8
		l-0.4-0.5c0.4-0.6,1-1,1.6-1.3c0.6-0.3,1.3-0.5,2.1-0.5c0.9,0,1.8,0.2,2.5,0.7c0.7,0.4,1.3,1,1.7,1.8c0.4,0.8,0.6,1.6,0.6,2.5
		c0,0.9-0.2,1.8-0.7,2.6c-0.5,0.8-1.1,1.4-1.9,1.8S91.6,463.6,90.6,463.6z M90.6,461.5c0.5,0,1-0.1,1.5-0.4c0.4-0.3,0.8-0.6,1.1-1.1
		c0.3-0.4,0.4-0.9,0.4-1.5s-0.1-1-0.4-1.5c-0.3-0.4-0.6-0.8-1.1-1.1c-0.4-0.3-0.9-0.4-1.5-0.4s-1,0.1-1.5,0.4
		c-0.5,0.3-0.8,0.6-1.1,1.1c-0.3,0.5-0.4,0.9-0.4,1.5c0,0.5,0.1,1,0.4,1.5c0.3,0.5,0.6,0.8,1.1,1.1
		C89.6,461.4,90.1,461.5,90.6,461.5z"/>
	<path class="st3" d="M104.9,463.6c-1,0-1.9-0.2-2.7-0.7c-0.8-0.5-1.4-1.1-1.9-1.9s-0.7-1.7-0.7-2.7v-5.2c0-1,0.2-1.9,0.7-2.7
		c0.5-0.8,1.1-1.4,1.9-1.9c0.8-0.5,1.7-0.7,2.7-0.7c1,0,1.9,0.2,2.7,0.7c0.8,0.5,1.4,1.1,1.9,1.9c0.5,0.8,0.7,1.7,0.7,2.7v5.2
		c0,1-0.2,1.9-0.7,2.7s-1.1,1.4-1.9,1.9C106.8,463.4,105.9,463.6,104.9,463.6z M104.9,461.5c0.6,0,1.1-0.1,1.5-0.4s0.8-0.6,1.1-1.1
		c0.3-0.5,0.4-1,0.4-1.5v-5.5c0-0.6-0.1-1.1-0.4-1.5c-0.3-0.5-0.6-0.8-1.1-1.1s-1-0.4-1.5-0.4c-0.6,0-1.1,0.1-1.5,0.4
		s-0.8,0.6-1.1,1.1s-0.4,1-0.4,1.5v5.5c0,0.6,0.1,1.1,0.4,1.5s0.6,0.8,1.1,1.1S104.3,461.5,104.9,461.5z"/>
</g>
<g class="st2">
	<path class="st3" d="M69,370.9c-1,0-1.9-0.2-2.7-0.7c-0.8-0.5-1.4-1.1-1.9-1.9s-0.7-1.7-0.7-2.7v-5.2c0-1,0.2-1.9,0.7-2.7
		c0.5-0.8,1.1-1.4,1.9-1.9c0.8-0.5,1.7-0.7,2.7-0.7c1,0,1.9,0.2,2.7,0.7c0.8,0.5,1.4,1.1,1.9,1.9c0.5,0.8,0.7,1.7,0.7,2.7v5.2
		c0,1-0.2,1.9-0.7,2.7s-1.1,1.4-1.9,1.9C71,370.6,70.1,370.9,69,370.9z M69,368.8c0.6,0,1.1-0.1,1.5-0.4s0.8-0.6,1.1-1.1
		c0.3-0.5,0.4-1,0.4-1.5v-5.5c0-0.6-0.1-1.1-0.4-1.5c-0.3-0.5-0.6-0.8-1.1-1.1s-1-0.4-1.5-0.4c-0.6,0-1.1,0.1-1.5,0.4
		s-0.8,0.6-1.1,1.1s-0.4,1-0.4,1.5v5.5c0,0.6,0.1,1.1,0.4,1.5s0.6,0.8,1.1,1.1S68.5,368.8,69,368.8z"/>
	<path class="st3" d="M78.7,370.6v-2.3H81v2.3H78.7z"/>
	<path class="st3" d="M86.2,370.6l5.3-13.1h-6.8v-2.1h9.1v2.1l-5.3,13.1H86.2z"/>
	<path class="st3" d="M102.8,370.9c-1,0-1.9-0.2-2.7-0.7c-0.8-0.5-1.4-1.1-1.9-1.9s-0.7-1.7-0.7-2.7v-5.2c0-1,0.2-1.9,0.7-2.7
		c0.5-0.8,1.1-1.4,1.9-1.9c0.8-0.5,1.7-0.7,2.7-0.7c1,0,1.9,0.2,2.7,0.7c0.8,0.5,1.4,1.1,1.9,1.9c0.5,0.8,0.7,1.7,0.7,2.7v5.2
		c0,1-0.2,1.9-0.7,2.7s-1.1,1.4-1.9,1.9C104.7,370.6,103.8,370.9,102.8,370.9z M102.8,368.8c0.6,0,1.1-0.1,1.5-0.4s0.8-0.6,1.1-1.1
		c0.3-0.5,0.4-1,0.4-1.5v-5.5c0-0.6-0.1-1.1-0.4-1.5c-0.3-0.5-0.6-0.8-1.1-1.1s-1-0.4-1.5-0.4c-0.6,0-1.1,0.1-1.5,0.4
		s-0.8,0.6-1.1,1.1s-0.4,1-0.4,1.5v5.5c0,0.6,0.1,1.1,0.4,1.5s0.6,0.8,1.1,1.1S102.2,368.8,102.8,368.8z"/>
</g>
<g class="st2">
	<path class="st3" d="M69,277.1c-1,0-1.9-0.2-2.7-0.7c-0.8-0.5-1.4-1.1-1.9-1.9s-0.7-1.7-0.7-2.7v-5.2c0-1,0.2-1.9,0.7-2.7
		c0.5-0.8,1.1-1.4,1.9-1.9c0.8-0.5,1.7-0.7,2.7-0.7c1,0,1.9,0.2,2.7,0.7c0.8,0.5,1.4,1.1,1.9,1.9c0.5,0.8,0.7,1.7,0.7,2.7v5.2
		c0,1-0.2,1.9-0.7,2.7s-1.1,1.4-1.9,1.9C71,276.9,70.1,277.1,69,277.1z M69,275c0.6,0,1.1-0.1,1.5-0.4s0.8-0.6,1.1-1.1
		c0.3-0.5,0.4-1,0.4-1.5v-5.5c0-0.6-0.1-1.1-0.4-1.5c-0.3-0.5-0.6-0.8-1.1-1.1s-1-0.4-1.5-0.4c-0.6,0-1.1,0.1-1.5,0.4
		s-0.8,0.6-1.1,1.1s-0.4,1-0.4,1.5v5.5c0,0.6,0.1,1.1,0.4,1.5s0.6,0.8,1.1,1.1S68.5,275,69,275z"/>
	<path class="st3" d="M78.7,276.8v-2.3H81v2.3H78.7z"/>
	<path class="st3" d="M90.3,277.1c-1,0-1.9-0.2-2.6-0.6c-0.8-0.4-1.4-0.9-1.8-1.7c-0.4-0.7-0.6-1.5-0.6-2.5c0-0.9,0.2-1.7,0.6-2.4
		c0.4-0.7,1-1.3,1.8-1.7l0,0.8c-0.6-0.4-1.1-0.9-1.5-1.5s-0.5-1.3-0.5-2c0-0.9,0.2-1.6,0.6-2.2c0.4-0.6,1-1.1,1.7-1.5
		c0.7-0.3,1.5-0.5,2.4-0.5s1.7,0.2,2.4,0.5c0.7,0.3,1.3,0.8,1.7,1.5s0.6,1.4,0.6,2.2c0,0.7-0.2,1.4-0.5,2c-0.3,0.6-0.8,1.1-1.5,1.5
		l0-0.7c0.8,0.4,1.4,1,1.8,1.7c0.4,0.7,0.6,1.5,0.6,2.4c0,0.9-0.2,1.8-0.7,2.5c-0.4,0.7-1,1.3-1.8,1.7S91.3,277.1,90.3,277.1z
		 M90.3,275c0.8,0,1.5-0.2,2-0.7c0.5-0.4,0.8-1.1,0.8-2c0-0.9-0.3-1.5-0.8-2c-0.5-0.5-1.2-0.7-2-0.7s-1.5,0.2-2,0.7
		c-0.5,0.5-0.8,1.1-0.8,2c0,0.9,0.3,1.5,0.8,2C88.8,274.8,89.5,275,90.3,275z M90.3,267.6c0.7,0,1.3-0.2,1.7-0.5
		c0.4-0.3,0.6-0.9,0.6-1.6c0-0.7-0.2-1.2-0.6-1.6c-0.4-0.4-1-0.5-1.7-0.5s-1.3,0.2-1.7,0.5c-0.4,0.4-0.7,0.9-0.7,1.6
		c0,0.7,0.2,1.2,0.7,1.6S89.6,267.6,90.3,267.6z"/>
	<path class="st3" d="M104.4,277.1c-1,0-1.9-0.2-2.7-0.7c-0.8-0.5-1.4-1.1-1.9-1.9s-0.7-1.7-0.7-2.7v-5.2c0-1,0.2-1.9,0.7-2.7
		c0.5-0.8,1.1-1.4,1.9-1.9c0.8-0.5,1.7-0.7,2.7-0.7c1,0,1.9,0.2,2.7,0.7c0.8,0.5,1.4,1.1,1.9,1.9c0.5,0.8,0.7,1.7,0.7,2.7v5.2
		c0,1-0.2,1.9-0.7,2.7s-1.1,1.4-1.9,1.9C106.4,276.9,105.5,277.1,104.4,277.1z M104.4,275c0.6,0,1.1-0.1,1.5-0.4s0.8-0.6,1.1-1.1
		c0.3-0.5,0.4-1,0.4-1.5v-5.5c0-0.6-0.1-1.1-0.4-1.5c-0.3-0.5-0.6-0.8-1.1-1.1s-1-0.4-1.5-0.4c-0.6,0-1.1,0.1-1.5,0.4
		s-0.8,0.6-1.1,1.1s-0.4,1-0.4,1.5v5.5c0,0.6,0.1,1.1,0.4,1.5s0.6,0.8,1.1,1.1S103.9,275,104.4,275z"/>
</g>
<g class="st2">
	<path class="st3" d="M69,184.8c-1,0-1.9-0.2-2.7-0.7c-0.8-0.5-1.4-1.1-1.9-1.9s-0.7-1.7-0.7-2.7v-5.2c0-1,0.2-1.9,0.7-2.7
		c0.5-0.8,1.1-1.4,1.9-1.9c0.8-0.5,1.7-0.7,2.7-0.7c1,0,1.9,0.2,2.7,0.7c0.8,0.5,1.4,1.1,1.9,1.9c0.5,0.8,0.7,1.7,0.7,2.7v5.2
		c0,1-0.2,1.9-0.7,2.7s-1.1,1.4-1.9,1.9C71,184.6,70.1,184.8,69,184.8z M69,182.7c0.6,0,1.1-0.1,1.5-0.4s0.8-0.6,1.1-1.1
		c0.3-0.5,0.4-1,0.4-1.5v-5.5c0-0.6-0.1-1.1-0.4-1.5c-0.3-0.5-0.6-0.8-1.1-1.1s-1-0.4-1.5-0.4c-0.6,0-1.1,0.1-1.5,0.4
		s-0.8,0.6-1.1,1.1s-0.4,1-0.4,1.5v5.5c0,0.6,0.1,1.1,0.4,1.5s0.6,0.8,1.1,1.1S68.5,182.7,69,182.7z"/>
	<path class="st3" d="M78.7,184.5v-2.3H81v2.3H78.7z"/>
	<path class="st3" d="M90.3,169c1,0,1.9,0.2,2.7,0.7s1.4,1.1,1.9,1.9s0.7,1.7,0.7,2.8v4.8c0,1.1-0.2,2.1-0.7,2.9s-1.1,1.5-1.9,1.9
		c-0.8,0.5-1.8,0.7-2.8,0.7c-0.8,0-1.6-0.2-2.3-0.5c-0.7-0.3-1.3-0.8-1.8-1.3l1.6-1.5c0.3,0.4,0.6,0.7,1.1,0.9
		c0.4,0.2,0.9,0.3,1.4,0.3c0.6,0,1.2-0.1,1.7-0.4c0.5-0.3,0.9-0.7,1.1-1.2c0.3-0.5,0.4-1,0.4-1.6v-2.8l0.4,0.5c-0.4,0.6-1,1-1.6,1.3
		c-0.6,0.3-1.3,0.5-2.1,0.5c-0.9,0-1.8-0.2-2.5-0.7c-0.7-0.4-1.3-1-1.7-1.8c-0.4-0.8-0.6-1.6-0.6-2.5c0-0.9,0.2-1.8,0.7-2.6
		c0.5-0.8,1.1-1.4,1.9-1.8C88.5,169.2,89.4,169,90.3,169z M90.3,171.1c-0.5,0-1,0.1-1.5,0.4c-0.4,0.3-0.8,0.6-1.1,1.1
		c-0.3,0.5-0.4,0.9-0.4,1.5s0.1,1,0.4,1.5c0.3,0.4,0.6,0.8,1.1,1.1c0.4,0.3,0.9,0.4,1.5,0.4c0.5,0,1-0.1,1.5-0.4
		c0.5-0.3,0.8-0.6,1.1-1.1c0.3-0.4,0.4-0.9,0.4-1.5c0-0.5-0.1-1-0.4-1.5c-0.3-0.4-0.6-0.8-1.1-1.1C91.4,171.3,90.9,171.1,90.3,171.1
		z"/>
	<path class="st3" d="M104.9,184.8c-1,0-1.9-0.2-2.7-0.7c-0.8-0.5-1.4-1.1-1.9-1.9s-0.7-1.7-0.7-2.7v-5.2c0-1,0.2-1.9,0.7-2.7
		c0.5-0.8,1.1-1.4,1.9-1.9c0.8-0.5,1.7-0.7,2.7-0.7c1,0,1.9,0.2,2.7,0.7c0.8,0.5,1.4,1.1,1.9,1.9c0.5,0.8,0.7,1.7,0.7,2.7v5.2
		c0,1-0.2,1.9-0.7,2.7s-1.1,1.4-1.9,1.9C106.8,184.6,105.9,184.8,104.9,184.8z M104.9,182.7c0.6,0,1.1-0.1,1.5-0.4s0.8-0.6,1.1-1.1
		c0.3-0.5,0.4-1,0.4-1.5v-5.5c0-0.6-0.1-1.1-0.4-1.5c-0.3-0.5-0.6-0.8-1.1-1.1s-1-0.4-1.5-0.4c-0.6,0-1.1,0.1-1.5,0.4
		s-0.8,0.6-1.1,1.1s-0.4,1-0.4,1.5v5.5c0,0.6,0.1,1.1,0.4,1.5s0.6,0.8,1.1,1.1S104.3,182.7,104.9,182.7z"/>
</g>
<g class="st2">
	<path class="st3" d="M66.4,89.2V76.5l-2.9,1.7v-2.5l2.9-1.7h2.2v15.2H66.4z"/>
	<path class="st3" d="M73.2,89.2v-2.3h2.3v2.3H73.2z"/>
	<path class="st3" d="M85.2,89.5c-1,0-1.9-0.2-2.7-0.7c-0.8-0.5-1.4-1.1-1.9-1.9s-0.7-1.7-0.7-2.7V79c0-1,0.2-1.9,0.7-2.7
		c0.5-0.8,1.1-1.4,1.9-1.9c0.8-0.5,1.7-0.7,2.7-0.7c1,0,1.9,0.2,2.7,0.7c0.8,0.5,1.4,1.1,1.9,1.9c0.5,0.8,0.7,1.7,0.7,2.7v5.2
		c0,1-0.2,1.9-0.7,2.7s-1.1,1.4-1.9,1.9C87.2,89.3,86.3,89.5,85.2,89.5z M85.2,87.4c0.6,0,1.1-0.1,1.5-0.4s0.8-0.6,1.1-1.1
		c0.3-0.5,0.4-1,0.4-1.5v-5.5c0-0.6-0.1-1.1-0.4-1.5c-0.3-0.5-0.6-0.8-1.1-1.1s-1-0.4-1.5-0.4c-0.6,0-1.1,0.1-1.5,0.4
		s-0.8,0.6-1.1,1.1s-0.4,1-0.4,1.5v5.5c0,0.6,0.1,1.1,0.4,1.5s0.6,0.8,1.1,1.1S84.7,87.4,85.2,87.4z"/>
	<path class="st3" d="M99.8,89.5c-1,0-1.9-0.2-2.7-0.7c-0.8-0.5-1.4-1.1-1.9-1.9s-0.7-1.7-0.7-2.7V79c0-1,0.2-1.9,0.7-2.7
		c0.5-0.8,1.1-1.4,1.9-1.9c0.8-0.5,1.7-0.7,2.7-0.7c1,0,1.9,0.2,2.7,0.7c0.8,0.5,1.4,1.1,1.9,1.9c0.5,0.8,0.7,1.7,0.7,2.7v5.2
		c0,1-0.2,1.9-0.7,2.7s-1.1,1.4-1.9,1.9C101.8,89.3,100.8,89.5,99.8,89.5z M99.8,87.4c0.6,0,1.1-0.1,1.5-0.4s0.8-0.6,1.1-1.1
		c0.3-0.5,0.4-1,0.4-1.5v-5.5c0-0.6-0.1-1.1-0.4-1.5c-0.3-0.5-0.6-0.8-1.1-1.1s-1-0.4-1.5-0.4c-0.6,0-1.1,0.1-1.5,0.4
		s-0.8,0.6-1.1,1.1s-0.4,1-0.4,1.5v5.5c0,0.6,0.1,1.1,0.4,1.5s0.6,0.8,1.1,1.1S99.2,87.4,99.8,87.4z"/>
</g>
<g class="st2">
	<path class="st3" d="M132.3,1049.4c-1.1,0-2.2-0.3-3.1-0.8c-0.9-0.5-1.6-1.3-2.2-2.2c-0.5-0.9-0.8-2-0.8-3.1v-7.2
		c0-1.1,0.3-2.2,0.8-3.1c0.5-0.9,1.3-1.6,2.2-2.2c0.9-0.5,2-0.8,3.1-0.8s2.2,0.3,3.1,0.8c0.9,0.5,1.6,1.3,2.2,2.2s0.8,2,0.8,3.1v7.2
		c0,1.1-0.3,2.2-0.8,3.1s-1.3,1.6-2.2,2.2C134.5,1049.1,133.5,1049.4,132.3,1049.4z M132.3,1047.6c0.8,0,1.5-0.2,2.1-0.6
		s1.1-0.9,1.5-1.5c0.4-0.6,0.6-1.3,0.6-2.1v-7.4c0-0.8-0.2-1.5-0.6-2.1s-0.9-1.1-1.5-1.5s-1.3-0.6-2.1-0.6s-1.5,0.2-2.1,0.6
		s-1.1,0.9-1.5,1.5c-0.4,0.6-0.6,1.3-0.6,2.1v7.4c0,0.8,0.2,1.5,0.6,2.1c0.4,0.6,0.9,1.1,1.5,1.5S131.6,1047.6,132.3,1047.6z"/>
</g>
<g class="st2">
	<path class="st3" d="M191.6,1049v-16.5l-3.5,2.1v-2.1l3.5-2.1h1.9v18.6H191.6z"/>
</g>
<g class="st2">
	<path class="st3" d="M244.8,1049l0-1.7l8.4-7.6c0.7-0.7,1.2-1.3,1.4-1.9c0.2-0.6,0.4-1.2,0.4-1.9c0-0.8-0.2-1.5-0.5-2.1
		c-0.4-0.6-0.8-1.1-1.5-1.5c-0.6-0.4-1.3-0.5-2.1-0.5c-0.8,0-1.5,0.2-2.1,0.6c-0.6,0.4-1.1,0.9-1.5,1.5c-0.4,0.6-0.5,1.3-0.5,2h-1.9
		c0-1.1,0.3-2.1,0.8-3s1.3-1.6,2.2-2.1c0.9-0.5,1.9-0.8,3.1-0.8c1.1,0,2.1,0.3,3,0.8c0.9,0.5,1.6,1.2,2.1,2.1c0.5,0.9,0.8,1.9,0.8,3
		c0,0.8-0.1,1.5-0.3,2c-0.2,0.6-0.5,1.1-0.9,1.6c-0.4,0.5-0.9,1-1.5,1.6l-7.5,6.7l-0.3-0.8h10.4v1.8H244.8z"/>
</g>
<g class="st2">
	<path class="st3" d="M309.8,1049.4c-0.9,0-1.8-0.2-2.5-0.5c-0.8-0.3-1.4-0.8-2-1.4c-0.6-0.6-1-1.3-1.2-2.2l1.8-0.5
		c0.3,0.9,0.8,1.6,1.5,2.1c0.7,0.5,1.5,0.7,2.4,0.7c0.8,0,1.5-0.2,2.1-0.6s1.1-0.8,1.4-1.5c0.3-0.6,0.5-1.4,0.5-2.2
		c0-1.3-0.4-2.3-1.1-3.1c-0.7-0.8-1.7-1.2-2.9-1.2c-0.3,0-0.7,0-1.1,0.1s-0.7,0.2-1,0.4l-1-1.5l7.2-6.7l0.3,0.8h-9.5v-1.8h10.8v1.8
		l-6.3,6l0-0.8c1.3-0.2,2.4,0,3.4,0.4c1,0.5,1.8,1.2,2.3,2.1s0.8,2,0.8,3.3c0,1.2-0.3,2.2-0.8,3.1c-0.5,0.9-1.2,1.6-2.1,2.1
		C311.9,1049.1,310.9,1049.4,309.8,1049.4z"/>
</g>
<g class="st2">
	<path class="st3" d="M371.7,1049v-3.6H363v-1.8l6.2-13.2h2.1l-6.2,13.2h6.6v-5.4h1.9v5.4h2v1.8h-2v3.6H371.7z"/>
</g>
<g class="st2">
	<path class="st3" d="M428.4,1049.4c-1,0-1.9-0.2-2.7-0.6s-1.5-0.9-2.1-1.6s-1-1.5-1.2-2.4l1.8-0.5c0.2,0.7,0.5,1.3,0.9,1.7
		c0.4,0.5,0.9,0.9,1.5,1.1c0.6,0.3,1.2,0.4,1.8,0.4c0.8,0,1.6-0.2,2.2-0.6c0.7-0.4,1.2-0.9,1.6-1.6c0.4-0.7,0.6-1.4,0.6-2.2
		c0-0.8-0.2-1.6-0.6-2.2c-0.4-0.7-0.9-1.2-1.6-1.6s-1.4-0.6-2.2-0.6c-0.9,0-1.6,0.2-2.3,0.6c-0.6,0.4-1.1,0.9-1.5,1.4l-1.7-0.7
		l0.6-9.7h9.9v1.8h-9.1l0.9-0.9l-0.5,8.3l-0.5-0.6c0.5-0.6,1.2-1.1,1.9-1.4c0.8-0.3,1.6-0.5,2.4-0.5c1.1,0,2.2,0.3,3.1,0.8
		c0.9,0.5,1.7,1.3,2.2,2.2c0.5,0.9,0.8,2,0.8,3.1c0,1.1-0.3,2.2-0.9,3.1c-0.6,0.9-1.3,1.7-2.3,2.3
		C430.6,1049.1,429.6,1049.4,428.4,1049.4z"/>
</g>
<g class="st2">
	<path class="st3" d="M487.9,1049.4c-1.2,0-2.2-0.3-3.2-0.8s-1.7-1.3-2.3-2.3c-0.6-1-0.8-2.1-0.8-3.3v-6.5c0-1.2,0.3-2.4,0.8-3.3
		c0.6-1,1.3-1.8,2.3-2.3s2.1-0.8,3.3-0.8c1.1,0,2,0.2,3,0.7c0.9,0.5,1.7,1.1,2.2,2l-1.5,1.2c-0.4-0.6-0.9-1.1-1.6-1.5
		c-0.7-0.4-1.4-0.6-2.1-0.6c-0.9,0-1.6,0.2-2.3,0.6c-0.7,0.4-1.2,1-1.6,1.7c-0.4,0.7-0.6,1.4-0.6,2.2v4.1l-0.5-0.5
		c0.5-0.9,1.3-1.5,2.1-2.1c0.9-0.5,1.8-0.8,2.9-0.8c1.2,0,2.2,0.3,3.1,0.8c0.9,0.5,1.7,1.3,2.2,2.2c0.5,0.9,0.8,2,0.8,3.1
		c0,1.1-0.3,2.2-0.9,3.1s-1.3,1.7-2.3,2.2C490.1,1049.1,489.1,1049.4,487.9,1049.4z M487.9,1047.5c0.8,0,1.5-0.2,2.2-0.6
		c0.7-0.4,1.2-0.9,1.6-1.6c0.4-0.7,0.6-1.4,0.6-2.2c0-0.8-0.2-1.5-0.6-2.2c-0.4-0.7-0.9-1.2-1.6-1.6c-0.7-0.4-1.4-0.6-2.2-0.6
		c-0.8,0-1.5,0.2-2.2,0.6c-0.7,0.4-1.2,0.9-1.6,1.6c-0.4,0.7-0.6,1.4-0.6,2.2c0,0.8,0.2,1.5,0.6,2.2c0.4,0.7,0.9,1.2,1.6,1.6
		C486.4,1047.4,487.1,1047.5,487.9,1047.5z"/>
</g>
<g class="st2">
	<path class="st3" d="M543.4,1049l6.9-16.8h-8.6v-1.8h10.7v1.8l-6.8,16.8H543.4z"/>
</g>
<g class="st2">
	<path class="st3" d="M606.3,1049.4c-1.2,0-2.2-0.2-3.1-0.7c-0.9-0.5-1.6-1.1-2.1-2c-0.5-0.8-0.8-1.8-0.8-3c0-1.2,0.3-2.2,0.8-3.1
		c0.6-0.9,1.4-1.6,2.6-2l0,0.7c-1-0.4-1.7-0.9-2.2-1.7s-0.8-1.7-0.8-2.7c0-1,0.2-1.9,0.7-2.7c0.5-0.7,1.1-1.3,1.9-1.7
		c0.8-0.4,1.8-0.6,2.8-0.6s2,0.2,2.8,0.6s1.5,1,2,1.7c0.5,0.7,0.7,1.6,0.7,2.7c0,1-0.2,1.9-0.7,2.7c-0.5,0.8-1.2,1.4-2.2,1.7
		l-0.1-0.7c1.1,0.5,2,1.1,2.6,2c0.6,0.9,0.9,1.9,0.9,3.1c0,1.1-0.3,2.1-0.8,3c-0.5,0.8-1.2,1.5-2.1,2
		C608.5,1049.2,607.5,1049.4,606.3,1049.4z M606.3,1047.6c1.2,0,2.1-0.3,2.9-1c0.7-0.7,1.1-1.6,1.1-2.8c0-1.2-0.4-2.2-1.1-2.8
		s-1.7-1-2.9-1c-1.2,0-2.1,0.3-2.9,1s-1.1,1.6-1.1,2.8c0,1.2,0.4,2.2,1.1,2.8C604.2,1047.2,605.1,1047.6,606.3,1047.6z
		 M606.3,1038.2c1,0,1.9-0.3,2.5-0.8s1-1.3,1-2.4s-0.3-1.8-1-2.3s-1.5-0.8-2.5-0.8c-1,0-1.9,0.3-2.5,0.8c-0.6,0.5-1,1.3-1,2.3
		s0.3,1.8,1,2.4C604.4,1037.9,605.3,1038.2,606.3,1038.2z"/>
</g>
<g class="st2">
	<path class="st3" d="M665.5,1030c1.2,0,2.2,0.3,3.2,0.8s1.7,1.3,2.3,2.3c0.6,1,0.8,2.1,0.8,3.3v6.5c0,1.2-0.3,2.4-0.8,3.3
		c-0.6,1-1.3,1.8-2.3,2.3s-2.1,0.8-3.3,0.8c-1.1,0-2-0.2-3-0.7c-0.9-0.5-1.7-1.1-2.2-2l1.5-1.2c0.4,0.6,0.9,1.1,1.6,1.5
		c0.7,0.4,1.4,0.6,2.1,0.6c0.9,0,1.6-0.2,2.3-0.6c0.7-0.4,1.2-1,1.6-1.7c0.4-0.7,0.6-1.4,0.6-2.2v-4.1l0.5,0.5
		c-0.5,0.9-1.3,1.5-2.1,2.1c-0.9,0.5-1.8,0.8-2.9,0.8c-1.2,0-2.2-0.3-3.1-0.8c-0.9-0.5-1.7-1.3-2.2-2.2c-0.5-0.9-0.8-2-0.8-3.1
		c0-1.1,0.3-2.2,0.9-3.1c0.6-0.9,1.3-1.7,2.3-2.2C663.3,1030.3,664.3,1030,665.5,1030z M665.5,1031.9c-0.8,0-1.5,0.2-2.2,0.6
		c-0.7,0.4-1.2,0.9-1.6,1.6c-0.4,0.7-0.6,1.4-0.6,2.2c0,0.8,0.2,1.5,0.6,2.2c0.4,0.7,0.9,1.2,1.6,1.6c0.7,0.4,1.4,0.6,2.2,0.6
		c0.8,0,1.5-0.2,2.2-0.6c0.7-0.4,1.2-0.9,1.6-1.6c0.4-0.7,0.6-1.4,0.6-2.2c0-0.8-0.2-1.5-0.6-2.2s-0.9-1.2-1.6-1.6
		C667,1032.1,666.3,1031.9,665.5,1031.9z"/>
</g>
<g class="st2">
	<path class="st3" d="M716.9,1049v-16.5l-3.5,2.1v-2.1l3.5-2.1h1.9v18.6H716.9z"/>
</g>
<g class="st2">
	<path class="st3" d="M730.5,1049.4c-1.1,0-2.2-0.3-3.1-0.8c-0.9-0.5-1.6-1.3-2.2-2.2c-0.5-0.9-0.8-2-0.8-3.1v-7.2
		c0-1.1,0.3-2.2,0.8-3.1c0.5-0.9,1.3-1.6,2.2-2.2c0.9-0.5,2-0.8,3.1-0.8s2.2,0.3,3.1,0.8c0.9,0.5,1.6,1.3,2.2,2.2s0.8,2,0.8,3.1v7.2
		c0,1.1-0.3,2.2-0.8,3.1s-1.3,1.6-2.2,2.2C732.7,1049.1,731.7,1049.4,730.5,1049.4z M730.5,1047.6c0.8,0,1.5-0.2,2.1-0.6
		s1.1-0.9,1.5-1.5c0.4-0.6,0.6-1.3,0.6-2.1v-7.4c0-0.8-0.2-1.5-0.6-2.1s-0.9-1.1-1.5-1.5s-1.3-0.6-2.1-0.6s-1.5,0.2-2.1,0.6
		s-1.1,0.9-1.5,1.5c-0.4,0.6-0.6,1.3-0.6,2.1v7.4c0,0.8,0.2,1.5,0.6,2.1c0.4,0.6,0.9,1.1,1.5,1.5S729.8,1047.6,730.5,1047.6z"/>
</g>
<g class="st2">
	<path class="st3" d="M779,1049v-16.5l-3.5,2.1v-2.1l3.5-2.1h1.9v18.6H779z"/>
</g>
<g class="st2">
	<path class="st3" d="M789.8,1049v-16.5l-3.5,2.1v-2.1l3.5-2.1h1.9v18.6H789.8z"/>
</g>
<g class="st2">
	<path class="st3" d="M836,1049v-16.5l-3.5,2.1v-2.1l3.5-2.1h1.9v18.6H836z"/>
</g>
<g class="st2">
	<path class="st3" d="M843,1049l0-1.7l8.4-7.6c0.7-0.7,1.2-1.3,1.4-1.9c0.2-0.6,0.4-1.2,0.4-1.9c0-0.8-0.2-1.5-0.5-2.1
		c-0.4-0.6-0.8-1.1-1.5-1.5c-0.6-0.4-1.3-0.5-2.1-0.5c-0.8,0-1.5,0.2-2.1,0.6c-0.6,0.4-1.1,0.9-1.5,1.5c-0.4,0.6-0.5,1.3-0.5,2h-1.9
		c0-1.1,0.3-2.1,0.8-3s1.3-1.6,2.2-2.1c0.9-0.5,1.9-0.8,3.1-0.8c1.1,0,2.1,0.3,3,0.8c0.9,0.5,1.6,1.2,2.1,2.1c0.5,0.9,0.8,1.9,0.8,3
		c0,0.8-0.1,1.5-0.3,2c-0.2,0.6-0.5,1.1-0.9,1.6c-0.4,0.5-0.9,1-1.5,1.6l-7.5,6.7l-0.3-0.8h10.4v1.8H843z"/>
</g>
<g class="st2">
	<path class="st3" d="M895.4,1049v-16.5l-3.5,2.1v-2.1l3.5-2.1h1.9v18.6H895.4z"/>
</g>
<g class="st2">
	<path class="st3" d="M908,1049.4c-0.9,0-1.8-0.2-2.5-0.5c-0.8-0.3-1.4-0.8-2-1.4c-0.6-0.6-1-1.3-1.2-2.2l1.8-0.5
		c0.3,0.9,0.8,1.6,1.5,2.1c0.7,0.5,1.5,0.7,2.4,0.7c0.8,0,1.5-0.2,2.1-0.6s1.1-0.8,1.4-1.5c0.3-0.6,0.5-1.4,0.5-2.2
		c0-1.3-0.4-2.3-1.1-3.1c-0.7-0.8-1.7-1.2-2.9-1.2c-0.3,0-0.7,0-1.1,0.1s-0.7,0.2-1,0.4l-1-1.5l7.2-6.7l0.3,0.8h-9.5v-1.8h10.8v1.8
		l-6.3,6l0-0.8c1.3-0.2,2.4,0,3.4,0.4c1,0.5,1.8,1.2,2.3,2.1s0.8,2,0.8,3.3c0,1.2-0.3,2.2-0.8,3.1c-0.5,0.9-1.2,1.6-2.1,2.1
		C910.1,1049.1,909.1,1049.4,908,1049.4z"/>
</g>
<g class="st2">
	<path class="st3" d="M954.2,1049v-16.5l-3.5,2.1v-2.1l3.5-2.1h1.9v18.6H954.2z"/>
</g>
<g class="st2">
	<path class="st3" d="M969.9,1049v-3.6h-8.7v-1.8l6.2-13.2h2.1l-6.2,13.2h6.6v-5.4h1.9v5.4h2v1.8h-2v3.6H969.9z"/>
</g>
<g class="st2">
	<path class="st3" d="M1013.6,1049v-16.5l-3.5,2.1v-2.1l3.5-2.1h1.9v18.6H1013.6z"/>
</g>
<g class="st2">
	<path class="st3" d="M1026.6,1049.4c-1,0-1.9-0.2-2.7-0.6c-0.8-0.4-1.5-0.9-2.1-1.6c-0.6-0.7-1-1.5-1.2-2.4l1.8-0.5
		c0.2,0.7,0.5,1.3,0.9,1.7c0.4,0.5,0.9,0.9,1.5,1.1c0.6,0.3,1.2,0.4,1.8,0.4c0.8,0,1.6-0.2,2.2-0.6c0.7-0.4,1.2-0.9,1.6-1.6
		c0.4-0.7,0.6-1.4,0.6-2.2c0-0.8-0.2-1.6-0.6-2.2c-0.4-0.7-0.9-1.2-1.6-1.6c-0.7-0.4-1.4-0.6-2.2-0.6c-0.9,0-1.6,0.2-2.3,0.6
		c-0.6,0.4-1.1,0.9-1.5,1.4l-1.7-0.7l0.6-9.7h9.9v1.8h-9.1l0.9-0.9l-0.5,8.3l-0.5-0.6c0.5-0.6,1.2-1.1,1.9-1.4
		c0.8-0.3,1.6-0.5,2.4-0.5c1.1,0,2.2,0.3,3.1,0.8c0.9,0.5,1.7,1.3,2.2,2.2c0.5,0.9,0.8,2,0.8,3.1c0,1.1-0.3,2.2-0.9,3.1
		c-0.6,0.9-1.3,1.7-2.3,2.3C1028.8,1049.1,1027.8,1049.4,1026.6,1049.4z"/>
</g>
<g class="st2">
	<path class="st3" d="M1072.3,1049v-16.5l-3.5,2.1v-2.1l3.5-2.1h1.9v18.6H1072.3z"/>
</g>
<g class="st2">
	<path class="st3" d="M1086.1,1049.4c-1.2,0-2.2-0.3-3.2-0.8s-1.7-1.3-2.3-2.3c-0.6-1-0.8-2.1-0.8-3.3v-6.5c0-1.2,0.3-2.4,0.8-3.3
		c0.6-1,1.3-1.8,2.3-2.3c1-0.6,2.1-0.8,3.3-0.8c1.1,0,2,0.2,3,0.7c0.9,0.5,1.7,1.1,2.2,2l-1.5,1.2c-0.4-0.6-0.9-1.1-1.6-1.5
		c-0.7-0.4-1.4-0.6-2.1-0.6c-0.9,0-1.6,0.2-2.3,0.6c-0.7,0.4-1.2,1-1.6,1.7c-0.4,0.7-0.6,1.4-0.6,2.2v4.1l-0.5-0.5
		c0.5-0.9,1.3-1.5,2.1-2.1c0.9-0.5,1.8-0.8,2.9-0.8c1.2,0,2.2,0.3,3.1,0.8c0.9,0.5,1.7,1.3,2.2,2.2c0.5,0.9,0.8,2,0.8,3.1
		c0,1.1-0.3,2.2-0.9,3.1c-0.6,0.9-1.3,1.7-2.3,2.2C1088.3,1049.1,1087.3,1049.4,1086.1,1049.4z M1086.1,1047.5
		c0.8,0,1.5-0.2,2.2-0.6s1.2-0.9,1.6-1.6c0.4-0.7,0.6-1.4,0.6-2.2c0-0.8-0.2-1.5-0.6-2.2c-0.4-0.7-0.9-1.2-1.6-1.6
		c-0.7-0.4-1.4-0.6-2.2-0.6c-0.8,0-1.5,0.2-2.2,0.6c-0.7,0.4-1.2,0.9-1.6,1.6c-0.4,0.7-0.6,1.4-0.6,2.2c0,0.8,0.2,1.5,0.6,2.2
		c0.4,0.7,0.9,1.2,1.6,1.6C1084.6,1047.4,1085.3,1047.5,1086.1,1047.5z"/>
</g>
<g class="st2">
	<path class="st3" d="M1133.1,1049v-16.5l-3.5,2.1v-2.1l3.5-2.1h1.9v18.6H1133.1z"/>
</g>
<g class="st2">
	<path class="st3" d="M1141.6,1049l6.9-16.8h-8.6v-1.8h10.7v1.8l-6.8,16.8H1141.6z"/>
</g>
<g class="st2">
	<path class="st3" d="M1191.3,1049v-16.5l-3.5,2.1v-2.1l3.5-2.1h1.9v18.6H1191.3z"/>
</g>
<g class="st2">
	<path class="st3" d="M1204.5,1049.4c-1.2,0-2.2-0.2-3.1-0.7c-0.9-0.5-1.6-1.1-2.1-2c-0.5-0.8-0.8-1.8-0.8-3c0-1.2,0.3-2.2,0.8-3.1
		c0.6-0.9,1.4-1.6,2.6-2l0,0.7c-1-0.4-1.7-0.9-2.2-1.7s-0.8-1.7-0.8-2.7c0-1,0.2-1.9,0.7-2.7c0.5-0.7,1.1-1.3,1.9-1.7
		s1.8-0.6,2.8-0.6c1.1,0,2,0.2,2.8,0.6c0.8,0.4,1.5,1,2,1.7c0.5,0.7,0.7,1.6,0.7,2.7c0,1-0.2,1.9-0.7,2.7s-1.2,1.4-2.2,1.7l-0.1-0.7
		c1.1,0.5,2,1.1,2.6,2c0.6,0.9,0.9,1.9,0.9,3.1c0,1.1-0.3,2.1-0.8,3c-0.5,0.8-1.2,1.5-2.1,2
		C1206.7,1049.2,1205.7,1049.4,1204.5,1049.4z M1204.5,1047.6c1.2,0,2.1-0.3,2.9-1c0.7-0.7,1.1-1.6,1.1-2.8c0-1.2-0.4-2.2-1.1-2.8
		c-0.7-0.6-1.7-1-2.9-1c-1.2,0-2.1,0.3-2.9,1c-0.7,0.6-1.1,1.6-1.1,2.8c0,1.2,0.4,2.2,1.1,2.8
		C1202.4,1047.2,1203.3,1047.6,1204.5,1047.6z M1204.5,1038.2c1,0,1.9-0.3,2.5-0.8s1-1.3,1-2.4s-0.3-1.8-1-2.3s-1.5-0.8-2.5-0.8
		c-1,0-1.9,0.3-2.5,0.8s-1,1.3-1,2.3s0.3,1.8,1,2.4S1203.5,1038.2,1204.5,1038.2z"/>
</g>
<g class="st2">
	<path class="st3" d="M1250,1049v-16.5l-3.5,2.1v-2.1l3.5-2.1h1.9v18.6H1250z"/>
</g>
<g class="st2">
	<path class="st3" d="M1263.7,1030c1.2,0,2.2,0.3,3.2,0.8s1.7,1.3,2.3,2.3s0.8,2.1,0.8,3.3v6.5c0,1.2-0.3,2.4-0.8,3.3
		c-0.6,1-1.3,1.8-2.3,2.3s-2.1,0.8-3.3,0.8c-1.1,0-2-0.2-3-0.7c-0.9-0.5-1.7-1.1-2.2-2l1.5-1.2c0.4,0.6,0.9,1.1,1.6,1.5
		c0.7,0.4,1.4,0.6,2.1,0.6c0.9,0,1.6-0.2,2.3-0.6c0.7-0.4,1.2-1,1.6-1.7c0.4-0.7,0.6-1.4,0.6-2.2v-4.1l0.5,0.5
		c-0.5,0.9-1.3,1.5-2.1,2.1c-0.9,0.5-1.8,0.8-2.9,0.8c-1.2,0-2.2-0.3-3.1-0.8c-0.9-0.5-1.7-1.3-2.2-2.2c-0.5-0.9-0.8-2-0.8-3.1
		c0-1.1,0.3-2.2,0.9-3.1c0.6-0.9,1.3-1.7,2.3-2.2C1261.5,1030.3,1262.5,1030,1263.7,1030z M1263.7,1031.9c-0.8,0-1.5,0.2-2.2,0.6
		c-0.7,0.4-1.2,0.9-1.6,1.6c-0.4,0.7-0.6,1.4-0.6,2.2c0,0.8,0.2,1.5,0.6,2.2s0.9,1.2,1.6,1.6s1.4,0.6,2.2,0.6s1.5-0.2,2.2-0.6
		s1.2-0.9,1.6-1.6s0.6-1.4,0.6-2.2c0-0.8-0.2-1.5-0.6-2.2s-0.9-1.2-1.6-1.6S1264.5,1031.9,1263.7,1031.9z"/>
</g>
<g class="st2">
	<path class="st3" d="M1303.3,1049l0-1.7l8.4-7.6c0.7-0.7,1.2-1.3,1.4-1.9c0.2-0.6,0.4-1.2,0.4-1.9c0-0.8-0.2-1.5-0.5-2.1
		c-0.4-0.6-0.8-1.1-1.5-1.5c-0.6-0.4-1.3-0.5-2.1-0.5c-0.8,0-1.5,0.2-2.1,0.6c-0.6,0.4-1.1,0.9-1.5,1.5c-0.4,0.6-0.5,1.3-0.5,2h-1.9
		c0-1.1,0.3-2.1,0.8-3s1.3-1.6,2.2-2.1c0.9-0.5,1.9-0.8,3.1-0.8c1.1,0,2.1,0.3,3,0.8c0.9,0.5,1.6,1.2,2.1,2.1s0.8,1.9,0.8,3
		c0,0.8-0.1,1.5-0.3,2s-0.5,1.1-0.9,1.6c-0.4,0.5-0.9,1-1.5,1.6l-7.5,6.7l-0.3-0.8h10.4v1.8H1303.3z"/>
</g>
<g class="st2">
	<path class="st3" d="M1325,1049.4c-1.1,0-2.2-0.3-3.1-0.8c-0.9-0.5-1.6-1.3-2.2-2.2s-0.8-2-0.8-3.1v-7.2c0-1.1,0.3-2.2,0.8-3.1
		s1.3-1.6,2.2-2.2c0.9-0.5,2-0.8,3.1-0.8s2.2,0.3,3.1,0.8c0.9,0.5,1.6,1.3,2.2,2.2c0.5,0.9,0.8,2,0.8,3.1v7.2c0,1.1-0.3,2.2-0.8,3.1
		c-0.5,0.9-1.3,1.6-2.2,2.2C1327.2,1049.1,1326.2,1049.4,1325,1049.4z M1325,1047.6c0.8,0,1.5-0.2,2.1-0.6c0.6-0.4,1.1-0.9,1.5-1.5
		c0.4-0.6,0.6-1.3,0.6-2.1v-7.4c0-0.8-0.2-1.5-0.6-2.1c-0.4-0.6-0.9-1.1-1.5-1.5c-0.6-0.4-1.3-0.6-2.1-0.6c-0.8,0-1.5,0.2-2.1,0.6
		c-0.6,0.4-1.1,0.9-1.5,1.5c-0.4,0.6-0.6,1.3-0.6,2.1v7.4c0,0.8,0.2,1.5,0.6,2.1c0.4,0.6,0.9,1.1,1.5,1.5
		C1323.5,1047.4,1324.2,1047.6,1325,1047.6z"/>
</g>
<g class="st2">
	<path class="st3" d="M1365.4,1049l0-1.7l8.4-7.6c0.7-0.7,1.2-1.3,1.4-1.9c0.2-0.6,0.4-1.2,0.4-1.9c0-0.8-0.2-1.5-0.5-2.1
		c-0.4-0.6-0.8-1.1-1.5-1.5c-0.6-0.4-1.3-0.5-2.1-0.5c-0.8,0-1.5,0.2-2.1,0.6c-0.6,0.4-1.1,0.9-1.5,1.5c-0.4,0.6-0.5,1.3-0.5,2h-1.9
		c0-1.1,0.3-2.1,0.8-3c0.5-0.9,1.3-1.6,2.2-2.1c0.9-0.5,1.9-0.8,3.1-0.8c1.1,0,2.1,0.3,3,0.8c0.9,0.5,1.6,1.2,2.1,2.1s0.8,1.9,0.8,3
		c0,0.8-0.1,1.5-0.3,2c-0.2,0.6-0.5,1.1-0.9,1.6c-0.4,0.5-0.9,1-1.5,1.6l-7.5,6.7l-0.3-0.8h10.4v1.8H1365.4z"/>
</g>
<g class="st2">
	<path class="st3" d="M1384.3,1049v-16.5l-3.5,2.1v-2.1l3.5-2.1h1.9v18.6H1384.3z"/>
</g>
<g class="st2">
	<path class="st3" d="M1422.3,1049l0-1.7l8.4-7.6c0.7-0.7,1.2-1.3,1.4-1.9c0.2-0.6,0.4-1.2,0.4-1.9c0-0.8-0.2-1.5-0.5-2.1
		c-0.4-0.6-0.8-1.1-1.5-1.5c-0.6-0.4-1.3-0.5-2.1-0.5c-0.8,0-1.5,0.2-2.1,0.6c-0.6,0.4-1.1,0.9-1.5,1.5c-0.4,0.6-0.5,1.3-0.5,2h-1.9
		c0-1.1,0.3-2.1,0.8-3c0.5-0.9,1.3-1.6,2.2-2.1c0.9-0.5,1.9-0.8,3.1-0.8c1.1,0,2.1,0.3,3,0.8c0.9,0.5,1.6,1.2,2.1,2.1s0.8,1.9,0.8,3
		c0,0.8-0.1,1.5-0.3,2c-0.2,0.6-0.5,1.1-0.9,1.6c-0.4,0.5-0.9,1-1.5,1.6l-7.5,6.7l-0.3-0.8h10.4v1.8H1422.3z"/>
</g>
<g class="st2">
	<path class="st3" d="M1437.4,1049l0-1.7l8.4-7.6c0.7-0.7,1.2-1.3,1.4-1.9c0.2-0.6,0.4-1.2,0.4-1.9c0-0.8-0.2-1.5-0.5-2.1
		c-0.4-0.6-0.8-1.1-1.5-1.5c-0.6-0.4-1.3-0.5-2.1-0.5c-0.8,0-1.5,0.2-2.1,0.6c-0.6,0.4-1.1,0.9-1.5,1.5c-0.4,0.6-0.5,1.3-0.5,2h-1.9
		c0-1.1,0.3-2.1,0.8-3c0.5-0.9,1.3-1.6,2.2-2.1c0.9-0.5,1.9-0.8,3.1-0.8c1.1,0,2.1,0.3,3,0.8c0.9,0.5,1.6,1.2,2.1,2.1s0.8,1.9,0.8,3
		c0,0.8-0.1,1.5-0.3,2c-0.2,0.6-0.5,1.1-0.9,1.6c-0.4,0.5-0.9,1-1.5,1.6l-7.5,6.7l-0.3-0.8h10.4v1.8H1437.4z"/>
</g>
<g class="st2">
	<path class="st3" d="M1481.8,1049l0-1.7l8.4-7.6c0.7-0.7,1.2-1.3,1.4-1.9c0.2-0.6,0.4-1.2,0.4-1.9c0-0.8-0.2-1.5-0.5-2.1
		c-0.4-0.6-0.8-1.1-1.5-1.5c-0.6-0.4-1.3-0.5-2.1-0.5c-0.8,0-1.5,0.2-2.1,0.6c-0.6,0.4-1.1,0.9-1.5,1.5c-0.4,0.6-0.5,1.3-0.5,2h-1.9
		c0-1.1,0.3-2.1,0.8-3c0.5-0.9,1.3-1.6,2.2-2.1c0.9-0.5,1.9-0.8,3.1-0.8c1.1,0,2.1,0.3,3,0.8c0.9,0.5,1.6,1.2,2.1,2.1
		c0.5,0.9,0.8,1.9,0.8,3c0,0.8-0.1,1.5-0.3,2s-0.5,1.1-0.9,1.6c-0.4,0.5-0.9,1-1.5,1.6l-7.5,6.7l-0.3-0.8h10.4v1.8H1481.8z"/>
</g>
<g class="st2">
	<path class="st3" d="M1502.4,1049.4c-0.9,0-1.8-0.2-2.5-0.5c-0.8-0.3-1.4-0.8-2-1.4c-0.6-0.6-1-1.3-1.2-2.2l1.8-0.5
		c0.3,0.9,0.8,1.6,1.5,2.1c0.7,0.5,1.5,0.7,2.4,0.7c0.8,0,1.5-0.2,2.1-0.6c0.6-0.4,1.1-0.8,1.4-1.5c0.3-0.6,0.5-1.4,0.5-2.2
		c0-1.3-0.4-2.3-1.1-3.1c-0.7-0.8-1.7-1.2-2.9-1.2c-0.3,0-0.7,0-1.1,0.1c-0.4,0.1-0.7,0.2-1,0.4l-1-1.5l7.2-6.7l0.3,0.8h-9.5v-1.8
		h10.8v1.8l-6.3,6l0-0.8c1.3-0.2,2.4,0,3.4,0.4c1,0.5,1.8,1.2,2.3,2.1c0.6,0.9,0.8,2,0.8,3.3c0,1.2-0.3,2.2-0.8,3.1
		c-0.5,0.9-1.2,1.6-2.1,2.1C1504.6,1049.1,1503.6,1049.4,1502.4,1049.4z"/>
</g>
<g class="st2">
	<path class="st3" d="M1540.6,1049l0-1.7l8.4-7.6c0.7-0.7,1.2-1.3,1.4-1.9c0.2-0.6,0.4-1.2,0.4-1.9c0-0.8-0.2-1.5-0.5-2.1
		c-0.4-0.6-0.8-1.1-1.5-1.5c-0.6-0.4-1.3-0.5-2.1-0.5c-0.8,0-1.5,0.2-2.1,0.6c-0.6,0.4-1.1,0.9-1.5,1.5c-0.4,0.6-0.5,1.3-0.5,2h-1.9
		c0-1.1,0.3-2.1,0.8-3c0.5-0.9,1.3-1.6,2.2-2.1c0.9-0.5,1.9-0.8,3.1-0.8c1.1,0,2.1,0.3,3,0.8c0.9,0.5,1.6,1.2,2.1,2.1s0.8,1.9,0.8,3
		c0,0.8-0.1,1.5-0.3,2c-0.2,0.6-0.5,1.1-0.9,1.6c-0.4,0.5-0.9,1-1.5,1.6l-7.5,6.7l-0.3-0.8h10.4v1.8H1540.6z"/>
</g>
<g class="st2">
	<path class="st3" d="M1564.4,1049v-3.6h-8.7v-1.8l6.2-13.2h2.1l-6.2,13.2h6.6v-5.4h1.9v5.4h2v1.8h-2v3.6H1564.4z"/>
</g>
<g class="st2">
	<path class="st3" d="M1600,1049l0-1.7l8.4-7.6c0.7-0.7,1.2-1.3,1.4-1.9c0.2-0.6,0.4-1.2,0.4-1.9c0-0.8-0.2-1.5-0.5-2.1
		c-0.4-0.6-0.8-1.1-1.5-1.5c-0.6-0.4-1.3-0.5-2.1-0.5c-0.8,0-1.5,0.2-2.1,0.6c-0.6,0.4-1.1,0.9-1.5,1.5c-0.4,0.6-0.5,1.3-0.5,2h-1.9
		c0-1.1,0.3-2.1,0.8-3c0.5-0.9,1.3-1.6,2.2-2.1c0.9-0.5,1.9-0.8,3.1-0.8c1.1,0,2.1,0.3,3,0.8s1.6,1.2,2.1,2.1c0.5,0.9,0.8,1.9,0.8,3
		c0,0.8-0.1,1.5-0.3,2s-0.5,1.1-0.9,1.6c-0.4,0.5-0.9,1-1.5,1.6l-7.5,6.7l-0.3-0.8h10.4v1.8H1600z"/>
</g>
<g class="st2">
	<path class="st3" d="M1621.1,1049.4c-1,0-1.9-0.2-2.7-0.6c-0.8-0.4-1.5-0.9-2.1-1.6c-0.6-0.7-1-1.5-1.2-2.4l1.8-0.5
		c0.2,0.7,0.5,1.3,0.9,1.7c0.4,0.5,0.9,0.9,1.5,1.1c0.6,0.3,1.2,0.4,1.8,0.4c0.8,0,1.6-0.2,2.2-0.6c0.7-0.4,1.2-0.9,1.6-1.6
		s0.6-1.4,0.6-2.2c0-0.8-0.2-1.6-0.6-2.2c-0.4-0.7-0.9-1.2-1.6-1.6c-0.7-0.4-1.4-0.6-2.2-0.6c-0.9,0-1.6,0.2-2.3,0.6
		s-1.1,0.9-1.5,1.4l-1.7-0.7l0.6-9.7h9.9v1.8h-9.1l0.9-0.9l-0.5,8.3l-0.5-0.6c0.5-0.6,1.2-1.1,1.9-1.4s1.6-0.5,2.4-0.5
		c1.1,0,2.2,0.3,3.1,0.8c0.9,0.5,1.7,1.3,2.2,2.2c0.5,0.9,0.8,2,0.8,3.1c0,1.1-0.3,2.2-0.9,3.1c-0.6,0.9-1.3,1.7-2.3,2.3
		C1623.3,1049.1,1622.2,1049.4,1621.1,1049.4z"/>
</g>
<g class="st2">
	<path class="st3" d="M1658.7,1049l0-1.7l8.4-7.6c0.7-0.7,1.2-1.3,1.4-1.9c0.2-0.6,0.4-1.2,0.4-1.9c0-0.8-0.2-1.5-0.5-2.1
		c-0.4-0.6-0.8-1.1-1.5-1.5c-0.6-0.4-1.3-0.5-2.1-0.5c-0.8,0-1.5,0.2-2.1,0.6c-0.6,0.4-1.1,0.9-1.5,1.5c-0.4,0.6-0.5,1.3-0.5,2h-1.9
		c0-1.1,0.3-2.1,0.8-3c0.5-0.9,1.3-1.6,2.2-2.1c0.9-0.5,1.9-0.8,3.1-0.8c1.1,0,2.1,0.3,3,0.8c0.9,0.5,1.6,1.2,2.1,2.1s0.8,1.9,0.8,3
		c0,0.8-0.1,1.5-0.3,2c-0.2,0.6-0.5,1.1-0.9,1.6c-0.4,0.5-0.9,1-1.5,1.6l-7.5,6.7l-0.3-0.8h10.4v1.8H1658.7z"/>
</g>
<g class="st2">
	<path class="st3" d="M1680.6,1049.4c-1.2,0-2.2-0.3-3.2-0.8c-1-0.6-1.7-1.3-2.3-2.3s-0.8-2.1-0.8-3.3v-6.5c0-1.2,0.3-2.4,0.8-3.3
		c0.6-1,1.3-1.8,2.3-2.3s2.1-0.8,3.3-0.8c1.1,0,2,0.2,3,0.7s1.7,1.1,2.2,2l-1.5,1.2c-0.4-0.6-0.9-1.1-1.6-1.5
		c-0.7-0.4-1.4-0.6-2.1-0.6c-0.9,0-1.6,0.2-2.3,0.6c-0.7,0.4-1.2,1-1.6,1.7c-0.4,0.7-0.6,1.4-0.6,2.2v4.1l-0.5-0.5
		c0.5-0.9,1.3-1.5,2.1-2.1c0.9-0.5,1.8-0.8,2.9-0.8c1.2,0,2.2,0.3,3.1,0.8c0.9,0.5,1.7,1.3,2.2,2.2c0.5,0.9,0.8,2,0.8,3.1
		c0,1.1-0.3,2.2-0.9,3.1s-1.3,1.7-2.3,2.2C1682.8,1049.1,1681.7,1049.4,1680.6,1049.4z M1680.6,1047.5c0.8,0,1.5-0.2,2.2-0.6
		c0.7-0.4,1.2-0.9,1.6-1.6s0.6-1.4,0.6-2.2c0-0.8-0.2-1.5-0.6-2.2s-0.9-1.2-1.6-1.6c-0.7-0.4-1.4-0.6-2.2-0.6s-1.5,0.2-2.2,0.6
		c-0.7,0.4-1.2,0.9-1.6,1.6s-0.6,1.4-0.6,2.2c0,0.8,0.2,1.5,0.6,2.2c0.4,0.7,0.9,1.2,1.6,1.6
		C1679,1047.4,1679.8,1047.5,1680.6,1047.5z"/>
</g>
<g class="st2">
	<path class="st3" d="M1719.5,1049l0-1.7l8.4-7.6c0.7-0.7,1.2-1.3,1.4-1.9c0.2-0.6,0.4-1.2,0.4-1.9c0-0.8-0.2-1.5-0.5-2.1
		c-0.4-0.6-0.8-1.1-1.5-1.5c-0.6-0.4-1.3-0.5-2.1-0.5c-0.8,0-1.5,0.2-2.1,0.6c-0.6,0.4-1.1,0.9-1.5,1.5c-0.4,0.6-0.5,1.3-0.5,2h-1.9
		c0-1.1,0.3-2.1,0.8-3c0.5-0.9,1.3-1.6,2.2-2.1c0.9-0.5,1.9-0.8,3.1-0.8c1.1,0,2.1,0.3,3,0.8c0.9,0.5,1.6,1.2,2.1,2.1s0.8,1.9,0.8,3
		c0,0.8-0.1,1.5-0.3,2c-0.2,0.6-0.5,1.1-0.9,1.6c-0.4,0.5-0.9,1-1.5,1.6l-7.5,6.7l-0.3-0.8h10.4v1.8H1719.5z"/>
</g>
<g class="st2">
	<path class="st3" d="M1736.1,1049l6.9-16.8h-8.6v-1.8h10.7v1.8l-6.8,16.8H1736.1z"/>
</g>
<g class="st2">
	<path class="st3" d="M1777.7,1049l0-1.7l8.4-7.6c0.7-0.7,1.2-1.3,1.4-1.9c0.2-0.6,0.4-1.2,0.4-1.9c0-0.8-0.2-1.5-0.5-2.1
		c-0.4-0.6-0.8-1.1-1.5-1.5c-0.6-0.4-1.3-0.5-2.1-0.5c-0.8,0-1.5,0.2-2.1,0.6c-0.6,0.4-1.1,0.9-1.5,1.5c-0.4,0.6-0.5,1.3-0.5,2h-1.9
		c0-1.1,0.3-2.1,0.8-3c0.5-0.9,1.3-1.6,2.2-2.1c0.9-0.5,1.9-0.8,3.1-0.8c1.1,0,2.1,0.3,3,0.8s1.6,1.2,2.1,2.1c0.5,0.9,0.8,1.9,0.8,3
		c0,0.8-0.1,1.5-0.3,2s-0.5,1.1-0.9,1.6c-0.4,0.5-0.9,1-1.5,1.6l-7.5,6.7l-0.3-0.8h10.4v1.8H1777.7z"/>
</g>
<g class="st2">
	<path class="st3" d="M1799,1049.4c-1.2,0-2.2-0.2-3.1-0.7c-0.9-0.5-1.6-1.1-2.1-2c-0.5-0.8-0.8-1.8-0.8-3c0-1.2,0.3-2.2,0.8-3.1
		c0.6-0.9,1.4-1.6,2.6-2l0,0.7c-1-0.4-1.7-0.9-2.2-1.7s-0.8-1.7-0.8-2.7c0-1,0.2-1.9,0.7-2.7c0.5-0.7,1.1-1.3,1.9-1.7
		c0.8-0.4,1.8-0.6,2.8-0.6c1.1,0,2,0.2,2.8,0.6c0.8,0.4,1.5,1,2,1.7c0.5,0.7,0.7,1.6,0.7,2.7c0,1-0.2,1.9-0.7,2.7
		c-0.5,0.8-1.2,1.4-2.2,1.7l-0.1-0.7c1.1,0.5,2,1.1,2.6,2c0.6,0.9,0.9,1.9,0.9,3.1c0,1.1-0.3,2.1-0.8,3c-0.5,0.8-1.2,1.5-2.1,2
		C1801.2,1049.2,1800.1,1049.4,1799,1049.4z M1799,1047.6c1.2,0,2.1-0.3,2.9-1c0.7-0.7,1.1-1.6,1.1-2.8c0-1.2-0.4-2.2-1.1-2.8
		s-1.7-1-2.9-1s-2.1,0.3-2.9,1c-0.7,0.6-1.1,1.6-1.1,2.8c0,1.2,0.4,2.2,1.1,2.8C1796.8,1047.2,1797.8,1047.6,1799,1047.6z
		 M1799,1038.2c1,0,1.9-0.3,2.5-0.8s1-1.3,1-2.4s-0.3-1.8-1-2.3s-1.5-0.8-2.5-0.8c-1,0-1.9,0.3-2.5,0.8s-1,1.3-1,2.3s0.3,1.8,1,2.4
		S1797.9,1038.2,1799,1038.2z"/>
</g>
<g class="st2">
	<path class="st3" d="M1836.4,1049l0-1.7l8.4-7.6c0.7-0.7,1.2-1.3,1.4-1.9c0.2-0.6,0.4-1.2,0.4-1.9c0-0.8-0.2-1.5-0.5-2.1
		c-0.4-0.6-0.8-1.1-1.5-1.5c-0.6-0.4-1.3-0.5-2.1-0.5c-0.8,0-1.5,0.2-2.1,0.6c-0.6,0.4-1.1,0.9-1.5,1.5c-0.4,0.6-0.5,1.3-0.5,2h-1.9
		c0-1.1,0.3-2.1,0.8-3c0.5-0.9,1.3-1.6,2.2-2.1c0.9-0.5,1.9-0.8,3.1-0.8c1.1,0,2.1,0.3,3,0.8c0.9,0.5,1.6,1.2,2.1,2.1s0.8,1.9,0.8,3
		c0,0.8-0.1,1.5-0.3,2c-0.2,0.6-0.5,1.1-0.9,1.6c-0.4,0.5-0.9,1-1.5,1.6l-7.5,6.7l-0.3-0.8h10.4v1.8H1836.4z"/>
</g>
<g class="st2">
	<path class="st3" d="M1858.1,1030c1.2,0,2.2,0.3,3.2,0.8s1.7,1.3,2.3,2.3c0.6,1,0.8,2.1,0.8,3.3v6.5c0,1.2-0.3,2.4-0.8,3.3
		s-1.3,1.8-2.3,2.3s-2.1,0.8-3.3,0.8c-1.1,0-2-0.2-3-0.7c-0.9-0.5-1.7-1.1-2.2-2l1.5-1.2c0.4,0.6,0.9,1.1,1.6,1.5
		c0.7,0.4,1.4,0.6,2.1,0.6c0.9,0,1.6-0.2,2.3-0.6c0.7-0.4,1.2-1,1.6-1.7c0.4-0.7,0.6-1.4,0.6-2.2v-4.1l0.5,0.5
		c-0.5,0.9-1.3,1.5-2.1,2.1c-0.9,0.5-1.8,0.8-2.9,0.8c-1.2,0-2.2-0.3-3.1-0.8c-0.9-0.5-1.7-1.3-2.2-2.2c-0.5-0.9-0.8-2-0.8-3.1
		c0-1.1,0.3-2.2,0.9-3.1c0.6-0.9,1.3-1.7,2.3-2.2C1855.9,1030.3,1857,1030,1858.1,1030z M1858.1,1031.9c-0.8,0-1.5,0.2-2.2,0.6
		s-1.2,0.9-1.6,1.6c-0.4,0.7-0.6,1.4-0.6,2.2c0,0.8,0.2,1.5,0.6,2.2c0.4,0.7,0.9,1.2,1.6,1.6c0.7,0.4,1.4,0.6,2.2,0.6
		c0.8,0,1.5-0.2,2.2-0.6c0.7-0.4,1.2-0.9,1.6-1.6c0.4-0.7,0.6-1.4,0.6-2.2c0-0.8-0.2-1.5-0.6-2.2s-0.9-1.2-1.6-1.6
		C1859.7,1032.1,1859,1031.9,1858.1,1031.9z"/>
</g>
<g class="st2">
	<path class="st3" d="M1901.5,1049.4c-0.9,0-1.8-0.2-2.5-0.5c-0.8-0.3-1.4-0.8-2-1.4c-0.6-0.6-1-1.3-1.2-2.2l1.8-0.5
		c0.3,0.9,0.8,1.6,1.5,2.1c0.7,0.5,1.5,0.7,2.4,0.7c0.8,0,1.5-0.2,2.1-0.6s1.1-0.8,1.4-1.5c0.3-0.6,0.5-1.4,0.5-2.2
		c0-1.3-0.4-2.3-1.1-3.1c-0.7-0.8-1.7-1.2-2.9-1.2c-0.3,0-0.7,0-1.1,0.1c-0.4,0.1-0.7,0.2-1,0.4l-1-1.5l7.2-6.7l0.3,0.8h-9.5v-1.8
		h10.8v1.8l-6.3,6l0-0.8c1.3-0.2,2.4,0,3.4,0.4c1,0.5,1.8,1.2,2.3,2.1c0.6,0.9,0.8,2,0.8,3.3c0,1.2-0.3,2.2-0.8,3.1
		c-0.5,0.9-1.2,1.6-2.1,2.1S1902.7,1049.4,1901.5,1049.4z"/>
</g>
<g class="st2">
	<path class="st3" d="M1917.7,1049.4c-1.1,0-2.2-0.3-3.1-0.8c-0.9-0.5-1.6-1.3-2.2-2.2c-0.5-0.9-0.8-2-0.8-3.1v-7.2
		c0-1.1,0.3-2.2,0.8-3.1c0.5-0.9,1.3-1.6,2.2-2.2c0.9-0.5,2-0.8,3.1-0.8s2.2,0.3,3.1,0.8c0.9,0.5,1.6,1.3,2.2,2.2
		c0.5,0.9,0.8,2,0.8,3.1v7.2c0,1.1-0.3,2.2-0.8,3.1c-0.5,0.9-1.3,1.6-2.2,2.2C1919.9,1049.1,1918.8,1049.4,1917.7,1049.4z
		 M1917.7,1047.6c0.8,0,1.5-0.2,2.1-0.6c0.6-0.4,1.1-0.9,1.5-1.5c0.4-0.6,0.6-1.3,0.6-2.1v-7.4c0-0.8-0.2-1.5-0.6-2.1
		c-0.4-0.6-0.9-1.1-1.5-1.5c-0.6-0.4-1.3-0.6-2.1-0.6c-0.8,0-1.5,0.2-2.1,0.6c-0.6,0.4-1.1,0.9-1.5,1.5c-0.4,0.6-0.6,1.3-0.6,2.1
		v7.4c0,0.8,0.2,1.5,0.6,2.1c0.4,0.6,0.9,1.1,1.5,1.5C1916.2,1047.4,1916.9,1047.6,1917.7,1047.6z"/>
</g>
<g class="st2">
	<path class="st3" d="M1963.6,1049.4c-0.9,0-1.8-0.2-2.5-0.5c-0.8-0.3-1.4-0.8-2-1.4c-0.6-0.6-1-1.3-1.2-2.2l1.8-0.5
		c0.3,0.9,0.8,1.6,1.5,2.1c0.7,0.5,1.5,0.7,2.4,0.7c0.8,0,1.5-0.2,2.1-0.6c0.6-0.4,1.1-0.8,1.4-1.5c0.3-0.6,0.5-1.4,0.5-2.2
		c0-1.3-0.4-2.3-1.1-3.1s-1.7-1.2-2.9-1.2c-0.3,0-0.7,0-1.1,0.1c-0.4,0.1-0.7,0.2-1,0.4l-1-1.5l7.2-6.7l0.3,0.8h-9.5v-1.8h10.8v1.8
		l-6.3,6l0-0.8c1.3-0.2,2.4,0,3.4,0.4c1,0.5,1.8,1.2,2.3,2.1c0.6,0.9,0.8,2,0.8,3.3c0,1.2-0.3,2.2-0.8,3.1c-0.5,0.9-1.2,1.6-2.1,2.1
		S1964.8,1049.4,1963.6,1049.4z"/>
</g>
<g class="st2">
	<path class="st3" d="M1977,1049v-16.5l-3.5,2.1v-2.1l3.5-2.1h1.9v18.6H1977z"/>
</g>
<g class="st2">
	<path class="st3" d="M37,553.3H16.1v-8.1c0-0.2,0-0.4,0-0.7c0-0.3,0-0.5,0.1-0.8c0.2-1.1,0.5-2,1.1-2.8s1.3-1.3,2.2-1.7
		c0.9-0.4,1.9-0.6,3-0.6c1.1,0,2.1,0.2,3,0.6c0.9,0.4,1.6,1,2.2,1.7c0.6,0.8,1,1.7,1.1,2.8c0,0.3,0.1,0.5,0.1,0.8c0,0.3,0,0.5,0,0.7
		v5.9H37V553.3z M27,551.1v-5.9c0-0.2,0-0.4,0-0.6s-0.1-0.5-0.1-0.7c-0.2-0.7-0.4-1.3-0.9-1.8c-0.4-0.5-1-0.8-1.6-1
		c-0.6-0.2-1.2-0.3-1.9-0.3s-1.3,0.1-1.9,0.3c-0.6,0.2-1.1,0.6-1.6,1c-0.4,0.5-0.7,1-0.9,1.8c0,0.2-0.1,0.4-0.1,0.7s0,0.4,0,0.6v5.9
		H27z"/>
	<path class="st3" d="M37,536.6H21.3v-1.9h3.8l-0.5,0.4c-0.5-0.2-0.9-0.4-1.3-0.7c-0.4-0.3-0.7-0.6-1-0.9c-0.4-0.4-0.6-0.9-0.8-1.4
		c-0.2-0.5-0.3-1.1-0.3-1.6c0-0.6,0-1.1,0.1-1.5h2c-0.1,0.6-0.2,1.2-0.1,1.9c0.1,0.7,0.3,1.3,0.8,1.9c0.4,0.5,0.9,0.9,1.5,1.2
		c0.6,0.3,1.2,0.4,1.8,0.5c0.6,0.1,1.3,0.1,1.9,0.1H37V536.6z"/>
	<path class="st3" d="M37.4,520.8c0,1.6-0.4,2.9-1.1,4c-0.7,1.1-1.7,1.9-2.9,2.5c-1.2,0.6-2.7,0.9-4.3,0.9c-1.6,0-3.1-0.3-4.3-0.9
		c-1.2-0.6-2.2-1.5-2.9-2.6c-0.7-1.1-1-2.4-1-4c0-1.6,0.4-2.9,1.1-4c0.7-1.1,1.7-2,2.9-2.5s2.7-0.9,4.3-0.9c1.6,0,3.1,0.3,4.3,0.9
		c1.2,0.6,2.2,1.4,2.9,2.6C37.1,517.9,37.4,519.2,37.4,520.8z M35.4,520.8c0-1.7-0.6-3-1.7-3.9s-2.7-1.3-4.5-1.3
		c-1.9,0-3.4,0.4-4.5,1.3c-1.1,0.9-1.7,2.1-1.7,3.9c0,1.2,0.3,2.1,0.8,2.9c0.5,0.8,1.3,1.3,2.2,1.7c0.9,0.4,2,0.6,3.2,0.6
		c1.9,0,3.4-0.4,4.5-1.3S35.4,522.5,35.4,520.8z"/>
	<path class="st3" d="M37,511.1H16.1v-2.1h9.1v0.2H37V511.1z M37.4,504c0,1.4-0.4,2.7-1.1,3.7c-0.7,1-1.7,1.8-3,2.3
		c-1.3,0.5-2.7,0.8-4.2,0.8c-1.6,0-3-0.3-4.2-0.8s-2.2-1.3-2.9-2.3c-0.7-1-1.1-2.2-1.1-3.7c0-1.4,0.4-2.7,1.1-3.7
		c0.7-1,1.7-1.8,3-2.4c1.2-0.5,2.6-0.8,4.2-0.8c1.6,0,3,0.3,4.2,0.8c1.2,0.6,2.2,1.3,3,2.4C37.1,501.3,37.4,502.6,37.4,504z
		 M35.4,504.2c0-1.1-0.3-2-0.8-2.7c-0.6-0.7-1.3-1.3-2.3-1.6c-1-0.4-2-0.5-3.2-0.5c-1.2,0-2.2,0.2-3.2,0.5c-0.9,0.4-1.7,0.9-2.2,1.6
		s-0.8,1.7-0.8,2.8c0,1.1,0.3,2,0.8,2.7c0.5,0.7,1.3,1.3,2.2,1.6c0.9,0.4,2,0.5,3.3,0.5c1.2,0,2.3-0.2,3.2-0.5
		c1-0.4,1.7-0.9,2.2-1.6C35.2,506.3,35.4,505.3,35.4,504.2z"/>
	<path class="st3" d="M37.4,490.3c0,1.2-0.2,2.2-0.6,3c-0.4,0.8-1,1.4-1.7,1.8s-1.5,0.6-2.3,0.6c-0.9,0-1.6-0.2-2.2-0.5
		c-0.6-0.3-1.1-0.8-1.5-1.4c-0.4-0.6-0.7-1.3-0.9-2.1c-0.2-0.8-0.4-1.7-0.5-2.6c-0.2-1-0.3-1.9-0.4-2.8c-0.1-0.9-0.2-1.7-0.3-2.4
		l0.5,0.8c-1.5,0-2.7,0.3-3.4,0.9s-1.1,1.7-1.1,3.3c0,1.1,0.2,2,0.7,2.7c0.5,0.7,1.2,1.3,2.3,1.6l-0.6,2.1c-1.4-0.4-2.5-1.1-3.3-2.2
		c-0.8-1.1-1.2-2.5-1.2-4.2c0-1.4,0.3-2.6,0.8-3.6c0.5-1,1.3-1.7,2.3-2.1c0.5-0.2,1-0.3,1.5-0.4c0.6-0.1,1.1-0.1,1.7-0.1H37v1.9
		h-3.9l0.2-0.6c1.3,0.5,2.4,1.4,3.1,2.5C37.1,487.4,37.4,488.7,37.4,490.3z M35.6,490c0-1-0.2-1.9-0.5-2.6c-0.4-0.7-0.8-1.3-1.5-1.8
		c-0.6-0.5-1.3-0.7-2.1-0.9c-0.5-0.1-1.1-0.2-1.7-0.2s-1.1,0-1.4,0l0.4-0.8c0.1,0.7,0.2,1.5,0.3,2.4c0.1,0.8,0.2,1.7,0.3,2.5
		c0.1,0.8,0.3,1.6,0.4,2.2c0.1,0.4,0.3,0.9,0.5,1.3s0.5,0.8,0.9,1c0.4,0.3,0.8,0.4,1.4,0.4c0.5,0,0.9-0.1,1.3-0.3
		c0.4-0.2,0.8-0.6,1.1-1.1C35.5,491.5,35.6,490.9,35.6,490z"/>
	<path class="st3" d="M37,479.5H16.1v-2.1h9.1v0.2H37V479.5z M37.4,472.5c0,1.4-0.4,2.7-1.1,3.7c-0.7,1-1.7,1.8-3,2.3
		c-1.3,0.5-2.7,0.8-4.2,0.8c-1.6,0-3-0.3-4.2-0.8s-2.2-1.3-2.9-2.3c-0.7-1-1.1-2.2-1.1-3.7c0-1.4,0.4-2.7,1.1-3.7
		c0.7-1,1.7-1.8,3-2.4c1.2-0.5,2.6-0.8,4.2-0.8c1.6,0,3,0.3,4.2,0.8c1.2,0.6,2.2,1.3,3,2.4C37.1,469.8,37.4,471,37.4,472.5z
		 M35.4,472.7c0-1.1-0.3-2-0.8-2.7c-0.6-0.7-1.3-1.3-2.3-1.6c-1-0.4-2-0.5-3.2-0.5c-1.2,0-2.2,0.2-3.2,0.5c-0.9,0.4-1.7,0.9-2.2,1.6
		s-0.8,1.7-0.8,2.8c0,1.1,0.3,2,0.8,2.7c0.5,0.7,1.3,1.3,2.2,1.6c0.9,0.4,2,0.5,3.3,0.5c1.2,0,2.3-0.2,3.2-0.5
		c1-0.4,1.7-0.9,2.2-1.6C35.2,474.7,35.4,473.8,35.4,472.7z"/>
	<path class="st3" d="M18.4,462.9H16v-2.1h2.4V462.9z M37,462.9H21.3v-2.1H37V462.9z"/>
	<path class="st3" d="M37,457H15.7v-2.1H37V457z"/>
	<path class="st3" d="M18.4,451.1H16V449h2.4V451.1z M37,451.1H21.3V449H37V451.1z"/>
	<path class="st3" d="M37,437c0.2,0.9,0.3,1.7,0.2,2.6c0,0.9-0.2,1.6-0.6,2.3c-0.3,0.7-0.8,1.2-1.5,1.5c-0.6,0.3-1.2,0.4-1.8,0.5
		c-0.6,0-1.3,0-2,0H17v-2.1h14.3c0.7,0,1.2,0,1.6,0c0.4,0,0.8-0.1,1.2-0.3c0.6-0.3,1-0.9,1.2-1.7c0.1-0.8,0.1-1.7-0.1-2.8H37z
		 M23.2,447.2h-1.8V437h1.8V447.2z"/>
	<path class="st3" d="M44,433l-8.2-3l2.4,0l-16.8,6.9v-2.3l14.1-5.6v0.9l-14.1-5.2v-2.2l22.6,8.4V433z"/>
</g>
<g class="st2">
	<path class="st3" d="M921.3,1092.2c-1.5,0-2.8-0.2-3.9-0.7c-1.2-0.5-2.1-1.2-2.9-2.1s-1.3-2-1.5-3.2l2.2-0.4
		c0.3,1.4,1.1,2.4,2.2,3.2c1.1,0.8,2.5,1.2,4,1.2c1,0,1.9-0.2,2.8-0.5c0.8-0.3,1.5-0.8,1.9-1.4c0.5-0.6,0.7-1.3,0.7-2.1
		c0-0.5-0.1-1-0.3-1.4s-0.4-0.7-0.8-1c-0.3-0.3-0.7-0.5-1-0.6c-0.4-0.2-0.7-0.3-1.1-0.4l-5.3-1.6c-0.6-0.2-1.2-0.4-1.8-0.7
		c-0.5-0.3-1-0.6-1.4-1c-0.4-0.4-0.7-0.9-0.9-1.4s-0.3-1.2-0.3-1.9c0-1.2,0.3-2.2,0.9-3.1c0.6-0.9,1.5-1.5,2.5-2s2.3-0.7,3.7-0.7
		c1.4,0,2.6,0.2,3.7,0.7c1.1,0.5,2,1.2,2.7,2.1c0.7,0.9,1.2,2,1.4,3.2l-2.2,0.4c-0.1-0.9-0.5-1.7-1-2.4c-0.5-0.7-1.2-1.2-2-1.5
		c-0.8-0.4-1.7-0.5-2.7-0.6c-0.9,0-1.8,0.2-2.5,0.5c-0.7,0.3-1.3,0.7-1.7,1.3c-0.4,0.5-0.6,1.2-0.6,1.9c0,0.7,0.2,1.3,0.6,1.7
		c0.4,0.4,0.9,0.8,1.5,1s1.1,0.4,1.7,0.6l4.1,1.2c0.4,0.1,0.9,0.3,1.5,0.5c0.6,0.2,1.1,0.5,1.7,0.9c0.5,0.4,1,0.9,1.4,1.6
		c0.4,0.6,0.5,1.5,0.5,2.5c0,1-0.2,1.8-0.6,2.6c-0.4,0.8-0.9,1.4-1.6,1.9c-0.7,0.5-1.5,0.9-2.4,1.2
		C923.4,1092,922.4,1092.2,921.3,1092.2z"/>
	<path class="st3" d="M937.9,1092.1c-0.9,0-1.8-0.1-2.5-0.4c-0.7-0.3-1.3-0.7-1.8-1.2s-0.9-1.1-1.2-1.7s-0.5-1.3-0.7-2
		c-0.1-0.7-0.2-1.4-0.2-2.1v-8.6h2.1v8c0,0.9,0.1,1.7,0.2,2.4c0.2,0.7,0.4,1.4,0.8,1.9s0.8,1,1.4,1.3s1.3,0.4,2.1,0.4
		c0.8,0,1.4-0.1,2-0.4c0.6-0.3,1.1-0.6,1.4-1.1s0.7-1.1,0.9-1.8c0.2-0.7,0.3-1.5,0.3-2.4l1.5,0.3c0,1.6-0.3,3-0.8,4
		c-0.6,1.1-1.3,1.9-2.3,2.5C940.3,1091.8,939.2,1092.1,937.9,1092.1z M943.2,1091.7v-3.9H943v-11.8h2.1v15.7H943.2z"/>
	<path class="st3" d="M949.1,1098.7v-22.6h1.9v11.8h0.2v10.8H949.1z M956.2,1092.2c-1.4,0-2.7-0.4-3.7-1.1c-1-0.7-1.8-1.7-2.3-3
		c-0.5-1.3-0.8-2.7-0.8-4.2c0-1.6,0.3-3,0.8-4.2c0.5-1.2,1.3-2.2,2.3-2.9c1-0.7,2.2-1.1,3.7-1.1c1.4,0,2.7,0.4,3.7,1.1
		c1,0.7,1.8,1.7,2.4,3s0.8,2.6,0.8,4.2c0,1.6-0.3,3-0.8,4.2c-0.6,1.2-1.3,2.2-2.4,3C958.9,1091.8,957.6,1092.2,956.2,1092.2z
		 M956,1090.2c1.1,0,2-0.3,2.7-0.8c0.7-0.6,1.3-1.3,1.6-2.3s0.5-2,0.5-3.2c0-1.2-0.2-2.2-0.5-3.2s-0.9-1.7-1.6-2.2
		c-0.7-0.6-1.7-0.8-2.8-0.8c-1.1,0-2,0.3-2.7,0.8c-0.7,0.5-1.3,1.3-1.6,2.2s-0.5,2-0.5,3.3c0,1.2,0.2,2.3,0.5,3.2s0.9,1.7,1.6,2.2
		S954.8,1090.2,956,1090.2z"/>
	<path class="st3" d="M972.9,1092.2c-1.5,0-2.8-0.3-4-1s-2-1.6-2.6-2.9c-0.6-1.2-0.9-2.7-0.9-4.3c0-1.7,0.3-3.2,0.9-4.4
		s1.5-2.2,2.6-2.9c1.1-0.7,2.4-1,3.9-1c1.5,0,2.9,0.4,4,1.1c1.1,0.7,1.9,1.7,2.5,3.1s0.8,2.9,0.8,4.7h-2.2v-0.8c0-2-0.5-3.6-1.3-4.6
		c-0.8-1-2.1-1.6-3.7-1.6c-1.7,0-3,0.5-3.9,1.6c-0.9,1.1-1.3,2.6-1.3,4.7c0,2,0.4,3.5,1.3,4.6c0.9,1.1,2.2,1.6,3.8,1.6
		c1.1,0,2.1-0.3,2.9-0.8c0.8-0.5,1.5-1.3,2-2.2l2,0.8c-0.6,1.4-1.5,2.4-2.7,3.2C975.8,1091.8,974.5,1092.2,972.9,1092.2z
		 M967,1084.5v-1.8h12v1.8H967z"/>
	<path class="st3" d="M983.3,1091.7v-15.7h1.9v3.8l-0.4-0.5c0.2-0.5,0.4-0.9,0.7-1.3c0.3-0.4,0.6-0.7,0.9-1c0.4-0.4,0.9-0.6,1.4-0.8
		s1.1-0.3,1.6-0.3s1.1,0,1.5,0.1v2c-0.6-0.1-1.2-0.2-1.9-0.1c-0.7,0.1-1.3,0.3-1.9,0.8c-0.5,0.4-0.9,0.9-1.2,1.5s-0.4,1.2-0.5,1.8
		c-0.1,0.6-0.1,1.3-0.1,1.9v7.8H983.3z"/>
	<path class="st3" d="M999.8,1091.7v-20.9h2.1v18.8h9.9v2H999.8z"/>
	<path class="st3" d="M1020.9,1092.2c-1.5,0-2.8-0.3-4-1c-1.1-0.7-2-1.6-2.6-2.9c-0.6-1.2-0.9-2.7-0.9-4.3c0-1.7,0.3-3.2,0.9-4.4
		c0.6-1.2,1.5-2.2,2.6-2.9c1.1-0.7,2.4-1,3.9-1c1.5,0,2.9,0.4,4,1.1c1.1,0.7,1.9,1.7,2.5,3.1s0.8,2.9,0.8,4.7h-2.2v-0.8
		c0-2-0.5-3.6-1.3-4.6s-2.1-1.6-3.7-1.6c-1.7,0-3,0.5-3.9,1.6c-0.9,1.1-1.3,2.6-1.3,4.7c0,2,0.4,3.5,1.3,4.6
		c0.9,1.1,2.2,1.6,3.8,1.6c1.1,0,2.1-0.3,2.9-0.8c0.8-0.5,1.5-1.3,2-2.2l2,0.8c-0.6,1.4-1.5,2.4-2.7,3.2
		C1023.8,1091.8,1022.5,1092.2,1020.9,1092.2z M1015,1084.5v-1.8h12v1.8H1015z"/>
	<path class="st3" d="M1034.9,1091.7l-5.7-15.7h2.2l4.6,12.9l4.6-12.9h2.2l-5.7,15.7H1034.9z"/>
	<path class="st3" d="M1051.5,1092.2c-1.5,0-2.8-0.3-4-1s-2-1.6-2.6-2.9c-0.6-1.2-0.9-2.7-0.9-4.3c0-1.7,0.3-3.2,0.9-4.4
		s1.5-2.2,2.6-2.9c1.1-0.7,2.4-1,3.9-1c1.5,0,2.9,0.4,4,1.1c1.1,0.7,1.9,1.7,2.5,3.1s0.8,2.9,0.8,4.7h-2.2v-0.8c0-2-0.5-3.6-1.3-4.6
		c-0.8-1-2.1-1.6-3.7-1.6c-1.7,0-3,0.5-3.9,1.6c-0.9,1.1-1.3,2.6-1.3,4.7c0,2,0.4,3.5,1.3,4.6c0.9,1.1,2.2,1.6,3.8,1.6
		c1.1,0,2.1-0.3,2.9-0.8c0.8-0.5,1.5-1.3,2-2.2l2,0.8c-0.6,1.4-1.5,2.4-2.7,3.2C1054.3,1091.8,1053,1092.2,1051.5,1092.2z
		 M1045.5,1084.5v-1.8h12v1.8H1045.5z"/>
	<path class="st3" d="M1062.1,1091.7v-21.3h2.1v21.3H1062.1z"/>
</g>
<g class="st2">
	<path class="st3" d="M662.6,29.8V8.9h8.1c0.2,0,0.4,0,0.7,0c0.3,0,0.5,0,0.8,0.1c1.1,0.2,2,0.5,2.8,1.1s1.3,1.3,1.7,2.2
		c0.4,0.9,0.6,1.9,0.6,3c0,1.1-0.2,2.1-0.6,3c-0.4,0.9-1,1.6-1.7,2.2c-0.8,0.6-1.7,1-2.8,1.1c-0.3,0-0.5,0.1-0.8,0.1
		c-0.3,0-0.5,0-0.7,0h-5.9v7.9H662.6z M664.8,19.8h5.9c0.2,0,0.4,0,0.6,0s0.5-0.1,0.7-0.1c0.7-0.2,1.3-0.4,1.8-0.9
		c0.5-0.4,0.8-1,1-1.6c0.2-0.6,0.3-1.2,0.3-1.9s-0.1-1.3-0.3-1.9c-0.2-0.6-0.6-1.1-1-1.6c-0.5-0.4-1-0.7-1.8-0.9
		c-0.2,0-0.4-0.1-0.7-0.1s-0.4,0-0.6,0h-5.9V19.8z"/>
	<path class="st3" d="M680.1,29.8V14.1h1.9v3.8l-0.4-0.5c0.2-0.5,0.4-0.9,0.7-1.3c0.3-0.4,0.6-0.7,0.9-1c0.4-0.4,0.9-0.6,1.4-0.8
		c0.5-0.2,1.1-0.3,1.6-0.3c0.6,0,1.1,0,1.5,0.1v2c-0.6-0.1-1.2-0.2-1.9-0.1c-0.7,0.1-1.3,0.3-1.9,0.8c-0.5,0.4-0.9,0.9-1.2,1.5
		c-0.3,0.6-0.4,1.2-0.5,1.8c-0.1,0.6-0.1,1.3-0.1,1.9v7.8H680.1z"/>
	<path class="st3" d="M696.8,30.2c-1.6,0-2.9-0.4-4-1.1c-1.1-0.7-1.9-1.7-2.5-2.9c-0.6-1.2-0.9-2.7-0.9-4.3c0-1.6,0.3-3.1,0.9-4.3
		c0.6-1.2,1.5-2.2,2.6-2.9c1.1-0.7,2.4-1,4-1c1.6,0,2.9,0.4,4,1.1c1.1,0.7,2,1.7,2.5,2.9s0.9,2.7,0.9,4.3c0,1.6-0.3,3.1-0.9,4.3
		c-0.6,1.2-1.4,2.2-2.6,2.9C699.7,29.9,698.4,30.2,696.8,30.2z M696.8,28.2c1.7,0,3-0.6,3.9-1.7s1.3-2.7,1.3-4.5
		c0-1.9-0.4-3.4-1.3-4.5c-0.9-1.1-2.1-1.7-3.9-1.7c-1.2,0-2.1,0.3-2.9,0.8c-0.8,0.5-1.3,1.3-1.7,2.2c-0.4,0.9-0.6,2-0.6,3.2
		c0,1.9,0.4,3.4,1.3,4.5S695.2,28.2,696.8,28.2z"/>
	<path class="st3" d="M707.4,29.8V8.9h2.1V18h-0.2v11.8H707.4z M714.5,30.2c-1.4,0-2.7-0.4-3.7-1.1c-1-0.7-1.8-1.7-2.3-3
		c-0.5-1.3-0.8-2.7-0.8-4.2c0-1.6,0.3-3,0.8-4.2s1.3-2.2,2.3-2.9c1-0.7,2.2-1.1,3.7-1.1c1.4,0,2.7,0.4,3.7,1.1c1,0.7,1.8,1.7,2.4,3
		c0.5,1.2,0.8,2.6,0.8,4.2c0,1.6-0.3,3-0.8,4.2c-0.6,1.2-1.3,2.2-2.4,3C717.2,29.9,716,30.2,714.5,30.2z M714.3,28.2
		c1.1,0,2-0.3,2.7-0.8c0.7-0.6,1.3-1.3,1.6-2.3c0.4-1,0.5-2,0.5-3.2c0-1.2-0.2-2.2-0.5-3.2c-0.4-0.9-0.9-1.7-1.6-2.2
		s-1.7-0.8-2.8-0.8c-1.1,0-2,0.3-2.7,0.8c-0.7,0.5-1.3,1.3-1.6,2.2c-0.4,0.9-0.5,2-0.5,3.3c0,1.2,0.2,2.3,0.5,3.2
		c0.4,1,0.9,1.7,1.6,2.2C712.2,28,713.2,28.2,714.3,28.2z"/>
	<path class="st3" d="M729.1,30.2c-1.2,0-2.2-0.2-3-0.6c-0.8-0.4-1.4-1-1.8-1.7s-0.6-1.5-0.6-2.3c0-0.9,0.2-1.6,0.5-2.2
		c0.3-0.6,0.8-1.1,1.4-1.5c0.6-0.4,1.3-0.7,2.1-0.9c0.8-0.2,1.7-0.4,2.6-0.5c1-0.2,1.9-0.3,2.8-0.4c0.9-0.1,1.7-0.2,2.4-0.3
		l-0.8,0.5c0-1.5-0.3-2.7-0.9-3.4s-1.7-1.1-3.3-1.1c-1.1,0-2,0.2-2.7,0.7c-0.7,0.5-1.3,1.2-1.6,2.3l-2.1-0.6
		c0.4-1.4,1.1-2.5,2.2-3.3c1.1-0.8,2.5-1.2,4.2-1.2c1.4,0,2.6,0.3,3.6,0.8c1,0.5,1.7,1.3,2.1,2.3c0.2,0.5,0.3,1,0.4,1.5
		c0.1,0.6,0.1,1.1,0.1,1.7v9.7h-1.9v-3.9l0.6,0.2c-0.5,1.3-1.4,2.4-2.5,3.1C732,29.9,730.7,30.2,729.1,30.2z M729.4,28.4
		c1,0,1.9-0.2,2.6-0.5c0.7-0.4,1.3-0.8,1.8-1.5c0.5-0.6,0.7-1.3,0.9-2.1c0.1-0.5,0.2-1.1,0.2-1.7s0-1.1,0-1.4l0.8,0.4
		c-0.7,0.1-1.5,0.2-2.4,0.3c-0.8,0.1-1.7,0.2-2.5,0.3c-0.8,0.1-1.6,0.3-2.2,0.4c-0.4,0.1-0.9,0.3-1.3,0.5s-0.8,0.5-1,0.9
		c-0.3,0.4-0.4,0.8-0.4,1.4c0,0.5,0.1,0.9,0.3,1.3c0.2,0.4,0.6,0.8,1.1,1.1C727.8,28.2,728.5,28.4,729.4,28.4z"/>
	<path class="st3" d="M740.7,29.8V8.9h2.1V18h-0.2v11.8H740.7z M747.8,30.2c-1.4,0-2.7-0.4-3.7-1.1c-1-0.7-1.8-1.7-2.3-3
		c-0.5-1.3-0.8-2.7-0.8-4.2c0-1.6,0.3-3,0.8-4.2s1.3-2.2,2.3-2.9c1-0.7,2.2-1.1,3.7-1.1c1.4,0,2.7,0.4,3.7,1.1c1,0.7,1.8,1.7,2.4,3
		c0.5,1.2,0.8,2.6,0.8,4.2c0,1.6-0.3,3-0.8,4.2c-0.6,1.2-1.3,2.2-2.4,3C750.5,29.9,749.2,30.2,747.8,30.2z M747.6,28.2
		c1.1,0,2-0.3,2.7-0.8c0.7-0.6,1.3-1.3,1.6-2.3c0.4-1,0.5-2,0.5-3.2c0-1.2-0.2-2.2-0.5-3.2c-0.4-0.9-0.9-1.7-1.6-2.2
		s-1.7-0.8-2.8-0.8c-1.1,0-2,0.3-2.7,0.8c-0.7,0.5-1.3,1.3-1.6,2.2c-0.4,0.9-0.5,2-0.5,3.3c0,1.2,0.2,2.3,0.5,3.2
		c0.4,1,0.9,1.7,1.6,2.2C745.5,28,746.4,28.2,747.6,28.2z"/>
	<path class="st3" d="M758.2,11.2V8.8h2.1v2.4H758.2z M758.2,29.8V14.1h2.1v15.7H758.2z"/>
	<path class="st3" d="M765,29.8V8.5h2.1v21.3H765z"/>
	<path class="st3" d="M771.7,11.2V8.8h2.1v2.4H771.7z M771.7,29.8V14.1h2.1v15.7H771.7z"/>
	<path class="st3" d="M776.5,16v-1.8h10.3V16H776.5z M786.7,29.8c-0.9,0.2-1.7,0.3-2.6,0.2c-0.9,0-1.6-0.2-2.3-0.6
		c-0.7-0.3-1.2-0.8-1.5-1.5c-0.3-0.6-0.4-1.2-0.5-1.8c0-0.6,0-1.3,0-2V9.8h2.1V24c0,0.7,0,1.2,0,1.6c0,0.4,0.1,0.8,0.3,1.2
		c0.3,0.6,0.9,1,1.7,1.2c0.8,0.1,1.7,0.1,2.8-0.1V29.8z"/>
	<path class="st3" d="M791.6,36.8l3-8.2l0,2.4l-6.9-16.8h2.3l5.6,14.1h-0.9l5.2-14.1h2.2l-8.4,22.6H791.6z"/>
	<path class="st3" d="M817,30.2c-1.6,0-2.9-0.4-4-1.1c-1.1-0.7-1.9-1.7-2.5-2.9c-0.6-1.2-0.9-2.7-0.9-4.3c0-1.6,0.3-3.1,0.9-4.3
		c0.6-1.2,1.5-2.2,2.6-2.9c1.1-0.7,2.4-1,4-1c1.6,0,2.9,0.4,4,1.1c1.1,0.7,2,1.7,2.5,2.9s0.9,2.7,0.9,4.3c0,1.6-0.3,3.1-0.9,4.3
		c-0.6,1.2-1.4,2.2-2.6,2.9C819.9,29.9,818.6,30.2,817,30.2z M817,28.2c1.7,0,3-0.6,3.9-1.7s1.3-2.7,1.3-4.5c0-1.9-0.4-3.4-1.3-4.5
		c-0.9-1.1-2.1-1.7-3.9-1.7c-1.2,0-2.1,0.3-2.9,0.8c-0.8,0.5-1.3,1.3-1.7,2.2c-0.4,0.9-0.6,2-0.6,3.2c0,1.9,0.4,3.4,1.3,4.5
		S815.3,28.2,817,28.2z"/>
	<path class="st3" d="M826.5,16v-1.8h9.1V16H826.5z M829.2,29.8V13c0-0.4,0-0.8,0.1-1.2c0-0.4,0.1-0.8,0.3-1.1
		c0.1-0.4,0.3-0.7,0.6-1c0.3-0.3,0.7-0.6,1-0.8s0.8-0.3,1.2-0.3c0.4,0,0.8-0.1,1.2-0.1h2v1.8h-1.9c-0.8,0-1.4,0.2-1.8,0.6
		c-0.4,0.4-0.6,1-0.6,1.9v17.1H829.2z"/>
	<path class="st3" d="M842.6,16v-1.8h9.1V16H842.6z M845.3,29.8V13c0-0.4,0-0.8,0.1-1.2c0-0.4,0.1-0.8,0.3-1.1
		c0.1-0.4,0.3-0.7,0.6-1c0.3-0.3,0.7-0.6,1-0.8s0.8-0.3,1.2-0.3c0.4,0,0.8-0.1,1.2-0.1h2v1.8h-1.9c-0.8,0-1.4,0.2-1.8,0.6
		c-0.4,0.4-0.6,1-0.6,1.9v17.1H845.3z M854.7,11.2V8.8h2.1v2.4H854.7z M854.7,29.8V14.1h2.1v15.7H854.7z"/>
	<path class="st3" d="M861.2,29.8V14.1h1.9V18h0.2v11.8H861.2z M872.5,29.8v-8c0-0.9-0.1-1.7-0.2-2.4c-0.2-0.7-0.4-1.4-0.8-1.9
		c-0.4-0.5-0.8-1-1.4-1.3c-0.6-0.3-1.3-0.4-2.1-0.4c-0.8,0-1.4,0.1-2,0.4s-1.1,0.6-1.4,1.1c-0.4,0.5-0.7,1.1-0.9,1.8
		c-0.2,0.7-0.3,1.5-0.3,2.4l-1.5-0.3c0-1.6,0.3-3,0.8-4c0.6-1.1,1.3-1.9,2.3-2.5c1-0.6,2.1-0.8,3.4-0.8c0.9,0,1.8,0.1,2.5,0.4
		c0.7,0.3,1.3,0.7,1.8,1.2c0.5,0.5,0.9,1.1,1.2,1.7c0.3,0.6,0.5,1.3,0.7,2c0.1,0.7,0.2,1.4,0.2,2.1v8.6H872.5z"/>
	<path class="st3" d="M884.4,30.2c-1.5,0-2.7-0.4-3.7-1.1c-1-0.7-1.8-1.7-2.4-3c-0.6-1.2-0.8-2.7-0.8-4.2c0-1.6,0.3-3,0.8-4.2
		c0.5-1.2,1.3-2.2,2.4-3c1-0.7,2.3-1.1,3.7-1.1c1.5,0,2.7,0.4,3.7,1.1c1,0.7,1.8,1.7,2.3,2.9s0.8,2.7,0.8,4.2c0,1.6-0.3,3-0.8,4.2
		c-0.5,1.3-1.3,2.2-2.3,3C887.1,29.9,885.9,30.2,884.4,30.2z M884.6,28.2c1.1,0,2-0.3,2.8-0.8s1.3-1.3,1.6-2.2c0.4-1,0.5-2,0.5-3.2
		c0-1.2-0.2-2.3-0.5-3.3c-0.4-0.9-0.9-1.7-1.6-2.2c-0.7-0.5-1.6-0.8-2.7-0.8c-1.1,0-2,0.3-2.8,0.8c-0.7,0.6-1.3,1.3-1.6,2.2
		s-0.5,2-0.5,3.2c0,1.2,0.2,2.3,0.5,3.2c0.4,1,0.9,1.7,1.6,2.3C882.6,28,883.5,28.2,884.6,28.2z M889.6,29.8V18h-0.2V8.9h2.1v20.9
		H889.6z"/>
	<path class="st3" d="M895.8,11.2V8.8h2.1v2.4H895.8z M895.8,29.8V14.1h2.1v15.7H895.8z"/>
	<path class="st3" d="M902.3,29.8V14.1h1.9V18h0.2v11.8H902.3z M913.6,29.8v-8c0-0.9-0.1-1.7-0.2-2.4c-0.2-0.7-0.4-1.4-0.8-1.9
		c-0.4-0.5-0.8-1-1.4-1.3c-0.6-0.3-1.3-0.4-2.1-0.4c-0.8,0-1.4,0.1-2,0.4s-1.1,0.6-1.4,1.1c-0.4,0.5-0.7,1.1-0.9,1.8
		c-0.2,0.7-0.3,1.5-0.3,2.4l-1.5-0.3c0-1.6,0.3-3,0.8-4c0.6-1.1,1.3-1.9,2.3-2.5c1-0.6,2.1-0.8,3.4-0.8c0.9,0,1.8,0.1,2.5,0.4
		c0.7,0.3,1.3,0.7,1.8,1.2c0.5,0.5,0.9,1.1,1.2,1.7c0.3,0.6,0.5,1.3,0.7,2c0.1,0.7,0.2,1.4,0.2,2.1v8.6H913.6z"/>
	<path class="st3" d="M925.6,30.2c-1.5,0-2.7-0.4-3.7-1.1c-1-0.7-1.8-1.7-2.4-3c-0.6-1.2-0.8-2.7-0.8-4.2c0-1.6,0.3-3,0.8-4.2
		c0.5-1.2,1.3-2.2,2.4-3c1-0.7,2.3-1.1,3.7-1.1c1.5,0,2.7,0.4,3.7,1.1c1,0.7,1.8,1.7,2.3,2.9s0.8,2.7,0.8,4.2c0,1.6-0.3,3-0.8,4.2
		c-0.5,1.3-1.3,2.2-2.3,3C928.3,29.9,927,30.2,925.6,30.2z M925.7,37.2c-0.8,0-1.6-0.1-2.4-0.4c-0.8-0.2-1.5-0.6-2.2-1.1
		c-0.7-0.5-1.2-1.2-1.7-2l1.9-1.1c0.4,0.9,1,1.5,1.8,1.9c0.8,0.4,1.6,0.6,2.4,0.6c1.1,0,2-0.2,2.7-0.6c0.7-0.4,1.2-1,1.5-1.9
		c0.3-0.8,0.5-1.8,0.5-3.1v-4.2h0.2V14.1h1.9v15.4c0,0.4,0,0.9,0,1.3c0,0.4-0.1,0.8-0.1,1.2c-0.2,1.2-0.6,2.1-1.1,2.9
		s-1.3,1.3-2.3,1.7C928.1,37,927,37.2,925.7,37.2z M925.8,28.2c1.1,0,2-0.3,2.8-0.8s1.3-1.3,1.6-2.2c0.4-1,0.5-2,0.5-3.2
		c0-1.2-0.2-2.3-0.5-3.3c-0.4-0.9-0.9-1.7-1.6-2.2c-0.7-0.5-1.6-0.8-2.7-0.8c-1.1,0-2,0.3-2.8,0.8c-0.7,0.6-1.3,1.3-1.6,2.2
		s-0.5,2-0.5,3.2c0,1.2,0.2,2.3,0.5,3.2c0.4,1,0.9,1.7,1.6,2.3C923.8,28,924.7,28.2,925.8,28.2z"/>
	<path class="st3" d="M947,30.2c-1.2,0-2.2-0.2-3-0.6c-0.8-0.4-1.4-1-1.8-1.7s-0.6-1.5-0.6-2.3c0-0.9,0.2-1.6,0.5-2.2
		c0.3-0.6,0.8-1.1,1.4-1.5c0.6-0.4,1.3-0.7,2.1-0.9c0.8-0.2,1.7-0.4,2.6-0.5c1-0.2,1.9-0.3,2.8-0.4c0.9-0.1,1.7-0.2,2.4-0.3
		l-0.8,0.5c0-1.5-0.3-2.7-0.9-3.4s-1.7-1.1-3.3-1.1c-1.1,0-2,0.2-2.7,0.7c-0.7,0.5-1.3,1.2-1.6,2.3l-2.1-0.6
		c0.4-1.4,1.1-2.5,2.2-3.3c1.1-0.8,2.5-1.2,4.2-1.2c1.4,0,2.6,0.3,3.6,0.8c1,0.5,1.7,1.3,2.1,2.3c0.2,0.5,0.3,1,0.4,1.5
		c0.1,0.6,0.1,1.1,0.1,1.7v9.7h-1.9v-3.9l0.6,0.2c-0.5,1.3-1.4,2.4-2.5,3.1C949.9,29.9,948.5,30.2,947,30.2z M947.2,28.4
		c1,0,1.9-0.2,2.6-0.5c0.7-0.4,1.3-0.8,1.8-1.5c0.5-0.6,0.7-1.3,0.9-2.1c0.1-0.5,0.2-1.1,0.2-1.7s0-1.1,0-1.4l0.8,0.4
		c-0.7,0.1-1.5,0.2-2.4,0.3c-0.8,0.1-1.7,0.2-2.5,0.3c-0.8,0.1-1.6,0.3-2.2,0.4c-0.4,0.1-0.9,0.3-1.3,0.5s-0.8,0.5-1,0.9
		c-0.3,0.4-0.4,0.8-0.4,1.4c0,0.5,0.1,0.9,0.3,1.3c0.2,0.4,0.6,0.8,1.1,1.1C945.7,28.2,946.4,28.4,947.2,28.4z"/>
	<path class="st3" d="M964.4,29.8V8.9h2.1V18h-0.2v11.8H964.4z M971.4,30.2c-1.4,0-2.7-0.4-3.7-1.1c-1-0.7-1.7-1.7-2.3-3
		s-0.8-2.7-0.8-4.2c0-1.6,0.3-3,0.8-4.2c0.5-1.2,1.3-2.2,2.3-2.9c1-0.7,2.2-1.1,3.7-1.1c1.4,0,2.7,0.4,3.7,1.1c1,0.7,1.8,1.7,2.4,3
		s0.8,2.6,0.8,4.2c0,1.6-0.3,3-0.8,4.2s-1.3,2.2-2.4,3C974.1,29.9,972.9,30.2,971.4,30.2z M971.2,28.2c1.1,0,2-0.3,2.7-0.8
		c0.7-0.6,1.3-1.3,1.6-2.3s0.5-2,0.5-3.2c0-1.2-0.2-2.2-0.5-3.2c-0.4-0.9-0.9-1.7-1.6-2.2s-1.7-0.8-2.8-0.8c-1.1,0-2,0.3-2.7,0.8
		c-0.7,0.5-1.3,1.3-1.6,2.2s-0.5,2-0.5,3.3c0,1.2,0.2,2.3,0.5,3.2s0.9,1.7,1.6,2.2C969.2,28,970.1,28.2,971.2,28.2z"/>
	<path class="st3" d="M981.9,29.8V8.5h2.1v21.3H981.9z"/>
	<path class="st3" d="M994.9,30.2c-1.6,0-2.9-0.4-4-1.1c-1.1-0.7-1.9-1.7-2.5-2.9c-0.6-1.2-0.9-2.7-0.9-4.3c0-1.6,0.3-3.1,0.9-4.3
		c0.6-1.2,1.5-2.2,2.6-2.9c1.1-0.7,2.4-1,4-1c1.6,0,2.9,0.4,4,1.1c1.1,0.7,2,1.7,2.5,2.9s0.9,2.7,0.9,4.3c0,1.6-0.3,3.1-0.9,4.3
		c-0.6,1.2-1.4,2.2-2.6,2.9C997.8,29.9,996.4,30.2,994.9,30.2z M994.9,28.2c1.7,0,3-0.6,3.9-1.7s1.3-2.7,1.3-4.5
		c0-1.9-0.4-3.4-1.3-4.5c-0.9-1.1-2.1-1.7-3.9-1.7c-1.2,0-2.1,0.3-2.9,0.8c-0.8,0.5-1.3,1.3-1.7,2.2c-0.4,0.9-0.6,2-0.6,3.2
		c0,1.9,0.4,3.4,1.3,4.5C991.9,27.6,993.2,28.2,994.9,28.2z"/>
	<path class="st3" d="M1012,30.2c-1.6,0-2.9-0.4-4-1.1c-1.1-0.7-1.9-1.7-2.5-2.9c-0.6-1.2-0.9-2.7-0.9-4.3c0-1.6,0.3-3.1,0.9-4.3
		c0.6-1.2,1.4-2.2,2.5-2.9c1.1-0.7,2.4-1,4-1c1.6,0,3,0.4,4.1,1.2c1.2,0.8,2,1.8,2.4,3.2l-2.1,0.7c-0.4-0.9-1-1.7-1.7-2.2
		c-0.8-0.5-1.7-0.8-2.7-0.8c-1.2,0-2.1,0.3-2.9,0.8c-0.8,0.5-1.3,1.3-1.7,2.2s-0.6,2-0.6,3.2c0,1.9,0.5,3.4,1.3,4.5s2.1,1.7,3.8,1.7
		c1.1,0,2-0.2,2.7-0.7c0.7-0.5,1.3-1.2,1.7-2.1l2.1,0.6c-0.6,1.4-1.4,2.5-2.6,3.2C1014.9,29.9,1013.5,30.2,1012,30.2z"/>
	<path class="st3" d="M1021.5,29.8l0-20.9h2.1v12.8l7-7.5h2.8l-7.3,7.8l8.3,7.8h-3.1l-7.7-7.5v7.5H1021.5z"/>
	<path class="st3" d="M1046.2,30.2c-1.2,0-2.2-0.2-3-0.6c-0.8-0.4-1.4-1-1.8-1.7c-0.4-0.7-0.6-1.5-0.6-2.3c0-0.9,0.2-1.6,0.5-2.2
		c0.3-0.6,0.8-1.1,1.4-1.5s1.3-0.7,2.1-0.9c0.8-0.2,1.7-0.4,2.6-0.5c1-0.2,1.9-0.3,2.8-0.4s1.7-0.2,2.4-0.3l-0.8,0.5
		c0-1.5-0.3-2.7-0.9-3.4c-0.6-0.7-1.7-1.1-3.3-1.1c-1.1,0-2,0.2-2.7,0.7s-1.3,1.2-1.6,2.3l-2.1-0.6c0.4-1.4,1.1-2.5,2.2-3.3
		c1.1-0.8,2.5-1.2,4.2-1.2c1.4,0,2.6,0.3,3.6,0.8c1,0.5,1.7,1.3,2.1,2.3c0.2,0.5,0.3,1,0.4,1.5c0.1,0.6,0.1,1.1,0.1,1.7v9.7h-1.9
		v-3.9l0.6,0.2c-0.5,1.3-1.4,2.4-2.5,3.1C1049.1,29.9,1047.8,30.2,1046.2,30.2z M1046.5,28.4c1,0,1.9-0.2,2.6-0.5
		c0.7-0.4,1.3-0.8,1.8-1.5c0.5-0.6,0.7-1.3,0.9-2.1c0.1-0.5,0.2-1.1,0.2-1.7c0-0.6,0-1.1,0-1.4l0.8,0.4c-0.7,0.1-1.5,0.2-2.4,0.3
		s-1.7,0.2-2.5,0.3c-0.8,0.1-1.6,0.3-2.2,0.4c-0.4,0.1-0.9,0.3-1.3,0.5c-0.4,0.2-0.8,0.5-1,0.9c-0.3,0.4-0.4,0.8-0.4,1.4
		c0,0.5,0.1,0.9,0.3,1.3c0.2,0.4,0.6,0.8,1.1,1.1S1045.6,28.4,1046.5,28.4z"/>
	<path class="st3" d="M1056.1,16v-1.8h10.3V16H1056.1z M1066.4,29.8c-0.9,0.2-1.7,0.3-2.6,0.2c-0.9,0-1.6-0.2-2.3-0.6
		c-0.7-0.3-1.2-0.8-1.5-1.5c-0.3-0.6-0.4-1.2-0.5-1.8c0-0.6,0-1.3,0-2V9.8h2.1V24c0,0.7,0,1.2,0,1.6c0,0.4,0.1,0.8,0.3,1.2
		c0.3,0.6,0.9,1,1.7,1.2c0.8,0.1,1.7,0.1,2.8-0.1V29.8z"/>
	<path class="st3" d="M1081.9,30.2c-1.5,0-2.8-0.3-4-1c-1.1-0.7-2-1.6-2.6-2.9s-0.9-2.7-0.9-4.3c0-1.7,0.3-3.2,0.9-4.4
		c0.6-1.2,1.5-2.2,2.6-2.9c1.1-0.7,2.4-1,3.9-1c1.5,0,2.9,0.4,4,1.1c1.1,0.7,1.9,1.7,2.5,3.1c0.6,1.3,0.8,2.9,0.8,4.7h-2.2v-0.8
		c0-2-0.5-3.6-1.3-4.6c-0.8-1-2.1-1.6-3.7-1.6c-1.7,0-3,0.5-3.9,1.6c-0.9,1.1-1.3,2.6-1.3,4.7c0,2,0.4,3.5,1.3,4.6
		c0.9,1.1,2.2,1.6,3.8,1.6c1.1,0,2.1-0.3,2.9-0.8c0.8-0.5,1.5-1.3,2-2.2l2,0.8c-0.6,1.4-1.5,2.4-2.7,3.2S1083.4,30.2,1081.9,30.2z
		 M1075.9,22.6v-1.8h12v1.8H1075.9z"/>
	<path class="st3" d="M1096.4,30.2c-1.2,0-2.2-0.2-3-0.6c-0.8-0.4-1.4-1-1.8-1.7c-0.4-0.7-0.6-1.5-0.6-2.3c0-0.9,0.2-1.6,0.5-2.2
		c0.3-0.6,0.8-1.1,1.4-1.5s1.3-0.7,2.1-0.9c0.8-0.2,1.7-0.4,2.6-0.5c1-0.2,1.9-0.3,2.8-0.4s1.7-0.2,2.4-0.3l-0.8,0.5
		c0-1.5-0.3-2.7-0.9-3.4c-0.6-0.7-1.7-1.1-3.3-1.1c-1.1,0-2,0.2-2.7,0.7s-1.3,1.2-1.6,2.3l-2.1-0.6c0.4-1.4,1.1-2.5,2.2-3.3
		c1.1-0.8,2.5-1.2,4.2-1.2c1.4,0,2.6,0.3,3.6,0.8c1,0.5,1.7,1.3,2.1,2.3c0.2,0.5,0.3,1,0.4,1.5c0.1,0.6,0.1,1.1,0.1,1.7v9.7h-1.9
		v-3.9l0.6,0.2c-0.5,1.3-1.4,2.4-2.5,3.1C1099.3,29.9,1098,30.2,1096.4,30.2z M1096.6,28.4c1,0,1.9-0.2,2.6-0.5
		c0.7-0.4,1.3-0.8,1.8-1.5c0.5-0.6,0.7-1.3,0.9-2.1c0.1-0.5,0.2-1.1,0.2-1.7c0-0.6,0-1.1,0-1.4l0.8,0.4c-0.7,0.1-1.5,0.2-2.4,0.3
		s-1.7,0.2-2.5,0.3c-0.8,0.1-1.6,0.3-2.2,0.4c-0.4,0.1-0.9,0.3-1.3,0.5c-0.4,0.2-0.8,0.5-1,0.9c-0.3,0.4-0.4,0.8-0.4,1.4
		c0,0.5,0.1,0.9,0.3,1.3c0.2,0.4,0.6,0.8,1.1,1.1S1095.8,28.4,1096.6,28.4z"/>
	<path class="st3" d="M1114.5,30.2c-1.6,0-2.9-0.4-4-1.1c-1.1-0.7-1.9-1.7-2.5-2.9s-0.9-2.7-0.9-4.3c0-1.6,0.3-3.1,0.9-4.3
		s1.4-2.2,2.5-2.9c1.1-0.7,2.4-1,4-1c1.6,0,3,0.4,4.1,1.2c1.2,0.8,2,1.8,2.4,3.2l-2.1,0.7c-0.4-0.9-1-1.7-1.7-2.2
		c-0.8-0.5-1.7-0.8-2.7-0.8c-1.2,0-2.1,0.3-2.9,0.8c-0.8,0.5-1.3,1.3-1.7,2.2s-0.6,2-0.6,3.2c0,1.9,0.5,3.4,1.3,4.5s2.1,1.7,3.8,1.7
		c1.1,0,2-0.2,2.7-0.7c0.7-0.5,1.3-1.2,1.7-2.1l2.1,0.6c-0.6,1.4-1.4,2.5-2.6,3.2C1117.4,29.9,1116.1,30.2,1114.5,30.2z"/>
	<path class="st3" d="M1124.1,29.8V8.9h1.9v11.8h0.2v9.1H1124.1z M1135.4,29.8v-8c0-0.9-0.1-1.7-0.2-2.4c-0.2-0.7-0.4-1.4-0.8-1.9
		c-0.4-0.5-0.8-1-1.4-1.3c-0.6-0.3-1.3-0.4-2.1-0.4c-0.8,0-1.4,0.1-2,0.4s-1.1,0.6-1.5,1.1s-0.7,1.1-0.9,1.8
		c-0.2,0.7-0.3,1.5-0.3,2.4l-1.5-0.3c0-1.6,0.3-3,0.8-4c0.6-1.1,1.3-1.9,2.3-2.5c1-0.6,2.1-0.8,3.4-0.8c0.9,0,1.8,0.1,2.5,0.4
		s1.3,0.7,1.8,1.2c0.5,0.5,0.9,1.1,1.2,1.7c0.3,0.6,0.5,1.3,0.7,2c0.1,0.7,0.2,1.4,0.2,2.1v8.6H1135.4z"/>
	<path class="st3" d="M1147.4,29.8V8.5h2.1v21.3H1147.4z"/>
	<path class="st3" d="M1160.5,30.2c-1.5,0-2.8-0.3-4-1c-1.1-0.7-2-1.6-2.6-2.9s-0.9-2.7-0.9-4.3c0-1.7,0.3-3.2,0.9-4.4
		c0.6-1.2,1.5-2.2,2.6-2.9c1.1-0.7,2.4-1,3.9-1c1.5,0,2.9,0.4,4,1.1c1.1,0.7,1.9,1.7,2.5,3.1c0.6,1.3,0.8,2.9,0.8,4.7h-2.2v-0.8
		c0-2-0.5-3.6-1.3-4.6c-0.8-1-2.1-1.6-3.7-1.6c-1.7,0-3,0.5-3.9,1.6c-0.9,1.1-1.3,2.6-1.3,4.7c0,2,0.4,3.5,1.3,4.6
		c0.9,1.1,2.2,1.6,3.8,1.6c1.1,0,2.1-0.3,2.9-0.8c0.8-0.5,1.5-1.3,2-2.2l2,0.8c-0.6,1.4-1.5,2.4-2.7,3.2S1162,30.2,1160.5,30.2z
		 M1154.5,22.6v-1.8h12v1.8H1154.5z"/>
	<path class="st3" d="M1174.5,29.8l-5.7-15.7h2.2l4.6,12.9l4.6-12.9h2.2l-5.7,15.7H1174.5z"/>
	<path class="st3" d="M1191,30.2c-1.5,0-2.8-0.3-4-1c-1.1-0.7-2-1.6-2.6-2.9s-0.9-2.7-0.9-4.3c0-1.7,0.3-3.2,0.9-4.4
		c0.6-1.2,1.5-2.2,2.6-2.9c1.1-0.7,2.4-1,3.9-1c1.5,0,2.9,0.4,4,1.1c1.1,0.7,1.9,1.7,2.5,3.1c0.6,1.3,0.8,2.9,0.8,4.7h-2.2v-0.8
		c0-2-0.5-3.6-1.3-4.6c-0.8-1-2.1-1.6-3.7-1.6c-1.7,0-3,0.5-3.9,1.6c-0.9,1.1-1.3,2.6-1.3,4.7c0,2,0.4,3.5,1.3,4.6
		c0.9,1.1,2.2,1.6,3.8,1.6c1.1,0,2.1-0.3,2.9-0.8c0.8-0.5,1.5-1.3,2-2.2l2,0.8c-0.6,1.4-1.5,2.4-2.7,3.2S1192.5,30.2,1191,30.2z
		 M1185,22.6v-1.8h12v1.8H1185z"/>
	<path class="st3" d="M1201.6,29.8V8.5h2.1v21.3H1201.6z"/>
	<path class="st3" d="M1221.4,35c-1.1-1.3-2.1-2.8-2.9-4.4c-0.8-1.6-1.4-3.3-1.9-5.1c-0.4-1.8-0.7-3.5-0.6-5.3
		c0-1.8,0.2-3.6,0.6-5.3s1.1-3.5,1.9-5.1c0.8-1.6,1.8-3.1,2.9-4.4l1.6,1.2c-1.1,1.3-2.1,2.8-2.8,4.2c-0.8,1.5-1.3,3-1.7,4.6
		c-0.4,1.6-0.6,3.2-0.6,4.8c0,1.6,0.2,3.2,0.6,4.8c0.4,1.6,0.9,3.1,1.7,4.6c0.7,1.5,1.7,2.9,2.8,4.2L1221.4,35z"/>
	<path class="st3" d="M1226.6,29.8V8.9h2.1v18.8h9.9v2H1226.6z"/>
	<path class="st3" d="M1241.4,11.2V8.8h2.1v2.4H1241.4z M1241.4,29.8V14.1h2.1v15.7H1241.4z"/>
	<path class="st3" d="M1247.8,29.8V14.1h1.9V18h0.2v11.8H1247.8z M1259.2,29.8v-8c0-0.9-0.1-1.7-0.2-2.4c-0.2-0.7-0.4-1.4-0.8-1.9
		c-0.4-0.5-0.8-1-1.4-1.3c-0.6-0.3-1.3-0.4-2.1-0.4c-0.8,0-1.4,0.1-2,0.4s-1.1,0.6-1.5,1.1s-0.7,1.1-0.9,1.8
		c-0.2,0.7-0.3,1.5-0.3,2.4l-1.5-0.3c0-1.6,0.3-3,0.8-4c0.6-1.1,1.3-1.9,2.3-2.5c1-0.6,2.1-0.8,3.4-0.8c0.9,0,1.8,0.1,2.5,0.4
		s1.3,0.7,1.8,1.2c0.5,0.5,0.9,1.1,1.2,1.7c0.3,0.6,0.5,1.3,0.7,2c0.1,0.7,0.2,1.4,0.2,2.1v8.6H1259.2z"/>
	<path class="st3" d="M1271.6,30.2c-1.5,0-2.8-0.3-4-1c-1.1-0.7-2-1.6-2.6-2.9s-0.9-2.7-0.9-4.3c0-1.7,0.3-3.2,0.9-4.4
		c0.6-1.2,1.5-2.2,2.6-2.9c1.1-0.7,2.4-1,3.9-1c1.5,0,2.9,0.4,4,1.1c1.1,0.7,1.9,1.7,2.5,3.1c0.6,1.3,0.8,2.9,0.8,4.7h-2.2v-0.8
		c0-2-0.5-3.6-1.3-4.6c-0.8-1-2.1-1.6-3.7-1.6c-1.7,0-3,0.5-3.9,1.6c-0.9,1.1-1.3,2.6-1.3,4.7c0,2,0.4,3.5,1.3,4.6
		c0.9,1.1,2.2,1.6,3.8,1.6c1.1,0,2.1-0.3,2.9-0.8c0.8-0.5,1.5-1.3,2-2.2l2,0.8c-0.6,1.4-1.5,2.4-2.7,3.2S1273.1,30.2,1271.6,30.2z
		 M1265.6,22.6v-1.8h12v1.8H1265.6z"/>
	<path class="st3" d="M1286.1,30.2c-1.2,0-2.2-0.2-3-0.6c-0.8-0.4-1.4-1-1.8-1.7c-0.4-0.7-0.6-1.5-0.6-2.3c0-0.9,0.2-1.6,0.5-2.2
		c0.3-0.6,0.8-1.1,1.4-1.5s1.3-0.7,2.1-0.9c0.8-0.2,1.7-0.4,2.6-0.5c1-0.2,1.9-0.3,2.8-0.4s1.7-0.2,2.4-0.3l-0.8,0.5
		c0-1.5-0.3-2.7-0.9-3.4c-0.6-0.7-1.7-1.1-3.3-1.1c-1.1,0-2,0.2-2.7,0.7s-1.3,1.2-1.6,2.3l-2.1-0.6c0.4-1.4,1.1-2.5,2.2-3.3
		c1.1-0.8,2.5-1.2,4.2-1.2c1.4,0,2.6,0.3,3.6,0.8c1,0.5,1.7,1.3,2.1,2.3c0.2,0.5,0.3,1,0.4,1.5c0.1,0.6,0.1,1.1,0.1,1.7v9.7h-1.9
		v-3.9l0.6,0.2c-0.5,1.3-1.4,2.4-2.5,3.1C1289,29.9,1287.7,30.2,1286.1,30.2z M1286.4,28.4c1,0,1.9-0.2,2.6-0.5
		c0.7-0.4,1.3-0.8,1.8-1.5c0.5-0.6,0.7-1.3,0.9-2.1c0.1-0.5,0.2-1.1,0.2-1.7c0-0.6,0-1.1,0-1.4l0.8,0.4c-0.7,0.1-1.5,0.2-2.4,0.3
		s-1.7,0.2-2.5,0.3c-0.8,0.1-1.6,0.3-2.2,0.4c-0.4,0.1-0.9,0.3-1.3,0.5c-0.4,0.2-0.8,0.5-1,0.9c-0.3,0.4-0.4,0.8-0.4,1.4
		c0,0.5,0.1,0.9,0.3,1.3c0.2,0.4,0.6,0.8,1.1,1.1S1285.5,28.4,1286.4,28.4z"/>
	<path class="st3" d="M1297.7,29.8V14.1h1.9v3.8l-0.4-0.5c0.2-0.5,0.4-0.9,0.7-1.3s0.6-0.7,0.9-1c0.4-0.4,0.9-0.6,1.4-0.8
		s1.1-0.3,1.6-0.3s1.1,0,1.5,0.1v2c-0.6-0.1-1.2-0.2-1.9-0.1c-0.7,0.1-1.3,0.3-1.9,0.8c-0.5,0.4-0.9,0.9-1.2,1.5
		c-0.3,0.6-0.4,1.2-0.5,1.8c-0.1,0.6-0.1,1.3-0.1,1.9v7.8H1297.7z"/>
	<path class="st3" d="M1306.8,33.7c1.1-1.3,2-2.7,2.8-4.2c0.7-1.5,1.3-3,1.7-4.6c0.4-1.6,0.6-3.2,0.6-4.8c0-1.6-0.2-3.2-0.6-4.8
		c-0.4-1.6-0.9-3.1-1.7-4.6c-0.8-1.5-1.7-2.9-2.8-4.2l1.6-1.2c1.1,1.3,2.1,2.8,2.9,4.4c0.8,1.6,1.4,3.3,1.9,5.1
		c0.4,1.8,0.7,3.6,0.6,5.3c0,1.8-0.2,3.6-0.6,5.3c-0.4,1.8-1.1,3.5-1.9,5.1c-0.8,1.6-1.8,3.1-2.9,4.4L1306.8,33.7z"/>
</g>
<circle class="st4" cx="132.4" cy="83.3" r="6.9"/>
<circle class="st4" cx="190.6" cy="550.3" r="6.9"/>
<ellipse transform="matrix(0.1602 -0.9871 0.9871 0.1602 -560.3066 903.6785)" class="st4" cx="250.9" cy="781.1" rx="6.9" ry="6.9"/>
<circle class="st4" cx="309.1" cy="898.9" r="6.9"/>
<circle class="st4" cx="369.4" cy="957.3" r="6.9"/>
<circle class="st4" cx="427.6" cy="986.2" r="6.9"/>
<circle class="st4" cx="488" cy="1000.6" r="6.9"/>
<circle class="st4" cx="546.1" cy="1008.5" r="6.9"/>
<circle class="st4" cx="606.5" cy="1011.5" r="6.9"/>
<circle class="st4" cx="664.7" cy="1013.1" r="6.9"/>
<circle class="st4" cx="725" cy="1015.7" r="6.9"/>
<circle class="st4" cx="783.2" cy="1015.7" r="6.9"/>
<circle class="st4" cx="843.5" cy="1015.7" r="6.9"/>
<circle class="st4" cx="901.7" cy="1015.7" r="6.9"/>
<circle class="st4" cx="962" cy="1015.7" r="6.9"/>
<ellipse transform="matrix(0.1602 -0.9871 0.9871 0.1602 -145.8108 1860.02)" class="st4" cx="1020.2" cy="1015.7" rx="6.9" ry="6.9"/>
<circle class="st4" cx="1080.5" cy="1015.7" r="6.9"/>
<circle class="st4" cx="1138.7" cy="1015.7" r="6.9"/>
<circle class="st4" cx="1199" cy="1015.7" r="6.9"/>
<circle class="st4" cx="1257.2" cy="1015.7" r="6.9"/>
<circle class="st4" cx="1317.6" cy="1015.7" r="6.9"/>
<circle class="st4" cx="1375.7" cy="1015.7" r="6.9"/>
<circle class="st4" cx="1436.1" cy="1015.7" r="6.9"/>
<circle class="st4" cx="1494.2" cy="1015.7" r="6.9"/>
<circle class="st4" cx="1554.6" cy="1015.7" r="6.9"/>
<circle class="st4" cx="1612.8" cy="1015.7" r="6.9"/>
<circle class="st4" cx="1673.1" cy="1015.7" r="6.9"/>
<circle class="st4" cx="1731.3" cy="1015.7" r="6.9"/>
<circle class="st4" cx="1791.6" cy="1015.7" r="6.9"/>
<circle class="st4" cx="1849.8" cy="1015.7" r="6.9"/>
<circle class="st4" cx="1910.1" cy="1015.7" r="6.9"/>
<circle class="st4" cx="1969" cy="1015.7" r="6.9"/>
</svg>
