<svg width="51" height="51" viewBox="0 0 51 51" fill="none" xmlns="http://www.w3.org/2000/svg">
<g clip-path="url(#clip0_2701_236)">
<path d="M44.3984 50.5H6.39844C3.09844 50.5 0.398438 47.8 0.398438 44.5V6.5C0.398438 3.2 3.09844 0.5 6.39844 0.5H44.3984C47.6984 0.5 50.3984 3.2 50.3984 6.5V44.5C50.3984 47.8 47.6984 50.5 44.3984 50.5Z" fill="white"/>
<path d="M31.7984 17.5L28.4984 32.4L30.2984 40L33.5984 25L31.7984 17.5Z" fill="#001C32"/>
<path d="M22.2985 13.6001L18.2985 31.1001L19.7985 40.0001L23.7985 22.5001L22.2985 13.6001Z" fill="#001C32"/>
<path d="M15.8984 11L9.39844 40H16.2984L18.2984 31.1L22.2984 13.6L15.8984 11Z" fill="#FF512F"/>
<path d="M25.4985 14.8999L23.7985 22.4999L19.7985 39.9999H26.7985L28.4985 32.3999L31.7985 17.4999L25.4985 14.8999Z" fill="#317AFF"/>
<path d="M35.0985 18.8L33.5985 25L30.2985 40H37.1985L41.3985 21.3L35.0985 18.8Z" fill="#91919D"/>
</g>
<defs>
<clipPath id="clip0_2701_236">
<rect width="50" height="50" fill="white" transform="translate(0.398438 0.5)"/>
</clipPath>
</defs>
</svg>
