<?xml version="1.0" encoding="utf-8"?>
<!-- Generator: Adobe Illustrator 26.0.2, SVG Export Plug-In . SVG Version: 6.00 Build 0)  -->
<svg version="1.1" id="Layer_1" xmlns="http://www.w3.org/2000/svg" xmlns:xlink="http://www.w3.org/1999/xlink" x="0px" y="0px"
	 viewBox="0 0 180 34" style="enable-background:new 0 0 180 34;" xml:space="preserve">
<g>
	<g>
		<path d="M29.4,9.1l-1.6,7.2l-2.1-8.6l-7.3-2.9l-2,8.7L14.7,3.2L7.5,0.3L0,33.3h7.9l2.3-10.1l1.7,10.1h7.9l1.9-8.7l2.1,8.7h7.9
			l4.8-21.3L29.4,9.1z"/>
		<path d="M83.9,15.5c0-0.6-0.5-1.1-1.1-1.1c-0.6,0-1.1,0.5-1.1,1.1v16.7c0,0.6,0.5,1.1,1.1,1.1c0.6,0,1.1-0.5,1.1-1.1V15.5z"/>
		<path d="M123.8,15.5c0-0.6-0.5-1.1-1.1-1.1c-0.6,0-1.1,0.5-1.1,1.1v16.7c0,0.6,0.5,1.1,1.1,1.1c0.6,0,1.1-0.5,1.1-1.1V15.5z"/>
		<path d="M62,25.1L55.2,15c-0.2-0.3-0.5-0.5-0.9-0.5h-0.2c-0.6,0-1.1,0.5-1.1,1.1v16.7c0,0.6,0.5,1.1,1.1,1.1
			c0.6,0,1.1-0.5,1.1-1.1v-14l6,8.8c0.3,0.4,0.6,0.5,0.9,0.5c0.3,0,0.6-0.1,0.9-0.5l6-8.8v14c0,0.6,0.5,1.1,1.1,1.1s1.1-0.5,1.1-1.1
			V15.5c0-0.6-0.5-1.1-1.1-1.1h-0.2c-0.4,0-0.7,0.2-0.9,0.5L62,25.1z"/>
		<path d="M143.7,25.1L136.9,15c-0.2-0.3-0.5-0.5-0.9-0.5h-0.2c-0.6,0-1.1,0.5-1.1,1.1v16.7c0,0.6,0.5,1.1,1.1,1.1
			c0.6,0,1.1-0.5,1.1-1.1v-14l6,8.8c0.3,0.4,0.6,0.5,0.9,0.5c0.3,0,0.6-0.1,0.9-0.5l6-8.8v14c0,0.6,0.5,1.1,1.1,1.1
			c0.6,0,1.1-0.5,1.1-1.1V15.5c0-0.6-0.5-1.1-1.1-1.1h-0.2c-0.4,0-0.7,0.2-0.9,0.5L143.7,25.1z"/>
		<path d="M108.8,29.9L97,14.9c-0.2-0.3-0.5-0.4-0.9-0.4h-0.3c-0.6,0-1.1,0.5-1.1,1.1v16.7c0,0.6,0.5,1.1,1.1,1.1s1.1-0.5,1.1-1.1
			V17.9l11.6,14.8l0.2,0.2c0.2,0.3,0.5,0.4,0.9,0.4h0.3c0.6,0,1.1-0.5,1.1-1.1V15.5c0-0.6-0.5-1.1-1.1-1.1c-0.6,0-1.1,0.5-1.1,1.1
			V29.9z"/>
		<path d="M179.9,31.9c0,0-7.4-16.2-7.6-16.6c-0.2-0.4-0.6-0.8-1.3-0.8c-0.7,0-1.1,0.4-1.3,0.8c-0.2,0.4-7.6,16.6-7.6,16.6
			c-0.2,0.5,0,1.1,0.5,1.3c0.5,0.2,1.1,0,1.3-0.5l2-4.4h10.3l2,4.4c0.2,0.5,0.8,0.7,1.3,0.5C180,33,180.2,32.4,179.9,31.9
			L179.9,31.9z M171,26.4h-4.3l4.3-9.6l4.3,9.6H171z"/>
	</g>
</g>
</svg>
