<?xml version="1.0" encoding="UTF-8"?><svg id="a" xmlns="http://www.w3.org/2000/svg" viewBox="0 0 469.31 270.94"><defs><style>.b{fill:#ededf7;}.c{fill:#fff;}.d{fill:#ffb9ab;}.e{fill:#ffb685;}.f{fill:#fca;}.g{fill:#ff9682;}.h{fill:#91919d;}.i{fill:#bdbdc4;}.j{fill:#d4765b;}.k{fill:#e08c74;}.l{fill:#c8c8d4;}.m{fill:#21252b;}.n{fill:#363a3f;}.o{fill:#83afff;}.p{fill:none;stroke:#fff;}</style></defs><g><rect class="g" x="39.3" y=".5" width="70.74" height="91.3" rx="2.89" ry="2.89"/><path class="c" d="M107.14,1c1.32,0,2.39,1.07,2.39,2.39V88.9c0,1.32-1.07,2.39-2.39,2.39H42.19c-1.32,0-2.39-1.07-2.39-2.39V3.4c0-1.32,1.07-2.39,2.39-2.39H107.14M107.14,0H42.19c-1.87,0-3.39,1.52-3.39,3.39V88.9c0,1.87,1.52,3.39,3.39,3.39H107.14c1.87,0,3.39-1.52,3.39-3.39V3.4C110.53,1.52,109.01,0,107.14,0h0Z"/></g><g><rect class="o" x="357.93" y="74.05" width="70.74" height="91.3" rx="2.89" ry="2.89"/><path class="c" d="M425.78,74.55c1.32,0,2.39,1.07,2.39,2.39v85.51c0,1.32-1.07,2.39-2.39,2.39h-64.95c-1.32,0-2.39-1.07-2.39-2.39V76.94c0-1.32,1.07-2.39,2.39-2.39h64.95m0-1h-64.95c-1.87,0-3.39,1.52-3.39,3.39v85.51c0,1.87,1.52,3.39,3.39,3.39h64.95c1.87,0,3.39-1.52,3.39-3.39V76.94c0-1.87-1.52-3.39-3.39-3.39h0Z"/></g><g><rect class="g" x="357.93" y="180.04" width="70.74" height="90.43" rx="2.88" ry="2.88"/><path class="c" d="M425.79,180.54c1.31,0,2.38,1.07,2.38,2.38v84.67c0,1.31-1.07,2.38-2.38,2.38h-64.98c-1.31,0-2.38-1.07-2.38-2.38v-84.67c0-1.31,1.07-2.38,2.38-2.38h64.98m0-1h-64.98c-1.87,0-3.38,1.51-3.38,3.38v84.67c0,1.87,1.51,3.38,3.38,3.38h64.98c1.87,0,3.38-1.51,3.38-3.38v-84.67c0-1.87-1.51-3.38-3.38-3.38h0Z"/></g><path class="f" d="M454.57,87.74h1.6v2.95s-.2,1.46-1.6,1.46-1.6-1.46-1.6-1.46v-2.95h1.6"/><ellipse class="f" cx="454.57" cy="86.11" rx="2.93" ry="2.81"/><ellipse class="e" cx="454.57" cy="86.78" rx="2.6" ry="2.5"/><path class="f" d="M454.57,88.91h0c-1.62,0-2.93-1.27-2.93-2.83v-2.65h5.86v2.65c0,1.56-1.31,2.83-2.93,2.83Z"/><path class="n" d="M451.55,85.65s-1.35,.06-1.39-1.34c-.04-1.41,1.01-1.58,1.01-1.58,0,0-.69-3.18,2.09-3.88,0,0,2.27-.53,2.84,2.29,0,0,1.43-.97,2.42,.33,1.45,1.92-1.03,4.2-1.03,4.2h-5.94Z"/><ellipse class="f" cx="454.57" cy="85.14" rx="2.92" ry="2.16"/><g><path class="f" d="M452.04,86.18c0,.41-.08,.74-.49,.74s-1-.33-1-.74,.33-.74,.75-.74,.75,.33,.75,.74Z"/><path class="f" d="M457.09,86.18c0,.41,.08,.74,.49,.74s1-.33,1-.74-.33-.74-.75-.74-.75,.33-.75,.74Z"/></g><path class="d" d="M462.14,96.54c.01-2.49-1.65-4.66-4.01-5.24l-1.46-.33v-1.2h-4.21v1.2l-1.46,.33c-2.36,.58-4.02,2.75-4.01,5.24,.02,4.39,.13,11.01,.56,14.17h14.02c.43-3.15,.54-9.78,.56-14.17Z"/><path class="f" d="M467.9,119.05l-.2-.97-.46-1.2-.58-.47-.4-.09s-.03,.04-.03,.05c-.04,.06-.12,.12-.12,.12,0,0,0,.43,0,.75,.02,.67-.27,.73-.38,.58-.11-.15-.11-.78-.2-1.19s-.32-1.24-.28-1.88c0,0,0,.38,0-.01s-.57-1.38-.57-1.38l1.01-.62,.56,.92c.77,.73,1.18,1.48,1.52,2.43l.63,.77,.67,.8s.16,.21,.18,.27c-.15,.17-.4,.14-.65-.22h0l.43,.82s.14,.34,.14,.38c-.04,.03-.09,.05-.14,.06,.01,.08,.01,.09,.02,.2-.25,.15-.52,.03-.69-.49l-.07-.14,.02,.19h0l.07,.58h0s.03,.41,0,.4c-.28,.08-.46-.11-.48-.66Z"/><g><polygon class="f" points="457.93 143.99 458.36 150.63 461.02 150.63 461.19 143.74 457.93 143.99"/><path class="n" d="M458.36,150.63v1.55h5.97s.26-.62-.35-.83c-.61-.21-2.49-.53-2.95-1.16,0,0-.28,.49-.88,.34-.6-.15-1.1-.71-1.78,.1Z"/></g><polygon class="h" points="457.01 144.05 462.32 143.68 462.32 142.17 457.01 142.42 457.01 144.05"/><path class="i" d="M465.26,104.88l-3.93,1.94c.94,2.64,3.03,8.61,3.03,8.61l3.41-1.18-2.51-9.36Z"/><path class="f" d="M441.24,119.05l.2-.97,.46-1.2,.58-.47,.4-.09s.03,.04,.03,.05c.04,.06,.12,.12,.12,.12,0,0,0,.43,0,.75-.02,.67,.27,.73,.38,.58,.11-.15,.11-.78,.2-1.19s.32-1.24,.28-1.88c0,0,0,.38,0-.01s.57-1.38,.57-1.38l-1.01-.62-.56,.92c-.77,.73-1.18,1.48-1.52,2.43l-.63,.77-.67,.8s-.16,.21-.18,.27c.15,.17,.4,.14,.65-.22h0l-.43,.82s-.14,.34-.14,.38c.04,.03,.09,.05,.14,.06-.01,.08-.01,.09-.02,.2,.25,.15,.52,.03,.69-.49l.07-.14-.02,.19h0l-.07,.58h0s-.03,.41,0,.4c.28,.08,.46-.11,.48-.66Z"/><g><polygon class="f" points="451.2 143.99 450.78 150.63 448.11 150.63 447.94 143.74 451.2 143.99"/><path class="n" d="M450.78,150.63v1.55h-5.97s-.26-.62,.35-.83c.61-.21,2.49-.53,2.95-1.16,0,0,.28,.49,.88,.34,.6-.15,1.1-.71,1.78,.1Z"/></g><polygon class="h" points="452.12 144.05 446.82 143.68 446.82 142.17 452.12 142.42 452.12 144.05"/><polygon class="n" points="461.54 131.11 461.53 131.11 460.95 109.58 454.57 109.58 454.57 109.58 448.18 109.58 447.6 131.11 447.59 131.11 447.17 142.19 451.61 142.42 452.62 131.45 452.65 131.45 454.09 116.98 454.57 116.98 454.57 116.98 455.04 116.98 456.48 131.45 456.51 131.45 457.53 142.42 461.96 142.19 461.54 131.11"/><path class="i" d="M443.87,104.88l3.93,1.94c-.94,2.64-3.03,8.61-3.03,8.61l-3.41-1.18,2.51-9.36Z"/><g><path class="i" d="M465.26,104.88l-3.3-10.67c-.51-1.35-1.63-2.37-3.01-2.7l-2.29-.54,1.18,28.8c-.07,.85,.62,1.56,1.44,1.5l5.52-.42-1.81-13.71,2.25-2.24Z"/><path class="i" d="M450.17,91.5c-1.38,.34-2.5,1.35-3.01,2.7l-3.3,10.67,2.25,2.24-1.81,13.71,5.52,.42c.83,.06,1.51-.65,1.44-1.5l1.18-28.8-2.29,.54Z"/></g><path class="h" d="M446.85,107.69c.08,0,.14-.06,.14-.13l.3-10.03c0-.07-.06-.14-.14-.14-.08-.02-.14,.06-.14,.13l-.3,10.03c0,.07,.06,.14,.14,.14h0Z"/><g><path class="c" d="M443.36,164.38l2.41-7.2h1.24l2.41,7.2h-.92l-2.25-6.68h.28l-2.24,6.68h-.92Zm1.16-1.68v-.83h3.74v.83h-3.74Z"/><path class="c" d="M450.42,164.38v-7.35h.89v7.35h-.89Z"/><path class="c" d="M452.91,158.03v-.92h.89v.92h-.89Zm0,6.36v-5.4h.89v5.4h-.89Z"/><path class="c" d="M457.58,164.53c-.55,0-1.01-.12-1.39-.37-.38-.25-.67-.58-.87-1.01-.2-.43-.3-.92-.31-1.47,0-.56,.11-1.06,.32-1.49s.5-.76,.88-1c.38-.24,.85-.36,1.39-.36,.57,0,1.06,.14,1.47,.42,.41,.28,.69,.66,.83,1.15l-.88,.27c-.11-.31-.3-.56-.55-.73-.25-.17-.55-.26-.88-.26-.37,0-.67,.09-.92,.26-.24,.17-.42,.41-.53,.71-.12,.3-.18,.65-.18,1.04,0,.6,.15,1.08,.42,1.45,.27,.37,.68,.55,1.21,.55,.35,0,.65-.08,.88-.24,.23-.16,.41-.4,.53-.7l.9,.23c-.19,.5-.48,.89-.88,1.16s-.88,.4-1.44,.4Z"/><path class="c" d="M463.1,164.53c-.53,0-.99-.12-1.39-.35-.39-.24-.7-.56-.92-.99-.22-.42-.33-.91-.33-1.48s.11-1.1,.32-1.53,.52-.77,.91-1c.39-.24,.84-.35,1.37-.35s1.01,.12,1.39,.38,.67,.61,.86,1.07c.19,.46,.27,1.02,.25,1.66h-.9v-.32c0-.66-.14-1.16-.4-1.49-.26-.33-.65-.49-1.16-.49-.55,0-.97,.18-1.25,.53-.29,.35-.43,.86-.43,1.52s.14,1.13,.43,1.48c.29,.35,.69,.52,1.22,.52,.36,0,.67-.08,.93-.25,.26-.16,.47-.4,.62-.7l.86,.29c-.21,.48-.53,.85-.95,1.11-.42,.26-.89,.39-1.42,.39Zm-2-2.6v-.71h3.99v.71h-3.99Z"/></g><path class="h" d="M462.28,107.69c-.08,0-.14-.06-.14-.13l-.3-10.03c0-.07,.06-.14,.14-.14,.08-.02,.14,.06,.14,.13l.3,10.03c0,.07-.06,.14-.14,.14h0Z"/><polygon class="b" points="10.3 74.24 10.3 77.42 7.37 77.42 7.37 74.1 10.3 74.24"/><path class="n" d="M10.3,77.42v1.68H3.74s-.29-.67,.39-.9c.68-.23,2.74-.57,3.25-1.25,0,0,.31,.53,.97,.37,.66-.16,1.21-.76,1.96,.11Z"/><polygon class="b" points="19.06 74.24 19.06 77.42 21.99 77.42 21.99 74.1 19.06 74.24"/><path class="n" d="M19.06,77.42v1.68h6.57s.29-.67-.39-.9c-.68-.23-2.74-.57-3.25-1.25,0,0-.31,.53-.97,.37-.66-.16-1.21-.76-1.96,.11Z"/><polygon class="h" points="22.21 33.06 14.68 33.06 7.16 33.06 6.14 75.56 10.97 76.36 14.17 41.06 14.68 41.06 15.19 41.06 18.4 76.36 23.23 75.56 22.21 33.06"/><g><path class="k" d="M14.68,7.8h2.27l.44,2.95s-.73,1.46-2.72,1.46-2.72-1.46-2.72-1.46l.44-2.95h2.27"/><circle class="f" cx="14.68" cy="6.17" r="2.81"/><circle class="j" cx="14.68" cy="6.84" r="2.5"/><path class="k" d="M14.68,8.97h0c-1.55,0-2.81-1.27-2.81-2.83V2.73h5.62v3.41c0,1.56-1.26,2.83-2.81,2.83Z"/><path class="n" d="M11.87,5.59V3.3s1.05-.62,1.92,.4c.87,1.02,3.7-.15,3.7-.15v1.96s.62-.19,.87,.35c0,0-.12-.6,.35-1.11,.47-.52,.14-2.26-1.22-2.46,0,0,.56-2.18-1.15-2.27-1.72-.09-2.48,1.29-2.48,1.29,0,0-.88-1.33-1.99-.67s-1.3,1.62-.99,3.16c.28,1.4,.34,1.73,.34,1.73,0,0,.43-.18,.65,.09Z"/><g><path class="k" d="M12.19,6.14c0,.41-.08,.74-.47,.74s-.96-.33-.96-.74,.32-.74,.72-.74,.72,.33,.72,.74Z"/><path class="k" d="M17.04,6.14c0,.41,.08,.74,.47,.74s.96-.33,.96-.74-.32-.74-.72-.74-.72,.33-.72,.74Z"/></g></g><path class="k" d="M1.59,40.61l.24-1.19,.55-1.47,.68-.58,.47-.11s.03,.05,.03,.06c.04,.07,.14,.14,.14,.15,0,0,.01,.53,0,.92-.02,.82,.31,.89,.44,.71,.13-.18,.12-.96,.24-1.46s.37-1.52,.33-2.3c0,0,0,.47,0-.02s.67-1.7,.67-1.7l-1.19-.77-.66,1.13c-.91,.89-1.39,1.81-1.79,2.99l-.74,.94-.78,.98s-.19,.26-.21,.34c.18,.21,.47,.17,.77-.28h0l-.5,1s-.17,.41-.17,.46c.05,.04,.11,.06,.16,.08-.02,.1-.02,.11-.03,.24,.29,.18,.61,.04,.81-.6l.08-.17-.03,.23h0l-.08,.72h0s-.03,.51,0,.49c.33,.1,.55-.14,.57-.81Z"/><path class="k" d="M27.77,40.61l-.24-1.19-.55-1.47-.68-.58-.47-.11s-.03,.05-.03,.06c-.04,.07-.14,.14-.14,.15,0,0-.01,.53,0,.92,.02,.82-.31,.89-.44,.71-.13-.18-.12-.96-.24-1.46s-.37-1.52-.33-2.3c0,0,0,.47,0-.02s-.67-1.7-.67-1.7l1.19-.77,.66,1.13c.91,.89,1.39,1.81,1.79,2.99l.74,.94,.78,.98s.19,.26,.21,.34c-.18,.21-.47,.17-.77-.28h0l.5,1s.17,.41,.17,.46c-.05,.04-.11,.06-.16,.08,.02,.1,.02,.11,.03,.24-.29,.18-.61,.04-.81-.6l-.08-.17,.03,.23h0l.08,.72h0s.03,.51,0,.49c-.33,.1-.55-.14-.57-.81Z"/><polygon class="l" points="16.99 9.66 14.68 11.14 12.38 9.66 11.79 10.5 12.44 33.77 14.68 33.77 16.92 33.77 17.58 10.5 16.99 9.66"/><g><path class="n" d="M12.38,9.66l-6.99,3.02L1.6,35.15c.31-.14,3.67,.8,3.9,1.08,.16-.61,.31-1.19,.46-1.75l.12,4.55h2.9c2.03,0,3.65-1.69,3.58-3.73l-.79-24.8,.59-.85Z"/><path class="n" d="M23.97,12.68l-6.99-3.02,.59,.85-.79,24.8c-.06,2.04,1.56,3.73,3.58,3.73h2.9l.12-4.55c.15,.56,.3,1.14,.46,1.75,.24-.28,3.6-1.21,3.9-1.08l-3.79-22.47Z"/></g><g><path class="c" d="M6.29,91.3v-7.2h2.8c.43,0,.8,.09,1.1,.27s.54,.41,.7,.7c.16,.29,.24,.6,.24,.93,0,.39-.1,.73-.3,1.02-.2,.29-.47,.5-.81,.61v-.25c.45,.12,.81,.35,1.07,.68s.38,.72,.38,1.18c0,.42-.08,.78-.26,1.09s-.42,.54-.74,.71-.7,.25-1.14,.25h-3.05Zm.9-4.2h1.9c.21,0,.41-.05,.58-.14,.17-.09,.31-.22,.41-.39,.1-.17,.15-.36,.15-.58,0-.31-.1-.56-.31-.76-.21-.2-.49-.29-.83-.29h-1.9v2.17Zm0,3.35h1.99c.27,0,.5-.05,.71-.15,.21-.1,.38-.24,.5-.42,.12-.18,.18-.4,.18-.65s-.05-.46-.16-.65-.26-.35-.46-.46c-.19-.12-.42-.17-.68-.17h-2.08v2.51Z"/><path class="c" d="M14.77,91.45c-.54,0-1-.12-1.39-.37-.39-.24-.69-.58-.9-1.01-.21-.43-.31-.92-.31-1.48s.11-1.06,.32-1.49c.21-.43,.52-.76,.91-1s.85-.36,1.38-.36,1,.12,1.39,.36c.39,.24,.69,.58,.9,1,.21,.43,.31,.92,.31,1.48s-.11,1.06-.32,1.49c-.21,.43-.51,.76-.9,1-.39,.24-.85,.36-1.39,.36Zm0-.85c.56,0,.98-.19,1.25-.56s.41-.86,.41-1.45-.14-1.1-.42-1.46c-.28-.36-.69-.54-1.25-.54-.38,0-.69,.08-.93,.25-.24,.17-.43,.41-.54,.71-.12,.3-.18,.65-.18,1.04,0,.61,.14,1.09,.42,1.46,.28,.37,.69,.55,1.24,.55Z"/><path class="c" d="M18.47,91.3v-7.2h.89v3.23h-.1v3.97h-.79Zm2.48,.15c-.51,0-.93-.13-1.28-.38s-.61-.59-.79-1.03c-.18-.43-.27-.92-.27-1.45s.09-1.03,.27-1.46c.18-.43,.44-.77,.79-1.01,.35-.25,.78-.37,1.28-.37s.93,.12,1.29,.37c.36,.25,.64,.59,.83,1.02s.29,.92,.29,1.46-.1,1.03-.29,1.46-.47,.77-.83,1.02-.79,.38-1.3,.38Zm-.11-.82c.36,0,.65-.09,.88-.27,.23-.18,.41-.42,.53-.73,.12-.31,.17-.65,.17-1.04s-.06-.72-.17-1.03-.29-.55-.53-.73-.54-.27-.91-.27-.64,.09-.87,.26c-.23,.17-.4,.41-.51,.71-.11,.31-.17,.66-.17,1.06s.06,.74,.17,1.05c.11,.31,.28,.55,.52,.72s.53,.26,.9,.26Z"/></g><path class="m" d="M6.08,34.19h-.01c-.07,0-.13-.07-.12-.15l1.27-14.79c0-.07,.07-.13,.15-.12,.07,0,.13,.07,.12,.15l-1.27,14.79c0,.07-.06,.12-.13,.12Z"/><path class="m" d="M23.29,34.19h.01c.07,0,.13-.07,.12-.15l-1.27-14.79c0-.07-.07-.13-.15-.12-.07,0-.13,.07-.12,.15l1.27,14.79c0,.07,.06,.12,.13,.12Z"/><g><polygon class="d" points="11.08 10.16 11.6 10.92 13.42 13.27 14.68 11.14 12.35 8.57 11.08 10.16"/><polygon class="d" points="17.02 8.57 14.68 11.14 15.95 13.27 17.76 10.92 18.29 10.16 17.02 8.57"/></g><g><path class="c" d="M162.74,16.92v-7.2h4.65v1.13h-3.44v1.78h2.84v1.13h-2.84v2.04h3.44v1.13h-4.65Z"/><path class="c" d="M167.99,16.92l1.98-2.73-1.94-2.67h1.42l1.22,1.73,1.19-1.73h1.42l-1.93,2.67,1.99,2.73h-1.42l-1.24-1.79-1.26,1.79h-1.42Z"/><path class="c" d="M175.44,17.07c-.39,0-.72-.07-.99-.22-.27-.15-.47-.35-.61-.59s-.21-.52-.21-.82c0-.26,.04-.49,.13-.7,.09-.21,.22-.39,.4-.54,.18-.15,.41-.28,.7-.37,.22-.07,.47-.13,.76-.19s.61-.11,.95-.16c.34-.05,.7-.1,1.07-.16l-.43,.24c0-.37-.08-.65-.25-.82s-.46-.27-.86-.27c-.24,0-.48,.06-.71,.17s-.38,.31-.47,.58l-1.1-.34c.13-.46,.39-.82,.76-1.1,.38-.28,.88-.42,1.52-.42,.48,0,.9,.08,1.27,.23,.37,.16,.64,.41,.81,.77,.1,.19,.16,.38,.17,.58,.02,.2,.03,.42,.03,.65v3.32h-1.05v-1.17l.17,.19c-.24,.39-.53,.68-.85,.86s-.73,.27-1.22,.27Zm.24-.96c.27,0,.51-.05,.7-.15s.35-.21,.46-.35c.12-.14,.19-.27,.23-.4,.06-.15,.1-.33,.11-.53,0-.2,.01-.36,.01-.48l.37,.11c-.36,.06-.67,.11-.93,.15-.26,.04-.48,.08-.67,.12-.19,.04-.35,.08-.5,.13-.14,.05-.26,.11-.36,.17-.1,.07-.17,.14-.22,.23s-.08,.19-.08,.3c0,.13,.03,.25,.1,.35,.07,.1,.16,.18,.29,.24,.13,.06,.29,.09,.48,.09Z"/><path class="c" d="M179.68,16.92v-5.4h1.06v1.68h.15v3.72h-1.21Zm3.25,0v-3.26c0-.38-.09-.67-.28-.88-.18-.21-.43-.32-.75-.32s-.55,.1-.74,.32c-.19,.21-.28,.48-.28,.82l-.54-.36c0-.35,.09-.67,.26-.95,.17-.28,.41-.5,.7-.66,.29-.16,.63-.24,.99-.24,.4,0,.74,.09,1.01,.26,.27,.17,.48,.41,.61,.7s.2,.63,.2,1v3.58h-1.2Zm3.24,0v-3.28c0-.37-.09-.66-.27-.87s-.43-.31-.75-.31c-.19,0-.37,.04-.52,.13-.15,.09-.27,.22-.36,.39s-.14,.38-.14,.61l-.53-.31c0-.37,.08-.7,.25-.99,.17-.28,.4-.51,.7-.67,.29-.16,.62-.24,.98-.24,.6,0,1.05,.18,1.37,.54s.48,.83,.48,1.41v3.58h-1.21Z"/><path class="c" d="M188.67,19.32v-7.8h1.06v3.79h.15v4.01h-1.21Zm2.6-2.25c-.53,0-.97-.12-1.33-.38s-.62-.59-.8-1.02-.27-.92-.27-1.45,.09-1.03,.27-1.46,.44-.77,.79-1.02c.35-.25,.78-.37,1.29-.37s.95,.12,1.33,.37c.38,.25,.67,.59,.87,1.02,.21,.43,.31,.92,.31,1.46s-.1,1.03-.3,1.46-.49,.77-.86,1.02-.8,.38-1.3,.38Zm-.18-1.08c.31,0,.57-.08,.77-.24,.2-.16,.35-.37,.45-.64,.1-.27,.15-.57,.15-.9s-.05-.62-.15-.89c-.1-.27-.25-.48-.46-.64s-.48-.24-.8-.24c-.31,0-.56,.07-.75,.22-.19,.15-.34,.35-.43,.62-.09,.27-.14,.57-.14,.93s.05,.66,.14,.92c.09,.27,.24,.47,.43,.62s.46,.22,.78,.22Z"/><path class="c" d="M194.94,16.92v-7.35h1.21v7.35h-1.21Z"/><path class="c" d="M200.1,17.07c-.55,0-1.03-.12-1.44-.36s-.74-.56-.97-.99c-.23-.42-.35-.9-.35-1.45,0-.59,.11-1.1,.34-1.54,.23-.43,.54-.77,.94-1.01,.4-.24,.87-.36,1.4-.36,.56,0,1.04,.13,1.43,.39s.68,.63,.87,1.11c.19,.48,.26,1.04,.21,1.68h-1.19v-.44c0-.59-.11-1.02-.31-1.29-.2-.27-.52-.41-.96-.41-.49,0-.86,.15-1.1,.46-.24,.3-.36,.75-.36,1.34,0,.55,.12,.97,.36,1.27,.24,.3,.59,.45,1.05,.45,.3,0,.55-.07,.77-.2s.38-.32,.5-.57l1.19,.36c-.21,.49-.53,.86-.96,1.13-.43,.27-.91,.41-1.43,.41Zm-1.86-2.52v-.91h3.71v.91h-3.71Z"/><path class="c" d="M207.39,16.92v-6.07h-2.33v-1.13h5.87v1.13h-2.33v6.07h-1.21Z"/><path class="c" d="M211.22,16.92v-5.4h1.06v1.32l-.13-.17c.07-.18,.16-.34,.27-.49,.11-.15,.25-.27,.4-.37,.13-.09,.28-.16,.44-.21,.16-.05,.33-.08,.5-.1s.33,0,.5,.02v1.12c-.16-.05-.34-.06-.55-.04s-.4,.08-.56,.18c-.17,.09-.3,.2-.41,.34-.11,.14-.18,.3-.23,.48-.05,.18-.08,.37-.08,.58v2.75h-1.21Z"/><path class="c" d="M216.6,17.07c-.39,0-.72-.07-.99-.22-.27-.15-.47-.35-.61-.59s-.21-.52-.21-.82c0-.26,.04-.49,.13-.7,.09-.21,.22-.39,.4-.54,.18-.15,.41-.28,.7-.37,.22-.07,.47-.13,.76-.19s.61-.11,.95-.16c.34-.05,.7-.1,1.07-.16l-.43,.24c0-.37-.08-.65-.25-.82s-.46-.27-.86-.27c-.24,0-.48,.06-.71,.17s-.38,.31-.47,.58l-1.1-.34c.13-.46,.39-.82,.76-1.1,.38-.28,.88-.42,1.52-.42,.48,0,.9,.08,1.27,.23,.37,.16,.64,.41,.81,.77,.1,.19,.16,.38,.17,.58,.02,.2,.03,.42,.03,.65v3.32h-1.05v-1.17l.17,.19c-.24,.39-.53,.68-.85,.86s-.73,.27-1.22,.27Zm.24-.96c.27,0,.51-.05,.7-.15s.35-.21,.46-.35c.12-.14,.19-.27,.23-.4,.06-.15,.1-.33,.11-.53,0-.2,.01-.36,.01-.48l.37,.11c-.36,.06-.67,.11-.93,.15-.26,.04-.48,.08-.67,.12-.19,.04-.35,.08-.5,.13-.14,.05-.26,.11-.36,.17-.1,.07-.17,.14-.22,.23s-.08,.19-.08,.3c0,.13,.03,.25,.1,.35,.07,.1,.16,.18,.29,.24,.13,.06,.29,.09,.48,.09Z"/><path class="c" d="M220.84,16.92v-5.4h1.07v1.68h.15v3.72h-1.22Zm3.74,0v-2.6c0-.17-.01-.36-.03-.57-.02-.21-.08-.41-.16-.6-.08-.19-.21-.35-.38-.47-.17-.12-.4-.18-.68-.18-.15,0-.3,.03-.46,.08-.15,.05-.29,.14-.41,.26-.12,.12-.22,.29-.29,.5-.07,.21-.11,.48-.11,.81l-.71-.3c0-.46,.09-.88,.27-1.25,.18-.37,.44-.67,.79-.89s.77-.33,1.28-.33c.4,0,.73,.07,.99,.2,.26,.13,.47,.3,.62,.51,.15,.21,.27,.43,.34,.66,.07,.23,.12,.45,.14,.66,.02,.21,.03,.38,.03,.51v3.01h-1.22Z"/><path class="c" d="M229.19,17.07c-.67,0-1.21-.15-1.62-.45-.42-.3-.67-.72-.76-1.27l1.23-.19c.06,.27,.2,.48,.42,.63s.49,.23,.82,.23c.29,0,.51-.06,.67-.17,.16-.12,.24-.27,.24-.47,0-.12-.03-.22-.09-.3-.06-.07-.19-.15-.38-.22-.2-.07-.5-.16-.9-.27-.45-.12-.81-.25-1.08-.39-.27-.14-.46-.3-.58-.49-.12-.19-.17-.42-.17-.69,0-.34,.09-.63,.26-.88s.42-.44,.74-.58,.69-.2,1.12-.2,.79,.06,1.12,.19c.33,.13,.59,.32,.79,.56,.2,.24,.32,.52,.37,.84l-1.23,.22c-.03-.23-.13-.41-.31-.54-.18-.13-.42-.21-.71-.22-.28-.02-.51,.03-.68,.13-.17,.1-.26,.25-.26,.43,0,.1,.03,.19,.1,.27s.21,.15,.42,.22c.21,.07,.53,.16,.95,.27,.43,.11,.77,.24,1.03,.38,.26,.14,.45,.31,.56,.51,.11,.2,.17,.43,.17,.71,0,.54-.2,.97-.59,1.28-.4,.31-.94,.47-1.64,.47Z"/><path class="c" d="M234.03,17.07c-.39,0-.72-.07-.99-.22-.27-.15-.47-.35-.61-.59s-.21-.52-.21-.82c0-.26,.04-.49,.13-.7,.09-.21,.22-.39,.4-.54,.18-.15,.41-.28,.7-.37,.22-.07,.47-.13,.76-.19s.61-.11,.95-.16c.34-.05,.7-.1,1.07-.16l-.43,.24c0-.37-.08-.65-.25-.82s-.46-.27-.86-.27c-.24,0-.48,.06-.71,.17s-.38,.31-.47,.58l-1.1-.34c.13-.46,.39-.82,.76-1.1,.38-.28,.88-.42,1.52-.42,.48,0,.9,.08,1.27,.23,.37,.16,.64,.41,.81,.77,.1,.19,.16,.38,.17,.58,.02,.2,.03,.42,.03,.65v3.32h-1.05v-1.17l.17,.19c-.24,.39-.53,.68-.85,.86s-.73,.27-1.22,.27Zm.24-.96c.27,0,.51-.05,.7-.15s.35-.21,.46-.35c.12-.14,.19-.27,.23-.4,.06-.15,.1-.33,.11-.53,0-.2,.01-.36,.01-.48l.37,.11c-.36,.06-.67,.11-.93,.15-.26,.04-.48,.08-.67,.12-.19,.04-.35,.08-.5,.13-.14,.05-.26,.11-.36,.17-.1,.07-.17,.14-.22,.23s-.08,.19-.08,.3c0,.13,.03,.25,.1,.35,.07,.1,.16,.18,.29,.24,.13,.06,.29,.09,.48,.09Z"/><path class="c" d="M240.62,17.07c-.56,0-1.03-.12-1.42-.37s-.69-.59-.9-1.02c-.21-.43-.31-.92-.32-1.46,0-.55,.11-1.04,.33-1.47,.21-.43,.52-.76,.92-1.01,.4-.25,.87-.37,1.42-.37,.61,0,1.13,.15,1.56,.46,.43,.31,.7,.73,.83,1.26l-1.2,.33c-.09-.29-.25-.52-.46-.68-.22-.16-.46-.24-.74-.24-.31,0-.57,.07-.78,.22-.2,.15-.35,.35-.45,.61s-.15,.55-.15,.88c0,.51,.12,.93,.34,1.25,.23,.32,.57,.47,1.03,.47,.32,0,.57-.07,.76-.22,.18-.15,.32-.36,.42-.63l1.23,.28c-.17,.55-.46,.97-.88,1.27-.42,.3-.93,.44-1.53,.44Z"/><path class="c" d="M243.43,12.46v-.95h3.77v.95h-3.77Zm3.77,4.46c-.36,.07-.71,.1-1.05,.09-.34,0-.65-.07-.92-.19-.27-.12-.48-.31-.62-.56-.12-.23-.19-.47-.2-.71s0-.52,0-.83v-4.7h1.2v4.62c0,.22,0,.41,0,.57,0,.16,.04,.3,.1,.4,.12,.2,.31,.31,.58,.33s.56,0,.9-.04v1.01Z"/><path class="c" d="M248.46,10.7v-1.11h1.21v1.11h-1.21Zm0,6.22v-5.4h1.21v5.4h-1.21Z"/><path class="c" d="M253.55,17.07c-.54,0-1.01-.12-1.42-.37s-.72-.58-.94-1.01c-.22-.43-.33-.92-.33-1.48s.11-1.06,.34-1.49c.23-.43,.54-.76,.94-1,.4-.24,.87-.36,1.4-.36s1.02,.12,1.42,.37c.4,.24,.72,.58,.94,1.01,.22,.43,.33,.92,.33,1.48s-.11,1.05-.34,1.48c-.22,.43-.54,.76-.94,1-.4,.24-.88,.36-1.42,.36Zm0-1.13c.48,0,.84-.16,1.07-.48s.35-.73,.35-1.24-.12-.94-.35-1.25c-.24-.31-.59-.47-1.07-.47-.32,0-.59,.07-.8,.22-.21,.14-.36,.35-.46,.6-.1,.26-.15,.56-.15,.9,0,.52,.12,.94,.36,1.25s.59,.47,1.05,.47Z"/><path class="c" d="M257.34,16.92v-5.4h1.07v1.68h.15v3.72h-1.22Zm3.74,0v-2.6c0-.17-.01-.36-.03-.57-.02-.21-.08-.41-.16-.6-.08-.19-.21-.35-.38-.47-.17-.12-.4-.18-.68-.18-.15,0-.3,.03-.46,.08-.15,.05-.29,.14-.41,.26-.12,.12-.22,.29-.29,.5-.07,.21-.11,.48-.11,.81l-.71-.3c0-.46,.09-.88,.27-1.25,.18-.37,.44-.67,.79-.89s.77-.33,1.28-.33c.4,0,.73,.07,.99,.2,.26,.13,.47,.3,.62,.51,.15,.21,.27,.43,.34,.66,.07,.23,.12,.45,.14,.66,.02,.21,.03,.38,.03,.51v3.01h-1.22Z"/><path class="c" d="M164.8,29.05c-.36,0-.7-.07-1.02-.21-.32-.14-.6-.34-.83-.59-.23-.26-.4-.56-.51-.91l1.17-.31c.08,.29,.24,.51,.46,.66s.47,.23,.73,.23c.24,0,.45-.05,.63-.17s.33-.26,.44-.45,.16-.4,.16-.63c0-.36-.12-.66-.35-.89-.23-.24-.53-.36-.89-.36-.11,0-.22,.01-.32,.04-.11,.03-.21,.07-.3,.12l-.55-.95,2.42-2.07,.11,.29h-3.43v-1.13h4.42v1.14l-1.94,1.87v-.35c.43,.03,.8,.15,1.11,.37,.31,.21,.54,.49,.71,.82,.17,.34,.25,.71,.25,1.11,0,.45-.11,.86-.33,1.22-.22,.36-.52,.64-.89,.85-.37,.21-.78,.31-1.23,.31Z"/><path class="c" d="M171.14,29.07c-.51,0-.96-.11-1.35-.33-.39-.22-.69-.52-.91-.91-.22-.39-.33-.84-.33-1.35v-2.32c0-.51,.11-.96,.33-1.35,.22-.39,.52-.69,.91-.91,.39-.22,.84-.33,1.35-.33s.96,.11,1.35,.33c.39,.22,.69,.52,.91,.91,.22,.39,.33,.84,.33,1.35v2.32c0,.51-.11,.96-.33,1.35-.22,.39-.52,.69-.91,.91-.39,.22-.84,.33-1.35,.33Zm0-1.15c.25,0,.48-.06,.69-.18,.21-.12,.37-.29,.49-.49,.12-.2,.18-.43,.18-.69v-2.49c0-.26-.06-.49-.18-.69-.12-.2-.28-.37-.49-.49-.21-.12-.44-.18-.69-.18s-.48,.06-.69,.18c-.21,.12-.37,.29-.49,.49-.12,.21-.18,.44-.18,.69v2.49c0,.25,.06,.48,.18,.69,.12,.21,.28,.37,.49,.49,.21,.12,.44,.18,.69,.18Z"/><path class="c" d="M177.13,28.92v-7.2h1.08l2.49,5.1,2.49-5.1h1.08v7.2h-1.12v-4.62l-2.21,4.62h-.48l-2.21-4.62v4.62h-1.13Z"/><path class="c" d="M185.78,22.7v-1.11h1.21v1.11h-1.21Zm0,6.22v-5.4h1.21v5.4h-1.21Z"/><path class="c" d="M188.48,28.92v-5.4h1.07v1.68h.15v3.72h-1.22Zm3.74,0v-2.6c0-.17-.01-.36-.03-.57-.02-.21-.08-.41-.16-.6-.08-.19-.21-.35-.38-.47-.17-.12-.4-.18-.68-.18-.15,0-.3,.03-.46,.08-.15,.05-.29,.14-.41,.26-.12,.12-.22,.29-.29,.5-.07,.21-.11,.48-.11,.81l-.71-.3c0-.46,.09-.88,.27-1.25,.18-.37,.44-.67,.79-.89s.77-.33,1.28-.33c.4,0,.73,.07,.99,.2,.26,.13,.47,.3,.62,.51,.15,.21,.27,.43,.34,.66,.07,.23,.12,.45,.14,.66,.02,.21,.03,.38,.03,.51v3.01h-1.22Z"/><path class="c" d="M194.84,22.7v-1.11h1.21v1.11h-1.21Zm0,6.22v-5.4h1.21v5.4h-1.21Z"/><path class="c" d="M197.54,28.92v-5.4h1.06v1.68h.15v3.72h-1.21Zm3.25,0v-3.26c0-.38-.09-.67-.28-.88-.18-.21-.43-.32-.75-.32s-.55,.1-.74,.32c-.19,.21-.28,.48-.28,.82l-.54-.36c0-.35,.09-.67,.26-.95,.17-.28,.41-.5,.7-.66,.29-.16,.63-.24,.99-.24,.4,0,.74,.09,1.01,.26,.27,.17,.48,.41,.61,.7s.2,.63,.2,1v3.58h-1.2Zm3.24,0v-3.28c0-.37-.09-.66-.27-.87s-.43-.31-.75-.31c-.19,0-.37,.04-.52,.13-.15,.09-.27,.22-.36,.39s-.14,.38-.14,.61l-.53-.31c0-.37,.08-.7,.25-.99,.17-.28,.4-.51,.7-.67,.29-.16,.62-.24,.98-.24,.6,0,1.05,.18,1.37,.54s.48,.83,.48,1.41v3.58h-1.21Z"/><path class="c" d="M208.05,29.07c-.39,0-.72-.07-.99-.22-.27-.15-.47-.35-.61-.59s-.21-.52-.21-.82c0-.26,.04-.49,.13-.7,.09-.21,.22-.39,.4-.54,.18-.15,.41-.28,.7-.37,.22-.07,.47-.13,.76-.19s.61-.11,.95-.16c.34-.05,.7-.1,1.07-.16l-.43,.24c0-.37-.08-.65-.25-.82s-.46-.27-.86-.27c-.24,0-.48,.06-.71,.17s-.38,.31-.47,.58l-1.1-.34c.13-.46,.39-.82,.76-1.1,.38-.28,.88-.42,1.52-.42,.48,0,.9,.08,1.27,.23,.37,.16,.64,.41,.81,.77,.1,.19,.16,.38,.17,.58,.02,.2,.03,.42,.03,.65v3.32h-1.05v-1.17l.17,.19c-.24,.39-.53,.68-.85,.86s-.73,.27-1.22,.27Zm.24-.96c.27,0,.51-.05,.7-.15s.35-.21,.46-.35c.12-.14,.19-.27,.23-.4,.06-.15,.1-.33,.11-.53,0-.2,.01-.36,.01-.48l.37,.11c-.36,.06-.67,.11-.93,.15-.26,.04-.48,.08-.67,.12-.19,.04-.35,.08-.5,.13-.14,.05-.26,.11-.36,.17-.1,.07-.17,.14-.22,.23s-.08,.19-.08,.3c0,.13,.03,.25,.1,.35,.07,.1,.16,.18,.29,.24,.13,.06,.29,.09,.48,.09Z"/><path class="c" d="M213.9,24.46v-.95h3.38v.95h-3.38Zm.87,4.46v-5.49c0-.14,0-.29,.01-.45,.01-.17,.04-.33,.08-.49,.05-.16,.13-.31,.26-.45,.15-.17,.32-.29,.5-.35s.35-.1,.53-.11c.17,0,.33-.01,.46-.01h.67v.98h-.62c-.23,0-.4,.06-.51,.17-.11,.12-.17,.27-.17,.45v5.75h-1.21Z"/><path class="c" d="M218.08,28.92v-5.4h1.06v1.32l-.13-.17c.07-.18,.16-.34,.27-.49,.11-.15,.25-.27,.4-.37,.13-.09,.28-.16,.44-.21,.16-.05,.33-.08,.5-.1s.33,0,.5,.02v1.12c-.16-.05-.34-.06-.55-.04s-.4,.08-.56,.18c-.17,.09-.3,.2-.41,.34-.11,.14-.18,.3-.23,.48-.05,.18-.08,.37-.08,.58v2.75h-1.21Z"/><path class="c" d="M224.35,29.07c-.54,0-1.01-.12-1.42-.37s-.72-.58-.94-1.01c-.22-.43-.33-.92-.33-1.48s.11-1.06,.34-1.49c.23-.43,.54-.76,.94-1,.4-.24,.87-.36,1.4-.36s1.02,.12,1.42,.37c.4,.24,.72,.58,.94,1.01,.22,.43,.33,.92,.33,1.48s-.11,1.05-.34,1.48c-.22,.43-.54,.76-.94,1-.4,.24-.88,.36-1.42,.36Zm0-1.13c.48,0,.84-.16,1.07-.48s.35-.73,.35-1.24-.12-.94-.35-1.25c-.24-.31-.59-.47-1.07-.47-.32,0-.59,.07-.8,.22-.21,.14-.36,.35-.46,.6-.1,.26-.15,.56-.15,.9,0,.52,.12,.94,.36,1.25s.59,.47,1.05,.47Z"/><path class="c" d="M228.14,28.92v-5.4h1.06v1.68h.15v3.72h-1.21Zm3.25,0v-3.26c0-.38-.09-.67-.28-.88-.18-.21-.43-.32-.75-.32s-.55,.1-.74,.32c-.19,.21-.28,.48-.28,.82l-.54-.36c0-.35,.09-.67,.26-.95,.17-.28,.41-.5,.7-.66,.29-.16,.63-.24,.99-.24,.4,0,.74,.09,1.01,.26,.27,.17,.48,.41,.61,.7s.2,.63,.2,1v3.58h-1.2Zm3.24,0v-3.28c0-.37-.09-.66-.27-.87s-.43-.31-.75-.31c-.19,0-.37,.04-.52,.13-.15,.09-.27,.22-.36,.39s-.14,.38-.14,.61l-.53-.31c0-.37,.08-.7,.25-.99,.17-.28,.4-.51,.7-.67,.29-.16,.62-.24,.98-.24,.6,0,1.05,.18,1.37,.54s.48,.83,.48,1.41v3.58h-1.21Z"/><path class="c" d="M239.14,28.92v-7.2h2.85c.49,0,.89,.1,1.2,.29,.31,.19,.54,.44,.69,.75,.15,.3,.23,.62,.23,.94,0,.4-.09,.73-.28,1.01s-.44,.46-.77,.56v-.25c.45,.1,.8,.32,1.03,.65,.24,.33,.35,.7,.35,1.12s-.08,.8-.25,1.12c-.16,.32-.41,.57-.73,.75-.32,.18-.72,.27-1.19,.27h-3.14Zm1.22-4.33h1.62c.17,0,.33-.03,.46-.1s.25-.17,.33-.29,.12-.29,.12-.48c0-.25-.08-.46-.24-.62-.16-.17-.38-.25-.67-.25h-1.62v1.75Zm0,3.19h1.78c.21,0,.4-.04,.56-.13,.17-.08,.3-.21,.39-.36,.09-.16,.14-.34,.14-.55,0-.19-.04-.37-.12-.52s-.21-.28-.37-.37-.35-.14-.57-.14h-1.81v2.07Z"/><path class="c" d="M247.83,29.07c-.54,0-1.01-.12-1.42-.37s-.72-.58-.94-1.01c-.22-.43-.33-.92-.33-1.48s.11-1.06,.34-1.49c.23-.43,.54-.76,.94-1,.4-.24,.87-.36,1.4-.36s1.02,.12,1.42,.37c.4,.24,.72,.58,.94,1.01,.22,.43,.33,.92,.33,1.48s-.11,1.05-.34,1.48c-.22,.43-.54,.76-.94,1-.4,.24-.88,.36-1.42,.36Zm0-1.13c.48,0,.84-.16,1.07-.48s.35-.73,.35-1.24-.12-.94-.35-1.25c-.24-.31-.59-.47-1.07-.47-.32,0-.59,.07-.8,.22-.21,.14-.36,.35-.46,.6-.1,.26-.15,.56-.15,.9,0,.52,.12,.94,.36,1.25s.59,.47,1.05,.47Z"/><path class="c" d="M251.62,28.92v-7.2h1.21v3.41h-.15v3.79h-1.06Zm2.6,.15c-.53,0-.97-.12-1.33-.38s-.62-.59-.8-1.02-.27-.92-.27-1.45,.09-1.03,.27-1.46,.44-.77,.79-1.02c.35-.25,.78-.37,1.29-.37s.95,.12,1.33,.37c.38,.25,.67,.59,.87,1.02,.21,.43,.31,.92,.31,1.46s-.1,1.03-.3,1.46-.49,.77-.86,1.02-.8,.38-1.3,.38Zm-.18-1.08c.31,0,.57-.08,.77-.24,.2-.16,.35-.37,.45-.64,.1-.27,.15-.57,.15-.9s-.05-.62-.15-.89c-.1-.27-.25-.48-.46-.64s-.48-.24-.8-.24c-.31,0-.56,.07-.75,.22-.19,.15-.34,.35-.43,.62-.09,.27-.14,.57-.14,.93s.05,.66,.14,.92c.09,.27,.24,.47,.43,.62s.46,.22,.78,.22Z"/><path class="c" d="M259.19,24.46v-.95h3.77v.95h-3.77Zm3.77,4.46c-.36,.07-.71,.1-1.05,.09-.34,0-.65-.07-.92-.19-.27-.12-.48-.31-.62-.56-.12-.23-.19-.47-.2-.71s0-.52,0-.83v-4.7h1.2v4.62c0,.22,0,.41,0,.57,0,.16,.04,.3,.1,.4,.12,.2,.31,.31,.58,.33s.56,0,.9-.04v1.01Z"/><path class="c" d="M266.23,29.07c-.54,0-1.01-.12-1.42-.37s-.72-.58-.94-1.01c-.22-.43-.33-.92-.33-1.48s.11-1.06,.34-1.49c.23-.43,.54-.76,.94-1,.4-.24,.87-.36,1.4-.36s1.02,.12,1.42,.37c.4,.24,.72,.58,.94,1.01,.22,.43,.33,.92,.33,1.48s-.11,1.05-.34,1.48c-.22,.43-.54,.76-.94,1-.4,.24-.88,.36-1.42,.36Zm0-1.13c.48,0,.84-.16,1.07-.48s.35-.73,.35-1.24-.12-.94-.35-1.25c-.24-.31-.59-.47-1.07-.47-.32,0-.59,.07-.8,.22-.21,.14-.36,.35-.46,.6-.1,.26-.15,.56-.15,.9,0,.52,.12,.94,.36,1.25s.59,.47,1.05,.47Z"/><path class="c" d="M271.52,28.92l2.27-7.2h1.77l2.27,7.2h-1.24l-2.06-6.46h.27l-2.03,6.46h-1.24Zm1.26-1.56v-1.12h3.78v1.12h-3.78Z"/><path class="c" d="M278.83,28.92v-7.35h1.21v7.35h-1.21Z"/><path class="c" d="M281.63,22.7v-1.11h1.21v1.11h-1.21Zm0,6.22v-5.4h1.21v5.4h-1.21Z"/><path class="c" d="M286.68,29.07c-.56,0-1.03-.12-1.42-.37s-.69-.59-.9-1.02c-.21-.43-.31-.92-.32-1.46,0-.55,.11-1.04,.33-1.47,.21-.43,.52-.76,.92-1.01,.4-.25,.87-.37,1.42-.37,.61,0,1.13,.15,1.56,.46,.43,.31,.7,.73,.83,1.26l-1.2,.33c-.09-.29-.25-.52-.46-.68-.22-.16-.46-.24-.74-.24-.31,0-.57,.07-.78,.22-.2,.15-.35,.35-.45,.61s-.15,.55-.15,.88c0,.51,.12,.93,.34,1.25,.23,.32,.57,.47,1.03,.47,.32,0,.57-.07,.76-.22,.18-.15,.32-.36,.42-.63l1.23,.28c-.17,.55-.46,.97-.88,1.27-.42,.3-.93,.44-1.53,.44Z"/><path class="c" d="M292.4,29.07c-.55,0-1.03-.12-1.44-.36s-.74-.56-.97-.99c-.23-.42-.35-.9-.35-1.45,0-.59,.11-1.1,.34-1.54,.23-.43,.54-.77,.94-1.01,.4-.24,.87-.36,1.4-.36,.56,0,1.04,.13,1.43,.39s.68,.63,.87,1.11c.19,.48,.26,1.04,.21,1.68h-1.19v-.44c0-.59-.11-1.02-.31-1.29-.2-.27-.52-.41-.96-.41-.49,0-.86,.15-1.1,.46-.24,.3-.36,.75-.36,1.34,0,.55,.12,.97,.36,1.27,.24,.3,.59,.45,1.05,.45,.3,0,.55-.07,.77-.2s.38-.32,.5-.57l1.19,.36c-.21,.49-.53,.86-.96,1.13-.43,.27-.91,.41-1.43,.41Zm-1.86-2.52v-.91h3.71v.91h-3.71Z"/></g><g><path class="c" d="M241.03,111.45c-.72,0-1.34-.16-1.85-.47-.51-.32-.91-.75-1.18-1.32-.28-.56-.41-1.22-.41-1.96s.14-1.4,.41-1.96c.27-.56,.67-1,1.18-1.32,.51-.31,1.13-.47,1.85-.47s1.34,.16,1.85,.47c.51,.32,.91,.75,1.18,1.32,.28,.56,.41,1.22,.41,1.96s-.14,1.4-.41,1.96c-.27,.56-.67,1-1.18,1.32-.52,.31-1.13,.47-1.85,.47Zm0-1.14c.48,0,.89-.1,1.21-.32,.32-.22,.56-.52,.73-.92,.16-.39,.24-.85,.24-1.38s-.08-.98-.24-1.37c-.16-.39-.4-.69-.73-.91-.32-.22-.72-.33-1.21-.33-.48,0-.88,.1-1.21,.32-.32,.22-.56,.52-.72,.91-.16,.39-.24,.85-.24,1.38s.08,.98,.24,1.37c.16,.39,.4,.69,.72,.91,.32,.22,.72,.33,1.21,.33Z"/><path class="c" d="M247.5,111.45c-.4,0-.73-.07-.99-.2-.26-.13-.47-.3-.62-.51-.15-.21-.27-.43-.34-.66-.07-.23-.12-.45-.14-.66-.02-.21-.03-.38-.03-.51v-3.02h1.22v2.6c0,.17,.01,.35,.04,.56,.02,.21,.08,.41,.16,.6,.08,.19,.21,.35,.38,.47s.4,.18,.68,.18c.15,0,.3-.02,.46-.07,.15-.05,.29-.14,.41-.26s.22-.29,.29-.5c.07-.21,.11-.48,.11-.81l.71,.3c0,.46-.09,.88-.27,1.25-.18,.37-.44,.67-.79,.89s-.77,.33-1.28,.33Zm1.77-.16v-1.67h-.15v-3.73h1.21v5.4h-1.06Z"/><path class="c" d="M251.13,106.84v-.95h3.77v.95h-3.77Zm3.77,4.46c-.36,.07-.71,.1-1.05,.09-.34,0-.65-.07-.92-.19-.27-.12-.48-.31-.62-.56-.12-.23-.19-.47-.2-.71s0-.52,0-.83v-4.7h1.2v4.62c0,.22,0,.41,0,.57,0,.16,.04,.3,.1,.4,.12,.2,.31,.31,.58,.33s.56,0,.9-.04v1.01Z"/><path class="c" d="M256.05,113.7v-7.8h1.06v3.79h.15v4.01h-1.21Zm2.6-2.25c-.53,0-.97-.12-1.33-.38s-.62-.59-.8-1.02-.27-.92-.27-1.45,.09-1.03,.27-1.46,.44-.77,.79-1.02c.35-.25,.78-.37,1.29-.37s.95,.12,1.33,.37c.38,.25,.67,.59,.87,1.02,.21,.43,.31,.92,.31,1.46s-.1,1.03-.3,1.46-.49,.77-.86,1.02-.8,.38-1.3,.38Zm-.18-1.08c.31,0,.57-.08,.77-.24,.2-.16,.35-.37,.45-.64,.1-.27,.15-.57,.15-.9s-.05-.62-.15-.89c-.1-.27-.25-.48-.46-.64s-.48-.24-.8-.24c-.31,0-.56,.07-.75,.22-.19,.15-.34,.35-.43,.62-.09,.27-.14,.57-.14,.93s.05,.66,.14,.92c.09,.27,.24,.47,.43,.62s.46,.22,.78,.22Z"/><path class="c" d="M264.25,111.45c-.4,0-.73-.07-.99-.2-.26-.13-.47-.3-.62-.51-.15-.21-.27-.43-.34-.66-.07-.23-.12-.45-.14-.66-.02-.21-.03-.38-.03-.51v-3.02h1.22v2.6c0,.17,.01,.35,.04,.56,.02,.21,.08,.41,.16,.6,.08,.19,.21,.35,.38,.47s.4,.18,.68,.18c.15,0,.3-.02,.46-.07,.15-.05,.29-.14,.41-.26s.22-.29,.29-.5c.07-.21,.11-.48,.11-.81l.71,.3c0,.46-.09,.88-.27,1.25-.18,.37-.44,.67-.79,.89s-.77,.33-1.28,.33Zm1.77-.16v-1.67h-.15v-3.73h1.21v5.4h-1.06Z"/><path class="c" d="M267.88,106.84v-.95h3.77v.95h-3.77Zm3.77,4.46c-.36,.07-.71,.1-1.05,.09-.34,0-.65-.07-.92-.19-.27-.12-.48-.31-.62-.56-.12-.23-.19-.47-.2-.71s0-.52,0-.83v-4.7h1.2v4.62c0,.22,0,.41,0,.57,0,.16,.04,.3,.1,.4,.12,.2,.31,.31,.58,.33s.56,0,.9-.04v1.01Z"/><path class="c" d="M276.06,111.3v-5.88l-1.35,.83v-1.33l1.35-.81h1.23v7.2h-1.23Z"/><path class="c" d="M279.59,110.65v-1.23h1.24v1.23h-1.24Zm.01-2.86v-1.24h1.23v1.24h-1.23Z"/><path class="c" d="M237.48,123.3l2.41-7.2h1.24l2.41,7.2h-.92l-2.25-6.68h.28l-2.24,6.68h-.92Zm1.16-1.68v-.83h3.74v.83h-3.74Z"/><path class="c" d="M244.44,123.3v-5.4h.79v1.45h.1v3.96h-.89Zm3.23,0v-3.42c0-.41-.1-.74-.31-.97-.21-.24-.5-.35-.85-.35s-.63,.12-.85,.36-.33,.56-.33,.96l-.47-.28c0-.35,.08-.66,.25-.94,.17-.28,.39-.49,.68-.65,.29-.16,.61-.24,.98-.24s.68,.08,.95,.23c.27,.15,.48,.37,.62,.66,.15,.29,.22,.62,.22,1.02v3.63h-.89Zm3.23,0v-3.46c0-.4-.1-.72-.32-.95-.22-.23-.49-.34-.84-.34-.2,0-.39,.05-.57,.14-.18,.09-.33,.24-.44,.43-.11,.2-.17,.44-.17,.75l-.47-.19c0-.38,.07-.72,.24-1.01,.17-.29,.39-.51,.68-.67,.29-.16,.61-.24,.97-.24,.56,0,1.01,.17,1.33,.51,.32,.34,.48,.8,.48,1.38v3.65h-.89Z"/><path class="c" d="M255.34,123.45c-.54,0-1-.12-1.39-.37-.39-.24-.69-.58-.9-1.01-.21-.43-.31-.92-.31-1.48s.11-1.06,.32-1.49c.21-.43,.52-.76,.91-1s.85-.36,1.38-.36,1,.12,1.39,.36c.39,.24,.69,.58,.9,1,.21,.43,.31,.92,.31,1.48s-.11,1.06-.32,1.49c-.21,.43-.51,.76-.9,1-.39,.24-.85,.36-1.39,.36Zm0-.85c.56,0,.98-.19,1.25-.56s.41-.86,.41-1.45-.14-1.1-.42-1.46c-.28-.36-.69-.54-1.25-.54-.38,0-.69,.08-.93,.25-.24,.17-.43,.41-.54,.71-.12,.3-.18,.65-.18,1.04,0,.61,.14,1.09,.42,1.46,.28,.37,.69,.55,1.24,.55Z"/><path class="c" d="M261.1,123.44c-.35,0-.64-.05-.89-.17-.25-.11-.45-.26-.62-.44-.16-.18-.29-.39-.38-.61-.09-.22-.16-.45-.2-.68s-.06-.45-.06-.66v-2.99h.9v2.71c0,.25,.02,.5,.07,.74,.05,.24,.12,.45,.24,.64,.11,.19,.26,.34,.45,.45,.19,.11,.42,.17,.71,.17,.22,0,.43-.04,.61-.12,.18-.08,.34-.19,.47-.34,.13-.15,.23-.34,.3-.58,.07-.23,.11-.5,.11-.81l.58,.18c0,.52-.09,.97-.28,1.34-.19,.38-.45,.67-.8,.87-.34,.2-.74,.3-1.21,.3Zm1.8-.14v-1.45h-.1v-3.96h.89v5.4h-.79Z"/><path class="c" d="M265.09,123.3v-5.4h.8v1.45h.1v3.96h-.9Zm3.85,0v-2.71c0-.26-.02-.5-.07-.74-.04-.24-.12-.45-.24-.64-.11-.19-.26-.34-.45-.45-.19-.11-.43-.17-.71-.17-.22,0-.43,.04-.61,.11-.18,.07-.34,.19-.47,.34s-.23,.35-.3,.58c-.07,.23-.11,.5-.11,.82l-.58-.18c0-.52,.09-.97,.28-1.35,.19-.38,.45-.66,.79-.87,.34-.2,.74-.3,1.21-.3,.35,0,.65,.05,.9,.17,.25,.11,.45,.26,.61,.44,.16,.18,.29,.38,.39,.61,.09,.22,.16,.45,.2,.68s.06,.45,.06,.66v2.99h-.9Z"/><path class="c" d="M270.54,118.63v-.74h3.62v.74h-3.62Zm3.62,4.67c-.32,.06-.64,.09-.95,.08s-.59-.07-.83-.19c-.24-.12-.43-.29-.55-.54-.11-.21-.16-.43-.17-.65,0-.22-.01-.47-.01-.74v-4.86h.89v4.82c0,.22,0,.41,0,.57,0,.16,.04,.29,.1,.4,.12,.21,.31,.34,.57,.38,.26,.04,.58,.03,.95-.03v.76Z"/><path class="c" d="M275.65,122.55v-.98h.98v.98h-.98Zm0-2.92v-.98h.98v.98h-.98Z"/><path class="c" d="M280.36,123.44c-.36,0-.69-.07-1-.2s-.57-.32-.79-.56c-.22-.24-.38-.53-.49-.86l.85-.24c.11,.33,.29,.59,.55,.76,.26,.17,.54,.26,.87,.25,.29,0,.55-.07,.76-.2,.21-.13,.38-.3,.5-.53,.12-.22,.18-.48,.18-.77,0-.45-.13-.81-.4-1.09s-.62-.42-1.05-.42c-.12,0-.25,.02-.38,.05s-.25,.08-.37,.14l-.43-.71,2.67-2.42,.11,.3h-3.58v-.85h4.25v.86l-2.27,2.18v-.32c.47-.03,.88,.05,1.24,.24,.36,.19,.63,.46,.83,.82s.3,.76,.3,1.21-.1,.87-.31,1.22-.49,.63-.84,.83c-.35,.2-.75,.3-1.2,.3Z"/><path class="c" d="M286.44,123.45c-.47,0-.88-.11-1.25-.32-.37-.21-.65-.5-.87-.86-.21-.37-.32-.78-.32-1.25v-2.64c0-.47,.11-.88,.32-1.25,.21-.37,.5-.66,.87-.87,.36-.21,.78-.31,1.25-.31s.88,.1,1.25,.31c.37,.21,.66,.5,.87,.87,.21,.37,.31,.78,.31,1.25v2.64c0,.47-.1,.88-.31,1.25-.21,.36-.5,.65-.87,.86-.37,.21-.78,.32-1.25,.32Zm0-.86c.28,0,.54-.07,.77-.21,.23-.14,.41-.32,.55-.55,.14-.23,.21-.49,.21-.77v-2.74c0-.28-.07-.54-.21-.77-.14-.23-.32-.41-.55-.55-.23-.14-.49-.21-.77-.21s-.54,.07-.77,.21-.42,.32-.55,.55c-.14,.23-.2,.49-.2,.77v2.74c0,.28,.07,.54,.2,.77,.14,.23,.32,.42,.55,.55s.49,.21,.77,.21Z"/><path class="c" d="M237.48,135.3l2.41-7.2h1.24l2.41,7.2h-.92l-2.25-6.68h.28l-2.24,6.68h-.92Zm1.16-1.68v-.83h3.74v.83h-3.74Z"/><path class="c" d="M246.56,135.45c-.5,0-.94-.13-1.29-.38-.36-.25-.64-.59-.83-1.02s-.29-.92-.29-1.46,.1-1.03,.29-1.46,.47-.77,.83-1.02c.36-.25,.79-.37,1.29-.37s.94,.12,1.28,.37c.35,.25,.61,.58,.79,1.01,.18,.43,.27,.92,.27,1.46s-.09,1.02-.27,1.45c-.18,.43-.44,.77-.79,1.03s-.77,.38-1.28,.38Zm.11-.82c.36,0,.66-.09,.9-.26s.41-.42,.52-.72c.11-.31,.17-.66,.17-1.05s-.06-.75-.17-1.06c-.11-.3-.28-.54-.51-.71-.23-.17-.52-.26-.88-.26s-.67,.09-.91,.27-.42,.42-.53,.73-.17,.65-.17,1.03,.06,.73,.17,1.04c.12,.31,.29,.55,.53,.73,.23,.18,.53,.27,.88,.27Zm1.58,.67v-3.97h-.1v-3.23h.89v7.2h-.79Z"/><path class="c" d="M252.57,135.45c-.5,0-.94-.13-1.29-.38-.36-.25-.64-.59-.83-1.02s-.29-.92-.29-1.46,.1-1.03,.29-1.46,.47-.77,.83-1.02c.36-.25,.79-.37,1.29-.37s.94,.12,1.28,.37c.35,.25,.61,.58,.79,1.01,.18,.43,.27,.92,.27,1.46s-.09,1.02-.27,1.45c-.18,.43-.44,.77-.79,1.03s-.77,.38-1.28,.38Zm.11-.82c.36,0,.66-.09,.9-.26s.41-.42,.52-.72c.11-.31,.17-.66,.17-1.05s-.06-.75-.17-1.06c-.11-.3-.28-.54-.51-.71-.23-.17-.52-.26-.88-.26s-.67,.09-.91,.27-.42,.42-.53,.73-.17,.65-.17,1.03,.06,.73,.17,1.04c.12,.31,.29,.55,.53,.73,.23,.18,.53,.27,.88,.27Zm1.58,.67v-3.97h-.1v-3.23h.89v7.2h-.79Z"/><path class="c" d="M256.45,135.3v-5.4h.79v1.31l-.13-.17c.06-.17,.15-.32,.25-.46,.1-.14,.22-.26,.34-.35,.14-.11,.3-.2,.47-.26,.18-.06,.36-.1,.54-.11,.18-.01,.36,0,.52,.04v.83c-.19-.05-.39-.06-.62-.04-.22,.02-.43,.11-.62,.25-.17,.12-.31,.27-.4,.45s-.16,.37-.2,.57c-.04,.21-.06,.42-.06,.63v2.71h-.89Z"/><path class="c" d="M262.43,135.45c-.53,0-.99-.12-1.39-.35-.39-.24-.7-.56-.92-.99-.22-.42-.33-.91-.33-1.48s.11-1.1,.32-1.53,.52-.77,.91-1c.39-.24,.84-.35,1.37-.35s1.01,.12,1.39,.38,.67,.61,.86,1.07c.19,.46,.27,1.02,.25,1.66h-.9v-.32c0-.66-.14-1.16-.4-1.49-.26-.33-.65-.49-1.16-.49-.55,0-.97,.18-1.25,.53-.29,.35-.43,.86-.43,1.52s.14,1.13,.43,1.48c.29,.35,.69,.52,1.22,.52,.36,0,.67-.08,.93-.25,.26-.16,.47-.4,.62-.7l.86,.29c-.21,.48-.53,.85-.95,1.11-.42,.26-.89,.39-1.42,.39Zm-2-2.6v-.71h3.99v.71h-3.99Z"/><path class="c" d="M268.03,135.44c-.64,0-1.17-.14-1.58-.42-.41-.28-.66-.68-.76-1.18l.91-.15c.07,.29,.24,.53,.51,.7,.26,.17,.59,.26,.98,.26s.66-.08,.87-.23,.32-.36,.32-.62c0-.15-.04-.28-.11-.37-.07-.09-.21-.18-.43-.27-.22-.08-.55-.18-.99-.3-.48-.13-.85-.26-1.12-.39s-.47-.29-.58-.48c-.12-.18-.17-.4-.17-.65,0-.32,.09-.59,.26-.83,.17-.24,.42-.42,.73-.55,.31-.13,.67-.19,1.09-.19s.78,.06,1.1,.19c.32,.13,.58,.31,.78,.55s.32,.52,.35,.83l-.91,.17c-.04-.29-.18-.52-.42-.69-.24-.17-.54-.25-.91-.26-.35-.01-.63,.05-.85,.18-.22,.14-.33,.32-.33,.56,0,.13,.04,.24,.12,.33,.08,.09,.23,.18,.46,.26,.22,.08,.54,.18,.97,.29,.48,.12,.85,.25,1.13,.39,.27,.14,.47,.31,.59,.5,.12,.19,.18,.43,.18,.71,0,.52-.19,.93-.58,1.23-.38,.3-.91,.45-1.58,.45Z"/><path class="c" d="M273.34,135.44c-.64,0-1.17-.14-1.58-.42-.41-.28-.66-.68-.76-1.18l.91-.15c.07,.29,.24,.53,.51,.7,.26,.17,.59,.26,.98,.26s.66-.08,.87-.23,.32-.36,.32-.62c0-.15-.04-.28-.11-.37-.07-.09-.21-.18-.43-.27-.22-.08-.55-.18-.99-.3-.48-.13-.85-.26-1.12-.39s-.47-.29-.58-.48c-.12-.18-.17-.4-.17-.65,0-.32,.09-.59,.26-.83,.17-.24,.42-.42,.73-.55,.31-.13,.67-.19,1.09-.19s.78,.06,1.1,.19c.32,.13,.58,.31,.78,.55s.32,.52,.35,.83l-.91,.17c-.04-.29-.18-.52-.42-.69-.24-.17-.54-.25-.91-.26-.35-.01-.63,.05-.85,.18-.22,.14-.33,.32-.33,.56,0,.13,.04,.24,.12,.33,.08,.09,.23,.18,.46,.26,.22,.08,.54,.18,.97,.29,.48,.12,.85,.25,1.13,.39,.27,.14,.47,.31,.59,.5,.12,.19,.18,.43,.18,.71,0,.52-.19,.93-.58,1.23-.38,.3-.91,.45-1.58,.45Z"/><path class="c" d="M277,134.55v-.98h.98v.98h-.98Zm0-2.92v-.98h.98v.98h-.98Z"/><path class="c" d="M279.24,135.3l2.41-7.2h1.24l2.41,7.2h-.92l-2.25-6.68h.28l-2.24,6.68h-.92Zm1.16-1.68v-.83h3.74v.83h-3.74Z"/><path class="c" d="M286.3,135.3v-7.35h.89v7.35h-.89Z"/><path class="c" d="M288.79,128.94v-.92h.89v.92h-.89Zm0,6.36v-5.4h.89v5.4h-.89Z"/><path class="c" d="M293.45,135.45c-.55,0-1.01-.12-1.39-.37-.38-.25-.67-.58-.87-1.01-.2-.43-.3-.92-.31-1.47,0-.56,.11-1.06,.32-1.49s.5-.76,.88-1c.38-.24,.85-.36,1.39-.36,.57,0,1.06,.14,1.47,.42,.41,.28,.69,.66,.83,1.15l-.88,.27c-.11-.31-.3-.56-.55-.73-.25-.17-.55-.26-.88-.26-.37,0-.67,.09-.92,.26-.24,.17-.42,.41-.53,.71-.12,.3-.18,.65-.18,1.04,0,.6,.15,1.08,.42,1.45,.27,.37,.68,.55,1.21,.55,.35,0,.65-.08,.88-.24,.23-.16,.41-.4,.53-.7l.9,.23c-.19,.5-.48,.89-.88,1.16s-.88,.4-1.44,.4Z"/><path class="c" d="M298.98,135.45c-.53,0-.99-.12-1.39-.35-.39-.24-.7-.56-.92-.99-.22-.42-.33-.91-.33-1.48s.11-1.1,.32-1.53,.52-.77,.91-1c.39-.24,.84-.35,1.37-.35s1.01,.12,1.39,.38,.67,.61,.86,1.07c.19,.46,.27,1.02,.25,1.66h-.9v-.32c0-.66-.14-1.16-.4-1.49-.26-.33-.65-.49-1.16-.49-.55,0-.97,.18-1.25,.53-.29,.35-.43,.86-.43,1.52s.14,1.13,.43,1.48c.29,.35,.69,.52,1.22,.52,.36,0,.67-.08,.93-.25,.26-.16,.47-.4,.62-.7l.86,.29c-.21,.48-.53,.85-.95,1.11-.42,.26-.89,.39-1.42,.39Zm-2-2.6v-.71h3.99v.71h-3.99Z"/></g><g><path class="c" d="M241.03,209.47c-.72,0-1.34-.16-1.85-.47-.51-.32-.91-.75-1.18-1.32-.28-.56-.41-1.22-.41-1.96s.14-1.4,.41-1.96c.27-.56,.67-1,1.18-1.32,.51-.31,1.13-.47,1.85-.47s1.34,.16,1.85,.47c.51,.32,.91,.75,1.18,1.32,.28,.56,.41,1.22,.41,1.96s-.14,1.4-.41,1.96c-.27,.56-.67,1-1.18,1.32-.52,.31-1.13,.47-1.85,.47Zm0-1.14c.48,0,.89-.1,1.21-.32,.32-.22,.56-.52,.73-.92,.16-.39,.24-.85,.24-1.38s-.08-.98-.24-1.37c-.16-.39-.4-.69-.73-.91-.32-.22-.72-.33-1.21-.33-.48,0-.88,.1-1.21,.32-.32,.22-.56,.52-.72,.91-.16,.39-.24,.85-.24,1.38s.08,.98,.24,1.37c.16,.39,.4,.69,.72,.91,.32,.22,.72,.33,1.21,.33Z"/><path class="c" d="M247.5,209.47c-.4,0-.73-.07-.99-.2-.26-.13-.47-.3-.62-.51-.15-.21-.27-.43-.34-.66-.07-.23-.12-.45-.14-.66-.02-.21-.03-.38-.03-.51v-3.02h1.22v2.6c0,.17,.01,.35,.04,.56,.02,.21,.08,.41,.16,.6,.08,.19,.21,.35,.38,.47s.4,.18,.68,.18c.15,0,.3-.02,.46-.07,.15-.05,.29-.14,.41-.26s.22-.29,.29-.5c.07-.21,.11-.48,.11-.81l.71,.3c0,.46-.09,.88-.27,1.25-.18,.37-.44,.67-.79,.89s-.77,.33-1.28,.33Zm1.77-.16v-1.67h-.15v-3.73h1.21v5.4h-1.06Z"/><path class="c" d="M251.13,204.86v-.95h3.77v.95h-3.77Zm3.77,4.46c-.36,.07-.71,.1-1.05,.09-.34,0-.65-.07-.92-.19-.27-.12-.48-.31-.62-.56-.12-.23-.19-.47-.2-.71s0-.52,0-.83v-4.7h1.2v4.62c0,.22,0,.41,0,.57,0,.16,.04,.3,.1,.4,.12,.2,.31,.31,.58,.33s.56,0,.9-.04v1.01Z"/><path class="c" d="M256.05,211.72v-7.8h1.06v3.79h.15v4.01h-1.21Zm2.6-2.25c-.53,0-.97-.12-1.33-.38s-.62-.59-.8-1.02-.27-.92-.27-1.45,.09-1.03,.27-1.46,.44-.77,.79-1.02c.35-.25,.78-.37,1.29-.37s.95,.12,1.33,.37c.38,.25,.67,.59,.87,1.02,.21,.43,.31,.92,.31,1.46s-.1,1.03-.3,1.46-.49,.77-.86,1.02-.8,.38-1.3,.38Zm-.18-1.08c.31,0,.57-.08,.77-.24,.2-.16,.35-.37,.45-.64,.1-.27,.15-.57,.15-.9s-.05-.62-.15-.89c-.1-.27-.25-.48-.46-.64s-.48-.24-.8-.24c-.31,0-.56,.07-.75,.22-.19,.15-.34,.35-.43,.62-.09,.27-.14,.57-.14,.93s.05,.66,.14,.92c.09,.27,.24,.47,.43,.62s.46,.22,.78,.22Z"/><path class="c" d="M264.25,209.47c-.4,0-.73-.07-.99-.2-.26-.13-.47-.3-.62-.51-.15-.21-.27-.43-.34-.66-.07-.23-.12-.45-.14-.66-.02-.21-.03-.38-.03-.51v-3.02h1.22v2.6c0,.17,.01,.35,.04,.56,.02,.21,.08,.41,.16,.6,.08,.19,.21,.35,.38,.47s.4,.18,.68,.18c.15,0,.3-.02,.46-.07,.15-.05,.29-.14,.41-.26s.22-.29,.29-.5c.07-.21,.11-.48,.11-.81l.71,.3c0,.46-.09,.88-.27,1.25-.18,.37-.44,.67-.79,.89s-.77,.33-1.28,.33Zm1.77-.16v-1.67h-.15v-3.73h1.21v5.4h-1.06Z"/><path class="c" d="M267.88,204.86v-.95h3.77v.95h-3.77Zm3.77,4.46c-.36,.07-.71,.1-1.05,.09-.34,0-.65-.07-.92-.19-.27-.12-.48-.31-.62-.56-.12-.23-.19-.47-.2-.71s0-.52,0-.83v-4.7h1.2v4.62c0,.22,0,.41,0,.57,0,.16,.04,.3,.1,.4,.12,.2,.31,.31,.58,.33s.56,0,.9-.04v1.01Z"/><path class="c" d="M274.61,209.31v-1.05l3.08-2.75c.24-.21,.41-.42,.5-.61,.09-.19,.14-.37,.14-.55,0-.24-.05-.45-.15-.64-.1-.19-.25-.34-.43-.45-.18-.11-.39-.17-.63-.17-.25,0-.47,.06-.66,.17-.19,.12-.34,.27-.45,.46-.11,.19-.16,.39-.15,.62h-1.24c0-.48,.11-.9,.32-1.25,.22-.36,.51-.63,.89-.83,.38-.2,.82-.29,1.31-.29,.46,0,.87,.1,1.24,.31,.37,.21,.65,.49,.86,.85s.32,.78,.32,1.25c0,.34-.05,.63-.14,.87-.09,.23-.23,.45-.42,.65-.18,.2-.41,.42-.69,.65l-2.18,1.94-.11-.3h3.54v1.13h-4.96Z"/><path class="c" d="M281.16,208.67v-1.23h1.24v1.23h-1.24Zm.01-2.86v-1.24h1.23v1.24h-1.23Z"/><path class="c" d="M240.55,223.15c-.39-.45-.72-.96-1-1.51-.28-.56-.5-1.15-.64-1.77-.15-.62-.22-1.23-.21-1.85,0-.62,.06-1.24,.21-1.86,.15-.62,.37-1.2,.64-1.76,.28-.56,.62-1.06,1-1.51l.66,.5c-.39,.47-.72,.95-.97,1.46-.25,.5-.44,1.02-.56,1.55-.12,.53-.18,1.07-.19,1.62,0,.54,.07,1.08,.19,1.62,.12,.54,.31,1.05,.56,1.56,.25,.5,.57,.99,.96,1.45l-.66,.5Z"/><path class="c" d="M244.99,221.47c-.72,0-1.33-.16-1.83-.48-.5-.32-.88-.76-1.14-1.32-.26-.56-.39-1.22-.39-1.96s.13-1.39,.39-1.96,.64-1,1.14-1.32,1.11-.47,1.83-.47c.83,0,1.52,.21,2.06,.63,.54,.42,.91,.99,1.11,1.71l-.91,.24c-.15-.54-.41-.96-.79-1.27-.38-.31-.87-.46-1.48-.46-.54,0-.98,.12-1.34,.37-.36,.24-.62,.58-.81,1.02-.18,.43-.27,.94-.27,1.52,0,.57,.08,1.08,.26,1.51,.18,.44,.45,.78,.81,1.02,.36,.25,.81,.37,1.34,.37,.61,0,1.1-.16,1.48-.47,.38-.31,.64-.73,.79-1.27l.91,.24c-.2,.71-.57,1.28-1.11,1.71-.54,.42-1.22,.64-2.06,.64Z"/><path class="c" d="M249.26,221.32v-7.2h.8v3.98h.1v3.22h-.9Zm3.85,0v-2.71c0-.26-.02-.5-.07-.74-.04-.24-.12-.45-.24-.64-.11-.19-.26-.34-.45-.45-.19-.11-.43-.17-.71-.17-.22,0-.43,.04-.61,.11-.18,.07-.34,.19-.47,.34s-.23,.35-.3,.58c-.07,.23-.11,.5-.11,.82l-.58-.18c0-.52,.09-.97,.28-1.35,.19-.38,.45-.66,.79-.87,.34-.2,.74-.3,1.21-.3,.35,0,.65,.05,.9,.17,.25,.11,.45,.26,.61,.44,.16,.18,.29,.38,.39,.61,.09,.22,.16,.45,.2,.68s.06,.45,.06,.66v2.99h-.9Z"/><path class="c" d="M256.84,221.47c-.4,0-.74-.07-1.01-.22s-.48-.34-.62-.59-.21-.51-.21-.8,.05-.53,.16-.74c.11-.21,.26-.38,.46-.52,.2-.14,.43-.25,.71-.33,.26-.07,.54-.13,.86-.18s.64-.1,.97-.14c.33-.04,.63-.08,.92-.12l-.32,.19c0-.48-.09-.83-.29-1.07-.2-.23-.55-.34-1.04-.34-.33,0-.61,.07-.86,.22-.25,.15-.42,.39-.52,.72l-.85-.25c.13-.47,.38-.84,.76-1.11,.37-.27,.86-.41,1.47-.41,.49,0,.91,.09,1.26,.26,.35,.17,.6,.44,.76,.79,.08,.17,.12,.35,.15,.54,.02,.19,.03,.4,.03,.61v3.34h-.79v-1.29l.18,.12c-.2,.44-.49,.77-.85,.99-.37,.22-.81,.33-1.33,.33Zm.13-.75c.32,0,.6-.06,.83-.17,.24-.12,.42-.27,.57-.46,.14-.19,.24-.39,.28-.62,.05-.17,.08-.35,.08-.56s0-.36,0-.47l.31,.13c-.29,.04-.58,.08-.86,.12-.28,.04-.54,.08-.79,.12-.25,.04-.47,.09-.67,.15-.15,.05-.28,.11-.41,.18-.13,.07-.23,.17-.31,.28s-.12,.26-.12,.43c0,.15,.04,.29,.11,.42,.08,.13,.19,.24,.35,.33,.16,.08,.37,.12,.62,.12Z"/><path class="c" d="M260.93,221.32v-5.4h.8v1.45h.1v3.96h-.9Zm3.85,0v-2.71c0-.26-.02-.5-.07-.74-.04-.24-.12-.45-.24-.64-.11-.19-.26-.34-.45-.45-.19-.11-.43-.17-.71-.17-.22,0-.43,.04-.61,.11-.18,.07-.34,.19-.47,.34s-.23,.35-.3,.58c-.07,.23-.11,.5-.11,.82l-.58-.18c0-.52,.09-.97,.28-1.35,.19-.38,.45-.66,.79-.87,.34-.2,.74-.3,1.21-.3,.35,0,.65,.05,.9,.17,.25,.11,.45,.26,.61,.44,.16,.18,.29,.38,.39,.61,.09,.22,.16,.45,.2,.68s.06,.45,.06,.66v2.99h-.9Z"/><path class="c" d="M269.1,221.47c-.5,0-.94-.13-1.29-.38-.36-.25-.64-.59-.83-1.02s-.29-.92-.29-1.46,.1-1.03,.29-1.46,.47-.77,.83-1.02c.36-.25,.79-.37,1.29-.37s.94,.12,1.28,.37c.35,.25,.61,.58,.79,1.01,.18,.43,.27,.92,.27,1.46s-.09,1.02-.27,1.45c-.18,.43-.44,.77-.79,1.03s-.77,.38-1.28,.38Zm.06,2.4c-.28,0-.56-.04-.83-.13-.27-.09-.52-.22-.74-.39s-.41-.4-.56-.66l.82-.43c.13,.26,.32,.46,.57,.58s.5,.18,.76,.18c.34,0,.63-.06,.86-.19s.39-.31,.5-.56c.11-.25,.16-.55,.16-.92v-1.48h.1v-3.95h.79v5.44c0,.15,0,.29-.01,.42,0,.14-.03,.27-.05,.41-.07,.38-.21,.7-.42,.95-.21,.25-.47,.43-.8,.55-.33,.12-.7,.18-1.13,.18Zm.04-3.21c.36,0,.66-.09,.9-.26s.41-.42,.52-.72c.11-.31,.17-.66,.17-1.05s-.06-.75-.17-1.06c-.11-.3-.28-.54-.51-.71-.23-.17-.52-.26-.88-.26s-.67,.09-.91,.27-.42,.42-.53,.73-.17,.65-.17,1.03,.06,.73,.17,1.04c.12,.31,.29,.55,.53,.73,.23,.18,.53,.27,.88,.27Z"/><path class="c" d="M275.32,221.47c-.53,0-.99-.12-1.39-.35-.39-.24-.7-.56-.92-.99-.22-.42-.33-.91-.33-1.48s.11-1.1,.32-1.53,.52-.77,.91-1c.39-.24,.84-.35,1.37-.35s1.01,.12,1.39,.38,.67,.61,.86,1.07c.19,.46,.27,1.02,.25,1.66h-.9v-.32c0-.66-.14-1.16-.4-1.49-.26-.33-.65-.49-1.16-.49-.55,0-.97,.18-1.25,.53-.29,.35-.43,.86-.43,1.52s.14,1.13,.43,1.48c.29,.35,.69,.52,1.22,.52,.36,0,.67-.08,.93-.25,.26-.16,.47-.4,.62-.7l.86,.29c-.21,.48-.53,.85-.95,1.11-.42,.26-.89,.39-1.42,.39Zm-2-2.6v-.71h3.99v.71h-3.99Z"/><path class="c" d="M278.21,222.64c.39-.46,.71-.94,.96-1.45,.25-.51,.44-1.03,.56-1.56,.12-.54,.18-1.07,.19-1.62,0-.55-.06-1.09-.18-1.62-.12-.53-.31-1.05-.56-1.55-.25-.5-.57-.99-.97-1.46l.66-.5c.39,.45,.72,.95,1,1.51,.28,.56,.5,1.15,.65,1.76,.15,.62,.22,1.24,.21,1.86,0,.62-.07,1.23-.21,1.85-.15,.62-.37,1.21-.65,1.77-.28,.56-.62,1.06-1,1.51l-.66-.5Z"/><path class="c" d="M237.48,233.32l2.41-7.2h1.24l2.41,7.2h-.92l-2.25-6.68h.28l-2.24,6.68h-.92Zm1.16-1.68v-.83h3.74v.83h-3.74Z"/><path class="c" d="M244.44,233.32v-5.4h.79v1.45h.1v3.96h-.89Zm3.23,0v-3.42c0-.41-.1-.74-.31-.97-.21-.24-.5-.35-.85-.35s-.63,.12-.85,.36-.33,.56-.33,.96l-.47-.28c0-.35,.08-.66,.25-.94,.17-.28,.39-.49,.68-.65,.29-.16,.61-.24,.98-.24s.68,.08,.95,.23c.27,.15,.48,.37,.62,.66,.15,.29,.22,.62,.22,1.02v3.63h-.89Zm3.23,0v-3.46c0-.4-.1-.72-.32-.95-.22-.23-.49-.34-.84-.34-.2,0-.39,.05-.57,.14-.18,.09-.33,.24-.44,.43-.11,.2-.17,.44-.17,.75l-.47-.19c0-.38,.07-.72,.24-1.01,.17-.29,.39-.51,.68-.67,.29-.16,.61-.24,.97-.24,.56,0,1.01,.17,1.33,.51,.32,.34,.48,.8,.48,1.38v3.65h-.89Z"/><path class="c" d="M255.34,233.47c-.54,0-1-.12-1.39-.37-.39-.24-.69-.58-.9-1.01-.21-.43-.31-.92-.31-1.48s.11-1.06,.32-1.49c.21-.43,.52-.76,.91-1s.85-.36,1.38-.36,1,.12,1.39,.36c.39,.24,.69,.58,.9,1,.21,.43,.31,.92,.31,1.48s-.11,1.06-.32,1.49c-.21,.43-.51,.76-.9,1-.39,.24-.85,.36-1.39,.36Zm0-.85c.56,0,.98-.19,1.25-.56s.41-.86,.41-1.45-.14-1.1-.42-1.46c-.28-.36-.69-.54-1.25-.54-.38,0-.69,.08-.93,.25-.24,.17-.43,.41-.54,.71-.12,.3-.18,.65-.18,1.04,0,.61,.14,1.09,.42,1.46,.28,.37,.69,.55,1.24,.55Z"/><path class="c" d="M261.1,233.46c-.35,0-.64-.05-.89-.17-.25-.11-.45-.26-.62-.44-.16-.18-.29-.39-.38-.61-.09-.22-.16-.45-.2-.68s-.06-.45-.06-.66v-2.99h.9v2.71c0,.25,.02,.5,.07,.74,.05,.24,.12,.45,.24,.64,.11,.19,.26,.34,.45,.45,.19,.11,.42,.17,.71,.17,.22,0,.43-.04,.61-.12,.18-.08,.34-.19,.47-.34,.13-.15,.23-.34,.3-.58,.07-.23,.11-.5,.11-.81l.58,.18c0,.52-.09,.97-.28,1.34-.19,.38-.45,.67-.8,.87-.34,.2-.74,.3-1.21,.3Zm1.8-.14v-1.45h-.1v-3.96h.89v5.4h-.79Z"/><path class="c" d="M265.09,233.32v-5.4h.8v1.45h.1v3.96h-.9Zm3.85,0v-2.71c0-.26-.02-.5-.07-.74-.04-.24-.12-.45-.24-.64-.11-.19-.26-.34-.45-.45-.19-.11-.43-.17-.71-.17-.22,0-.43,.04-.61,.11-.18,.07-.34,.19-.47,.34s-.23,.35-.3,.58c-.07,.23-.11,.5-.11,.82l-.58-.18c0-.52,.09-.97,.28-1.35,.19-.38,.45-.66,.79-.87,.34-.2,.74-.3,1.21-.3,.35,0,.65,.05,.9,.17,.25,.11,.45,.26,.61,.44,.16,.18,.29,.38,.39,.61,.09,.22,.16,.45,.2,.68s.06,.45,.06,.66v2.99h-.9Z"/><path class="c" d="M270.54,228.65v-.74h3.62v.74h-3.62Zm3.62,4.67c-.32,.06-.64,.09-.95,.08s-.59-.07-.83-.19c-.24-.12-.43-.29-.55-.54-.11-.21-.16-.43-.17-.65,0-.22-.01-.47-.01-.74v-4.86h.89v4.82c0,.22,0,.41,0,.57,0,.16,.04,.29,.1,.4,.12,.21,.31,.34,.57,.38,.26,.04,.58,.03,.95-.03v.76Z"/><path class="c" d="M275.65,232.57v-.98h.98v.98h-.98Zm0-2.92v-.98h.98v.98h-.98Z"/><path class="c" d="M278.19,233.31v-.8l3.2-2.88c.27-.24,.45-.47,.54-.68s.14-.44,.14-.66c0-.28-.06-.53-.19-.75-.13-.22-.3-.4-.52-.53-.22-.13-.47-.2-.74-.2s-.54,.07-.76,.2c-.22,.14-.4,.31-.53,.54-.13,.22-.19,.47-.19,.73h-.91c0-.45,.1-.85,.31-1.2s.5-.62,.86-.82c.36-.2,.77-.3,1.23-.3s.85,.1,1.2,.31c.35,.21,.63,.48,.84,.84,.21,.35,.31,.75,.31,1.19,0,.31-.04,.58-.12,.81-.08,.23-.2,.44-.36,.64-.16,.2-.37,.4-.61,.62l-2.66,2.39-.12-.3h3.87v.85h-4.79Z"/><path class="c" d="M286.6,233.47c-.47,0-.88-.11-1.25-.32-.37-.21-.65-.5-.87-.86-.21-.37-.32-.78-.32-1.25v-2.64c0-.47,.11-.88,.32-1.25,.21-.37,.5-.66,.87-.87,.36-.21,.78-.31,1.25-.31s.88,.1,1.25,.31c.37,.21,.66,.5,.87,.87,.21,.37,.31,.78,.31,1.25v2.64c0,.47-.1,.88-.31,1.25-.21,.36-.5,.65-.87,.86-.37,.21-.78,.32-1.25,.32Zm0-.86c.28,0,.54-.07,.77-.21,.23-.14,.41-.32,.55-.55,.14-.23,.21-.49,.21-.77v-2.74c0-.28-.07-.54-.21-.77-.14-.23-.32-.41-.55-.55-.23-.14-.49-.21-.77-.21s-.54,.07-.77,.21-.42,.32-.55,.55c-.14,.23-.2,.49-.2,.77v2.74c0,.28,.07,.54,.2,.77,.14,.23,.32,.42,.55,.55s.49,.21,.77,.21Z"/><path class="c" d="M237.48,245.32l2.41-7.2h1.24l2.41,7.2h-.92l-2.25-6.68h.28l-2.24,6.68h-.92Zm1.16-1.68v-.83h3.74v.83h-3.74Z"/><path class="c" d="M246.56,245.47c-.5,0-.94-.13-1.29-.38-.36-.25-.64-.59-.83-1.02s-.29-.92-.29-1.46,.1-1.03,.29-1.46,.47-.77,.83-1.02c.36-.25,.79-.37,1.29-.37s.94,.12,1.28,.37c.35,.25,.61,.58,.79,1.01,.18,.43,.27,.92,.27,1.46s-.09,1.02-.27,1.45c-.18,.43-.44,.77-.79,1.03s-.77,.38-1.28,.38Zm.11-.82c.36,0,.66-.09,.9-.26s.41-.42,.52-.72c.11-.31,.17-.66,.17-1.05s-.06-.75-.17-1.06c-.11-.3-.28-.54-.51-.71-.23-.17-.52-.26-.88-.26s-.67,.09-.91,.27-.42,.42-.53,.73-.17,.65-.17,1.03,.06,.73,.17,1.04c.12,.31,.29,.55,.53,.73,.23,.18,.53,.27,.88,.27Zm1.58,.67v-3.97h-.1v-3.23h.89v7.2h-.79Z"/><path class="c" d="M252.57,245.47c-.5,0-.94-.13-1.29-.38-.36-.25-.64-.59-.83-1.02s-.29-.92-.29-1.46,.1-1.03,.29-1.46,.47-.77,.83-1.02c.36-.25,.79-.37,1.29-.37s.94,.12,1.28,.37c.35,.25,.61,.58,.79,1.01,.18,.43,.27,.92,.27,1.46s-.09,1.02-.27,1.45c-.18,.43-.44,.77-.79,1.03s-.77,.38-1.28,.38Zm.11-.82c.36,0,.66-.09,.9-.26s.41-.42,.52-.72c.11-.31,.17-.66,.17-1.05s-.06-.75-.17-1.06c-.11-.3-.28-.54-.51-.71-.23-.17-.52-.26-.88-.26s-.67,.09-.91,.27-.42,.42-.53,.73-.17,.65-.17,1.03,.06,.73,.17,1.04c.12,.31,.29,.55,.53,.73,.23,.18,.53,.27,.88,.27Zm1.58,.67v-3.97h-.1v-3.23h.89v7.2h-.79Z"/><path class="c" d="M256.45,245.32v-5.4h.79v1.31l-.13-.17c.06-.17,.15-.32,.25-.46,.1-.14,.22-.26,.34-.35,.14-.11,.3-.2,.47-.26,.18-.06,.36-.1,.54-.11,.18-.01,.36,0,.52,.04v.83c-.19-.05-.39-.06-.62-.04-.22,.02-.43,.11-.62,.25-.17,.12-.31,.27-.4,.45s-.16,.37-.2,.57c-.04,.21-.06,.42-.06,.63v2.71h-.89Z"/><path class="c" d="M262.43,245.47c-.53,0-.99-.12-1.39-.35-.39-.24-.7-.56-.92-.99-.22-.42-.33-.91-.33-1.48s.11-1.1,.32-1.53,.52-.77,.91-1c.39-.24,.84-.35,1.37-.35s1.01,.12,1.39,.38,.67,.61,.86,1.07c.19,.46,.27,1.02,.25,1.66h-.9v-.32c0-.66-.14-1.16-.4-1.49-.26-.33-.65-.49-1.16-.49-.55,0-.97,.18-1.25,.53-.29,.35-.43,.86-.43,1.52s.14,1.13,.43,1.48c.29,.35,.69,.52,1.22,.52,.36,0,.67-.08,.93-.25,.26-.16,.47-.4,.62-.7l.86,.29c-.21,.48-.53,.85-.95,1.11-.42,.26-.89,.39-1.42,.39Zm-2-2.6v-.71h3.99v.71h-3.99Z"/><path class="c" d="M268.03,245.46c-.64,0-1.17-.14-1.58-.42-.41-.28-.66-.68-.76-1.18l.91-.15c.07,.29,.24,.53,.51,.7,.26,.17,.59,.26,.98,.26s.66-.08,.87-.23,.32-.36,.32-.62c0-.15-.04-.28-.11-.37-.07-.09-.21-.18-.43-.27-.22-.08-.55-.18-.99-.3-.48-.13-.85-.26-1.12-.39s-.47-.29-.58-.48c-.12-.18-.17-.4-.17-.65,0-.32,.09-.59,.26-.83,.17-.24,.42-.42,.73-.55,.31-.13,.67-.19,1.09-.19s.78,.06,1.1,.19c.32,.13,.58,.31,.78,.55s.32,.52,.35,.83l-.91,.17c-.04-.29-.18-.52-.42-.69-.24-.17-.54-.25-.91-.26-.35-.01-.63,.05-.85,.18-.22,.14-.33,.32-.33,.56,0,.13,.04,.24,.12,.33,.08,.09,.23,.18,.46,.26,.22,.08,.54,.18,.97,.29,.48,.12,.85,.25,1.13,.39,.27,.14,.47,.31,.59,.5,.12,.19,.18,.43,.18,.71,0,.52-.19,.93-.58,1.23-.38,.3-.91,.45-1.58,.45Z"/><path class="c" d="M273.34,245.46c-.64,0-1.17-.14-1.58-.42-.41-.28-.66-.68-.76-1.18l.91-.15c.07,.29,.24,.53,.51,.7,.26,.17,.59,.26,.98,.26s.66-.08,.87-.23,.32-.36,.32-.62c0-.15-.04-.28-.11-.37-.07-.09-.21-.18-.43-.27-.22-.08-.55-.18-.99-.3-.48-.13-.85-.26-1.12-.39s-.47-.29-.58-.48c-.12-.18-.17-.4-.17-.65,0-.32,.09-.59,.26-.83,.17-.24,.42-.42,.73-.55,.31-.13,.67-.19,1.09-.19s.78,.06,1.1,.19c.32,.13,.58,.31,.78,.55s.32,.52,.35,.83l-.91,.17c-.04-.29-.18-.52-.42-.69-.24-.17-.54-.25-.91-.26-.35-.01-.63,.05-.85,.18-.22,.14-.33,.32-.33,.56,0,.13,.04,.24,.12,.33,.08,.09,.23,.18,.46,.26,.22,.08,.54,.18,.97,.29,.48,.12,.85,.25,1.13,.39,.27,.14,.47,.31,.59,.5,.12,.19,.18,.43,.18,.71,0,.52-.19,.93-.58,1.23-.38,.3-.91,.45-1.58,.45Z"/><path class="c" d="M277,244.57v-.98h.98v.98h-.98Zm0-2.92v-.98h.98v.98h-.98Z"/><path class="c" d="M279.74,245.32v-7.2h2.8c.43,0,.8,.09,1.1,.27s.54,.41,.7,.7c.16,.29,.24,.6,.24,.93,0,.39-.1,.73-.3,1.02-.2,.29-.47,.5-.81,.61v-.25c.45,.12,.81,.35,1.07,.68s.38,.72,.38,1.18c0,.42-.08,.78-.26,1.09s-.42,.54-.74,.71-.7,.25-1.14,.25h-3.05Zm.9-4.2h1.9c.21,0,.41-.05,.58-.14,.17-.09,.31-.22,.41-.39,.1-.17,.15-.36,.15-.58,0-.31-.1-.56-.31-.76-.21-.2-.49-.29-.83-.29h-1.9v2.17Zm0,3.35h1.99c.27,0,.5-.05,.71-.15,.21-.1,.38-.24,.5-.42,.12-.18,.18-.4,.18-.65s-.05-.46-.16-.65-.26-.35-.46-.46c-.19-.12-.42-.17-.68-.17h-2.08v2.51Z"/><path class="c" d="M288.23,245.47c-.54,0-1-.12-1.39-.37-.39-.24-.69-.58-.9-1.01-.21-.43-.31-.92-.31-1.48s.11-1.06,.32-1.49c.21-.43,.52-.76,.91-1s.85-.36,1.38-.36,1,.12,1.39,.36c.39,.24,.69,.58,.9,1,.21,.43,.31,.92,.31,1.48s-.11,1.06-.32,1.49c-.21,.43-.51,.76-.9,1-.39,.24-.85,.36-1.39,.36Zm0-.85c.56,0,.98-.19,1.25-.56s.41-.86,.41-1.45-.14-1.1-.42-1.46c-.28-.36-.69-.54-1.25-.54-.38,0-.69,.08-.93,.25-.24,.17-.43,.41-.54,.71-.12,.3-.18,.65-.18,1.04,0,.61,.14,1.09,.42,1.46,.28,.37,.69,.55,1.24,.55Z"/><path class="c" d="M291.93,245.32v-7.2h.89v3.23h-.1v3.97h-.79Zm2.48,.15c-.51,0-.93-.13-1.28-.38s-.61-.59-.79-1.03c-.18-.43-.27-.92-.27-1.45s.09-1.03,.27-1.46c.18-.43,.44-.77,.79-1.01,.35-.25,.78-.37,1.28-.37s.93,.12,1.29,.37c.36,.25,.64,.59,.83,1.02s.29,.92,.29,1.46-.1,1.03-.29,1.46-.47,.77-.83,1.02-.79,.38-1.3,.38Zm-.11-.82c.36,0,.65-.09,.88-.27,.23-.18,.41-.42,.53-.73,.12-.31,.17-.65,.17-1.04s-.06-.72-.17-1.03-.29-.55-.53-.73-.54-.27-.91-.27-.64,.09-.87,.26c-.23,.17-.4,.41-.51,.71-.11,.31-.17,.66-.17,1.06s.06,.74,.17,1.05c.11,.31,.28,.55,.52,.72s.53,.26,.9,.26Z"/></g><g><path class="c" d="M162.84,57.48v-7.2h1.21v7.2h-1.21Z"/><path class="c" d="M165.53,57.48v-5.4h1.07v1.68h.15v3.72h-1.22Zm3.74,0v-2.6c0-.17-.01-.36-.03-.57-.02-.21-.08-.41-.16-.6-.08-.19-.21-.35-.38-.47-.17-.12-.4-.18-.68-.18-.15,0-.3,.03-.46,.08-.15,.05-.29,.14-.41,.26-.12,.12-.22,.29-.29,.5-.07,.21-.11,.48-.11,.81l-.71-.3c0-.46,.09-.88,.27-1.25,.18-.37,.44-.67,.79-.89s.77-.33,1.28-.33c.4,0,.73,.07,.99,.2,.26,.13,.47,.3,.62,.51,.15,.21,.27,.43,.34,.66,.07,.23,.12,.45,.14,.66,.02,.21,.03,.38,.03,.51v3.01h-1.22Z"/><path class="c" d="M171.79,59.88v-7.8h1.06v3.79h.15v4.01h-1.21Zm2.6-2.25c-.53,0-.97-.12-1.33-.38s-.62-.59-.8-1.02-.27-.92-.27-1.45,.09-1.03,.27-1.46,.44-.77,.79-1.02c.35-.25,.78-.37,1.29-.37s.95,.12,1.33,.37c.38,.25,.67,.59,.87,1.02,.21,.43,.31,.92,.31,1.46s-.1,1.03-.3,1.46-.49,.77-.86,1.02-.8,.38-1.3,.38Zm-.18-1.08c.31,0,.57-.08,.77-.24,.2-.16,.35-.37,.45-.64,.1-.27,.15-.57,.15-.9s-.05-.62-.15-.89c-.1-.27-.25-.48-.46-.64s-.48-.24-.8-.24c-.31,0-.56,.07-.75,.22-.19,.15-.34,.35-.43,.62-.09,.27-.14,.57-.14,.93s.05,.66,.14,.92c.09,.27,.24,.47,.43,.62s.46,.22,.78,.22Z"/><path class="c" d="M179.98,57.64c-.4,0-.73-.07-.99-.2-.26-.13-.47-.3-.62-.51-.15-.21-.27-.43-.34-.66-.07-.23-.12-.45-.14-.66-.02-.21-.03-.38-.03-.51v-3.02h1.22v2.6c0,.17,.01,.35,.04,.56,.02,.21,.08,.41,.16,.6,.08,.19,.21,.35,.38,.47s.4,.18,.68,.18c.15,0,.3-.02,.46-.07,.15-.05,.29-.14,.41-.26s.22-.29,.29-.5c.07-.21,.11-.48,.11-.81l.71,.3c0,.46-.09,.88-.27,1.25-.18,.37-.44,.67-.79,.89s-.77,.33-1.28,.33Zm1.77-.16v-1.67h-.15v-3.73h1.21v5.4h-1.06Z"/><path class="c" d="M183.61,53.03v-.95h3.77v.95h-3.77Zm3.77,4.46c-.36,.07-.71,.1-1.05,.09-.34,0-.65-.07-.92-.19-.27-.12-.48-.31-.62-.56-.12-.23-.19-.47-.2-.71s0-.52,0-.83v-4.7h1.2v4.62c0,.22,0,.41,0,.57,0,.16,.04,.3,.1,.4,.12,.2,.31,.31,.58,.33s.56,0,.9-.04v1.01Z"/><path class="c" d="M190.63,57.63c-.67,0-1.21-.15-1.62-.45-.42-.3-.67-.72-.76-1.27l1.23-.19c.06,.27,.2,.48,.42,.63s.49,.23,.82,.23c.29,0,.51-.06,.67-.17,.16-.12,.24-.27,.24-.47,0-.12-.03-.22-.09-.3-.06-.07-.19-.15-.38-.22-.2-.07-.5-.16-.9-.27-.45-.12-.81-.25-1.08-.39-.27-.14-.46-.3-.58-.49-.12-.19-.17-.42-.17-.69,0-.34,.09-.63,.26-.88s.42-.44,.74-.58,.69-.2,1.12-.2,.79,.06,1.12,.19c.33,.13,.59,.32,.79,.56,.2,.24,.32,.52,.37,.84l-1.23,.22c-.03-.23-.13-.41-.31-.54-.18-.13-.42-.21-.71-.22-.28-.02-.51,.03-.68,.13-.17,.1-.26,.25-.26,.43,0,.1,.03,.19,.1,.27s.21,.15,.42,.22c.21,.07,.53,.16,.95,.27,.43,.11,.77,.24,1.03,.38,.26,.14,.45,.31,.56,.51,.11,.2,.17,.43,.17,.71,0,.54-.2,.97-.59,1.28-.4,.31-.94,.47-1.64,.47Z"/><path class="c" d="M194.36,56.83v-1.23h1.24v1.23h-1.24Zm.01-2.86v-1.24h1.23v1.24h-1.23Z"/><path class="c" d="M165.7,69.63c-.72,0-1.33-.16-1.83-.48-.5-.32-.88-.76-1.14-1.32-.26-.56-.39-1.22-.39-1.96s.13-1.39,.39-1.96,.64-1,1.14-1.32,1.11-.47,1.83-.47c.83,0,1.52,.21,2.06,.63,.54,.42,.91,.99,1.11,1.71l-.91,.24c-.15-.54-.41-.96-.79-1.27-.38-.31-.87-.46-1.48-.46-.54,0-.98,.12-1.34,.37-.36,.24-.62,.58-.81,1.02-.18,.43-.27,.94-.27,1.52,0,.57,.08,1.08,.26,1.51,.18,.44,.45,.78,.81,1.02,.36,.25,.81,.37,1.34,.37,.61,0,1.1-.16,1.48-.47,.38-.31,.64-.73,.79-1.27l.91,.24c-.2,.71-.57,1.28-1.11,1.71-.54,.42-1.22,.64-2.06,.64Z"/><path class="c" d="M172.27,69.63c-.54,0-1-.12-1.39-.37-.39-.24-.69-.58-.9-1.01-.21-.43-.31-.92-.31-1.48s.11-1.06,.32-1.49c.21-.43,.52-.76,.91-1s.85-.36,1.38-.36,1,.12,1.39,.36c.39,.24,.69,.58,.9,1,.21,.43,.31,.92,.31,1.48s-.11,1.06-.32,1.49c-.21,.43-.51,.76-.9,1-.39,.24-.85,.36-1.39,.36Zm0-.85c.56,0,.98-.19,1.25-.56s.41-.86,.41-1.45-.14-1.1-.42-1.46c-.28-.36-.69-.54-1.25-.54-.38,0-.69,.08-.93,.25-.24,.17-.43,.41-.54,.71-.12,.3-.18,.65-.18,1.04,0,.61,.14,1.09,.42,1.46,.28,.37,.69,.55,1.24,.55Z"/><path class="c" d="M176.07,63.12v-.92h.89v.92h-.89Zm0,6.36v-5.4h.89v5.4h-.89Z"/><path class="c" d="M178.46,69.48v-5.4h.8v1.45h.1v3.96h-.9Zm3.85,0v-2.71c0-.26-.02-.5-.07-.74-.04-.24-.12-.45-.24-.64-.11-.19-.26-.34-.45-.45-.19-.11-.43-.17-.71-.17-.22,0-.43,.04-.61,.11-.18,.07-.34,.19-.47,.34s-.23,.35-.3,.58c-.07,.23-.11,.5-.11,.82l-.58-.18c0-.52,.09-.97,.28-1.35,.19-.38,.45-.66,.79-.87,.34-.2,.74-.3,1.21-.3,.35,0,.65,.05,.9,.17,.25,.11,.45,.26,.61,.44,.16,.18,.29,.38,.39,.61,.09,.22,.16,.45,.2,.68s.06,.45,.06,.66v2.99h-.9Z"/><path class="c" d="M184.61,69.48v-7.35h.89v7.35h-.89Z"/><path class="c" d="M187,69.48v-7.2h2.22c.07,0,.2,0,.38,0,.18,0,.36,.02,.53,.04,.56,.07,1.02,.28,1.4,.61,.38,.33,.66,.75,.85,1.26,.19,.51,.29,1.07,.29,1.69s-.1,1.17-.29,1.68c-.19,.51-.47,.93-.85,1.26s-.84,.53-1.4,.61c-.17,.02-.34,.03-.53,.04-.19,0-.31,0-.38,0h-2.22Zm.92-.85h1.3c.13,0,.27,0,.42-.01,.16,0,.29-.02,.41-.04,.39-.07,.71-.24,.96-.5,.24-.26,.42-.58,.54-.96,.11-.38,.17-.8,.17-1.24s-.06-.87-.17-1.26c-.11-.38-.29-.7-.54-.95-.24-.25-.56-.42-.95-.49-.12-.02-.25-.04-.42-.04s-.3,0-.42,0h-1.3v5.5Z"/><path class="c" d="M194.21,68.73v-.98h.98v.98h-.98Zm0-2.92v-.98h.98v.98h-.98Z"/><path class="c" d="M198.2,69.48v-6.21l-1.36,.82v-1l1.36-.81h.91v7.2h-.91Z"/><path class="c" d="M202.26,69.48v-6.21l-1.36,.82v-1l1.36-.81h.91v7.2h-.91Z"/><path class="c" d="M206.31,69.48v-6.21l-1.36,.82v-1l1.36-.81h.91v7.2h-.91Z"/><path class="c" d="M210.37,69.48v-6.21l-1.36,.82v-1l1.36-.81h.91v7.2h-.91Z"/></g><g><path class="c" d="M48.98,37.84c-.56,0-1.05-.12-1.47-.35-.43-.23-.76-.55-1-.97-.24-.42-.36-.9-.36-1.46v-4.57h.9v4.5c0,.34,.06,.64,.17,.89s.27,.46,.46,.63c.19,.17,.4,.29,.63,.37s.46,.12,.68,.12,.46-.04,.69-.12c.23-.08,.44-.21,.63-.37s.34-.37,.45-.63c.11-.25,.17-.55,.17-.88v-4.5h.9v4.58c0,.56-.12,1.04-.36,1.46-.24,.42-.58,.74-1,.97-.43,.23-.92,.35-1.47,.35Z"/><path class="c" d="M55.07,37.69v-6.36h-2.46v-.84h5.8v.84h-2.46v6.36h-.89Z"/><path class="c" d="M57.92,37.69l2.07-2.73-2.02-2.67h1.06l1.48,1.98,1.47-1.98h1.06l-2.02,2.67,2.07,2.73h-1.06l-1.51-2.04-1.52,2.04h-1.07Z"/><path class="c" d="M66.84,37.84c-.72,0-1.33-.16-1.83-.48-.5-.32-.88-.76-1.14-1.32-.26-.56-.39-1.22-.39-1.96s.13-1.39,.39-1.96,.64-1,1.14-1.32,1.11-.47,1.83-.47,1.33,.16,1.83,.47,.88,.76,1.14,1.32,.39,1.21,.39,1.96-.13,1.39-.39,1.96c-.26,.56-.64,1-1.14,1.32-.5,.32-1.11,.48-1.83,.48Zm0-.85c.54,0,.98-.12,1.34-.36,.36-.25,.63-.59,.8-1.02,.18-.44,.27-.94,.27-1.51s-.09-1.08-.27-1.52c-.18-.43-.45-.77-.8-1.01-.36-.24-.81-.37-1.34-.37-.54,0-.98,.12-1.34,.36-.35,.24-.62,.58-.8,1.02-.18,.44-.27,.94-.27,1.52,0,.57,.08,1.08,.26,1.51,.18,.43,.45,.77,.81,1.02s.81,.37,1.34,.37Z"/><path class="c" d="M48.27,49.84c-.37,0-.71-.08-1.03-.23-.32-.15-.59-.36-.82-.63s-.39-.58-.49-.93l1.16-.31c.05,.19,.13,.36,.26,.5,.12,.14,.27,.25,.44,.33,.17,.08,.34,.12,.52,.12,.23,0,.45-.06,.64-.17s.35-.27,.46-.46c.11-.19,.17-.4,.17-.64s-.06-.45-.17-.64c-.12-.19-.27-.34-.46-.46-.19-.11-.4-.17-.63-.17-.28,0-.51,.05-.69,.15-.18,.1-.32,.21-.42,.32l-1.03-.33,.22-3.81h3.91v1.13h-3.26l.45-.42-.16,2.65-.22-.27c.19-.17,.4-.3,.65-.38,.25-.08,.49-.12,.71-.12,.45,0,.85,.1,1.2,.31,.35,.21,.62,.48,.82,.84,.2,.35,.3,.75,.3,1.21s-.12,.86-.35,1.22c-.23,.37-.54,.66-.92,.87-.38,.22-.8,.33-1.25,.33Z"/><path class="c" d="M54.59,49.84c-.51,0-.96-.11-1.35-.33-.39-.22-.69-.52-.91-.91-.22-.39-.33-.84-.33-1.35v-2.32c0-.51,.11-.96,.33-1.35,.22-.39,.52-.69,.91-.91,.39-.22,.84-.33,1.35-.33s.96,.11,1.35,.33c.39,.22,.69,.52,.91,.91,.22,.39,.33,.84,.33,1.35v2.32c0,.51-.11,.96-.33,1.35-.22,.39-.52,.69-.91,.91-.39,.22-.84,.33-1.35,.33Zm0-1.15c.25,0,.48-.06,.69-.18,.21-.12,.37-.29,.49-.49,.12-.2,.18-.43,.18-.69v-2.49c0-.26-.06-.49-.18-.69-.12-.2-.28-.37-.49-.49-.21-.12-.44-.18-.69-.18s-.48,.06-.69,.18c-.21,.12-.37,.29-.49,.49-.12,.21-.18,.44-.18,.69v2.49c0,.25,.06,.48,.18,.69,.12,.21,.28,.37,.49,.49,.21,.12,.44,.18,.69,.18Z"/><path class="c" d="M49.1,61.84c-.72,0-1.33-.16-1.83-.48-.5-.32-.88-.76-1.14-1.32-.26-.56-.39-1.22-.39-1.96s.13-1.39,.39-1.96,.64-1,1.14-1.32,1.11-.47,1.83-.47c.83,0,1.52,.21,2.06,.63,.54,.42,.91,.99,1.11,1.71l-.91,.24c-.15-.54-.41-.96-.79-1.27-.38-.31-.87-.46-1.48-.46-.54,0-.98,.12-1.34,.37-.36,.24-.62,.58-.81,1.02-.18,.43-.27,.94-.27,1.52,0,.57,.08,1.08,.26,1.51,.18,.44,.45,.78,.81,1.02,.36,.25,.81,.37,1.34,.37,.61,0,1.1-.16,1.48-.47,.38-.31,.64-.73,.79-1.27l.91,.24c-.2,.71-.57,1.28-1.11,1.71-.54,.42-1.22,.64-2.06,.64Z"/><path class="c" d="M55.67,61.84c-.54,0-1-.12-1.39-.37-.39-.24-.69-.58-.9-1.01-.21-.43-.31-.92-.31-1.48s.11-1.06,.32-1.49c.21-.43,.52-.76,.91-1s.85-.36,1.38-.36,1,.12,1.39,.36c.39,.24,.69,.58,.9,1,.21,.43,.31,.92,.31,1.48s-.11,1.06-.32,1.49c-.21,.43-.51,.76-.9,1-.39,.24-.85,.36-1.39,.36Zm0-.85c.56,0,.98-.19,1.25-.56s.41-.86,.41-1.45-.14-1.1-.42-1.46c-.28-.36-.69-.54-1.25-.54-.38,0-.69,.08-.93,.25-.24,.17-.43,.41-.54,.71-.12,.3-.18,.65-.18,1.04,0,.61,.14,1.09,.42,1.46,.28,.37,.69,.55,1.24,.55Z"/><path class="c" d="M59.47,55.34v-.92h.89v.92h-.89Zm0,6.36v-5.4h.89v5.4h-.89Z"/><path class="c" d="M61.86,61.69v-5.4h.8v1.45h.1v3.96h-.9Zm3.85,0v-2.71c0-.26-.02-.5-.07-.74-.04-.24-.12-.45-.24-.64-.11-.19-.26-.34-.45-.45-.19-.11-.43-.17-.71-.17-.22,0-.43,.04-.61,.11-.18,.07-.34,.19-.47,.34s-.23,.35-.3,.58c-.07,.23-.11,.5-.11,.82l-.58-.18c0-.52,.09-.97,.28-1.35,.19-.38,.45-.66,.79-.87,.34-.2,.74-.3,1.21-.3,.35,0,.65,.05,.9,.17,.25,.11,.45,.26,.61,.44,.16,.18,.29,.38,.39,.61,.09,.22,.16,.45,.2,.68s.06,.45,.06,.66v2.99h-.9Z"/><path class="c" d="M68.01,61.69v-7.35h.89v7.35h-.89Z"/><path class="c" d="M70.4,61.69v-7.2h2.22c.07,0,.2,0,.38,0,.18,0,.36,.02,.53,.04,.56,.07,1.02,.28,1.4,.61,.38,.33,.66,.75,.85,1.26,.19,.51,.29,1.07,.29,1.69s-.1,1.17-.29,1.68c-.19,.51-.47,.93-.85,1.26s-.84,.53-1.4,.61c-.17,.02-.34,.03-.53,.04-.19,0-.31,0-.38,0h-2.22Zm.92-.85h1.3c.13,0,.27,0,.42-.01,.16,0,.29-.02,.41-.04,.39-.07,.71-.24,.96-.5,.24-.26,.42-.58,.54-.96,.11-.38,.17-.8,.17-1.24s-.06-.87-.17-1.26c-.11-.38-.29-.7-.54-.95-.24-.25-.56-.42-.95-.49-.12-.02-.25-.04-.42-.04s-.3,0-.42,0h-1.3v5.5Z"/><path class="c" d="M77.61,60.94v-.98h.98v.98h-.98Zm0-2.92v-.98h.98v.98h-.98Z"/><path class="c" d="M81.6,61.69v-6.21l-1.36,.82v-1l1.36-.81h.91v7.2h-.91Z"/><path class="c" d="M85.66,61.69v-6.21l-1.36,.82v-1l1.36-.81h.91v7.2h-.91Z"/><path class="c" d="M89.72,61.69v-6.21l-1.36,.82v-1l1.36-.81h.91v7.2h-.91Z"/><path class="c" d="M93.78,61.69v-6.21l-1.36,.82v-1l1.36-.81h.91v7.2h-.91Z"/></g><path class="c" d="M306.26,1c4.25,0,7.7,3.46,7.7,7.7v253.54c0,4.25-3.46,7.7-7.7,7.7H163.05c-4.25,0-7.7-3.45-7.7-7.7V8.7c0-4.25,3.46-7.7,7.7-7.7h143.2M306.26,0H163.05c-4.81,0-8.7,3.9-8.7,8.7v253.54c0,4.81,3.9,8.7,8.7,8.7h143.2c4.81,0,8.7-3.9,8.7-8.7V8.7C314.96,3.9,311.06,0,306.26,0h0Z"/><polygon class="b" points="450.25 253.77 450.25 256.96 447.32 256.96 447.32 253.63 450.25 253.77"/><path class="n" d="M450.25,256.96v1.68h-6.57s-.29-.67,.39-.9c.68-.23,2.74-.57,3.25-1.25,0,0,.31,.53,.97,.37,.66-.16,1.21-.76,1.96,.11Z"/><polygon class="b" points="459.01 253.77 459.01 256.96 461.94 256.96 461.94 253.63 459.01 253.77"/><path class="n" d="M459.01,256.96v1.68h6.57s.29-.67-.39-.9c-.68-.23-2.74-.57-3.25-1.25,0,0-.31,.53-.97,.37-.66-.16-1.21-.76-1.96,.11Z"/><polygon class="h" points="462.15 212.6 454.63 212.6 447.11 212.6 446.09 255.09 450.92 255.89 454.12 220.59 454.63 220.59 455.14 220.59 458.34 255.89 463.17 255.09 462.15 212.6"/><path class="k" d="M454.63,187.34h2.27l.44,2.95s-.73,1.46-2.72,1.46-2.72-1.46-2.72-1.46l.44-2.95h2.27"/><circle class="f" cx="454.63" cy="185.71" r="2.81"/><circle class="j" cx="454.63" cy="186.37" r="2.5"/><path class="k" d="M454.63,188.5h0c-1.55,0-2.81-1.27-2.81-2.83v-3.41h5.62v3.41c0,1.56-1.26,2.83-2.81,2.83Z"/><path class="n" d="M451.82,185.12v-2.29s1.05-.62,1.92,.4c.87,1.02,3.7-.15,3.7-.15v1.96s.62-.19,.87,.35c0,0-.12-.6,.35-1.11,.47-.52,.14-2.26-1.22-2.46,0,0,.56-2.18-1.15-2.27-1.72-.09-2.48,1.29-2.48,1.29,0,0-.88-1.33-1.99-.67s-1.3,1.62-.99,3.16c.28,1.4,.34,1.73,.34,1.73,0,0,.43-.18,.65,.09Z"/><g><path class="k" d="M452.14,185.67c0,.41-.08,.74-.47,.74s-.96-.33-.96-.74,.32-.74,.72-.74,.72,.33,.72,.74Z"/><path class="k" d="M456.98,185.67c0,.41,.08,.74,.47,.74s.96-.33,.96-.74-.32-.74-.72-.74-.72,.33-.72,.74Z"/></g><path class="k" d="M441.54,220.15l.24-1.19,.55-1.47,.68-.58,.47-.11s.03,.05,.03,.06c.04,.07,.14,.14,.14,.15,0,0,.01,.53,0,.92-.02,.82,.31,.89,.44,.71,.13-.18,.12-.96,.24-1.46s.37-1.52,.33-2.3c0,0,0,.47,0-.02s.67-1.7,.67-1.7l-1.19-.77-.66,1.13c-.91,.89-1.39,1.81-1.79,2.99l-.74,.94-.78,.98s-.19,.26-.21,.34c.18,.21,.47,.17,.77-.28h0l-.5,1s-.17,.41-.17,.46c.05,.04,.11,.06,.16,.08-.02,.1-.02,.11-.03,.24,.29,.18,.61,.04,.81-.6l.08-.17-.03,.23h0l-.08,.72h0s-.03,.51,0,.49c.33,.1,.55-.14,.57-.81Z"/><path class="k" d="M467.72,220.15l-.24-1.19-.55-1.47-.68-.58-.47-.11s-.03,.05-.03,.06c-.04,.07-.14,.14-.14,.15,0,0-.01,.53,0,.92,.02,.82-.31,.89-.44,.71-.13-.18-.12-.96-.24-1.46s-.37-1.52-.33-2.3c0,0,0,.47,0-.02s-.67-1.7-.67-1.7l1.19-.77,.66,1.13c.91,.89,1.39,1.81,1.79,2.99l.74,.94,.78,.98s.19,.26,.21,.34c-.18,.21-.47,.17-.77-.28h0l.5,1s.17,.41,.17,.46c-.05,.04-.11,.06-.16,.08,.02,.1,.02,.11,.03,.24-.29,.18-.61,.04-.81-.6l-.08-.17,.03,.23h0l.08,.72h0s.03,.51,0,.49c-.33,.1-.55-.14-.57-.81Z"/><polygon class="l" points="456.93 189.19 454.63 190.67 452.33 189.19 451.73 190.04 452.39 213.3 454.63 213.3 456.87 213.3 457.52 190.04 456.93 189.19"/><g><path class="n" d="M452.33,189.19l-6.99,3.02-3.79,22.47c.31-.14,3.67,.8,3.9,1.08,.16-.61,.31-1.19,.46-1.75l.12,4.55h2.9c2.03,0,3.65-1.69,3.58-3.73l-.79-24.8,.59-.85Z"/><path class="n" d="M463.91,192.21l-6.99-3.02,.59,.85-.79,24.8c-.06,2.04,1.56,3.73,3.58,3.73h2.9l.12-4.55c.15,.56,.3,1.14,.46,1.75,.24-.28,3.6-1.21,3.9-1.08l-3.79-22.47Z"/></g><g><path class="c" d="M446.23,270.83v-7.2h2.8c.43,0,.8,.09,1.1,.27s.54,.41,.7,.7c.16,.29,.24,.6,.24,.93,0,.39-.1,.73-.3,1.02-.2,.29-.47,.5-.81,.61v-.25c.45,.12,.81,.35,1.07,.68s.38,.72,.38,1.18c0,.42-.08,.78-.26,1.09s-.42,.54-.74,.71-.7,.25-1.14,.25h-3.05Zm.9-4.2h1.9c.21,0,.41-.05,.58-.14,.17-.09,.31-.22,.41-.39,.1-.17,.15-.36,.15-.58,0-.31-.1-.56-.31-.76-.21-.2-.49-.29-.83-.29h-1.9v2.17Zm0,3.35h1.99c.27,0,.5-.05,.71-.15,.21-.1,.38-.24,.5-.42,.12-.18,.18-.4,.18-.65s-.05-.46-.16-.65-.26-.35-.46-.46c-.19-.12-.42-.17-.68-.17h-2.08v2.51Z"/><path class="c" d="M454.72,270.98c-.54,0-1-.12-1.39-.37-.39-.24-.69-.58-.9-1.01-.21-.43-.31-.92-.31-1.48s.11-1.06,.32-1.49c.21-.43,.52-.76,.91-1s.85-.36,1.38-.36,1,.12,1.39,.36c.39,.24,.69,.58,.9,1,.21,.43,.31,.92,.31,1.48s-.11,1.06-.32,1.49c-.21,.43-.51,.76-.9,1-.39,.24-.85,.36-1.39,.36Zm0-.85c.56,0,.98-.19,1.25-.56s.41-.86,.41-1.45-.14-1.1-.42-1.46c-.28-.36-.69-.54-1.25-.54-.38,0-.69,.08-.93,.25-.24,.17-.43,.41-.54,.71-.12,.3-.18,.65-.18,1.04,0,.61,.14,1.09,.42,1.46,.28,.37,.69,.55,1.24,.55Z"/><path class="c" d="M458.42,270.83v-7.2h.89v3.23h-.1v3.97h-.79Zm2.48,.15c-.51,0-.93-.13-1.28-.38s-.61-.59-.79-1.03c-.18-.43-.27-.92-.27-1.45s.09-1.03,.27-1.46c.18-.43,.44-.77,.79-1.01,.35-.25,.78-.37,1.28-.37s.93,.12,1.29,.37c.36,.25,.64,.59,.83,1.02s.29,.92,.29,1.46-.1,1.03-.29,1.46-.47,.77-.83,1.02-.79,.38-1.3,.38Zm-.11-.82c.36,0,.65-.09,.88-.27,.23-.18,.41-.42,.53-.73,.12-.31,.17-.65,.17-1.04s-.06-.72-.17-1.03-.29-.55-.53-.73-.54-.27-.91-.27-.64,.09-.87,.26c-.23,.17-.4,.41-.51,.71-.11,.31-.17,.66-.17,1.06s.06,.74,.17,1.05c.11,.31,.28,.55,.52,.72s.53,.26,.9,.26Z"/></g><path class="m" d="M446.02,213.72h-.01c-.07,0-.13-.07-.12-.15l1.27-14.79c0-.07,.07-.13,.15-.12,.07,0,.13,.07,.12,.15l-1.27,14.79c0,.07-.06,.12-.13,.12Z"/><path class="m" d="M463.23,213.72h.01c.07,0,.13-.07,.12-.15l-1.27-14.79c0-.07-.07-.13-.15-.12-.07,0-.13,.07-.12,.15l1.27,14.79c0,.07,.06,.12,.13,.12Z"/><g><polygon class="d" points="451.02 189.69 451.55 190.46 453.36 192.81 454.63 190.67 452.29 188.11 451.02 189.69"/><polygon class="d" points="456.96 188.11 454.63 190.67 455.89 192.81 457.71 190.46 458.23 189.69 456.96 188.11"/></g><g><path class="c" d="M363.19,111.3v-7.2h.9l3.76,5.62v-5.62h.9v7.2h-.9l-3.76-5.63v5.63h-.9Z"/><path class="c" d="M372.49,111.45c-.53,0-.99-.12-1.39-.35-.39-.24-.7-.56-.92-.99-.22-.42-.33-.91-.33-1.48s.11-1.1,.32-1.53,.52-.77,.91-1c.39-.24,.84-.35,1.37-.35s1.01,.12,1.39,.38,.67,.61,.86,1.07c.19,.46,.27,1.02,.25,1.66h-.9v-.32c0-.66-.14-1.16-.4-1.49-.26-.33-.65-.49-1.16-.49-.55,0-.97,.18-1.25,.53-.29,.35-.43,.86-.43,1.52s.14,1.13,.43,1.48c.29,.35,.69,.52,1.22,.52,.36,0,.67-.08,.93-.25,.26-.16,.47-.4,.62-.7l.86,.29c-.21,.48-.53,.85-.95,1.11-.42,.26-.89,.39-1.42,.39Zm-2-2.6v-.71h3.99v.71h-3.99Z"/><path class="c" d="M377,111.3l-1.65-5.41h.88l1.21,3.96,1.21-3.95h.79l1.21,3.95,1.21-3.95h.88l-1.65,5.4h-.74l-1.31-4.11-1.3,4.11h-.74Z"/><path class="c" d="M388.48,111.45c-.56,0-1.05-.12-1.47-.35-.43-.23-.76-.55-1-.97-.24-.42-.36-.9-.36-1.46v-4.57h.9v4.5c0,.34,.06,.64,.17,.89s.27,.46,.46,.63c.19,.17,.4,.29,.63,.37s.46,.12,.68,.12,.46-.04,.69-.12c.23-.08,.44-.21,.63-.37s.34-.37,.45-.63c.11-.25,.17-.55,.17-.88v-4.5h.9v4.58c0,.56-.12,1.04-.36,1.46-.24,.42-.58,.74-1,.97-.43,.23-.92,.35-1.47,.35Z"/><path class="c" d="M394.58,111.3v-6.36h-2.46v-.84h5.8v.84h-2.46v6.36h-.89Z"/><path class="c" d="M397.42,111.3l2.07-2.73-2.02-2.67h1.06l1.48,1.98,1.47-1.98h1.06l-2.02,2.67,2.07,2.73h-1.06l-1.51-2.04-1.52,2.04h-1.07Z"/><path class="c" d="M406.34,111.45c-.72,0-1.33-.16-1.83-.48-.5-.32-.88-.76-1.14-1.32-.26-.56-.39-1.22-.39-1.96s.13-1.39,.39-1.96,.64-1,1.14-1.32,1.11-.47,1.83-.47,1.33,.16,1.83,.47,.88,.76,1.14,1.32,.39,1.21,.39,1.96-.13,1.39-.39,1.96c-.26,.56-.64,1-1.14,1.32-.5,.32-1.11,.48-1.83,.48Zm0-.85c.54,0,.98-.12,1.34-.36,.36-.25,.63-.59,.8-1.02,.18-.44,.27-.94,.27-1.51s-.09-1.08-.27-1.52c-.18-.43-.45-.77-.8-1.01-.36-.24-.81-.37-1.34-.37-.54,0-.98,.12-1.34,.36-.35,.24-.62,.58-.8,1.02-.18,.44-.27,.94-.27,1.52,0,.57,.08,1.08,.26,1.51,.18,.43,.45,.77,.81,1.02s.81,.37,1.34,.37Z"/><path class="c" d="M365.25,123.43c-.36,0-.7-.07-1.02-.21-.32-.14-.6-.34-.83-.59-.23-.26-.4-.56-.51-.91l1.17-.31c.08,.29,.24,.51,.46,.66s.47,.23,.73,.23c.24,0,.45-.05,.63-.17s.33-.26,.44-.45,.16-.4,.16-.63c0-.36-.12-.66-.35-.89-.23-.24-.53-.36-.89-.36-.11,0-.22,.01-.32,.04-.11,.03-.21,.07-.3,.12l-.55-.95,2.42-2.07,.11,.29h-3.43v-1.13h4.42v1.14l-1.94,1.87v-.35c.43,.03,.8,.15,1.11,.37,.31,.21,.54,.49,.71,.82,.17,.34,.25,.71,.25,1.11,0,.45-.11,.86-.33,1.22-.22,.36-.52,.64-.89,.85-.37,.21-.78,.31-1.23,.31Z"/><path class="c" d="M371.6,123.45c-.51,0-.96-.11-1.35-.33-.39-.22-.69-.52-.91-.91-.22-.39-.33-.84-.33-1.35v-2.32c0-.51,.11-.96,.33-1.35,.22-.39,.52-.69,.91-.91,.39-.22,.84-.33,1.35-.33s.96,.11,1.35,.33c.39,.22,.69,.52,.91,.91,.22,.39,.33,.84,.33,1.35v2.32c0,.51-.11,.96-.33,1.35-.22,.39-.52,.69-.91,.91-.39,.22-.84,.33-1.35,.33Zm0-1.15c.25,0,.48-.06,.69-.18,.21-.12,.37-.29,.49-.49,.12-.2,.18-.43,.18-.69v-2.49c0-.26-.06-.49-.18-.69-.12-.2-.28-.37-.49-.49-.21-.12-.44-.18-.69-.18s-.48,.06-.69,.18c-.21,.12-.37,.29-.49,.49-.12,.21-.18,.44-.18,.69v2.49c0,.25,.06,.48,.18,.69,.12,.21,.28,.37,.49,.49,.21,.12,.44,.18,.69,.18Z"/><path class="c" d="M366.15,135.45c-.72,0-1.33-.16-1.83-.48-.5-.32-.88-.76-1.14-1.32-.26-.56-.39-1.22-.39-1.96s.13-1.39,.39-1.96,.64-1,1.14-1.32,1.11-.47,1.83-.47c.83,0,1.52,.21,2.06,.63,.54,.42,.91,.99,1.11,1.71l-.91,.24c-.15-.54-.41-.96-.79-1.27-.38-.31-.87-.46-1.48-.46-.54,0-.98,.12-1.34,.37-.36,.24-.62,.58-.81,1.02-.18,.43-.27,.94-.27,1.52,0,.57,.08,1.08,.26,1.51,.18,.44,.45,.78,.81,1.02,.36,.25,.81,.37,1.34,.37,.61,0,1.1-.16,1.48-.47,.38-.31,.64-.73,.79-1.27l.91,.24c-.2,.71-.57,1.28-1.11,1.71-.54,.42-1.22,.64-2.06,.64Z"/><path class="c" d="M372.72,135.45c-.54,0-1-.12-1.39-.37-.39-.24-.69-.58-.9-1.01-.21-.43-.31-.92-.31-1.48s.11-1.06,.32-1.49c.21-.43,.52-.76,.91-1s.85-.36,1.38-.36,1,.12,1.39,.36c.39,.24,.69,.58,.9,1,.21,.43,.31,.92,.31,1.48s-.11,1.06-.32,1.49c-.21,.43-.51,.76-.9,1-.39,.24-.85,.36-1.39,.36Zm0-.85c.56,0,.98-.19,1.25-.56s.41-.86,.41-1.45-.14-1.1-.42-1.46c-.28-.36-.69-.54-1.25-.54-.38,0-.69,.08-.93,.25-.24,.17-.43,.41-.54,.71-.12,.3-.18,.65-.18,1.04,0,.61,.14,1.09,.42,1.46,.28,.37,.69,.55,1.24,.55Z"/><path class="c" d="M376.52,128.94v-.92h.89v.92h-.89Zm0,6.36v-5.4h.89v5.4h-.89Z"/><path class="c" d="M378.91,135.3v-5.4h.8v1.45h.1v3.96h-.9Zm3.85,0v-2.71c0-.26-.02-.5-.07-.74-.04-.24-.12-.45-.24-.64-.11-.19-.26-.34-.45-.45-.19-.11-.43-.17-.71-.17-.22,0-.43,.04-.61,.11-.18,.07-.34,.19-.47,.34s-.23,.35-.3,.58c-.07,.23-.11,.5-.11,.82l-.58-.18c0-.52,.09-.97,.28-1.35,.19-.38,.45-.66,.79-.87,.34-.2,.74-.3,1.21-.3,.35,0,.65,.05,.9,.17,.25,.11,.45,.26,.61,.44,.16,.18,.29,.38,.39,.61,.09,.22,.16,.45,.2,.68s.06,.45,.06,.66v2.99h-.9Z"/><path class="c" d="M385.06,135.3v-7.35h.89v7.35h-.89Z"/><path class="c" d="M387.45,135.3v-7.2h2.22c.07,0,.2,0,.38,0,.18,0,.36,.02,.53,.04,.56,.07,1.02,.28,1.4,.61,.38,.33,.66,.75,.85,1.26,.19,.51,.29,1.07,.29,1.69s-.1,1.17-.29,1.68c-.19,.51-.47,.93-.85,1.26s-.84,.53-1.4,.61c-.17,.02-.34,.03-.53,.04-.19,0-.31,0-.38,0h-2.22Zm.92-.85h1.3c.13,0,.27,0,.42-.01,.16,0,.29-.02,.41-.04,.39-.07,.71-.24,.96-.5,.24-.26,.42-.58,.54-.96,.11-.38,.17-.8,.17-1.24s-.06-.87-.17-1.26c-.11-.38-.29-.7-.54-.95-.24-.25-.56-.42-.95-.49-.12-.02-.25-.04-.42-.04s-.3,0-.42,0h-1.3v5.5Z"/><path class="c" d="M394.66,134.55v-.98h.98v.98h-.98Zm0-2.92v-.98h.98v.98h-.98Z"/><path class="c" d="M397.19,135.29v-.8l3.2-2.88c.27-.24,.45-.47,.54-.68s.14-.44,.14-.66c0-.28-.06-.53-.19-.75-.13-.22-.3-.4-.52-.53-.22-.13-.47-.2-.74-.2s-.54,.07-.76,.2c-.22,.14-.4,.31-.53,.54-.13,.22-.19,.47-.19,.73h-.91c0-.45,.1-.85,.31-1.2s.5-.62,.86-.82c.36-.2,.77-.3,1.23-.3s.85,.1,1.2,.31c.35,.21,.63,.48,.84,.84,.21,.35,.31,.75,.31,1.19,0,.31-.04,.58-.12,.81-.08,.23-.2,.44-.36,.64-.16,.2-.37,.4-.61,.62l-2.66,2.39-.12-.3h3.87v.85h-4.79Z"/><path class="c" d="M402.98,135.29v-.8l3.2-2.88c.27-.24,.45-.47,.54-.68s.14-.44,.14-.66c0-.28-.06-.53-.19-.75-.13-.22-.3-.4-.52-.53-.22-.13-.47-.2-.74-.2s-.54,.07-.76,.2c-.22,.14-.4,.31-.53,.54-.13,.22-.19,.47-.19,.73h-.91c0-.45,.1-.85,.31-1.2s.5-.62,.86-.82c.36-.2,.77-.3,1.23-.3s.85,.1,1.2,.31c.35,.21,.63,.48,.84,.84,.21,.35,.31,.75,.31,1.19,0,.31-.04,.58-.12,.81-.08,.23-.2,.44-.36,.64-.16,.2-.37,.4-.61,.62l-2.66,2.39-.12-.3h3.87v.85h-4.79Z"/><path class="c" d="M408.76,135.29v-.8l3.2-2.88c.27-.24,.45-.47,.54-.68s.14-.44,.14-.66c0-.28-.06-.53-.19-.75-.13-.22-.3-.4-.52-.53-.22-.13-.47-.2-.74-.2s-.54,.07-.76,.2c-.22,.14-.4,.31-.53,.54-.13,.22-.19,.47-.19,.73h-.91c0-.45,.1-.85,.31-1.2s.5-.62,.86-.82c.36-.2,.77-.3,1.23-.3s.85,.1,1.2,.31c.35,.21,.63,.48,.84,.84,.21,.35,.31,.75,.31,1.19,0,.31-.04,.58-.12,.81-.08,.23-.2,.44-.36,.64-.16,.2-.37,.4-.61,.62l-2.66,2.39-.12-.3h3.87v.85h-4.79Z"/><path class="c" d="M414.55,135.29v-.8l3.2-2.88c.27-.24,.45-.47,.54-.68s.14-.44,.14-.66c0-.28-.06-.53-.19-.75-.13-.22-.3-.4-.52-.53-.22-.13-.47-.2-.74-.2s-.54,.07-.76,.2c-.22,.14-.4,.31-.53,.54-.13,.22-.19,.47-.19,.73h-.91c0-.45,.1-.85,.31-1.2s.5-.62,.86-.82c.36-.2,.77-.3,1.23-.3s.85,.1,1.2,.31c.35,.21,.63,.48,.84,.84,.21,.35,.31,.75,.31,1.19,0,.31-.04,.58-.12,.81-.08,.23-.2,.44-.36,.64-.16,.2-.37,.4-.61,.62l-2.66,2.39-.12-.3h3.87v.85h-4.79Z"/></g><g><path class="c" d="M363.63,216.85v-7.2h.9l3.76,5.62v-5.62h.9v7.2h-.9l-3.76-5.63v5.63h-.9Z"/><path class="c" d="M372.93,217c-.53,0-.99-.12-1.39-.35-.39-.24-.7-.56-.92-.99-.22-.42-.33-.91-.33-1.48s.11-1.1,.32-1.53,.52-.77,.91-1c.39-.24,.84-.35,1.37-.35s1.01,.12,1.39,.38,.67,.61,.86,1.07c.19,.46,.27,1.02,.25,1.66h-.9v-.32c0-.66-.14-1.16-.4-1.49-.26-.33-.65-.49-1.16-.49-.55,0-.97,.18-1.25,.53-.29,.35-.43,.86-.43,1.52s.14,1.13,.43,1.48c.29,.35,.69,.52,1.22,.52,.36,0,.67-.08,.93-.25,.26-.16,.47-.4,.62-.7l.86,.29c-.21,.48-.53,.85-.95,1.11-.42,.26-.89,.39-1.42,.39Zm-2-2.6v-.71h3.99v.71h-3.99Z"/><path class="c" d="M377.44,216.85l-1.65-5.41h.88l1.21,3.96,1.21-3.95h.79l1.21,3.95,1.21-3.95h.88l-1.65,5.4h-.74l-1.31-4.11-1.3,4.11h-.74Z"/><path class="c" d="M388.92,217c-.56,0-1.05-.12-1.47-.35-.43-.23-.76-.55-1-.97-.24-.42-.36-.9-.36-1.46v-4.57h.9v4.5c0,.34,.06,.64,.17,.89s.27,.46,.46,.63c.19,.17,.4,.29,.63,.37s.46,.12,.68,.12,.46-.04,.69-.12c.23-.08,.44-.21,.63-.37s.34-.37,.45-.63c.11-.25,.17-.55,.17-.88v-4.5h.9v4.58c0,.56-.12,1.04-.36,1.46-.24,.42-.58,.74-1,.97-.43,.23-.92,.35-1.47,.35Z"/><path class="c" d="M395.01,216.85v-6.36h-2.46v-.84h5.8v.84h-2.46v6.36h-.89Z"/><path class="c" d="M397.86,216.85l2.07-2.73-2.02-2.67h1.06l1.48,1.98,1.47-1.98h1.06l-2.02,2.67,2.07,2.73h-1.06l-1.51-2.04-1.52,2.04h-1.07Z"/><path class="c" d="M406.78,217c-.72,0-1.33-.16-1.83-.48-.5-.32-.88-.76-1.14-1.32-.26-.56-.39-1.22-.39-1.96s.13-1.39,.39-1.96,.64-1,1.14-1.32,1.11-.47,1.83-.47,1.33,.16,1.83,.47,.88,.76,1.14,1.32,.39,1.21,.39,1.96-.13,1.39-.39,1.96c-.26,.56-.64,1-1.14,1.32-.5,.32-1.11,.48-1.83,.48Zm0-.85c.54,0,.98-.12,1.34-.36,.36-.25,.63-.59,.8-1.02,.18-.44,.27-.94,.27-1.51s-.09-1.08-.27-1.52c-.18-.43-.45-.77-.8-1.01-.36-.24-.81-.37-1.34-.37-.54,0-.98,.12-1.34,.36-.35,.24-.62,.58-.8,1.02-.18,.44-.27,.94-.27,1.52,0,.57,.08,1.08,.26,1.51,.18,.43,.45,.77,.81,1.02s.81,.37,1.34,.37Z"/><path class="c" d="M363.43,228.84v-1.05l3.08-2.75c.24-.21,.41-.42,.5-.61,.09-.19,.14-.37,.14-.55,0-.24-.05-.45-.15-.64-.1-.19-.25-.34-.43-.45-.18-.11-.39-.17-.63-.17-.25,0-.47,.06-.66,.17-.19,.12-.34,.27-.45,.46-.11,.19-.16,.39-.15,.62h-1.24c0-.48,.11-.9,.32-1.25,.22-.36,.51-.63,.89-.83,.38-.2,.82-.29,1.31-.29,.46,0,.87,.1,1.24,.31,.37,.21,.65,.49,.86,.85s.32,.78,.32,1.25c0,.34-.05,.63-.14,.87-.09,.23-.23,.45-.42,.65-.18,.2-.41,.42-.69,.65l-2.18,1.94-.11-.3h3.54v1.13h-4.96Z"/><path class="c" d="M372.18,229c-.51,0-.96-.11-1.35-.33-.39-.22-.69-.52-.91-.91-.22-.39-.33-.84-.33-1.35v-2.32c0-.51,.11-.96,.33-1.35,.22-.39,.52-.69,.91-.91,.39-.22,.84-.33,1.35-.33s.96,.11,1.35,.33c.39,.22,.69,.52,.91,.91,.22,.39,.33,.84,.33,1.35v2.32c0,.51-.11,.96-.33,1.35-.22,.39-.52,.69-.91,.91-.39,.22-.84,.33-1.35,.33Zm0-1.15c.25,0,.48-.06,.69-.18,.21-.12,.37-.29,.49-.49,.12-.2,.18-.43,.18-.69v-2.49c0-.26-.06-.49-.18-.69-.12-.2-.28-.37-.49-.49-.21-.12-.44-.18-.69-.18s-.48,.06-.69,.18c-.21,.12-.37,.29-.49,.49-.12,.21-.18,.44-.18,.69v2.49c0,.25,.06,.48,.18,.69,.12,.21,.28,.37,.49,.49,.21,.12,.44,.18,.69,.18Z"/><path class="c" d="M366.59,241c-.72,0-1.33-.16-1.83-.48-.5-.32-.88-.76-1.14-1.32-.26-.56-.39-1.22-.39-1.96s.13-1.39,.39-1.96,.64-1,1.14-1.32,1.11-.47,1.83-.47c.83,0,1.52,.21,2.06,.63,.54,.42,.91,.99,1.11,1.71l-.91,.24c-.15-.54-.41-.96-.79-1.27-.38-.31-.87-.46-1.48-.46-.54,0-.98,.12-1.34,.37-.36,.24-.62,.58-.81,1.02-.18,.43-.27,.94-.27,1.52,0,.57,.08,1.08,.26,1.51,.18,.44,.45,.78,.81,1.02,.36,.25,.81,.37,1.34,.37,.61,0,1.1-.16,1.48-.47,.38-.31,.64-.73,.79-1.27l.91,.24c-.2,.71-.57,1.28-1.11,1.71-.54,.42-1.22,.64-2.06,.64Z"/><path class="c" d="M373.16,241c-.54,0-1-.12-1.39-.37-.39-.24-.69-.58-.9-1.01-.21-.43-.31-.92-.31-1.48s.11-1.06,.32-1.49c.21-.43,.52-.76,.91-1s.85-.36,1.38-.36,1,.12,1.39,.36c.39,.24,.69,.58,.9,1,.21,.43,.31,.92,.31,1.48s-.11,1.06-.32,1.49c-.21,.43-.51,.76-.9,1-.39,.24-.85,.36-1.39,.36Zm0-.85c.56,0,.98-.19,1.25-.56s.41-.86,.41-1.45-.14-1.1-.42-1.46c-.28-.36-.69-.54-1.25-.54-.38,0-.69,.08-.93,.25-.24,.17-.43,.41-.54,.71-.12,.3-.18,.65-.18,1.04,0,.61,.14,1.09,.42,1.46,.28,.37,.69,.55,1.24,.55Z"/><path class="c" d="M376.96,234.49v-.92h.89v.92h-.89Zm0,6.36v-5.4h.89v5.4h-.89Z"/><path class="c" d="M379.35,240.85v-5.4h.8v1.45h.1v3.96h-.9Zm3.85,0v-2.71c0-.26-.02-.5-.07-.74-.04-.24-.12-.45-.24-.64-.11-.19-.26-.34-.45-.45-.19-.11-.43-.17-.71-.17-.22,0-.43,.04-.61,.11-.18,.07-.34,.19-.47,.34s-.23,.35-.3,.58c-.07,.23-.11,.5-.11,.82l-.58-.18c0-.52,.09-.97,.28-1.35,.19-.38,.45-.66,.79-.87,.34-.2,.74-.3,1.21-.3,.35,0,.65,.05,.9,.17,.25,.11,.45,.26,.61,.44,.16,.18,.29,.38,.39,.61,.09,.22,.16,.45,.2,.68s.06,.45,.06,.66v2.99h-.9Z"/><path class="c" d="M385.5,240.85v-7.35h.89v7.35h-.89Z"/><path class="c" d="M387.89,240.85v-7.2h2.22c.07,0,.2,0,.38,0,.18,0,.36,.02,.53,.04,.56,.07,1.02,.28,1.4,.61,.38,.33,.66,.75,.85,1.26,.19,.51,.29,1.07,.29,1.69s-.1,1.17-.29,1.68c-.19,.51-.47,.93-.85,1.26s-.84,.53-1.4,.61c-.17,.02-.34,.03-.53,.04-.19,0-.31,0-.38,0h-2.22Zm.92-.85h1.3c.13,0,.27,0,.42-.01,.16,0,.29-.02,.41-.04,.39-.07,.71-.24,.96-.5,.24-.26,.42-.58,.54-.96,.11-.38,.17-.8,.17-1.24s-.06-.87-.17-1.26c-.11-.38-.29-.7-.54-.95-.24-.25-.56-.42-.95-.49-.12-.02-.25-.04-.42-.04s-.3,0-.42,0h-1.3v5.5Z"/><path class="c" d="M395.1,240.1v-.98h.98v.98h-.98Zm0-2.92v-.98h.98v.98h-.98Z"/><path class="c" d="M399.81,240.99c-.36,0-.69-.07-1-.2s-.57-.32-.79-.56c-.22-.24-.38-.53-.49-.86l.85-.24c.11,.33,.29,.59,.55,.76,.26,.17,.54,.26,.87,.25,.29,0,.55-.07,.76-.2,.21-.13,.38-.3,.5-.53,.12-.22,.18-.48,.18-.77,0-.45-.13-.81-.4-1.09s-.62-.42-1.05-.42c-.12,0-.25,.02-.38,.05s-.25,.08-.37,.14l-.43-.71,2.67-2.42,.11,.3h-3.58v-.85h4.25v.86l-2.27,2.18v-.32c.47-.03,.88,.05,1.24,.24,.36,.19,.63,.46,.83,.82s.3,.76,.3,1.21-.1,.87-.31,1.22-.49,.63-.84,.83c-.35,.2-.75,.3-1.2,.3Z"/><path class="c" d="M405.43,240.99c-.36,0-.69-.07-1-.2s-.57-.32-.79-.56c-.22-.24-.38-.53-.49-.86l.85-.24c.11,.33,.29,.59,.55,.76,.26,.17,.54,.26,.87,.25,.29,0,.55-.07,.76-.2,.21-.13,.38-.3,.5-.53,.12-.22,.18-.48,.18-.77,0-.45-.13-.81-.4-1.09s-.62-.42-1.05-.42c-.12,0-.25,.02-.38,.05s-.25,.08-.37,.14l-.43-.71,2.67-2.42,.11,.3h-3.58v-.85h4.25v.86l-2.27,2.18v-.32c.47-.03,.88,.05,1.24,.24,.36,.19,.63,.46,.83,.82s.3,.76,.3,1.21-.1,.87-.31,1.22-.49,.63-.84,.83c-.35,.2-.75,.3-1.2,.3Z"/><path class="c" d="M411.06,240.99c-.36,0-.69-.07-1-.2s-.57-.32-.79-.56c-.22-.24-.38-.53-.49-.86l.85-.24c.11,.33,.29,.59,.55,.76,.26,.17,.54,.26,.87,.25,.29,0,.55-.07,.76-.2,.21-.13,.38-.3,.5-.53,.12-.22,.18-.48,.18-.77,0-.45-.13-.81-.4-1.09s-.62-.42-1.05-.42c-.12,0-.25,.02-.38,.05s-.25,.08-.37,.14l-.43-.71,2.67-2.42,.11,.3h-3.58v-.85h4.25v.86l-2.27,2.18v-.32c.47-.03,.88,.05,1.24,.24,.36,.19,.63,.46,.83,.82s.3,.76,.3,1.21-.1,.87-.31,1.22-.49,.63-.84,.83c-.35,.2-.75,.3-1.2,.3Z"/><path class="c" d="M416.68,240.99c-.36,0-.69-.07-1-.2s-.57-.32-.79-.56c-.22-.24-.38-.53-.49-.86l.85-.24c.11,.33,.29,.59,.55,.76,.26,.17,.54,.26,.87,.25,.29,0,.55-.07,.76-.2,.21-.13,.38-.3,.5-.53,.12-.22,.18-.48,.18-.77,0-.45-.13-.81-.4-1.09s-.62-.42-1.05-.42c-.12,0-.25,.02-.38,.05s-.25,.08-.37,.14l-.43-.71,2.67-2.42,.11,.3h-3.58v-.85h4.25v.86l-2.27,2.18v-.32c.47-.03,.88,.05,1.24,.24,.36,.19,.63,.46,.83,.82s.3,.76,.3,1.21-.1,.87-.31,1.22-.49,.63-.84,.83c-.35,.2-.75,.3-1.2,.3Z"/></g><line class="p" x1="154.35" y1="39.65" x2="314.96" y2="39.65"/><g><line class="p" x1="110.53" y1="46.15" x2="141.4" y2="46.15"/><polygon class="c" points="139.94 51.14 148.57 46.15 139.94 41.16 139.94 51.14"/></g><g><line class="p" x1="314.96" y1="119.7" x2="345.82" y2="119.7"/><polygon class="c" points="344.37 124.68 353 119.7 344.37 114.71 344.37 124.68"/></g><g><line class="p" x1="314.96" y1="225.25" x2="345.82" y2="225.25"/><polygon class="c" points="344.37 230.24 353 225.25 344.37 220.27 344.37 230.24"/></g></svg>