<?xml version="1.0" encoding="UTF-8"?><svg id="a" xmlns="http://www.w3.org/2000/svg" viewBox="0 0 469.31 314.82"><defs><style>.b{fill:#67b763;}.c{fill:#fff;}.d{fill:#ff9682;}.e{fill:#83afff;}.f{fill:#f4f4f5;}.f,.g{stroke:#fff;stroke-miterlimit:10;}.g{fill:none;}</style></defs><g><path class="b" d="M391.99,314.32c-6.89,0-12.49-5.6-12.49-12.49s5.6-12.49,12.49-12.49,12.49,5.6,12.49,12.49-5.6,12.49-12.49,12.49Z"/><path class="c" d="M391.99,289.84c6.61,0,11.99,5.38,11.99,11.99s-5.38,11.99-11.99,11.99-11.99-5.38-11.99-11.99,5.38-11.99,11.99-11.99m0-1c-7.18,0-12.99,5.82-12.99,12.99s5.82,12.99,12.99,12.99,12.99-5.82,12.99-12.99-5.82-12.99-12.99-12.99h0Z"/></g><line class="g" x1="24.54" y1="266.37" x2="169.18" y2="15.85"/><line class="g" x1="140.92" y1="266.37" x2="170.41" y2="214.93"/><line class="g" x1="256.97" y1="266.37" x2="140.76" y2="65.07"/><line class="g" x1="200.12" y1="266.37" x2="112.33" y2="114.32"/><line class="g" x1="83.95" y1="266.37" x2="54.24" y2="214.93"/><rect class="f" x="8.69" y="250.53" width="31.7" height="31.7" rx="6.22" ry="6.22"/><g><path class="e" d="M102.7,98.97h19.26c3.16,0,5.72,2.56,5.72,5.72v19.26c0,3.16-2.56,5.72-5.72,5.72h-19.27c-3.15,0-5.72-2.56-5.72-5.72v-19.26c0-3.16,2.56-5.72,5.72-5.72Z"/><path class="c" d="M121.96,99.47c2.88,0,5.22,2.34,5.22,5.22v19.27c0,2.88-2.34,5.22-5.22,5.22h-19.27c-2.88,0-5.22-2.34-5.22-5.22v-19.27c0-2.88,2.34-5.22,5.22-5.22h19.27m0-1h-19.27c-3.43,0-6.22,2.78-6.22,6.22v19.27c0,3.43,2.78,6.22,6.22,6.22h19.27c3.43,0,6.22-2.78,6.22-6.22v-19.27c0-3.43-2.78-6.22-6.22-6.22h0Z"/></g><rect class="f" x="38.39" y="199.08" width="31.7" height="31.7" rx="6.22" ry="6.22"/><rect class="f" x="154.57" y="199.08" width="31.7" height="31.7" rx="6.22" ry="6.22"/><rect class="f" x="124.91" y="49.23" width="31.7" height="31.7" rx="6.22" ry="6.22"/><line class="g" x1="336.01" y1="304.81" x2="169.18" y2="15.85"/><g><path class="d" d="M159.55,.5h19.27c3.15,0,5.72,2.56,5.72,5.72V25.48c0,3.16-2.56,5.72-5.72,5.72h-19.27c-3.15,0-5.72-2.56-5.72-5.72V6.22c0-3.15,2.56-5.72,5.72-5.72Z"/><path class="c" d="M178.81,1c2.88,0,5.22,2.34,5.22,5.22V25.48c0,2.88-2.34,5.22-5.22,5.22h-19.27c-2.88,0-5.22-2.34-5.22-5.22V6.22c0-2.88,2.34-5.22,5.22-5.22h19.27M178.81,0h-19.27c-3.43,0-6.22,2.78-6.22,6.22V25.48c0,3.43,2.78,6.22,6.22,6.22h19.27c3.43,0,6.22-2.78,6.22-6.22V6.22C185.03,2.78,182.24,0,178.81,0h0Z"/></g><g><path class="d" d="M384.09,138.13h15.79c2.54,0,4.6,2.06,4.6,4.6v15.79c0,2.54-2.06,4.6-4.6,4.6h-15.8c-2.54,0-4.6-2.06-4.6-4.6v-15.79c0-2.54,2.06-4.6,4.6-4.6Z"/><path class="c" d="M399.89,138.63c2.26,0,4.1,1.84,4.1,4.1v15.79c0,2.26-1.84,4.1-4.1,4.1h-15.79c-2.26,0-4.1-1.84-4.1-4.1v-15.79c0-2.26,1.84-4.1,4.1-4.1h15.79m0-1h-15.79c-2.81,0-5.1,2.28-5.1,5.1v15.79c0,2.81,2.28,5.1,5.1,5.1h15.79c2.81,0,5.1-2.28,5.1-5.1v-15.79c0-2.81-2.28-5.1-5.1-5.1h0Z"/></g><g><path class="e" d="M384.09,175.93h15.79c2.54,0,4.6,2.06,4.6,4.6v15.8c0,2.54-2.06,4.6-4.6,4.6h-15.79c-2.54,0-4.6-2.06-4.6-4.6v-15.79c0-2.54,2.06-4.6,4.6-4.6Z"/><path class="c" d="M399.89,176.43c2.26,0,4.1,1.84,4.1,4.1v15.79c0,2.26-1.84,4.1-4.1,4.1h-15.79c-2.26,0-4.1-1.84-4.1-4.1v-15.79c0-2.26,1.84-4.1,4.1-4.1h15.79m0-1h-15.79c-2.81,0-5.1,2.28-5.1,5.1v15.79c0,2.81,2.28,5.1,5.1,5.1h15.79c2.81,0,5.1-2.28,5.1-5.1v-15.79c0-2.81-2.28-5.1-5.1-5.1h0Z"/></g><g><path class="e" d="M391.99,238.72c-6.89,0-12.49-5.6-12.49-12.49s5.6-12.49,12.49-12.49,12.49,5.6,12.49,12.49-5.6,12.49-12.49,12.49Z"/><path class="c" d="M391.99,214.23c6.61,0,11.99,5.38,11.99,11.99s-5.38,11.99-11.99,11.99-11.99-5.38-11.99-11.99,5.38-11.99,11.99-11.99m0-1c-7.18,0-12.99,5.82-12.99,12.99s5.82,12.99,12.99,12.99,12.99-5.82,12.99-12.99-5.82-12.99-12.99-12.99h0Z"/></g><rect class="f" x="379" y="251.03" width="25.99" height="25.99" rx="5.1" ry="5.1"/><line class="g" x1="24.54" y1="266.37" x2="10.01" y2="304.81"/><line class="g" x1="24.54" y1="266.37" x2="39.06" y2="304.81"/><line class="g" x1="83.95" y1="266.37" x2="69.42" y2="304.81"/><line class="g" x1="83.95" y1="266.37" x2="98.47" y2="304.81"/><line class="g" x1="140.92" y1="266.37" x2="126.4" y2="304.81"/><line class="g" x1="140.92" y1="266.37" x2="155.45" y2="304.81"/><line class="g" x1="200.12" y1="266.37" x2="185.59" y2="304.81"/><line class="g" x1="198.86" y1="265.87" x2="214.64" y2="304.81"/><line class="g" x1="256.97" y1="266.37" x2="242.44" y2="304.81"/><line class="g" x1="256.97" y1="266.37" x2="271.5" y2="304.81"/><g><circle class="b" cx="10.01" cy="304.81" r="9.51"/><path class="c" d="M10.01,295.8c4.97,0,9.01,4.04,9.01,9.01s-4.04,9.01-9.01,9.01-9.01-4.04-9.01-9.01,4.04-9.01,9.01-9.01m0-1C4.48,294.8,0,299.28,0,304.81s4.48,10.01,10.01,10.01,10.01-4.48,10.01-10.01-4.48-10.01-10.01-10.01h0Z"/></g><g><circle class="b" cx="39.06" cy="304.81" r="9.51"/><path class="c" d="M39.06,295.8c4.97,0,9.01,4.04,9.01,9.01s-4.04,9.01-9.01,9.01-9.01-4.04-9.01-9.01,4.04-9.01,9.01-9.01m0-1c-5.53,0-10.01,4.48-10.01,10.01s4.48,10.01,10.01,10.01,10.01-4.48,10.01-10.01-4.48-10.01-10.01-10.01h0Z"/></g><g><circle class="b" cx="69.42" cy="304.81" r="9.51"/><path class="c" d="M69.42,295.8c4.97,0,9.01,4.04,9.01,9.01s-4.04,9.01-9.01,9.01-9.01-4.04-9.01-9.01,4.04-9.01,9.01-9.01m0-1c-5.53,0-10.01,4.48-10.01,10.01s4.48,10.01,10.01,10.01,10.01-4.48,10.01-10.01-4.48-10.01-10.01-10.01h0Z"/></g><g><path class="b" d="M98.47,314.32c-5.25,0-9.51-4.27-9.51-9.51s4.27-9.51,9.51-9.51,9.51,4.27,9.51,9.51-4.27,9.51-9.51,9.51Z"/><path class="c" d="M98.47,295.8c4.97,0,9.01,4.04,9.01,9.01s-4.04,9.01-9.01,9.01-9.01-4.04-9.01-9.01,4.04-9.01,9.01-9.01m0-1c-5.53,0-10.01,4.48-10.01,10.01s4.48,10.01,10.01,10.01,10.01-4.48,10.01-10.01-4.48-10.01-10.01-10.01h0Z"/></g><g><circle class="b" cx="126.4" cy="304.81" r="9.51"/><path class="c" d="M126.4,295.8c4.97,0,9.01,4.04,9.01,9.01s-4.04,9.01-9.01,9.01-9.01-4.04-9.01-9.01,4.04-9.01,9.01-9.01m0-1c-5.53,0-10.01,4.48-10.01,10.01s4.48,10.01,10.01,10.01,10.01-4.48,10.01-10.01-4.48-10.01-10.01-10.01h0Z"/></g><g><circle class="b" cx="155.45" cy="304.81" r="9.51"/><path class="c" d="M155.45,295.8c4.97,0,9.01,4.04,9.01,9.01s-4.04,9.01-9.01,9.01-9.01-4.04-9.01-9.01,4.04-9.01,9.01-9.01m0-1c-5.53,0-10.01,4.48-10.01,10.01s4.48,10.01,10.01,10.01,10.01-4.48,10.01-10.01-4.48-10.01-10.01-10.01h0Z"/></g><g><circle class="b" cx="185.59" cy="304.81" r="9.51"/><path class="c" d="M185.59,295.8c4.97,0,9.01,4.04,9.01,9.01s-4.04,9.01-9.01,9.01-9.01-4.04-9.01-9.01,4.04-9.01,9.01-9.01m0-1c-5.53,0-10.01,4.48-10.01,10.01s4.48,10.01,10.01,10.01,10.01-4.48,10.01-10.01-4.48-10.01-10.01-10.01h0Z"/></g><g><circle class="b" cx="214.65" cy="304.81" r="9.51"/><path class="c" d="M214.64,295.8c4.97,0,9.01,4.04,9.01,9.01s-4.04,9.01-9.01,9.01-9.01-4.04-9.01-9.01,4.04-9.01,9.01-9.01m0-1c-5.53,0-10.01,4.48-10.01,10.01s4.48,10.01,10.01,10.01,10.01-4.48,10.01-10.01-4.48-10.01-10.01-10.01h0Z"/></g><g><circle class="b" cx="242.44" cy="304.81" r="9.51"/><path class="c" d="M242.44,295.8c4.97,0,9.01,4.04,9.01,9.01s-4.04,9.01-9.01,9.01-9.01-4.04-9.01-9.01,4.04-9.01,9.01-9.01m0-1c-5.53,0-10.01,4.48-10.01,10.01s4.48,10.01,10.01,10.01,10.01-4.48,10.01-10.01-4.48-10.01-10.01-10.01h0Z"/></g><g><circle class="b" cx="271.5" cy="304.81" r="9.51"/><path class="c" d="M271.5,295.8c4.97,0,9.01,4.04,9.01,9.01s-4.04,9.01-9.01,9.01-9.01-4.04-9.01-9.01,4.04-9.01,9.01-9.01m0-1c-5.53,0-10.01,4.48-10.01,10.01s4.48,10.01,10.01,10.01,10.01-4.48,10.01-10.01-4.48-10.01-10.01-10.01h0Z"/></g><g><circle class="e" cx="336.01" cy="304.81" r="9.51"/><path class="c" d="M336.01,295.8c4.97,0,9.01,4.04,9.01,9.01s-4.04,9.01-9.01,9.01-9.01-4.04-9.01-9.01,4.04-9.01,9.01-9.01m0-1c-5.53,0-10.01,4.48-10.01,10.01s4.48,10.01,10.01,10.01,10.01-4.48,10.01-10.01-4.48-10.01-10.01-10.01h0Z"/></g><rect class="f" x="8.69" y="250.53" width="31.7" height="31.7" rx="6.22" ry="6.22" transform="translate(49.08 532.75) rotate(-180)"/><rect class="f" x="68.1" y="250.53" width="31.7" height="31.7" rx="6.22" ry="6.22"/><rect class="f" x="125.08" y="250.53" width="31.7" height="31.7" rx="6.22" ry="6.22"/><rect class="f" x="184.27" y="250.53" width="31.7" height="31.7" rx="6.22" ry="6.22"/><g><rect class="e" x="241.62" y="251.03" width="30.7" height="30.7" rx="5.72" ry="5.72"/><path class="c" d="M266.6,251.53c2.88,0,5.22,2.34,5.22,5.22v19.27c0,2.88-2.34,5.22-5.22,5.22h-19.27c-2.88,0-5.22-2.34-5.22-5.22v-19.27c0-2.88,2.34-5.22,5.22-5.22h19.27m0-1h-19.27c-3.43,0-6.22,2.78-6.22,6.22v19.27c0,3.43,2.78,6.22,6.22,6.22h19.27c3.43,0,6.22-2.78,6.22-6.22v-19.27c0-3.43-2.78-6.22-6.22-6.22h0Z"/></g><g><path class="c" d="M416.06,305.45v-7.2h.89v6.36h3.34v.85h-4.23Z"/><path class="c" d="M423.48,305.6c-.53,0-.99-.12-1.39-.35-.39-.23-.7-.56-.92-.98-.22-.42-.33-.91-.33-1.48s.11-1.1,.32-1.53,.52-.77,.91-1c.39-.24,.84-.35,1.37-.35s1.01,.12,1.39,.38,.67,.61,.86,1.07c.19,.46,.27,1.02,.25,1.65h-.9v-.32c0-.66-.14-1.16-.4-1.49-.26-.33-.65-.49-1.16-.49-.55,0-.97,.18-1.25,.53-.29,.35-.43,.86-.43,1.52s.14,1.13,.43,1.48c.29,.35,.69,.53,1.22,.53,.36,0,.67-.08,.93-.25,.26-.16,.47-.4,.62-.71l.86,.29c-.21,.48-.53,.85-.95,1.11-.42,.26-.89,.39-1.42,.39Zm-2-2.6v-.71h3.99v.71h-3.99Z"/><path class="c" d="M428.48,305.6c-.4,0-.74-.07-1.01-.22s-.48-.34-.62-.59c-.14-.24-.21-.51-.21-.8s.05-.53,.16-.74c.11-.21,.26-.38,.46-.52,.2-.14,.43-.25,.71-.33,.26-.07,.54-.13,.86-.18,.32-.05,.64-.1,.97-.14,.33-.04,.63-.08,.92-.12l-.32,.19c0-.48-.09-.83-.29-1.06-.2-.23-.55-.35-1.04-.35-.33,0-.61,.07-.86,.22-.25,.15-.42,.39-.52,.72l-.85-.25c.13-.47,.38-.84,.76-1.12,.37-.27,.86-.41,1.47-.41,.49,0,.91,.09,1.26,.26s.6,.44,.76,.79c.08,.17,.12,.35,.15,.54,.02,.2,.03,.4,.03,.61v3.34h-.79v-1.29l.18,.12c-.2,.44-.49,.77-.85,.99s-.81,.34-1.33,.34Zm.13-.75c.32,0,.6-.06,.83-.17,.24-.12,.42-.27,.57-.46,.14-.19,.24-.39,.28-.62,.05-.17,.08-.35,.08-.56s0-.36,0-.47l.31,.14c-.29,.04-.58,.08-.86,.11-.28,.04-.54,.08-.79,.12s-.47,.09-.67,.15c-.15,.05-.28,.11-.41,.18-.13,.07-.23,.17-.31,.28s-.12,.26-.12,.43c0,.15,.04,.29,.11,.42,.08,.13,.19,.24,.35,.32,.16,.08,.37,.12,.62,.12Z"/><path class="c" d="M432.17,300.78v-.73h3.23v.73h-3.23Zm.92,4.67v-5.7c0-.14,0-.28,.02-.43,.01-.14,.04-.29,.09-.42s.12-.27,.23-.38c.12-.14,.26-.23,.41-.29s.3-.09,.45-.11c.15-.01,.3-.02,.43-.02h.69v.74h-.64c-.26,0-.46,.06-.59,.19s-.19,.32-.19,.58v5.84h-.89Z"/><path class="c" d="M438.2,305.45v-7.2h.9l3.76,5.62v-5.62h.9v7.2h-.9l-3.76-5.63v5.63h-.9Z"/><path class="c" d="M447.45,305.6c-.54,0-1-.12-1.39-.37-.39-.24-.69-.58-.9-1.01-.21-.43-.31-.92-.31-1.48s.11-1.06,.32-1.49c.21-.43,.52-.76,.91-1s.85-.36,1.38-.36,1,.12,1.39,.36c.39,.24,.69,.58,.9,1,.21,.43,.31,.92,.31,1.48s-.11,1.06-.32,1.49-.51,.76-.9,1c-.39,.24-.85,.36-1.39,.36Zm0-.85c.56,0,.98-.19,1.25-.56s.41-.86,.41-1.45-.14-1.1-.42-1.46c-.28-.36-.69-.54-1.25-.54-.38,0-.69,.08-.93,.25-.24,.17-.43,.41-.54,.71-.12,.3-.18,.65-.18,1.04,0,.61,.14,1.09,.42,1.46,.28,.37,.69,.55,1.24,.55Z"/><path class="c" d="M453.28,305.6c-.5,0-.94-.13-1.29-.38-.36-.25-.64-.59-.83-1.02-.2-.43-.29-.92-.29-1.46s.1-1.03,.29-1.46,.47-.77,.83-1.02c.36-.25,.79-.37,1.29-.37s.94,.12,1.28,.37,.61,.58,.79,1.01c.18,.43,.27,.92,.27,1.46s-.09,1.02-.27,1.45c-.18,.43-.44,.77-.79,1.02-.35,.25-.77,.38-1.28,.38Zm.11-.82c.36,0,.66-.09,.9-.26,.23-.18,.41-.42,.52-.72,.11-.31,.17-.66,.17-1.05s-.06-.75-.17-1.06c-.11-.3-.28-.54-.51-.71-.23-.17-.52-.26-.88-.26s-.67,.09-.91,.27c-.24,.18-.42,.42-.53,.73s-.17,.65-.17,1.03,.06,.73,.17,1.04c.12,.31,.29,.55,.53,.73,.23,.18,.53,.27,.88,.27Zm1.58,.67v-3.98h-.1v-3.23h.89v7.2h-.79Z"/><path class="c" d="M459.5,305.6c-.53,0-.99-.12-1.39-.35-.39-.23-.7-.56-.92-.98-.22-.42-.33-.91-.33-1.48s.11-1.1,.32-1.53,.52-.77,.91-1c.39-.24,.84-.35,1.37-.35s1.01,.12,1.39,.38,.67,.61,.86,1.07c.19,.46,.27,1.02,.25,1.65h-.9v-.32c0-.66-.14-1.16-.4-1.49-.26-.33-.65-.49-1.16-.49-.55,0-.97,.18-1.25,.53-.29,.35-.43,.86-.43,1.52s.14,1.13,.43,1.48c.29,.35,.69,.53,1.22,.53,.36,0,.67-.08,.93-.25,.26-.16,.47-.4,.62-.71l.86,.29c-.21,.48-.53,.85-.95,1.11-.42,.26-.89,.39-1.42,.39Zm-2-2.6v-.71h3.99v.71h-3.99Z"/><path class="c" d="M465.11,305.59c-.64,0-1.17-.14-1.58-.42-.41-.28-.66-.68-.76-1.18l.91-.14c.07,.29,.24,.53,.51,.7,.26,.17,.59,.26,.98,.26s.66-.08,.87-.23c.21-.15,.32-.36,.32-.62,0-.15-.04-.28-.11-.37s-.21-.18-.43-.27c-.22-.08-.55-.18-.99-.3-.48-.13-.85-.26-1.12-.39s-.47-.29-.58-.48c-.12-.18-.17-.4-.17-.66,0-.32,.09-.59,.26-.83,.17-.24,.42-.42,.73-.55s.67-.2,1.09-.2,.78,.07,1.1,.2,.58,.31,.78,.55,.32,.52,.35,.83l-.91,.17c-.04-.29-.18-.52-.42-.68-.24-.17-.54-.26-.91-.27-.35-.01-.63,.05-.85,.19-.22,.14-.33,.32-.33,.55,0,.13,.04,.24,.12,.33,.08,.09,.23,.18,.46,.26,.22,.08,.54,.18,.97,.29,.48,.12,.85,.25,1.13,.39,.27,.14,.47,.31,.59,.5,.12,.19,.18,.43,.18,.71,0,.52-.19,.93-.58,1.23-.38,.3-.91,.45-1.58,.45Z"/></g><g><path class="c" d="M415.96,267.64v-7.2h2.84c.07,0,.15,0,.25,0s.19,.02,.28,.03c.39,.06,.72,.19,.98,.4,.26,.21,.46,.47,.6,.78,.13,.31,.2,.66,.2,1.05s-.07,.73-.2,1.04-.33,.58-.6,.79c-.27,.21-.59,.34-.98,.4-.09,.01-.18,.02-.28,.03s-.18,0-.25,0h-1.96v2.66h-.89Zm.89-3.5h1.92c.06,0,.14,0,.22-.01,.08,0,.16-.02,.23-.03,.23-.05,.42-.15,.56-.29,.15-.14,.25-.31,.32-.5,.07-.19,.1-.39,.1-.59s-.03-.4-.1-.59c-.07-.19-.17-.36-.32-.5-.14-.14-.33-.24-.56-.29-.07-.02-.15-.03-.23-.04s-.15,0-.22,0h-1.92v2.85Z"/><path class="c" d="M423.45,267.8c-.4,0-.74-.07-1.01-.22s-.48-.34-.62-.59-.21-.51-.21-.8,.05-.53,.16-.74c.11-.21,.26-.38,.46-.52,.2-.14,.43-.25,.71-.33,.26-.07,.54-.13,.86-.18s.64-.1,.97-.14c.33-.04,.63-.08,.92-.12l-.32,.18c0-.48-.09-.83-.29-1.06-.2-.23-.55-.35-1.04-.35-.33,0-.61,.07-.86,.22-.25,.15-.42,.39-.52,.72l-.85-.25c.13-.47,.38-.84,.76-1.12,.37-.27,.86-.4,1.47-.4,.49,0,.91,.09,1.26,.26,.35,.18,.6,.44,.76,.79,.08,.17,.12,.35,.15,.54,.02,.2,.03,.4,.03,.61v3.34h-.79v-1.29l.18,.12c-.2,.44-.49,.77-.85,.99-.37,.22-.81,.34-1.33,.34Zm.13-.75c.32,0,.6-.06,.83-.17,.24-.12,.42-.27,.57-.46,.14-.19,.24-.39,.28-.62,.05-.17,.08-.35,.08-.56s0-.36,0-.47l.31,.13c-.29,.04-.58,.08-.86,.12-.28,.04-.54,.08-.79,.12-.25,.04-.47,.09-.67,.15-.15,.05-.28,.11-.41,.18-.13,.07-.23,.17-.31,.28s-.12,.26-.12,.43c0,.15,.04,.29,.11,.42,.08,.13,.19,.24,.35,.32,.16,.08,.37,.12,.62,.12Z"/><path class="c" d="M427.54,267.64v-5.4h.79v1.3l-.13-.17c.06-.17,.15-.32,.25-.46,.1-.14,.22-.25,.34-.34,.14-.11,.3-.2,.47-.26,.18-.06,.36-.1,.54-.11,.18-.01,.36,0,.52,.04v.83c-.19-.05-.39-.06-.62-.04s-.43,.11-.62,.25c-.17,.12-.31,.27-.4,.45s-.16,.37-.2,.57c-.04,.21-.06,.41-.06,.63v2.71h-.89Z"/><path class="c" d="M433.52,267.8c-.53,0-.99-.12-1.39-.35-.39-.23-.7-.56-.92-.98-.22-.42-.33-.91-.33-1.48s.11-1.1,.32-1.53,.52-.77,.91-1c.39-.24,.84-.35,1.37-.35s1.01,.12,1.39,.38,.67,.61,.86,1.07c.19,.46,.27,1.02,.25,1.66h-.9v-.32c0-.66-.14-1.16-.4-1.49-.26-.33-.65-.49-1.16-.49-.55,0-.97,.18-1.25,.53-.29,.35-.43,.86-.43,1.52s.14,1.13,.43,1.48c.29,.35,.69,.53,1.22,.53,.36,0,.67-.08,.93-.25,.26-.16,.47-.4,.62-.71l.86,.29c-.21,.48-.53,.85-.95,1.11-.42,.26-.89,.39-1.42,.39Zm-2-2.6v-.71h3.99v.71h-3.99Z"/><path class="c" d="M436.93,267.64v-5.4h.8v1.45h.1v3.96h-.9Zm3.85,0v-2.71c0-.26-.02-.5-.07-.74s-.12-.45-.24-.64c-.11-.19-.26-.34-.45-.45-.19-.11-.43-.17-.71-.17-.22,0-.43,.04-.61,.11s-.34,.19-.47,.34-.23,.35-.3,.58c-.07,.23-.11,.5-.11,.82l-.58-.18c0-.52,.09-.97,.28-1.35,.19-.38,.45-.66,.79-.86,.34-.2,.74-.3,1.21-.3,.35,0,.65,.05,.9,.17,.25,.11,.45,.26,.61,.44,.16,.18,.29,.38,.39,.61,.09,.23,.16,.45,.2,.69s.06,.45,.06,.66v2.99h-.9Z"/><path class="c" d="M442.38,262.98v-.74h3.62v.74h-3.62Zm3.62,4.67c-.32,.06-.64,.09-.95,.08s-.59-.07-.83-.19c-.24-.12-.43-.29-.55-.54-.11-.21-.16-.43-.17-.65,0-.22-.01-.47-.01-.74v-4.86h.89v4.82c0,.22,0,.41,0,.56,0,.16,.04,.29,.1,.41,.12,.21,.31,.34,.57,.38,.26,.04,.58,.03,.95-.03v.77Z"/><path class="c" d="M449.13,267.79c-.64,0-1.17-.14-1.58-.42-.41-.28-.66-.68-.76-1.18l.91-.15c.07,.29,.24,.53,.51,.7,.26,.17,.59,.26,.98,.26s.66-.08,.87-.23,.32-.36,.32-.62c0-.15-.04-.28-.11-.37s-.21-.18-.43-.27c-.22-.08-.55-.18-.99-.3-.48-.13-.85-.26-1.12-.39s-.47-.29-.58-.48c-.12-.18-.17-.4-.17-.66,0-.32,.09-.59,.26-.83,.17-.24,.42-.42,.73-.55s.67-.19,1.09-.19,.78,.06,1.1,.19,.58,.31,.78,.55,.32,.52,.35,.83l-.91,.17c-.04-.29-.18-.52-.42-.68-.24-.17-.54-.25-.91-.26-.35-.01-.63,.05-.85,.18-.22,.14-.33,.32-.33,.55,0,.13,.04,.24,.12,.33,.08,.09,.23,.18,.46,.27,.22,.08,.54,.18,.97,.29,.48,.12,.85,.25,1.13,.39,.27,.14,.47,.31,.59,.5,.12,.19,.18,.43,.18,.71,0,.52-.19,.93-.58,1.23-.38,.3-.91,.45-1.58,.45Z"/></g><g><path class="c" d="M415.96,229.84v-7.2h2.84c.07,0,.15,0,.25,0s.19,.02,.28,.03c.39,.06,.72,.19,.98,.4s.46,.47,.6,.78c.13,.32,.2,.66,.2,1.05s-.07,.73-.2,1.04-.33,.58-.6,.79c-.27,.21-.59,.34-.98,.4-.09,.01-.18,.02-.28,.03s-.18,0-.25,0h-1.96v2.66h-.89Zm.89-3.5h1.92c.06,0,.14,0,.22-.01,.08,0,.16-.02,.23-.03,.23-.05,.42-.15,.56-.29,.15-.14,.25-.31,.32-.5,.07-.19,.1-.39,.1-.59s-.03-.4-.1-.59c-.07-.19-.17-.36-.32-.5-.14-.14-.33-.24-.56-.29-.07-.02-.15-.03-.23-.04-.08,0-.15,0-.22,0h-1.92v2.85Z"/><path class="c" d="M424.41,229.99c-.53,0-.99-.12-1.39-.35-.39-.23-.7-.56-.92-.98-.22-.42-.33-.91-.33-1.48s.11-1.1,.32-1.53,.52-.77,.91-1c.39-.24,.84-.35,1.37-.35s1.01,.12,1.39,.38,.67,.61,.86,1.07c.19,.46,.27,1.02,.25,1.66h-.9v-.32c0-.66-.14-1.16-.4-1.49-.26-.33-.65-.49-1.16-.49-.55,0-.97,.18-1.25,.53-.29,.35-.43,.86-.43,1.52s.14,1.13,.43,1.48c.29,.35,.69,.53,1.22,.53,.36,0,.67-.08,.93-.24,.26-.16,.47-.4,.62-.71l.86,.29c-.21,.48-.53,.85-.95,1.11-.42,.26-.89,.39-1.42,.39Zm-2-2.6v-.71h3.99v.71h-3.99Z"/><path class="c" d="M429.41,229.99c-.4,0-.74-.07-1.01-.22s-.48-.34-.62-.59c-.14-.24-.21-.51-.21-.8s.05-.53,.16-.74c.11-.21,.26-.38,.46-.52,.2-.14,.43-.25,.71-.33,.26-.07,.54-.13,.86-.18s.64-.1,.97-.14c.33-.04,.63-.08,.92-.12l-.32,.18c0-.48-.09-.83-.29-1.06-.2-.23-.55-.35-1.04-.35-.33,0-.61,.07-.86,.22-.25,.15-.42,.39-.52,.72l-.85-.25c.13-.47,.38-.85,.76-1.12,.37-.27,.86-.41,1.47-.41,.49,0,.91,.09,1.26,.26,.35,.17,.6,.44,.76,.79,.08,.17,.12,.35,.15,.54,.02,.2,.03,.4,.03,.61v3.34h-.79v-1.29l.18,.12c-.2,.44-.49,.77-.85,.99-.37,.22-.81,.34-1.33,.34Zm.13-.75c.32,0,.6-.06,.83-.17,.24-.12,.42-.27,.57-.46,.14-.19,.24-.39,.28-.62,.05-.17,.08-.35,.08-.56s0-.36,0-.47l.31,.14c-.29,.04-.58,.08-.86,.11-.28,.04-.54,.08-.79,.12-.25,.04-.47,.09-.67,.15-.15,.05-.28,.11-.41,.18-.13,.07-.23,.17-.31,.28s-.12,.26-.12,.43c0,.15,.04,.29,.11,.42s.19,.24,.35,.32c.16,.08,.37,.12,.62,.12Z"/><path class="c" d="M433.49,229.84v-7.2h.9v4.4l2.27-2.6h1.15l-2.38,2.7,2.67,2.7h-1.25l-2.46-2.6v2.6h-.9Z"/><path class="c" d="M440.54,229.99c-.64,0-1.17-.14-1.58-.42-.41-.28-.66-.68-.76-1.18l.91-.15c.07,.29,.24,.53,.51,.7,.26,.17,.59,.26,.98,.26s.66-.08,.87-.23,.32-.36,.32-.62c0-.15-.04-.28-.11-.37-.07-.1-.21-.18-.43-.27-.22-.08-.55-.18-.99-.3-.48-.13-.85-.26-1.12-.39s-.47-.29-.58-.47c-.12-.18-.17-.4-.17-.66,0-.32,.09-.59,.26-.83,.17-.24,.42-.42,.73-.55,.31-.13,.67-.19,1.09-.19s.78,.07,1.1,.19c.32,.13,.58,.31,.78,.55s.32,.52,.35,.83l-.91,.17c-.04-.29-.18-.52-.42-.69-.24-.17-.54-.25-.91-.26-.35-.01-.63,.05-.85,.18-.22,.14-.33,.32-.33,.55,0,.13,.04,.24,.12,.34,.08,.09,.23,.18,.46,.26,.22,.08,.54,.18,.97,.29,.48,.12,.85,.25,1.13,.39,.27,.14,.47,.31,.59,.5,.12,.19,.18,.43,.18,.71,0,.52-.19,.93-.58,1.23-.38,.3-.91,.45-1.58,.45Z"/></g><g><path class="c" d="M415.96,192.04v-7.2h2.84c.07,0,.15,0,.25,0s.19,.02,.28,.03c.39,.06,.72,.19,.98,.4s.46,.47,.6,.78c.13,.32,.2,.66,.2,1.05s-.07,.73-.2,1.04c-.13,.32-.33,.58-.6,.79-.27,.21-.59,.34-.98,.4-.09,.01-.18,.02-.28,.03s-.18,0-.25,0h-1.96v2.66h-.89Zm.89-3.5h1.92c.06,0,.14,0,.22,0s.16-.02,.23-.04c.23-.05,.42-.15,.56-.29,.15-.14,.25-.31,.32-.5,.07-.19,.1-.39,.1-.59s-.03-.4-.1-.59c-.07-.19-.17-.36-.32-.5-.14-.14-.33-.24-.56-.29-.07-.02-.15-.03-.23-.04-.08,0-.15,0-.22,0h-1.92v2.85Z"/><path class="c" d="M424.41,192.19c-.53,0-.99-.12-1.39-.35-.39-.24-.7-.56-.92-.99-.22-.42-.33-.91-.33-1.48s.11-1.1,.32-1.53,.52-.76,.91-1c.39-.24,.84-.35,1.37-.35s1.01,.12,1.39,.38,.67,.61,.86,1.07c.19,.46,.27,1.01,.25,1.65h-.9v-.32c0-.66-.14-1.16-.4-1.49-.26-.33-.65-.49-1.16-.49-.55,0-.97,.18-1.25,.53-.29,.35-.43,.86-.43,1.52s.14,1.13,.43,1.48c.29,.35,.69,.53,1.22,.53,.36,0,.67-.08,.93-.25,.26-.16,.47-.4,.62-.71l.86,.29c-.21,.48-.53,.85-.95,1.11-.42,.26-.89,.39-1.42,.39Zm-2-2.6v-.71h3.99v.71h-3.99Z"/><path class="c" d="M429.41,192.19c-.4,0-.74-.07-1.01-.22s-.48-.34-.62-.59c-.14-.24-.21-.51-.21-.8s.05-.53,.16-.74,.26-.38,.46-.52c.2-.14,.43-.25,.71-.33,.26-.07,.54-.13,.86-.18s.64-.1,.97-.14c.33-.04,.63-.08,.92-.12l-.32,.19c0-.48-.09-.83-.29-1.07-.2-.23-.55-.34-1.04-.34-.33,0-.61,.07-.86,.22-.25,.15-.42,.39-.52,.72l-.85-.25c.13-.47,.38-.85,.76-1.12,.37-.27,.86-.41,1.47-.41,.49,0,.91,.09,1.26,.26s.6,.44,.76,.79c.08,.17,.12,.35,.15,.54,.02,.2,.03,.4,.03,.61v3.34h-.79v-1.29l.18,.12c-.2,.44-.49,.77-.85,.99-.37,.22-.81,.33-1.33,.33Zm.13-.75c.32,0,.6-.06,.83-.17,.24-.11,.42-.27,.57-.46,.14-.19,.24-.39,.28-.62,.05-.17,.08-.35,.08-.56s0-.36,0-.47l.31,.14c-.29,.04-.58,.08-.86,.11-.28,.04-.54,.08-.79,.12-.25,.04-.47,.09-.67,.15-.15,.05-.28,.11-.41,.18-.13,.07-.23,.17-.31,.28-.08,.12-.12,.26-.12,.43,0,.15,.04,.29,.11,.42,.08,.13,.19,.24,.35,.33,.16,.08,.37,.12,.62,.12Z"/><path class="c" d="M433.49,192.04v-7.2h.9v4.4l2.27-2.6h1.15l-2.38,2.7,2.67,2.7h-1.25l-2.46-2.6v2.6h-.9Z"/><path class="c" d="M440.54,192.19c-.64,0-1.17-.14-1.58-.42-.41-.28-.66-.68-.76-1.18l.91-.14c.07,.29,.24,.53,.51,.7,.26,.17,.59,.26,.98,.26s.66-.08,.87-.23,.32-.36,.32-.62c0-.15-.04-.28-.11-.37-.07-.1-.21-.18-.43-.27-.22-.08-.55-.18-.99-.3-.48-.13-.85-.26-1.12-.4s-.47-.29-.58-.47c-.12-.18-.17-.4-.17-.66,0-.32,.09-.59,.26-.83,.17-.24,.42-.42,.73-.55s.67-.2,1.09-.2,.78,.07,1.1,.2,.58,.31,.78,.55c.2,.24,.32,.52,.35,.83l-.91,.17c-.04-.29-.18-.52-.42-.69-.24-.17-.54-.25-.91-.26-.35-.01-.63,.05-.85,.19-.22,.14-.33,.32-.33,.55,0,.13,.04,.24,.12,.33,.08,.09,.23,.18,.46,.26,.22,.08,.54,.18,.97,.29,.48,.12,.85,.25,1.13,.39,.27,.14,.47,.31,.59,.5,.12,.19,.18,.43,.18,.71,0,.52-.19,.93-.58,1.23-.38,.3-.91,.45-1.58,.45Z"/></g><g><path class="c" d="M415.96,154.24v-7.2h2.84c.07,0,.15,0,.25,0,.1,0,.19,.02,.28,.03,.39,.06,.72,.19,.98,.4s.46,.47,.6,.78c.13,.31,.2,.66,.2,1.05,0,.56-.15,1.04-.44,1.45s-.71,.66-1.28,.77l-.34,.05h-2.21v2.66h-.89Zm.89-3.5h1.92c.06,0,.14,0,.22-.01s.16-.02,.23-.03c.23-.05,.42-.15,.56-.29,.15-.14,.25-.31,.32-.5,.07-.19,.1-.39,.1-.59s-.03-.4-.1-.59c-.07-.19-.17-.36-.32-.5-.14-.14-.33-.24-.56-.29-.07-.02-.15-.03-.23-.04-.08,0-.15,0-.22,0h-1.92v2.85Zm3.4,3.5l-1.42-2.93,.88-.27,1.56,3.2h-1.02Z"/><path class="c" d="M424.67,154.39c-.54,0-1-.12-1.39-.37-.39-.24-.69-.58-.9-1.01s-.31-.92-.31-1.48,.11-1.06,.32-1.49c.21-.43,.52-.76,.91-1s.85-.36,1.38-.36,1,.12,1.39,.36c.39,.24,.69,.58,.9,1.01,.21,.43,.31,.92,.31,1.48s-.11,1.06-.32,1.49c-.21,.43-.51,.76-.9,1-.39,.24-.85,.36-1.39,.36Zm0-.84c.56,0,.98-.19,1.25-.56,.27-.37,.41-.86,.41-1.45s-.14-1.1-.42-1.46-.69-.54-1.25-.54c-.38,0-.69,.09-.93,.26-.24,.17-.43,.4-.54,.71-.12,.3-.18,.65-.18,1.04,0,.61,.14,1.09,.42,1.46,.28,.37,.69,.55,1.24,.55Z"/><path class="c" d="M430.67,154.39c-.54,0-1-.12-1.39-.37-.39-.24-.69-.58-.9-1.01s-.31-.92-.31-1.48,.11-1.06,.32-1.49c.21-.43,.52-.76,.91-1s.85-.36,1.38-.36,1,.12,1.39,.36c.39,.24,.69,.58,.9,1.01,.21,.43,.31,.92,.31,1.48s-.11,1.06-.32,1.49c-.21,.43-.51,.76-.9,1-.39,.24-.85,.36-1.39,.36Zm0-.84c.56,0,.98-.19,1.25-.56,.27-.37,.41-.86,.41-1.45s-.14-1.1-.42-1.46-.69-.54-1.25-.54c-.38,0-.69,.09-.93,.26-.24,.17-.43,.4-.54,.71-.12,.3-.18,.65-.18,1.04,0,.61,.14,1.09,.42,1.46,.28,.37,.69,.55,1.24,.55Z"/><path class="c" d="M433.78,149.58v-.74h3.62v.74h-3.62Zm3.62,4.66c-.32,.06-.64,.09-.95,.08s-.59-.07-.83-.19c-.24-.12-.43-.29-.55-.54-.11-.21-.16-.43-.17-.65,0-.22-.01-.47-.01-.74v-4.86h.89v4.82c0,.22,0,.41,0,.57s.04,.29,.1,.41c.12,.21,.31,.34,.57,.38s.58,.03,.95-.03v.76Z"/></g></svg>