<?xml version="1.0" encoding="UTF-8"?><svg id="a" xmlns="http://www.w3.org/2000/svg" viewBox="0 0 512.26 216.35"><defs><style>.b{fill:#8ce085;}.c{fill:#accaff;}.d{fill:#363a3f;}.e{fill:#bdbdc4;}.e,.f{stroke:#363a3f;stroke-miterlimit:10;}.f{fill:none;}</style></defs><g><path class="b" d="M391.99,215.86c-6.89,0-12.49-5.6-12.49-12.49s5.6-12.49,12.49-12.49,12.49,5.6,12.49,12.49-5.6,12.49-12.49,12.49Z"/><path class="d" d="M391.99,191.37c6.61,0,11.99,5.38,11.99,11.99s-5.38,11.99-11.99,11.99-11.99-5.38-11.99-11.99,5.38-11.99,11.99-11.99m0-1c-7.18,0-12.99,5.82-12.99,12.99s5.82,12.99,12.99,12.99,12.99-5.82,12.99-12.99-5.82-12.99-12.99-12.99h0Z"/></g><line class="f" x1="24.54" y1="167.91" x2="112.33" y2="15.85"/><line class="f" x1="140.92" y1="167.91" x2="170.41" y2="116.46"/><line class="f" x1="200.12" y1="167.91" x2="112.33" y2="15.85"/><line class="f" x1="83.95" y1="167.91" x2="54.24" y2="116.46"/><rect class="e" x="8.69" y="152.06" width="31.7" height="31.7" rx="6.22" ry="6.22"/><g><rect class="c" x="96.98" y=".5" width="30.7" height="30.7" rx="5.72" ry="5.72"/><path class="d" d="M121.96,1c2.88,0,5.22,2.34,5.22,5.22V25.48c0,2.88-2.34,5.22-5.22,5.22h-19.27c-2.88,0-5.22-2.34-5.22-5.22V6.22c0-2.88,2.34-5.22,5.22-5.22h19.27M121.96,0h-19.27C99.26,0,96.48,2.78,96.48,6.22V25.48c0,3.43,2.78,6.22,6.22,6.22h19.27c3.43,0,6.22-2.78,6.22-6.22V6.22C128.18,2.78,125.39,0,121.96,0h0Z"/></g><rect class="e" x="38.39" y="100.61" width="31.7" height="31.7" rx="6.22" ry="6.22"/><rect class="e" x="154.57" y="100.61" width="31.7" height="31.7" rx="6.22" ry="6.22"/><g><path class="c" d="M384.09,77.46h15.8c2.54,0,4.6,2.06,4.6,4.6v15.79c0,2.54-2.06,4.6-4.6,4.6h-15.79c-2.54,0-4.6-2.06-4.6-4.6v-15.79c0-2.54,2.06-4.6,4.6-4.6Z"/><path class="d" d="M399.89,77.96c2.26,0,4.1,1.84,4.1,4.1v15.79c0,2.26-1.84,4.1-4.1,4.1h-15.79c-2.26,0-4.1-1.84-4.1-4.1v-15.79c0-2.26,1.84-4.1,4.1-4.1h15.79m0-1h-15.79c-2.81,0-5.1,2.28-5.1,5.1v15.79c0,2.81,2.28,5.1,5.1,5.1h15.79c2.81,0,5.1-2.28,5.1-5.1v-15.79c0-2.81-2.28-5.1-5.1-5.1h0Z"/></g><g><path class="c" d="M391.99,140.25c-6.89,0-12.49-5.6-12.49-12.49s5.6-12.49,12.49-12.49,12.49,5.6,12.49,12.49-5.6,12.49-12.49,12.49Z"/><path class="d" d="M391.99,115.77c6.61,0,11.99,5.38,11.99,11.99s-5.38,11.99-11.99,11.99-11.99-5.38-11.99-11.99,5.38-11.99,11.99-11.99m0-1c-7.18,0-12.99,5.82-12.99,12.99s5.82,12.99,12.99,12.99,12.99-5.82,12.99-12.99-5.82-12.99-12.99-12.99h0Z"/></g><rect class="e" x="379" y="152.57" width="25.99" height="25.99" rx="5.1" ry="5.1"/><line class="f" x1="24.54" y1="167.91" x2="10.01" y2="206.34"/><line class="f" x1="24.54" y1="167.91" x2="39.06" y2="206.34"/><line class="f" x1="83.95" y1="167.91" x2="69.42" y2="206.34"/><line class="f" x1="83.95" y1="167.91" x2="98.47" y2="206.34"/><line class="f" x1="140.92" y1="167.91" x2="126.4" y2="206.34"/><line class="f" x1="140.92" y1="167.91" x2="155.45" y2="206.34"/><line class="f" x1="200.12" y1="167.91" x2="185.59" y2="206.34"/><line class="f" x1="198.86" y1="167.4" x2="214.64" y2="206.34"/><line class="f" x1="256.97" y1="167.91" x2="242.44" y2="206.34"/><line class="f" x1="256.97" y1="167.91" x2="271.5" y2="206.34"/><g><circle class="b" cx="10.01" cy="206.34" r="9.51"/><path class="d" d="M10.01,197.33c4.97,0,9.01,4.04,9.01,9.01s-4.04,9.01-9.01,9.01-9.01-4.04-9.01-9.01,4.04-9.01,9.01-9.01m0-1C4.48,196.33,0,200.81,0,206.34s4.48,10.01,10.01,10.01,10.01-4.48,10.01-10.01-4.48-10.01-10.01-10.01h0Z"/></g><g><circle class="b" cx="39.06" cy="206.34" r="9.51"/><path class="d" d="M39.06,197.33c4.97,0,9.01,4.04,9.01,9.01s-4.04,9.01-9.01,9.01-9.01-4.04-9.01-9.01,4.04-9.01,9.01-9.01m0-1c-5.53,0-10.01,4.48-10.01,10.01s4.48,10.01,10.01,10.01,10.01-4.48,10.01-10.01-4.48-10.01-10.01-10.01h0Z"/></g><g><circle class="b" cx="69.42" cy="206.34" r="9.51"/><path class="d" d="M69.42,197.33c4.97,0,9.01,4.04,9.01,9.01s-4.04,9.01-9.01,9.01-9.01-4.04-9.01-9.01,4.04-9.01,9.01-9.01m0-1c-5.53,0-10.01,4.48-10.01,10.01s4.48,10.01,10.01,10.01,10.01-4.48,10.01-10.01-4.48-10.01-10.01-10.01h0Z"/></g><g><circle class="b" cx="98.47" cy="206.34" r="9.51"/><path class="d" d="M98.47,197.33c4.97,0,9.01,4.04,9.01,9.01s-4.04,9.01-9.01,9.01-9.01-4.04-9.01-9.01,4.04-9.01,9.01-9.01m0-1c-5.53,0-10.01,4.48-10.01,10.01s4.48,10.01,10.01,10.01,10.01-4.48,10.01-10.01-4.48-10.01-10.01-10.01h0Z"/></g><g><circle class="b" cx="126.4" cy="206.34" r="9.51"/><path class="d" d="M126.4,197.33c4.97,0,9.01,4.04,9.01,9.01s-4.04,9.01-9.01,9.01-9.01-4.04-9.01-9.01,4.04-9.01,9.01-9.01m0-1c-5.53,0-10.01,4.48-10.01,10.01s4.48,10.01,10.01,10.01,10.01-4.48,10.01-10.01-4.48-10.01-10.01-10.01h0Z"/></g><g><circle class="b" cx="155.45" cy="206.34" r="9.51"/><path class="d" d="M155.45,197.33c4.97,0,9.01,4.04,9.01,9.01s-4.04,9.01-9.01,9.01-9.01-4.04-9.01-9.01,4.04-9.01,9.01-9.01m0-1c-5.53,0-10.01,4.48-10.01,10.01s4.48,10.01,10.01,10.01,10.01-4.48,10.01-10.01-4.48-10.01-10.01-10.01h0Z"/></g><g><circle class="b" cx="185.59" cy="206.34" r="9.51"/><path class="d" d="M185.59,197.33c4.97,0,9.01,4.04,9.01,9.01s-4.04,9.01-9.01,9.01-9.01-4.04-9.01-9.01,4.04-9.01,9.01-9.01m0-1c-5.53,0-10.01,4.48-10.01,10.01s4.48,10.01,10.01,10.01,10.01-4.48,10.01-10.01-4.48-10.01-10.01-10.01h0Z"/></g><g><circle class="b" cx="214.64" cy="206.34" r="9.51"/><path class="d" d="M214.64,197.33c4.97,0,9.01,4.04,9.01,9.01s-4.04,9.01-9.01,9.01-9.01-4.04-9.01-9.01,4.04-9.01,9.01-9.01m0-1c-5.53,0-10.01,4.48-10.01,10.01s4.48,10.01,10.01,10.01,10.01-4.48,10.01-10.01-4.48-10.01-10.01-10.01h0Z"/></g><g><circle class="b" cx="242.44" cy="206.34" r="9.51"/><path class="d" d="M242.44,197.33c4.97,0,9.01,4.04,9.01,9.01s-4.04,9.01-9.01,9.01-9.01-4.04-9.01-9.01,4.04-9.01,9.01-9.01m0-1c-5.53,0-10.01,4.48-10.01,10.01s4.48,10.01,10.01,10.01,10.01-4.48,10.01-10.01-4.48-10.01-10.01-10.01h0Z"/></g><g><circle class="b" cx="271.49" cy="206.34" r="9.51"/><path class="d" d="M271.5,197.33c4.97,0,9.01,4.04,9.01,9.01s-4.04,9.01-9.01,9.01-9.01-4.04-9.01-9.01,4.04-9.01,9.01-9.01m0-1c-5.53,0-10.01,4.48-10.01,10.01s4.48,10.01,10.01,10.01,10.01-4.48,10.01-10.01-4.48-10.01-10.01-10.01h0Z"/></g><g><circle class="c" cx="336.01" cy="206.34" r="9.51"/><path class="d" d="M336.01,197.33c4.97,0,9.01,4.04,9.01,9.01s-4.04,9.01-9.01,9.01-9.01-4.04-9.01-9.01,4.04-9.01,9.01-9.01m0-1c-5.53,0-10.01,4.48-10.01,10.01s4.48,10.01,10.01,10.01,10.01-4.48,10.01-10.01-4.48-10.01-10.01-10.01h0Z"/></g><rect class="e" x="8.69" y="152.06" width="31.7" height="31.7" rx="6.22" ry="6.22" transform="translate(49.08 335.81) rotate(-180)"/><rect class="e" x="68.1" y="152.06" width="31.7" height="31.7" rx="6.22" ry="6.22"/><rect class="e" x="125.08" y="152.06" width="31.7" height="31.7" rx="6.22" ry="6.22"/><rect class="e" x="184.27" y="152.06" width="31.7" height="31.7" rx="6.22" ry="6.22"/><g><rect class="c" x="241.62" y="152.56" width="30.7" height="30.7" rx="5.72" ry="5.72"/><path class="d" d="M266.6,153.06c2.88,0,5.22,2.34,5.22,5.22v19.27c0,2.88-2.34,5.22-5.22,5.22h-19.27c-2.88,0-5.22-2.34-5.22-5.22v-19.27c0-2.88,2.34-5.22,5.22-5.22h19.27m0-1h-19.27c-3.43,0-6.22,2.78-6.22,6.22v19.27c0,3.43,2.78,6.22,6.22,6.22h19.27c3.43,0,6.22-2.78,6.22-6.22v-19.27c0-3.43-2.78-6.22-6.22-6.22h0Z"/></g><g><path class="d" d="M416.06,206.98v-7.2h1.21v6.07h3.18v1.13h-4.38Z"/><path class="d" d="M423.75,207.13c-.55,0-1.03-.12-1.44-.36s-.74-.57-.97-.99c-.23-.42-.35-.9-.35-1.45,0-.59,.11-1.1,.34-1.54s.54-.77,.94-1.01,.87-.36,1.4-.36c.56,0,1.04,.13,1.43,.39,.39,.26,.68,.63,.87,1.11,.19,.48,.26,1.04,.21,1.68h-1.19v-.44c0-.59-.11-1.01-.31-1.28-.2-.27-.52-.41-.96-.41-.49,0-.86,.15-1.1,.46-.24,.31-.36,.75-.36,1.34,0,.55,.12,.97,.36,1.27,.24,.3,.59,.45,1.05,.45,.3,0,.55-.07,.77-.2s.38-.32,.5-.57l1.19,.36c-.21,.49-.53,.87-.96,1.14-.43,.27-.91,.41-1.43,.41Zm-1.86-2.52v-.91h3.71v.91h-3.71Z"/><path class="d" d="M428.72,207.13c-.39,0-.72-.07-.99-.22-.27-.15-.47-.35-.61-.59-.14-.25-.21-.52-.21-.82,0-.26,.04-.49,.13-.7,.09-.21,.22-.39,.4-.54,.18-.15,.41-.28,.7-.37,.22-.07,.47-.13,.76-.19s.61-.11,.95-.16c.34-.05,.7-.1,1.07-.16l-.43,.25c0-.37-.08-.65-.25-.83-.17-.18-.46-.26-.86-.26-.24,0-.48,.06-.71,.17s-.38,.31-.47,.58l-1.1-.34c.13-.46,.39-.82,.76-1.1,.38-.28,.88-.42,1.52-.42,.48,0,.9,.08,1.27,.23,.37,.16,.64,.41,.81,.77,.1,.19,.16,.38,.17,.58,.02,.2,.03,.41,.03,.65v3.32h-1.05v-1.17l.17,.19c-.24,.39-.53,.68-.85,.86-.33,.18-.73,.27-1.22,.27Zm.24-.96c.27,0,.51-.05,.7-.14s.35-.21,.46-.36c.12-.14,.19-.27,.23-.39,.06-.15,.1-.33,.11-.53,0-.2,.01-.36,.01-.48l.37,.11c-.36,.06-.67,.11-.93,.15-.26,.04-.48,.08-.67,.12-.19,.04-.35,.08-.5,.13-.14,.05-.26,.11-.36,.17s-.17,.14-.22,.23c-.05,.09-.08,.19-.08,.3,0,.13,.03,.25,.1,.35,.07,.1,.16,.18,.29,.24,.13,.06,.29,.09,.48,.09Z"/><path class="d" d="M432.57,202.52v-.95h3.38v.95h-3.38Zm.87,4.46v-5.49c0-.14,0-.29,.01-.45,.01-.17,.04-.33,.08-.49,.05-.16,.13-.31,.26-.44,.15-.17,.32-.29,.5-.35,.18-.07,.35-.1,.53-.11,.17,0,.33-.01,.46-.01h.67v.98h-.62c-.23,0-.4,.06-.51,.17-.11,.11-.17,.27-.17,.45v5.75h-1.21Z"/><path class="d" d="M438.75,206.98v-7.2h1.22l3.34,5.08v-5.08h1.22v7.2h-1.22l-3.34-5.08v5.08h-1.22Z"/><path class="d" d="M448.32,207.13c-.54,0-1.01-.12-1.42-.37-.4-.24-.72-.58-.94-1.01s-.33-.92-.33-1.48,.11-1.06,.34-1.49,.54-.76,.94-1,.87-.36,1.4-.36,1.02,.12,1.42,.36c.4,.24,.72,.58,.94,1.01,.22,.43,.33,.92,.33,1.48s-.11,1.05-.34,1.48c-.22,.43-.54,.76-.94,1-.4,.24-.88,.36-1.42,.36Zm0-1.13c.48,0,.84-.16,1.07-.48,.23-.32,.35-.73,.35-1.24s-.12-.94-.35-1.25c-.24-.31-.59-.47-1.07-.47-.32,0-.59,.07-.8,.22-.21,.15-.36,.35-.46,.61-.1,.26-.15,.56-.15,.9,0,.52,.12,.94,.36,1.25,.24,.31,.59,.47,1.05,.47Z"/><path class="d" d="M454.28,207.13c-.5,0-.93-.12-1.3-.38-.37-.25-.66-.59-.86-1.02s-.3-.92-.3-1.46,.1-1.03,.31-1.46c.21-.43,.5-.77,.87-1.01s.82-.37,1.33-.37,.94,.12,1.29,.37c.35,.25,.61,.59,.79,1.02s.27,.92,.27,1.46-.09,1.02-.27,1.45-.45,.77-.8,1.02c-.36,.25-.8,.38-1.33,.38Zm.18-1.08c.32,0,.58-.07,.78-.22,.2-.15,.34-.36,.44-.62s.14-.58,.14-.92-.05-.66-.14-.93c-.09-.26-.23-.47-.43-.62s-.44-.22-.75-.22c-.32,0-.59,.08-.8,.24s-.37,.37-.46,.64c-.1,.27-.15,.57-.15,.89s.05,.63,.15,.9c.1,.27,.25,.48,.45,.64,.2,.16,.46,.23,.77,.23Zm1.36,.93v-3.79h-.15v-3.41h1.21v7.2h-1.06Z"/><path class="d" d="M460.74,207.13c-.55,0-1.03-.12-1.44-.36s-.74-.57-.97-.99c-.23-.42-.35-.9-.35-1.45,0-.59,.11-1.1,.34-1.54s.54-.77,.94-1.01,.87-.36,1.4-.36c.56,0,1.04,.13,1.43,.39,.39,.26,.68,.63,.87,1.11,.19,.48,.26,1.04,.21,1.68h-1.19v-.44c0-.59-.11-1.01-.31-1.28-.2-.27-.52-.41-.96-.41-.49,0-.86,.15-1.1,.46-.24,.31-.36,.75-.36,1.34,0,.55,.12,.97,.36,1.27,.24,.3,.59,.45,1.05,.45,.3,0,.55-.07,.77-.2s.38-.32,.5-.57l1.19,.36c-.21,.49-.53,.87-.96,1.14-.43,.27-.91,.41-1.43,.41Zm-1.86-2.52v-.91h3.71v.91h-3.71Z"/><path class="d" d="M466.39,207.13c-.67,0-1.21-.15-1.62-.45-.42-.3-.67-.72-.76-1.27l1.23-.19c.06,.27,.2,.48,.42,.63s.49,.23,.82,.23c.29,0,.51-.06,.67-.17,.16-.12,.24-.27,.24-.47,0-.12-.03-.22-.09-.3s-.19-.15-.38-.22c-.2-.07-.5-.16-.9-.26-.45-.12-.81-.25-1.08-.39-.27-.14-.46-.3-.58-.49-.12-.19-.17-.42-.17-.69,0-.34,.09-.63,.26-.88s.42-.44,.74-.58,.69-.2,1.12-.2,.79,.06,1.12,.19,.59,.32,.79,.56c.2,.24,.32,.52,.37,.84l-1.23,.22c-.03-.23-.13-.41-.31-.54-.18-.13-.42-.21-.71-.22-.28-.02-.51,.03-.68,.13-.17,.1-.26,.24-.26,.43,0,.1,.03,.19,.1,.26s.21,.15,.42,.22c.21,.07,.53,.16,.95,.27,.43,.11,.77,.24,1.03,.38,.26,.14,.45,.31,.56,.51,.11,.2,.17,.44,.17,.71,0,.54-.2,.97-.59,1.28-.4,.31-.94,.47-1.64,.47Z"/></g><g><path class="d" d="M415.96,169.18v-7.2h2.97c.07,0,.16,0,.27,0,.11,0,.21,.02,.3,.03,.42,.06,.76,.2,1.03,.42,.27,.21,.47,.48,.61,.81s.2,.69,.2,1.08-.07,.75-.2,1.08c-.13,.33-.34,.59-.61,.81s-.61,.35-1.03,.42c-.09,.01-.2,.02-.31,.03s-.2,0-.27,0h-1.77v2.51h-1.21Zm1.21-3.64h1.72c.07,0,.14,0,.22,0,.08,0,.16-.02,.23-.04,.2-.05,.36-.14,.47-.27,.12-.13,.2-.27,.25-.43,.05-.16,.07-.32,.07-.47s-.02-.31-.07-.47c-.05-.16-.13-.31-.25-.43s-.27-.21-.47-.26c-.07-.02-.15-.03-.23-.04-.08,0-.16,0-.22,0h-1.72v2.43Z"/><path class="d" d="M423.72,169.33c-.39,0-.72-.07-.99-.22-.27-.15-.47-.35-.61-.59-.14-.25-.21-.52-.21-.81,0-.26,.04-.49,.13-.7,.09-.21,.22-.39,.4-.54,.18-.15,.41-.28,.7-.37,.22-.07,.47-.13,.76-.19s.61-.11,.95-.16c.34-.05,.7-.1,1.07-.16l-.43,.25c0-.37-.08-.65-.25-.83s-.46-.26-.86-.26c-.24,0-.48,.06-.71,.17s-.38,.31-.47,.58l-1.1-.35c.13-.46,.39-.82,.76-1.1s.88-.42,1.52-.42c.48,0,.9,.08,1.27,.24,.37,.16,.64,.41,.81,.77,.1,.19,.16,.38,.17,.58,.02,.2,.03,.41,.03,.65v3.31h-1.05v-1.17l.17,.19c-.24,.39-.53,.68-.85,.86s-.73,.27-1.22,.27Zm.24-.96c.27,0,.51-.05,.7-.15s.35-.21,.46-.35c.12-.14,.19-.27,.23-.4,.06-.15,.1-.33,.11-.53,0-.2,.01-.36,.01-.48l.37,.11c-.36,.06-.67,.11-.93,.15-.26,.04-.48,.08-.67,.12-.19,.04-.35,.08-.5,.13-.14,.05-.26,.11-.36,.18-.1,.07-.17,.14-.22,.23s-.08,.19-.08,.3c0,.13,.03,.25,.1,.35,.07,.1,.16,.18,.29,.24,.13,.06,.29,.09,.48,.09Z"/><path class="d" d="M427.97,169.18v-5.4h1.06v1.31l-.13-.17c.07-.18,.16-.34,.27-.49s.25-.27,.4-.37c.13-.09,.28-.16,.44-.21,.16-.05,.33-.08,.5-.09s.33,0,.5,.02v1.12c-.16-.05-.34-.06-.55-.04s-.4,.07-.56,.17c-.17,.09-.3,.21-.41,.34-.11,.14-.18,.3-.23,.48-.05,.18-.08,.37-.08,.58v2.75h-1.21Z"/><path class="d" d="M434.31,169.33c-.55,0-1.03-.12-1.44-.36s-.74-.56-.97-.98c-.23-.42-.35-.9-.35-1.45,0-.59,.11-1.1,.34-1.54,.23-.43,.54-.77,.94-1.01,.4-.24,.87-.36,1.4-.36,.56,0,1.04,.13,1.43,.39s.68,.63,.87,1.11c.19,.48,.26,1.04,.21,1.68h-1.19v-.44c0-.59-.11-1.01-.31-1.29-.2-.27-.52-.41-.96-.41-.49,0-.86,.15-1.1,.46s-.36,.75-.36,1.34c0,.55,.12,.97,.36,1.27s.59,.45,1.05,.45c.3,0,.55-.07,.77-.2,.21-.13,.38-.32,.5-.57l1.19,.36c-.21,.49-.53,.87-.96,1.13s-.91,.41-1.43,.41Zm-1.86-2.52v-.91h3.71v.91h-3.71Z"/><path class="d" d="M437.72,169.18v-5.4h1.07v1.67h.15v3.72h-1.22Zm3.74,0v-2.6c0-.17-.01-.36-.03-.57-.02-.21-.08-.41-.16-.6-.08-.19-.21-.35-.38-.47-.17-.12-.4-.19-.68-.19-.15,0-.3,.03-.46,.08-.15,.05-.29,.14-.41,.26-.12,.12-.22,.29-.29,.5-.07,.21-.11,.48-.11,.81l-.71-.31c0-.46,.09-.88,.27-1.25,.18-.37,.44-.67,.79-.89s.77-.33,1.28-.33c.4,0,.73,.07,.99,.2,.26,.13,.47,.3,.62,.51s.27,.43,.34,.66c.07,.23,.12,.45,.14,.66,.02,.21,.03,.38,.03,.51v3.01h-1.22Z"/><path class="d" d="M443.38,164.72v-.94h3.77v.94h-3.77Zm3.77,4.46c-.36,.07-.71,.1-1.05,.09-.34,0-.65-.07-.92-.19-.27-.12-.48-.31-.62-.56-.12-.23-.19-.47-.2-.71s0-.52,0-.83v-4.69h1.2v4.62c0,.22,0,.41,0,.57,0,.16,.04,.3,.1,.4,.12,.2,.31,.31,.58,.33s.56,0,.9-.04v1.01Z"/><path class="d" d="M450.4,169.33c-.67,0-1.21-.15-1.62-.45-.42-.3-.67-.72-.76-1.26l1.23-.19c.06,.27,.2,.48,.42,.63s.49,.23,.82,.23c.29,0,.51-.06,.67-.17,.16-.12,.24-.27,.24-.47,0-.12-.03-.22-.09-.3-.06-.08-.19-.15-.38-.22-.2-.07-.5-.16-.9-.26-.45-.12-.81-.25-1.08-.39-.27-.14-.46-.3-.58-.49-.12-.19-.17-.42-.17-.69,0-.34,.09-.63,.26-.88s.42-.44,.74-.58c.32-.13,.69-.2,1.12-.2s.79,.07,1.12,.2,.59,.31,.79,.55c.2,.24,.32,.52,.37,.84l-1.23,.22c-.03-.23-.13-.41-.31-.54-.18-.13-.42-.21-.71-.23-.28-.02-.51,.03-.68,.13-.17,.1-.26,.24-.26,.43,0,.1,.03,.19,.1,.27s.21,.15,.42,.22c.21,.07,.53,.16,.95,.27,.43,.11,.77,.24,1.03,.38,.26,.14,.45,.31,.56,.51,.11,.2,.17,.43,.17,.71,0,.54-.2,.97-.59,1.28-.4,.31-.94,.46-1.64,.46Z"/></g><g><path class="d" d="M415.96,131.38v-7.2h2.97c.07,0,.16,0,.27,0,.11,0,.21,.02,.3,.03,.42,.06,.76,.2,1.03,.42,.27,.21,.47,.48,.61,.81s.2,.69,.2,1.08-.07,.75-.2,1.08c-.13,.33-.34,.59-.61,.81s-.61,.35-1.03,.42c-.09,.01-.2,.02-.31,.03s-.2,0-.27,0h-1.77v2.51h-1.21Zm1.21-3.64h1.72c.07,0,.14,0,.22,0,.08,0,.16-.02,.23-.04,.2-.05,.36-.14,.47-.27,.12-.13,.2-.27,.25-.43,.05-.16,.07-.32,.07-.47s-.02-.31-.07-.47c-.05-.16-.13-.31-.25-.43s-.27-.21-.47-.26c-.07-.02-.15-.03-.23-.04-.08,0-.16,0-.22,0h-1.72v2.43Z"/><path class="d" d="M424.71,131.53c-.55,0-1.03-.12-1.44-.36s-.74-.56-.97-.98c-.23-.42-.35-.9-.35-1.45,0-.59,.11-1.1,.34-1.54,.23-.43,.54-.77,.94-1.01,.4-.24,.87-.36,1.4-.36,.56,0,1.04,.13,1.43,.39s.68,.63,.87,1.11c.19,.48,.26,1.04,.21,1.68h-1.19v-.44c0-.59-.11-1.01-.31-1.29-.2-.27-.52-.41-.96-.41-.49,0-.86,.15-1.1,.46s-.36,.75-.36,1.34c0,.55,.12,.97,.36,1.27s.59,.45,1.05,.45c.3,0,.55-.07,.77-.2,.21-.13,.38-.32,.5-.57l1.19,.36c-.21,.49-.53,.87-.96,1.13s-.91,.41-1.43,.41Zm-1.86-2.52v-.91h3.71v.91h-3.71Z"/><path class="d" d="M429.69,131.53c-.39,0-.72-.07-.99-.22-.27-.15-.47-.35-.61-.59-.14-.25-.21-.52-.21-.81,0-.26,.04-.49,.13-.7,.09-.21,.22-.39,.4-.54,.18-.15,.41-.28,.7-.37,.22-.07,.47-.13,.76-.19s.61-.11,.95-.16c.34-.05,.7-.1,1.07-.16l-.43,.25c0-.37-.08-.65-.25-.83s-.46-.26-.86-.26c-.24,0-.48,.06-.71,.17s-.38,.31-.47,.58l-1.1-.35c.13-.46,.39-.82,.76-1.1s.88-.42,1.52-.42c.48,0,.9,.08,1.27,.24,.37,.16,.64,.41,.81,.77,.1,.19,.16,.38,.17,.58,.02,.2,.03,.41,.03,.65v3.31h-1.05v-1.17l.17,.19c-.24,.39-.53,.68-.85,.86s-.73,.27-1.22,.27Zm.24-.96c.27,0,.51-.05,.7-.15s.35-.21,.46-.35c.12-.14,.19-.27,.23-.4,.06-.15,.1-.33,.11-.53,0-.2,.01-.36,.01-.48l.37,.11c-.36,.06-.67,.11-.93,.15-.26,.04-.48,.08-.67,.12-.19,.04-.35,.08-.5,.13-.14,.05-.26,.11-.36,.18-.1,.07-.17,.14-.22,.23s-.08,.19-.08,.3c0,.13,.03,.25,.1,.35,.07,.1,.16,.18,.29,.24,.13,.06,.29,.09,.48,.09Z"/><path class="d" d="M433.93,131.38v-7.2h1.23v4.4l1.97-2.6h1.51l-2.1,2.7,2.28,2.7h-1.59l-2.07-2.6v2.6h-1.23Z"/><path class="d" d="M441.3,131.53c-.67,0-1.21-.15-1.62-.45-.42-.3-.67-.72-.76-1.26l1.23-.19c.06,.27,.2,.48,.42,.63s.49,.23,.82,.23c.29,0,.51-.06,.67-.17,.16-.12,.24-.27,.24-.47,0-.12-.03-.22-.09-.3-.06-.08-.19-.15-.38-.22-.2-.07-.5-.16-.9-.26-.45-.12-.81-.25-1.08-.39-.27-.14-.46-.3-.58-.49-.12-.19-.17-.42-.17-.69,0-.34,.09-.63,.26-.88s.42-.44,.74-.58c.32-.13,.69-.2,1.12-.2s.79,.07,1.12,.2,.59,.31,.79,.55c.2,.24,.32,.52,.37,.84l-1.23,.22c-.03-.23-.13-.41-.31-.54-.18-.13-.42-.21-.71-.23-.28-.02-.51,.03-.68,.13-.17,.1-.26,.24-.26,.43,0,.1,.03,.19,.1,.27s.21,.15,.42,.22c.21,.07,.53,.16,.95,.27,.43,.11,.77,.24,1.03,.38,.26,.14,.45,.31,.56,.51,.11,.2,.17,.43,.17,.71,0,.54-.2,.97-.59,1.28-.4,.31-.94,.46-1.64,.46Z"/></g><g><path class="d" d="M415.96,93.57v-7.2h2.97c.07,0,.16,0,.27,0,.11,0,.21,.02,.3,.03,.42,.06,.76,.2,1.03,.42,.27,.21,.47,.48,.61,.81s.2,.69,.2,1.08-.07,.75-.2,1.08c-.13,.32-.34,.59-.61,.81-.27,.21-.61,.35-1.03,.42-.09,.01-.2,.02-.31,.03s-.2,0-.27,0h-1.77v2.52h-1.21Zm1.21-3.64h1.72c.07,0,.14,0,.22,0,.08,0,.16-.02,.23-.04,.2-.05,.36-.14,.47-.26s.2-.27,.25-.43c.05-.16,.07-.32,.07-.47s-.02-.31-.07-.47c-.05-.16-.13-.31-.25-.43-.12-.13-.27-.22-.47-.27-.07-.02-.15-.03-.23-.04-.08,0-.16,0-.22,0h-1.72v2.43Z"/><path class="d" d="M424.71,93.72c-.55,0-1.03-.12-1.44-.36s-.74-.57-.97-.99c-.23-.42-.35-.9-.35-1.45,0-.59,.11-1.1,.34-1.54s.54-.77,.94-1.01,.87-.36,1.4-.36c.56,0,1.04,.13,1.43,.39,.39,.26,.68,.63,.87,1.11,.19,.48,.26,1.04,.21,1.68h-1.19v-.44c0-.59-.11-1.01-.31-1.28-.2-.27-.52-.41-.96-.41-.49,0-.86,.15-1.1,.46-.24,.31-.36,.75-.36,1.34,0,.55,.12,.97,.36,1.27,.24,.3,.59,.45,1.05,.45,.3,0,.55-.07,.77-.2s.38-.32,.5-.57l1.19,.36c-.21,.49-.53,.87-.96,1.14-.43,.27-.91,.41-1.43,.41Zm-1.86-2.52v-.91h3.71v.91h-3.71Z"/><path class="d" d="M429.69,93.72c-.39,0-.72-.07-.99-.22-.27-.15-.47-.35-.61-.59-.14-.25-.21-.52-.21-.82,0-.26,.04-.49,.13-.7,.09-.21,.22-.39,.4-.54,.18-.15,.41-.28,.7-.37,.22-.07,.47-.13,.76-.19s.61-.11,.95-.16c.34-.05,.7-.1,1.07-.16l-.43,.25c0-.37-.08-.65-.25-.83-.17-.18-.46-.26-.86-.26-.24,0-.48,.06-.71,.17s-.38,.31-.47,.58l-1.1-.34c.13-.46,.39-.82,.76-1.1,.38-.28,.88-.42,1.52-.42,.48,0,.9,.08,1.27,.23,.37,.16,.64,.41,.81,.77,.1,.19,.16,.38,.17,.58,.02,.2,.03,.41,.03,.65v3.32h-1.05v-1.17l.17,.19c-.24,.39-.53,.68-.85,.86-.33,.18-.73,.27-1.22,.27Zm.24-.96c.27,0,.51-.05,.7-.14s.35-.21,.46-.36c.12-.14,.19-.27,.23-.39,.06-.15,.1-.33,.11-.53,0-.2,.01-.36,.01-.48l.37,.11c-.36,.06-.67,.11-.93,.15-.26,.04-.48,.08-.67,.12-.19,.04-.35,.08-.5,.13-.14,.05-.26,.11-.36,.17s-.17,.14-.22,.23c-.05,.09-.08,.19-.08,.3,0,.13,.03,.25,.1,.35,.07,.1,.16,.18,.29,.24,.13,.06,.29,.09,.48,.09Z"/><path class="d" d="M433.93,93.57v-7.2h1.23v4.4l1.97-2.6h1.51l-2.1,2.7,2.28,2.7h-1.59l-2.07-2.6v2.6h-1.23Z"/><path class="d" d="M441.3,93.72c-.67,0-1.21-.15-1.62-.45-.42-.3-.67-.72-.76-1.27l1.23-.19c.06,.27,.2,.48,.42,.63s.49,.23,.82,.23c.29,0,.51-.06,.67-.17,.16-.12,.24-.27,.24-.47,0-.12-.03-.22-.09-.3s-.19-.15-.38-.22c-.2-.07-.5-.16-.9-.26-.45-.12-.81-.25-1.08-.39-.27-.14-.46-.3-.58-.49-.12-.19-.17-.42-.17-.69,0-.34,.09-.63,.26-.88s.42-.44,.74-.58,.69-.2,1.12-.2,.79,.06,1.12,.19,.59,.32,.79,.56c.2,.24,.32,.52,.37,.84l-1.23,.22c-.03-.23-.13-.41-.31-.54-.18-.13-.42-.21-.71-.22-.28-.02-.51,.03-.68,.13-.17,.1-.26,.24-.26,.43,0,.1,.03,.19,.1,.26s.21,.15,.42,.22c.21,.07,.53,.16,.95,.27,.43,.11,.77,.24,1.03,.38,.26,.14,.45,.31,.56,.51,.11,.2,.17,.44,.17,.71,0,.54-.2,.97-.59,1.28-.4,.31-.94,.47-1.64,.47Z"/></g></svg>