<?xml version="1.0" encoding="UTF-8"?><svg id="a" xmlns="http://www.w3.org/2000/svg" viewBox="0 0 512.26 314.82"><defs><style>.b{fill:#fff;}.c{fill:#ff9682;}.d{fill:#8ce085;}.e{fill:#accaff;}.f{fill:#16181c;}.g{fill:#bdbdc4;}.g,.h{stroke-miterlimit:10;}.g,.h,.i{stroke:#fff;}.h,.i{fill:none;}</style></defs><g><path class="d" d="M434.94,293.44c-6.89,0-12.49-5.6-12.49-12.49s5.6-12.49,12.49-12.49,12.49,5.6,12.49,12.49-5.6,12.49-12.49,12.49Z"/><path class="b" d="M434.93,268.95c6.61,0,11.99,5.38,11.99,11.99s-5.38,11.99-11.99,11.99-11.99-5.38-11.99-11.99,5.38-11.99,11.99-11.99m0-1c-7.18,0-12.99,5.82-12.99,12.99s5.82,12.99,12.99,12.99,12.99-5.82,12.99-12.99-5.82-12.99-12.99-12.99h0Z"/></g><line class="h" x1="67.48" y1="266.38" x2="212.12" y2="15.85"/><line class="h" x1="183.87" y1="266.38" x2="213.36" y2="214.93"/><line class="h" x1="299.91" y1="266.38" x2="183.7" y2="65.08"/><line class="h" x1="243.06" y1="266.38" x2="155.27" y2="114.32"/><line class="h" x1="126.89" y1="266.38" x2="97.19" y2="214.93"/><rect class="g" x="51.63" y="250.53" width="31.7" height="31.7" rx="6.22" ry="6.22"/><g><path class="e" d="M145.64,98.97h19.27c3.15,0,5.72,2.56,5.72,5.72v19.27c0,3.15-2.56,5.72-5.72,5.72h-19.27c-3.15,0-5.72-2.56-5.72-5.72v-19.26c0-3.16,2.56-5.72,5.72-5.72Z"/><path class="b" d="M164.9,99.47c2.88,0,5.22,2.34,5.22,5.22v19.27c0,2.88-2.34,5.22-5.22,5.22h-19.27c-2.88,0-5.22-2.34-5.22-5.22v-19.27c0-2.88,2.34-5.22,5.22-5.22h19.27m0-1h-19.27c-3.43,0-6.22,2.78-6.22,6.22v19.27c0,3.43,2.78,6.22,6.22,6.22h19.27c3.43,0,6.22-2.78,6.22-6.22v-19.27c0-3.43-2.78-6.22-6.22-6.22h0Z"/></g><rect class="g" x="81.34" y="199.08" width="31.7" height="31.7" rx="6.22" ry="6.22"/><rect class="g" x="197.51" y="199.08" width="31.7" height="31.7" rx="6.22" ry="6.22"/><rect class="g" x="167.85" y="49.23" width="31.7" height="31.7" rx="6.22" ry="6.22"/><line class="h" x1="378.96" y1="304.81" x2="212.12" y2="15.85"/><g><path class="c" d="M202.49,.5h19.27c3.15,0,5.72,2.56,5.72,5.72V25.48c0,3.15-2.56,5.72-5.72,5.72h-19.27c-3.15,0-5.72-2.56-5.72-5.72V6.22c0-3.16,2.56-5.72,5.72-5.72Z"/><path class="b" d="M221.75,1c2.88,0,5.22,2.34,5.22,5.22V25.48c0,2.88-2.34,5.22-5.22,5.22h-19.27c-2.88,0-5.22-2.34-5.22-5.22V6.22c0-2.88,2.34-5.22,5.22-5.22h19.27M221.75,0h-19.27c-3.43,0-6.22,2.78-6.22,6.22V25.48c0,3.43,2.78,6.22,6.22,6.22h19.27c3.43,0,6.22-2.78,6.22-6.22V6.22C227.97,2.78,225.19,0,221.75,0h0Z"/></g><g><path class="c" d="M427.04,117.25h15.79c2.54,0,4.6,2.06,4.6,4.6v15.8c0,2.54-2.06,4.6-4.6,4.6h-15.79c-2.54,0-4.6-2.06-4.6-4.6v-15.79c0-2.54,2.06-4.6,4.6-4.6Z"/><path class="b" d="M442.83,117.75c2.26,0,4.1,1.84,4.1,4.1v15.79c0,2.26-1.84,4.1-4.1,4.1h-15.79c-2.26,0-4.1-1.84-4.1-4.1v-15.79c0-2.26,1.84-4.1,4.1-4.1h15.79m0-1h-15.79c-2.81,0-5.1,2.28-5.1,5.1v15.79c0,2.81,2.28,5.1,5.1,5.1h15.79c2.81,0,5.1-2.28,5.1-5.1v-15.79c0-2.81-2.28-5.1-5.1-5.1h0Z"/></g><g><path class="e" d="M427.04,155.05h15.79c2.54,0,4.6,2.06,4.6,4.6v15.79c0,2.54-2.06,4.6-4.6,4.6h-15.8c-2.54,0-4.6-2.06-4.6-4.6v-15.79c0-2.54,2.06-4.6,4.6-4.6Z"/><path class="b" d="M442.83,155.55c2.26,0,4.1,1.84,4.1,4.1v15.79c0,2.26-1.84,4.1-4.1,4.1h-15.79c-2.26,0-4.1-1.84-4.1-4.1v-15.79c0-2.26,1.84-4.1,4.1-4.1h15.79m0-1h-15.79c-2.81,0-5.1,2.28-5.1,5.1v15.79c0,2.81,2.28,5.1,5.1,5.1h15.79c2.81,0,5.1-2.28,5.1-5.1v-15.79c0-2.81-2.28-5.1-5.1-5.1h0Z"/></g><g><path class="e" d="M434.94,217.84c-6.89,0-12.49-5.6-12.49-12.49s5.6-12.49,12.49-12.49,12.49,5.6,12.49,12.49-5.6,12.49-12.49,12.49Z"/><path class="b" d="M434.93,193.35c6.61,0,11.99,5.38,11.99,11.99s-5.38,11.99-11.99,11.99-11.99-5.38-11.99-11.99,5.38-11.99,11.99-11.99m0-1c-7.18,0-12.99,5.82-12.99,12.99s5.82,12.99,12.99,12.99,12.99-5.82,12.99-12.99-5.82-12.99-12.99-12.99h0Z"/></g><rect class="g" x="421.94" y="230.15" width="25.99" height="25.99" rx="5.1" ry="5.1"/><line class="h" x1="67.48" y1="266.38" x2="52.96" y2="304.81"/><line class="h" x1="67.48" y1="266.38" x2="82.01" y2="304.81"/><line class="h" x1="126.89" y1="266.38" x2="112.36" y2="304.81"/><line class="h" x1="126.89" y1="266.38" x2="141.42" y2="304.81"/><line class="h" x1="183.87" y1="266.38" x2="169.34" y2="304.81"/><line class="h" x1="183.87" y1="266.38" x2="198.39" y2="304.81"/><line class="h" x1="243.06" y1="266.38" x2="228.54" y2="304.81"/><line class="h" x1="241.81" y1="265.87" x2="257.59" y2="304.81"/><line class="h" x1="299.91" y1="266.38" x2="285.39" y2="304.81"/><line class="h" x1="299.91" y1="266.38" x2="314.44" y2="304.81"/><g><circle class="d" cx="52.95" cy="304.81" r="9.51"/><path class="b" d="M52.96,295.8c4.97,0,9.01,4.04,9.01,9.01s-4.04,9.01-9.01,9.01-9.01-4.04-9.01-9.01,4.04-9.01,9.01-9.01m0-1c-5.53,0-10.01,4.48-10.01,10.01s4.48,10.01,10.01,10.01,10.01-4.48,10.01-10.01-4.48-10.01-10.01-10.01h0Z"/></g><g><circle class="d" cx="82.01" cy="304.81" r="9.51"/><path class="b" d="M82.01,295.8c4.97,0,9.01,4.04,9.01,9.01s-4.04,9.01-9.01,9.01-9.01-4.04-9.01-9.01,4.04-9.01,9.01-9.01m0-1c-5.53,0-10.01,4.48-10.01,10.01s4.48,10.01,10.01,10.01,10.01-4.48,10.01-10.01-4.48-10.01-10.01-10.01h0Z"/></g><g><circle class="d" cx="112.36" cy="304.81" r="9.51"/><path class="b" d="M112.36,295.8c4.97,0,9.01,4.04,9.01,9.01s-4.04,9.01-9.01,9.01-9.01-4.04-9.01-9.01,4.04-9.01,9.01-9.01m0-1c-5.53,0-10.01,4.48-10.01,10.01s4.48,10.01,10.01,10.01,10.01-4.48,10.01-10.01-4.48-10.01-10.01-10.01h0Z"/></g><g><circle class="d" cx="141.42" cy="304.81" r="9.51"/><path class="b" d="M141.42,295.8c4.97,0,9.01,4.04,9.01,9.01s-4.04,9.01-9.01,9.01-9.01-4.04-9.01-9.01,4.04-9.01,9.01-9.01m0-1c-5.53,0-10.01,4.48-10.01,10.01s4.48,10.01,10.01,10.01,10.01-4.48,10.01-10.01-4.48-10.01-10.01-10.01h0Z"/></g><g><circle class="d" cx="169.34" cy="304.81" r="9.51"/><path class="b" d="M169.34,295.8c4.97,0,9.01,4.04,9.01,9.01s-4.04,9.01-9.01,9.01-9.01-4.04-9.01-9.01,4.04-9.01,9.01-9.01m0-1c-5.53,0-10.01,4.48-10.01,10.01s4.48,10.01,10.01,10.01,10.01-4.48,10.01-10.01-4.48-10.01-10.01-10.01h0Z"/></g><g><circle class="d" cx="198.39" cy="304.81" r="9.51"/><path class="b" d="M198.39,295.8c4.97,0,9.01,4.04,9.01,9.01s-4.04,9.01-9.01,9.01-9.01-4.04-9.01-9.01,4.04-9.01,9.01-9.01m0-1c-5.53,0-10.01,4.48-10.01,10.01s4.48,10.01,10.01,10.01,10.01-4.48,10.01-10.01-4.48-10.01-10.01-10.01h0Z"/></g><g><circle class="d" cx="228.54" cy="304.81" r="9.51"/><path class="b" d="M228.54,295.8c4.97,0,9.01,4.04,9.01,9.01s-4.04,9.01-9.01,9.01-9.01-4.04-9.01-9.01,4.04-9.01,9.01-9.01m0-1c-5.53,0-10.01,4.48-10.01,10.01s4.48,10.01,10.01,10.01,10.01-4.48,10.01-10.01-4.48-10.01-10.01-10.01h0Z"/></g><g><circle class="d" cx="257.59" cy="304.81" r="9.51"/><path class="b" d="M257.59,295.8c4.97,0,9.01,4.04,9.01,9.01s-4.04,9.01-9.01,9.01-9.01-4.04-9.01-9.01,4.04-9.01,9.01-9.01m0-1c-5.53,0-10.01,4.48-10.01,10.01s4.48,10.01,10.01,10.01,10.01-4.48,10.01-10.01-4.48-10.01-10.01-10.01h0Z"/></g><g><circle class="d" cx="285.39" cy="304.81" r="9.51"/><path class="b" d="M285.39,295.8c4.97,0,9.01,4.04,9.01,9.01s-4.04,9.01-9.01,9.01-9.01-4.04-9.01-9.01,4.04-9.01,9.01-9.01m0-1c-5.53,0-10.01,4.48-10.01,10.01s4.48,10.01,10.01,10.01,10.01-4.48,10.01-10.01-4.48-10.01-10.01-10.01h0Z"/></g><g><circle class="d" cx="314.44" cy="304.81" r="9.51"/><path class="b" d="M314.44,295.8c4.97,0,9.01,4.04,9.01,9.01s-4.04,9.01-9.01,9.01-9.01-4.04-9.01-9.01,4.04-9.01,9.01-9.01m0-1c-5.53,0-10.01,4.48-10.01,10.01s4.48,10.01,10.01,10.01,10.01-4.48,10.01-10.01-4.48-10.01-10.01-10.01h0Z"/></g><g><circle class="e" cx="378.95" cy="304.81" r="9.51"/><path class="b" d="M378.96,295.8c4.97,0,9.01,4.04,9.01,9.01s-4.04,9.01-9.01,9.01-9.01-4.04-9.01-9.01,4.04-9.01,9.01-9.01m0-1c-5.53,0-10.01,4.48-10.01,10.01s4.48,10.01,10.01,10.01,10.01-4.48,10.01-10.01-4.48-10.01-10.01-10.01h0Z"/></g><rect class="g" x="51.63" y="250.53" width="31.7" height="31.7" rx="6.22" ry="6.22" transform="translate(134.96 532.75) rotate(-180)"/><rect class="g" x="111.04" y="250.53" width="31.7" height="31.7" rx="6.22" ry="6.22"/><rect class="g" x="168.02" y="250.53" width="31.7" height="31.7" rx="6.22" ry="6.22"/><rect class="g" x="227.21" y="250.53" width="31.7" height="31.7" rx="6.22" ry="6.22"/><g><rect class="e" x="284.56" y="251.03" width="30.7" height="30.7" rx="5.72" ry="5.72"/><path class="b" d="M309.55,251.53c2.88,0,5.22,2.34,5.22,5.22v19.27c0,2.88-2.34,5.22-5.22,5.22h-19.27c-2.88,0-5.22-2.34-5.22-5.22v-19.27c0-2.88,2.34-5.22,5.22-5.22h19.27m0-1h-19.27c-3.43,0-6.22,2.78-6.22,6.22v19.27c0,3.43,2.78,6.22,6.22,6.22h19.27c3.43,0,6.22-2.78,6.22-6.22v-19.27c0-3.43-2.78-6.22-6.22-6.22h0Z"/></g><g><path class="b" d="M459,284.56v-7.2h1.21v6.07h3.18v1.13h-4.38Z"/><path class="b" d="M466.69,284.71c-.55,0-1.03-.12-1.44-.36s-.74-.56-.97-.98c-.23-.42-.35-.9-.35-1.45,0-.59,.11-1.1,.34-1.54,.23-.43,.54-.77,.94-1.01,.4-.24,.87-.36,1.4-.36,.56,0,1.04,.13,1.43,.39s.68,.63,.87,1.11c.19,.48,.26,1.04,.21,1.68h-1.19v-.44c0-.59-.11-1.01-.31-1.29-.2-.27-.52-.41-.96-.41-.49,0-.86,.15-1.1,.46s-.36,.75-.36,1.34c0,.55,.12,.97,.36,1.27s.59,.45,1.05,.45c.3,0,.55-.07,.77-.2,.21-.13,.38-.32,.5-.57l1.19,.36c-.21,.49-.53,.87-.96,1.13s-.91,.41-1.43,.41Zm-1.86-2.52v-.91h3.71v.91h-3.71Z"/><path class="b" d="M471.67,284.71c-.39,0-.72-.07-.99-.22-.27-.15-.47-.35-.61-.59-.14-.25-.21-.52-.21-.81,0-.26,.04-.49,.13-.7,.09-.21,.22-.39,.4-.54,.18-.15,.41-.28,.7-.37,.22-.07,.47-.13,.76-.19s.61-.11,.95-.16c.34-.05,.7-.1,1.07-.16l-.43,.25c0-.37-.08-.65-.25-.83s-.46-.26-.86-.26c-.24,0-.48,.06-.71,.17s-.38,.31-.47,.58l-1.1-.35c.13-.46,.39-.82,.76-1.1s.88-.42,1.52-.42c.48,0,.9,.08,1.27,.24,.37,.16,.64,.41,.81,.77,.1,.19,.16,.38,.17,.58,.02,.2,.03,.41,.03,.65v3.31h-1.05v-1.17l.17,.19c-.24,.39-.53,.68-.85,.86s-.73,.27-1.22,.27Zm.24-.96c.27,0,.51-.05,.7-.15s.35-.21,.46-.35c.12-.14,.19-.27,.23-.4,.06-.15,.1-.33,.11-.53,0-.2,.01-.36,.01-.48l.37,.11c-.36,.06-.67,.11-.93,.15-.26,.04-.48,.08-.67,.12-.19,.04-.35,.08-.5,.13-.14,.05-.26,.11-.36,.18-.1,.07-.17,.14-.22,.23s-.08,.19-.08,.3c0,.13,.03,.25,.1,.35,.07,.1,.16,.18,.29,.24,.13,.06,.29,.09,.48,.09Z"/><path class="b" d="M475.52,280.11v-.94h3.38v.94h-3.38Zm.87,4.46v-5.48c0-.14,0-.29,.01-.45,.01-.17,.04-.33,.08-.49,.05-.16,.13-.31,.26-.45,.15-.17,.32-.29,.5-.35,.18-.06,.35-.1,.53-.11,.17,0,.33-.01,.46-.01h.67v.98h-.62c-.23,0-.4,.06-.51,.17-.11,.12-.17,.27-.17,.45v5.75h-1.21Z"/><path class="b" d="M481.7,284.56v-7.2h1.22l3.34,5.08v-5.08h1.22v7.2h-1.22l-3.34-5.08v5.08h-1.22Z"/><path class="b" d="M491.26,284.71c-.54,0-1.01-.12-1.42-.37s-.72-.58-.94-1.01c-.22-.43-.33-.92-.33-1.48s.11-1.06,.34-1.49,.54-.76,.94-1c.4-.24,.87-.36,1.4-.36s1.02,.12,1.42,.37,.72,.58,.94,1.01c.22,.43,.33,.92,.33,1.48s-.11,1.05-.34,1.48c-.22,.43-.54,.76-.94,1-.4,.24-.88,.36-1.42,.36Zm0-1.13c.48,0,.84-.16,1.07-.48,.23-.32,.35-.73,.35-1.24s-.12-.94-.35-1.25c-.24-.31-.59-.47-1.07-.47-.32,0-.59,.07-.8,.22-.21,.14-.36,.35-.46,.6-.1,.26-.15,.56-.15,.9,0,.52,.12,.94,.36,1.25s.59,.47,1.05,.47Z"/><path class="b" d="M497.22,284.71c-.5,0-.93-.12-1.3-.38-.37-.25-.66-.59-.86-1.02-.2-.43-.3-.92-.3-1.46s.1-1.03,.31-1.46c.21-.43,.5-.77,.87-1.02,.38-.25,.82-.37,1.33-.37s.94,.12,1.29,.37c.35,.25,.61,.59,.79,1.02,.18,.43,.27,.92,.27,1.46s-.09,1.02-.27,1.45-.45,.77-.8,1.02c-.36,.25-.8,.38-1.33,.38Zm.18-1.08c.32,0,.58-.07,.78-.22,.2-.15,.34-.36,.44-.62s.14-.58,.14-.93-.05-.66-.14-.93c-.09-.27-.23-.47-.43-.62s-.44-.22-.75-.22c-.32,0-.59,.08-.8,.24s-.37,.37-.46,.64c-.1,.27-.15,.57-.15,.89s.05,.63,.15,.9c.1,.27,.25,.48,.45,.64,.2,.16,.46,.24,.77,.24Zm1.36,.93v-3.79h-.15v-3.41h1.21v7.2h-1.06Z"/><path class="b" d="M503.68,284.71c-.55,0-1.03-.12-1.44-.36s-.74-.56-.97-.98c-.23-.42-.35-.9-.35-1.45,0-.59,.11-1.1,.34-1.54,.23-.43,.54-.77,.94-1.01,.4-.24,.87-.36,1.4-.36,.56,0,1.04,.13,1.43,.39s.68,.63,.87,1.11c.19,.48,.26,1.04,.21,1.68h-1.19v-.44c0-.59-.11-1.01-.31-1.29-.2-.27-.52-.41-.96-.41-.49,0-.86,.15-1.1,.46s-.36,.75-.36,1.34c0,.55,.12,.97,.36,1.27s.59,.45,1.05,.45c.3,0,.55-.07,.77-.2,.21-.13,.38-.32,.5-.57l1.19,.36c-.21,.49-.53,.87-.96,1.13s-.91,.41-1.43,.41Zm-1.86-2.52v-.91h3.71v.91h-3.71Z"/><path class="b" d="M509.33,284.71c-.67,0-1.21-.15-1.62-.45-.42-.3-.67-.72-.76-1.26l1.23-.19c.06,.27,.2,.48,.42,.63s.49,.23,.82,.23c.29,0,.51-.06,.67-.17,.16-.12,.24-.27,.24-.47,0-.12-.03-.22-.09-.3-.06-.08-.19-.15-.38-.22-.2-.07-.5-.16-.9-.26-.45-.12-.81-.25-1.08-.39-.27-.14-.46-.3-.58-.49-.12-.19-.17-.42-.17-.69,0-.34,.09-.63,.26-.88s.42-.44,.74-.58c.32-.13,.69-.2,1.12-.2s.79,.07,1.12,.2,.59,.31,.79,.55c.2,.24,.32,.52,.37,.84l-1.23,.22c-.03-.23-.13-.41-.31-.54-.18-.13-.42-.21-.71-.23-.28-.02-.51,.03-.68,.13-.17,.1-.26,.24-.26,.43,0,.1,.03,.19,.1,.27s.21,.15,.42,.22c.21,.07,.53,.16,.95,.27,.43,.11,.77,.24,1.03,.38,.26,.14,.45,.31,.56,.51,.11,.2,.17,.43,.17,.71,0,.54-.2,.97-.59,1.28-.4,.31-.94,.46-1.64,.46Z"/></g><g><path class="b" d="M423.83,309.07l.53-1.95h-1.82l.3-1.13h1.81l.31-1.17h-1.81l.31-1.13h1.81l.49-1.8h1.17l-.49,1.8h1.23l.48-1.8h1.18l-.49,1.8h1.81l-.3,1.13h-1.81l-.32,1.17h1.81l-.3,1.13h-1.81l-.52,1.95h-1.18l.52-1.95h-1.22l-.52,1.95h-1.18Zm2.01-3.08h1.22l.31-1.17h-1.22l-.31,1.17Z"/><path class="b" d="M433.86,306.4v-.95h3v.95h-3Z"/><path class="b" d="M438.16,309.08v-7.2h4.65v1.13h-3.45v1.77h2.85v1.13h-2.85v2.04h3.45v1.13h-4.65Z"/><path class="b" d="M444,309.08v-5.4h1.07v1.67h.14v3.72h-1.22Zm3.74,0v-2.6c0-.17-.01-.36-.04-.57-.02-.21-.08-.41-.16-.6-.09-.19-.21-.35-.38-.47-.17-.12-.39-.19-.68-.19-.15,0-.3,.03-.46,.08s-.29,.14-.41,.26c-.12,.12-.22,.29-.29,.5-.07,.21-.11,.48-.11,.81l-.71-.31c0-.46,.09-.88,.27-1.25,.18-.37,.44-.67,.79-.89,.35-.22,.77-.33,1.28-.33,.4,0,.73,.07,.99,.2,.26,.13,.47,.3,.62,.51,.15,.21,.27,.43,.34,.66s.12,.45,.14,.66c.02,.21,.03,.38,.03,.51v3.01h-1.22Z"/><path class="b" d="M449.66,304.63v-.94h3.77v.94h-3.77Zm3.77,4.46c-.36,.07-.71,.1-1.05,.09-.34,0-.65-.07-.92-.19s-.47-.31-.62-.56c-.12-.23-.19-.47-.2-.71,0-.24,0-.52,0-.83v-4.69h1.2v4.62c0,.22,0,.41,0,.57,0,.16,.04,.3,.1,.4,.12,.2,.31,.31,.57,.33s.56,0,.9-.04v1.01Z"/><path class="b" d="M454.59,309.08v-5.4h1.06v1.31l-.13-.17c.07-.18,.16-.34,.27-.49s.25-.27,.4-.37c.13-.09,.28-.16,.44-.21s.33-.08,.5-.09,.33,0,.49,.02v1.12c-.16-.05-.34-.06-.55-.04-.21,.02-.39,.07-.56,.17-.17,.09-.3,.21-.41,.34-.11,.14-.18,.3-.23,.48-.05,.18-.08,.37-.08,.58v2.75h-1.21Z"/><path class="b" d="M459.13,311.48l1.04-2.86,.02,.84-2.35-5.78h1.25l1.67,4.28h-.32l1.62-4.28h1.21l-3.01,7.8h-1.13Z"/><path class="b" d="M464.01,309.08v-7.2h1.22l3.34,5.08v-5.08h1.22v7.2h-1.22l-3.34-5.08v5.08h-1.22Z"/><path class="b" d="M473.22,309.24c-.4,0-.73-.07-.99-.2s-.47-.3-.62-.51c-.15-.21-.27-.43-.34-.66-.07-.23-.12-.45-.14-.66-.02-.21-.03-.38-.03-.51v-3.01h1.22v2.6c0,.17,.01,.35,.04,.56,.02,.21,.08,.41,.16,.6,.08,.19,.21,.35,.38,.47,.17,.12,.4,.19,.68,.19,.15,0,.3-.03,.46-.08,.15-.05,.29-.14,.41-.26,.12-.12,.22-.29,.29-.5,.07-.21,.11-.48,.11-.81l.71,.31c0,.46-.09,.88-.27,1.25-.18,.37-.44,.67-.79,.89-.35,.22-.77,.33-1.28,.33Zm1.77-.16v-1.67h-.15v-3.72h1.21v5.4h-1.06Z"/><path class="b" d="M477.44,309.08v-5.4h1.06v1.67h.15v3.72h-1.21Zm3.25,0v-3.26c0-.38-.09-.67-.28-.88s-.43-.32-.75-.32-.55,.11-.74,.32c-.19,.21-.28,.48-.28,.82l-.54-.36c0-.35,.09-.67,.26-.95s.41-.5,.7-.66c.29-.16,.62-.24,.99-.24,.4,0,.74,.09,1.01,.26,.27,.17,.48,.41,.61,.7s.2,.63,.2,1v3.58h-1.2Zm3.24,0v-3.28c0-.37-.09-.66-.28-.87-.18-.21-.43-.31-.74-.31-.19,0-.37,.04-.52,.13-.15,.09-.27,.22-.36,.39s-.14,.38-.14,.61l-.53-.31c0-.37,.08-.7,.25-.99s.4-.51,.7-.67,.62-.24,.98-.24c.6,0,1.05,.18,1.37,.54s.48,.83,.48,1.41v3.58h-1.21Z"/><path class="b" d="M486.43,309.08v-7.2h1.21v3.41h-.15v3.79h-1.06Zm2.61,.15c-.53,0-.97-.12-1.33-.38-.36-.25-.62-.59-.8-1.02s-.27-.92-.27-1.45,.09-1.03,.27-1.46c.18-.43,.45-.77,.79-1.02,.35-.25,.78-.37,1.29-.37s.95,.12,1.33,.37c.38,.25,.67,.59,.87,1.02,.21,.43,.31,.92,.31,1.46s-.1,1.03-.3,1.46c-.2,.43-.49,.77-.86,1.02-.37,.25-.8,.38-1.3,.38Zm-.19-1.08c.31,0,.57-.08,.78-.24,.2-.16,.35-.37,.45-.64,.1-.27,.15-.57,.15-.9s-.05-.62-.15-.89c-.1-.27-.25-.48-.46-.64-.21-.16-.48-.24-.8-.24s-.56,.07-.75,.22-.34,.35-.43,.62c-.09,.26-.14,.57-.14,.93s.05,.66,.14,.93,.24,.47,.43,.62c.2,.15,.46,.22,.78,.22Z"/><path class="b" d="M495.05,309.23c-.55,0-1.03-.12-1.44-.36-.41-.24-.74-.56-.97-.98-.23-.42-.35-.9-.35-1.45,0-.59,.11-1.1,.34-1.54,.23-.43,.54-.77,.94-1.01,.4-.24,.87-.36,1.4-.36,.56,0,1.04,.13,1.43,.39,.39,.26,.68,.63,.87,1.11s.26,1.04,.21,1.68h-1.2v-.44c0-.59-.11-1.01-.31-1.29-.2-.27-.52-.41-.96-.41-.49,0-.86,.15-1.1,.46s-.36,.75-.36,1.34c0,.55,.12,.97,.36,1.27s.59,.45,1.05,.45c.3,0,.55-.07,.77-.2,.21-.13,.38-.32,.5-.57l1.19,.36c-.21,.49-.53,.87-.96,1.13s-.91,.41-1.43,.41Zm-1.86-2.52v-.91h3.71v.91h-3.71Z"/><path class="b" d="M498.61,309.08v-5.4h1.06v1.31l-.13-.17c.07-.18,.16-.34,.27-.49s.25-.27,.4-.37c.13-.09,.28-.16,.44-.21,.16-.05,.33-.08,.5-.09s.34,0,.5,.02v1.12c-.16-.05-.35-.06-.55-.04-.21,.02-.4,.07-.56,.17-.17,.09-.3,.21-.41,.34s-.18,.3-.23,.48-.07,.37-.07,.58v2.75h-1.21Z"/></g><g><path class="b" d="M458.9,246.76v-7.2h2.97c.07,0,.16,0,.27,0,.11,0,.21,.02,.3,.03,.42,.06,.76,.2,1.03,.42,.27,.21,.47,.48,.61,.81s.2,.69,.2,1.08-.07,.75-.2,1.08c-.13,.32-.34,.59-.61,.81-.27,.21-.61,.35-1.03,.42-.09,.01-.2,.02-.31,.03s-.2,0-.27,0h-1.77v2.52h-1.21Zm1.21-3.64h1.72c.07,0,.14,0,.22,0,.08,0,.16-.02,.23-.04,.2-.05,.36-.14,.47-.26s.2-.27,.25-.43c.05-.16,.07-.32,.07-.47s-.02-.31-.07-.47c-.05-.16-.13-.31-.25-.43-.12-.13-.27-.22-.47-.27-.07-.02-.15-.03-.23-.04-.08,0-.16,0-.22,0h-1.72v2.43Z"/><path class="b" d="M466.66,246.91c-.39,0-.72-.07-.99-.22-.27-.15-.47-.35-.61-.59-.14-.25-.21-.52-.21-.82,0-.26,.04-.49,.13-.7,.09-.21,.22-.39,.4-.54,.18-.15,.41-.28,.7-.37,.22-.07,.47-.13,.76-.19s.61-.11,.95-.16c.34-.05,.7-.1,1.07-.16l-.43,.25c0-.37-.08-.65-.25-.83-.17-.18-.46-.26-.86-.26-.24,0-.48,.06-.71,.17s-.38,.31-.47,.58l-1.1-.34c.13-.46,.39-.82,.76-1.1,.38-.28,.88-.42,1.52-.42,.48,0,.9,.08,1.27,.23,.37,.16,.64,.41,.81,.77,.1,.19,.16,.38,.17,.58,.02,.2,.03,.41,.03,.65v3.32h-1.05v-1.17l.17,.19c-.24,.39-.53,.68-.85,.86-.33,.18-.73,.27-1.22,.27Zm.24-.96c.27,0,.51-.05,.7-.14s.35-.21,.46-.36c.12-.14,.19-.27,.23-.39,.06-.15,.1-.33,.11-.53,0-.2,.01-.36,.01-.48l.37,.11c-.36,.06-.67,.11-.93,.15-.26,.04-.48,.08-.67,.12-.19,.04-.35,.08-.5,.13-.14,.05-.26,.11-.36,.17s-.17,.14-.22,.23c-.05,.09-.08,.19-.08,.3,0,.13,.03,.25,.1,.35,.07,.1,.16,.18,.29,.24,.13,.06,.29,.09,.48,.09Z"/><path class="b" d="M470.91,246.76v-5.4h1.06v1.32l-.13-.17c.07-.18,.16-.34,.27-.49s.25-.27,.4-.37c.13-.09,.28-.16,.44-.21,.16-.05,.33-.08,.5-.09s.33,0,.5,.02v1.12c-.16-.05-.34-.06-.55-.04s-.4,.08-.56,.17c-.17,.09-.3,.21-.41,.35-.11,.14-.18,.3-.23,.48-.05,.18-.08,.37-.08,.58v2.75h-1.21Z"/><path class="b" d="M477.26,246.91c-.55,0-1.03-.12-1.44-.36s-.74-.57-.97-.99c-.23-.42-.35-.9-.35-1.45,0-.59,.11-1.1,.34-1.54s.54-.77,.94-1.01,.87-.36,1.4-.36c.56,0,1.04,.13,1.43,.39,.39,.26,.68,.63,.87,1.11,.19,.48,.26,1.04,.21,1.68h-1.19v-.44c0-.59-.11-1.01-.31-1.28-.2-.27-.52-.41-.96-.41-.49,0-.86,.15-1.1,.46-.24,.31-.36,.75-.36,1.34,0,.55,.12,.97,.36,1.27,.24,.3,.59,.45,1.05,.45,.3,0,.55-.07,.77-.2s.38-.32,.5-.57l1.19,.36c-.21,.49-.53,.87-.96,1.14-.43,.27-.91,.41-1.43,.41Zm-1.86-2.52v-.91h3.71v.91h-3.71Z"/><path class="b" d="M480.66,246.76v-5.4h1.07v1.67h.15v3.73h-1.22Zm3.74,0v-2.6c0-.17-.01-.36-.03-.56-.02-.21-.08-.41-.16-.6s-.21-.35-.38-.47-.4-.18-.68-.18c-.15,0-.3,.02-.46,.07-.15,.05-.29,.14-.41,.26-.12,.12-.22,.29-.29,.5-.07,.21-.11,.48-.11,.81l-.71-.3c0-.46,.09-.88,.27-1.25,.18-.37,.44-.67,.79-.89s.77-.33,1.28-.33c.4,0,.73,.07,.99,.2,.26,.13,.47,.3,.62,.51,.15,.21,.27,.43,.34,.66,.07,.23,.12,.45,.14,.66,.02,.21,.03,.38,.03,.51v3.02h-1.22Z"/><path class="b" d="M486.33,242.31v-.95h3.77v.95h-3.77Zm3.77,4.46c-.36,.07-.71,.1-1.05,.09-.34,0-.65-.07-.92-.19-.27-.12-.48-.31-.62-.56-.12-.23-.19-.47-.2-.71s0-.52,0-.83v-4.7h1.2v4.62c0,.22,0,.41,0,.57,0,.16,.04,.3,.1,.4,.12,.2,.31,.31,.58,.33,.26,.02,.56,.01,.9-.04v1.01Z"/><path class="b" d="M493.34,246.91c-.67,0-1.21-.15-1.62-.45-.42-.3-.67-.72-.76-1.27l1.23-.19c.06,.27,.2,.48,.42,.63s.49,.23,.82,.23c.29,0,.51-.06,.67-.17,.16-.12,.24-.27,.24-.47,0-.12-.03-.22-.09-.3s-.19-.15-.38-.22c-.2-.07-.5-.16-.9-.26-.45-.12-.81-.25-1.08-.39-.27-.14-.46-.3-.58-.49-.12-.19-.17-.42-.17-.69,0-.34,.09-.63,.26-.88s.42-.44,.74-.58,.69-.2,1.12-.2,.79,.06,1.12,.19,.59,.32,.79,.56c.2,.24,.32,.52,.37,.84l-1.23,.22c-.03-.23-.13-.41-.31-.54-.18-.13-.42-.21-.71-.22-.28-.02-.51,.03-.68,.13-.17,.1-.26,.24-.26,.43,0,.1,.03,.19,.1,.26s.21,.15,.42,.22c.21,.07,.53,.16,.95,.27,.43,.11,.77,.24,1.03,.38,.26,.14,.45,.31,.56,.51,.11,.2,.17,.44,.17,.71,0,.54-.2,.97-.59,1.28-.4,.31-.94,.47-1.64,.47Z"/></g><g><path class="b" d="M458.9,208.96v-7.2h2.97c.07,0,.16,0,.27,0,.11,0,.21,.02,.3,.03,.42,.06,.76,.2,1.03,.42,.27,.21,.47,.48,.61,.81s.2,.69,.2,1.08-.07,.75-.2,1.08c-.13,.32-.34,.59-.61,.81-.27,.21-.61,.35-1.03,.42-.09,.01-.2,.02-.31,.03s-.2,0-.27,0h-1.77v2.52h-1.21Zm1.21-3.64h1.72c.07,0,.14,0,.22,0,.08,0,.16-.02,.23-.04,.2-.05,.36-.14,.47-.26s.2-.27,.25-.43c.05-.16,.07-.32,.07-.47s-.02-.31-.07-.47c-.05-.16-.13-.31-.25-.43-.12-.13-.27-.22-.47-.27-.07-.02-.15-.03-.23-.04-.08,0-.16,0-.22,0h-1.72v2.43Z"/><path class="b" d="M467.66,209.11c-.55,0-1.03-.12-1.44-.36s-.74-.57-.97-.99c-.23-.42-.35-.9-.35-1.45,0-.59,.11-1.1,.34-1.54s.54-.77,.94-1.01,.87-.36,1.4-.36c.56,0,1.04,.13,1.43,.39,.39,.26,.68,.63,.87,1.11,.19,.48,.26,1.04,.21,1.68h-1.19v-.44c0-.59-.11-1.01-.31-1.28-.2-.27-.52-.41-.96-.41-.49,0-.86,.15-1.1,.46-.24,.31-.36,.75-.36,1.34,0,.55,.12,.97,.36,1.27,.24,.3,.59,.45,1.05,.45,.3,0,.55-.07,.77-.2s.38-.32,.5-.57l1.19,.36c-.21,.49-.53,.87-.96,1.14-.43,.27-.91,.41-1.43,.41Zm-1.86-2.52v-.91h3.71v.91h-3.71Z"/><path class="b" d="M472.63,209.11c-.39,0-.72-.07-.99-.22-.27-.15-.47-.35-.61-.59-.14-.25-.21-.52-.21-.82,0-.26,.04-.49,.13-.7,.09-.21,.22-.39,.4-.54,.18-.15,.41-.28,.7-.37,.22-.07,.47-.13,.76-.19s.61-.11,.95-.16c.34-.05,.7-.1,1.07-.16l-.43,.25c0-.37-.08-.65-.25-.83-.17-.18-.46-.26-.86-.26-.24,0-.48,.06-.71,.17s-.38,.31-.47,.58l-1.1-.34c.13-.46,.39-.82,.76-1.1,.38-.28,.88-.42,1.52-.42,.48,0,.9,.08,1.27,.23,.37,.16,.64,.41,.81,.77,.1,.19,.16,.38,.17,.58,.02,.2,.03,.41,.03,.65v3.32h-1.05v-1.17l.17,.19c-.24,.39-.53,.68-.85,.86-.33,.18-.73,.27-1.22,.27Zm.24-.96c.27,0,.51-.05,.7-.14s.35-.21,.46-.36c.12-.14,.19-.27,.23-.39,.06-.15,.1-.33,.11-.53,0-.2,.01-.36,.01-.48l.37,.11c-.36,.06-.67,.11-.93,.15-.26,.04-.48,.08-.67,.12-.19,.04-.35,.08-.5,.13-.14,.05-.26,.11-.36,.17s-.17,.14-.22,.23c-.05,.09-.08,.19-.08,.3,0,.13,.03,.25,.1,.35,.07,.1,.16,.18,.29,.24,.13,.06,.29,.09,.48,.09Z"/><path class="b" d="M476.87,208.96v-7.2h1.23v4.4l1.97-2.6h1.51l-2.1,2.7,2.28,2.7h-1.59l-2.07-2.6v2.6h-1.23Z"/><path class="b" d="M484.25,209.11c-.67,0-1.21-.15-1.62-.45-.42-.3-.67-.72-.76-1.27l1.23-.19c.06,.27,.2,.48,.42,.63s.49,.23,.82,.23c.29,0,.51-.06,.67-.17,.16-.12,.24-.27,.24-.47,0-.12-.03-.22-.09-.3s-.19-.15-.38-.22c-.2-.07-.5-.16-.9-.26-.45-.12-.81-.25-1.08-.39-.27-.14-.46-.3-.58-.49-.12-.19-.17-.42-.17-.69,0-.34,.09-.63,.26-.88s.42-.44,.74-.58,.69-.2,1.12-.2,.79,.06,1.12,.19,.59,.32,.79,.56c.2,.24,.32,.52,.37,.84l-1.23,.22c-.03-.23-.13-.41-.31-.54-.18-.13-.42-.21-.71-.22-.28-.02-.51,.03-.68,.13-.17,.1-.26,.24-.26,.43,0,.1,.03,.19,.1,.26s.21,.15,.42,.22c.21,.07,.53,.16,.95,.27,.43,.11,.77,.24,1.03,.38,.26,.14,.45,.31,.56,.51,.11,.2,.17,.44,.17,.71,0,.54-.2,.97-.59,1.28-.4,.31-.94,.47-1.64,.47Z"/></g><g><path class="b" d="M458.9,171.16v-7.2h2.97c.07,0,.16,0,.27,0,.11,0,.21,.02,.3,.03,.42,.06,.76,.2,1.03,.42s.47,.48,.61,.81,.2,.69,.2,1.08-.07,.75-.2,1.08c-.13,.32-.34,.59-.61,.81-.27,.21-.61,.35-1.03,.42-.09,.01-.2,.02-.31,.03-.11,0-.2,0-.27,0h-1.77v2.52h-1.21Zm1.21-3.64h1.72c.07,0,.14,0,.22,0,.08,0,.16-.02,.23-.04,.2-.05,.36-.14,.47-.27s.2-.27,.25-.43c.05-.16,.07-.32,.07-.47s-.02-.31-.07-.47c-.05-.16-.13-.3-.25-.43s-.27-.21-.47-.27c-.07-.02-.15-.03-.23-.04-.08,0-.16,0-.22,0h-1.72v2.43Z"/><path class="b" d="M467.66,171.31c-.55,0-1.03-.12-1.44-.36s-.74-.56-.97-.98c-.23-.42-.35-.9-.35-1.45,0-.59,.11-1.1,.34-1.54,.23-.43,.54-.77,.94-1.01,.4-.24,.87-.36,1.4-.36,.56,0,1.04,.13,1.43,.39,.39,.26,.68,.63,.87,1.11,.19,.48,.26,1.04,.21,1.68h-1.19v-.44c0-.59-.11-1.02-.31-1.29s-.52-.41-.96-.41c-.49,0-.86,.15-1.1,.46s-.36,.75-.36,1.34c0,.55,.12,.97,.36,1.27,.24,.3,.59,.45,1.05,.45,.3,0,.55-.07,.77-.2,.21-.13,.38-.32,.5-.57l1.19,.36c-.21,.49-.53,.87-.96,1.14-.43,.27-.91,.41-1.43,.41Zm-1.86-2.52v-.91h3.71v.91h-3.71Z"/><path class="b" d="M472.63,171.31c-.39,0-.72-.07-.99-.22-.27-.15-.47-.35-.61-.59s-.21-.52-.21-.82c0-.26,.04-.49,.13-.7,.09-.21,.22-.39,.4-.54,.18-.15,.41-.28,.7-.37,.22-.07,.47-.13,.76-.19s.61-.11,.95-.16,.7-.1,1.07-.16l-.43,.24c0-.37-.08-.65-.25-.82-.17-.18-.46-.27-.86-.27-.24,0-.48,.06-.71,.17s-.38,.31-.47,.59l-1.1-.35c.13-.46,.39-.82,.76-1.1,.38-.28,.88-.42,1.52-.42,.48,0,.9,.08,1.27,.24,.37,.16,.64,.41,.81,.77,.1,.19,.16,.38,.17,.58,.02,.2,.03,.41,.03,.65v3.31h-1.05v-1.17l.17,.19c-.24,.39-.53,.68-.85,.86-.33,.18-.73,.27-1.22,.27Zm.24-.96c.27,0,.51-.05,.7-.14s.35-.21,.46-.36c.12-.14,.19-.27,.23-.39,.06-.15,.1-.33,.11-.53,0-.2,.01-.36,.01-.48l.37,.11c-.36,.06-.67,.11-.93,.15-.26,.04-.48,.08-.67,.12-.19,.04-.35,.08-.5,.13-.14,.05-.26,.11-.36,.18-.1,.07-.17,.14-.22,.23s-.08,.19-.08,.3c0,.13,.03,.25,.1,.35,.07,.1,.16,.18,.29,.24,.13,.06,.29,.09,.48,.09Z"/><path class="b" d="M476.87,171.16v-7.2h1.23v4.4l1.97-2.6h1.51l-2.1,2.7,2.28,2.7h-1.59l-2.07-2.6v2.6h-1.23Z"/><path class="b" d="M484.25,171.31c-.67,0-1.21-.15-1.62-.45-.42-.3-.67-.72-.76-1.26l1.23-.19c.06,.27,.2,.48,.42,.63s.49,.23,.82,.23c.29,0,.51-.06,.67-.17,.16-.12,.24-.27,.24-.47,0-.12-.03-.22-.09-.3-.06-.07-.19-.15-.38-.22-.2-.07-.5-.16-.9-.27-.45-.12-.81-.25-1.08-.39-.27-.14-.46-.3-.58-.49-.12-.19-.17-.42-.17-.69,0-.34,.09-.63,.26-.88s.42-.44,.74-.58,.69-.2,1.12-.2,.79,.07,1.12,.19c.33,.13,.59,.32,.79,.56,.2,.24,.32,.52,.37,.84l-1.23,.22c-.03-.23-.13-.41-.31-.54-.18-.13-.42-.21-.71-.23-.28-.02-.51,.03-.68,.13-.17,.1-.26,.24-.26,.43,0,.1,.03,.19,.1,.26,.07,.07,.21,.15,.42,.22,.21,.07,.53,.16,.95,.27,.43,.11,.77,.24,1.03,.38,.26,.14,.45,.31,.56,.51,.11,.2,.17,.44,.17,.71,0,.54-.2,.97-.59,1.28-.4,.31-.94,.46-1.64,.46Z"/></g><g><path class="b" d="M458.9,133.36v-7.2h2.97c.07,0,.16,0,.27,0,.11,0,.21,.02,.3,.03,.42,.06,.76,.2,1.03,.41,.27,.21,.47,.48,.61,.81,.13,.32,.2,.69,.2,1.08,0,.59-.15,1.09-.45,1.51-.3,.42-.75,.68-1.36,.78l-.52,.04h-1.85v2.52h-1.21Zm1.21-3.64h1.72c.07,0,.14,0,.22,0,.08,0,.16-.02,.23-.04,.2-.05,.36-.14,.47-.26s.2-.27,.25-.43c.05-.16,.07-.32,.07-.47s-.02-.31-.07-.47c-.05-.16-.13-.31-.25-.43-.12-.13-.27-.22-.47-.27-.07-.02-.15-.03-.23-.04-.08,0-.16,0-.22,0h-1.72v2.43Zm2.93,3.64l-1.42-2.93,1.22-.27,1.56,3.2h-1.37Z"/><path class="b" d="M467.89,133.51c-.54,0-1.01-.12-1.42-.37-.4-.24-.72-.58-.94-1.01-.22-.43-.33-.92-.33-1.48s.11-1.06,.34-1.49,.54-.76,.94-1c.4-.24,.87-.36,1.4-.36s1.02,.12,1.42,.37c.4,.24,.72,.58,.94,1.01,.22,.43,.33,.92,.33,1.48s-.11,1.05-.34,1.48c-.22,.43-.54,.76-.94,1s-.88,.36-1.42,.36Zm0-1.13c.48,0,.84-.16,1.07-.48,.23-.32,.35-.73,.35-1.24s-.12-.94-.35-1.25c-.24-.31-.59-.47-1.07-.47-.32,0-.59,.07-.8,.22-.21,.14-.36,.35-.46,.61-.1,.26-.15,.56-.15,.9,0,.52,.12,.94,.36,1.25,.24,.31,.59,.47,1.05,.47Z"/><path class="b" d="M474.07,133.51c-.54,0-1.01-.12-1.42-.37-.4-.24-.72-.58-.94-1.01-.22-.43-.33-.92-.33-1.48s.11-1.06,.34-1.49,.54-.76,.94-1c.4-.24,.87-.36,1.4-.36s1.02,.12,1.42,.37c.4,.24,.72,.58,.94,1.01,.22,.43,.33,.92,.33,1.48s-.11,1.05-.34,1.48c-.22,.43-.54,.76-.94,1s-.88,.36-1.42,.36Zm0-1.13c.48,0,.84-.16,1.07-.48,.23-.32,.35-.73,.35-1.24s-.12-.94-.35-1.25c-.24-.31-.59-.47-1.07-.47-.32,0-.59,.07-.8,.22-.21,.14-.36,.35-.46,.61-.1,.26-.15,.56-.15,.9,0,.52,.12,.94,.36,1.25,.24,.31,.59,.47,1.05,.47Z"/><path class="b" d="M477.26,128.9v-.95h3.77v.95h-3.77Zm3.77,4.46c-.36,.07-.71,.1-1.05,.09-.34,0-.65-.07-.92-.19-.27-.12-.48-.3-.62-.56-.12-.23-.19-.47-.2-.71,0-.24,0-.52,0-.82v-4.7h1.2v4.62c0,.22,0,.41,0,.57,0,.16,.04,.3,.1,.4,.12,.2,.31,.31,.58,.33s.56,0,.9-.04v1.01Z"/></g><g><path class="b" d="M.7,116.75v-7.2H3.67c.07,0,.16,0,.27,0,.11,0,.21,.02,.3,.03,.42,.06,.76,.2,1.03,.42,.27,.21,.47,.48,.61,.81s.2,.69,.2,1.08c0,.59-.15,1.09-.45,1.51-.3,.42-.75,.68-1.36,.78l-.52,.04H1.9v2.51H.7Zm1.21-3.64h1.72c.07,0,.14,0,.22,0,.08,0,.16-.02,.23-.04,.2-.05,.36-.14,.47-.27,.12-.13,.2-.27,.25-.43,.05-.16,.07-.32,.07-.47s-.02-.31-.07-.47c-.05-.16-.13-.31-.25-.43s-.27-.21-.47-.26c-.07-.02-.15-.03-.23-.04-.08,0-.16,0-.22,0H1.9v2.43Zm2.93,3.64l-1.42-2.93,1.22-.27,1.56,3.2h-1.37Z"/><path class="b" d="M9.68,116.9c-.54,0-1.01-.12-1.42-.37s-.72-.58-.94-1.01c-.22-.43-.33-.92-.33-1.48s.11-1.06,.34-1.49,.54-.76,.94-1c.4-.24,.87-.36,1.4-.36s1.02,.12,1.42,.37,.72,.58,.94,1.01c.22,.43,.33,.92,.33,1.48s-.11,1.05-.34,1.48c-.22,.43-.54,.76-.94,1-.4,.24-.88,.36-1.42,.36Zm0-1.13c.48,0,.84-.16,1.07-.48,.23-.32,.35-.73,.35-1.24s-.12-.94-.35-1.25c-.24-.31-.59-.47-1.07-.47-.32,0-.59,.07-.8,.22-.21,.14-.36,.35-.46,.6-.1,.26-.15,.56-.15,.9,0,.52,.12,.94,.36,1.25s.59,.47,1.05,.47Z"/><path class="b" d="M14.43,116.75l-1.65-5.41h1.18l1.05,3.48,1.07-3.46h1.01l1.07,3.46,1.06-3.46h1.18l-1.65,5.4h-.94l-1.23-3.71-1.22,3.71h-.94Z"/><path class="b" d="M25.36,116.88c-.36,0-.7-.07-1.02-.21-.32-.14-.6-.34-.83-.59-.23-.26-.4-.56-.51-.91l1.17-.31c.08,.29,.24,.51,.46,.66s.47,.23,.73,.23c.24,0,.45-.05,.63-.17,.19-.11,.33-.26,.44-.45s.16-.4,.16-.63c0-.36-.12-.65-.35-.89-.23-.24-.53-.36-.89-.36-.11,0-.22,.01-.32,.04-.11,.03-.21,.07-.3,.12l-.55-.95,2.42-2.07,.11,.29h-3.43v-1.14h4.42v1.14l-1.94,1.87v-.36c.43,.03,.8,.15,1.11,.37,.31,.21,.54,.49,.71,.83s.25,.71,.25,1.1c0,.45-.11,.86-.33,1.22-.22,.36-.52,.64-.89,.85-.37,.21-.78,.31-1.23,.31Z"/></g><g><path class="b" d="M.84,85.75v-8.64h1.45v3.64H6.38v-3.64h1.44v8.64h-1.44v-3.65H2.29v3.65H.84Z"/><path class="b" d="M11.31,85.93c-.47,0-.86-.09-1.19-.27-.32-.18-.57-.42-.74-.71s-.25-.62-.25-.98c0-.31,.05-.59,.16-.84,.1-.25,.26-.47,.48-.65,.22-.18,.5-.33,.84-.45,.26-.08,.56-.16,.92-.23,.35-.07,.73-.13,1.14-.19,.41-.06,.84-.12,1.29-.19l-.52,.29c0-.45-.1-.78-.3-.99-.2-.21-.55-.32-1.03-.32-.29,0-.57,.07-.85,.2-.27,.14-.46,.37-.57,.7l-1.32-.41c.16-.55,.46-.99,.92-1.32s1.06-.5,1.82-.5c.58,0,1.08,.09,1.52,.28,.44,.19,.76,.5,.98,.92,.12,.23,.19,.46,.21,.7,.02,.24,.04,.5,.04,.78v3.98h-1.27v-1.4l.21,.23c-.29,.47-.63,.81-1.02,1.03-.39,.22-.88,.33-1.46,.33Zm.29-1.15c.33,0,.61-.06,.84-.17,.23-.12,.42-.26,.55-.43s.23-.33,.28-.47c.08-.18,.12-.4,.13-.63,0-.24,.01-.43,.01-.58l.44,.13c-.44,.07-.81,.13-1.12,.18-.31,.05-.58,.1-.8,.15-.22,.05-.42,.1-.59,.15-.17,.06-.31,.13-.43,.21s-.21,.17-.27,.28c-.06,.1-.09,.23-.09,.37,0,.16,.04,.3,.12,.42s.2,.22,.35,.29c.15,.07,.34,.11,.57,.11Z"/><path class="b" d="M18.91,85.93c-.8,0-1.45-.18-1.95-.54s-.8-.87-.91-1.52l1.48-.23c.08,.32,.24,.57,.5,.76,.26,.18,.59,.28,.98,.28,.35,0,.62-.07,.81-.21s.29-.33,.29-.57c0-.15-.04-.27-.11-.36-.07-.09-.22-.18-.46-.26-.24-.08-.6-.19-1.09-.32-.54-.14-.98-.3-1.3-.46s-.55-.36-.69-.59c-.14-.23-.21-.5-.21-.83,0-.4,.11-.76,.32-1.06,.21-.3,.51-.53,.89-.69,.38-.16,.83-.24,1.34-.24s.95,.08,1.34,.23c.39,.16,.71,.38,.95,.67,.24,.29,.39,.63,.44,1.01l-1.48,.26c-.04-.28-.16-.49-.38-.65-.21-.16-.5-.25-.86-.27-.34-.02-.61,.03-.82,.15s-.31,.29-.31,.51c0,.12,.04,.23,.13,.32s.25,.18,.51,.26,.63,.2,1.14,.32c.52,.13,.93,.28,1.24,.45,.31,.17,.53,.37,.67,.61,.14,.24,.21,.52,.21,.86,0,.65-.24,1.16-.71,1.54-.47,.37-1.13,.56-1.96,.56Z"/><path class="b" d="M22.9,85.75v-8.64h1.29v4.55h.17v4.09h-1.46Zm4.49,0v-3.12c0-.2-.01-.43-.04-.68-.03-.25-.09-.49-.2-.72-.1-.23-.25-.42-.46-.57-.2-.15-.47-.22-.82-.22-.18,0-.37,.03-.55,.09-.18,.06-.34,.16-.49,.31s-.26,.35-.35,.6c-.09,.25-.13,.58-.13,.98l-.86-.37c0-.55,.11-1.05,.32-1.5s.53-.8,.95-1.07c.42-.27,.93-.4,1.54-.4,.48,0,.88,.08,1.19,.24,.31,.16,.56,.36,.74,.61s.32,.51,.41,.79c.09,.28,.14,.54,.17,.79s.04,.45,.04,.61v3.62h-1.46Z"/><path class="b" d="M34.89,85.75v-7.28h-2.8v-1.36h7.04v1.36h-2.8v7.28h-1.45Z"/><path class="b" d="M41.06,85.93c-.47,0-.86-.09-1.19-.27-.32-.18-.57-.42-.74-.71s-.25-.62-.25-.98c0-.31,.05-.59,.16-.84,.1-.25,.26-.47,.48-.65,.22-.18,.5-.33,.84-.45,.26-.08,.56-.16,.92-.23,.35-.07,.73-.13,1.14-.19,.41-.06,.84-.12,1.29-.19l-.52,.29c0-.45-.1-.78-.3-.99-.2-.21-.55-.32-1.03-.32-.29,0-.57,.07-.85,.2-.27,.14-.46,.37-.57,.7l-1.32-.41c.16-.55,.46-.99,.92-1.32s1.06-.5,1.82-.5c.58,0,1.08,.09,1.52,.28,.44,.19,.76,.5,.98,.92,.12,.23,.19,.46,.21,.7,.02,.24,.04,.5,.04,.78v3.98h-1.27v-1.4l.21,.23c-.29,.47-.63,.81-1.02,1.03-.39,.22-.88,.33-1.46,.33Zm.29-1.15c.33,0,.61-.06,.84-.17,.23-.12,.42-.26,.55-.43s.23-.33,.28-.47c.08-.18,.12-.4,.13-.63,0-.24,.01-.43,.01-.58l.44,.13c-.44,.07-.81,.13-1.12,.18-.31,.05-.58,.1-.8,.15-.22,.05-.42,.1-.59,.15-.17,.06-.31,.13-.43,.21s-.21,.17-.27,.28c-.06,.1-.09,.23-.09,.37,0,.16,.04,.3,.12,.42s.2,.22,.35,.29c.15,.07,.34,.11,.57,.11Z"/><path class="b" d="M46.15,85.75v-8.64h1.46v4.09h-.18v4.55h-1.28Zm3.13,.18c-.63,0-1.16-.15-1.59-.45-.43-.3-.75-.71-.97-1.23-.22-.52-.32-1.1-.32-1.74s.11-1.24,.32-1.75c.22-.52,.53-.92,.95-1.22s.94-.45,1.55-.45,1.14,.15,1.59,.45,.8,.7,1.05,1.22,.37,1.1,.37,1.75-.12,1.23-.37,1.75-.59,.92-1.03,1.22c-.44,.3-.96,.45-1.56,.45Zm-.22-1.3c.38,0,.69-.09,.93-.28,.24-.19,.42-.44,.54-.76s.18-.68,.18-1.08-.06-.75-.18-1.07c-.12-.32-.31-.58-.56-.77-.25-.19-.57-.29-.96-.29-.37,0-.67,.09-.9,.27-.23,.18-.4,.43-.51,.74-.11,.32-.17,.69-.17,1.11s.05,.79,.17,1.11c.11,.32,.28,.57,.52,.75,.24,.18,.55,.27,.94,.27Z"/><path class="b" d="M53.67,85.75v-8.82h1.45v8.82h-1.45Z"/><path class="b" d="M59.87,85.93c-.66,0-1.23-.14-1.73-.43s-.88-.68-1.16-1.18c-.28-.5-.42-1.08-.42-1.74,0-.71,.14-1.32,.41-1.85,.27-.52,.65-.93,1.13-1.21,.48-.29,1.04-.43,1.68-.43,.67,0,1.24,.16,1.71,.47,.47,.31,.82,.76,1.05,1.33,.23,.57,.31,1.25,.26,2.02h-1.43v-.53c0-.7-.13-1.22-.37-1.54s-.63-.49-1.15-.49c-.59,0-1.03,.18-1.32,.55-.29,.37-.43,.9-.43,1.61,0,.66,.14,1.16,.43,1.52,.29,.36,.71,.54,1.26,.54,.36,0,.66-.08,.92-.24s.46-.39,.6-.69l1.43,.43c-.25,.58-.63,1.04-1.15,1.36-.52,.32-1.09,.49-1.71,.49Zm-2.23-3.02v-1.09h4.46v1.09h-4.46Z"/><path class="b" d="M66.54,85.75v-8.64h3.57c.08,0,.19,0,.32,0,.13,0,.25,.02,.37,.04,.5,.08,.91,.24,1.24,.5,.33,.26,.57,.58,.73,.97,.16,.39,.24,.82,.24,1.3,0,.7-.18,1.31-.53,1.81-.36,.51-.9,.82-1.64,.94l-.62,.05h-2.23v3.02h-1.45Zm1.45-4.37h2.06c.08,0,.17,0,.27-.01,.1,0,.19-.02,.28-.05,.24-.06,.43-.17,.57-.32s.24-.32,.29-.52c.06-.19,.09-.38,.09-.56s-.03-.37-.09-.57c-.06-.19-.16-.37-.29-.52s-.33-.26-.57-.32c-.08-.02-.18-.04-.28-.04-.1,0-.19,0-.27,0h-2.06v2.92Zm3.52,4.37l-1.7-3.52,1.47-.32,1.87,3.84h-1.64Z"/><path class="b" d="M77.33,85.93c-.65,0-1.21-.15-1.7-.44s-.86-.7-1.12-1.21c-.27-.51-.4-1.11-.4-1.77s.14-1.28,.41-1.79c.27-.51,.65-.91,1.13-1.2,.48-.29,1.04-.43,1.68-.43s1.22,.15,1.7,.44c.48,.29,.86,.7,1.13,1.21,.27,.51,.4,1.11,.4,1.77s-.13,1.26-.4,1.78c-.27,.51-.65,.92-1.13,1.21-.48,.29-1.05,.43-1.7,.43Zm0-1.36c.58,0,1-.19,1.28-.58,.28-.38,.42-.88,.42-1.49s-.14-1.13-.43-1.5c-.28-.37-.71-.56-1.28-.56-.39,0-.71,.09-.96,.26s-.44,.42-.55,.73c-.12,.31-.18,.67-.18,1.08,0,.63,.14,1.13,.43,1.5,.29,.37,.71,.56,1.26,.56Z"/><path class="b" d="M83.02,85.75l-1.98-6.49h1.42l1.27,4.17,1.28-4.16h1.22l1.28,4.16,1.27-4.16h1.42l-1.98,6.48h-1.13l-1.47-4.46-1.46,4.46h-1.13Z"/></g><g><path class="b" d="M.7,217.35v-7.2H3.67c.07,0,.16,0,.27,0,.11,0,.21,.02,.3,.03,.42,.06,.76,.2,1.03,.42,.27,.21,.47,.48,.61,.81,.13,.33,.2,.69,.2,1.08,0,.59-.15,1.09-.45,1.51-.3,.42-.75,.68-1.36,.78l-.52,.04H1.9v2.51H.7Zm1.21-3.64h1.72c.07,0,.14,0,.22,0,.08,0,.16-.02,.23-.04,.2-.05,.36-.14,.47-.27,.12-.13,.2-.27,.25-.43,.05-.16,.07-.32,.07-.47s-.02-.31-.07-.47c-.05-.16-.13-.31-.25-.43s-.27-.21-.47-.26c-.07-.02-.15-.03-.23-.04-.08,0-.16,0-.22,0H1.9v2.43Zm2.93,3.64l-1.42-2.93,1.22-.27,1.56,3.2h-1.37Z"/><path class="b" d="M9.68,217.51c-.54,0-1.01-.12-1.42-.37-.4-.24-.72-.58-.94-1.01-.22-.43-.33-.92-.33-1.48s.11-1.06,.34-1.49,.54-.76,.94-1,.87-.36,1.4-.36,1.02,.12,1.42,.36,.72,.58,.94,1.01c.22,.43,.33,.92,.33,1.48s-.11,1.05-.34,1.48c-.22,.43-.54,.76-.94,1s-.88,.36-1.42,.36Zm0-1.13c.48,0,.84-.16,1.07-.48,.23-.32,.35-.73,.35-1.24s-.12-.94-.35-1.25c-.24-.31-.59-.47-1.07-.47-.32,0-.59,.07-.8,.22-.21,.15-.36,.35-.46,.6-.1,.26-.15,.56-.15,.9,0,.52,.12,.94,.36,1.25,.24,.31,.59,.47,1.05,.47Z"/><path class="b" d="M14.43,217.35l-1.65-5.41h1.18l1.05,3.48,1.07-3.46h1.01l1.07,3.46,1.06-3.46h1.18l-1.65,5.4h-.94l-1.23-3.71-1.22,3.71h-.94Z"/><path class="b" d="M23.1,217.34v-1.05l3.08-2.75c.24-.21,.41-.42,.5-.61,.09-.19,.14-.37,.14-.55,0-.24-.05-.46-.15-.64-.1-.19-.25-.34-.43-.45-.18-.11-.39-.17-.63-.17-.25,0-.47,.06-.66,.17-.19,.11-.34,.27-.45,.46-.11,.19-.16,.39-.15,.61h-1.24c0-.48,.11-.9,.32-1.25,.22-.36,.51-.63,.89-.83,.38-.2,.82-.29,1.31-.29,.46,0,.87,.1,1.24,.31,.37,.21,.65,.49,.86,.85,.21,.36,.32,.78,.32,1.25,0,.34-.05,.63-.14,.86-.09,.23-.23,.45-.42,.65s-.41,.42-.69,.66l-2.18,1.93-.11-.3h3.54v1.13h-4.96Z"/></g><g><path class="b" d="M.7,269.3v-7.2H3.67c.07,0,.16,0,.27,0,.11,0,.21,.02,.3,.03,.42,.06,.76,.2,1.03,.42,.27,.21,.47,.48,.61,.81s.2,.69,.2,1.08c0,.59-.15,1.09-.45,1.51-.3,.42-.75,.68-1.36,.78l-.52,.04H1.9v2.51H.7Zm1.21-3.64h1.72c.07,0,.14,0,.22,0,.08,0,.16-.02,.23-.04,.2-.05,.36-.14,.47-.27,.12-.13,.2-.27,.25-.43,.05-.16,.07-.32,.07-.47s-.02-.31-.07-.47c-.05-.16-.13-.31-.25-.43s-.27-.21-.47-.26c-.07-.02-.15-.03-.23-.04-.08,0-.16,0-.22,0H1.9v2.43Zm2.93,3.64l-1.42-2.93,1.22-.27,1.56,3.2h-1.37Z"/><path class="b" d="M9.68,269.45c-.54,0-1.01-.12-1.42-.37s-.72-.58-.94-1.01c-.22-.43-.33-.92-.33-1.48s.11-1.06,.34-1.49,.54-.76,.94-1c.4-.24,.87-.36,1.4-.36s1.02,.12,1.42,.37,.72,.58,.94,1.01c.22,.43,.33,.92,.33,1.48s-.11,1.05-.34,1.48c-.22,.43-.54,.76-.94,1-.4,.24-.88,.36-1.42,.36Zm0-1.13c.48,0,.84-.16,1.07-.48,.23-.32,.35-.73,.35-1.24s-.12-.94-.35-1.25c-.24-.31-.59-.47-1.07-.47-.32,0-.59,.07-.8,.22-.21,.14-.36,.35-.46,.6-.1,.26-.15,.56-.15,.9,0,.52,.12,.94,.36,1.25s.59,.47,1.05,.47Z"/><path class="b" d="M14.43,269.3l-1.65-5.41h1.18l1.05,3.48,1.07-3.46h1.01l1.07,3.46,1.06-3.46h1.18l-1.65,5.4h-.94l-1.23-3.71-1.22,3.71h-.94Z"/><path class="b" d="M24.55,269.3v-5.88l-1.35,.83v-1.33l1.35-.81h1.23v7.2h-1.23Z"/></g><g><path class="b" d="M.7,307.74v-7.2H3.67c.07,0,.16,0,.27,0,.11,0,.21,.02,.3,.03,.42,.06,.76,.2,1.03,.42,.27,.21,.47,.48,.61,.81s.2,.69,.2,1.08c0,.59-.15,1.09-.45,1.51-.3,.42-.75,.68-1.36,.78l-.52,.04H1.9v2.51H.7Zm1.21-3.64h1.72c.07,0,.14,0,.22,0,.08,0,.16-.02,.23-.04,.2-.05,.36-.14,.47-.27,.12-.13,.2-.27,.25-.43,.05-.16,.07-.32,.07-.47s-.02-.31-.07-.47c-.05-.16-.13-.31-.25-.43s-.27-.21-.47-.26c-.07-.02-.15-.03-.23-.04-.08,0-.16,0-.22,0H1.9v2.43Zm2.93,3.64l-1.42-2.93,1.22-.27,1.56,3.2h-1.37Z"/><path class="b" d="M9.68,307.89c-.54,0-1.01-.12-1.42-.37s-.72-.58-.94-1.01c-.22-.43-.33-.92-.33-1.48s.11-1.06,.34-1.49,.54-.76,.94-1c.4-.24,.87-.36,1.4-.36s1.02,.12,1.42,.37,.72,.58,.94,1.01c.22,.43,.33,.92,.33,1.48s-.11,1.05-.34,1.48c-.22,.43-.54,.76-.94,1-.4,.24-.88,.36-1.42,.36Zm0-1.13c.48,0,.84-.16,1.07-.48,.23-.32,.35-.73,.35-1.24s-.12-.94-.35-1.25c-.24-.31-.59-.47-1.07-.47-.32,0-.59,.07-.8,.22-.21,.14-.36,.35-.46,.6-.1,.26-.15,.56-.15,.9,0,.52,.12,.94,.36,1.25s.59,.47,1.05,.47Z"/><path class="b" d="M14.43,307.74l-1.65-5.41h1.18l1.05,3.48,1.07-3.46h1.01l1.07,3.46,1.06-3.46h1.18l-1.65,5.4h-.94l-1.23-3.71-1.22,3.71h-.94Z"/><path class="b" d="M25.89,307.89c-.51,0-.96-.11-1.35-.33-.39-.22-.69-.52-.91-.91-.22-.39-.33-.84-.33-1.35v-2.32c0-.51,.11-.96,.33-1.35,.22-.39,.52-.69,.91-.91,.39-.22,.84-.33,1.35-.33s.96,.11,1.35,.33c.39,.22,.69,.52,.91,.91,.22,.39,.33,.84,.33,1.35v2.32c0,.51-.11,.96-.33,1.35s-.52,.69-.91,.91c-.39,.22-.84,.33-1.35,.33Zm0-1.15c.25,0,.48-.06,.69-.18,.21-.12,.37-.28,.49-.49s.18-.43,.18-.69v-2.5c0-.26-.06-.49-.18-.69s-.28-.37-.49-.49c-.21-.12-.44-.18-.69-.18s-.48,.06-.69,.18c-.21,.12-.37,.29-.49,.49s-.18,.44-.18,.69v2.5c0,.25,.06,.48,.18,.69s.28,.37,.49,.49c.21,.12,.44,.18,.69,.18Z"/></g><g><path class="f" d="M155.34,119.23c-.66,0-1.25-.14-1.75-.43-.51-.28-.9-.68-1.19-1.19-.28-.51-.43-1.09-.43-1.75v-3.02c0-.66,.14-1.25,.43-1.75,.28-.51,.68-.9,1.19-1.19,.51-.28,1.09-.43,1.75-.43s1.25,.14,1.75,.43c.5,.28,.9,.68,1.19,1.19,.29,.51,.43,1.09,.43,1.75v3.02c0,.66-.14,1.25-.43,1.75s-.68,.9-1.19,1.19c-.5,.28-1.09,.43-1.75,.43Zm0-1.49c.33,0,.63-.08,.9-.24s.48-.37,.64-.64c.16-.27,.23-.56,.23-.89v-3.24c0-.33-.08-.63-.23-.9-.16-.27-.37-.48-.64-.64s-.57-.24-.9-.24-.63,.08-.9,.24-.48,.37-.64,.64-.23,.57-.23,.9v3.24c0,.33,.08,.63,.23,.89s.37,.48,.64,.64,.57,.24,.9,.24Z"/><path class="f" d="M97.22,219.67c-.66,0-1.25-.14-1.75-.43-.51-.28-.9-.68-1.19-1.19-.28-.51-.43-1.09-.43-1.75v-3.02c0-.66,.14-1.25,.43-1.75,.28-.51,.68-.9,1.19-1.19,.51-.28,1.09-.43,1.75-.43s1.25,.14,1.75,.43c.5,.28,.9,.68,1.19,1.19,.29,.51,.43,1.09,.43,1.75v3.02c0,.66-.14,1.25-.43,1.75s-.68,.9-1.19,1.19c-.5,.28-1.09,.43-1.75,.43Zm0-1.49c.33,0,.63-.08,.9-.24s.48-.37,.64-.64c.16-.27,.23-.56,.23-.89v-3.24c0-.33-.08-.63-.23-.9-.16-.27-.37-.48-.64-.64s-.57-.24-.9-.24-.63,.08-.9,.24-.48,.37-.64,.64-.23,.57-.23,.9v3.24c0,.33,.08,.63,.23,.89s.37,.48,.64,.64,.57,.24,.9,.24Z"/><path class="f" d="M213.21,219.47v-7.65l-1.75,1.07v-1.73l1.75-1.05h1.6v9.36h-1.6Z"/><path class="f" d="M67.52,271.11c-.66,0-1.25-.14-1.75-.43-.51-.28-.9-.68-1.19-1.19-.28-.51-.43-1.09-.43-1.75v-3.02c0-.66,.14-1.25,.43-1.75,.28-.51,.68-.9,1.19-1.19,.51-.28,1.09-.43,1.75-.43s1.25,.14,1.75,.43c.5,.28,.9,.68,1.19,1.19,.29,.51,.43,1.09,.43,1.75v3.02c0,.66-.14,1.25-.43,1.75s-.68,.9-1.19,1.19c-.5,.28-1.09,.43-1.75,.43Zm0-1.49c.33,0,.63-.08,.9-.24s.48-.37,.64-.64c.16-.27,.23-.56,.23-.89v-3.24c0-.33-.08-.63-.23-.9-.16-.27-.37-.48-.64-.64s-.57-.24-.9-.24-.63,.08-.9,.24-.48,.37-.64,.64-.23,.57-.23,.9v3.24c0,.33,.08,.63,.23,.89s.37,.48,.64,.64,.57,.24,.9,.24Z"/><path class="f" d="M126.84,270.92v-7.65l-1.75,1.07v-1.73l1.75-1.05h1.6v9.36h-1.6Z"/><path class="f" d="M180.69,270.91v-1.37l4-3.57c.31-.28,.53-.54,.65-.79s.18-.49,.18-.71c0-.31-.07-.59-.2-.83-.13-.25-.32-.44-.56-.58-.24-.14-.51-.21-.82-.21-.33,0-.61,.07-.86,.22s-.44,.35-.58,.59-.2,.51-.19,.8h-1.61c0-.62,.14-1.17,.42-1.63,.28-.46,.67-.82,1.16-1.08,.49-.25,1.06-.38,1.71-.38,.6,0,1.14,.13,1.61,.4s.85,.63,1.12,1.11c.27,.47,.41,1.01,.41,1.62,0,.45-.06,.82-.18,1.12-.12,.3-.3,.58-.54,.84-.24,.26-.54,.54-.89,.85l-2.84,2.52-.14-.39h4.6v1.48h-6.44Z"/><path class="f" d="M242.82,271.09c-.47,0-.91-.09-1.33-.27-.42-.18-.78-.44-1.08-.77s-.53-.73-.66-1.18l1.51-.41c.11,.37,.31,.66,.59,.86,.29,.2,.61,.3,.95,.3,.31,0,.58-.07,.83-.21,.24-.14,.43-.34,.57-.58s.21-.52,.21-.82c0-.46-.15-.85-.45-1.16-.3-.31-.68-.47-1.16-.47-.14,0-.28,.02-.42,.06s-.27,.09-.39,.16l-.71-1.23,3.15-2.69,.14,.38h-4.45v-1.48h5.74v1.48l-2.53,2.43v-.46c.55,.04,1.04,.2,1.44,.47,.4,.28,.71,.63,.92,1.07,.21,.44,.32,.92,.32,1.44,0,.59-.14,1.12-.43,1.59-.29,.47-.67,.84-1.16,1.11-.48,.27-1.02,.41-1.6,.41Z"/><path class="f" d="M300.85,270.92v-1.55h-4.15v-1.46l3-6.35h1.79l-3,6.35h2.36v-2.44h1.59v2.44h.88v1.46h-.88v1.55h-1.59Z"/><path class="f" d="M81.56,308.38v-5.88l-1.35,.83v-1.33l1.35-.81h1.23v7.2h-1.23Z"/><path class="f" d="M109.9,308.37v-1.05l3.08-2.75c.24-.21,.41-.42,.5-.61,.09-.19,.14-.37,.14-.55,0-.24-.05-.45-.15-.64-.1-.19-.25-.34-.43-.45-.18-.11-.39-.17-.63-.17-.25,0-.47,.06-.66,.17-.19,.12-.34,.27-.45,.46-.11,.19-.16,.39-.15,.62h-1.24c0-.48,.11-.9,.32-1.25,.22-.36,.51-.63,.89-.83,.38-.2,.82-.29,1.31-.29,.46,0,.87,.1,1.24,.31,.37,.21,.65,.49,.86,.85s.32,.78,.32,1.25c0,.34-.05,.63-.14,.87-.09,.23-.23,.45-.42,.65-.18,.2-.41,.42-.69,.65l-2.18,1.94-.11-.3h3.54v1.13h-4.96Z"/><path class="f" d="M141.43,308.52c-.36,0-.7-.07-1.02-.21-.32-.14-.6-.34-.83-.59-.23-.26-.4-.56-.51-.91l1.17-.31c.08,.29,.24,.51,.46,.66s.47,.23,.73,.23c.24,0,.45-.05,.63-.17s.33-.26,.44-.45,.16-.4,.16-.63c0-.36-.12-.66-.35-.89-.23-.24-.53-.36-.89-.36-.11,0-.22,.01-.32,.04-.11,.03-.21,.07-.3,.12l-.55-.95,2.42-2.07,.11,.29h-3.43v-1.13h4.42v1.14l-1.94,1.87v-.35c.43,.03,.8,.15,1.11,.37,.31,.21,.54,.49,.71,.82,.17,.34,.25,.71,.25,1.11,0,.45-.11,.86-.33,1.22-.22,.36-.52,.64-.89,.85-.37,.21-.78,.31-1.23,.31Z"/><path class="f" d="M170.06,308.38v-1.19h-3.19v-1.12l2.3-4.88h1.38l-2.3,4.88h1.82v-1.88h1.22v1.88h.67v1.12h-.67v1.19h-1.22Z"/><path class="f" d="M198.26,308.51c-.37,0-.71-.08-1.03-.23-.32-.15-.59-.36-.82-.63s-.39-.58-.49-.93l1.16-.31c.05,.19,.13,.36,.26,.5,.12,.14,.27,.25,.44,.33,.17,.08,.34,.12,.52,.12,.23,0,.45-.06,.64-.17s.35-.27,.46-.46c.11-.19,.17-.4,.17-.64s-.06-.45-.17-.64c-.12-.19-.27-.34-.46-.46-.19-.11-.4-.17-.63-.17-.28,0-.51,.05-.69,.15-.18,.1-.32,.21-.42,.32l-1.03-.33,.22-3.81h3.91v1.13h-3.26l.45-.42-.16,2.65-.22-.27c.19-.17,.4-.3,.65-.38,.25-.08,.49-.12,.71-.12,.45,0,.85,.1,1.2,.31,.35,.21,.62,.48,.82,.84,.2,.35,.3,.75,.3,1.21s-.12,.86-.35,1.22c-.23,.37-.54,.66-.92,.87-.38,.22-.8,.33-1.25,.33Z"/><path class="f" d="M228.49,308.51c-.47,0-.89-.11-1.27-.33s-.67-.53-.89-.92c-.22-.39-.33-.84-.33-1.35v-2.19c0-.55,.11-1.02,.33-1.42,.22-.4,.53-.71,.92-.93,.4-.22,.85-.33,1.38-.33,.36,0,.71,.06,1.04,.18,.33,.12,.62,.32,.87,.58l-.87,.84c-.13-.15-.28-.27-.46-.35s-.37-.13-.57-.13c-.28,0-.53,.07-.74,.2s-.37,.3-.49,.52-.17,.44-.17,.68v1.2l-.22-.24c.21-.24,.46-.43,.75-.56,.29-.13,.59-.2,.91-.2,.45,0,.85,.1,1.2,.31s.62,.49,.82,.84c.2,.36,.3,.76,.3,1.21s-.11,.86-.34,1.22c-.23,.37-.53,.66-.91,.87-.38,.22-.79,.32-1.24,.32Zm0-1.16c.23,0,.45-.06,.64-.17,.19-.11,.35-.26,.46-.46,.11-.19,.17-.4,.17-.64s-.06-.45-.17-.64-.27-.35-.46-.46c-.19-.12-.4-.17-.64-.17s-.45,.06-.64,.17c-.19,.11-.35,.27-.46,.46s-.17,.41-.17,.64,.06,.44,.17,.63c.11,.19,.26,.34,.46,.46,.19,.12,.4,.17,.64,.17Z"/><path class="f" d="M255.94,308.36l2.48-6.06h-3.14v-1.14h4.43v1.14l-2.47,6.06h-1.3Z"/><path class="f" d="M285.4,308.51c-.48,0-.9-.1-1.27-.29s-.66-.46-.87-.81c-.21-.34-.32-.74-.32-1.18,0-.4,.09-.76,.28-1.11,.18-.34,.45-.61,.8-.81l-.02,.38c-.28-.21-.49-.45-.64-.73-.15-.27-.23-.58-.23-.93,0-.41,.1-.77,.29-1.07,.2-.3,.46-.54,.8-.71,.34-.17,.73-.25,1.17-.25s.84,.08,1.18,.25c.34,.17,.61,.4,.8,.71,.2,.3,.29,.66,.29,1.07,0,.34-.07,.65-.22,.93-.14,.27-.36,.52-.66,.74v-.39c.34,.2,.61,.47,.79,.81,.19,.34,.28,.71,.28,1.11,0,.44-.11,.84-.32,1.18-.21,.34-.5,.61-.88,.81-.37,.19-.8,.29-1.28,.29Zm0-1.14c.35,0,.64-.1,.86-.29,.22-.19,.33-.48,.33-.85s-.11-.66-.33-.85-.51-.29-.87-.29-.64,.1-.85,.29-.33,.48-.33,.85,.11,.66,.33,.85,.5,.29,.85,.29Zm0-3.43c.3,0,.54-.07,.72-.22,.19-.15,.28-.37,.28-.68s-.09-.53-.28-.68c-.18-.15-.43-.22-.72-.22s-.53,.07-.72,.22c-.19,.15-.28,.37-.28,.68s.09,.53,.28,.68c.18,.15,.42,.22,.72,.22Z"/><path class="f" d="M314.47,301.02c.47,0,.89,.11,1.27,.33s.67,.53,.89,.92c.22,.39,.33,.84,.33,1.35v2.19c0,.55-.11,1.02-.33,1.42s-.53,.71-.92,.94c-.4,.22-.85,.33-1.38,.33-.36,0-.71-.06-1.03-.18-.33-.12-.62-.32-.87-.58l.87-.84c.13,.15,.28,.27,.46,.35,.18,.09,.37,.13,.57,.13,.28,0,.53-.07,.74-.2,.21-.13,.37-.3,.49-.52,.12-.21,.17-.44,.17-.68v-1.2l.22,.24c-.21,.24-.46,.43-.75,.56s-.59,.2-.91,.2c-.45,0-.85-.1-1.2-.31-.35-.21-.62-.49-.82-.84-.2-.35-.3-.76-.3-1.21s.11-.86,.34-1.22c.23-.37,.53-.66,.91-.87,.38-.21,.79-.32,1.25-.32Zm0,1.16c-.23,0-.45,.06-.64,.17s-.35,.26-.46,.46c-.12,.19-.17,.4-.17,.64s.06,.45,.17,.64,.27,.35,.46,.46c.19,.12,.4,.17,.64,.17s.45-.06,.64-.17,.35-.27,.46-.46,.17-.41,.17-.64-.06-.44-.17-.63c-.11-.19-.26-.34-.46-.46-.19-.12-.4-.17-.64-.17Z"/><g><path class="f" d="M375.46,308.38v-5.88l-1.35,.83v-1.33l1.35-.81h1.23v7.2h-1.23Z"/><path class="f" d="M381.18,308.53c-.51,0-.96-.11-1.35-.33-.39-.22-.69-.52-.91-.91-.22-.39-.33-.84-.33-1.35v-2.32c0-.51,.11-.96,.33-1.35,.22-.39,.52-.69,.91-.91,.39-.22,.84-.33,1.35-.33s.96,.11,1.35,.33c.39,.22,.69,.52,.91,.91,.22,.39,.33,.84,.33,1.35v2.32c0,.51-.11,.96-.33,1.35-.22,.39-.52,.69-.91,.91-.39,.22-.84,.33-1.35,.33Zm0-1.15c.25,0,.48-.06,.69-.18,.21-.12,.37-.29,.49-.49,.12-.2,.18-.43,.18-.69v-2.49c0-.26-.06-.49-.18-.69-.12-.2-.28-.37-.49-.49-.21-.12-.44-.18-.69-.18s-.48,.06-.69,.18c-.21,.12-.37,.29-.49,.49-.12,.21-.18,.44-.18,.69v2.49c0,.25,.06,.48,.18,.69,.12,.21,.28,.37,.49,.49,.21,.12,.44,.18,.69,.18Z"/></g><path class="f" d="M52.98,308.53c-.51,0-.96-.11-1.35-.33-.39-.22-.69-.52-.91-.91-.22-.39-.33-.84-.33-1.35v-2.32c0-.51,.11-.96,.33-1.35,.22-.39,.52-.69,.91-.91,.39-.22,.84-.33,1.35-.33s.96,.11,1.35,.33c.39,.22,.69,.52,.91,.91,.22,.39,.33,.84,.33,1.35v2.32c0,.51-.11,.96-.33,1.35-.22,.39-.52,.69-.91,.91-.39,.22-.84,.33-1.35,.33Zm0-1.15c.25,0,.48-.06,.69-.18,.21-.12,.37-.29,.49-.49,.12-.2,.18-.43,.18-.69v-2.49c0-.26-.06-.49-.18-.69-.12-.2-.28-.37-.49-.49-.21-.12-.44-.18-.69-.18s-.48,.06-.69,.18c-.21,.12-.37,.29-.49,.49-.12,.21-.18,.44-.18,.69v2.49c0,.25,.06,.48,.18,.69,.12,.21,.28,.37,.49,.49,.21,.12,.44,.18,.69,.18Z"/></g><line class="i" y1="89.39" x2="92.95" y2="89.39"/></svg>