<?xml version="1.0" encoding="UTF-8"?><svg id="Layer_1" xmlns="http://www.w3.org/2000/svg" viewBox="0 0 1112.47 514.21"><defs><style>.cls-1,.cls-2{fill:#fff;}.cls-3{fill:#ff9682;}.cls-4{stroke-dasharray:0 0 5.54 5.54;}.cls-4,.cls-5,.cls-2,.cls-6,.cls-7,.cls-8{stroke-miterlimit:10;}.cls-4,.cls-5,.cls-7{fill:none;}.cls-4,.cls-2,.cls-7,.cls-8{stroke:#fff;}.cls-5{stroke-dasharray:0 0 6.14 5.57;}.cls-5,.cls-6{stroke:#82b366;}.cls-6{fill:#d5e8d4;}.cls-8{fill:#d3d3d8;stroke-dasharray:0 0 1.85 1.85;}.cls-9{isolation:isolate;}</style></defs><path class="cls-8" d="M10.07,374.72L136.47,38.28l126.39,336.43H10.07Z" pointer-events="none"/><path class="cls-6" d="M43.27,364.54c2.5,0,4.22-1.72,4.22-3.67,0-1.82-1.62-3.67-4.29-3.67-1.88,0-4.12,1.33-4.12,3.77,0,1.82,1.79,3.57,4.19,3.57Zm-5.23,31.7v-21.14c-4.32-1.79-8.12-6.04-8.12-10.91,0-6.85,5.98-12.24,13.38-12.24s13.51,5.36,13.51,12.41c0,4.32-3.61,8.64-8.25,10.75v4.94l-3.9,3.61,4.87,4.35v.23l-4.38,3.99,4.12,3.8-5.91,5.29-5.33-5.07Z" pointer-events="none"/><path class="cls-6" d="M86.19,364.54c2.5,0,4.25-1.72,4.25-3.67,0-1.82-1.62-3.67-4.32-3.67-1.88,0-4.12,1.33-4.12,3.77,0,1.82,1.79,3.57,4.19,3.57Zm-5.23,31.7v-21.14c-4.32-1.79-8.09-6.04-8.09-10.91,0-6.85,5.94-12.24,13.35-12.24s13.51,5.36,13.51,12.41c0,4.32-3.61,8.64-8.25,10.75v4.94l-3.9,3.61,4.87,4.35v.23l-4.38,3.99,4.12,3.8-5.91,5.29-5.33-5.07Z" pointer-events="none"/><path class="cls-7" d="M65.28,294.06l21.03-56.15" pointer-events="none"/><path class="cls-7" d="M44.26,350.21l21.03-56.15" pointer-events="none"/><path class="cls-7" d="M65.28,294.06l21.03,56.15" pointer-events="none"/><path class="cls-4" d="M86.31,237.91l20.89,56.15" pointer-events="none"/><path class="cls-7" d="M118.85,150.32l17.62-112.04" pointer-events="none"/><path class="cls-4" d="M118.85,150.32l14.76,39.67" pointer-events="none"/><path class="cls-4" d="M86.31,237.91l32.54-87.58" pointer-events="none"/><path class="cls-5" d="M173.97,384.27H100.32" pointer-events="none"/><g class="cls-9"><path class="cls-1" d="M302.48,374.72v-14.29h-5.53v-1.55h12.68v1.55h-5.53v14.29h-1.62Z"/><path class="cls-1" d="M314.59,375.05c-1.18,0-2.19-.27-3.03-.8s-1.48-1.28-1.92-2.22c-.45-.95-.67-2.03-.67-3.26s.23-2.34,.68-3.28c.46-.94,1.1-1.67,1.94-2.19,.84-.52,1.84-.79,3-.79s2.2,.27,3.04,.8c.84,.53,1.48,1.27,1.92,2.21,.44,.94,.67,2.03,.67,3.25s-.22,2.34-.67,3.28-1.09,1.68-1.94,2.21c-.84,.53-1.85,.79-3.03,.79Zm0-1.55c1.32,0,2.3-.44,2.95-1.31,.64-.88,.97-2.01,.97-3.42s-.32-2.58-.97-3.43c-.65-.85-1.63-1.28-2.94-1.28-.89,0-1.62,.2-2.19,.6-.58,.4-1,.95-1.29,1.66-.28,.71-.42,1.52-.42,2.45,0,1.43,.33,2.58,.99,3.44,.66,.86,1.63,1.29,2.92,1.29Z"/><path class="cls-1" d="M321.33,364.22v-1.39h7.79v1.39h-7.79Zm7.79,10.49c-.67,.14-1.33,.19-1.97,.17-.65-.03-1.23-.17-1.74-.42-.51-.25-.9-.64-1.16-1.17-.21-.44-.33-.89-.35-1.34-.02-.45-.03-.97-.03-1.55v-10.88h1.61v10.81c0,.5,0,.92,.02,1.25,.01,.33,.09,.63,.23,.89,.26,.49,.68,.78,1.26,.88,.58,.09,1.29,.07,2.14-.07v1.42Z"/><path class="cls-1" d="M334.86,375.05c-.9,0-1.64-.16-2.25-.48-.6-.32-1.06-.75-1.36-1.29s-.45-1.12-.45-1.75,.13-1.2,.39-1.66c.26-.46,.62-.83,1.07-1.13,.45-.29,.97-.52,1.57-.67,.6-.15,1.27-.28,2-.39s1.44-.21,2.15-.3c.7-.08,1.31-.17,1.84-.25l-.57,.35c.02-1.17-.21-2.04-.68-2.61-.48-.56-1.3-.85-2.49-.85-.81,0-1.5,.18-2.06,.55-.56,.37-.96,.95-1.18,1.74l-1.57-.46c.27-1.06,.82-1.89,1.64-2.48,.82-.59,1.89-.88,3.2-.88,1.08,0,2.01,.2,2.77,.61,.76,.41,1.3,1,1.61,1.77,.15,.34,.24,.73,.29,1.16,.04,.43,.07,.86,.07,1.3v7.38h-1.44v-2.98l.42,.18c-.4,1.02-1.03,1.8-1.88,2.33s-1.87,.8-3.06,.8Zm.19-1.4c.75,0,1.42-.14,1.98-.41,.56-.27,1.02-.64,1.36-1.12,.34-.47,.57-1.01,.67-1.6,.09-.38,.14-.8,.14-1.26,0-.46,.01-.8,.01-1.03l.62,.32c-.55,.07-1.15,.15-1.79,.22s-1.27,.16-1.89,.25c-.62,.09-1.18,.21-1.68,.34-.34,.1-.66,.23-.98,.4-.32,.17-.57,.4-.78,.69-.2,.29-.3,.64-.3,1.07,0,.34,.09,.68,.26,1,.17,.32,.45,.59,.84,.8,.38,.21,.9,.32,1.53,.32Z"/><path class="cls-1" d="M343.9,374.72v-16.17h1.62v16.17h-1.62Z"/><path class="cls-1" d="M353.21,374.72v-15.84h1.62v7.48l7.23-7.48h2.07l-7.38,7.65,7.99,8.19h-2.11l-7.79-7.92v7.92h-1.62Z"/><path class="cls-1" d="M370.42,375.05c-1.16,0-2.16-.26-3.01-.77-.85-.51-1.51-1.24-1.97-2.17-.47-.93-.7-2.02-.7-3.28s.23-2.42,.69-3.37c.46-.95,1.11-1.68,1.95-2.19,.84-.51,1.83-.77,2.98-.77s2.17,.27,3,.81,1.46,1.31,1.88,2.32c.43,1,.62,2.2,.58,3.6h-1.65v-.57c-.03-1.54-.36-2.7-1-3.49-.63-.78-1.56-1.18-2.78-1.18s-2.25,.41-2.93,1.24c-.68,.83-1.02,2.01-1.02,3.54s.34,2.66,1.02,3.48c.68,.83,1.64,1.24,2.89,1.24,.85,0,1.59-.2,2.23-.59,.63-.39,1.13-.96,1.5-1.7l1.51,.58c-.47,1.03-1.16,1.83-2.07,2.4-.91,.57-1.95,.85-3.1,.85Zm-4.54-5.82v-1.35h9.07v1.35h-9.07Z"/><path class="cls-1" d="M379.72,380l2.3-6.24,.03,1.85-5.2-12.77h1.72l4.27,10.68h-.7l3.94-10.68h1.65l-6.38,17.16h-1.62Z"/><path class="cls-1" d="M394.07,375.04c-1.39,0-2.54-.3-3.44-.9-.9-.6-1.45-1.44-1.66-2.51l1.65-.28c.18,.67,.58,1.21,1.2,1.61,.63,.4,1.4,.6,2.33,.6s1.61-.19,2.13-.57c.52-.38,.78-.89,.78-1.54,0-.37-.08-.67-.25-.9-.17-.23-.5-.45-1.01-.64s-1.26-.43-2.27-.7c-1.08-.29-1.92-.59-2.53-.88s-1.04-.63-1.3-1.02-.38-.86-.38-1.41c0-.67,.19-1.27,.57-1.78,.38-.51,.91-.91,1.58-1.19,.67-.28,1.46-.42,2.35-.42s1.7,.15,2.4,.43c.71,.29,1.28,.7,1.71,1.22s.69,1.13,.77,1.81l-1.65,.3c-.11-.7-.46-1.25-1.04-1.66s-1.32-.62-2.22-.63c-.84-.02-1.53,.14-2.06,.48-.53,.34-.79,.79-.79,1.36,0,.32,.1,.58,.29,.81s.54,.43,1.04,.63c.5,.2,1.22,.42,2.15,.65,1.09,.28,1.95,.57,2.57,.88,.62,.31,1.07,.67,1.33,1.09,.26,.42,.4,.94,.4,1.55,0,1.12-.42,2-1.25,2.65-.83,.64-1.98,.96-3.44,.96Z"/><path class="cls-1" d="M406.68,365.62v-1.39h11.22v1.39h-11.22Zm0,3.74v-1.39h11.22v1.39h-11.22Z"/><path class="cls-1" d="M431.84,375.05c-.99,0-1.89-.24-2.7-.72-.81-.48-1.46-1.13-1.94-1.96-.48-.82-.72-1.75-.72-2.79v-5.49c0-1.06,.24-2.01,.71-2.84,.48-.83,1.13-1.49,1.95-1.97,.83-.48,1.76-.72,2.81-.72,.9,0,1.74,.2,2.51,.59,.77,.4,1.41,.95,1.9,1.66l-1.24,1.02c-.34-.53-.78-.95-1.34-1.26s-1.17-.47-1.83-.47c-.74,0-1.4,.18-1.98,.54s-1.03,.83-1.36,1.41-.5,1.21-.5,1.9v3.45l-.41-.46c.46-.73,1.07-1.31,1.82-1.76,.75-.45,1.57-.67,2.46-.67,.98,0,1.87,.23,2.65,.7,.78,.46,1.41,1.09,1.87,1.89s.69,1.68,.69,2.66-.24,1.86-.73,2.66c-.49,.8-1.14,1.44-1.95,1.91-.81,.48-1.71,.71-2.69,.71Zm0-1.57c.69,0,1.32-.17,1.89-.49,.57-.33,1.02-.78,1.35-1.34,.33-.56,.5-1.19,.5-1.88s-.17-1.32-.5-1.89c-.33-.57-.78-1.02-1.35-1.35s-1.19-.5-1.88-.5-1.32,.17-1.88,.5c-.57,.33-1.01,.79-1.35,1.35-.33,.57-.5,1.2-.5,1.89s.17,1.31,.5,1.87,.78,1.01,1.34,1.35c.57,.33,1.19,.5,1.88,.5Z"/><path class="cls-1" d="M447.11,374.72v-3.07h-7.41v-1.54l5.3-11.23h1.81l-5.3,11.23h5.6v-4.62h1.63v4.62h1.73v1.54h-1.73v3.07h-1.63Z"/></g><g class="cls-9"><path class="cls-1" d="M15.94,475.18c-1.58,0-2.91-.35-3.99-1.05s-1.91-1.67-2.46-2.91c-.56-1.24-.84-2.67-.84-4.29s.28-3.05,.84-4.29c.56-1.24,1.38-2.21,2.46-2.91,1.08-.7,2.42-1.05,3.99-1.05s2.92,.35,4,1.05c1.08,.7,1.9,1.67,2.46,2.91,.56,1.24,.84,2.67,.84,4.29s-.28,3.05-.84,4.29c-.56,1.24-1.38,2.21-2.46,2.91-1.08,.7-2.41,1.05-4,1.05Zm0-1.55c1.24,0,2.27-.28,3.1-.85,.83-.56,1.45-1.35,1.87-2.36,.41-1.01,.62-2.17,.62-3.49s-.21-2.48-.62-3.49c-.42-1-1.04-1.79-1.87-2.35-.83-.56-1.86-.85-3.1-.86-1.24,0-2.27,.28-3.09,.85-.82,.57-1.44,1.35-1.85,2.36-.42,1.01-.63,2.17-.63,3.49,0,1.32,.2,2.48,.61,3.48s1.04,1.79,1.86,2.35c.83,.57,1.86,.86,3.1,.86Z"/><path class="cls-1" d="M25.43,474.85v-11.88h1.46v2.93h.17v8.95h-1.63Zm8.59,0v-6.06c0-.66-.06-1.27-.19-1.82-.12-.55-.32-1.04-.6-1.45-.28-.41-.63-.74-1.07-.96-.44-.23-.97-.34-1.59-.34-.57,0-1.08,.1-1.51,.3-.44,.2-.8,.48-1.1,.85-.3,.37-.52,.82-.68,1.35-.15,.53-.23,1.13-.23,1.8l-1.14-.25c0-1.22,.21-2.24,.64-3.07,.42-.83,1.01-1.46,1.76-1.88,.75-.43,1.61-.64,2.57-.64,.71,0,1.33,.11,1.86,.33,.53,.22,.98,.52,1.35,.89s.67,.8,.9,1.28c.23,.48,.39,.99,.5,1.53s.15,1.08,.15,1.61v6.53h-1.63Z"/><path class="cls-1" d="M43.46,475.18c-1.16,0-2.16-.26-3.01-.77-.85-.51-1.51-1.24-1.97-2.17-.47-.93-.7-2.02-.7-3.28s.23-2.42,.69-3.37c.46-.95,1.11-1.68,1.95-2.19,.84-.51,1.83-.77,2.98-.77s2.17,.27,3,.81,1.46,1.31,1.88,2.32c.43,1,.62,2.2,.58,3.6h-1.65v-.57c-.03-1.54-.36-2.7-1-3.49-.63-.79-1.56-1.18-2.78-1.18s-2.25,.42-2.93,1.24c-.68,.83-1.02,2.01-1.02,3.54s.34,2.66,1.02,3.48c.68,.83,1.64,1.24,2.89,1.24,.85,0,1.59-.2,2.23-.59,.63-.39,1.13-.96,1.5-1.7l1.51,.58c-.47,1.03-1.16,1.83-2.07,2.4-.91,.57-1.95,.85-3.1,.85Zm-4.54-5.82v-1.35h9.07v1.35h-9.07Z"/><path class="cls-1" d="M51.07,468.61v-1.39h6.6v1.39h-6.6Z"/><path class="cls-1" d="M62.99,474.85v-14.29h-5.53v-1.55h12.68v1.55h-5.53v14.29h-1.62Z"/><path class="cls-1" d="M72.12,460.71v-1.82h1.62v1.82h-1.62Zm0,14.13v-11.88h1.62v11.88h-1.62Z"/><path class="cls-1" d="M77.02,474.85v-11.88h1.45v2.93h.18v8.95h-1.63Zm7.11,0v-7.69c.01-.95-.24-1.69-.74-2.24-.5-.55-1.16-.82-1.99-.82s-1.49,.28-1.99,.84c-.51,.56-.76,1.31-.76,2.24l-.97-.53c0-.76,.18-1.45,.54-2.05,.36-.6,.85-1.08,1.47-1.43,.62-.35,1.33-.52,2.12-.52s1.43,.16,2.02,.48c.59,.32,1.05,.79,1.39,1.41,.34,.62,.51,1.36,.51,2.24v8.06h-1.61Zm7.07,0v-7.8c.01-.92-.24-1.64-.75-2.16s-1.16-.79-1.94-.79c-.45,0-.88,.1-1.31,.31-.43,.21-.78,.54-1.05,.99-.27,.46-.41,1.05-.41,1.78l-.96-.28c-.02-.85,.14-1.59,.5-2.23,.36-.64,.85-1.13,1.47-1.49,.63-.36,1.34-.53,2.13-.53,1.2,0,2.15,.37,2.87,1.11s1.08,1.73,1.08,2.99v8.11h-1.63Z"/><path class="cls-1" d="M100.64,475.18c-1.16,0-2.16-.26-3.01-.77-.85-.51-1.51-1.24-1.97-2.17-.47-.93-.7-2.02-.7-3.28s.23-2.42,.69-3.37c.46-.95,1.11-1.68,1.95-2.19,.84-.51,1.83-.77,2.98-.77s2.17,.27,3,.81,1.46,1.31,1.88,2.32c.43,1,.62,2.2,.58,3.6h-1.65v-.57c-.03-1.54-.36-2.7-1-3.49-.63-.79-1.56-1.18-2.78-1.18s-2.25,.42-2.93,1.24c-.68,.83-1.02,2.01-1.02,3.54s.34,2.66,1.02,3.48c.68,.83,1.64,1.24,2.89,1.24,.85,0,1.59-.2,2.23-.59,.63-.39,1.13-.96,1.5-1.7l1.51,.58c-.47,1.03-1.16,1.83-2.07,2.4-.91,.57-1.95,.85-3.1,.85Zm-4.54-5.82v-1.35h9.07v1.35h-9.07Z"/><path class="cls-1" d="M108.25,468.61v-1.39h6.6v1.39h-6.6Z"/><path class="cls-1" d="M123.89,475.18c-1.21,0-2.28-.25-3.21-.75-.93-.5-1.66-1.2-2.18-2.11s-.79-1.97-.79-3.19v-10.11h1.63v9.9c0,.82,.14,1.53,.42,2.13s.64,1.09,1.09,1.47c.45,.39,.94,.67,1.48,.85,.54,.18,1.06,.28,1.56,.28s1.04-.09,1.57-.28c.54-.18,1.03-.47,1.47-.85,.45-.38,.81-.88,1.09-1.47,.28-.6,.42-1.31,.42-2.13v-9.91h1.63v10.12c0,1.22-.26,2.28-.79,3.18-.53,.91-1.26,1.61-2.18,2.11s-2,.75-3.21,.75Z"/><path class="cls-1" d="M137.59,475.17c-1.39,0-2.54-.3-3.44-.9-.9-.6-1.45-1.44-1.66-2.51l1.65-.28c.18,.67,.58,1.21,1.2,1.61,.63,.4,1.4,.6,2.33,.6s1.61-.19,2.13-.57c.52-.38,.78-.89,.78-1.55,0-.37-.08-.67-.25-.9-.17-.23-.5-.45-1.01-.64-.51-.2-1.26-.43-2.27-.7-1.08-.29-1.92-.59-2.53-.88-.61-.29-1.04-.63-1.3-1.02-.26-.38-.38-.86-.38-1.41,0-.67,.19-1.27,.57-1.78,.38-.51,.91-.91,1.58-1.19,.67-.28,1.46-.42,2.35-.42s1.7,.14,2.4,.43c.71,.29,1.28,.69,1.71,1.21,.43,.52,.69,1.13,.77,1.82l-1.65,.3c-.11-.7-.46-1.25-1.04-1.66s-1.32-.62-2.22-.63c-.84-.02-1.53,.14-2.06,.48-.53,.34-.79,.79-.79,1.36,0,.32,.1,.58,.29,.81s.54,.43,1.04,.63c.5,.2,1.22,.41,2.15,.65,1.09,.28,1.95,.57,2.57,.88,.62,.31,1.07,.67,1.33,1.09,.26,.42,.4,.93,.4,1.55,0,1.12-.42,2-1.25,2.65-.83,.64-1.98,.96-3.44,.96Z"/><path class="cls-1" d="M149.73,475.18c-1.16,0-2.16-.26-3.01-.77-.85-.51-1.51-1.24-1.97-2.17-.47-.93-.7-2.02-.7-3.28s.23-2.42,.69-3.37c.46-.95,1.11-1.68,1.95-2.19,.84-.51,1.83-.77,2.98-.77s2.17,.27,3,.81,1.46,1.31,1.88,2.32c.43,1,.62,2.2,.58,3.6h-1.65v-.57c-.03-1.54-.36-2.7-1-3.49-.63-.79-1.56-1.18-2.78-1.18s-2.25,.42-2.93,1.24c-.68,.83-1.02,2.01-1.02,3.54s.34,2.66,1.02,3.48c.68,.83,1.64,1.24,2.89,1.24,.85,0,1.59-.2,2.23-.59,.63-.39,1.13-.96,1.5-1.7l1.51,.58c-.47,1.03-1.16,1.83-2.07,2.4-.91,.57-1.95,.85-3.1,.85Zm-4.54-5.82v-1.35h9.07v1.35h-9.07Z"/><path class="cls-1" d="M22.2,501.25v-15.84h6.12c.15,0,.33,0,.52,.02s.39,.04,.59,.07c.83,.12,1.53,.41,2.11,.86,.58,.45,1.01,1.02,1.31,1.7,.3,.68,.45,1.44,.45,2.27s-.15,1.57-.45,2.25c-.3,.68-.74,1.25-1.31,1.7-.58,.45-1.27,.74-2.1,.86-.2,.03-.39,.05-.59,.07s-.37,.02-.52,.02h-4.5v6.02h-1.62Zm1.62-7.56h4.46c.13,0,.29,0,.46-.02s.35-.04,.52-.08c.54-.12,.99-.34,1.34-.67,.35-.33,.61-.72,.78-1.18,.17-.45,.26-.93,.26-1.42s-.09-.97-.26-1.42c-.17-.46-.43-.85-.78-1.18-.35-.33-.79-.55-1.34-.67-.17-.04-.34-.06-.52-.07s-.33-.02-.46-.02h-4.46v6.73Z"/><path class="cls-1" d="M35.49,501.25v-11.88h1.45v2.86l-.29-.37c.13-.35,.3-.68,.52-.97s.44-.54,.69-.73c.31-.27,.67-.48,1.08-.62,.41-.14,.83-.23,1.24-.25,.42-.03,.8,0,1.14,.09v1.52c-.43-.11-.91-.14-1.42-.08s-.99,.26-1.42,.62c-.4,.31-.69,.68-.89,1.11-.2,.43-.33,.88-.4,1.36-.07,.48-.1,.96-.1,1.42v5.93h-1.62Z"/><path class="cls-1" d="M43.64,487.11v-1.82h1.62v1.82h-1.62Zm0,14.13v-11.88h1.62v11.88h-1.62Z"/><path class="cls-1" d="M51.77,501.25l-4.31-11.88h1.64l3.51,9.77,3.49-9.77h1.66l-4.31,11.88h-1.67Z"/><path class="cls-1" d="M62.47,501.58c-.9,0-1.64-.16-2.25-.48-.6-.32-1.06-.75-1.36-1.29s-.45-1.12-.45-1.75,.13-1.2,.39-1.66c.26-.46,.62-.83,1.07-1.13,.45-.29,.97-.52,1.57-.67,.6-.15,1.27-.28,2-.39s1.44-.21,2.15-.3c.7-.08,1.31-.17,1.84-.25l-.57,.35c.02-1.17-.21-2.04-.68-2.61-.48-.56-1.3-.85-2.49-.85-.81,0-1.5,.18-2.06,.55-.56,.37-.96,.95-1.18,1.74l-1.57-.46c.27-1.06,.82-1.89,1.64-2.48,.82-.59,1.89-.88,3.2-.88,1.08,0,2.01,.2,2.77,.61,.76,.41,1.3,1,1.61,1.77,.15,.34,.24,.73,.29,1.16,.04,.43,.07,.86,.07,1.3v7.38h-1.44v-2.98l.42,.18c-.4,1.02-1.03,1.8-1.88,2.33s-1.87,.8-3.06,.8Zm.19-1.4c.75,0,1.42-.14,1.98-.41,.56-.27,1.02-.64,1.36-1.12,.34-.47,.57-1.01,.67-1.6,.09-.38,.14-.8,.14-1.26,0-.46,.01-.8,.01-1.03l.62,.32c-.55,.07-1.15,.15-1.79,.22s-1.27,.16-1.89,.25c-.62,.09-1.18,.21-1.68,.34-.34,.1-.66,.23-.98,.4-.32,.17-.57,.4-.78,.69-.2,.29-.3,.64-.3,1.07,0,.34,.09,.68,.26,1,.17,.32,.45,.59,.84,.8,.38,.21,.9,.32,1.53,.32Z"/><path class="cls-1" d="M69.97,490.75v-1.39h7.79v1.39h-7.79Zm7.79,10.49c-.67,.14-1.33,.19-1.97,.17-.65-.03-1.23-.17-1.74-.42-.51-.25-.9-.64-1.16-1.17-.21-.44-.33-.89-.35-1.34-.02-.45-.03-.97-.03-1.55v-10.88h1.61v10.81c0,.5,0,.92,.02,1.25,.01,.33,.09,.63,.23,.89,.26,.49,.68,.78,1.26,.88,.58,.09,1.29,.07,2.14-.07v1.42Z"/><path class="cls-1" d="M84.69,501.58c-1.16,0-2.16-.26-3.01-.77-.85-.51-1.51-1.24-1.97-2.17-.47-.93-.7-2.02-.7-3.28s.23-2.42,.69-3.37c.46-.95,1.11-1.68,1.95-2.19,.84-.51,1.83-.77,2.98-.77s2.17,.27,3,.81,1.46,1.31,1.88,2.32c.43,1,.62,2.2,.58,3.6h-1.65v-.57c-.03-1.54-.36-2.7-1-3.49-.63-.78-1.56-1.18-2.78-1.18s-2.25,.41-2.93,1.24c-.68,.83-1.02,2.01-1.02,3.54s.34,2.66,1.02,3.48c.68,.83,1.64,1.24,2.89,1.24,.85,0,1.59-.2,2.23-.59,.63-.39,1.13-.96,1.5-1.7l1.51,.58c-.47,1.03-1.16,1.83-2.07,2.4-.91,.57-1.95,.85-3.1,.85Zm-4.54-5.82v-1.35h9.07v1.35h-9.07Z"/><path class="cls-1" d="M96.92,501.25v-15.84h1.62v7.48l7.23-7.48h2.07l-7.38,7.65,7.99,8.19h-2.11l-7.79-7.92v7.92h-1.62Z"/><path class="cls-1" d="M114.12,501.58c-1.16,0-2.16-.26-3.01-.77-.85-.51-1.51-1.24-1.97-2.17-.47-.93-.7-2.02-.7-3.28s.23-2.42,.69-3.37c.46-.95,1.11-1.68,1.95-2.19,.84-.51,1.83-.77,2.98-.77s2.17,.27,3,.81,1.46,1.31,1.88,2.32c.43,1,.62,2.2,.58,3.6h-1.65v-.57c-.03-1.54-.36-2.7-1-3.49-.63-.78-1.56-1.18-2.78-1.18s-2.25,.41-2.93,1.24c-.68,.83-1.02,2.01-1.02,3.54s.34,2.66,1.02,3.48c.68,.83,1.64,1.24,2.89,1.24,.85,0,1.59-.2,2.23-.59,.63-.39,1.13-.96,1.5-1.7l1.51,.58c-.47,1.03-1.16,1.83-2.07,2.4-.91,.57-1.95,.85-3.1,.85Zm-4.54-5.82v-1.35h9.07v1.35h-9.07Z"/><path class="cls-1" d="M123.43,506.53l2.3-6.24,.03,1.85-5.2-12.77h1.72l4.27,10.68h-.7l3.94-10.68h1.65l-6.38,17.16h-1.62Z"/><path class="cls-1" d="M137.77,501.57c-1.39,0-2.54-.3-3.44-.9-.9-.6-1.45-1.44-1.66-2.51l1.65-.28c.18,.67,.58,1.21,1.2,1.61,.63,.4,1.4,.6,2.33,.6s1.61-.19,2.13-.57c.52-.38,.78-.89,.78-1.54,0-.37-.08-.67-.25-.9-.17-.23-.5-.45-1.01-.64s-1.26-.43-2.27-.7c-1.08-.29-1.92-.59-2.53-.88s-1.04-.63-1.3-1.02-.38-.86-.38-1.41c0-.67,.19-1.27,.57-1.78,.38-.51,.91-.91,1.58-1.19,.67-.28,1.46-.42,2.35-.42s1.7,.15,2.4,.43c.71,.29,1.28,.7,1.71,1.22s.69,1.13,.77,1.81l-1.65,.3c-.11-.7-.46-1.25-1.04-1.66s-1.32-.62-2.22-.63c-.84-.02-1.53,.14-2.06,.48-.53,.34-.79,.79-.79,1.36,0,.32,.1,.58,.29,.81s.54,.43,1.04,.63c.5,.2,1.22,.42,2.15,.65,1.09,.28,1.95,.57,2.57,.88,.62,.31,1.07,.67,1.33,1.09,.26,.42,.4,.94,.4,1.55,0,1.12-.42,2-1.25,2.65-.83,.64-1.98,.96-3.44,.96Z"/></g><g class="cls-9"><path class="cls-1" d="M357.53,108.53v-15.84h6.12c.15,0,.33,0,.52,.02,.19,.01,.39,.04,.59,.07,.83,.12,1.53,.41,2.11,.86,.58,.45,1.01,1.02,1.31,1.7,.3,.68,.45,1.44,.45,2.27,0,1.2-.32,2.23-.95,3.11-.63,.88-1.53,1.43-2.71,1.66l-.56,.13h-5.26v6.02h-1.62Zm1.62-7.56h4.46c.13,0,.29,0,.46-.02s.35-.04,.52-.08c.54-.12,.99-.34,1.34-.67,.35-.33,.61-.72,.78-1.18,.17-.45,.26-.93,.26-1.42s-.09-.97-.26-1.42c-.17-.46-.43-.85-.78-1.18-.35-.33-.79-.55-1.34-.67-.17-.04-.34-.06-.52-.07-.18-.01-.33-.02-.46-.02h-4.46v6.73Zm7.97,7.56l-3.12-6.45,1.55-.59,3.43,7.04h-1.86Z"/><path class="cls-1" d="M376.36,108.86c-1.18,0-2.19-.27-3.03-.8s-1.48-1.28-1.92-2.22c-.45-.95-.67-2.03-.67-3.26s.23-2.34,.68-3.28c.46-.94,1.1-1.67,1.94-2.19,.84-.53,1.84-.79,3-.79s2.2,.27,3.04,.8c.84,.53,1.48,1.27,1.92,2.21,.44,.94,.67,2.03,.67,3.25s-.22,2.34-.67,3.28c-.45,.94-1.09,1.68-1.94,2.21-.84,.53-1.85,.79-3.03,.79Zm0-1.55c1.32,0,2.3-.44,2.95-1.31,.64-.88,.97-2.01,.97-3.42s-.32-2.58-.97-3.43c-.65-.85-1.63-1.28-2.94-1.28-.89,0-1.62,.2-2.19,.6-.58,.4-1,.95-1.29,1.66s-.42,1.52-.42,2.45c0,1.43,.33,2.58,.99,3.44,.66,.86,1.63,1.29,2.92,1.29Z"/><path class="cls-1" d="M389.37,108.86c-1.18,0-2.19-.27-3.03-.8s-1.48-1.28-1.92-2.22c-.45-.95-.67-2.03-.67-3.26s.23-2.34,.68-3.28c.46-.94,1.1-1.67,1.94-2.19,.84-.53,1.84-.79,3-.79s2.2,.27,3.04,.8c.84,.53,1.48,1.27,1.92,2.21,.44,.94,.67,2.03,.67,3.25s-.22,2.34-.67,3.28c-.45,.94-1.09,1.68-1.94,2.21-.84,.53-1.85,.79-3.03,.79Zm0-1.55c1.32,0,2.3-.44,2.95-1.31,.64-.88,.97-2.01,.97-3.42s-.32-2.58-.97-3.43c-.65-.85-1.63-1.28-2.94-1.28-.89,0-1.62,.2-2.19,.6-.58,.4-1,.95-1.29,1.66s-.42,1.52-.42,2.45c0,1.43,.33,2.58,.99,3.44,.66,.86,1.63,1.29,2.92,1.29Z"/><path class="cls-1" d="M396.1,98.04v-1.39h7.79v1.39h-7.79Zm7.79,10.49c-.67,.14-1.33,.19-1.97,.17-.65-.03-1.23-.17-1.74-.42-.51-.25-.9-.64-1.16-1.17-.21-.44-.33-.89-.35-1.34-.02-.45-.03-.97-.03-1.55v-10.88h1.61v10.81c0,.5,0,.92,.02,1.25,.01,.33,.09,.63,.23,.88,.26,.49,.68,.79,1.26,.88,.58,.09,1.29,.07,2.14-.07v1.42Z"/><path class="cls-1" d="M410.63,108.53v-15.84h6.12c.15,0,.33,0,.52,.02,.19,.01,.39,.04,.59,.07,.83,.12,1.53,.41,2.11,.86,.58,.45,1.01,1.02,1.31,1.7,.3,.68,.45,1.44,.45,2.27s-.15,1.57-.45,2.25-.74,1.25-1.31,1.7c-.58,.45-1.27,.74-2.1,.86-.2,.03-.39,.05-.59,.07s-.37,.02-.52,.02h-4.5v6.02h-1.62Zm1.62-7.56h4.46c.13,0,.29,0,.46-.02s.35-.04,.52-.08c.54-.12,.99-.34,1.34-.67,.35-.33,.61-.72,.78-1.18,.17-.45,.26-.93,.26-1.42s-.09-.97-.26-1.42c-.17-.46-.43-.85-.78-1.18-.35-.33-.79-.55-1.34-.67-.17-.04-.34-.06-.52-.07-.18-.01-.33-.02-.46-.02h-4.46v6.73Z"/><path class="cls-1" d="M428.46,108.83c-.71,0-1.33-.11-1.86-.33-.53-.22-.98-.52-1.35-.89s-.67-.8-.9-1.28c-.23-.48-.39-.99-.5-1.53s-.15-1.08-.15-1.61v-6.53h1.63v6.06c0,.65,.06,1.26,.19,1.82s.33,1.04,.6,1.46c.28,.41,.63,.73,1.07,.96,.44,.23,.97,.34,1.59,.34,.57,0,1.08-.1,1.51-.3,.44-.2,.8-.48,1.1-.85,.3-.37,.52-.82,.68-1.35,.15-.53,.23-1.13,.23-1.8l1.14,.25c0,1.22-.21,2.24-.64,3.07-.43,.83-1.01,1.46-1.76,1.88-.75,.42-1.61,.64-2.57,.64Zm3.99-.3v-2.93h-.17v-8.95h1.62v11.88h-1.45Z"/><path class="cls-1" d="M436.98,108.53v-15.84h1.63v6.9h-.18v8.94h-1.45Zm5.35,.33c-1.09,0-2.02-.28-2.77-.83-.75-.55-1.33-1.3-1.72-2.25-.39-.95-.58-2.02-.58-3.2s.2-2.27,.59-3.22c.39-.94,.97-1.68,1.73-2.23s1.7-.81,2.82-.81,2.02,.28,2.79,.83,1.37,1.3,1.79,2.24c.41,.95,.62,2.01,.62,3.19s-.21,2.25-.63,3.2-1.02,1.7-1.8,2.25c-.79,.55-1.73,.83-2.84,.83Zm-.17-1.51c.83,0,1.52-.21,2.07-.63,.55-.42,.96-.99,1.24-1.71,.27-.72,.41-1.53,.41-2.44s-.14-1.7-.41-2.42c-.27-.72-.68-1.29-1.24-1.71s-1.26-.63-2.11-.63-1.52,.2-2.06,.6c-.55,.4-.96,.96-1.23,1.68s-.41,1.54-.41,2.47,.13,1.74,.41,2.46c.27,.72,.68,1.29,1.23,1.7s1.25,.62,2.09,.62Z"/><path class="cls-1" d="M450.23,108.53v-16.17h1.62v16.17h-1.62Z"/><path class="cls-1" d="M455.37,94.4v-1.82h1.62v1.82h-1.62Zm0,14.13v-11.88h1.62v11.88h-1.62Z"/><path class="cls-1" d="M465.21,108.86c-1.2,0-2.21-.27-3.04-.8-.83-.54-1.46-1.27-1.89-2.22-.43-.94-.65-2.03-.67-3.25,.01-1.25,.24-2.34,.68-3.28,.44-.94,1.07-1.68,1.9-2.2,.83-.53,1.83-.79,3.01-.79s2.25,.29,3.14,.88c.89,.59,1.5,1.39,1.83,2.41l-1.58,.51c-.28-.71-.72-1.26-1.33-1.66-.6-.39-1.3-.59-2.07-.59-.87,0-1.59,.2-2.17,.6-.57,.4-1,.96-1.28,1.67-.28,.71-.42,1.53-.43,2.45,.01,1.42,.34,2.57,.99,3.43,.65,.86,1.61,1.29,2.88,1.29,.81,0,1.49-.18,2.06-.55s1-.91,1.29-1.62l1.63,.48c-.44,1.06-1.09,1.86-1.94,2.41-.85,.55-1.87,.83-3.05,.83Z"/><path class="cls-1" d="M476.86,108.53v-15.84h1.62v7.48l7.23-7.48h2.07l-7.38,7.65,7.99,8.19h-2.11l-7.79-7.92v7.92h-1.62Z"/><path class="cls-1" d="M494.07,108.86c-1.16,0-2.16-.26-3.01-.77-.85-.51-1.51-1.24-1.97-2.17-.47-.93-.7-2.02-.7-3.28s.23-2.42,.69-3.37,1.11-1.68,1.95-2.19c.84-.51,1.83-.77,2.98-.77s2.17,.27,3,.81,1.46,1.31,1.88,2.32c.43,1,.62,2.2,.58,3.6h-1.65v-.57c-.03-1.54-.36-2.7-1-3.49-.63-.79-1.56-1.18-2.78-1.18s-2.25,.42-2.93,1.24c-.68,.83-1.02,2.01-1.02,3.54s.34,2.66,1.02,3.48c.68,.82,1.64,1.24,2.89,1.24,.85,0,1.59-.2,2.23-.59,.63-.39,1.13-.96,1.5-1.7l1.51,.58c-.47,1.03-1.16,1.83-2.07,2.4-.91,.57-1.95,.85-3.1,.85Zm-4.54-5.82v-1.35h9.07v1.35h-9.07Z"/><path class="cls-1" d="M503.37,113.81l2.3-6.24,.03,1.85-5.2-12.77h1.72l4.27,10.68h-.7l3.94-10.68h1.65l-6.38,17.16h-1.62Z"/></g><g pointer-events="none"><path class="cls-1" d="M303.86,177.28c-3.14,0-5.7-2.8-5.7-6.25v-31.5c0-3.45,2.55-6.25,5.7-6.25h32.61c3.14,0,5.7,2.8,5.7,6.25v31.5c0,3.45-2.55,6.25-5.7,6.25h-32.61Z"/><path class="cls-1" d="M336.47,133.78c2.86,0,5.2,2.58,5.2,5.75v31.5c0,3.17-2.33,5.75-5.2,5.75h-32.61c-2.86,0-5.2-2.58-5.2-5.75v-31.5c0-3.17,2.33-5.75,5.2-5.75h32.61m0-1h-32.61c-3.42,0-6.2,3.02-6.2,6.75v31.5c0,3.73,2.77,6.75,6.2,6.75h32.61c3.42,0,6.2-3.02,6.2-6.75v-31.5c0-3.73-2.77-6.75-6.2-6.75h0Z"/></g><g class="cls-9"><path class="cls-1" d="M357.53,163.08v-15.84h6.12c.15,0,.33,0,.52,.02,.19,.01,.39,.04,.59,.07,.83,.12,1.53,.41,2.11,.86,.58,.45,1.01,1.02,1.31,1.7,.3,.68,.45,1.44,.45,2.27s-.15,1.57-.45,2.25c-.3,.68-.74,1.25-1.31,1.7-.58,.45-1.27,.74-2.1,.86-.2,.03-.39,.05-.59,.07s-.37,.02-.52,.02h-4.5v6.02h-1.62Zm1.62-7.56h4.46c.13,0,.29,0,.46-.02s.35-.04,.52-.08c.54-.12,.99-.34,1.34-.67,.35-.33,.61-.72,.78-1.18,.17-.46,.26-.93,.26-1.42s-.09-.97-.26-1.42c-.17-.46-.43-.85-.78-1.18-.35-.33-.79-.55-1.34-.67-.17-.04-.34-.06-.52-.07-.18-.01-.33-.02-.46-.02h-4.46v6.73Z"/><path class="cls-1" d="M373.7,163.41c-.9,0-1.64-.16-2.25-.48-.6-.32-1.06-.75-1.36-1.29s-.45-1.12-.45-1.75,.13-1.2,.39-1.66c.26-.46,.62-.83,1.07-1.13,.45-.29,.97-.52,1.57-.67,.6-.15,1.27-.28,2-.39,.73-.11,1.44-.21,2.15-.3,.7-.08,1.31-.17,1.84-.25l-.57,.35c.02-1.17-.21-2.04-.68-2.61s-1.3-.85-2.49-.85c-.81,0-1.5,.18-2.06,.55-.56,.37-.96,.95-1.18,1.74l-1.57-.46c.27-1.06,.82-1.89,1.64-2.47s1.89-.88,3.2-.88c1.08,0,2.01,.2,2.77,.61s1.3,1,1.61,1.77c.15,.34,.24,.73,.29,1.15,.04,.43,.07,.86,.07,1.3v7.38h-1.44v-2.98l.42,.18c-.4,1.02-1.03,1.8-1.88,2.33s-1.87,.8-3.06,.8Zm.19-1.4c.75,0,1.42-.14,1.98-.41,.56-.27,1.02-.64,1.36-1.12s.57-1.01,.67-1.6c.09-.38,.14-.8,.14-1.26,0-.46,.01-.8,.01-1.03l.62,.32c-.55,.07-1.15,.15-1.79,.22s-1.27,.16-1.89,.25c-.62,.1-1.18,.21-1.68,.34-.34,.1-.66,.23-.98,.4-.32,.17-.57,.4-.78,.69-.2,.29-.3,.64-.3,1.07,0,.34,.09,.68,.26,1,.17,.32,.45,.59,.84,.8,.38,.21,.9,.32,1.53,.32Z"/><path class="cls-1" d="M381.2,152.58v-1.39h7.79v1.39h-7.79Zm7.79,10.49c-.67,.14-1.33,.19-1.97,.17-.65-.03-1.23-.17-1.74-.42-.51-.25-.9-.64-1.16-1.17-.21-.44-.33-.89-.35-1.34-.02-.45-.03-.97-.03-1.54v-10.88h1.61v10.81c0,.5,0,.92,.02,1.25,.01,.33,.09,.63,.23,.89,.26,.49,.68,.79,1.26,.88,.58,.1,1.29,.07,2.14-.07v1.42Z"/><path class="cls-1" d="M391.32,163.08v-15.84h1.46v8.94h.17v6.9h-1.63Zm8.59,0v-6.06c0-.66-.06-1.27-.19-1.82-.12-.55-.32-1.04-.6-1.45-.28-.41-.63-.74-1.07-.96-.44-.23-.97-.34-1.59-.34-.57,0-1.08,.1-1.51,.3-.44,.2-.8,.48-1.1,.85-.3,.37-.52,.82-.68,1.35-.15,.53-.23,1.13-.23,1.8l-1.14-.25c0-1.22,.21-2.24,.64-3.07,.42-.83,1.01-1.46,1.76-1.88,.75-.43,1.61-.64,2.57-.64,.71,0,1.33,.11,1.86,.33,.53,.22,.98,.52,1.35,.89s.67,.8,.9,1.28c.23,.48,.39,.99,.5,1.53s.15,1.08,.15,1.61v6.53h-1.63Z"/><path class="cls-1" d="M407.92,152.58v-1.39h6.92v1.39h-6.92Zm2.06,10.49v-12.76c0-.31,.02-.61,.05-.91s.1-.59,.2-.86c.1-.27,.26-.53,.48-.76,.24-.26,.51-.46,.79-.58s.58-.2,.9-.24c.31-.04,.62-.05,.92-.05h1.52v1.36h-1.41c-.62,0-1.08,.15-1.38,.45-.3,.3-.46,.77-.46,1.42v12.94h-1.62Z"/><path class="cls-1" d="M416.59,163.08v-11.88h1.45v2.86l-.29-.37c.13-.35,.3-.68,.52-.97,.21-.3,.44-.54,.69-.73,.31-.27,.67-.48,1.08-.62,.41-.14,.83-.23,1.24-.25s.8,0,1.14,.09v1.52c-.43-.11-.91-.14-1.42-.08s-.99,.26-1.42,.62c-.4,.31-.69,.68-.89,1.11-.2,.43-.33,.88-.4,1.36-.07,.48-.1,.96-.1,1.42v5.93h-1.62Z"/><path class="cls-1" d="M429.27,163.41c-1.18,0-2.19-.27-3.03-.8s-1.48-1.28-1.92-2.22-.67-2.03-.67-3.26,.23-2.34,.68-3.28c.46-.94,1.1-1.67,1.94-2.19,.84-.52,1.84-.79,3-.79s2.2,.27,3.04,.8c.84,.53,1.48,1.27,1.92,2.21,.44,.94,.67,2.03,.67,3.25s-.22,2.34-.67,3.28-1.09,1.68-1.94,2.21c-.84,.53-1.85,.79-3.03,.79Zm0-1.55c1.32,0,2.3-.44,2.95-1.31,.64-.88,.97-2.01,.97-3.42s-.32-2.58-.97-3.43c-.65-.85-1.63-1.28-2.94-1.28-.89,0-1.62,.2-2.19,.6-.58,.4-1,.95-1.29,1.66-.28,.71-.42,1.52-.42,2.45,0,1.43,.33,2.58,.99,3.44s1.63,1.29,2.92,1.29Z"/><path class="cls-1" d="M437.31,163.08v-11.88h1.45v2.93h.18v8.95h-1.63Zm7.11,0v-7.69c.01-.95-.24-1.69-.74-2.24-.5-.55-1.16-.82-1.99-.82s-1.49,.28-1.99,.84c-.51,.56-.76,1.31-.76,2.24l-.97-.53c0-.76,.18-1.45,.54-2.05,.36-.6,.85-1.08,1.47-1.43,.62-.35,1.33-.52,2.12-.52s1.43,.16,2.02,.48c.59,.32,1.05,.79,1.39,1.41,.34,.62,.51,1.36,.51,2.24v8.06h-1.61Zm7.07,0v-7.8c.01-.92-.24-1.64-.75-2.16s-1.16-.79-1.94-.79c-.45,0-.88,.1-1.31,.31-.43,.21-.78,.54-1.05,.99-.27,.46-.41,1.05-.41,1.78l-.96-.28c-.02-.85,.14-1.59,.5-2.23,.36-.64,.85-1.13,1.47-1.49,.63-.36,1.34-.53,2.13-.53,1.2,0,2.15,.37,2.87,1.11s1.08,1.73,1.08,2.99v8.11h-1.63Z"/><path class="cls-1" d="M460.36,163.08v-15.84h1.64v9.68l5.3-5.72h2.16l-5.57,5.94,6.29,5.94h-2.35l-5.83-5.72v5.72h-1.64Z"/><path class="cls-1" d="M476.09,163.41c-1.16,0-2.16-.26-3.01-.77-.85-.51-1.51-1.24-1.97-2.17-.47-.93-.7-2.02-.7-3.28s.23-2.42,.69-3.37c.46-.95,1.11-1.68,1.95-2.19,.84-.51,1.83-.77,2.98-.77s2.17,.27,3,.81,1.46,1.31,1.88,2.32c.43,1,.62,2.2,.58,3.6h-1.65v-.57c-.03-1.54-.36-2.7-1-3.49-.63-.79-1.56-1.18-2.78-1.18s-2.25,.42-2.93,1.24c-.68,.83-1.02,2.01-1.02,3.54s.34,2.66,1.02,3.48c.68,.83,1.64,1.24,2.89,1.24,.85,0,1.59-.2,2.23-.59,.63-.39,1.13-.96,1.5-1.7l1.51,.58c-.47,1.03-1.16,1.83-2.07,2.4-.91,.57-1.95,.85-3.1,.85Zm-4.54-5.82v-1.35h9.07v1.35h-9.07Z"/><path class="cls-1" d="M485.4,168.36l2.3-6.24,.03,1.85-5.2-12.77h1.72l4.27,10.68h-.7l3.94-10.68h1.65l-6.38,17.16h-1.62Z"/><path class="cls-1" d="M498.39,152.58v-1.39h7.79v1.39h-7.79Zm7.79,10.49c-.67,.14-1.33,.19-1.97,.17-.65-.03-1.23-.17-1.74-.42-.51-.25-.9-.64-1.16-1.17-.21-.44-.33-.89-.35-1.34-.02-.45-.03-.97-.03-1.54v-10.88h1.61v10.81c0,.5,0,.92,.02,1.25,.01,.33,.09,.63,.23,.89,.26,.49,.68,.79,1.26,.88,.58,.1,1.29,.07,2.14-.07v1.42Z"/><path class="cls-1" d="M513.04,163.41c-1.18,0-2.19-.27-3.03-.8s-1.48-1.28-1.92-2.22-.67-2.03-.67-3.26,.23-2.34,.68-3.28c.46-.94,1.1-1.67,1.94-2.19,.84-.52,1.84-.79,3-.79s2.2,.27,3.04,.8c.84,.53,1.48,1.27,1.92,2.21,.44,.94,.67,2.03,.67,3.25s-.22,2.34-.67,3.28-1.09,1.68-1.94,2.21c-.84,.53-1.85,.79-3.03,.79Zm0-1.55c1.32,0,2.3-.44,2.95-1.31,.64-.88,.97-2.01,.97-3.42s-.32-2.58-.97-3.43c-.65-.85-1.63-1.28-2.94-1.28-.89,0-1.62,.2-2.19,.6-.58,.4-1,.95-1.29,1.66-.28,.71-.42,1.52-.42,2.45,0,1.43,.33,2.58,.99,3.44s1.63,1.29,2.92,1.29Z"/><path class="cls-1" d="M525.49,163.08v-15.84h6.12c.15,0,.33,0,.52,.02,.19,.01,.39,.04,.59,.07,.83,.12,1.53,.41,2.11,.86,.58,.45,1.01,1.02,1.31,1.7,.3,.68,.45,1.44,.45,2.27,0,1.2-.32,2.23-.95,3.11s-1.53,1.43-2.71,1.66l-.56,.13h-5.26v6.02h-1.62Zm1.62-7.56h4.46c.13,0,.29,0,.46-.02s.35-.04,.52-.08c.54-.12,.99-.34,1.34-.67,.35-.33,.61-.72,.78-1.18,.17-.46,.26-.93,.26-1.42s-.09-.97-.26-1.42c-.17-.46-.43-.85-.78-1.18-.35-.33-.79-.55-1.34-.67-.17-.04-.34-.06-.52-.07-.18-.01-.33-.02-.46-.02h-4.46v6.73Zm7.97,7.56l-3.12-6.45,1.55-.59,3.43,7.04h-1.86Z"/><path class="cls-1" d="M544.33,163.41c-1.18,0-2.19-.27-3.03-.8s-1.48-1.28-1.92-2.22-.67-2.03-.67-3.26,.23-2.34,.68-3.28c.46-.94,1.1-1.67,1.94-2.19,.84-.52,1.84-.79,3-.79s2.2,.27,3.04,.8c.84,.53,1.48,1.27,1.92,2.21,.44,.94,.67,2.03,.67,3.25s-.22,2.34-.67,3.28-1.09,1.68-1.94,2.21c-.84,.53-1.85,.79-3.03,.79Zm0-1.55c1.32,0,2.3-.44,2.95-1.31,.64-.88,.97-2.01,.97-3.42s-.32-2.58-.97-3.43c-.65-.85-1.63-1.28-2.94-1.28-.89,0-1.62,.2-2.19,.6-.58,.4-1,.95-1.29,1.66-.28,.71-.42,1.52-.42,2.45,0,1.43,.33,2.58,.99,3.44s1.63,1.29,2.92,1.29Z"/><path class="cls-1" d="M557.34,163.41c-1.18,0-2.19-.27-3.03-.8s-1.48-1.28-1.92-2.22-.67-2.03-.67-3.26,.23-2.34,.68-3.28c.46-.94,1.1-1.67,1.94-2.19,.84-.52,1.84-.79,3-.79s2.2,.27,3.04,.8c.84,.53,1.48,1.27,1.92,2.21,.44,.94,.67,2.03,.67,3.25s-.22,2.34-.67,3.28-1.09,1.68-1.94,2.21c-.84,.53-1.85,.79-3.03,.79Zm0-1.55c1.32,0,2.3-.44,2.95-1.31,.64-.88,.97-2.01,.97-3.42s-.32-2.58-.97-3.43c-.65-.85-1.63-1.28-2.94-1.28-.89,0-1.62,.2-2.19,.6-.58,.4-1,.95-1.29,1.66-.28,.71-.42,1.52-.42,2.45,0,1.43,.33,2.58,.99,3.44s1.63,1.29,2.92,1.29Z"/><path class="cls-1" d="M564.07,152.58v-1.39h7.79v1.39h-7.79Zm7.79,10.49c-.67,.14-1.33,.19-1.97,.17-.65-.03-1.23-.17-1.74-.42-.51-.25-.9-.64-1.16-1.17-.21-.44-.33-.89-.35-1.34-.02-.45-.03-.97-.03-1.54v-10.88h1.61v10.81c0,.5,0,.92,.02,1.25,.01,.33,.09,.63,.23,.89,.26,.49,.68,.79,1.26,.88,.58,.1,1.29,.07,2.14-.07v1.42Z"/></g><g class="cls-9"><path class="cls-1" d="M360.92,222.49l-4.58-15.84h1.68l3.71,13.08,3.69-13.07h1.69l3.71,13.07,3.69-13.08h1.69l-4.56,15.84h-1.63l-3.74-12.99-3.72,12.99h-1.63Z"/><path class="cls-1" d="M377.89,208.36v-1.82h1.62v1.82h-1.62Zm0,14.13v-11.88h1.62v11.88h-1.62Z"/><path class="cls-1" d="M382.79,222.49v-11.88h1.46v2.93h.17v8.95h-1.63Zm8.59,0v-6.06c0-.66-.06-1.27-.19-1.82-.12-.55-.32-1.04-.6-1.45-.28-.41-.63-.74-1.07-.96-.44-.23-.97-.34-1.59-.34-.57,0-1.08,.1-1.51,.3-.44,.2-.8,.48-1.1,.85-.3,.37-.52,.82-.68,1.35-.15,.53-.23,1.13-.23,1.8l-1.14-.25c0-1.22,.21-2.24,.64-3.07,.42-.83,1.01-1.46,1.76-1.88,.75-.43,1.61-.64,2.57-.64,.71,0,1.33,.11,1.86,.33,.53,.22,.98,.52,1.35,.89s.67,.8,.9,1.28c.23,.48,.39,.99,.5,1.53s.15,1.08,.15,1.61v6.53h-1.63Z"/><path class="cls-1" d="M394.55,212v-1.39h7.79v1.39h-7.79Zm7.79,10.49c-.67,.14-1.33,.19-1.97,.17-.65-.03-1.23-.17-1.74-.42-.51-.25-.9-.64-1.16-1.17-.21-.44-.33-.89-.35-1.34-.02-.45-.03-.97-.03-1.54v-10.88h1.61v10.81c0,.5,0,.92,.02,1.25,.01,.33,.09,.63,.23,.89,.26,.49,.68,.79,1.26,.88,.58,.1,1.29,.07,2.14-.07v1.42Z"/><path class="cls-1" d="M409.27,222.82c-1.16,0-2.16-.26-3.01-.77-.85-.51-1.51-1.24-1.97-2.17-.47-.93-.7-2.02-.7-3.28s.23-2.42,.69-3.37c.46-.95,1.11-1.68,1.95-2.19,.84-.51,1.83-.77,2.98-.77s2.17,.27,3,.81,1.46,1.31,1.88,2.32c.43,1,.62,2.2,.58,3.6h-1.65v-.57c-.03-1.54-.36-2.7-1-3.49-.63-.79-1.56-1.18-2.78-1.18s-2.25,.42-2.93,1.24c-.68,.83-1.02,2.01-1.02,3.54s.34,2.66,1.02,3.48c.68,.83,1.64,1.24,2.89,1.24,.85,0,1.59-.2,2.23-.59,.63-.39,1.13-.96,1.5-1.7l1.51,.58c-.47,1.03-1.16,1.83-2.07,2.4-.91,.57-1.95,.85-3.1,.85Zm-4.54-5.82v-1.35h9.07v1.35h-9.07Z"/><path class="cls-1" d="M417.1,222.49v-11.88h1.45v2.86l-.29-.37c.13-.35,.3-.68,.52-.97,.21-.3,.44-.54,.69-.73,.31-.27,.67-.48,1.08-.62,.41-.14,.83-.23,1.24-.25s.8,0,1.14,.09v1.52c-.43-.11-.91-.14-1.42-.08s-.99,.26-1.42,.62c-.4,.31-.69,.68-.89,1.11-.2,.43-.33,.88-.4,1.36-.07,.48-.1,.96-.1,1.42v5.93h-1.62Z"/><path class="cls-1" d="M425.02,222.49v-11.88h1.46v2.93h.17v8.95h-1.63Zm8.59,0v-6.06c0-.66-.06-1.27-.19-1.82-.12-.55-.32-1.04-.6-1.45-.28-.41-.63-.74-1.07-.96-.44-.23-.97-.34-1.59-.34-.57,0-1.08,.1-1.51,.3-.44,.2-.8,.48-1.1,.85-.3,.37-.52,.82-.68,1.35-.15,.53-.23,1.13-.23,1.8l-1.14-.25c0-1.22,.21-2.24,.64-3.07,.42-.83,1.01-1.46,1.76-1.88,.75-.43,1.61-.64,2.57-.64,.71,0,1.33,.11,1.86,.33,.53,.22,.98,.52,1.35,.89s.67,.8,.9,1.28c.23,.48,.39,.99,.5,1.53s.15,1.08,.15,1.61v6.53h-1.63Z"/><path class="cls-1" d="M438.32,208.36v-1.82h1.62v1.82h-1.62Zm0,14.13v-11.88h1.62v11.88h-1.62Z"/><path class="cls-1" d="M441.92,212v-1.39h7.79v1.39h-7.79Zm7.79,10.49c-.67,.14-1.33,.19-1.97,.17-.65-.03-1.23-.17-1.74-.42-.51-.25-.9-.64-1.16-1.17-.21-.44-.33-.89-.35-1.34-.02-.45-.03-.97-.03-1.54v-10.88h1.61v10.81c0,.5,0,.92,.02,1.25,.01,.33,.09,.63,.23,.89,.26,.49,.68,.79,1.26,.88,.58,.1,1.29,.07,2.14-.07v1.42Z"/><path class="cls-1" d="M450.95,222.49v-.34l7.67-10.03h-7.1v-1.51h9.76v.37l-7.66,10h7.24v1.51h-9.91Z"/><path class="cls-1" d="M468.1,222.49v-15.84h6.12c.15,0,.33,0,.52,.02,.19,.01,.39,.04,.59,.07,.83,.12,1.53,.41,2.11,.86,.58,.45,1.01,1.02,1.31,1.7,.3,.68,.45,1.44,.45,2.27s-.15,1.57-.45,2.25c-.3,.68-.74,1.25-1.31,1.7-.58,.45-1.27,.74-2.1,.86-.2,.03-.39,.05-.59,.07s-.37,.02-.52,.02h-4.5v6.02h-1.62Zm1.62-7.56h4.46c.13,0,.29,0,.46-.02s.35-.04,.52-.08c.54-.12,.99-.34,1.34-.67,.35-.33,.61-.72,.78-1.18,.17-.46,.26-.93,.26-1.42s-.09-.97-.26-1.42c-.17-.46-.43-.85-.78-1.18-.35-.33-.79-.55-1.34-.67-.17-.04-.34-.06-.52-.07-.18-.01-.33-.02-.46-.02h-4.46v6.73Z"/><path class="cls-1" d="M481.38,222.49v-11.88h1.45v2.86l-.29-.37c.13-.35,.3-.68,.52-.97,.21-.3,.44-.54,.69-.73,.31-.27,.67-.48,1.08-.62,.41-.14,.83-.23,1.24-.25s.8,0,1.14,.09v1.52c-.43-.11-.91-.14-1.42-.08s-.99,.26-1.42,.62c-.4,.31-.69,.68-.89,1.11-.2,.43-.33,.88-.4,1.36-.07,.48-.1,.96-.1,1.42v5.93h-1.62Z"/><path class="cls-1" d="M489.53,208.36v-1.82h1.62v1.82h-1.62Zm0,14.13v-11.88h1.62v11.88h-1.62Z"/><path class="cls-1" d="M497.66,222.49l-4.31-11.88h1.64l3.51,9.77,3.49-9.77h1.66l-4.31,11.88h-1.67Z"/><path class="cls-1" d="M508.37,222.82c-.9,0-1.64-.16-2.25-.48-.6-.32-1.06-.75-1.36-1.29s-.45-1.12-.45-1.75,.13-1.2,.39-1.66c.26-.46,.62-.83,1.07-1.13,.45-.29,.97-.52,1.57-.67,.6-.15,1.27-.28,2-.39,.73-.11,1.44-.21,2.15-.3,.7-.08,1.31-.17,1.84-.25l-.57,.35c.02-1.17-.21-2.04-.68-2.61s-1.3-.85-2.49-.85c-.81,0-1.5,.18-2.06,.55-.56,.37-.96,.95-1.18,1.74l-1.57-.46c.27-1.06,.82-1.89,1.64-2.47s1.89-.88,3.2-.88c1.08,0,2.01,.2,2.77,.61s1.3,1,1.61,1.77c.15,.34,.24,.73,.29,1.15,.04,.43,.07,.86,.07,1.3v7.38h-1.44v-2.98l.42,.18c-.4,1.02-1.03,1.8-1.88,2.33s-1.87,.8-3.06,.8Zm.19-1.4c.75,0,1.42-.14,1.98-.41,.56-.27,1.02-.64,1.36-1.12s.57-1.01,.67-1.6c.09-.38,.14-.8,.14-1.26,0-.46,.01-.8,.01-1.03l.62,.32c-.55,.07-1.15,.15-1.79,.22s-1.27,.16-1.89,.25c-.62,.1-1.18,.21-1.68,.34-.34,.1-.66,.23-.98,.4-.32,.17-.57,.4-.78,.69-.2,.29-.3,.64-.3,1.07,0,.34,.09,.68,.26,1,.17,.32,.45,.59,.84,.8,.38,.21,.9,.32,1.53,.32Z"/><path class="cls-1" d="M515.87,212v-1.39h7.79v1.39h-7.79Zm7.79,10.49c-.67,.14-1.33,.19-1.97,.17-.65-.03-1.23-.17-1.74-.42-.51-.25-.9-.64-1.16-1.17-.21-.44-.33-.89-.35-1.34-.02-.45-.03-.97-.03-1.54v-10.88h1.61v10.81c0,.5,0,.92,.02,1.25,.01,.33,.09,.63,.23,.89,.26,.49,.68,.79,1.26,.88,.58,.1,1.29,.07,2.14-.07v1.42Z"/><path class="cls-1" d="M530.59,222.82c-1.16,0-2.16-.26-3.01-.77-.85-.51-1.51-1.24-1.97-2.17-.47-.93-.7-2.02-.7-3.28s.23-2.42,.69-3.37c.46-.95,1.11-1.68,1.95-2.19,.84-.51,1.83-.77,2.98-.77s2.17,.27,3,.81,1.46,1.31,1.88,2.32c.43,1,.62,2.2,.58,3.6h-1.65v-.57c-.03-1.54-.36-2.7-1-3.49-.63-.79-1.56-1.18-2.78-1.18s-2.25,.42-2.93,1.24c-.68,.83-1.02,2.01-1.02,3.54s.34,2.66,1.02,3.48c.68,.83,1.64,1.24,2.89,1.24,.85,0,1.59-.2,2.23-.59,.63-.39,1.13-.96,1.5-1.7l1.51,.58c-.47,1.03-1.16,1.83-2.07,2.4-.91,.57-1.95,.85-3.1,.85Zm-4.54-5.82v-1.35h9.07v1.35h-9.07Z"/><path class="cls-1" d="M542.82,222.49v-15.84h1.62v7.48l7.23-7.48h2.07l-7.38,7.64,7.99,8.2h-2.11l-7.79-7.92v7.92h-1.62Z"/><path class="cls-1" d="M560.02,222.82c-1.16,0-2.16-.26-3.01-.77-.85-.51-1.51-1.24-1.97-2.17-.47-.93-.7-2.02-.7-3.28s.23-2.42,.69-3.37c.46-.95,1.11-1.68,1.95-2.19,.84-.51,1.83-.77,2.98-.77s2.17,.27,3,.81,1.46,1.31,1.88,2.32c.43,1,.62,2.2,.58,3.6h-1.65v-.57c-.03-1.54-.36-2.7-1-3.49-.63-.79-1.56-1.18-2.78-1.18s-2.25,.42-2.93,1.24c-.68,.83-1.02,2.01-1.02,3.54s.34,2.66,1.02,3.48c.68,.83,1.64,1.24,2.89,1.24,.85,0,1.59-.2,2.23-.59,.63-.39,1.13-.96,1.5-1.7l1.51,.58c-.47,1.03-1.16,1.83-2.07,2.4-.91,.57-1.95,.85-3.1,.85Zm-4.54-5.82v-1.35h9.07v1.35h-9.07Z"/><path class="cls-1" d="M569.33,227.77l2.3-6.24,.03,1.85-5.2-12.77h1.72l4.27,10.68h-.7l3.94-10.68h1.65l-6.38,17.16h-1.62Z"/></g><g><path class="cls-7" d="M43.32,451.08v-38.44" pointer-events="none"/><path class="cls-2" d="M43.32,407.39l3.5,7-3.5-1.75-3.5,1.75,3.5-7Z" pointer-events="none"/></g><g><path class="cls-1" d="M74.92,252.14c-1.58,0-2.87-1.29-2.87-2.87v-22.79c0-1.58,1.29-2.87,2.87-2.87h22.13c1.94,0,3.53,1.58,3.53,3.52v22.13c0,1.58-1.29,2.87-2.87,2.87h-22.79Z"/><path class="cls-1" d="M97.04,224.13c1.67,0,3.02,1.36,3.02,3.03v22.13c0,1.3-1.06,2.37-2.37,2.37h-22.79c-1.31,0-2.37-1.06-2.37-2.37v-22.79c0-1.3,1.06-2.37,2.37-2.37h22.13m0-1h-22.13c-1.86,0-3.37,1.51-3.37,3.37v22.79c0,1.86,1.51,3.37,3.37,3.37h22.79c1.86,0,3.37-1.51,3.37-3.37v-22.13c0-2.22-1.8-4.03-4.02-4.03h0Z"/></g><g><path class="cls-1" d="M107.45,164.58c-1.58,0-2.87-1.29-2.87-2.87v-22.79c0-1.58,1.29-2.87,2.87-2.87h22.13c1.94,0,3.53,1.58,3.53,3.53v22.13c0,1.58-1.29,2.87-2.87,2.87h-22.79Z"/><path class="cls-1" d="M129.58,136.56c1.67,0,3.03,1.36,3.03,3.03v22.13c0,1.3-1.06,2.37-2.37,2.37h-22.79c-1.31,0-2.37-1.06-2.37-2.37v-22.79c0-1.3,1.06-2.37,2.37-2.37h22.13m0-1h-22.13c-1.86,0-3.37,1.51-3.37,3.37v22.79c0,1.86,1.51,3.37,3.37,3.37h22.79c1.86,0,3.37-1.51,3.37-3.37v-22.13c0-2.22-1.8-4.03-4.03-4.03h0Z"/></g><g><path class="cls-1" d="M53.89,308.32c-1.58,0-2.87-1.29-2.87-2.87v-22.79c0-1.58,1.29-2.87,2.87-2.87h22.13c1.94,0,3.53,1.58,3.53,3.53v22.13c0,1.58-1.29,2.87-2.87,2.87h-22.79Z"/><path class="cls-1" d="M76.02,280.3c1.67,0,3.03,1.36,3.03,3.03v22.13c0,1.3-1.06,2.37-2.37,2.37h-22.79c-1.3,0-2.37-1.06-2.37-2.37v-22.79c0-1.3,1.06-2.37,2.37-2.37h22.13m0-1h-22.13c-1.86,0-3.37,1.51-3.37,3.37v22.79c0,1.86,1.51,3.37,3.37,3.37h22.79c1.86,0,3.37-1.51,3.37-3.37v-22.13c0-2.22-1.8-4.03-4.03-4.03h0Z"/></g><path class="cls-6" d="M186.55,364.54c2.5,0,4.22-1.72,4.22-3.67,0-1.82-1.62-3.67-4.29-3.67-1.88,0-4.12,1.33-4.12,3.77,0,1.82,1.79,3.57,4.19,3.57Zm-5.23,31.7v-21.14c-4.32-1.79-8.12-6.04-8.12-10.91,0-6.85,5.98-12.24,13.38-12.24s13.51,5.36,13.51,12.41c0,4.32-3.61,8.64-8.25,10.75v4.94l-3.9,3.61,4.87,4.35v.23l-4.38,3.99,4.12,3.8-5.91,5.29-5.33-5.07Z" pointer-events="none"/><path class="cls-6" d="M229.47,364.54c2.5,0,4.25-1.72,4.25-3.67,0-1.82-1.62-3.67-4.32-3.67-1.88,0-4.12,1.33-4.12,3.77,0,1.82,1.79,3.57,4.19,3.57Zm-5.23,31.7v-21.14c-4.32-1.79-8.09-6.04-8.09-10.91,0-6.85,5.94-12.24,13.35-12.24s13.51,5.36,13.51,12.41c0,4.32-3.61,8.64-8.25,10.75v4.94l-3.9,3.61,4.87,4.35v.23l-4.38,3.99,4.12,3.8-5.91,5.29-5.33-5.07Z" pointer-events="none"/><path class="cls-6" d="M320.12,205.14c2.22,0,3.78-1.53,3.78-3.26,0-1.61-1.44-3.26-3.83-3.26-1.67,0-3.66,1.18-3.66,3.34,0,1.61,1.59,3.17,3.72,3.17Zm-4.64,28.13v-18.76c-3.83-1.59-7.18-5.36-7.18-9.68,0-6.08,5.27-10.87,11.85-10.87s11.99,4.76,11.99,11.01c0,3.83-3.2,7.67-7.32,9.54v4.38l-3.46,3.2,4.32,3.86v.2l-3.89,3.55,3.66,3.37-5.25,4.7-4.73-4.5Z" pointer-events="none"/><path class="cls-7" d="M186.63,237.91l21.03,56.15" pointer-events="none"/><path class="cls-7" d="M207.66,294.06l21.03,56.15" pointer-events="none"/><path class="cls-7" d="M186.63,350.21l21.03-56.15" pointer-events="none"/><path class="cls-4" d="M165.75,294.06l20.89-56.15" pointer-events="none"/><path class="cls-7" d="M136.47,38.28l17.62,112.04" pointer-events="none"/><path class="cls-4" d="M139.34,190l14.76-39.67" pointer-events="none"/><path class="cls-4" d="M154.1,150.32l32.54,87.58" pointer-events="none"/><g><path class="cls-1" d="M175.24,252.14c-1.58,0-2.87-1.29-2.87-2.87v-22.13c0-1.94,1.58-3.52,3.53-3.52h22.13c1.58,0,2.87,1.29,2.87,2.87v22.79c0,1.58-1.29,2.87-2.87,2.87h-22.79Z"/><path class="cls-1" d="M198.03,224.13c1.31,0,2.37,1.06,2.37,2.37v22.79c0,1.3-1.06,2.37-2.37,2.37h-22.79c-1.3,0-2.37-1.06-2.37-2.37v-22.13c0-1.67,1.36-3.03,3.02-3.03h22.13m0-1h-22.13c-2.22,0-4.02,1.8-4.02,4.03v22.13c0,1.86,1.51,3.37,3.37,3.37h22.79c1.86,0,3.37-1.51,3.37-3.37v-22.79c0-1.86-1.51-3.37-3.37-3.37h0Z"/></g><g><path class="cls-1" d="M142.7,164.58c-1.58,0-2.87-1.29-2.87-2.87v-22.13c0-1.94,1.58-3.53,3.53-3.53h22.13c1.58,0,2.87,1.29,2.87,2.87v22.79c0,1.58-1.29,2.87-2.87,2.87h-22.79Z"/><path class="cls-1" d="M165.49,136.56c1.31,0,2.37,1.06,2.37,2.37v22.79c0,1.3-1.06,2.37-2.37,2.37h-22.79c-1.31,0-2.37-1.06-2.37-2.37v-22.13c0-1.67,1.36-3.03,3.03-3.03h22.13m0-1h-22.13c-2.22,0-4.03,1.8-4.03,4.03v22.13c0,1.86,1.51,3.37,3.37,3.37h22.79c1.86,0,3.37-1.51,3.37-3.37v-22.79c0-1.86-1.51-3.37-3.37-3.37h0Z"/></g><g><path class="cls-1" d="M196.27,308.32c-1.58,0-2.87-1.29-2.87-2.87v-22.13c0-1.94,1.58-3.53,3.53-3.53h22.13c1.58,0,2.87,1.29,2.87,2.87v22.79c0,1.58-1.29,2.87-2.87,2.87h-22.79Z"/><path class="cls-1" d="M219.05,280.3c1.3,0,2.37,1.06,2.37,2.37v22.79c0,1.3-1.06,2.37-2.37,2.37h-22.79c-1.31,0-2.37-1.06-2.37-2.37v-22.13c0-1.67,1.36-3.03,3.03-3.03h22.13m0-1h-22.13c-2.22,0-4.03,1.8-4.03,4.03v22.13c0,1.86,1.51,3.37,3.37,3.37h22.79c1.86,0,3.37-1.51,3.37-3.37v-22.79c0-1.86-1.51-3.37-3.37-3.37h0Z"/></g><g><g><path class="cls-3" d="M118.12,8.59h36.7c6.26,0,11.34,5.08,11.34,11.34V56.63c0,6.26-5.08,11.34-11.34,11.34h-36.7c-6.26,0-11.34-5.08-11.34-11.34V19.94c0-6.26,5.08-11.34,11.34-11.34Z"/><path class="cls-1" d="M154.82,9.09c5.98,0,10.84,4.86,10.84,10.84V56.63c0,5.98-4.86,10.84-10.84,10.84h-36.7c-5.98,0-10.84-4.86-10.84-10.84V19.93c0-5.98,4.86-10.84,10.84-10.84h36.7m0-1h-36.7c-6.54,0-11.84,5.3-11.84,11.84V56.63c0,6.54,5.3,11.84,11.84,11.84h36.7c6.54,0,11.84-5.3,11.84-11.84V19.93c0-6.54-5.3-11.84-11.84-11.84h0Z"/></g><path class="cls-1" d="M136.38,27.13c2.29,0,3.91-1.57,3.91-3.37,0-1.68-1.51-3.38-3.97-3.38-1.75,0-3.82,1.21-3.82,3.47,0,1.68,1.65,3.28,3.88,3.28Zm-4.84,29.25v-19.5c-3.98-1.65-7.47-5.57-7.47-10.05,0-6.34,5.51-11.32,12.33-11.32s12.48,4.96,12.48,11.47c0,3.98-3.34,7.95-7.62,9.9v4.55l-3.59,3.31,4.49,4.03v.19l-4.03,3.71,3.8,3.5-5.45,4.87-4.93-4.67Z" pointer-events="none"/></g><g><g><path class="cls-3" d="M306.55,73.5h27.35c4.59,0,8.33,3.73,8.33,8.33v27.35c0,4.59-3.73,8.32-8.32,8.32h-27.35c-4.59,0-8.32-3.73-8.32-8.32v-27.35c0-4.59,3.73-8.32,8.32-8.32Z"/><path class="cls-1" d="M333.9,74c4.31,0,7.82,3.51,7.82,7.82v27.35c0,4.31-3.51,7.82-7.82,7.82h-27.35c-4.31,0-7.82-3.51-7.82-7.82v-27.35c0-4.31,3.51-7.82,7.82-7.82h27.35m0-1h-27.35c-4.87,0-8.82,3.95-8.82,8.82v27.35c0,4.87,3.95,8.82,8.82,8.82h27.35c4.87,0,8.82-3.95,8.82-8.82v-27.35c0-4.87-3.95-8.82-8.82-8.82h0Z"/></g><path class="cls-1" d="M320.15,87.19c1.71,0,2.91-1.17,2.91-2.51,0-1.25-1.13-2.52-2.96-2.52-1.31,0-2.85,.9-2.85,2.59,0,1.25,1.23,2.44,2.89,2.44Zm-3.61,21.8v-14.53c-2.97-1.23-5.57-4.15-5.57-7.49,0-4.72,4.11-8.44,9.19-8.44s9.3,3.69,9.3,8.55c0,2.97-2.49,5.93-5.68,7.38v3.39l-2.68,2.47,3.35,3v.15l-3,2.77,2.84,2.61-4.06,3.63-3.67-3.48Z" pointer-events="none"/></g></svg>